<?xml version="1.0" encoding="utf-8"?>

<!-- Copyright 2016 Siemens AG -->

<!-- Generator: Adobe Illustrator 16.0.4, SVG Export Plug-In . SVG Version: 6.00 Build 0)  -->
<!DOCTYPE svg PUBLIC "-//W3C//DTD SVG 1.1//EN" "http://www.w3.org/Graphics/SVG/1.1/DTD/svg11.dtd">
<svg version="1.1" id="Can_Foot" xmlns="http://www.w3.org/2000/svg" xmlns:xlink="http://www.w3.org/1999/xlink" x="0px" y="0px"
	 width="206.5px" height="300px" viewBox="0 0 206.5 300" enable-background="new 0 0 206.5 300" xml:space="preserve">
<g id="Container">
	<linearGradient id="Shape_4_" gradientUnits="userSpaceOnUse" x1="8.4482" y1="149.9873" x2="198.6884" y2="149.9873">
		<stop  offset="0" style="stop-color:#A5A5A5"/>
		<stop  offset="4.758149e-02" style="stop-color:#B5B5B5"/>
		<stop  offset="0.1509" style="stop-color:#D3D3D3"/>
		<stop  offset="0.2395" style="stop-color:#E5E5E5"/>
		<stop  offset="0.3025" style="stop-color:#ECECEC"/>
		<stop  offset="0.4074" style="stop-color:#E8E8E8"/>
		<stop  offset="0.514" style="stop-color:#DCDCDC"/>
		<stop  offset="0.6214" style="stop-color:#C7C7C7"/>
		<stop  offset="0.7294" style="stop-color:#ABABAB"/>
		<stop  offset="0.8378" style="stop-color:#868686"/>
		<stop  offset="0.9452" style="stop-color:#5A5A5A"/>
		<stop  offset="1" style="stop-color:#404040"/>
	</linearGradient>
	<path id="Shape" fill="url(#Shape_4_)" stroke="#8C8C91" stroke-width="0.75" stroke-linejoin="round" stroke-miterlimit="10" d="
		M201.8,292.2v-51.9c0,0,0-0.9-0.7-1.8c-0.8-1-1.1-2.5-1.1-3.5s0.3-2.5,1.1-3.5c0.9-1,0.9-2.6,0.9-2.6s0-1.7-0.9-2.6
		c-0.9-1-1.1-2.5-1.1-3.5s0.3-2.5,1.1-3.5c0.9-1,0.9-2.6,0.9-2.6s0-1.7-0.9-2.6c-0.9-1-1.1-2.5-1.1-3.5c0-1,0.3-2.5,1.1-3.5
		c0.9-1,0.9-2.6,0.9-2.6s0-1.7-0.9-2.6c-0.9-1-1.1-2.5-1.1-3.5c0-1,0.3-2.5,1.1-3.5c0.9-1,0.9-2.6,0.9-2.6s0-1.7-0.9-2.6
		c-0.9-1-1.1-2.5-1.1-3.5c0-1,0.3-2.5,1.1-3.5c0.9-1,0.9-2.6,0.9-2.6s0-1.7-0.9-2.6c-0.9-1-1.1-2.5-1.1-3.5c0-1,0.3-2.5,1.1-3.5
		c0.9-1,0.9-2.6,0.9-2.6s0-1.7-0.9-2.6c-0.9-1-1.1-2.5-1.1-3.5c0-1,0.3-2.5,1.1-3.5c0.9-1,0.9-2.6,0.9-2.6s0-1.7-0.9-2.6
		c-0.9-1-1.1-2.5-1.1-3.5s0.3-2.5,1.1-3.5c0.9-1,0.9-2.6,0.9-2.6s0-1.7-0.9-2.6c-0.9-1-1.1-2.5-1.1-3.5c0-1,0.3-2.5,1.1-3.5
		c0.9-1,0.9-2.6,0.9-2.6s0-1.7-0.9-2.6c-0.9-1-1.1-2.5-1.1-3.5c0-1,0.3-2.5,1.1-3.5c0.9-1,0.9-2.6,0.9-2.6s0-1.7-0.9-2.6
		c-0.9-1-1.1-2.5-1.1-3.5c0-1,0.3-2.5,1.1-3.5c0.9-1,0.9-2.6,0.9-2.6s0-1.7-0.9-2.6c-0.9-1-1.1-2.5-1.1-3.5c0-1,0.3-2.5,1.1-3.5
		c0.9-1,0.9-2.6,0.9-2.6s0-1.7-0.9-2.6c-0.9-1-1.1-2.5-1.1-3.5c0-1,0.3-2.5,1.1-3.5c0.9-1,0.9-2.6,0.9-2.6s0-1.7-0.9-2.6
		c-0.9-1-1.1-2.5-1.1-3.5c0-1,0.3-2.5,1.1-3.5c0.9-1,0.9-2.6,0.9-2.6s0-1.7-0.9-2.6c-0.9-1-1.1-2.5-1.1-3.5c0-1,0.3-2.5,1.1-3.5
		c0.9-1,0.7-2.6,0.7-2.6V7.8H4.7v49.9c0,0-0.2,1.7,0.7,2.6c0.9,1,1.1,2.5,1.1,3.5c0,1-0.3,2.5-1.1,3.5c-0.9,1-0.8,2.8-0.8,2.8
		s0,1.5,0.8,2.5c0.9,1,1.1,2.5,1.1,3.5c0,1-0.3,2.5-1.1,3.5c-0.9,1-0.8,2.8-0.8,2.8s0,1.5,0.8,2.5c0.9,1,1.1,2.5,1.1,3.5
		c0,1-0.3,2.5-1.1,3.5c-0.9,1-0.8,2.8-0.8,2.8s0,1.5,0.8,2.5c0.9,1,1.1,2.5,1.1,3.5c0,1-0.3,2.5-1.1,3.5c-0.9,1-0.8,2.8-0.8,2.8
		s0,1.5,0.8,2.5c0.9,1,1.1,2.5,1.1,3.5c0,1-0.3,2.5-1.1,3.5c-0.9,1-0.8,2.8-0.8,2.8s0,1.5,0.8,2.5c0.9,1,1.1,2.5,1.1,3.5
		c0,1-0.3,2.5-1.1,3.5c-0.9,1-0.8,2.8-0.8,2.8s0,1.5,0.8,2.5c0.9,1,1.1,2.5,1.1,3.5c0,1-0.3,2.5-1.1,3.5c-0.9,1-0.8,2.8-0.8,2.8
		s0,1.5,0.8,2.5c0.9,1,1.1,2.5,1.1,3.5s-0.3,2.5-1.1,3.5c-0.9,1-0.8,2.8-0.8,2.8s0,1.5,0.8,2.5c0.9,1,1.1,2.5,1.1,3.5
		c0,1-0.3,2.5-1.1,3.5c-0.9,1-0.8,2.8-0.8,2.8s0,1.5,0.8,2.5c0.9,1,1.1,2.5,1.1,3.5c0,1-0.3,2.5-1.1,3.5c-0.9,1-0.8,2.8-0.8,2.8
		s0,1.5,0.8,2.5c0.9,1,1.1,2.5,1.1,3.5c0,1-0.3,2.5-1.1,3.5c-0.9,1-0.8,2.8-0.8,2.8s0,1.5,0.8,2.5c0.9,1,1.1,2.5,1.1,3.5
		c0,1-0.3,2.5-1.1,3.5c-0.9,1-0.8,2.8-0.8,2.8s0,1.5,0.8,2.5c0.9,1,1.1,2.5,1.1,3.5c0,1-0.3,2.5-1.1,3.5c-0.9,1-0.8,2.8-0.8,2.8
		s0,1.5,0.8,2.5c0.9,1,1.1,2.5,1.1,3.5s-0.3,2.5-1.1,3.5c-0.9,1-0.8,2.8-0.8,2.8s0,1.5,0.8,2.5c0.9,1,1.1,2.5,1.1,3.5
		s-0.3,2.5-1.1,3.5c-0.7,0.9-0.7,1.8-0.7,1.8v51.9H201.8z"/>
	<linearGradient id="Reflection_3_" gradientUnits="userSpaceOnUse" x1="14.1621" y1="149.9814" x2="39.7956" y2="149.9814">
		<stop  offset="0" style="stop-color:#F2F2F2;stop-opacity:0.4"/>
		<stop  offset="1" style="stop-color:#F7F7F7;stop-opacity:0.7"/>
	</linearGradient>
	<rect id="Reflection_2_" x="22.7" y="9.3" fill="url(#Reflection_3_)" width="37.5" height="281.4"/>
</g>
<g id="Indentation">
	<linearGradient id="Shape_5_" gradientUnits="userSpaceOnUse" x1="-3.4604" y1="149.2393" x2="193.5825" y2="149.2393">
		<stop  offset="0" style="stop-color:#A5A5A5"/>
		<stop  offset="4.758149e-02" style="stop-color:#B5B5B5"/>
		<stop  offset="0.1509" style="stop-color:#D3D3D3"/>
		<stop  offset="0.2395" style="stop-color:#E5E5E5"/>
		<stop  offset="0.3025" style="stop-color:#ECECEC"/>
		<stop  offset="0.4074" style="stop-color:#E8E8E8"/>
		<stop  offset="0.514" style="stop-color:#DCDCDC"/>
		<stop  offset="0.6214" style="stop-color:#C7C7C7"/>
		<stop  offset="0.7294" style="stop-color:#ABABAB"/>
		<stop  offset="0.8378" style="stop-color:#868686"/>
		<stop  offset="0.9452" style="stop-color:#5A5A5A"/>
		<stop  offset="1" style="stop-color:#404040"/>
	</linearGradient>
	<path id="Shape_3_" fill="url(#Shape_5_)" d="M201.1,60.3c-0.9,1-1.1,2.5-1.1,3.5c0,1,0.3,2.5,1.1,3.5c0.3,0.3,0.4,0.6,0.6,1H4.8
		c0.1-0.4,0.3-0.7,0.6-1c0.9-1,1.1-2.5,1.1-3.5c0-1-0.3-2.5-1.1-3.5c-0.4-0.4-0.6-1-0.6-1.4h197C201.7,59.4,201.5,59.9,201.1,60.3z
		 M201.8,71.1H4.7c0.1,0.5,0.3,1,0.6,1.4c0.9,1,1.1,2.5,1.1,3.5c0,1-0.3,2.5-1.1,3.5c-0.3,0.3-0.4,0.6-0.6,1h196.9
		c-0.1-0.4-0.3-0.7-0.6-1c-0.9-1-1.1-2.5-1.1-3.5c0-1,0.3-2.5,1.1-3.5C201.5,72.1,201.7,71.6,201.8,71.1z M201.8,83.4H4.7
		c0.1,0.5,0.3,1,0.6,1.4c0.9,1,1.1,2.5,1.1,3.5c0,1-0.3,2.5-1.1,3.5c-0.3,0.3-0.4,0.6-0.6,1h196.9c-0.1-0.4-0.3-0.7-0.6-1
		c-0.9-1-1.1-2.5-1.1-3.5c0-1,0.3-2.5,1.1-3.5C201.5,84.4,201.7,83.8,201.8,83.4z M201.8,95.6H4.7c0.1,0.5,0.3,1,0.6,1.4
		c0.9,1,1.1,2.5,1.1,3.5c0,1-0.3,2.5-1.1,3.5c-0.3,0.3-0.4,0.6-0.6,1h196.9c-0.1-0.4-0.3-0.7-0.6-1c-0.9-1-1.1-2.5-1.1-3.5
		c0-1,0.3-2.5,1.1-3.5C201.5,96.6,201.7,96.1,201.8,95.6z M201.8,107.8H4.7c0.1,0.5,0.3,1,0.6,1.4c0.9,1,1.1,2.5,1.1,3.5
		c0,1-0.3,2.5-1.1,3.5c-0.3,0.3-0.4,0.6-0.6,1h196.9c-0.1-0.4-0.3-0.7-0.6-1c-0.9-1-1.1-2.5-1.1-3.5c0-1,0.3-2.5,1.1-3.5
		C201.5,108.9,201.7,108.3,201.8,107.8z M201.8,120.1H4.7c0.1,0.5,0.3,1,0.6,1.4c0.9,1,1.1,2.5,1.1,3.5c0,1-0.3,2.5-1.1,3.5
		c-0.3,0.3-0.4,0.6-0.6,1h196.9c-0.1-0.4-0.3-0.7-0.6-1c-0.9-1-1.1-2.5-1.1-3.5c0-1,0.3-2.5,1.1-3.5
		C201.5,121.1,201.7,120.6,201.8,120.1z M201.8,132.3H4.7c0.1,0.5,0.3,1,0.6,1.4c0.9,1,1.1,2.5,1.1,3.5c0,1-0.3,2.5-1.1,3.5
		c-0.3,0.3-0.4,0.6-0.6,1h196.9c-0.1-0.4-0.3-0.7-0.6-1c-0.9-1-1.1-2.5-1.1-3.5c0-1,0.3-2.5,1.1-3.5
		C201.5,133.4,201.7,132.8,201.8,132.3z M201.8,144.6H4.7c0.1,0.5,0.3,1,0.6,1.4c0.9,1,1.1,2.5,1.1,3.5c0,1-0.3,2.5-1.1,3.5
		c-0.3,0.3-0.4,0.6-0.6,1h196.9c-0.1-0.4-0.3-0.7-0.6-1c-0.9-1-1.1-2.5-1.1-3.5c0-1,0.3-2.5,1.1-3.5
		C201.5,145.6,201.7,145.1,201.8,144.6z M201.8,156.8H4.7c0.1,0.5,0.3,1,0.6,1.4c0.9,1,1.1,2.5,1.1,3.5c0,1-0.3,2.5-1.1,3.5
		c-0.3,0.3-0.4,0.6-0.6,1h196.9c-0.1-0.4-0.3-0.7-0.6-1c-0.9-1-1.1-2.5-1.1-3.5c0-1,0.3-2.5,1.1-3.5
		C201.5,157.8,201.7,157.3,201.8,156.8z M201.8,169.1H4.7c0.1,0.5,0.3,1,0.6,1.4c0.9,1,1.1,2.5,1.1,3.5c0,1-0.3,2.5-1.1,3.5
		c-0.3,0.3-0.4,0.6-0.6,1h196.9c-0.1-0.4-0.3-0.7-0.6-1c-0.9-1-1.1-2.5-1.1-3.5c0-1,0.3-2.5,1.1-3.5
		C201.5,170.1,201.7,169.5,201.8,169.1z M201.8,181.3H4.7c0.1,0.5,0.3,1,0.6,1.4c0.9,1,1.1,2.5,1.1,3.5c0,1-0.3,2.5-1.1,3.5
		c-0.3,0.3-0.4,0.6-0.6,1h196.9c-0.1-0.4-0.3-0.7-0.6-1c-0.9-1-1.1-2.5-1.1-3.5c0-1,0.3-2.5,1.1-3.5
		C201.5,182.3,201.7,181.8,201.8,181.3z M201.8,193.5H4.7c0.1,0.5,0.3,1,0.6,1.4c0.9,1,1.1,2.5,1.1,3.5c0,1-0.3,2.5-1.1,3.5
		c-0.3,0.3-0.4,0.6-0.6,1h196.9c-0.1-0.4-0.3-0.7-0.6-1c-0.9-1-1.1-2.5-1.1-3.5c0-1,0.3-2.5,1.1-3.5
		C201.5,194.6,201.7,194,201.8,193.5z M201.8,205.8H4.7c0.1,0.5,0.3,1,0.6,1.4c0.9,1,1.1,2.5,1.1,3.5c0,1-0.3,2.5-1.1,3.5
		c-0.3,0.3-0.4,0.6-0.6,1h196.9c-0.1-0.4-0.3-0.7-0.6-1c-0.9-1-1.1-2.5-1.1-3.5c0-1,0.3-2.5,1.1-3.5
		C201.5,206.8,201.7,206.3,201.8,205.8z M201.8,218H4.7c0.1,0.5,0.3,1,0.6,1.4c0.9,1,1.1,2.5,1.1,3.5c0,1-0.3,2.5-1.1,3.5
		c-0.3,0.3-0.4,0.6-0.6,1h196.9c-0.1-0.4-0.3-0.7-0.6-1c-0.9-1-1.1-2.5-1.1-3.5c0-1,0.3-2.5,1.1-3.5
		C201.5,219.1,201.7,218.5,201.8,218z M201.8,230.2H4.7c0.1,0.5,0.3,1,0.6,1.4c0.9,1,1.1,2.5,1.1,3.5c0,1-0.3,2.5-1.1,3.5
		c-0.3,0.3-0.4,0.6-0.6,1h196.9c-0.1-0.4-0.3-0.7-0.6-1c-0.9-1-1.1-2.5-1.1-3.5c0-1,0.3-2.5,1.1-3.5
		C201.5,231.2,201.7,230.7,201.8,230.2z"/>
	<linearGradient id="Reflection_White_1_" gradientUnits="userSpaceOnUse" x1="22.5308" y1="150.7471" x2="38.369" y2="150.7471">
		<stop  offset="0" style="stop-color:#F2F2F2;stop-opacity:0.4"/>
		<stop  offset="1" style="stop-color:#F7F7F7;stop-opacity:0.7"/>
	</linearGradient>
	<path id="Reflection_White" fill="url(#Reflection_White_1_)" d="M61.8,62.2c0,0,0.4,3.3-1.5,5.8H22.7c1.9-2.5,1.5-5.8,1.5-5.8
		H61.8z M24.3,74.5c0,0,0.4,3.3-1.5,5.8h37.5c1.9-2.5,1.5-5.8,1.5-5.8H24.3z M24.3,86.7c0,0,0.4,3.3-1.5,5.8h37.5
		c1.9-2.5,1.5-5.8,1.5-5.8H24.3z M24.3,98.9c0,0,0.4,3.3-1.5,5.8h37.5c1.9-2.5,1.5-5.8,1.5-5.8H24.3z M24.3,111.2
		c0,0,0.4,3.3-1.5,5.8h37.5c1.9-2.5,1.5-5.8,1.5-5.8H24.3z M24.3,123.4c0,0,0.4,3.3-1.5,5.8h37.5c1.9-2.5,1.5-5.8,1.5-5.8H24.3z
		 M24.3,135.7c0,0,0.4,3.3-1.5,5.8h37.5c1.9-2.5,1.5-5.8,1.5-5.8H24.3z M24.3,147.9c0,0,0.4,3.3-1.5,5.8h37.5
		c1.9-2.5,1.5-5.8,1.5-5.8H24.3z M24.3,160.2c0,0,0.4,3.3-1.5,5.8h37.5c1.9-2.5,1.5-5.8,1.5-5.8H24.3z M24.3,172.4
		c0,0,0.4,3.3-1.5,5.8h37.5c1.9-2.5,1.5-5.8,1.5-5.8H24.3z M24.3,184.6c0,0,0.4,3.3-1.5,5.8h37.5c1.9-2.5,1.5-5.8,1.5-5.8H24.3z
		 M24.3,196.9c0,0,0.4,3.3-1.5,5.8h37.5c1.9-2.5,1.5-5.8,1.5-5.8H24.3z M24.3,209.1c0,0,0.4,3.3-1.5,5.8h37.5
		c1.9-2.5,1.5-5.8,1.5-5.8H24.3z M24.3,221.4c0,0,0.4,3.3-1.5,5.8h37.5c1.9-2.5,1.5-5.8,1.5-5.8H24.3z M24.3,233.5
		c0,0,0.4,3.3-1.5,5.8h37.5c1.9-2.5,1.5-5.8,1.5-5.8H24.3z"/>
	<linearGradient id="Underside_1_" gradientUnits="userSpaceOnUse" x1="-141.5801" y1="146.1836" x2="176.9024" y2="146.1836">
		<stop  offset="0" style="stop-color:#FFFFFF"/>
		<stop  offset="1" style="stop-color:#424242"/>
	</linearGradient>
	<path id="Underside" fill="url(#Underside_1_)" d="M6.3,62.2c-0.2-0.7-0.5-1.4-0.9-1.9c-0.4-0.4-0.6-1-0.6-1.4h197
		c-0.1,0.5-0.3,1-0.6,1.4c-0.5,0.5-0.8,1.2-0.9,1.9 M200.2,74.4c0.2-0.7,0.5-1.4,0.9-1.9c0.4-0.4,0.5-1,0.6-1.4H4.7
		c0.1,0.5,0.3,1,0.6,1.4c0.5,0.5,0.8,1.2,0.9,1.9 M200.2,86.7c0.2-0.7,0.5-1.4,0.9-1.9c0.4-0.4,0.5-1,0.6-1.4H4.7
		c0.1,0.5,0.3,1,0.6,1.4c0.5,0.5,0.8,1.2,0.9,1.9 M200.2,98.9c0.2-0.7,0.5-1.4,0.9-1.9c0.4-0.4,0.5-1,0.6-1.4H4.7
		c0.1,0.5,0.3,1,0.6,1.4c0.5,0.5,0.8,1.2,0.9,1.9 M200.2,111.2c0.2-0.7,0.5-1.4,0.9-1.9c0.4-0.4,0.5-1,0.6-1.4H4.7
		c0.1,0.5,0.3,1,0.6,1.4c0.5,0.5,0.8,1.2,0.9,1.9 M200.2,123.4c0.2-0.7,0.5-1.4,0.9-1.9c0.4-0.4,0.5-1,0.6-1.4H4.7
		c0.1,0.5,0.3,1,0.6,1.4c0.5,0.5,0.8,1.2,0.9,1.9 M200.2,135.6c0.2-0.7,0.5-1.4,0.9-1.9c0.4-0.4,0.5-1,0.6-1.4H4.7
		c0.1,0.5,0.3,1,0.6,1.4c0.5,0.5,0.8,1.2,0.9,1.9 M200.2,147.9c0.2-0.7,0.5-1.4,0.9-1.9c0.4-0.4,0.5-1,0.6-1.4H4.7
		c0.1,0.5,0.3,1,0.6,1.4c0.5,0.5,0.8,1.2,0.9,1.9 M200.2,160.1c0.2-0.7,0.5-1.4,0.9-1.9c0.4-0.4,0.5-1,0.6-1.4H4.7
		c0.1,0.5,0.3,1,0.6,1.4c0.5,0.5,0.8,1.2,0.9,1.9 M200.2,172.4c0.2-0.7,0.5-1.4,0.9-1.9c0.4-0.4,0.5-1,0.6-1.4H4.7
		c0.1,0.5,0.3,1,0.6,1.4c0.5,0.5,0.8,1.2,0.9,1.9 M200.2,184.6c0.2-0.7,0.5-1.4,0.9-1.9c0.4-0.4,0.5-1,0.6-1.4H4.7
		c0.1,0.5,0.3,1,0.6,1.4c0.5,0.5,0.8,1.2,0.9,1.9 M200.2,196.9c0.2-0.7,0.5-1.4,0.9-1.9c0.4-0.4,0.5-1,0.6-1.4H4.7
		c0.1,0.5,0.3,1,0.6,1.4c0.5,0.5,0.8,1.2,0.9,1.9 M200.2,209.1c0.2-0.7,0.5-1.4,0.9-1.9c0.4-0.4,0.5-1,0.6-1.4H4.7
		c0.1,0.5,0.3,1,0.6,1.4c0.5,0.5,0.8,1.2,0.9,1.9 M200.2,221.3c0.2-0.7,0.5-1.4,0.9-1.9c0.4-0.4,0.5-1,0.6-1.4H4.7
		c0.1,0.5,0.3,1,0.6,1.4c0.5,0.5,0.8,1.2,0.9,1.9 M200.2,233.5c0.2-0.7,0.5-1.4,0.9-1.9c0.4-0.4,0.5-1,0.6-1.4H4.7
		c0.1,0.5,0.3,1,0.6,1.4c0.5,0.5,0.8,1.2,0.9,1.9"/>
</g>
<g id="Ring_Bottom">
	<linearGradient id="Shape_6_" gradientUnits="userSpaceOnUse" x1="-14.5952" y1="294.8081" x2="194.6379" y2="294.8081">
		<stop  offset="0" style="stop-color:#A5A5A5"/>
		<stop  offset="4.758149e-02" style="stop-color:#B5B5B5"/>
		<stop  offset="0.1509" style="stop-color:#D3D3D3"/>
		<stop  offset="0.2395" style="stop-color:#E5E5E5"/>
		<stop  offset="0.3025" style="stop-color:#ECECEC"/>
		<stop  offset="0.4074" style="stop-color:#E8E8E8"/>
		<stop  offset="0.514" style="stop-color:#DCDCDC"/>
		<stop  offset="0.6214" style="stop-color:#C7C7C7"/>
		<stop  offset="0.7294" style="stop-color:#ABABAB"/>
		<stop  offset="0.8378" style="stop-color:#868686"/>
		<stop  offset="0.9452" style="stop-color:#5A5A5A"/>
		<stop  offset="1" style="stop-color:#404040"/>
	</linearGradient>
	<path id="Shape_2_" fill="url(#Shape_6_)" stroke="#8C8C91" stroke-width="0.75" stroke-miterlimit="10" d="M4.7,292.2
		c0,0-2,1-2.3,4.1c0,0-0.2,1.1,0.8,1.1c1,0,199.1,0,200.1,0c1,0,0.8-1.1,0.8-1.1c-0.3-3.1-2.3-4.1-2.3-4.1H4.7z"/>
	
		<linearGradient id="Edge_Botton_1_" gradientUnits="userSpaceOnUse" x1="-168.2549" y1="273.8477" x2="-102.0176" y2="273.8477" gradientTransform="matrix(1 0 0 -1 0 570.6084)">
		<stop  offset="0" style="stop-color:#FFFFFF"/>
		<stop  offset="1" style="stop-color:#7C7C7B"/>
	</linearGradient>
	
		<path id="Edge_Botton" fill="url(#Edge_Botton_1_)" stroke="#8C8C91" stroke-width="0.75" stroke-linecap="round" stroke-miterlimit="10" d="
		M2.4,296.2c0,0-0.2,1.1,0.8,1.1c1,0,199.1,0,200.1,0s0.8-1.1,0.8-1.1"/>
	<linearGradient id="Devider_Line_1_" gradientUnits="userSpaceOnUse" x1="-399.3193" y1="291.4478" x2="118.3665" y2="291.4478">
		<stop  offset="0" style="stop-color:#A5A5A5"/>
		<stop  offset="4.758149e-02" style="stop-color:#B5B5B5"/>
		<stop  offset="0.1509" style="stop-color:#D3D3D3"/>
		<stop  offset="0.2395" style="stop-color:#E5E5E5"/>
		<stop  offset="0.3025" style="stop-color:#ECECEC"/>
		<stop  offset="0.4074" style="stop-color:#E8E8E8"/>
		<stop  offset="0.514" style="stop-color:#DCDCDC"/>
		<stop  offset="0.6214" style="stop-color:#C7C7C7"/>
		<stop  offset="0.7294" style="stop-color:#ABABAB"/>
		<stop  offset="0.8378" style="stop-color:#868686"/>
		<stop  offset="0.9452" style="stop-color:#5A5A5A"/>
		<stop  offset="1" style="stop-color:#404040"/>
	</linearGradient>
	
		<polyline id="Devider_Line" fill="url(#Devider_Line_1_)" stroke="#8C8C91" stroke-width="0.75" stroke-linejoin="round" stroke-miterlimit="10" points="
		201.8,290.7 201.8,292.2 4.7,292.2 4.7,290.7 	"/>
	<polygon id="Reflection_1_" fill="#FFFFFF" points="60.2,292.7 22.7,292.7 21.6,295.2 59.2,295.2 	"/>
</g>
<g id="Ring_Top">
	<linearGradient id="Shape_7_" gradientUnits="userSpaceOnUse" x1="7.8208" y1="5.1777" x2="189.9396" y2="5.1777">
		<stop  offset="0" style="stop-color:#A5A5A5"/>
		<stop  offset="4.758149e-02" style="stop-color:#B5B5B5"/>
		<stop  offset="0.1509" style="stop-color:#D3D3D3"/>
		<stop  offset="0.2395" style="stop-color:#E5E5E5"/>
		<stop  offset="0.3025" style="stop-color:#ECECEC"/>
		<stop  offset="0.4074" style="stop-color:#E8E8E8"/>
		<stop  offset="0.514" style="stop-color:#DCDCDC"/>
		<stop  offset="0.6214" style="stop-color:#C7C7C7"/>
		<stop  offset="0.7294" style="stop-color:#ABABAB"/>
		<stop  offset="0.8378" style="stop-color:#868686"/>
		<stop  offset="0.9452" style="stop-color:#5A5A5A"/>
		<stop  offset="1" style="stop-color:#404040"/>
	</linearGradient>
	<path id="Shape_1_" fill="url(#Shape_7_)" stroke="#8C8C91" stroke-width="0.75" stroke-miterlimit="10" d="M4.7,7.8
		c0,0-2-1-2.3-4.1c0,0-0.2-1.1,0.8-1.1c1,0,199.1,0,200.1,0c1,0,0.8,1.1,0.8,1.1c-0.3,3.1-2.3,4.1-2.3,4.1H4.7z"/>
	<linearGradient id="Edge_Top_1_" gradientUnits="userSpaceOnUse" x1="18.9375" y1="3.1475" x2="219.9559" y2="3.1475">
		<stop  offset="0" style="stop-color:#FFFFFF"/>
		<stop  offset="1" style="stop-color:#7C7C7B"/>
	</linearGradient>
	
		<path id="Edge_Top" fill="url(#Edge_Top_1_)" stroke="#8C8C91" stroke-width="0.75" stroke-linecap="round" stroke-miterlimit="10" d="
		M2.4,3.7c0,0-0.2-1.1,0.8-1.1c1,0,199.1,0,200.1,0c1,0,0.8,1.1,0.8,1.1"/>
	
		<linearGradient id="Shadow_x2F_Devider_Line_1_" gradientUnits="userSpaceOnUse" x1="-646.8447" y1="8.5264" x2="204.5589" y2="8.5264">
		<stop  offset="0" style="stop-color:#A5A5A5"/>
		<stop  offset="4.758149e-02" style="stop-color:#B5B5B5"/>
		<stop  offset="0.1509" style="stop-color:#D3D3D3"/>
		<stop  offset="0.2395" style="stop-color:#E5E5E5"/>
		<stop  offset="0.3025" style="stop-color:#ECECEC"/>
		<stop  offset="0.4074" style="stop-color:#E8E8E8"/>
		<stop  offset="0.514" style="stop-color:#DCDCDC"/>
		<stop  offset="0.6214" style="stop-color:#C7C7C7"/>
		<stop  offset="0.7294" style="stop-color:#ABABAB"/>
		<stop  offset="0.8378" style="stop-color:#868686"/>
		<stop  offset="0.9452" style="stop-color:#5A5A5A"/>
		<stop  offset="1" style="stop-color:#404040"/>
	</linearGradient>
	
		<polyline id="Shadow_x2F_Devider_Line" fill="url(#Shadow_x2F_Devider_Line_1_)" stroke="#8C8C91" stroke-width="0.75" stroke-linejoin="round" stroke-miterlimit="10" points="
		201.8,9.3 201.8,7.8 4.7,7.8 4.7,9.3 	"/>
	<linearGradient id="Reflection_4_" gradientUnits="userSpaceOnUse" x1="40.9434" y1="5.9785" x2="40.9434" y2="5.1769">
		<stop  offset="0" style="stop-color:#F2F2F2;stop-opacity:0.4"/>
		<stop  offset="1" style="stop-color:#F7F7F7;stop-opacity:0.7"/>
	</linearGradient>
	<polygon id="Reflection" fill="url(#Reflection_4_)" points="60.2,6.2 22.7,6.2 21.6,3.7 59.2,3.7 	"/>
</g>
<path id="Outline_Container" fill="none" stroke="#8C8C91" stroke-width="0.75" stroke-linejoin="round" stroke-miterlimit="10" d="
	M201.8,292.2v-51.9c0,0,0-0.9-0.7-1.8c-0.8-1-1.1-2.5-1.1-3.5s0.3-2.5,1.1-3.5c0.9-1,0.9-2.6,0.9-2.6s0-1.7-0.9-2.6
	c-0.9-1-1.1-2.5-1.1-3.5s0.3-2.5,1.1-3.5c0.9-1,0.9-2.6,0.9-2.6s0-1.7-0.9-2.6c-0.9-1-1.1-2.5-1.1-3.5c0-1,0.3-2.5,1.1-3.5
	c0.9-1,0.9-2.6,0.9-2.6s0-1.7-0.9-2.6c-0.9-1-1.1-2.5-1.1-3.5c0-1,0.3-2.5,1.1-3.5c0.9-1,0.9-2.6,0.9-2.6s0-1.7-0.9-2.6
	c-0.9-1-1.1-2.5-1.1-3.5c0-1,0.3-2.5,1.1-3.5c0.9-1,0.9-2.6,0.9-2.6s0-1.7-0.9-2.6c-0.9-1-1.1-2.5-1.1-3.5c0-1,0.3-2.5,1.1-3.5
	c0.9-1,0.9-2.6,0.9-2.6s0-1.7-0.9-2.6c-0.9-1-1.1-2.5-1.1-3.5c0-1,0.3-2.5,1.1-3.5c0.9-1,0.9-2.6,0.9-2.6s0-1.7-0.9-2.6
	c-0.9-1-1.1-2.5-1.1-3.5s0.3-2.5,1.1-3.5c0.9-1,0.9-2.6,0.9-2.6s0-1.7-0.9-2.6c-0.9-1-1.1-2.5-1.1-3.5c0-1,0.3-2.5,1.1-3.5
	c0.9-1,0.9-2.6,0.9-2.6s0-1.7-0.9-2.6c-0.9-1-1.1-2.5-1.1-3.5c0-1,0.3-2.5,1.1-3.5c0.9-1,0.9-2.6,0.9-2.6s0-1.7-0.9-2.6
	c-0.9-1-1.1-2.5-1.1-3.5c0-1,0.3-2.5,1.1-3.5c0.9-1,0.9-2.6,0.9-2.6s0-1.7-0.9-2.6c-0.9-1-1.1-2.5-1.1-3.5c0-1,0.3-2.5,1.1-3.5
	c0.9-1,0.9-2.6,0.9-2.6s0-1.7-0.9-2.6c-0.9-1-1.1-2.5-1.1-3.5c0-1,0.3-2.5,1.1-3.5c0.9-1,0.9-2.6,0.9-2.6s0-1.7-0.9-2.6
	c-0.9-1-1.1-2.5-1.1-3.5c0-1,0.3-2.5,1.1-3.5c0.9-1,0.9-2.6,0.9-2.6s0-1.7-0.9-2.6c-0.9-1-1.1-2.5-1.1-3.5c0-1,0.3-2.5,1.1-3.5
	c0.9-1,0.7-2.6,0.7-2.6V7.8H4.7v49.9c0,0-0.2,1.7,0.7,2.6c0.9,1,1.1,2.5,1.1,3.5c0,1-0.3,2.5-1.1,3.5c-0.9,1-0.8,2.8-0.8,2.8
	s0,1.5,0.8,2.5c0.9,1,1.1,2.5,1.1,3.5c0,1-0.3,2.5-1.1,3.5c-0.9,1-0.8,2.8-0.8,2.8s0,1.5,0.8,2.5c0.9,1,1.1,2.5,1.1,3.5
	c0,1-0.3,2.5-1.1,3.5c-0.9,1-0.8,2.8-0.8,2.8s0,1.5,0.8,2.5c0.9,1,1.1,2.5,1.1,3.5c0,1-0.3,2.5-1.1,3.5c-0.9,1-0.8,2.8-0.8,2.8
	s0,1.5,0.8,2.5c0.9,1,1.1,2.5,1.1,3.5c0,1-0.3,2.5-1.1,3.5c-0.9,1-0.8,2.8-0.8,2.8s0,1.5,0.8,2.5c0.9,1,1.1,2.5,1.1,3.5
	c0,1-0.3,2.5-1.1,3.5c-0.9,1-0.8,2.8-0.8,2.8s0,1.5,0.8,2.5c0.9,1,1.1,2.5,1.1,3.5c0,1-0.3,2.5-1.1,3.5c-0.9,1-0.8,2.8-0.8,2.8
	s0,1.5,0.8,2.5c0.9,1,1.1,2.5,1.1,3.5s-0.3,2.5-1.1,3.5c-0.9,1-0.8,2.8-0.8,2.8s0,1.5,0.8,2.5c0.9,1,1.1,2.5,1.1,3.5
	c0,1-0.3,2.5-1.1,3.5c-0.9,1-0.8,2.8-0.8,2.8s0,1.5,0.8,2.5c0.9,1,1.1,2.5,1.1,3.5c0,1-0.3,2.5-1.1,3.5c-0.9,1-0.8,2.8-0.8,2.8
	s0,1.5,0.8,2.5c0.9,1,1.1,2.5,1.1,3.5c0,1-0.3,2.5-1.1,3.5c-0.9,1-0.8,2.8-0.8,2.8s0,1.5,0.8,2.5c0.9,1,1.1,2.5,1.1,3.5
	c0,1-0.3,2.5-1.1,3.5c-0.9,1-0.8,2.8-0.8,2.8s0,1.5,0.8,2.5c0.9,1,1.1,2.5,1.1,3.5c0,1-0.3,2.5-1.1,3.5c-0.9,1-0.8,2.8-0.8,2.8
	s0,1.5,0.8,2.5c0.9,1,1.1,2.5,1.1,3.5s-0.3,2.5-1.1,3.5c-0.9,1-0.8,2.8-0.8,2.8s0,1.5,0.8,2.5c0.9,1,1.1,2.5,1.1,3.5
	s-0.3,2.5-1.1,3.5c-0.7,0.9-0.7,1.8-0.7,1.8v51.9H201.8z"/>
</svg>
