<?xml version="1.0" encoding="utf-8"?>

<!-- Copyright 2016 Siemens AG -->

<!-- Generator: Adobe Illustrator 16.0.4, SVG Export Plug-In . SVG Version: 6.00 Build 0)  -->
<!DOCTYPE svg PUBLIC "-//W3C//DTD SVG 1.1//EN" "http://www.w3.org/Graphics/SVG/1.1/DTD/svg11.dtd">
<svg version="1.1" id="Burning_Flame_1" xmlns="http://www.w3.org/2000/svg" xmlns:xlink="http://www.w3.org/1999/xlink" x="0px"
	 y="0px" width="300px" height="300px" viewBox="0 0 300 300" enable-background="new 0 0 300 300" xml:space="preserve">
<linearGradient id="Button_1_" gradientUnits="userSpaceOnUse" x1="-56.4541" y1="-56.4287" x2="410.0616" y2="410.087">
	<stop  offset="0" style="stop-color:#FFFFFF"/>
	<stop  offset="1" style="stop-color:#7C7C7B"/>
</linearGradient>
<circle id="Button" fill="url(#Button_1_)" stroke="#8C8C91" stroke-width="0.75" stroke-miterlimit="10" cx="150.1" cy="150.1" r="148"/>
<linearGradient id="Flame-Icon_1_" gradientUnits="userSpaceOnUse" x1="271.9434" y1="-15.1211" x2="81.9433" y2="327.8789">
	<stop  offset="0" style="stop-color:#FFED00"/>
	<stop  offset="1" style="stop-color:#FF0000"/>
</linearGradient>
<path id="Flame-Icon" fill="url(#Flame-Icon_1_)" stroke="#D02117" stroke-width="0.75" stroke-linecap="round" stroke-linejoin="round" stroke-miterlimit="10" d="
	M188.5,106.5c25.2-35.6-19.4-74-19.4-74c16.8,30.5,11.7,61.7-3.1,61.7c-22.2,0-6.3-38.3-6.3-38.3c-28.3,30.8-21.3,32.1-8.8,54.4
	c22.9,40.8,13.8,61.2-6.5,61.8c-18.5,0.6-27.1-17.1-17.4-31.6c11.2-16.8-0.9-39-25.6-56.7c0,0,20.8,30.1,2.5,43.7
	c-20.1,15-10.7,25.9-18.4,34.5c-6.7,7.4-17.2-1.2-14.8-11.1c0,0-9.9,11.1-3.7,25.9c6.2,14.8-4.9,14.8-4.9,14.8s-3.3-1.2-4.6-8.6
	c-1.2-7.4-4.9-13.5-12.3-14.8c0,0,6.2,16,0,22.2c-6.2,6.2-11.5,8-11.5,27.7h234.4c0,0,11.1-21.5-17.2-40c0,0,15.2,25-0.5,22.9
	c-8.3-1.2-4.6-12.3-5.1-20.8c-0.9-13.2-18.8-30.8-18.8-30.8s8.5,14.2,8,23.1c-0.6,9.3-2.9,14.5-11.4,13.4
	c-12.7-1.7-11.1-14.5-5.1-29.9c4.1-10.5-4.6-25.5-9.1-33.6c-10.8-19.4,2.1-34.4,0.7-33.3c-8.4,6.8-15.1,16.5-10.7,33
	c3.5,13.1-4.4,23.3-11.9,21.4C178.6,141.1,173.2,128.2,188.5,106.5z"/>
</svg>
