<?xml version="1.0" encoding="utf-8"?>

<!-- Copyright 2016 Siemens AG -->

<!-- Generator: Adobe Illustrator 16.0.4, SVG Export Plug-In . SVG Version: 6.00 Build 0)  -->
<!DOCTYPE svg PUBLIC "-//W3C//DTD SVG 1.1//EN" "http://www.w3.org/Graphics/SVG/1.1/DTD/svg11.dtd">
<svg version="1.1" id="Cool" xmlns="http://www.w3.org/2000/svg" xmlns:xlink="http://www.w3.org/1999/xlink" x="0px" y="0px"
	 width="300px" height="300px" viewBox="0 0 300 300" enable-background="new 0 0 300 300" xml:space="preserve">
<linearGradient id="Button_1_" gradientUnits="userSpaceOnUse" x1="-56.4541" y1="-56.4287" x2="410.0616" y2="410.087">
	<stop  offset="0" style="stop-color:#FFFFFF"/>
	<stop  offset="1" style="stop-color:#7C7C7B"/>
</linearGradient>
<circle id="Button" fill="url(#Button_1_)" stroke="#8C8C91" stroke-width="0.75" stroke-miterlimit="10" cx="150.1" cy="150.1" r="148"/>
<linearGradient id="Cool-Icon_1_" gradientUnits="userSpaceOnUse" x1="162.1855" y1="162.4883" x2="-12.4013" y2="-13.9658">
	<stop  offset="0" style="stop-color:#0024F7"/>
	<stop  offset="1" style="stop-color:#23D9D3"/>
</linearGradient>
<path id="Cool-Icon" fill="url(#Cool-Icon_1_)" stroke="#0D5DFF" stroke-width="0.75" stroke-linecap="round" stroke-linejoin="round" stroke-miterlimit="10" d="
	M260.9,144h-37.2l12.7-12.9l-6.2-11.8L205.4,144H183c-0.9-4.7-2.7-9-5.3-12.8l18.1-18.1h34.4l-6.2-12.3h-15.9L232.8,76l-8.7-8.7
	l-24.8,24.8V75.5L187,69.9v34.5l-18,18c-3.8-2.6-8.1-4.4-12.8-5.3V94l24.5-24.3l-12.3-6.1l-12.2,12.3V39.1h-12.3v37.2L131,63.5
	l-11.8,6.2l24.7,24.9v22.5c-4.7,0.9-9,2.7-12.8,5.3l-18.1-18.1V70l-12.3,6.2v15.8L75.9,67.2l-8.7,8.7l24.9,24.9H75.9l-6.2,12.3h34.6
	l18,18c-2.6,3.8-4.4,8.1-5.3,12.7H93.8l-24.3-24.5l-6.1,12.3l12.3,12.2H38.9v12.3h37.2l-12.7,12.9l6.2,11.8l24.9-24.7H117
	c0.9,4.7,2.7,9,5.2,12.8l-18.2,18.2H69.8l6.2,12.3h15.8L67,224.2l8.7,8.7l24.9-24.9v16.1l12.3,6.2v-34.6l17.9-17.9
	c3.8,2.6,8.1,4.5,12.7,5.4v23.2l-24.5,24.3l12.3,6.1l12.2-12.3v36.7H156V224l12.9,12.7l11.8-6.2L156,205.6v-22.5
	c4.7-0.9,9-2.7,12.8-5.3l18.1,18.1v34.4l12.3-6.2v-15.9L224,233l8.7-8.7l-24.8-24.8h16.6l5.5-12.3h-34.5l-18-18
	c2.6-3.8,4.5-8.1,5.4-12.8h23.1l24.3,24.5l6.1-12.3l-12.3-12.2h36.7V144z M150,171.7c-11.9,0-21.6-9.7-21.6-21.6s9.7-21.6,21.6-21.6
	s21.6,9.7,21.6,21.6S161.9,171.7,150,171.7z"/>
</svg>
