<?xml version="1.0" encoding="utf-8"?>

<!-- Copyright 2016 Siemens AG -->

<!-- Generator: Adobe Illustrator 16.0.4, SVG Export Plug-In . SVG Version: 6.00 Build 0)  -->
<!DOCTYPE svg PUBLIC "-//W3C//DTD SVG 1.1//EN" "http://www.w3.org/Graphics/SVG/1.1/DTD/svg11.dtd">
<svg version="1.1" id="Non_Contact_Thermometer" xmlns="http://www.w3.org/2000/svg" xmlns:xlink="http://www.w3.org/1999/xlink"
	 x="0px" y="0px" width="300px" height="300px" viewBox="0 0 300 300" enable-background="new 0 0 300 300" xml:space="preserve">
<g id="Housing">
	<linearGradient id="Shape_4_" gradientUnits="userSpaceOnUse" x1="3.2979" y1="8.3984" x2="257.1967" y2="398.0658">
		<stop  offset="0" style="stop-color:#FFFFFF"/>
		<stop  offset="1" style="stop-color:#7C7C7B"/>
	</linearGradient>
	
		<path id="Shape_3_" fill="url(#Shape_4_)" stroke="#8C8C91" stroke-width="0.75" stroke-linecap="round" stroke-linejoin="round" stroke-miterlimit="10" d="
		M187.9,8.1H61.2L18.5,122.9c-20,59.8-15.8,151.7-15.8,164.2c0,10.7,9.1,10.5,9.1,10.5s65.1,0,74.6,0c5.1,0,13.1,0.4,13.1-7
		s-12.6-15.7-12.6-35.4c0-14.5,9.7-32.5,9.7-60.4c0-20.7-1.7-32.6-1.7-42.5c0-40.3,32.7-53.7,32.7-53.7l48.9-10.9L187.9,8.1z"/>
	<linearGradient id="Reflection_Left_1_" gradientUnits="userSpaceOnUse" x1="4.2861" y1="136.541" x2="180.899" y2="252.9449">
		<stop  offset="0" style="stop-color:#FFFFFF"/>
		<stop  offset="1" style="stop-color:#7C7C7B"/>
	</linearGradient>
	<path id="Reflection_Left" fill="url(#Reflection_Left_1_)" d="M69.9,21.9H56l-37.5,101c-20,59.8-15.8,151.7-15.8,164.2
		c0,10.7,9.1,10.5,9.1,10.5s5.6,0,13.8,0c-1.1,0-8.9-0.4-8.9-10.5c0-12.5-4.2-104.4,15.8-164.2L69.9,21.9z"/>
	
		<path id="Description_Sign" fill="none" stroke="#646567" stroke-width="0.75" stroke-linecap="round" stroke-linejoin="round" stroke-miterlimit="10" d="
		M79.5,74.1l11.9-43.5c0,0,1.1-3.7,4.7-3.7c3.5,0,70.5,0,70.5,0s3.2-0.1,2.8,2.9c-0.4,3-4.2,28.7-4.2,28.7s-0.4,3.8-4,4.5
		c-3,0.6-77.1,16.5-77.1,16.5S77.5,81.1,79.5,74.1z"/>
	
		<linearGradient id="Reflection_Top_1_" gradientUnits="userSpaceOnUse" x1="121.9688" y1="14.3145" x2="121.9688" y2="6.746960e-02">
		<stop  offset="0" style="stop-color:#FFFFFF"/>
		<stop  offset="1" style="stop-color:#7C7C7B"/>
	</linearGradient>
	
		<polyline id="Reflection_Top" fill="url(#Reflection_Top_1_)" stroke="#8C8C91" stroke-width="0.75" stroke-linecap="round" stroke-linejoin="round" stroke-miterlimit="10" points="
		56,21.9 61.2,8.1 187.9,8.1 185.9,21.9 	"/>
	
		<linearGradient id="Edge_Right__x2B_Unterside_1_" gradientUnits="userSpaceOnUse" x1="-19.4302" y1="118.5322" x2="195.4673" y2="220.832">
		<stop  offset="0" style="stop-color:#FFFFFF"/>
		<stop  offset="3.482515e-02" style="stop-color:#FAFAFA"/>
		<stop  offset="0.4961" style="stop-color:#B6B6B6"/>
		<stop  offset="0.8298" style="stop-color:#8C8C8B"/>
		<stop  offset="1" style="stop-color:#7C7C7B"/>
	</linearGradient>
	<path id="Edge_Right__x2B_Unterside" fill="url(#Edge_Right__x2B_Unterside_1_)" d="M178.5,73.3c0,0-25.5,5.4-50.3,10.4
		c-33.2,6.7-58.1,29.8-58.1,68.6c0,9.9,1.7,21.8,1.7,42.5c0,27.9-9.7,45.9-9.7,60.4c0,19.7,12.6,28,12.6,35.4c0,6.4-6.1,7-11,7
		c10.6,0,19.5,0,22.6,0c5.1,0,13.1,0.4,13.1-7s-12.6-15.7-12.6-35.4c0-14.5,9.7-32.5,9.7-60.4c0-20.7-1.7-32.6-1.7-42.5
		c0-38,29.1-52.1,32.4-53.6l49.3-11L178.5,73.3z"/>
	
		<linearGradient id="Hollow_Battery_Cover_1_" gradientUnits="userSpaceOnUse" x1="61.314" y1="169.3115" x2="41.2389" y2="133.8113">
		<stop  offset="0" style="stop-color:#FFFFFF"/>
		<stop  offset="1" style="stop-color:#7C7C7B"/>
	</linearGradient>
	<path id="Hollow_Battery_Cover" fill="url(#Hollow_Battery_Cover_1_)" d="M46.5,167.5c0.1,0,0.2,0,0.3,0.1c7.3,1.4,14.5-4,16-12.1
		c1.5-8.1-3.1-15.8-10.4-17.2c0,0-0.1,0-0.1,0l0,0c0,0.1,0,0.1,0,0.1C49.9,147.7,48,157.5,46.5,167.5"/>
	<linearGradient id="Top_Piece_2_" gradientUnits="userSpaceOnUse" x1="144.0435" y1="2.1909" x2="144.0435" y2="10.7197">
		<stop  offset="0" style="stop-color:#FFFFFF"/>
		<stop  offset="1" style="stop-color:#7C7C7B"/>
	</linearGradient>
	
		<path id="Top_Piece_1_" fill="url(#Top_Piece_2_)" stroke="#8C8C91" stroke-width="0.75" stroke-linecap="round" stroke-linejoin="round" stroke-miterlimit="10" d="
		M99.4,8.1c0,0,6-5.6,16.2-5.6c10.2,0,73.1,0,73.1,0l-0.8,5.6H99.4z"/>
	
		<path id="Outline_2_" fill="none" stroke="#8C8C91" stroke-width="0.75" stroke-linecap="round" stroke-linejoin="round" stroke-miterlimit="10" d="
		M187.9,8.1H61.2L18.5,122.9c-20,59.8-15.8,151.7-15.8,164.2c0,10.7,9.1,10.5,9.1,10.5s65.1,0,74.6,0c5.1,0,13.1,0.4,13.1-7
		s-12.6-15.7-12.6-35.4c0-14.5,9.7-32.5,9.7-60.4c0-20.7-1.7-32.6-1.7-42.5c0-40.3,32.7-53.7,32.7-53.7l48.9-10.9L187.9,8.1z"/>
</g>
<g id="Measure_Key">
	<linearGradient id="Shape_5_" gradientUnits="userSpaceOnUse" x1="129.311" y1="125.5234" x2="106.6536" y2="130.6729">
		<stop  offset="0" style="stop-color:#575756"/>
		<stop  offset="1.586480e-02" style="stop-color:#5D5C5C"/>
		<stop  offset="0.1171" style="stop-color:#797878"/>
		<stop  offset="0.2183" style="stop-color:#8D8D8C"/>
		<stop  offset="0.3189" style="stop-color:#999998"/>
		<stop  offset="0.4178" style="stop-color:#9D9D9C"/>
		<stop  offset="0.5402" style="stop-color:#979696"/>
		<stop  offset="0.7122" style="stop-color:#848484"/>
		<stop  offset="0.9127" style="stop-color:#676666"/>
		<stop  offset="1" style="stop-color:#575756"/>
	</linearGradient>
	<path id="Shape_2_" fill="url(#Shape_5_)" d="M94.8,151.3c0.3-22.3,10.8-36.2,19.7-44.1c0,0-4,15.9,0,25.2
		c4,9.3,10.5,16.7,1.1,17.9C106.2,151.5,94.8,151.3,94.8,151.3z"/>
	<g id="Shadow">
		<path fill="#575756" d="M113.3,114.5c0.5-4.3,1.3-7.4,1.3-7.4c-9,7.9-19.4,21.8-19.7,44.1c0,0,1.8,0,4.5,0
			C100,134.5,106.3,122.6,113.3,114.5z"/>
	</g>
	
		<path id="Outline_1_" fill="none" stroke="#646567" stroke-width="0.75" stroke-linecap="round" stroke-linejoin="round" stroke-miterlimit="10" d="
		M94.8,151.3c0.3-22.3,10.8-36.2,19.7-44.1c0,0-4,15.9,0,25.2c4,9.3,10.5,16.7,1.1,17.9C106.2,151.5,94.8,151.3,94.8,151.3z"/>
</g>
<g id="Battery_Cover">
	<linearGradient id="Shape_6_" gradientUnits="userSpaceOnUse" x1="-64.7695" y1="169.0459" x2="47.8571" y2="220.3531">
		<stop  offset="0" style="stop-color:#FFFFFF"/>
		<stop  offset="1" style="stop-color:#7C7C7B"/>
	</linearGradient>
	<path id="Shape_1_" fill="url(#Shape_6_)" d="M15.5,132.9c0,0,23.3,0,30.9,0c7.6,0,5.9,5.4,5.9,5.4C38.4,193.2,40.5,263,40.9,281.9
		c0,0,0.6,5.7-6.4,5.7c-7,0-31.7,0-31.7,0c0-0.2,0-0.3,0-0.5C2.7,275.3-1.1,192.4,15.5,132.9L15.5,132.9z"/>
	<linearGradient id="Reflection_3_" gradientUnits="userSpaceOnUse" x1="-2.1064" y1="208.3589" x2="27.0236" y2="211.4698">
		<stop  offset="0" style="stop-color:#FFFFFF"/>
		<stop  offset="1" style="stop-color:#7C7C7B"/>
	</linearGradient>
	<path id="Reflection_2_" fill="url(#Reflection_3_)" d="M2.7,287.2h13.9c0,0,0,0,0,0c0-11.8-3.7-94.2,12.6-153.7H15.3
		C-1,192.9,2.7,275.3,2.7,287.2C2.7,287.1,2.7,287.1,2.7,287.2z"/>
	
		<path id="Outline" fill="none" stroke="#646567" stroke-width="0.75" stroke-linecap="round" stroke-linejoin="round" stroke-miterlimit="10" d="
		M15.5,132.9c0,0,23.3,0,30.9,0c7.6,0,5.9,5.4,5.9,5.4C38.4,193.2,40.5,263,40.9,281.9c0,0,0.6,5.7-6.4,5.7c-7,0-31.7,0-31.7,0
		c0-0.2,0-0.3,0-0.5C2.7,275.3-1.1,192.4,15.5,132.9L15.5,132.9z"/>
</g>
<line id="Laser" fill="none" stroke="#AFAFAE" stroke-width="2" stroke-miterlimit="10" x1="213.8" y1="15" x2="298" y2="15"/>
<g id="Laser__x2B__Infrared_Lens_Housing">
	<linearGradient id="Shape_7_" gradientUnits="userSpaceOnUse" x1="188.2778" y1="-8.5479" x2="198.7564" y2="72.086">
		<stop  offset="0" style="stop-color:#575756"/>
		<stop  offset="1.586480e-02" style="stop-color:#5D5C5C"/>
		<stop  offset="0.1171" style="stop-color:#797878"/>
		<stop  offset="0.2183" style="stop-color:#8D8D8C"/>
		<stop  offset="0.3189" style="stop-color:#999998"/>
		<stop  offset="0.4178" style="stop-color:#9D9D9C"/>
		<stop  offset="0.5402" style="stop-color:#979696"/>
		<stop  offset="0.7122" style="stop-color:#848484"/>
		<stop  offset="0.9127" style="stop-color:#676666"/>
		<stop  offset="1" style="stop-color:#575756"/>
	</linearGradient>
	
		<path id="Shape" fill="url(#Shape_7_)" stroke="#646567" stroke-width="0.75" stroke-linecap="round" stroke-linejoin="round" stroke-miterlimit="10" d="
		M176.5,87.7l22.7-5c0,0,5.7-1,6.4-6.3c0.8-5.3,9.1-68.3,9.1-68.3h-26.9L176.5,87.7z"/>
	<linearGradient id="Top_Piece_3_" gradientUnits="userSpaceOnUse" x1="201.4175" y1="-6.5205" x2="201.4175" y2="7.5107">
		<stop  offset="0" style="stop-color:#575756"/>
		<stop  offset="1.586480e-02" style="stop-color:#5D5C5C"/>
		<stop  offset="0.1171" style="stop-color:#797878"/>
		<stop  offset="0.2183" style="stop-color:#8D8D8C"/>
		<stop  offset="0.3189" style="stop-color:#999998"/>
		<stop  offset="0.4178" style="stop-color:#9D9D9C"/>
		<stop  offset="0.5402" style="stop-color:#979696"/>
		<stop  offset="0.7122" style="stop-color:#848484"/>
		<stop  offset="0.9127" style="stop-color:#676666"/>
		<stop  offset="1" style="stop-color:#575756"/>
	</linearGradient>
	
		<path id="Top_Piece" fill="url(#Top_Piece_3_)" stroke="#646567" stroke-width="0.75" stroke-linecap="round" stroke-linejoin="round" stroke-miterlimit="10" d="
		M214.8,8.1c0,0,1.7-5.6-5.7-5.6c-7.4,0-20.4,0-20.4,0l-0.8,5.6H214.8z"/>
	<linearGradient id="Reflection_4_" gradientUnits="userSpaceOnUse" x1="200.3647" y1="10.5601" x2="200.3647" y2="23.4862">
		<stop  offset="0" style="stop-color:#F2F2F2;stop-opacity:0.4"/>
		<stop  offset="1" style="stop-color:#F7F7F7;stop-opacity:0.7"/>
	</linearGradient>
	<polygon id="Reflection_1_" fill="url(#Reflection_4_)" points="214.3,8.4 188.4,8.4 186.4,22 212.4,22 	"/>
</g>
<g id="Display__x2B__Buttons">
	<g id="Buttons">
		<linearGradient id="Underneath_1_" gradientUnits="userSpaceOnUse" x1="14.75" y1="88.415" x2="9.4076" y2="111.0719">
			<stop  offset="0" style="stop-color:#FFFFFF"/>
			<stop  offset="1" style="stop-color:#7C7C7B"/>
		</linearGradient>
		
			<polygon id="Underneath" fill="url(#Underneath_1_)" stroke="#8C8C91" stroke-width="0.75" stroke-linecap="round" stroke-linejoin="round" stroke-miterlimit="10" points="
			15.1,94.6 12.1,94.1 9,105.5 11.7,106.7 		"/>
		<linearGradient id="Top_1_" gradientUnits="userSpaceOnUse" x1="18.3462" y1="76.3545" x2="14.3554" y2="92.5751">
			<stop  offset="0" style="stop-color:#FFFFFF"/>
			<stop  offset="1" style="stop-color:#7C7C7B"/>
		</linearGradient>
		
			<polygon id="Top" fill="url(#Top_1_)" stroke="#8C8C91" stroke-width="0.75" stroke-linecap="round" stroke-linejoin="round" stroke-miterlimit="10" points="
			19.5,78.7 16.5,78.3 13.4,89.6 16.1,90.7 		"/>
	</g>
	<linearGradient id="Shape_Display_1_" gradientUnits="userSpaceOnUse" x1="54.0312" y1="-2.5747" x2="16.6641" y2="106.9856">
		<stop  offset="0" style="stop-color:#575756"/>
		<stop  offset="1.586480e-02" style="stop-color:#5D5C5C"/>
		<stop  offset="0.1171" style="stop-color:#797878"/>
		<stop  offset="0.2183" style="stop-color:#8D8D8C"/>
		<stop  offset="0.3189" style="stop-color:#999998"/>
		<stop  offset="0.4178" style="stop-color:#9D9D9C"/>
		<stop  offset="0.5402" style="stop-color:#979696"/>
		<stop  offset="0.7122" style="stop-color:#848484"/>
		<stop  offset="0.9127" style="stop-color:#676666"/>
		<stop  offset="1" style="stop-color:#575756"/>
	</linearGradient>
	
		<path id="Shape_Display" fill="url(#Shape_Display_1_)" stroke="#646567" stroke-width="0.75" stroke-linecap="round" stroke-linejoin="round" stroke-miterlimit="10" d="
		M61.2,8.1L18.5,122.9c0,0,0.8-3.1-5-6.7c-3.9-2.4-2.1-8.5-2.1-8.5l26-93.1c0,0,1.6-6.6,9.6-6.6C55.5,8.1,61.2,8.1,61.2,8.1z"/>
	<linearGradient id="Reflection_5_" gradientUnits="userSpaceOnUse" x1="36.2046" y1="15.6147" x2="36.2046" y2="11.3731">
		<stop  offset="0" style="stop-color:#CFCFCE"/>
		<stop  offset="0.391" style="stop-color:#C6C6C5"/>
		<stop  offset="1" style="stop-color:#AFAFAE"/>
	</linearGradient>
	<path id="Reflection" fill="url(#Reflection_5_)" d="M60.5,8.5c0,0-4.6,0-13,0c-8.1,0-9.6,6.6-9.6,6.6l-25.9,92.7
		c0,0,3.6-5.8,5.6-12.7c1.9-6.6,19.1-68,20.5-73h17.4L60.5,8.5z"/>
</g>
</svg>
