<?xml version="1.0" encoding="utf-8"?>

<!-- Copyright 2016 Siemens AG -->

<!-- Generator: Adobe Illustrator 16.0.4, SVG Export Plug-In . SVG Version: 6.00 Build 0)  -->
<!DOCTYPE svg PUBLIC "-//W3C//DTD SVG 1.1//EN" "http://www.w3.org/Graphics/SVG/1.1/DTD/svg11.dtd">
<svg version="1.1" id="Cabinet_Big_Blank_Left_Open"
	 xmlns="http://www.w3.org/2000/svg" xmlns:xlink="http://www.w3.org/1999/xlink" x="0px" y="0px" width="173px" height="300px"
	 viewBox="0 0 173 300" enable-background="new 0 0 173 300" xml:space="preserve">
<g id="Open_Cabinet">
	<linearGradient id="Opening_1_" gradientUnits="userSpaceOnUse" x1="162.48" y1="150.0898" x2="111.9516" y2="150.0898">
		<stop  offset="0" style="stop-color:#6B6B6A"/>
		<stop  offset="1" style="stop-color:#434343"/>
	</linearGradient>
	
		<rect id="Opening_2_" x="98.3" y="31.8" fill="url(#Opening_1_)" stroke="#424242" stroke-width="0.75" stroke-linecap="round" stroke-linejoin="round" stroke-miterlimit="10" width="66" height="236.6"/>
	<linearGradient id="Frame_1_" gradientUnits="userSpaceOnUse" x1="246.0371" y1="150.0898" x2="41.0623" y2="150.0899">
		<stop  offset="0" style="stop-color:#FFFFFF"/>
		<stop  offset="1" style="stop-color:#7C7C7B"/>
	</linearGradient>
	
		<polygon id="Frame" fill="url(#Frame_1_)" stroke="#8C8C91" stroke-width="0.75" stroke-linecap="round" stroke-linejoin="round" stroke-miterlimit="10" points="
		98.3,25.6 98.3,31.8 164.3,31.8 164.3,268.4 98.3,268.4 98.3,274.6 170.5,274.6 170.5,274.6 170.5,25.6 	"/>
</g>
<g id="Door_2_">
	<linearGradient id="Gradation_Bottom_1_" gradientUnits="userSpaceOnUse" x1="68.9517" y1="110.1826" x2="32.165" y2="282.0772">
		<stop  offset="0" style="stop-color:#DEDEDE"/>
		<stop  offset="0.4542" style="stop-color:#DADADA"/>
		<stop  offset="0.9083" style="stop-color:#CFCFCE"/>
		<stop  offset="0.9356" style="stop-color:#CCCCCB"/>
		<stop  offset="0.956" style="stop-color:#C2C2C3"/>
		<stop  offset="0.9741" style="stop-color:#B2B2B4"/>
		<stop  offset="0.9908" style="stop-color:#9C9C9F"/>
		<stop  offset="1" style="stop-color:#8C8C91"/>
	</linearGradient>
	<path id="Gradation_Bottom_2_" fill="url(#Gradation_Bottom_1_)" d="M95.4,294V103.4H2.5v167.9c0,2.6,0.6,3.3,1.1,3.5l0.1,0
		l93,22.8l0.1,0C96.4,297.6,95.4,297.3,95.4,294z"/>
	<linearGradient id="Gradation_Top_1_" gradientUnits="userSpaceOnUse" x1="40.6782" y1="15.5269" x2="61.192" y2="105.7325">
		<stop  offset="0" style="stop-color:#DEDEDE"/>
		<stop  offset="5.309309e-02" style="stop-color:#FFFFFF"/>
		<stop  offset="9.794781e-02" style="stop-color:#DEDEDE"/>
	</linearGradient>
	<path id="Gradation_Top_2_" fill="url(#Gradation_Top_1_)" d="M95.4,106.4V5.9c0-2.7,0.7-3.4,1.2-3.6L3.7,25.1
		c-0.4,0.2-1.2,0.8-1.2,3.6v77.7H95.4z"/>
	<g id="Handle_4_">
		<polygon id="Shadow_4_" fill="#646567" points="86.3,45.2 86.3,47.9 81.9,48.7 81.9,86.5 80.4,86.7 80.4,46.2 		"/>
		<linearGradient id="Shape_1_" gradientUnits="userSpaceOnUse" x1="91.0645" y1="147.0112" x2="77.2966" y2="-11.0651">
			<stop  offset="0" style="stop-color:#FFFFFF"/>
			<stop  offset="1" style="stop-color:#7C7C7B"/>
		</linearGradient>
		<polygon id="Shape_2_" fill="url(#Shape_1_)" points="81.9,48.7 86.3,47.9 86.3,86 81.9,86.5 		"/>
		
			<polyline id="Reflection_Line_4_" fill="none" stroke="#FFFFFF" stroke-width="0.75" stroke-linejoin="round" stroke-miterlimit="10" points="
			86.3,45.2 86.3,86 80.4,86.7 		"/>
	</g>
	<path id="Outline_2_" fill="none" stroke="#8C8C91" stroke-width="0.75" stroke-linecap="round" stroke-linejoin="round" d="
		M3.7,25.1l93-22.8l0.1,0c-0.3,0-1.4,0.2-1.4,3.6v288c0,3.9,1.5,3.6,1.5,3.6l-0.2,0l-93-22.8l-0.1,0c-0.4-0.2-1.1-1-1.1-3.5V28.7
		C2.5,26,3.2,25.3,3.7,25.1z"/>
	<path id="Side_Door_2_" fill="#7C7C7B" stroke="#7C7C7B" stroke-width="0.75" stroke-linecap="round" stroke-linejoin="round" d="
		M98.3,297.4l-1.5,0.2c0,0-1.5,0.3-1.5-3.6V5.9c0-3.9,1.5-3.6,1.5-3.6l1.5,0.2V297.4z"/>
</g>
</svg>
