<?xml version="1.0" encoding="utf-8"?>

<!-- Copyright 2016 Siemens AG -->

<!-- Generator: Adobe Illustrator 16.0.4, SVG Export Plug-In . SVG Version: 6.00 Build 0)  -->
<!DOCTYPE svg PUBLIC "-//W3C//DTD SVG 1.1//EN" "http://www.w3.org/Graphics/SVG/1.1/DTD/svg11.dtd">
<svg version="1.1" id="Bucket" xmlns="http://www.w3.org/2000/svg" xmlns:xlink="http://www.w3.org/1999/xlink" x="0px" y="0px"
	 width="300px" height="273px" viewBox="0 0 300 273" enable-background="new 0 0 300 273" xml:space="preserve">
<g id="Container_1_">
	<linearGradient id="Shape_3_" gradientUnits="userSpaceOnUse" x1="37.1626" y1="147.6201" x2="262.7324" y2="147.6201">
		<stop  offset="0" style="stop-color:#A5A5A5"/>
		<stop  offset="4.758149e-02" style="stop-color:#B5B5B5"/>
		<stop  offset="0.1509" style="stop-color:#D3D3D3"/>
		<stop  offset="0.2395" style="stop-color:#E5E5E5"/>
		<stop  offset="0.3025" style="stop-color:#ECECEC"/>
		<stop  offset="0.4074" style="stop-color:#E8E8E8"/>
		<stop  offset="0.514" style="stop-color:#DCDCDC"/>
		<stop  offset="0.6214" style="stop-color:#C7C7C7"/>
		<stop  offset="0.7294" style="stop-color:#ABABAB"/>
		<stop  offset="0.8378" style="stop-color:#868686"/>
		<stop  offset="0.9452" style="stop-color:#5A5A5A"/>
		<stop  offset="1" style="stop-color:#404040"/>
	</linearGradient>
	
		<path id="Shape_2_" fill="url(#Shape_3_)" stroke="#8C8C91" stroke-width="0.75" stroke-linejoin="round" stroke-miterlimit="10" d="
		M246.9,263.4c0,0-0.5,7.2-10.3,7.2c-6.3,0-170.2,0-175,0c-8.2,0-8.6-7.2-8.6-7.2L37.2,24.7h225.6L246.9,263.4z"/>
	
		<linearGradient id="Reflection_Gradation_1_" gradientUnits="userSpaceOnUse" x1="171.8076" y1="147.2524" x2="53.4567" y2="147.2524">
		<stop  offset="0" style="stop-color:#FFFFFF"/>
		<stop  offset="1" style="stop-color:#7C7C7B"/>
	</linearGradient>
	<polygon id="Reflection_Gradation_3_" fill="url(#Reflection_Gradation_1_)" points="143.5,268.2 143.5,26.3 89.3,26.3 95.6,268.2 
			"/>
	<linearGradient id="Reflection_White_1_" gradientUnits="userSpaceOnUse" x1="52.2754" y1="147.4653" x2="123.3868" y2="146.8306">
		<stop  offset="0" style="stop-color:#FFFFFF"/>
		<stop  offset="1" style="stop-color:#7C7C7B"/>
	</linearGradient>
	<polygon id="Reflection_White_2_" fill="url(#Reflection_White_1_)" points="95.6,268.2 89.3,26.3 56.4,26.3 72.3,268.2 	"/>
	<linearGradient id="Bottom_Curve_1_" gradientUnits="userSpaceOnUse" x1="-532.0312" y1="266.9434" x2="288.0076" y2="266.9434">
		<stop  offset="0" style="stop-color:#A5A5A5"/>
		<stop  offset="4.758149e-02" style="stop-color:#B5B5B5"/>
		<stop  offset="0.1509" style="stop-color:#D3D3D3"/>
		<stop  offset="0.2395" style="stop-color:#E5E5E5"/>
		<stop  offset="0.3025" style="stop-color:#ECECEC"/>
		<stop  offset="0.4074" style="stop-color:#E8E8E8"/>
		<stop  offset="0.514" style="stop-color:#DCDCDC"/>
		<stop  offset="0.6214" style="stop-color:#C7C7C7"/>
		<stop  offset="0.7294" style="stop-color:#ABABAB"/>
		<stop  offset="0.8378" style="stop-color:#868686"/>
		<stop  offset="0.9452" style="stop-color:#5A5A5A"/>
		<stop  offset="1" style="stop-color:#404040"/>
	</linearGradient>
	
		<path id="Bottom_Curve_3_" fill="url(#Bottom_Curve_1_)" stroke="#8C8C91" stroke-width="0.75" stroke-linecap="round" stroke-linejoin="round" stroke-miterlimit="10" d="
		M246.9,263.4c0,0-0.5,7.2-10.3,7.2c-6.3,0-170.2,0-175,0c-8.2,0-8.6-7.2-8.6-7.2"/>
</g>
<g id="Handle_1_">
	<linearGradient id="Shadow_1_" gradientUnits="userSpaceOnUse" x1="-121.6768" y1="137.7158" x2="239.0952" y2="137.7158">
		<stop  offset="0" style="stop-color:#575756"/>
		<stop  offset="1.586480e-02" style="stop-color:#5D5C5C"/>
		<stop  offset="0.1171" style="stop-color:#797878"/>
		<stop  offset="0.2183" style="stop-color:#8D8D8C"/>
		<stop  offset="0.3189" style="stop-color:#999998"/>
		<stop  offset="0.4178" style="stop-color:#9D9D9C"/>
		<stop  offset="0.5402" style="stop-color:#979696"/>
		<stop  offset="0.7122" style="stop-color:#848484"/>
		<stop  offset="0.9127" style="stop-color:#676666"/>
		<stop  offset="1" style="stop-color:#575756"/>
	</linearGradient>
	<path id="Shadow_3_" fill="url(#Shadow_1_)" d="M253.9,142.7c-4.7,4.1-9.1,8.1-14.2,11.2c-2.8,1.7-6.7,4-9.5,5.1v-4
		c0-3.2-2.6-5.8-5.7-5.8c0,0,0,0,0,0c-0.3,0-26.7-4.8-58.9-4.8c-21.7,0-58.5,2.4-58.8,2.5c-3.2,0-5.8,2.6-5.8,5.8v4.5
		c-3.4-0.5-10.1-1.9-18.1-6.7c-19.8-11.7-40.6-50.8-40.6-50.8l1.1,15.5c22.7,41.2,49.2,47.3,57.7,48.1v4.3c0,3.2,2.6,5.8,5.8,5.8
		c0,0,0,0,0,0c0.3,0,34.1-2.4,58.7-2.4c34.2,0,58.7,4.8,58.9,4.8c0,0,0,0,0.1,0c3.2,0,5.8-2.6,5.8-5.8v-4.8
		c5.7-1.8,14-7.6,23.2-14.3L253.9,142.7z"/>
	
		<linearGradient id="Bow_Right_2_" gradientUnits="userSpaceOnUse" x1="266.5664" y1="-1952.0918" x2="253.9949" y2="-1931.6187" gradientTransform="matrix(1 0 0 -1 0 -1816.04)">
		<stop  offset="0" style="stop-color:#FFFFFF"/>
		<stop  offset="1" style="stop-color:#7C7C7B"/>
	</linearGradient>
	<path id="Bow_Right_1_" fill="url(#Bow_Right_2_)" stroke="#646567" stroke-width="0.75" stroke-miterlimit="10" d="M277.5,33.7
		c-0.2,0-6.8,0-6.8,0v6.4h6.4c0.1,0,0.2,0,0.2,0c0,0,5.4-0.3,9.3,3.4c3.1,2.9,4.6,7.5,4.6,13.8c0,19.5-11.3,43.8-29.5,63.3
		c-19.5,20.9-43.3,32.9-65.2,32.9v6.4c51.1,0,101.2-58.8,101.2-102.7c0-8.1-2.3-14.4-6.7-18.5C285.9,34.1,279.6,33.7,277.5,33.7z"/>
	<linearGradient id="Bow_Left_2_" gradientUnits="userSpaceOnUse" x1="45.4185" y1="156.8384" x2="58.6909" y2="69.4243">
		<stop  offset="0" style="stop-color:#FFFFFF"/>
		<stop  offset="1" style="stop-color:#7C7C7B"/>
	</linearGradient>
	<path id="Bow_Left_1_" fill="url(#Bow_Left_2_)" stroke="#8C8C91" stroke-width="0.75" stroke-miterlimit="10" d="M22.4,33.7
		c-2.1,0-8.3,0.4-13.4,5.1C4.6,43,2.4,49.2,2.4,57.4c0,43.9,50,102.7,101.2,102.7v-6.4c-21.9,0-45.7-12-65.2-32.9
		C20.1,101.2,8.8,76.9,8.8,57.4c0-6.3,1.6-10.9,4.6-13.8c3.9-3.7,9.3-3.4,9.3-3.4c0.1,0,6.6,0,6.6,0v-6.4
		C29.3,33.7,22.7,33.7,22.4,33.7z"/>
	
		<linearGradient id="Attach_to_Buket_Right_2_" gradientUnits="userSpaceOnUse" x1="265.8936" y1="-41.1265" x2="265.8936" y2="35.5766">
		<stop  offset="0" style="stop-color:#A5A5A5"/>
		<stop  offset="4.758149e-02" style="stop-color:#B5B5B5"/>
		<stop  offset="0.1509" style="stop-color:#D3D3D3"/>
		<stop  offset="0.2395" style="stop-color:#E5E5E5"/>
		<stop  offset="0.3025" style="stop-color:#ECECEC"/>
		<stop  offset="0.4074" style="stop-color:#E8E8E8"/>
		<stop  offset="0.514" style="stop-color:#DCDCDC"/>
		<stop  offset="0.6214" style="stop-color:#C7C7C7"/>
		<stop  offset="0.7294" style="stop-color:#ABABAB"/>
		<stop  offset="0.8378" style="stop-color:#868686"/>
		<stop  offset="0.9452" style="stop-color:#5A5A5A"/>
		<stop  offset="1" style="stop-color:#404040"/>
	</linearGradient>
	
		<polygon id="Attach_to_Buket_Right_1_" fill="url(#Attach_to_Buket_Right_2_)" stroke="#646567" stroke-width="0.75" stroke-linejoin="round" stroke-miterlimit="10" points="
		270.7,49.3 261.1,49.3 262.5,28.2 270.6,28.2 	"/>
	
		<linearGradient id="Attach_to_Buket_Left_2_" gradientUnits="userSpaceOnUse" x1="34.0757" y1="-41.4277" x2="34.0757" y2="59.479">
		<stop  offset="0" style="stop-color:#A5A5A5"/>
		<stop  offset="4.758149e-02" style="stop-color:#B5B5B5"/>
		<stop  offset="0.1509" style="stop-color:#D3D3D3"/>
		<stop  offset="0.2395" style="stop-color:#E5E5E5"/>
		<stop  offset="0.3025" style="stop-color:#ECECEC"/>
		<stop  offset="0.4074" style="stop-color:#E8E8E8"/>
		<stop  offset="0.514" style="stop-color:#DCDCDC"/>
		<stop  offset="0.6214" style="stop-color:#C7C7C7"/>
		<stop  offset="0.7294" style="stop-color:#ABABAB"/>
		<stop  offset="0.8378" style="stop-color:#868686"/>
		<stop  offset="0.9452" style="stop-color:#5A5A5A"/>
		<stop  offset="1" style="stop-color:#404040"/>
	</linearGradient>
	
		<polygon id="Attach_to_Buket_Left_1_" fill="url(#Attach_to_Buket_Left_2_)" stroke="#8C8C91" stroke-width="0.75" stroke-linejoin="round" stroke-miterlimit="10" points="
		38.9,49.3 29.3,49.3 29.3,28.2 37.4,28.2 	"/>
	<linearGradient id="Knop_2_" gradientUnits="userSpaceOnUse" x1="149.9995" y1="140.8628" x2="149.9995" y2="159.0301">
		<stop  offset="0" style="stop-color:#575756"/>
		<stop  offset="1.586480e-02" style="stop-color:#5D5C5C"/>
		<stop  offset="0.1171" style="stop-color:#797878"/>
		<stop  offset="0.2183" style="stop-color:#8D8D8C"/>
		<stop  offset="0.3189" style="stop-color:#999998"/>
		<stop  offset="0.4178" style="stop-color:#9D9D9C"/>
		<stop  offset="0.5402" style="stop-color:#979696"/>
		<stop  offset="0.7122" style="stop-color:#848484"/>
		<stop  offset="0.9127" style="stop-color:#676666"/>
		<stop  offset="1" style="stop-color:#575756"/>
	</linearGradient>
	<path id="Knop_1_" fill="url(#Knop_2_)" stroke="#646567" stroke-width="0.75" stroke-linejoin="round" stroke-miterlimit="10" d="
		M85.4,161.5c0,3,2.4,5.5,5.5,5.5h118.3c3,0,5.5-2.4,5.5-5.5v-14.9c0-3-2.4-5.5-5.5-5.5H90.9c-3,0-5.5,2.4-5.5,5.5V161.5z"/>
</g>
<g id="Upper_Edge_1_">
	<linearGradient id="Shape_4_" gradientUnits="userSpaceOnUse" x1="29.0005" y1="15.3135" x2="270.7133" y2="15.3135">
		<stop  offset="0" style="stop-color:#A5A5A5"/>
		<stop  offset="4.758149e-02" style="stop-color:#B5B5B5"/>
		<stop  offset="0.1509" style="stop-color:#D3D3D3"/>
		<stop  offset="0.2395" style="stop-color:#E5E5E5"/>
		<stop  offset="0.3025" style="stop-color:#ECECEC"/>
		<stop  offset="0.4074" style="stop-color:#E8E8E8"/>
		<stop  offset="0.514" style="stop-color:#DCDCDC"/>
		<stop  offset="0.6214" style="stop-color:#C7C7C7"/>
		<stop  offset="0.7294" style="stop-color:#ABABAB"/>
		<stop  offset="0.8378" style="stop-color:#868686"/>
		<stop  offset="0.9452" style="stop-color:#5A5A5A"/>
		<stop  offset="1" style="stop-color:#404040"/>
	</linearGradient>
	
		<path id="Shape_1_" fill="url(#Shape_4_)" stroke="#8C8C91" stroke-width="0.75" stroke-linejoin="round" stroke-miterlimit="10" d="
		M25.2,9.9c0-4.2,3.4-7.6,7.6-7.6h234.4c4.2,0,7.6,3.4,7.6,7.6v14.3c0,2.2-1.8,4-4,4H29.2c-2.2,0-4-1.8-4-4V9.9z"/>
	<linearGradient id="Shadow_4_" gradientUnits="userSpaceOnUse" x1="-743.5054" y1="30.9751" x2="292.2434" y2="30.9751">
		<stop  offset="0" style="stop-color:#A5A5A5"/>
		<stop  offset="4.758149e-02" style="stop-color:#B5B5B5"/>
		<stop  offset="0.1509" style="stop-color:#D3D3D3"/>
		<stop  offset="0.2395" style="stop-color:#E5E5E5"/>
		<stop  offset="0.3025" style="stop-color:#ECECEC"/>
		<stop  offset="0.4074" style="stop-color:#E8E8E8"/>
		<stop  offset="0.514" style="stop-color:#DCDCDC"/>
		<stop  offset="0.6214" style="stop-color:#C7C7C7"/>
		<stop  offset="0.7294" style="stop-color:#ABABAB"/>
		<stop  offset="0.8378" style="stop-color:#868686"/>
		<stop  offset="0.9452" style="stop-color:#5A5A5A"/>
		<stop  offset="1" style="stop-color:#404040"/>
	</linearGradient>
	
		<polyline id="Shadow_2_" fill="url(#Shadow_4_)" stroke="#8C8C91" stroke-width="0.75" stroke-linecap="round" stroke-linejoin="round" stroke-miterlimit="10" points="
		37.8,33.7 37.4,28.2 262.5,28.2 262.1,33.7 	"/>
	<linearGradient id="Top_Curve_2_" gradientUnits="userSpaceOnUse" x1="-52.6826" y1="6.1685" x2="284.8719" y2="6.1685">
		<stop  offset="0" style="stop-color:#FFFFFF"/>
		<stop  offset="1" style="stop-color:#7C7C7B"/>
	</linearGradient>
	
		<path id="Top_Curve_1_" fill="url(#Top_Curve_2_)" stroke="#8C8C91" stroke-width="0.75" stroke-linejoin="round" stroke-miterlimit="10" d="
		M25.2,9.9c0-4.2,3.4-7.6,7.6-7.6h234.4c4.2,0,7.6,3.4,7.6,7.6"/>
	<linearGradient id="Bottom_Curve_4_" gradientUnits="userSpaceOnUse" x1="-732.5288" y1="26.2207" x2="266.9133" y2="26.2207">
		<stop  offset="0" style="stop-color:#A5A5A5"/>
		<stop  offset="4.758149e-02" style="stop-color:#B5B5B5"/>
		<stop  offset="0.1509" style="stop-color:#D3D3D3"/>
		<stop  offset="0.2395" style="stop-color:#E5E5E5"/>
		<stop  offset="0.3025" style="stop-color:#ECECEC"/>
		<stop  offset="0.4074" style="stop-color:#E8E8E8"/>
		<stop  offset="0.514" style="stop-color:#DCDCDC"/>
		<stop  offset="0.6214" style="stop-color:#C7C7C7"/>
		<stop  offset="0.7294" style="stop-color:#ABABAB"/>
		<stop  offset="0.8378" style="stop-color:#868686"/>
		<stop  offset="0.9452" style="stop-color:#5A5A5A"/>
		<stop  offset="1" style="stop-color:#404040"/>
	</linearGradient>
	
		<path id="Bottom_Curve_2_" fill="url(#Bottom_Curve_4_)" stroke="#646567" stroke-width="0.75" stroke-linecap="round" stroke-linejoin="round" stroke-miterlimit="10" d="
		M274.7,24.2c0,2.2-1.8,4-4,4H29.2c-2.2,0-4-1.8-4-4"/>
	
		<line id="Shadow_Dark_Line_Right_1_" fill="none" stroke="#646567" stroke-width="0.75" stroke-linecap="round" stroke-linejoin="round" stroke-miterlimit="10" x1="262.5" y1="28.2" x2="262.1" y2="33.7"/>
	
		<linearGradient id="Reflection_Gradation_4_" gradientUnits="userSpaceOnUse" x1="175.8887" y1="16.3325" x2="33.3565" y2="16.3325">
		<stop  offset="0" style="stop-color:#FFFFFF"/>
		<stop  offset="1" style="stop-color:#7C7C7B"/>
	</linearGradient>
	<rect id="Reflection_Gradation_2_" x="85" y="9.9" fill="url(#Reflection_Gradation_4_)" width="59" height="12.8"/>
	<linearGradient id="Reflection_White_3_" gradientUnits="userSpaceOnUse" x1="48.3677" y1="13.2197" x2="91.8332" y2="13.2197">
		<stop  offset="0" style="stop-color:#F2F2F2;stop-opacity:0.4"/>
		<stop  offset="1" style="stop-color:#F7F7F7;stop-opacity:0.7"/>
	</linearGradient>
	<path id="Reflection_White_6_" fill="url(#Reflection_White_3_)" d="M85,22.7V9.9c0-4.2,3.4-6.2,7.6-6.2H55.2
		c-4.2,0-7.6,2.1-7.6,6.2v12.8H85z"/>
</g>
</svg>
