<svg xmlns="http://www.w3.org/2000/svg" xmlns:xlink="http://www.w3.org/1999/xlink" width="171" height="224" viewBox="0 0 171 224" version="1.1">
    <title>回流泵</title>
    <defs>
        <linearGradient x1="0%" y1="50%" x2="100.01296%" y2="50%" id="linearGradient-1">
            <stop stop-color="#2B2B2B" offset="0%"/>
            <stop stop-color="#494949" offset="100%"/>
        </linearGradient>
    </defs>
    <g id="回流泵" stroke="none" stroke-width="1" fill="none" fill-rule="evenodd">
        <rect id="矩形" fill="#CECECE" fill-rule="nonzero" x="3.49438694" y="6.98877387" width="83.9959178" height="104.994897"/>
        <path d="M87.4903047,40.2507654 L87.4903047,29.7349468 C54.9631142,29.7349468 19.3824173,46.9946056 3.49438694,83.1794722 L3.49438694,119.103076 C22.3052923,91.3439277 56.4490451,44.2676775 87.4903047,40.2507654 Z" id="路径" fill="#A5A5A5" fill-rule="nonzero"/>
        <polygon id="路径" fill="#CECECE" fill-rule="nonzero" points="129.488264 216.994897 45.4923458 216.994897 45.4923458 174.996938 129.488264 174.996938 129.488264 180.238519"/>
        <path d="M129.439277,183.879866 C112.359236,194.787578 90.5111532,202.641785 45.4270302,193.366963 L45.4270302,172.367984 C45.4270302,172.367984 108.881178,178.148418 129.439277,172.367984 L129.439277,183.879866 Z" id="路径" fill="#A5A5A5" fill-rule="nonzero"/>
        <rect id="矩形" fill="#E2E2E2" fill-rule="nonzero" x="0" y="0" width="91.0010206" height="7.00510278" rx="1"/>
        <rect id="矩形" fill="#CECECE" fill-rule="nonzero" x="41.9979589" y="216.994897" width="91.0010206" height="7.00510278" rx="1"/>
        <circle id="椭圆形" fill="#E2E2E2" fill-rule="nonzero" cx="87.4903047" cy="111.983671" r="83.9959178"/>
        <circle id="椭圆形" fill="url(#linearGradient-1)" fill-rule="nonzero" cx="87.4903047" cy="111.983671" r="62.9969383"/>
        <path d="M92.748214,185.496428 C92.748214,187.623054 91.4671655,189.540278 89.5024195,190.354103 C87.5376734,191.167927 85.2761529,190.718083 83.7724014,189.214331 C82.2686498,187.71058 81.8188054,185.449059 82.6326299,183.484313 C83.4464544,181.519567 85.3636789,180.238519 87.4903047,180.238519 C90.3941678,180.238519 92.748214,182.592565 92.748214,185.496428 Z" id="路径" fill="#989898" fill-rule="nonzero"/>
        <path d="M87.4903047,33.2456372 C85.3621952,33.2456372 83.4439457,34.5284953 82.6310873,36.4952468 C81.8182288,38.4619983 82.2710742,40.7247943 83.7782133,42.2272529 C85.2853525,43.7297115 87.5495461,44.1755164 89.5137597,43.3565445 C91.4779734,42.5375726 92.7548231,40.6153423 92.7482396,38.487243 C92.7482396,37.0942557 92.1937435,35.7585586 91.207222,34.7751009 C90.2207006,33.7916431 88.8832853,33.2413231 87.4903047,33.2456372 L87.4903047,33.2456372 Z" id="路径" fill="#989898" fill-rule="nonzero"/>
        <path d="M135.758565,160.251932 C134.253011,161.754998 133.801572,164.017201 134.614886,165.983015 C135.428201,167.948828 137.345975,169.230818 139.473393,169.230818 C141.60081,169.230818 143.518585,167.948828 144.331899,165.983015 C145.145214,164.017201 144.693775,161.754998 143.18822,160.251932 C142.204552,159.263753 140.867702,158.708219 139.473393,158.708219 C138.079083,158.708219 136.742233,159.263753 135.758565,160.251932 L135.758565,160.251932 Z" id="路径" fill="#989898" fill-rule="nonzero"/>
        <path d="M31.8087185,56.3020849 C30.3031637,57.8051514 29.8517248,60.0673539 30.6650393,62.0331676 C31.4783538,63.9989814 33.3961284,65.2809711 35.5235457,65.2809711 C37.650963,65.2809711 39.5687376,63.9989814 40.3820521,62.0331676 C41.1953666,60.0673539 40.7439277,57.8051514 39.2383729,56.3020849 C37.1820444,54.2617871 33.865047,54.2617871 31.8087185,56.3020849 L31.8087185,56.3020849 Z" id="路径" fill="#989898" fill-rule="nonzero"/>
        <path d="M155.745127,111.983671 C155.738543,114.11177 157.015393,116.034001 158.979607,116.852973 C160.94382,117.671944 163.208014,117.22614 164.715153,115.723681 C166.222292,114.221222 166.675138,111.958426 165.862279,109.991675 C165.049421,108.024923 163.131171,106.742091 161.003062,106.742091 C158.105563,106.742091 155.754151,109.086187 155.745127,111.983671 Z" id="路径" fill="#989898" fill-rule="nonzero"/>
        <path d="M8.78495407,111.983671 C8.77835067,114.113254 10.0569725,116.036515 12.0231944,116.854524 C13.9894164,117.672534 16.2548915,117.223728 17.7607414,115.717878 C19.2665914,114.212028 19.715397,111.946553 18.8973875,109.980331 C18.079378,108.014109 16.1561177,106.735487 14.0265345,106.742065 C12.6320482,106.737753 11.2929541,107.287554 10.3038411,108.270543 C9.31472812,109.253531 8.75662023,110.589185 8.75229625,111.983671 L8.78495407,111.983671 Z" id="路径" fill="#989898" fill-rule="nonzero"/>
        <path d="M135.791223,63.7317393 C137.29429,65.2372941 139.556492,65.688733 141.522306,64.8754185 C143.48812,64.062104 144.770109,62.1443294 144.770109,60.0169121 C144.770109,57.8894948 143.48812,55.9717202 141.522306,55.1584057 C139.556492,54.3450911 137.29429,54.7965301 135.791223,56.3020849 C134.798708,57.281402 134.237289,58.6158126 134.23111,60.0101264 C134.225031,61.4044403 134.774698,62.7437348 135.758565,63.7317393 L135.791223,63.7317393 Z" id="路径" fill="#989898" fill-rule="nonzero"/>
        <path d="M31.8413763,167.681586 C33.3444428,169.187141 35.6066453,169.63858 37.5724591,168.825265 C39.5382728,168.011951 40.8202625,166.094176 40.8202625,163.966759 C40.8202625,161.839342 39.5382728,159.921567 37.5724591,159.108253 C35.6066453,158.294938 33.3444428,158.746377 31.8413763,160.251932 C29.792012,162.29928 29.7774317,165.616301 31.8087185,167.681586 L31.8413763,167.681586 Z" id="路径" fill="#989898" fill-rule="nonzero"/>
    </g>
</svg>