<?xml version="1.0" encoding="utf-8"?>

<!-- Copyright 2016 Siemens AG -->

<!-- Generator: Adobe Illustrator 16.0.4, SVG Export Plug-In . SVG Version: 6.00 Build 0)  -->
<!DOCTYPE svg PUBLIC "-//W3C//DTD SVG 1.1//EN" "http://www.w3.org/Graphics/SVG/1.1/DTD/svg11.dtd">
<svg version="1.1" id="Railroad_Box_Car" xmlns="http://www.w3.org/2000/svg" xmlns:xlink="http://www.w3.org/1999/xlink" x="0px"
	 y="0px" width="300px" height="79px" viewBox="0 0 300 79" enable-background="new 0 0 300 79" xml:space="preserve">
<g id="Box">
	<linearGradient id="Shape_Box_1_" gradientUnits="userSpaceOnUse" x1="-113.4219" y1="6.7314" x2="522.2354" y2="63.8887">
		<stop  offset="0" style="stop-color:#FFFFFF"/>
		<stop  offset="1" style="stop-color:#7C7C7B"/>
	</linearGradient>
	
		<rect id="Shape_Box" x="15.4" y="7.1" fill="url(#Shape_Box_1_)" stroke="#8C8C91" stroke-width="0.75" stroke-linecap="round" stroke-linejoin="round" stroke-miterlimit="10" width="269.1" height="46.6"/>
	<linearGradient id="Structure_Box_1_" gradientUnits="userSpaceOnUse" x1="-307.3315" y1="2.0298" x2="703.848" y2="72.1114">
		<stop  offset="0" style="stop-color:#FFFFFF"/>
		<stop  offset="1" style="stop-color:#7C7C7B"/>
	</linearGradient>
	
		<path id="Structure_Box" fill="url(#Structure_Box_1_)" stroke="#8C8C91" stroke-width="0.75" stroke-linecap="round" stroke-linejoin="round" stroke-miterlimit="10" d="
		M151.4,14.1v39.3h133V14.1H151.4z M152.9,51.9V15.6h15v36.3H152.9z M169.4,51.9V15.6h15v36.3H169.4z M185.8,51.9V15.6h15v36.3
		H185.8z M202.2,51.9V15.6h15v36.3H202.2z M218.7,51.9V15.6h15v36.3H218.7z M235.1,51.9V15.6h15v36.3H235.1z M251.6,51.9V15.6h15
		v36.3H251.6z M268,51.9V15.6h15v36.3H268z M15.4,14.1v39.3h133V14.1H15.4z M16.9,51.9V15.6h15v36.3H16.9z M33.3,51.9V15.6h15v36.3
		H33.3z M49.8,51.9V15.6h15v36.3H49.8z M66.2,51.9V15.6h15v36.3H66.2z M82.6,51.9V15.6h15v36.3H82.6z M99.1,51.9V15.6h15v36.3H99.1z
		 M115.5,51.9V15.6h15v36.3H115.5z M132,51.9V15.6h15v36.3H132z"/>
	<linearGradient id="Guide_Rails_Doors_1_" gradientUnits="userSpaceOnUse" x1="-87.2275" y1="4.353" x2="477.3135" y2="24.8545">
		<stop  offset="0" style="stop-color:#FFFFFF"/>
		<stop  offset="1" style="stop-color:#7C7C7B"/>
	</linearGradient>
	
		<path id="Guide_Rails_Doors" fill="url(#Guide_Rails_Doors_1_)" stroke="#8C8C91" stroke-width="0.75" stroke-linecap="round" stroke-linejoin="round" stroke-miterlimit="10" d="
		M148.4,14.1h-133v-2.3h133V14.1z M284.5,11.8h-133v2.3h133V11.8z"/>
	
		<path id="Devider_Lines" fill="none" stroke="#646567" stroke-width="0.75" stroke-linecap="round" stroke-linejoin="round" stroke-miterlimit="10" d="
		M148.4,53.3V7.1 M151.4,53.3V7.1"/>
	<g id="Handles">
		<linearGradient id="Handle_Right_1_" gradientUnits="userSpaceOnUse" x1="153.4453" y1="43.4624" x2="158.1202" y2="50.5829">
			<stop  offset="0" style="stop-color:#FFFFFF"/>
			<stop  offset="1" style="stop-color:#7C7C7B"/>
		</linearGradient>
		
			<path id="Handle_Right" fill="url(#Handle_Right_1_)" stroke="#646567" stroke-width="0.75" stroke-linecap="round" stroke-linejoin="round" stroke-miterlimit="10" d="
			M152.9,48.4h1.2c0.9,0,1.7-0.7,1.7-1.7v-4.9c0-0.9-0.7-1.7-1.7-1.7h-1.2v1.2h1.2c0.2,0,0.4,0.2,0.4,0.4v4.9c0,0.2-0.2,0.4-0.4,0.4
			h-1.2V48.4z"/>
		<linearGradient id="Handle_Left_1_" gradientUnits="userSpaceOnUse" x1="144.5049" y1="42.8296" x2="149.6719" y2="47.878">
			<stop  offset="0" style="stop-color:#FFFFFF"/>
			<stop  offset="1" style="stop-color:#7C7C7B"/>
		</linearGradient>
		
			<path id="Handle_Left" fill="url(#Handle_Left_1_)" stroke="#646567" stroke-width="0.75" stroke-linecap="round" stroke-linejoin="round" stroke-miterlimit="10" d="
			M147,48.4h-1.2c-0.9,0-1.7-0.7-1.7-1.7v-4.9c0-0.9,0.7-1.7,1.7-1.7h1.2v1.2h-1.2c-0.2,0-0.4,0.2-0.4,0.4v4.9
			c0,0.2,0.2,0.4,0.4,0.4h1.2V48.4z"/>
	</g>
	
		<path id="Reflection_Lines_Edges" fill="none" stroke="#F4F4F4" stroke-width="0.75" stroke-linecap="round" stroke-linejoin="round" stroke-miterlimit="10" d="
		M167.9,15.6v36.3h-15 M184.3,15.6v36.3h-15 M200.8,15.6v36.3h-15 M217.2,15.6v36.3h-15 M233.6,15.6v36.3h-15 M250.1,15.6v36.3h-15
		 M266.5,15.6v36.3h-15 M283,15.6v36.3h-15 M31.8,15.6v36.3h-15 M48.3,15.6v36.3h-15 M64.7,15.6v36.3h-15 M81.2,15.6v36.3h-15
		 M97.6,15.6v36.3h-15 M114,15.6v36.3h-15 M130.5,15.6v36.3h-15 M146.9,15.6v36.3h-15"/>
	
		<rect id="Roof_Line" x="15.4" y="7.1" fill="#8C8C91" stroke="#8C8C91" stroke-width="0.75" stroke-linecap="round" stroke-linejoin="round" stroke-miterlimit="10" width="269.1" height="1.8"/>
	
		<linearGradient id="Roof_1_" gradientUnits="userSpaceOnUse" x1="150.0732" y1="-2.1641" x2="150.0732" y2="15.798" gradientTransform="matrix(-1 0 0 1 300 0)">
		<stop  offset="0" style="stop-color:#FFFFFF"/>
		<stop  offset="1" style="stop-color:#7C7C7B"/>
	</linearGradient>
	
		<rect id="Roof" x="15.4" y="2.4" fill="url(#Roof_1_)" stroke="#8C8C91" stroke-width="0.75" stroke-linecap="round" stroke-linejoin="round" stroke-miterlimit="10" width="269.1" height="4.8"/>
	
		<path id="Shadow_Lines_Edges" fill="none" stroke="#646567" stroke-width="0.75" stroke-linecap="round" stroke-linejoin="round" stroke-miterlimit="10" d="
		M152.9,51.9V15.6h15 M169.4,51.9V15.6h15 M185.8,51.9V15.6h15 M202.2,51.9V15.6h15 M218.7,51.9V15.6h15 M235.1,51.9V15.6h15
		 M251.6,51.9V15.6h15 M268,51.9V15.6h15 M16.9,51.9V15.6h15 M33.3,51.9V15.6h15 M49.8,51.9V15.6h15 M66.2,51.9V15.6h15 M82.6,51.9
		V15.6h15 M99.1,51.9V15.6h15 M115.5,51.9V15.6h15 M132,51.9V15.6h15 M15.4,14.1h133 M15.4,7.1h269.1 M151.4,14.1h133"/>
</g>
<g id="Wheels__x2B__Axles_Right_4_">
	<linearGradient id="Chassis_1_" gradientUnits="userSpaceOnUse" x1="330.4424" y1="62.0332" x2="267.9179" y2="62.0332">
		<stop  offset="0" style="stop-color:#575756"/>
		<stop  offset="1.586480e-02" style="stop-color:#5D5C5C"/>
		<stop  offset="0.1171" style="stop-color:#797878"/>
		<stop  offset="0.2183" style="stop-color:#8D8D8C"/>
		<stop  offset="0.3189" style="stop-color:#999998"/>
		<stop  offset="0.4178" style="stop-color:#9D9D9C"/>
		<stop  offset="0.5402" style="stop-color:#979696"/>
		<stop  offset="0.7122" style="stop-color:#848484"/>
		<stop  offset="0.9127" style="stop-color:#676666"/>
		<stop  offset="1" style="stop-color:#575756"/>
	</linearGradient>
	
		<polygon id="Chassis_9_" fill="url(#Chassis_1_)" stroke="#575756" stroke-width="0.75" stroke-linecap="round" stroke-linejoin="round" stroke-miterlimit="10" points="
		212.9,58.6 213.9,63.7 274.2,63.7 274.2,65.5 276.8,65.5 276.8,58.6 	"/>
	
		<linearGradient id="Construction_Right_1_" gradientUnits="userSpaceOnUse" x1="260.2031" y1="65.4243" x2="260.2031" y2="59.2035">
		<stop  offset="0" style="stop-color:#575756"/>
		<stop  offset="1" style="stop-color:#424242"/>
	</linearGradient>
	
		<rect id="Construction_Right_9_" x="250.8" y="58.7" fill="url(#Construction_Right_1_)" stroke="#424242" stroke-width="0.75" stroke-linecap="round" stroke-linejoin="round" stroke-miterlimit="10" width="18.9" height="2.9"/>
	<linearGradient id="Construction_Left_1_" gradientUnits="userSpaceOnUse" x1="233.5908" y1="65.4243" x2="233.5908" y2="59.2035">
		<stop  offset="0" style="stop-color:#575756"/>
		<stop  offset="1" style="stop-color:#424242"/>
	</linearGradient>
	
		<rect id="Construction_Left_9_" x="224.1" y="58.7" fill="url(#Construction_Left_1_)" stroke="#424242" stroke-width="0.75" stroke-linecap="round" stroke-linejoin="round" stroke-miterlimit="10" width="18.9" height="2.9"/>
	<g id="Wheel_Right_10_">
		<linearGradient id="Flange_1_" gradientUnits="userSpaceOnUse" x1="264.792" y1="80.4478" x2="264.792" y2="68.6247">
			<stop  offset="0" style="stop-color:#FFFFFF"/>
			<stop  offset="1" style="stop-color:#575756"/>
		</linearGradient>
		
			<path id="Flange_19_" fill="url(#Flange_1_)" stroke="#424242" stroke-width="0.75" stroke-linecap="round" stroke-linejoin="round" stroke-miterlimit="10" d="
			M272.8,68.2c0,4.4-3.6,8-8,8c-4.4,0-8-3.6-8-8s3.6-8,8-8C269.2,60.1,272.8,63.7,272.8,68.2z"/>
		<linearGradient id="Rim_1_" gradientUnits="userSpaceOnUse" x1="255.3135" y1="68.1572" x2="273.7926" y2="68.1572">
			<stop  offset="0" style="stop-color:#575756"/>
			<stop  offset="1.586480e-02" style="stop-color:#5D5C5C"/>
			<stop  offset="0.1171" style="stop-color:#797878"/>
			<stop  offset="0.2183" style="stop-color:#8D8D8C"/>
			<stop  offset="0.3189" style="stop-color:#999998"/>
			<stop  offset="0.4178" style="stop-color:#9D9D9C"/>
			<stop  offset="0.5402" style="stop-color:#979696"/>
			<stop  offset="0.7122" style="stop-color:#848484"/>
			<stop  offset="0.9127" style="stop-color:#676666"/>
			<stop  offset="1" style="stop-color:#575756"/>
		</linearGradient>
		
			<circle id="Rim_24_" fill="url(#Rim_1_)" stroke="#8C8C91" stroke-width="0.75" stroke-linecap="round" stroke-linejoin="round" stroke-miterlimit="10" cx="264.8" cy="68.2" r="6.6"/>
		<linearGradient id="Hub_1_" gradientUnits="userSpaceOnUse" x1="261.2471" y1="68.1572" x2="268.3389" y2="68.1572">
			<stop  offset="0" style="stop-color:#575756"/>
			<stop  offset="1.586480e-02" style="stop-color:#5D5C5C"/>
			<stop  offset="0.1171" style="stop-color:#797878"/>
			<stop  offset="0.2183" style="stop-color:#8D8D8C"/>
			<stop  offset="0.3189" style="stop-color:#999998"/>
			<stop  offset="0.4178" style="stop-color:#9D9D9C"/>
			<stop  offset="0.5402" style="stop-color:#979696"/>
			<stop  offset="0.7122" style="stop-color:#848484"/>
			<stop  offset="0.9127" style="stop-color:#676666"/>
			<stop  offset="1" style="stop-color:#575756"/>
		</linearGradient>
		
			<circle id="Hub_19_" fill="url(#Hub_1_)" stroke="#646567" stroke-width="0.75" stroke-linecap="round" stroke-linejoin="round" stroke-miterlimit="10" cx="264.8" cy="68.2" r="3.5"/>
		<linearGradient id="Axle_1_" gradientUnits="userSpaceOnUse" x1="262.6416" y1="68.1572" x2="266.9463" y2="68.1572">
			<stop  offset="0" style="stop-color:#FFFFFF"/>
			<stop  offset="1" style="stop-color:#7C7C7B"/>
		</linearGradient>
		
			<circle id="Axle_19_" fill="url(#Axle_1_)" stroke="#646567" stroke-width="0.75" stroke-linecap="round" stroke-linejoin="round" stroke-miterlimit="10" cx="264.8" cy="68.2" r="2.2"/>
	</g>
	<g id="Wheel_Left_10_">
		<linearGradient id="Flange_2_" gradientUnits="userSpaceOnUse" x1="229.0532" y1="80.4478" x2="229.0532" y2="68.6247">
			<stop  offset="0" style="stop-color:#FFFFFF"/>
			<stop  offset="1" style="stop-color:#575756"/>
		</linearGradient>
		
			<circle id="Flange_18_" fill="url(#Flange_2_)" stroke="#424242" stroke-width="0.75" stroke-linecap="round" stroke-linejoin="round" stroke-miterlimit="10" cx="229.1" cy="68.2" r="8"/>
		<linearGradient id="Rim_2_" gradientUnits="userSpaceOnUse" x1="219.5747" y1="68.1572" x2="238.0538" y2="68.1572">
			<stop  offset="0" style="stop-color:#575756"/>
			<stop  offset="1.586480e-02" style="stop-color:#5D5C5C"/>
			<stop  offset="0.1171" style="stop-color:#797878"/>
			<stop  offset="0.2183" style="stop-color:#8D8D8C"/>
			<stop  offset="0.3189" style="stop-color:#999998"/>
			<stop  offset="0.4178" style="stop-color:#9D9D9C"/>
			<stop  offset="0.5402" style="stop-color:#979696"/>
			<stop  offset="0.7122" style="stop-color:#848484"/>
			<stop  offset="0.9127" style="stop-color:#676666"/>
			<stop  offset="1" style="stop-color:#575756"/>
		</linearGradient>
		
			<circle id="Rim_23_" fill="url(#Rim_2_)" stroke="#8C8C91" stroke-width="0.75" stroke-linecap="round" stroke-linejoin="round" stroke-miterlimit="10" cx="229.1" cy="68.2" r="6.6"/>
		<linearGradient id="Hub_2_" gradientUnits="userSpaceOnUse" x1="229.4141" y1="72.0068" x2="229.0967" y2="68.6064">
			<stop  offset="0" style="stop-color:#575756"/>
			<stop  offset="1.586480e-02" style="stop-color:#5D5C5C"/>
			<stop  offset="0.1171" style="stop-color:#797878"/>
			<stop  offset="0.2183" style="stop-color:#8D8D8C"/>
			<stop  offset="0.3189" style="stop-color:#999998"/>
			<stop  offset="0.4178" style="stop-color:#9D9D9C"/>
			<stop  offset="0.5402" style="stop-color:#979696"/>
			<stop  offset="0.7122" style="stop-color:#848484"/>
			<stop  offset="0.9127" style="stop-color:#676666"/>
			<stop  offset="1" style="stop-color:#575756"/>
		</linearGradient>
		
			<circle id="Hub_18_" fill="url(#Hub_2_)" stroke="#646567" stroke-width="0.75" stroke-linecap="round" stroke-linejoin="round" stroke-miterlimit="10" cx="229.1" cy="68.2" r="3.5"/>
		<linearGradient id="Axle_2_" gradientUnits="userSpaceOnUse" x1="226.9014" y1="68.1572" x2="231.2061" y2="68.1572">
			<stop  offset="0" style="stop-color:#FFFFFF"/>
			<stop  offset="1" style="stop-color:#7C7C7B"/>
		</linearGradient>
		
			<path id="Axle_18_" fill="url(#Axle_2_)" stroke="#646567" stroke-width="0.75" stroke-linecap="round" stroke-linejoin="round" stroke-miterlimit="10" d="
			M231.2,68.2c0,1.2-1,2.2-2.2,2.2c-1.2,0-2.2-1-2.2-2.2s1-2.2,2.2-2.2C230.2,66,231.2,67,231.2,68.2z"/>
	</g>
	<linearGradient id="Wheel_Suspensions_1_" gradientUnits="userSpaceOnUse" x1="246.9424" y1="69.2778" x2="246.9424" y2="72.2678">
		<stop  offset="0" style="stop-color:#575756"/>
		<stop  offset="1.586480e-02" style="stop-color:#5D5C5C"/>
		<stop  offset="0.1171" style="stop-color:#797878"/>
		<stop  offset="0.2183" style="stop-color:#8D8D8C"/>
		<stop  offset="0.3189" style="stop-color:#999998"/>
		<stop  offset="0.4178" style="stop-color:#9D9D9C"/>
		<stop  offset="0.5402" style="stop-color:#979696"/>
		<stop  offset="0.7122" style="stop-color:#848484"/>
		<stop  offset="0.9127" style="stop-color:#676666"/>
		<stop  offset="1" style="stop-color:#575756"/>
	</linearGradient>
	
		<path id="Wheel_Suspensions_9_" fill="url(#Wheel_Suspensions_1_)" stroke="#424242" stroke-width="0.75" stroke-linecap="round" stroke-linejoin="round" stroke-miterlimit="10" d="
		M268.9,65.6l-0.9,3.4h-1v-3.4H268.9z M260.7,65.6l0.9,3.4h1v-3.4H260.7z M231.2,65.6v3.4h1l0.9-3.4H231.2z M225,65.6l0.9,3.4h1
		v-3.4H225z"/>
	<g id="Suspension_Coils_9_">
		<linearGradient id="Suspension_Coil_4_1_" gradientUnits="userSpaceOnUse" x1="249.9844" y1="69.6045" x2="252.193" y2="69.6045">
			<stop  offset="0" style="stop-color:#575756"/>
			<stop  offset="1.586480e-02" style="stop-color:#5D5C5C"/>
			<stop  offset="0.1171" style="stop-color:#797878"/>
			<stop  offset="0.2183" style="stop-color:#8D8D8C"/>
			<stop  offset="0.3189" style="stop-color:#999998"/>
			<stop  offset="0.4178" style="stop-color:#9D9D9C"/>
			<stop  offset="0.5402" style="stop-color:#979696"/>
			<stop  offset="0.7122" style="stop-color:#848484"/>
			<stop  offset="0.9127" style="stop-color:#676666"/>
			<stop  offset="1" style="stop-color:#575756"/>
		</linearGradient>
		
			<rect id="Suspension_Coil_4_9_" x="249.6" y="67.8" fill="url(#Suspension_Coil_4_1_)" stroke="#646567" stroke-width="0.75" stroke-linecap="round" stroke-linejoin="round" stroke-miterlimit="10" width="3" height="3.6"/>
		<linearGradient id="Suspension_Coil_3_1_" gradientUnits="userSpaceOnUse" x1="247.0479" y1="69.6045" x2="249.205" y2="69.6045">
			<stop  offset="0" style="stop-color:#575756"/>
			<stop  offset="1.586480e-02" style="stop-color:#5D5C5C"/>
			<stop  offset="0.1171" style="stop-color:#797878"/>
			<stop  offset="0.2183" style="stop-color:#8D8D8C"/>
			<stop  offset="0.3189" style="stop-color:#999998"/>
			<stop  offset="0.4178" style="stop-color:#9D9D9C"/>
			<stop  offset="0.5402" style="stop-color:#979696"/>
			<stop  offset="0.7122" style="stop-color:#848484"/>
			<stop  offset="0.9127" style="stop-color:#676666"/>
			<stop  offset="1" style="stop-color:#575756"/>
		</linearGradient>
		
			<rect id="Suspension_Coil_3_9_" x="246.6" y="67.8" fill="url(#Suspension_Coil_3_1_)" stroke="#646567" stroke-width="0.75" stroke-linecap="round" stroke-linejoin="round" stroke-miterlimit="10" width="3" height="3.6"/>
		
			<linearGradient id="Suspension_Coil_2_1_" gradientUnits="userSpaceOnUse" x1="244.0322" y1="69.6045" x2="246.2377" y2="69.6045">
			<stop  offset="0" style="stop-color:#575756"/>
			<stop  offset="1.586480e-02" style="stop-color:#5D5C5C"/>
			<stop  offset="0.1171" style="stop-color:#797878"/>
			<stop  offset="0.2183" style="stop-color:#8D8D8C"/>
			<stop  offset="0.3189" style="stop-color:#999998"/>
			<stop  offset="0.4178" style="stop-color:#9D9D9C"/>
			<stop  offset="0.5402" style="stop-color:#979696"/>
			<stop  offset="0.7122" style="stop-color:#848484"/>
			<stop  offset="0.9127" style="stop-color:#676666"/>
			<stop  offset="1" style="stop-color:#575756"/>
		</linearGradient>
		
			<rect id="Suspension_Coil_2_9_" x="243.7" y="67.8" fill="url(#Suspension_Coil_2_1_)" stroke="#646567" stroke-width="0.75" stroke-linecap="round" stroke-linejoin="round" stroke-miterlimit="10" width="3" height="3.6"/>
		
			<linearGradient id="Suspension_Coil_1_1_" gradientUnits="userSpaceOnUse" x1="241.1104" y1="69.6045" x2="243.3046" y2="69.6045">
			<stop  offset="0" style="stop-color:#575756"/>
			<stop  offset="1.586480e-02" style="stop-color:#5D5C5C"/>
			<stop  offset="0.1171" style="stop-color:#797878"/>
			<stop  offset="0.2183" style="stop-color:#8D8D8C"/>
			<stop  offset="0.3189" style="stop-color:#999998"/>
			<stop  offset="0.4178" style="stop-color:#9D9D9C"/>
			<stop  offset="0.5402" style="stop-color:#979696"/>
			<stop  offset="0.7122" style="stop-color:#848484"/>
			<stop  offset="0.9127" style="stop-color:#676666"/>
			<stop  offset="1" style="stop-color:#575756"/>
		</linearGradient>
		
			<rect id="Suspension_Coil_1_9_" x="240.7" y="67.8" fill="url(#Suspension_Coil_1_1_)" stroke="#646567" stroke-width="0.75" stroke-linecap="round" stroke-linejoin="round" stroke-miterlimit="10" width="3" height="3.6"/>
	</g>
	
		<path id="Shock_Absorber_9_" fill="none" stroke="#424242" stroke-width="0.5" stroke-linecap="round" stroke-linejoin="round" stroke-miterlimit="10" d="
		M240.7,69.2h11.8 M240.7,70.1h11.8"/>
	
		<linearGradient id="Connection_Suspension_Coils_1_" gradientUnits="userSpaceOnUse" x1="264.6719" y1="66.9443" x2="241.3536" y2="66.9443">
		<stop  offset="0" style="stop-color:#575756"/>
		<stop  offset="1.586480e-02" style="stop-color:#5D5C5C"/>
		<stop  offset="0.1171" style="stop-color:#797878"/>
		<stop  offset="0.2183" style="stop-color:#8D8D8C"/>
		<stop  offset="0.3189" style="stop-color:#999998"/>
		<stop  offset="0.4178" style="stop-color:#9D9D9C"/>
		<stop  offset="0.5402" style="stop-color:#979696"/>
		<stop  offset="0.7122" style="stop-color:#848484"/>
		<stop  offset="0.9127" style="stop-color:#676666"/>
		<stop  offset="1" style="stop-color:#575756"/>
	</linearGradient>
	
		<polygon id="Connection_Suspension_Coils_9_" fill="url(#Connection_Suspension_Coils_1_)" stroke="#646567" stroke-width="0.75" stroke-linecap="round" stroke-linejoin="round" stroke-miterlimit="10" points="
		241.3,66.1 252.5,66.1 253.6,67.8 240.1,67.8 	"/>
	<linearGradient id="Bogie_Frame_1_" gradientUnits="userSpaceOnUse" x1="238.7979" y1="67.9814" x2="256.0736" y2="67.9814">
		<stop  offset="0" style="stop-color:#575756"/>
		<stop  offset="1.586480e-02" style="stop-color:#5D5C5C"/>
		<stop  offset="0.1171" style="stop-color:#797878"/>
		<stop  offset="0.2183" style="stop-color:#8D8D8C"/>
		<stop  offset="0.3189" style="stop-color:#999998"/>
		<stop  offset="0.4178" style="stop-color:#9D9D9C"/>
		<stop  offset="0.5402" style="stop-color:#979696"/>
		<stop  offset="0.7122" style="stop-color:#848484"/>
		<stop  offset="0.9127" style="stop-color:#676666"/>
		<stop  offset="1" style="stop-color:#575756"/>
	</linearGradient>
	
		<path id="Bogie_Frame_9_" fill="url(#Bogie_Frame_1_)" stroke="#646567" stroke-width="0.75" stroke-linecap="round" stroke-linejoin="round" stroke-miterlimit="10" d="
		M225,63v2.6h8.2l4.9,6.3c0,0,0.9,1.1,2,1.1c1.1,0,12.5,0,13.6,0s2-1.1,2-1.1l4.9-6.3h8.3V63H225z M237.9,68.9l-2.4-3
		c0,0-0.1-1.1,1.2-1.1h2.1c0,0,1.1,0.9,0.5,1.9C238.8,67.7,237.9,68.9,237.9,68.9z M254.3,70.9c0,0-0.4,0.5-1.2,0.5
		c-0.9,0-11.5,0-12.3,0c-0.8,0-1.2-0.5-1.2-0.5l-0.8-0.9l2.6-3.9h11.2l2.6,3.9L254.3,70.9z M258.4,65.9l-2.4,3c0,0-0.9-1.2-1.5-2.2
		c-0.6-1,0.5-1.9,0.5-1.9h2.1C258.4,64.8,258.4,65.9,258.4,65.9z"/>
	
		<line id="Devider_Line_17_" fill="none" stroke="#646567" stroke-width="0.75" stroke-linecap="round" stroke-linejoin="round" stroke-miterlimit="10" x1="241.3" y1="64.6" x2="252.5" y2="64.6"/>
</g>
<g id="Wheel_Set__x2B__Axles_Left_4_">
	<linearGradient id="Chassis_2_" gradientUnits="userSpaceOnUse" x1="-7.9229" y1="36.0713" x2="38.9861" y2="55.4331">
		<stop  offset="0" style="stop-color:#575756"/>
		<stop  offset="1.586480e-02" style="stop-color:#5D5C5C"/>
		<stop  offset="0.1171" style="stop-color:#797878"/>
		<stop  offset="0.2183" style="stop-color:#8D8D8C"/>
		<stop  offset="0.3189" style="stop-color:#999998"/>
		<stop  offset="0.4178" style="stop-color:#9D9D9C"/>
		<stop  offset="0.5402" style="stop-color:#979696"/>
		<stop  offset="0.7122" style="stop-color:#848484"/>
		<stop  offset="0.9127" style="stop-color:#676666"/>
		<stop  offset="1" style="stop-color:#575756"/>
	</linearGradient>
	
		<polygon id="Chassis_8_" fill="url(#Chassis_2_)" stroke="#575756" stroke-width="0.75" stroke-linecap="round" stroke-linejoin="round" stroke-miterlimit="10" points="
		86.9,58.6 86,63.7 25.6,63.7 25.6,65.5 23,65.5 23,58.6 	"/>
	<linearGradient id="Construction_Right_2_" gradientUnits="userSpaceOnUse" x1="65.9858" y1="65.4268" x2="65.9858" y2="59.2017">
		<stop  offset="0" style="stop-color:#575756"/>
		<stop  offset="1" style="stop-color:#424242"/>
	</linearGradient>
	
		<rect id="Construction_Right_8_" x="56.5" y="58.7" fill="url(#Construction_Right_2_)" stroke="#424242" stroke-width="0.75" stroke-linecap="round" stroke-linejoin="round" stroke-miterlimit="10" width="18.9" height="2.9"/>
	<linearGradient id="Construction_Left_2_" gradientUnits="userSpaceOnUse" x1="39.3745" y1="65.4268" x2="39.3745" y2="59.2017">
		<stop  offset="0" style="stop-color:#575756"/>
		<stop  offset="1" style="stop-color:#424242"/>
	</linearGradient>
	
		<rect id="Construction_Left_8_" x="29.9" y="58.7" fill="url(#Construction_Left_2_)" stroke="#424242" stroke-width="0.75" stroke-linecap="round" stroke-linejoin="round" stroke-miterlimit="10" width="18.9" height="2.9"/>
	<g id="Wheel_Right_9_">
		<linearGradient id="Flange_3_" gradientUnits="userSpaceOnUse" x1="70.8408" y1="80.4453" x2="70.8408" y2="68.6237">
			<stop  offset="0" style="stop-color:#FFFFFF"/>
			<stop  offset="1" style="stop-color:#575756"/>
		</linearGradient>
		
			<path id="Flange_17_" fill="url(#Flange_3_)" stroke="#424242" stroke-width="0.75" stroke-linecap="round" stroke-linejoin="round" stroke-miterlimit="10" d="
			M78.9,68.2c0,4.4-3.6,8-8,8c-4.4,0-8-3.6-8-8c0-4.4,3.6-8,8-8C75.3,60.1,78.9,63.7,78.9,68.2z"/>
		<linearGradient id="Rim_3_" gradientUnits="userSpaceOnUse" x1="61.3618" y1="68.1572" x2="79.8423" y2="68.1572">
			<stop  offset="0" style="stop-color:#575756"/>
			<stop  offset="1.586480e-02" style="stop-color:#5D5C5C"/>
			<stop  offset="0.1171" style="stop-color:#797878"/>
			<stop  offset="0.2183" style="stop-color:#8D8D8C"/>
			<stop  offset="0.3189" style="stop-color:#999998"/>
			<stop  offset="0.4178" style="stop-color:#9D9D9C"/>
			<stop  offset="0.5402" style="stop-color:#979696"/>
			<stop  offset="0.7122" style="stop-color:#848484"/>
			<stop  offset="0.9127" style="stop-color:#676666"/>
			<stop  offset="1" style="stop-color:#575756"/>
		</linearGradient>
		
			<circle id="Rim_22_" fill="url(#Rim_3_)" stroke="#8C8C91" stroke-width="0.75" stroke-linecap="round" stroke-linejoin="round" stroke-miterlimit="10" cx="70.8" cy="68.2" r="6.6"/>
		<linearGradient id="Hub_3_" gradientUnits="userSpaceOnUse" x1="67.2959" y1="68.1572" x2="74.3887" y2="68.1572">
			<stop  offset="0" style="stop-color:#575756"/>
			<stop  offset="1.586480e-02" style="stop-color:#5D5C5C"/>
			<stop  offset="0.1171" style="stop-color:#797878"/>
			<stop  offset="0.2183" style="stop-color:#8D8D8C"/>
			<stop  offset="0.3189" style="stop-color:#999998"/>
			<stop  offset="0.4178" style="stop-color:#9D9D9C"/>
			<stop  offset="0.5402" style="stop-color:#979696"/>
			<stop  offset="0.7122" style="stop-color:#848484"/>
			<stop  offset="0.9127" style="stop-color:#676666"/>
			<stop  offset="1" style="stop-color:#575756"/>
		</linearGradient>
		
			<circle id="Hub_17_" fill="url(#Hub_3_)" stroke="#646567" stroke-width="0.75" stroke-linecap="round" stroke-linejoin="round" stroke-miterlimit="10" cx="70.8" cy="68.2" r="3.5"/>
		<linearGradient id="Axle_3_" gradientUnits="userSpaceOnUse" x1="68.6904" y1="68.1572" x2="72.9951" y2="68.1572">
			<stop  offset="0" style="stop-color:#FFFFFF"/>
			<stop  offset="1" style="stop-color:#7C7C7B"/>
		</linearGradient>
		
			<circle id="Axle_17_" fill="url(#Axle_3_)" stroke="#646567" stroke-width="0.75" stroke-linecap="round" stroke-linejoin="round" stroke-miterlimit="10" cx="70.8" cy="68.2" r="2.2"/>
	</g>
	<g id="Wheel_Left_9_">
		<linearGradient id="Flange_4_" gradientUnits="userSpaceOnUse" x1="35.1021" y1="80.4453" x2="35.1021" y2="68.6237">
			<stop  offset="0" style="stop-color:#FFFFFF"/>
			<stop  offset="1" style="stop-color:#575756"/>
		</linearGradient>
		
			<path id="Flange_16_" fill="url(#Flange_4_)" stroke="#424242" stroke-width="0.75" stroke-linecap="round" stroke-linejoin="round" stroke-miterlimit="10" d="
			M43.1,68.2c0,4.4-3.6,8-8,8c-4.4,0-8-3.6-8-8c0-4.4,3.6-8,8-8C39.5,60.1,43.1,63.7,43.1,68.2z"/>
		<linearGradient id="Rim_4_" gradientUnits="userSpaceOnUse" x1="25.6235" y1="68.1572" x2="44.1026" y2="68.1572">
			<stop  offset="0" style="stop-color:#575756"/>
			<stop  offset="1.586480e-02" style="stop-color:#5D5C5C"/>
			<stop  offset="0.1171" style="stop-color:#797878"/>
			<stop  offset="0.2183" style="stop-color:#8D8D8C"/>
			<stop  offset="0.3189" style="stop-color:#999998"/>
			<stop  offset="0.4178" style="stop-color:#9D9D9C"/>
			<stop  offset="0.5402" style="stop-color:#979696"/>
			<stop  offset="0.7122" style="stop-color:#848484"/>
			<stop  offset="0.9127" style="stop-color:#676666"/>
			<stop  offset="1" style="stop-color:#575756"/>
		</linearGradient>
		
			<circle id="Rim_21_" fill="url(#Rim_4_)" stroke="#8C8C91" stroke-width="0.75" stroke-linecap="round" stroke-linejoin="round" stroke-miterlimit="10" cx="35.1" cy="68.2" r="6.6"/>
		<linearGradient id="Hub_4_" gradientUnits="userSpaceOnUse" x1="35.4619" y1="72.0073" x2="35.1445" y2="68.6069">
			<stop  offset="0" style="stop-color:#575756"/>
			<stop  offset="1.586480e-02" style="stop-color:#5D5C5C"/>
			<stop  offset="0.1171" style="stop-color:#797878"/>
			<stop  offset="0.2183" style="stop-color:#8D8D8C"/>
			<stop  offset="0.3189" style="stop-color:#999998"/>
			<stop  offset="0.4178" style="stop-color:#9D9D9C"/>
			<stop  offset="0.5402" style="stop-color:#979696"/>
			<stop  offset="0.7122" style="stop-color:#848484"/>
			<stop  offset="0.9127" style="stop-color:#676666"/>
			<stop  offset="1" style="stop-color:#575756"/>
		</linearGradient>
		
			<circle id="Hub_16_" fill="url(#Hub_4_)" stroke="#646567" stroke-width="0.75" stroke-linecap="round" stroke-linejoin="round" stroke-miterlimit="10" cx="35.1" cy="68.2" r="3.5"/>
		<linearGradient id="Axle_4_" gradientUnits="userSpaceOnUse" x1="32.9512" y1="68.1572" x2="37.2559" y2="68.1572">
			<stop  offset="0" style="stop-color:#FFFFFF"/>
			<stop  offset="1" style="stop-color:#7C7C7B"/>
		</linearGradient>
		
			<circle id="Axle_16_" fill="url(#Axle_4_)" stroke="#646567" stroke-width="0.75" stroke-linecap="round" stroke-linejoin="round" stroke-miterlimit="10" cx="35.1" cy="68.2" r="2.2"/>
	</g>
	<linearGradient id="Wheel_Suspensions_2_" gradientUnits="userSpaceOnUse" x1="52.9766" y1="69.2783" x2="52.9766" y2="72.2683">
		<stop  offset="0" style="stop-color:#575756"/>
		<stop  offset="1.586480e-02" style="stop-color:#5D5C5C"/>
		<stop  offset="0.1171" style="stop-color:#797878"/>
		<stop  offset="0.2183" style="stop-color:#8D8D8C"/>
		<stop  offset="0.3189" style="stop-color:#999998"/>
		<stop  offset="0.4178" style="stop-color:#9D9D9C"/>
		<stop  offset="0.5402" style="stop-color:#979696"/>
		<stop  offset="0.7122" style="stop-color:#848484"/>
		<stop  offset="0.9127" style="stop-color:#676666"/>
		<stop  offset="1" style="stop-color:#575756"/>
	</linearGradient>
	
		<path id="Wheel_Suspensions_8_" fill="url(#Wheel_Suspensions_2_)" stroke="#424242" stroke-width="0.75" stroke-linecap="round" stroke-linejoin="round" stroke-miterlimit="10" d="
		M68.7,65.6v3.4h-1l-0.9-3.4H68.7z M73,65.6v3.4h1l0.9-3.4H73z M37.3,65.6v3.4h1l0.9-3.4H37.3z M31,65.6l0.9,3.4h1v-3.4H31z"/>
	<g id="Suspension_Coils_8_">
		<linearGradient id="Suspension_Coil_4_2_" gradientUnits="userSpaceOnUse" x1="56.021" y1="69.6045" x2="58.2297" y2="69.6045">
			<stop  offset="0" style="stop-color:#575756"/>
			<stop  offset="1.586480e-02" style="stop-color:#5D5C5C"/>
			<stop  offset="0.1171" style="stop-color:#797878"/>
			<stop  offset="0.2183" style="stop-color:#8D8D8C"/>
			<stop  offset="0.3189" style="stop-color:#999998"/>
			<stop  offset="0.4178" style="stop-color:#9D9D9C"/>
			<stop  offset="0.5402" style="stop-color:#979696"/>
			<stop  offset="0.7122" style="stop-color:#848484"/>
			<stop  offset="0.9127" style="stop-color:#676666"/>
			<stop  offset="1" style="stop-color:#575756"/>
		</linearGradient>
		
			<rect id="Suspension_Coil_4_8_" x="55.6" y="67.8" fill="url(#Suspension_Coil_4_2_)" stroke="#646567" stroke-width="0.75" stroke-linecap="round" stroke-linejoin="round" stroke-miterlimit="10" width="3" height="3.6"/>
		<linearGradient id="Suspension_Coil_3_2_" gradientUnits="userSpaceOnUse" x1="53.0835" y1="69.6045" x2="55.2407" y2="69.6045">
			<stop  offset="0" style="stop-color:#575756"/>
			<stop  offset="1.586480e-02" style="stop-color:#5D5C5C"/>
			<stop  offset="0.1171" style="stop-color:#797878"/>
			<stop  offset="0.2183" style="stop-color:#8D8D8C"/>
			<stop  offset="0.3189" style="stop-color:#999998"/>
			<stop  offset="0.4178" style="stop-color:#9D9D9C"/>
			<stop  offset="0.5402" style="stop-color:#979696"/>
			<stop  offset="0.7122" style="stop-color:#848484"/>
			<stop  offset="0.9127" style="stop-color:#676666"/>
			<stop  offset="1" style="stop-color:#575756"/>
		</linearGradient>
		
			<rect id="Suspension_Coil_3_8_" x="52.7" y="67.8" fill="url(#Suspension_Coil_3_2_)" stroke="#646567" stroke-width="0.75" stroke-linecap="round" stroke-linejoin="round" stroke-miterlimit="10" width="3" height="3.6"/>
		<linearGradient id="Suspension_Coil_2_2_" gradientUnits="userSpaceOnUse" x1="50.0674" y1="69.6045" x2="52.2736" y2="69.6045">
			<stop  offset="0" style="stop-color:#575756"/>
			<stop  offset="1.586480e-02" style="stop-color:#5D5C5C"/>
			<stop  offset="0.1171" style="stop-color:#797878"/>
			<stop  offset="0.2183" style="stop-color:#8D8D8C"/>
			<stop  offset="0.3189" style="stop-color:#999998"/>
			<stop  offset="0.4178" style="stop-color:#9D9D9C"/>
			<stop  offset="0.5402" style="stop-color:#979696"/>
			<stop  offset="0.7122" style="stop-color:#848484"/>
			<stop  offset="0.9127" style="stop-color:#676666"/>
			<stop  offset="1" style="stop-color:#575756"/>
		</linearGradient>
		
			<rect id="Suspension_Coil_2_8_" x="49.7" y="67.8" fill="url(#Suspension_Coil_2_2_)" stroke="#646567" stroke-width="0.75" stroke-linecap="round" stroke-linejoin="round" stroke-miterlimit="10" width="3" height="3.6"/>
		<linearGradient id="Suspension_Coil_1_2_" gradientUnits="userSpaceOnUse" x1="47.1455" y1="69.6045" x2="49.3398" y2="69.6045">
			<stop  offset="0" style="stop-color:#575756"/>
			<stop  offset="1.586480e-02" style="stop-color:#5D5C5C"/>
			<stop  offset="0.1171" style="stop-color:#797878"/>
			<stop  offset="0.2183" style="stop-color:#8D8D8C"/>
			<stop  offset="0.3189" style="stop-color:#999998"/>
			<stop  offset="0.4178" style="stop-color:#9D9D9C"/>
			<stop  offset="0.5402" style="stop-color:#979696"/>
			<stop  offset="0.7122" style="stop-color:#848484"/>
			<stop  offset="0.9127" style="stop-color:#676666"/>
			<stop  offset="1" style="stop-color:#575756"/>
		</linearGradient>
		
			<rect id="Suspension_Coil_1_8_" x="46.8" y="67.8" fill="url(#Suspension_Coil_1_2_)" stroke="#646567" stroke-width="0.75" stroke-linecap="round" stroke-linejoin="round" stroke-miterlimit="10" width="3" height="3.6"/>
	</g>
	
		<path id="Shock_Absorber_8_" fill="none" stroke="#424242" stroke-width="0.5" stroke-linecap="round" stroke-linejoin="round" stroke-miterlimit="10" d="
		M46.8,69.2h11.8 M46.8,70.1h11.8"/>
	
		<linearGradient id="Connection_Suspension_Coils_2_" gradientUnits="userSpaceOnUse" x1="70.7085" y1="66.9443" x2="47.3885" y2="66.9443">
		<stop  offset="0" style="stop-color:#575756"/>
		<stop  offset="1.586480e-02" style="stop-color:#5D5C5C"/>
		<stop  offset="0.1171" style="stop-color:#797878"/>
		<stop  offset="0.2183" style="stop-color:#8D8D8C"/>
		<stop  offset="0.3189" style="stop-color:#999998"/>
		<stop  offset="0.4178" style="stop-color:#9D9D9C"/>
		<stop  offset="0.5402" style="stop-color:#979696"/>
		<stop  offset="0.7122" style="stop-color:#848484"/>
		<stop  offset="0.9127" style="stop-color:#676666"/>
		<stop  offset="1" style="stop-color:#575756"/>
	</linearGradient>
	
		<polygon id="Connection_Suspension_Coils_8_" fill="url(#Connection_Suspension_Coils_2_)" stroke="#646567" stroke-width="0.75" stroke-linecap="round" stroke-linejoin="round" stroke-miterlimit="10" points="
		47.3,66.1 58.5,66.1 59.7,67.8 46.2,67.8 	"/>
	<linearGradient id="Bogie_Frame_2_" gradientUnits="userSpaceOnUse" x1="44.833" y1="67.9814" x2="62.1083" y2="67.9814">
		<stop  offset="0" style="stop-color:#575756"/>
		<stop  offset="1.586480e-02" style="stop-color:#5D5C5C"/>
		<stop  offset="0.1171" style="stop-color:#797878"/>
		<stop  offset="0.2183" style="stop-color:#8D8D8C"/>
		<stop  offset="0.3189" style="stop-color:#999998"/>
		<stop  offset="0.4178" style="stop-color:#9D9D9C"/>
		<stop  offset="0.5402" style="stop-color:#979696"/>
		<stop  offset="0.7122" style="stop-color:#848484"/>
		<stop  offset="0.9127" style="stop-color:#676666"/>
		<stop  offset="1" style="stop-color:#575756"/>
	</linearGradient>
	
		<path id="Bogie_Frame_8_" fill="url(#Bogie_Frame_2_)" stroke="#646567" stroke-width="0.75" stroke-linecap="round" stroke-linejoin="round" stroke-miterlimit="10" d="
		M31,63v2.6h8.2l4.9,6.3c0,0,0.9,1.1,2,1.1c1.1,0,12.5,0,13.6,0c1.1,0,2-1.1,2-1.1l4.9-6.3h8.3V63H31z M43.9,68.9l-2.4-3
		c0,0-0.1-1.1,1.2-1.1h2.1c0,0,1.1,0.9,0.5,1.9C44.8,67.7,43.9,68.9,43.9,68.9z M60.3,70.9c0,0-0.4,0.5-1.2,0.5
		c-0.9,0-11.5,0-12.3,0c-0.8,0-1.2-0.5-1.2-0.5L44.7,70l2.6-3.9h11.2l2.6,3.9L60.3,70.9z M64.4,65.9l-2.4,3c0,0-0.9-1.2-1.5-2.2
		c-0.6-1,0.5-1.9,0.5-1.9h2.1C64.5,64.8,64.4,65.9,64.4,65.9z"/>
	
		<line id="Devider_Line_16_" fill="none" stroke="#646567" stroke-width="0.75" stroke-linecap="round" stroke-linejoin="round" stroke-miterlimit="10" x1="47.3" y1="64.6" x2="58.5" y2="64.6"/>
</g>
<g id="Base_Construction">
	<g id="Coupler_4_">
		<g id="Coupler_Right_4_">
			
				<linearGradient id="Shape_1_" gradientUnits="userSpaceOnUse" x1="295.3711" y1="63.9834" x2="297.0969" y2="63.9834" gradientTransform="matrix(-1 0 0 1 585.2422 0)">
				<stop  offset="0" style="stop-color:#575756"/>
				<stop  offset="1" style="stop-color:#424242"/>
			</linearGradient>
			
				<path id="Shape_9_" fill="url(#Shape_1_)" stroke="#424242" stroke-width="0.75" stroke-linecap="round" stroke-linejoin="round" stroke-miterlimit="10" d="
				M276.8,62l10.7-0.6l0.6-0.6h2.6v0.9h1.6l-0.4-3c0,0-0.1-0.6,0.3-0.7c0.3,0,0.7,0.9,0.7,0.9l1.7,4.2c0,0,0.4,1.1-1.1,1.1
				s-2.8,0-2.8,0v4.2l-1.6,1.6l-1.6-1.2V66c-0.3,0.3-0.8,0.6-1.3,0.6c-0.9,0-1.7-0.8-1.7-1.7c0-0.2,0-0.4,0.1-0.5h-7.9V62z"/>
			
				<line id="Connection_Ring_9_" fill="none" stroke="#424242" stroke-width="0.75" stroke-linecap="round" stroke-linejoin="round" stroke-miterlimit="10" x1="297.9" y1="60.9" x2="292.2" y2="60.9"/>
			
				<line id="Devider_Line_19_" fill="none" stroke="#424242" stroke-width="0.75" stroke-linecap="round" stroke-linejoin="round" stroke-miterlimit="10" x1="290.7" y1="64.9" x2="290.7" y2="61.6"/>
			
				<circle id="Joint_1_" fill="none" stroke="#77787A" stroke-width="0.75" stroke-linecap="round" stroke-linejoin="round" stroke-miterlimit="10" cx="286.3" cy="64.9" r="1.7"/>
		</g>
		<g id="Coupler_Left_4_">
			<linearGradient id="Shape_2_" gradientUnits="userSpaceOnUse" x1="10.0146" y1="63.9834" x2="11.7404" y2="63.9834">
				<stop  offset="0" style="stop-color:#575756"/>
				<stop  offset="1" style="stop-color:#424242"/>
			</linearGradient>
			
				<path id="Shape_8_" fill="url(#Shape_2_)" stroke="#424242" stroke-width="0.75" stroke-linecap="round" stroke-linejoin="round" stroke-miterlimit="10" d="
				M23.1,62l-10.7-0.6l-0.6-0.6H9.1v0.9H7.6l0.4-3c0,0,0.1-0.6-0.3-0.7c-0.3,0-0.7,0.9-0.7,0.9l-1.7,4.2c0,0-0.4,1.1,1.1,1.1
				s2.8,0,2.8,0v4.2l1.6,1.6l1.6-1.2V66c0.3,0.3,0.8,0.6,1.3,0.6c0.9,0,1.7-0.8,1.7-1.7c0-0.2,0-0.4-0.1-0.5h7.9V62z"/>
			
				<line id="Connection_Ring_8_" fill="none" stroke="#424242" stroke-width="0.75" stroke-linecap="round" stroke-linejoin="round" stroke-miterlimit="10" x1="2" y1="60.9" x2="7.7" y2="60.9"/>
			
				<line id="Devider_Line_18_" fill="none" stroke="#424242" stroke-width="0.75" stroke-linecap="round" stroke-linejoin="round" stroke-miterlimit="10" x1="9.1" y1="64.9" x2="9.1" y2="61.6"/>
			
				<circle id="Joint" fill="none" stroke="#77787A" stroke-width="0.75" stroke-linecap="round" stroke-linejoin="round" stroke-miterlimit="10" cx="13.6" cy="64.9" r="1.7"/>
		</g>
	</g>
	<g id="Absorber_4_">
		<linearGradient id="Absorber_Right_1_" gradientUnits="userSpaceOnUse" x1="284.4521" y1="56.7588" x2="289.8145" y2="56.7588">
			<stop  offset="0" style="stop-color:#575756"/>
			<stop  offset="1" style="stop-color:#424242"/>
		</linearGradient>
		
			<path id="Absorber_Right_4_" fill="url(#Absorber_Right_1_)" stroke="#424242" stroke-width="0.75" stroke-linecap="round" stroke-linejoin="round" stroke-miterlimit="10" d="
			M284.5,54.3c0,0,0.9,0.3,1.1,1.6h2.9v-1.8c0,0,1.4,0.8,1.4,2.7s-1.6,2.7-1.6,2.7v-1.6h-2.6l-1.2,0.7V54.3z"/>
		<linearGradient id="Absorber_Left_1_" gradientUnits="userSpaceOnUse" x1="12.7207" y1="56.8101" x2="12.7207" y2="57.6178">
			<stop  offset="0" style="stop-color:#575756"/>
			<stop  offset="1" style="stop-color:#424242"/>
		</linearGradient>
		
			<path id="Absorber_Left_4_" fill="url(#Absorber_Left_1_)" stroke="#424242" stroke-width="0.75" stroke-linecap="round" stroke-linejoin="round" stroke-miterlimit="10" d="
			M15.4,54.3c0,0-0.9,0.3-1.1,1.6h-2.9v-1.8c0,0-1.4,0.8-1.4,2.7s1.6,2.7,1.6,2.7v-1.6h2.6l1.2,0.7V54.3z"/>
	</g>
	
		<path id="Steps" fill="none" stroke="#575756" stroke-width="0.75" stroke-linecap="round" stroke-linejoin="round" stroke-miterlimit="10" d="
		M21.7,58.6v1l0,0c0,0.5-0.4,0.8-0.8,0.8h-3.1l0,0c-0.5,0-0.8-0.4-0.8-0.8v-1 M278.2,58.6v1c0,0.5,0.4,0.8,0.8,0.8l0,0h3.1
		c0.5,0,0.8-0.4,0.8-0.8l0,0v-1"/>
	<linearGradient id="Shape_Frame_1_" gradientUnits="userSpaceOnUse" x1="-492.3906" y1="16.7563" x2="365.6095" y2="70.7564">
		<stop  offset="0" style="stop-color:#FFFFFF"/>
		<stop  offset="1" style="stop-color:#7C7C7B"/>
	</linearGradient>
	
		<polygon id="Shape_Frame" fill="url(#Shape_Frame_1_)" stroke="#646567" stroke-width="0.75" stroke-linecap="round" stroke-linejoin="round" stroke-miterlimit="10" points="
		15.4,53.3 15.4,58.6 76,58.6 89.8,65.7 210.1,65.7 223.9,58.6 284.5,58.6 284.5,53.3 	"/>
	
		<line id="Reflection_Line" fill="none" stroke="#F4F4F4" stroke-width="0.75" stroke-linecap="round" stroke-linejoin="round" stroke-miterlimit="10" x1="79.2" y1="59.4" x2="220.6" y2="59.4"/>
	
		<line id="Devider_Line" fill="none" stroke="#646567" stroke-width="0.75" stroke-linecap="round" stroke-linejoin="round" stroke-miterlimit="10" x1="76" y1="58.6" x2="223.9" y2="58.6"/>
</g>
<line id="Rail_3_" fill="none" stroke="#424242" stroke-width="2" stroke-linecap="round" stroke-linejoin="round" stroke-miterlimit="10" x1="17.4" y1="76" x2="282.5" y2="76"/>
</svg>
