<?xml version="1.0" encoding="utf-8"?>

<!-- Copyright 2016 Siemens AG -->

<!-- Generator: Adobe Illustrator 16.0.4, SVG Export Plug-In . SVG Version: 6.00 Build 0)  -->
<!DOCTYPE svg PUBLIC "-//W3C//DTD SVG 1.1//EN" "http://www.w3.org/Graphics/SVG/1.1/DTD/svg11.dtd">
<svg version="1.1" id="Blue_Flame" xmlns="http://www.w3.org/2000/svg" xmlns:xlink="http://www.w3.org/1999/xlink" x="0px" y="0px"
	 width="131.5px" height="300px" viewBox="0 0 131.5 300" enable-background="new 0 0 131.5 300" xml:space="preserve">
<radialGradient id="Shape_Outside_1_" cx="73.4229" cy="254.2153" r="234.1928" gradientTransform="matrix(0.9958 0 0 1 0.2089 0)" gradientUnits="userSpaceOnUse">
	<stop  offset="0" style="stop-color:#23D9D3"/>
	<stop  offset="1" style="stop-color:#0024F7"/>
</radialGradient>
<path id="Shape_Outside" fill="url(#Shape_Outside_1_)" stroke="#0024F7" stroke-width="0.75" stroke-linecap="round" stroke-linejoin="round" stroke-miterlimit="10" d="
	M82.7,298H55.4c0,0-45.8-22.5-52-92.3c-4.3-47.9,3.1-76.5,34.1-113.4C62.8,62.1,77,2.1,77,2.1s-9.2,93.7,26.7,133.7
	c25.3,28.2,29,54.1,22.8,89.2C118.4,271.1,82.7,298,82.7,298z"/>
<linearGradient id="Shape_Middle_1_" gradientUnits="userSpaceOnUse" x1="65.9771" y1="-92.4009" x2="65.977" y2="218.1761">
	<stop  offset="0" style="stop-color:#0024F7"/>
	<stop  offset="1" style="stop-color:#23D9D3"/>
</linearGradient>
<path id="Shape_Middle" fill="url(#Shape_Middle_1_)" d="M78.4,297.5H58.7c0,0-32.9-16.2-37.4-66.4c-3.1-34.4-3.8-55,18.5-81.6
	C58,127.8,66.1,71.6,66.1,71.6s3.9,75.8,29.7,104.6c18.2,20.3,18.5,43.5,14,68.8C104,278.1,78.4,297.5,78.4,297.5z"/>
<linearGradient id="Shape_Inside_1_" gradientUnits="userSpaceOnUse" x1="67.5244" y1="265.5996" x2="67.5244" y2="108.0592">
	<stop  offset="0" style="stop-color:#FFFFFF"/>
	<stop  offset="1" style="stop-color:#57BEC3"/>
</linearGradient>
<path id="Shape_Inside" fill="url(#Shape_Inside_1_)" d="M73.4,297.5H64c0,0-15.8-11.4-18-46.6c-1.5-24.2,1.1-38.6,11.8-57.3
	c8.8-15.2,13.7-45.5,13.7-45.5s-3.2,47.3,9.2,67.5c8.8,14.3,10,27.3,7.9,45C85.7,283.9,73.4,297.5,73.4,297.5z"/>
</svg>
