<?xml version="1.0" encoding="utf-8"?>

<!-- Copyright 2016 Siemens AG -->

<!-- Generator: Adobe Illustrator 16.0.4, SVG Export Plug-In . SVG Version: 6.00 Build 0)  -->
<!DOCTYPE svg PUBLIC "-//W3C//DTD SVG 1.1//EN" "http://www.w3.org/Graphics/SVG/1.1/DTD/svg11.dtd">
<svg version="1.1" id="Flame" xmlns="http://www.w3.org/2000/svg" xmlns:xlink="http://www.w3.org/1999/xlink" x="0px" y="0px"
	 width="131.5px" height="300px" viewBox="0 0 131.5 300" enable-background="new 0 0 131.5 300" xml:space="preserve">
<radialGradient id="Shape_Outside_1_" cx="61.6162" cy="174.25" r="286.0853" gradientUnits="userSpaceOnUse">
	<stop  offset="0" style="stop-color:#FF0000"/>
	<stop  offset="0.4962" style="stop-color:#FF7D00"/>
	<stop  offset="0.8424" style="stop-color:#FFCD00"/>
	<stop  offset="1" style="stop-color:#FFED00"/>
</radialGradient>
<path id="Shape_Outside_2_" fill="url(#Shape_Outside_1_)" d="M82.7,298H55.2c0,0-45.9-22.5-52.2-92.3
	c-4.3-47.9,3.1-76.5,34.2-113.4C62.7,62.1,77,2.1,77,2.1s-9.2,93.7,26.8,133.7c25.4,28.2,29.1,54.1,22.9,89.2
	C118.5,271.1,82.7,298,82.7,298z"/>
<linearGradient id="Shape_Middle_1_" gradientUnits="userSpaceOnUse" x1="65.9038" y1="360.25" x2="65.9038" y2="-172.1652">
	<stop  offset="0" style="stop-color:#FFED00"/>
	<stop  offset="1" style="stop-color:#FF0000"/>
</linearGradient>
<path id="Shape_Middle_2_" fill="url(#Shape_Middle_1_)" d="M78.3,298H58.6c0,0-33.1-16.2-37.6-66.4c-3.1-34.4-3.8-55,18.6-81.6
	C57.9,128.3,66,72.1,66,72.1s3.9,75.8,29.9,104.6c18.3,20.3,18.5,43.5,14.1,68.8C104.1,278.7,78.3,298,78.3,298z"/>
<linearGradient id="Shape_Inside_1_" gradientUnits="userSpaceOnUse" x1="67.4585" y1="-101.7495" x2="67.4585" y2="264.7965">
	<stop  offset="0" style="stop-color:#FF0000"/>
	<stop  offset="0.4962" style="stop-color:#FF7D00"/>
	<stop  offset="0.8424" style="stop-color:#FFCD00"/>
	<stop  offset="1" style="stop-color:#FFED00"/>
</linearGradient>
<path id="Shape_Inside_2_" fill="url(#Shape_Inside_1_)" d="M73.4,298h-9.5c0,0-15.9-11.4-18.1-46.6c-1.5-24.2,1.1-38.6,11.8-57.3
	c8.8-15.2,13.7-45.5,13.7-45.5s-3.2,47.3,9.3,67.5c8.8,14.3,10.1,27.3,7.9,45C85.8,284.4,73.4,298,73.4,298z"/>
<path id="Outline" fill="none" stroke="#E52420" stroke-width="0.75" stroke-linecap="round" stroke-linejoin="round" stroke-miterlimit="10" d="
	M82.7,298H55.2c0,0-45.9-22.5-52.2-92.3c-4.3-47.9,3.1-76.5,34.2-113.4C62.7,62.1,77,2.1,77,2.1s-9.2,93.7,26.8,133.7
	c25.4,28.2,29.1,54.1,22.9,89.2C118.5,271.1,82.7,298,82.7,298z"/>
</svg>
