<?xml version="1.0" encoding="utf-8"?>

<!-- Copyright 2016 Siemens AG -->

<!-- Generator: Adobe Illustrator 16.0.4, SVG Export Plug-In . SVG Version: 6.00 Build 0)  -->
<!DOCTYPE svg PUBLIC "-//W3C//DTD SVG 1.1//EN" "http://www.w3.org/Graphics/SVG/1.1/DTD/svg11.dtd">
<svg version="1.1" id="Mobile_Devices_Tablet" xmlns="http://www.w3.org/2000/svg" xmlns:xlink="http://www.w3.org/1999/xlink"
	 x="0px" y="0px" width="224px" height="300px" viewBox="0 0 224 300" enable-background="new 0 0 224 300" xml:space="preserve">
<linearGradient id="Frame_1_" gradientUnits="userSpaceOnUse" x1="84.1514" y1="127.7998" x2="214.8126" y2="232.2278">
	<stop  offset="0" style="stop-color:#FFFFFF"/>
	<stop  offset="1" style="stop-color:#7C7C7B"/>
</linearGradient>
<path id="Frame_19_" fill="url(#Frame_1_)" stroke="#8C8C91" stroke-width="0.75" stroke-miterlimit="10" d="M214.5,2.3H9.3
	c-3.7,0-6.6,3-6.6,6.6v282c0,3.7,3,6.6,6.6,6.6h205.2c3.7,0,6.6-3,6.6-6.6V9C221.1,5.3,218.2,2.3,214.5,2.3z M219.8,291
	c0,3-2.4,5.4-5.4,5.4H9.3c-3,0-5.4-2.4-5.4-5.4V9c0-3,2.4-5.4,5.4-5.4h205.1c3,0,5.4,2.4,5.4,5.4V291z"/>
<linearGradient id="Shape_1_" gradientUnits="userSpaceOnUse" x1="8.751" y1="71.1382" x2="356.7716" y2="337.3596">
	<stop  offset="0" style="stop-color:#FFFFFF"/>
	<stop  offset="1" style="stop-color:#7C7C7B"/>
</linearGradient>
<path id="Shape_139_" fill="url(#Shape_1_)" stroke="#8C8C91" stroke-width="0.75" stroke-miterlimit="10" d="M9.3,296.4
	c-3,0-5.4-2.4-5.4-5.4V9c0-3,2.4-5.4,5.4-5.4h205.1c3,0,5.4,2.4,5.4,5.4V291c0,3-2.4,5.4-5.4,5.4H9.3z"/>
<linearGradient id="Touchscreen_1_" gradientUnits="userSpaceOnUse" x1="-72.4219" y1="57.0615" x2="120.5781" y2="145.0615">
	<stop  offset="0" style="stop-color:#FFFFFF"/>
	<stop  offset="1" style="stop-color:#424242"/>
</linearGradient>
<rect id="Touchscreen_10_" x="19.4" y="20" fill="url(#Touchscreen_1_)" stroke="#8C8C91" stroke-width="0.75" stroke-linecap="round" stroke-linejoin="round" stroke-miterlimit="10" width="184.9" height="242.1"/>
<linearGradient id="Home_Button_1_" gradientUnits="userSpaceOnUse" x1="122.2891" y1="290.1445" x2="96.3153" y2="264.1707">
	<stop  offset="0" style="stop-color:#FFFFFF"/>
	<stop  offset="1" style="stop-color:#424242"/>
</linearGradient>
<circle id="Home_Button_10_" fill="url(#Home_Button_1_)" stroke="#8C8C91" stroke-width="0.75" stroke-linecap="round" stroke-linejoin="round" stroke-miterlimit="10" cx="111.9" cy="279.7" r="7.3"/>
<linearGradient id="Camera_1_" gradientUnits="userSpaceOnUse" x1="119.998" y1="20.1177" x2="99.7225" y2="-0.1579">
	<stop  offset="0" style="stop-color:#FFFFFF"/>
	<stop  offset="1" style="stop-color:#424242"/>
</linearGradient>
<rect id="Camera_5_" x="105.3" y="10.5" fill="url(#Camera_1_)" stroke="#8C8C91" stroke-width="0.75" stroke-linecap="round" stroke-linejoin="round" stroke-miterlimit="10" width="13.2" height="3"/>
<polygon id="Reflection_Touchscreen_10_" fill="#9A9A99" points="19.4,20 19.4,204.8 147,20 "/>
<polyline id="Reflection_Line_16_" fill="none" stroke="#FFFFFF" stroke-width="0.75" stroke-linecap="round" stroke-linejoin="round" stroke-miterlimit="10" points="
	204.3,20 204.3,262.1 19.4,262.1 "/>
<polyline id="Shadow_Line_Touchscreen_5_" fill="none" stroke="#424242" stroke-width="0.75" stroke-linecap="round" stroke-linejoin="round" stroke-miterlimit="10" points="
	19.4,262.1 19.4,20 204.3,20 "/>
</svg>
