<?xml version="1.0" encoding="utf-8"?>

<!-- Copyright 2016 Siemens AG -->

<!-- Generator: Adobe Illustrator 16.0.4, SVG Export Plug-In . SVG Version: 6.00 Build 0)  -->
<!DOCTYPE svg PUBLIC "-//W3C//DTD SVG 1.1//EN" "http://www.w3.org/Graphics/SVG/1.1/DTD/svg11.dtd">
<svg version="1.1" id="_x39_0_Degree_Bend_2" xmlns="http://www.w3.org/2000/svg" xmlns:xlink="http://www.w3.org/1999/xlink"
	 x="0px" y="0px" width="300px" height="300px" viewBox="0 0 300 300" enable-background="new 0 0 300 300" xml:space="preserve">
<radialGradient id="Shape_1_" cx="344.6514" cy="-125.8701" r="332.8716" gradientTransform="matrix(1 0 0 1.2218 -373.5859 478.5327)" gradientUnits="userSpaceOnUse">
	<stop  offset="0.4448" style="stop-color:#404040"/>
	<stop  offset="0.4562" style="stop-color:#4E4E4E"/>
	<stop  offset="0.5066" style="stop-color:#868686"/>
	<stop  offset="0.5534" style="stop-color:#B2B2B2"/>
	<stop  offset="0.5951" style="stop-color:#D2D2D2"/>
	<stop  offset="0.6301" style="stop-color:#E5E5E5"/>
	<stop  offset="0.6541" style="stop-color:#ECECEC"/>
	<stop  offset="0.704" style="stop-color:#E8E8E8"/>
	<stop  offset="0.7549" style="stop-color:#DCDCDC"/>
	<stop  offset="0.8062" style="stop-color:#C7C7C7"/>
	<stop  offset="0.8578" style="stop-color:#ABABAB"/>
	<stop  offset="0.9096" style="stop-color:#868686"/>
	<stop  offset="0.961" style="stop-color:#595959"/>
	<stop  offset="0.9819" style="stop-color:#454545"/>
</radialGradient>
<path id="Shape_14_" fill="url(#Shape_1_)" d="M2.7,2C166,2,298.4,134.4,298.4,297.7H149c0-80.8-65.5-146.2-146.2-146.2V2z"/>
<g id="Refection">
	<linearGradient id="Below_1_" gradientUnits="userSpaceOnUse" x1="168.3979" y1="264.5674" x2="185.7074" y2="263.9018">
		<stop  offset="0" style="stop-color:#F2F2F2;stop-opacity:0.4"/>
		<stop  offset="1" style="stop-color:#F7F7F7;stop-opacity:0.7"/>
	</linearGradient>
	<path id="Below" fill="url(#Below_1_)" d="M150.1,231.3c8.2,18.2,13.2,38.2,14.1,59.3c0.2,4.3,0.2,6.8,0.2,7c0,0,0,0,0,0
		c0,0,18.7,0,25.5,0C189.8,293.4,186.1,256.1,150.1,231.3z"/>
	<linearGradient id="Top_1_" gradientUnits="userSpaceOnUse" x1="74.8652" y1="32.7344" x2="58.7114" y2="77.406">
		<stop  offset="0" style="stop-color:#CFCFCE"/>
		<stop  offset="3.795755e-02" style="stop-color:#D2D2D1"/>
		<stop  offset="0.4028" style="stop-color:#EBEBEA"/>
		<stop  offset="0.7341" style="stop-color:#FAFAFA"/>
		<stop  offset="1" style="stop-color:#FFFFFF"/>
	</linearGradient>
	<path id="Top" fill="url(#Top_1_)" d="M143.9,56.6C102.6,32,54.3,17.7,2.7,17.3v25.5C12.7,42.8,91.7,42.8,143.9,56.6z"/>
</g>
<linearGradient id="Gradation_Top_1_" gradientUnits="userSpaceOnUse" x1="67.6113" y1="78.6309" x2="97.2628" y2="-1.5229">
	<stop  offset="0" style="stop-color:#FFFFFF"/>
	<stop  offset="0.3096" style="stop-color:#D3D3D2"/>
	<stop  offset="0.7778" style="stop-color:#949494"/>
	<stop  offset="1" style="stop-color:#7C7C7B"/>
</linearGradient>
<path id="Gradation_Top" fill="url(#Gradation_Top_1_)" d="M2.7,2v15.3c51.5,0.4,99.7,14.6,141.1,39.2c9,0.7,18,0.4,25.8-1.8
	C122.3,21.8,64.8,2.3,2.7,2z"/>
<path id="Outline" fill="none" stroke="#8C8C91" stroke-width="0.75" stroke-miterlimit="10" d="M2.7,151.4
	c80.8,0,146.2,65.5,146.2,146.2 M298.4,297.7C298.4,134.4,166,2,2.7,2"/>
</svg>
