<?xml version="1.0" encoding="utf-8"?>

<!-- Copyright 2016 Siemens AG -->

<!-- Generator: Adobe Illustrator 16.0.4, SVG Export Plug-In . SVG Version: 6.00 Build 0)  -->
<!DOCTYPE svg PUBLIC "-//W3C//DTD SVG 1.1//EN" "http://www.w3.org/Graphics/SVG/1.1/DTD/svg11.dtd">
<svg version="1.1" id="Flange_With_Bolts_Left" xmlns="http://www.w3.org/2000/svg" xmlns:xlink="http://www.w3.org/1999/xlink"
	 x="0px" y="0px" width="42px" height="300px" viewBox="0 0 42 300" enable-background="new 0 0 42 300" xml:space="preserve">
<g id="Flange">
	<linearGradient id="Shape_1_" gradientUnits="userSpaceOnUse" x1="25.9673" y1="2.4019" x2="25.9673" y2="297.624">
		<stop  offset="0" style="stop-color:#A5A5A5"/>
		<stop  offset="4.758149e-02" style="stop-color:#B5B5B5"/>
		<stop  offset="0.1509" style="stop-color:#D3D3D3"/>
		<stop  offset="0.2395" style="stop-color:#E5E5E5"/>
		<stop  offset="0.3025" style="stop-color:#ECECEC"/>
		<stop  offset="0.4074" style="stop-color:#E8E8E8"/>
		<stop  offset="0.514" style="stop-color:#DCDCDC"/>
		<stop  offset="0.6214" style="stop-color:#C7C7C7"/>
		<stop  offset="0.7294" style="stop-color:#ABABAB"/>
		<stop  offset="0.8378" style="stop-color:#868686"/>
		<stop  offset="0.9452" style="stop-color:#5A5A5A"/>
		<stop  offset="1" style="stop-color:#404040"/>
	</linearGradient>
	
		<polygon id="Shape_55_" fill="url(#Shape_1_)" stroke="#8C8C91" stroke-width="0.75" stroke-linejoin="round" stroke-miterlimit="10" points="
		12.2,295.8 15.6,297.6 36.3,297.6 39.8,295.8 39.8,4.2 36.3,2.4 15.6,2.4 12.2,4.2 	"/>
	<linearGradient id="Reflection_1_" gradientUnits="userSpaceOnUse" x1="15.5864" y1="57.8164" x2="36.3442" y2="57.8164">
		<stop  offset="0" style="stop-color:#F2F2F2;stop-opacity:0.4"/>
		<stop  offset="1" style="stop-color:#F7F7F7;stop-opacity:0.7"/>
	</linearGradient>
	<rect id="Reflection_12_" x="15.6" y="32.7" fill="url(#Reflection_1_)" width="20.8" height="50.3"/>
	<linearGradient id="Edge_Right_1_" gradientUnits="userSpaceOnUse" x1="38.0547" y1="2.75" x2="38.0547" y2="301.9724">
		<stop  offset="0" style="stop-color:#AFAFAE"/>
		<stop  offset="1" style="stop-color:#424242"/>
	</linearGradient>
	
		<polyline id="Edge_Right" fill="url(#Edge_Right_1_)" stroke="#8C8C91" stroke-width="0.75" stroke-linejoin="round" stroke-miterlimit="10" points="
		36.3,297.6 39.8,295.8 39.8,4.2 36.3,2.4 	"/>
	<linearGradient id="Edge_Left_1_" gradientUnits="userSpaceOnUse" x1="13.8779" y1="2.917" x2="13.8779" y2="371.9299">
		<stop  offset="0" style="stop-color:#CFCFCE"/>
		<stop  offset="4.006578e-02" style="stop-color:#E4E4E3"/>
		<stop  offset="8.471731e-02" style="stop-color:#F3F3F3"/>
		<stop  offset="0.136" style="stop-color:#FCFCFC"/>
		<stop  offset="0.2084" style="stop-color:#FFFFFF"/>
		<stop  offset="0.3126" style="stop-color:#FCFCFB"/>
		<stop  offset="0.405" style="stop-color:#F1F1F1"/>
		<stop  offset="0.4929" style="stop-color:#DFDFDF"/>
		<stop  offset="0.578" style="stop-color:#C5C5C5"/>
		<stop  offset="0.6612" style="stop-color:#A5A4A4"/>
		<stop  offset="0.7417" style="stop-color:#7D7D7C"/>
		<stop  offset="0.8069" style="stop-color:#575756"/>
	</linearGradient>
	
		<polyline id="Edge_Left_2_" fill="url(#Edge_Left_1_)" stroke="#8C8C91" stroke-width="0.75" stroke-linejoin="round" stroke-miterlimit="10" points="
		15.6,2.4 12.2,4.2 12.2,295.8 15.6,297.6 	"/>
</g>
<g id="Nuts">
	<g id="Nut_Below">
		<linearGradient id="Shape_2_" gradientUnits="userSpaceOnUse" x1="2.2344" y1="272.4541" x2="12.1689" y2="272.4541">
			<stop  offset="0" style="stop-color:#FFFFFF"/>
			<stop  offset="1" style="stop-color:#7C7C7B"/>
		</linearGradient>
		
			<rect id="Shape_23_" x="2.2" y="262.5" fill="url(#Shape_2_)" stroke="#8C8C91" stroke-width="0.75" stroke-linecap="round" stroke-linejoin="round" stroke-miterlimit="10" width="9.9" height="20"/>
		<linearGradient id="Shape_Underneath_5_" gradientUnits="userSpaceOnUse" x1="-19.7422" y1="265.3901" x2="3.9699" y2="279.9408">
			<stop  offset="0" style="stop-color:#FFFFFF"/>
			<stop  offset="1" style="stop-color:#7C7C7B"/>
		</linearGradient>
		
			<path id="Shape_Underneath_4_" fill="url(#Shape_Underneath_5_)" stroke="#8C8C91" stroke-width="0.75" stroke-linecap="round" stroke-linejoin="round" stroke-miterlimit="10" d="
			M4.3,285.6c-1.1,0-2.1-1.4-2.1-3.2c0-1.8,0.9-3.2,2.1-3.2h7.9c0,1.4,0,5.5,0,6.4H4.3z"/>
		<linearGradient id="Shape_Middle_5_" gradientUnits="userSpaceOnUse" x1="-14.1289" y1="262.0669" x2="28.0815" y2="281.7353">
			<stop  offset="0" style="stop-color:#FFFFFF"/>
			<stop  offset="1" style="stop-color:#7C7C7B"/>
		</linearGradient>
		
			<path id="Shape_Middle_4_" fill="url(#Shape_Middle_5_)" stroke="#8C8C91" stroke-width="0.75" stroke-linecap="round" stroke-linejoin="round" stroke-miterlimit="10" d="
			M4.3,279.3c-1.1,0-2.1-3-2.1-6.8c0-3.7,0.9-6.8,2.1-6.8h7.9c0,2.6,0,12.1,0,13.6H4.3z"/>
		<linearGradient id="Shape_Top_5_" gradientUnits="userSpaceOnUse" x1="-3.2051" y1="256.1689" x2="42.3022" y2="281.6382">
			<stop  offset="0" style="stop-color:#FFFFFF"/>
			<stop  offset="1" style="stop-color:#7C7C7B"/>
		</linearGradient>
		
			<path id="Shape_Top_4_" fill="url(#Shape_Top_5_)" stroke="#8C8C91" stroke-width="0.75" stroke-linecap="round" stroke-linejoin="round" stroke-miterlimit="10" d="
			M4.3,265.7c-1.1,0-2.1-1.4-2.1-3.2c0-1.8,0.9-3.2,2.1-3.2h7.9c0,1.4,0,5.2,0,6.4H4.3z"/>
	</g>
	<g id="Nut_4">
		<linearGradient id="Shape_3_" gradientUnits="userSpaceOnUse" x1="2.2344" y1="227.0205" x2="12.1689" y2="227.0205">
			<stop  offset="0" style="stop-color:#FFFFFF"/>
			<stop  offset="1" style="stop-color:#7C7C7B"/>
		</linearGradient>
		
			<rect id="Shape_18_" x="2.2" y="217" fill="url(#Shape_3_)" stroke="#8C8C91" stroke-width="0.75" stroke-linecap="round" stroke-linejoin="round" stroke-miterlimit="10" width="9.9" height="20"/>
		<linearGradient id="Shape_Underneath_6_" gradientUnits="userSpaceOnUse" x1="-19.7432" y1="219.957" x2="3.969" y2="234.5077">
			<stop  offset="0" style="stop-color:#FFFFFF"/>
			<stop  offset="1" style="stop-color:#7C7C7B"/>
		</linearGradient>
		
			<path id="Shape_Underneath_3_" fill="url(#Shape_Underneath_6_)" stroke="#8C8C91" stroke-width="0.75" stroke-linecap="round" stroke-linejoin="round" stroke-miterlimit="10" d="
			M4.3,240.2c-1.1,0-2.1-1.4-2.1-3.2c0-1.8,0.9-3.2,2.1-3.2h7.9c0,1.4,0,5.5,0,6.4H4.3z"/>
		<linearGradient id="Shape_Middle_6_" gradientUnits="userSpaceOnUse" x1="-14.1284" y1="216.6333" x2="28.082" y2="236.3017">
			<stop  offset="0" style="stop-color:#FFFFFF"/>
			<stop  offset="1" style="stop-color:#7C7C7B"/>
		</linearGradient>
		
			<path id="Shape_Middle_3_" fill="url(#Shape_Middle_6_)" stroke="#8C8C91" stroke-width="0.75" stroke-linecap="round" stroke-linejoin="round" stroke-miterlimit="10" d="
			M4.3,233.8c-1.1,0-2.1-3-2.1-6.8c0-3.7,0.9-6.8,2.1-6.8h7.9c0,2.6,0,12.1,0,13.6H4.3z"/>
		<linearGradient id="Shape_Top_6_" gradientUnits="userSpaceOnUse" x1="-3.2046" y1="210.7354" x2="42.3027" y2="236.2046">
			<stop  offset="0" style="stop-color:#FFFFFF"/>
			<stop  offset="1" style="stop-color:#7C7C7B"/>
		</linearGradient>
		
			<path id="Shape_Top_3_" fill="url(#Shape_Top_6_)" stroke="#8C8C91" stroke-width="0.75" stroke-linecap="round" stroke-linejoin="round" stroke-miterlimit="10" d="
			M4.3,220.2c-1.1,0-2.1-1.4-2.1-3.2c0-1.8,0.9-3.2,2.1-3.2h7.9c0,1.4,0,5.2,0,6.4H4.3z"/>
	</g>
	<g id="Nut_Middle">
		<linearGradient id="Shape_4_" gradientUnits="userSpaceOnUse" x1="2.2344" y1="150.0127" x2="12.1689" y2="150.0127">
			<stop  offset="0" style="stop-color:#FFFFFF"/>
			<stop  offset="1" style="stop-color:#7C7C7B"/>
		</linearGradient>
		
			<rect id="Shape_19_" x="2.2" y="140" fill="url(#Shape_4_)" stroke="#8C8C91" stroke-width="0.75" stroke-linecap="round" stroke-linejoin="round" stroke-miterlimit="10" width="9.9" height="20"/>
		<linearGradient id="Shape_Underneath_7_" gradientUnits="userSpaceOnUse" x1="-19.7427" y1="142.9492" x2="3.9695" y2="157.4998">
			<stop  offset="0" style="stop-color:#FFFFFF"/>
			<stop  offset="1" style="stop-color:#7C7C7B"/>
		</linearGradient>
		
			<path id="Shape_Underneath_2_" fill="url(#Shape_Underneath_7_)" stroke="#8C8C91" stroke-width="0.75" stroke-linecap="round" stroke-linejoin="round" stroke-miterlimit="10" d="
			M4.3,163.2c-1.1,0-2.1-1.4-2.1-3.2c0-1.8,0.9-3.2,2.1-3.2h7.9c0,1.4,0,5.5,0,6.4H4.3z"/>
		<linearGradient id="Shape_Middle_7_" gradientUnits="userSpaceOnUse" x1="-14.1284" y1="139.625" x2="28.082" y2="159.2934">
			<stop  offset="0" style="stop-color:#FFFFFF"/>
			<stop  offset="1" style="stop-color:#7C7C7B"/>
		</linearGradient>
		
			<path id="Shape_Middle_2_" fill="url(#Shape_Middle_7_)" stroke="#8C8C91" stroke-width="0.75" stroke-linecap="round" stroke-linejoin="round" stroke-miterlimit="10" d="
			M4.3,156.8c-1.1,0-2.1-3-2.1-6.8c0-3.7,0.9-6.8,2.1-6.8h7.9c0,2.6,0,12.1,0,13.6H4.3z"/>
		<linearGradient id="Shape_Top_7_" gradientUnits="userSpaceOnUse" x1="-3.2046" y1="133.728" x2="42.3027" y2="159.1973">
			<stop  offset="0" style="stop-color:#FFFFFF"/>
			<stop  offset="1" style="stop-color:#7C7C7B"/>
		</linearGradient>
		
			<path id="Shape_Top_2_" fill="url(#Shape_Top_7_)" stroke="#8C8C91" stroke-width="0.75" stroke-linecap="round" stroke-linejoin="round" stroke-miterlimit="10" d="
			M4.3,143.2c-1.1,0-2.1-1.4-2.1-3.2c0-1.8,0.9-3.2,2.1-3.2h7.9c0,1.4,0,5.2,0,6.4H4.3z"/>
	</g>
	<g id="Nut_2">
		<linearGradient id="Shape_5_" gradientUnits="userSpaceOnUse" x1="2.2344" y1="73.0059" x2="12.1689" y2="73.0059">
			<stop  offset="0" style="stop-color:#FFFFFF"/>
			<stop  offset="1" style="stop-color:#7C7C7B"/>
		</linearGradient>
		
			<rect id="Shape_20_" x="2.2" y="63" fill="url(#Shape_5_)" stroke="#8C8C91" stroke-width="0.75" stroke-linecap="round" stroke-linejoin="round" stroke-miterlimit="10" width="9.9" height="20"/>
		<linearGradient id="Shape_Underneath_8_" gradientUnits="userSpaceOnUse" x1="-19.7397" y1="65.9434" x2="3.9702" y2="80.4927">
			<stop  offset="0" style="stop-color:#FFFFFF"/>
			<stop  offset="1" style="stop-color:#7C7C7B"/>
		</linearGradient>
		
			<path id="Shape_Underneath_1_" fill="url(#Shape_Underneath_8_)" stroke="#8C8C91" stroke-width="0.75" stroke-linecap="round" stroke-linejoin="round" stroke-miterlimit="10" d="
			M4.3,86.2c-1.1,0-2.1-1.4-2.1-3.2c0-1.8,0.9-3.2,2.1-3.2h7.9c0,1.4,0,5.5,0,6.4H4.3z"/>
		<linearGradient id="Shape_Middle_8_" gradientUnits="userSpaceOnUse" x1="-14.1284" y1="62.6187" x2="28.082" y2="82.2871">
			<stop  offset="0" style="stop-color:#FFFFFF"/>
			<stop  offset="1" style="stop-color:#7C7C7B"/>
		</linearGradient>
		
			<path id="Shape_Middle_1_" fill="url(#Shape_Middle_8_)" stroke="#8C8C91" stroke-width="0.75" stroke-linecap="round" stroke-linejoin="round" stroke-miterlimit="10" d="
			M4.3,79.8c-1.1,0-2.1-3-2.1-6.8c0-3.7,0.9-6.8,2.1-6.8h7.9c0,2.6,0,12.1,0,13.6H4.3z"/>
		<linearGradient id="Shape_Top_8_" gradientUnits="userSpaceOnUse" x1="-3.2051" y1="56.7207" x2="42.3022" y2="82.19">
			<stop  offset="0" style="stop-color:#FFFFFF"/>
			<stop  offset="1" style="stop-color:#7C7C7B"/>
		</linearGradient>
		
			<path id="Shape_Top_1_" fill="url(#Shape_Top_8_)" stroke="#8C8C91" stroke-width="0.75" stroke-linecap="round" stroke-linejoin="round" stroke-miterlimit="10" d="
			M4.3,66.2c-1.1,0-2.1-1.4-2.1-3.2c0-1.8,0.9-3.2,2.1-3.2h7.9c0,1.4,0,5.2,0,6.4H4.3z"/>
	</g>
	<g id="Nut_Top">
		<linearGradient id="Shape_6_" gradientUnits="userSpaceOnUse" x1="2.2344" y1="27.5723" x2="12.1689" y2="27.5723">
			<stop  offset="0" style="stop-color:#FFFFFF"/>
			<stop  offset="1" style="stop-color:#7C7C7B"/>
		</linearGradient>
		
			<rect id="Shape_21_" x="2.2" y="17.6" fill="url(#Shape_6_)" stroke="#8C8C91" stroke-width="0.75" stroke-linecap="round" stroke-linejoin="round" stroke-miterlimit="10" width="9.9" height="20"/>
		<linearGradient id="Shape_Underneath_9_" gradientUnits="userSpaceOnUse" x1="-19.7451" y1="20.5068" x2="3.9692" y2="35.0588">
			<stop  offset="0" style="stop-color:#FFFFFF"/>
			<stop  offset="1" style="stop-color:#7C7C7B"/>
		</linearGradient>
		
			<path id="Shape_Underneath" fill="url(#Shape_Underneath_9_)" stroke="#8C8C91" stroke-width="0.75" stroke-linecap="round" stroke-linejoin="round" stroke-miterlimit="10" d="
			M4.3,40.7c-1.1,0-2.1-1.4-2.1-3.2c0-1.8,0.9-3.2,2.1-3.2h7.9c0,1.4,0,5.5,0,6.4H4.3z"/>
		<linearGradient id="Shape_Middle_9_" gradientUnits="userSpaceOnUse" x1="-14.1274" y1="17.186" x2="28.0799" y2="36.853">
			<stop  offset="0" style="stop-color:#FFFFFF"/>
			<stop  offset="1" style="stop-color:#7C7C7B"/>
		</linearGradient>
		
			<path id="Shape_Middle" fill="url(#Shape_Middle_9_)" stroke="#8C8C91" stroke-width="0.75" stroke-linecap="round" stroke-linejoin="round" stroke-miterlimit="10" d="
			M4.3,34.4c-1.1,0-2.1-3-2.1-6.8c0-3.7,0.9-6.8,2.1-6.8h7.9c0,2.6,0,12.1,0,13.6H4.3z"/>
		<linearGradient id="Shape_Top_9_" gradientUnits="userSpaceOnUse" x1="-3.2056" y1="11.2871" x2="42.3017" y2="36.7564">
			<stop  offset="0" style="stop-color:#FFFFFF"/>
			<stop  offset="1" style="stop-color:#7C7C7B"/>
		</linearGradient>
		
			<path id="Shape_Top" fill="url(#Shape_Top_9_)" stroke="#8C8C91" stroke-width="0.75" stroke-linecap="round" stroke-linejoin="round" stroke-miterlimit="10" d="
			M4.3,20.8c-1.1,0-2.1-1.4-2.1-3.2c0-1.8,0.9-3.2,2.1-3.2h7.9c0,1.4,0,5.2,0,6.4H4.3z"/>
	</g>
</g>
</svg>
