<?xml version="1.0" encoding="utf-8"?>

<!-- Copyright 2016 Siemens AG -->

<!-- Generator: Adobe Illustrator 16.0.4, SVG Export Plug-In . SVG Version: 6.00 Build 0)  -->
<!DOCTYPE svg PUBLIC "-//W3C//DTD SVG 1.1//EN" "http://www.w3.org/Graphics/SVG/1.1/DTD/svg11.dtd">
<svg version="1.1" id="Flameless_Thermal_Oxidizer_Standard"
	 xmlns="http://www.w3.org/2000/svg" xmlns:xlink="http://www.w3.org/1999/xlink" x="0px" y="0px" width="202px" height="300px"
	 viewBox="0 0 202 300" enable-background="new 0 0 202 300" xml:space="preserve">
<g id="Vessel_10_">
	<g id="Vessel_11_">
		<linearGradient id="Shape_1_" gradientUnits="userSpaceOnUse" x1="30.5957" y1="149.9307" x2="171.334" y2="149.9307">
			<stop  offset="0" style="stop-color:#A5A5A5"/>
			<stop  offset="4.758149e-02" style="stop-color:#B5B5B5"/>
			<stop  offset="0.1509" style="stop-color:#D3D3D3"/>
			<stop  offset="0.2395" style="stop-color:#E5E5E5"/>
			<stop  offset="0.3025" style="stop-color:#ECECEC"/>
			<stop  offset="0.4074" style="stop-color:#E8E8E8"/>
			<stop  offset="0.514" style="stop-color:#DCDCDC"/>
			<stop  offset="0.6214" style="stop-color:#C7C7C7"/>
			<stop  offset="0.7294" style="stop-color:#ABABAB"/>
			<stop  offset="0.8378" style="stop-color:#868686"/>
			<stop  offset="0.9452" style="stop-color:#5A5A5A"/>
			<stop  offset="1" style="stop-color:#404040"/>
		</linearGradient>
		
			<path id="Shape_29_" fill="url(#Shape_1_)" stroke="#8C8C91" stroke-width="0.75" stroke-linecap="round" stroke-linejoin="round" stroke-miterlimit="10" d="
			M171.3,26.3c0-6.2-0.8-24-69.6-24c-0.3,0-0.5,0-0.8,0c-0.3,0-0.5,0-0.8,0c-68.8,0-69.6,17.8-69.6,24l0,0v271.4h140.7L171.3,26.3
			L171.3,26.3z"/>
		<linearGradient id="Reflection_1_" gradientUnits="userSpaceOnUse" x1="44.811" y1="150.5356" x2="55.994" y2="150.5356">
			<stop  offset="0" style="stop-color:#F2F2F2;stop-opacity:0.4"/>
			<stop  offset="1" style="stop-color:#F7F7F7;stop-opacity:0.7"/>
		</linearGradient>
		<path id="Reflection_29_" fill="url(#Reflection_1_)" d="M45.1,26.5L45.1,26.5c0,17.7,0,261.2,0,270.8h24c0-9.1,0-241.9,0-270.4h0
			c0-16.2,16.2-23.1,16.2-23.1S45.6,5.8,45.1,26.5z"/>
	</g>
	
		<line id="Reflection_Line_5_" fill="none" stroke="#FFFFFF" stroke-width="0.75" stroke-linecap="round" stroke-linejoin="round" stroke-miterlimit="10" x1="30.6" y1="37.1" x2="171.3" y2="37.1"/>
	
		<line id="Devider_Line_5_" fill="none" stroke="#646567" stroke-width="0.75" stroke-linecap="round" stroke-linejoin="round" stroke-miterlimit="10" x1="30.6" y1="36.3" x2="171.3" y2="36.3"/>
</g>
<g id="Outlet_5_">
	<g id="Flange_12_">
		<linearGradient id="Shape_2_" gradientUnits="userSpaceOnUse" x1="198.0439" y1="191.418" x2="198.0439" y2="235.1221">
			<stop  offset="0" style="stop-color:#8C8C91"/>
			<stop  offset="3.767256e-02" style="stop-color:#98989C"/>
			<stop  offset="0.145" style="stop-color:#B6B6B7"/>
			<stop  offset="0.237" style="stop-color:#C8C8C8"/>
			<stop  offset="0.3025" style="stop-color:#CFCFCE"/>
			<stop  offset="0.4177" style="stop-color:#CBCBCA"/>
			<stop  offset="0.5347" style="stop-color:#BFBFBE"/>
			<stop  offset="0.6526" style="stop-color:#AAAAAA"/>
			<stop  offset="0.7711" style="stop-color:#8E8E8D"/>
			<stop  offset="0.8889" style="stop-color:#696969"/>
			<stop  offset="1" style="stop-color:#404040"/>
		</linearGradient>
		
			<polygon id="Shape_28_" fill="url(#Shape_2_)" stroke="#8C8C91" stroke-width="0.75" stroke-linejoin="round" stroke-miterlimit="10" points="
			196.3,234.9 196.7,235.1 199.4,235.1 199.8,234.9 199.8,191.6 199.4,191.4 196.7,191.4 196.3,191.6 		"/>
		<linearGradient id="Reflection_2_" gradientUnits="userSpaceOnUse" x1="196.7188" y1="198.4961" x2="199.3691" y2="198.4961">
			<stop  offset="0" style="stop-color:#F2F2F2;stop-opacity:0.4"/>
			<stop  offset="1" style="stop-color:#F7F7F7;stop-opacity:0.7"/>
		</linearGradient>
		<rect id="Reflection_28_" x="196.7" y="195.3" fill="url(#Reflection_2_)" width="2.7" height="6.4"/>
		<linearGradient id="Edge_Right_1_" gradientUnits="userSpaceOnUse" x1="199.5879" y1="191.4697" x2="199.5879" y2="235.766">
			<stop  offset="0" style="stop-color:#AFAFAE"/>
			<stop  offset="1" style="stop-color:#424242"/>
		</linearGradient>
		
			<polyline id="Edge_Right_12_" fill="url(#Edge_Right_1_)" stroke="#8C8C91" stroke-width="0.75" stroke-linejoin="round" stroke-miterlimit="10" points="
			199.4,235.1 199.8,234.9 199.8,191.6 199.4,191.4 		"/>
		<linearGradient id="Edge_Left_1_" gradientUnits="userSpaceOnUse" x1="196.5" y1="191.4941" x2="196.5" y2="246.1221">
			<stop  offset="0" style="stop-color:#CFCFCE"/>
			<stop  offset="4.006578e-02" style="stop-color:#E4E4E3"/>
			<stop  offset="8.471731e-02" style="stop-color:#F3F3F3"/>
			<stop  offset="0.136" style="stop-color:#FCFCFC"/>
			<stop  offset="0.2084" style="stop-color:#FFFFFF"/>
			<stop  offset="0.3126" style="stop-color:#FCFCFB"/>
			<stop  offset="0.405" style="stop-color:#F1F1F1"/>
			<stop  offset="0.4929" style="stop-color:#DFDFDF"/>
			<stop  offset="0.578" style="stop-color:#C5C5C5"/>
			<stop  offset="0.6612" style="stop-color:#A5A4A4"/>
			<stop  offset="0.7417" style="stop-color:#7D7D7C"/>
			<stop  offset="0.8069" style="stop-color:#575756"/>
		</linearGradient>
		
			<polyline id="Edge_Left_12_" fill="url(#Edge_Left_1_)" stroke="#8C8C91" stroke-width="0.75" stroke-linejoin="round" stroke-miterlimit="10" points="
			196.7,191.4 196.3,191.6 196.3,234.9 196.7,235.1 		"/>
	</g>
	<g id="Connection_Vessel_12_">
		<linearGradient id="Shape_3_" gradientUnits="userSpaceOnUse" x1="175.6987" y1="191.8013" x2="175.6987" y2="229.3049">
			<stop  offset="0" style="stop-color:#8C8C91"/>
			<stop  offset="3.767256e-02" style="stop-color:#98989C"/>
			<stop  offset="0.145" style="stop-color:#B6B6B7"/>
			<stop  offset="0.237" style="stop-color:#C8C8C8"/>
			<stop  offset="0.3025" style="stop-color:#CFCFCE"/>
			<stop  offset="0.4177" style="stop-color:#CBCBCA"/>
			<stop  offset="0.5347" style="stop-color:#BFBFBE"/>
			<stop  offset="0.6526" style="stop-color:#AAAAAA"/>
			<stop  offset="0.7711" style="stop-color:#8E8E8D"/>
			<stop  offset="0.8889" style="stop-color:#696969"/>
			<stop  offset="1" style="stop-color:#404040"/>
		</linearGradient>
		<path id="Shape_27_" fill="url(#Shape_3_)" d="M196.3,196.7c0,0-17.2,0-21.2,0c-3.8,0-3.8-3.4-3.8-3.4s0-0.2,0-2.2
			c-1.6,0.4-16.2,11.4-16.2,22.1c0,10.7,14.7,21.7,16.2,22.1c0-1.7,0-2.1,0-2.1s-0.1-3.4,3.8-3.4c4,0,21.2,0,21.2,0V196.7z"/>
		<linearGradient id="Reflection_3_" gradientUnits="userSpaceOnUse" x1="176.5513" y1="203.9727" x2="176.5513" y2="208.3559">
			<stop  offset="0" style="stop-color:#F2F2F2;stop-opacity:0.4"/>
			<stop  offset="1" style="stop-color:#F7F7F7;stop-opacity:0.7"/>
		</linearGradient>
		<path id="Reflection_27_" fill="url(#Reflection_3_)" d="M157.2,205.8c1.7-3.2,3.9-5.6,3.9-5.6h34.8v5.6H157.2z"/>
		
			<path id="Outline_17_" fill="none" stroke="#8C8C91" stroke-width="0.75" stroke-linecap="round" stroke-linejoin="round" stroke-miterlimit="10" d="
			M171.3,235.4v-2.1c0,0-0.1-3.4,3.8-3.4c4,0,21.2,0,21.2,0v-33.1c0,0-17.2,0-21.2,0c-3.8,0-3.8-3.4-3.8-3.4v-2.2"/>
	</g>
</g>
<g id="Inlet_5_">
	<g id="Connection_Vessel_11_">
		<linearGradient id="Shape_4_" gradientUnits="userSpaceOnUse" x1="26.2422" y1="243.752" x2="26.2422" y2="286.1784">
			<stop  offset="0" style="stop-color:#A5A5A5"/>
			<stop  offset="4.758149e-02" style="stop-color:#B5B5B5"/>
			<stop  offset="0.1509" style="stop-color:#D3D3D3"/>
			<stop  offset="0.2395" style="stop-color:#E5E5E5"/>
			<stop  offset="0.3025" style="stop-color:#ECECEC"/>
			<stop  offset="0.4074" style="stop-color:#E8E8E8"/>
			<stop  offset="0.514" style="stop-color:#DCDCDC"/>
			<stop  offset="0.6214" style="stop-color:#C7C7C7"/>
			<stop  offset="0.7294" style="stop-color:#ABABAB"/>
			<stop  offset="0.8378" style="stop-color:#868686"/>
			<stop  offset="0.9452" style="stop-color:#5A5A5A"/>
			<stop  offset="1" style="stop-color:#404040"/>
		</linearGradient>
		<path id="Shape_26_" fill="url(#Shape_4_)" d="M5.7,248.2c0,0,17.2,0,21.2,0c3.8,0,3.8-3.4,3.8-3.4s0-0.2,0-2.2
			c1.6,0.4,16.2,11.4,16.2,22.1c0,10.7-14.7,21.7-16.2,22.1c0-1.7,0-2.1,0-2.1s0.1-3.4-3.8-3.4c-4,0-21.2,0-21.2,0V248.2z"/>
		<linearGradient id="Reflection_4_" gradientUnits="userSpaceOnUse" x1="25.3813" y1="252.103" x2="25.3813" y2="254.9677">
			<stop  offset="0" style="stop-color:#F2F2F2;stop-opacity:0.4"/>
			<stop  offset="1" style="stop-color:#F7F7F7;stop-opacity:0.7"/>
		</linearGradient>
		<path id="Reflection_26_" fill="url(#Reflection_4_)" d="M44.7,257.3c-1.7-3.2-3.9-5.6-3.9-5.6H6v5.6H44.7z"/>
		
			<path id="Outline_16_" fill="none" stroke="#8C8C91" stroke-width="0.75" stroke-linecap="round" stroke-linejoin="round" stroke-miterlimit="10" d="
			M30.6,286.9v-2.1c0,0,0.1-3.4-3.8-3.4c-4,0-21.2,0-21.2,0v-33.1c0,0,17.2,0,21.2,0c3.8,0,3.8-3.4,3.8-3.4v-2.2"/>
	</g>
	<g id="Flange_11_">
		<linearGradient id="Shape_5_" gradientUnits="userSpaceOnUse" x1="3.9004" y1="243.2827" x2="3.9004" y2="286.6606">
			<stop  offset="0" style="stop-color:#A5A5A5"/>
			<stop  offset="4.758149e-02" style="stop-color:#B5B5B5"/>
			<stop  offset="0.1509" style="stop-color:#D3D3D3"/>
			<stop  offset="0.2395" style="stop-color:#E5E5E5"/>
			<stop  offset="0.3025" style="stop-color:#ECECEC"/>
			<stop  offset="0.4074" style="stop-color:#E8E8E8"/>
			<stop  offset="0.514" style="stop-color:#DCDCDC"/>
			<stop  offset="0.6214" style="stop-color:#C7C7C7"/>
			<stop  offset="0.7294" style="stop-color:#ABABAB"/>
			<stop  offset="0.8378" style="stop-color:#868686"/>
			<stop  offset="0.9452" style="stop-color:#5A5A5A"/>
			<stop  offset="1" style="stop-color:#404040"/>
		</linearGradient>
		
			<polygon id="Shape_25_" fill="url(#Shape_5_)" stroke="#8C8C91" stroke-width="0.75" stroke-linejoin="round" stroke-miterlimit="10" points="
			5.7,243.2 5.1,242.9 2.7,242.9 2.1,243.2 2.1,286.4 2.7,286.6 5.1,286.6 5.7,286.4 		"/>
		<linearGradient id="Reflection_5_" gradientUnits="userSpaceOnUse" x1="3.9004" y1="247.7236" x2="3.9004" y2="249.8526">
			<stop  offset="0" style="stop-color:#F2F2F2;stop-opacity:0.4"/>
			<stop  offset="1" style="stop-color:#F7F7F7;stop-opacity:0.7"/>
		</linearGradient>
		<rect id="Reflection_25_" x="2.7" y="247.4" fill="url(#Reflection_5_)" width="2.5" height="7.4"/>
		
			<linearGradient id="Edge_Right_2_" gradientUnits="userSpaceOnUse" x1="1497.917" y1="570.1094" x2="1539.6251" y2="570.1094" gradientTransform="matrix(0 1 1 0 -564.7129 -1275.9893)">
			<stop  offset="0" style="stop-color:#575756"/>
			<stop  offset="1.586480e-02" style="stop-color:#5D5C5C"/>
			<stop  offset="0.1171" style="stop-color:#797878"/>
			<stop  offset="0.2183" style="stop-color:#8D8D8C"/>
			<stop  offset="0.3189" style="stop-color:#999998"/>
			<stop  offset="0.4178" style="stop-color:#9D9D9C"/>
			<stop  offset="0.5402" style="stop-color:#979696"/>
			<stop  offset="0.7122" style="stop-color:#848484"/>
			<stop  offset="0.9127" style="stop-color:#676666"/>
			<stop  offset="1" style="stop-color:#575756"/>
		</linearGradient>
		
			<polyline id="Edge_Right_11_" fill="url(#Edge_Right_2_)" stroke="#8C8C91" stroke-width="0.75" stroke-linejoin="round" stroke-miterlimit="10" points="
			5.1,242.9 5.7,243.2 5.7,286.4 5.1,286.6 		"/>
		
			<linearGradient id="Edge_Left_2_" gradientUnits="userSpaceOnUse" x1="1518.9219" y1="567.1172" x2="1562.626" y2="567.1172" gradientTransform="matrix(0 1 1 0 -564.7129 -1275.9893)">
			<stop  offset="0" style="stop-color:#FFFFFF"/>
			<stop  offset="1" style="stop-color:#7C7C7B"/>
		</linearGradient>
		
			<polyline id="Edge_Left_11_" fill="url(#Edge_Left_2_)" stroke="#8C8C91" stroke-width="0.75" stroke-linejoin="round" stroke-miterlimit="10" points="
			2.7,286.6 2.1,286.4 2.1,243.2 2.7,242.9 		"/>
	</g>
</g>
<g id="Inside_View_6_">
	
		<linearGradient id="Gradation_Area_Cold_1_" gradientUnits="userSpaceOnUse" x1="185.9619" y1="151.8208" x2="57.329" y2="151.8208">
		<stop  offset="0" style="stop-color:#A5A5A5"/>
		<stop  offset="4.758149e-02" style="stop-color:#B5B5B5"/>
		<stop  offset="0.1509" style="stop-color:#D3D3D3"/>
		<stop  offset="0.2395" style="stop-color:#E5E5E5"/>
		<stop  offset="0.3025" style="stop-color:#ECECEC"/>
		<stop  offset="0.4074" style="stop-color:#E8E8E8"/>
		<stop  offset="0.514" style="stop-color:#DCDCDC"/>
		<stop  offset="0.6214" style="stop-color:#C7C7C7"/>
		<stop  offset="0.7294" style="stop-color:#ABABAB"/>
		<stop  offset="0.8378" style="stop-color:#868686"/>
		<stop  offset="0.9452" style="stop-color:#5A5A5A"/>
		<stop  offset="1" style="stop-color:#404040"/>
	</linearGradient>
	<path id="Gradation_Area_Cold_5_" fill="url(#Gradation_Area_Cold_1_)" d="M57.3,26.1v251.5h87V26.1h0
		C141.8,26.1,59.7,26.1,57.3,26.1z"/>
	<linearGradient id="Technic_1_" gradientUnits="userSpaceOnUse" x1="222.4336" y1="136.0376" x2="89.7153" y2="136.0376">
		<stop  offset="0" style="stop-color:#AFAFAE"/>
		<stop  offset="1" style="stop-color:#424242"/>
	</linearGradient>
	
		<polygon id="Technic_5_" fill="url(#Technic_1_)" stroke="#575756" stroke-width="0.75" stroke-linecap="round" stroke-linejoin="round" stroke-miterlimit="10" points="
		144.4,231.5 136,231.5 136,44.6 127.4,44.6 127.4,231.5 115.4,231.5 115.4,44.6 106.8,44.6 106.8,231.5 94.9,231.5 94.9,44.6 
		86.3,44.6 86.3,231.5 74.3,231.5 74.3,44.6 65.7,44.6 65.7,231.5 57.3,231.5 57.3,227.5 61.6,227.5 61.6,40.6 78.4,40.6 
		78.4,227.5 82.2,227.5 82.2,40.6 98.9,40.6 98.9,227.5 102.8,227.5 102.8,40.6 119.5,40.6 119.5,227.5 123.3,227.5 123.3,40.6 
		140.1,40.6 140.1,227.5 144.4,227.5 	"/>
	
		<path id="Outline_15_" fill="none" stroke="#646567" stroke-width="0.75" stroke-linecap="round" stroke-linejoin="round" stroke-miterlimit="10" d="
		M57.3,26.1v251.5h87V26.1h0C144.3,26,57.3,26,57.3,26.1z"/>
</g>
</svg>
