<?xml version="1.0" encoding="utf-8"?>

<!-- Copyright 2016 Siemens AG -->

<!-- Generator: Adobe Illustrator 16.0.4, SVG Export Plug-In . SVG Version: 6.00 Build 0)  -->
<!DOCTYPE svg PUBLIC "-//W3C//DTD SVG 1.1//EN" "http://www.w3.org/Graphics/SVG/1.1/DTD/svg11.dtd">
<svg version="1.1" id="Signal_Lamp_Yellow" xmlns="http://www.w3.org/2000/svg" xmlns:xlink="http://www.w3.org/1999/xlink" x="0px"
	 y="0px" width="256px" height="300px" viewBox="0 0 256 300" enable-background="new 0 0 256 300" xml:space="preserve">
<g id="Lamp_Base">
	<linearGradient id="Shape_2_" gradientUnits="userSpaceOnUse" x1="9.8154" y1="220.6973" x2="246.1875" y2="220.6973">
		<stop  offset="0" style="stop-color:#FEC800"/>
		<stop  offset="3.961689e-02" style="stop-color:#FECC12"/>
		<stop  offset="0.1195" style="stop-color:#FED742"/>
		<stop  offset="0.2316" style="stop-color:#FFE78F"/>
		<stop  offset="0.2454" style="stop-color:#FFE999"/>
		<stop  offset="0.2628" style="stop-color:#FFE894"/>
		<stop  offset="0.5201" style="stop-color:#FFDB55"/>
		<stop  offset="0.7375" style="stop-color:#FED127"/>
		<stop  offset="0.9041" style="stop-color:#FECB0B"/>
		<stop  offset="1" style="stop-color:#FEC800"/>
	</linearGradient>
	
		<path id="Shape_1_" fill="url(#Shape_2_)" stroke="#CCA100" stroke-width="0.75" stroke-linecap="round" stroke-linejoin="round" stroke-miterlimit="10" d="
		M9.8,243.7v-33.9c0-6.6,5.4-12,12-12h212.3c6.7,0,12,5.4,12,12v33.9H9.8z"/>
	
		<linearGradient id="Reflection_Vertical_1_" gradientUnits="userSpaceOnUse" x1="23.5908" y1="220.8301" x2="48.6215" y2="220.8301">
		<stop  offset="0" style="stop-color:#F2F2F2;stop-opacity:0.4"/>
		<stop  offset="1" style="stop-color:#F7F7F7;stop-opacity:0.7"/>
	</linearGradient>
	<path id="Reflection_Vertical" fill="url(#Reflection_Vertical_1_)" d="M43.5,198.6c-9.9,0-9.5,11.1-9.5,11.1V243h40.4v-33.3
		c0-8,5.3-11.1,5.3-11.1H43.5z"/>
	
		<linearGradient id="Reflection_Horizontal_1_" gradientUnits="userSpaceOnUse" x1="17.2085" y1="203.833" x2="241.7542" y2="203.833">
		<stop  offset="0" style="stop-color:#FFE999"/>
		<stop  offset="0.1544" style="stop-color:#FFFFFF"/>
		<stop  offset="0.2972" style="stop-color:#FFF4CC"/>
		<stop  offset="0.5556" style="stop-color:#FFE276"/>
		<stop  offset="0.7669" style="stop-color:#FED436"/>
		<stop  offset="0.9203" style="stop-color:#FECC0F"/>
		<stop  offset="1" style="stop-color:#FEC800"/>
	</linearGradient>
	<path id="Reflection_Horizontal" fill="url(#Reflection_Horizontal_1_)" d="M233.4,198.2H22.9c-12.3,0-12.4,10.9-12.4,11.2h235.4
		C245.8,209.1,245.7,198.2,233.4,198.2z"/>
</g>
<g id="Lamp">
	<linearGradient id="Shape_3_" gradientUnits="userSpaceOnUse" x1="21.7168" y1="100.0488" x2="234.2871" y2="100.0488">
		<stop  offset="0" style="stop-color:#FEC800"/>
		<stop  offset="3.961689e-02" style="stop-color:#FECC12"/>
		<stop  offset="0.1195" style="stop-color:#FED742"/>
		<stop  offset="0.2316" style="stop-color:#FFE78F"/>
		<stop  offset="0.2454" style="stop-color:#FFE999"/>
		<stop  offset="0.2628" style="stop-color:#FFE894"/>
		<stop  offset="0.5201" style="stop-color:#FFDB55"/>
		<stop  offset="0.7375" style="stop-color:#FED127"/>
		<stop  offset="0.9041" style="stop-color:#FECB0B"/>
		<stop  offset="1" style="stop-color:#FEC800"/>
	</linearGradient>
	
		<path id="Shape" fill="url(#Shape_3_)" stroke="#CCA100" stroke-width="0.75" stroke-linecap="round" stroke-linejoin="round" stroke-miterlimit="10" d="
		M234.3,197.7V33c0-16.9-13.8-30.6-30.6-30.6H52.4C35.5,2.4,21.7,16.2,21.7,33v164.7H234.3z"/>
	<linearGradient id="Reflection_1_" gradientUnits="userSpaceOnUse" x1="32.8584" y1="100.1816" x2="63.7049" y2="100.1816">
		<stop  offset="0" style="stop-color:#F2F2F2;stop-opacity:0.4"/>
		<stop  offset="1" style="stop-color:#F7F7F7;stop-opacity:0.7"/>
	</linearGradient>
	<path id="Reflection" fill="url(#Reflection_1_)" d="M67.7,3.2c-23.5,0-24.2,27-24.2,27v167h36.3v-167c0-19.8,13.8-27,13.8-27H67.7
		z"/>
</g>
<path id="Dark_Reflections" fill="#CCA100" stroke="#CCA100" stroke-width="0.75" stroke-linecap="round" stroke-linejoin="round" stroke-miterlimit="10" d="
	M234.3,197.7H21.7V192h212.6V197.7z M203.6,2.4h-0.5c11.3,4.7,19.2,16,19.2,29.1V192h11.9V33C234.3,16.2,220.5,2.4,203.6,2.4z
	 M234.1,197.7h-5.7c3.9,2.2,6.6,6.5,6.6,11.6v34.3h11.2v-33.9C246.2,203.1,240.8,197.7,234.1,197.7z"/>
<linearGradient id="Electric_Case_1_" gradientUnits="userSpaceOnUse" x1="9.6509" y1="270.6797" x2="246.8051" y2="270.6797">
	<stop  offset="0" style="stop-color:#575756"/>
	<stop  offset="1.127913e-02" style="stop-color:#5D5C5C"/>
	<stop  offset="8.322689e-02" style="stop-color:#797878"/>
	<stop  offset="0.1552" style="stop-color:#8D8D8C"/>
	<stop  offset="0.2267" style="stop-color:#999998"/>
	<stop  offset="0.2971" style="stop-color:#9D9D9C"/>
	<stop  offset="0.4984" style="stop-color:#787878"/>
	<stop  offset="0.7008" style="stop-color:#5B5B5B"/>
	<stop  offset="0.8752" style="stop-color:#494949"/>
	<stop  offset="1" style="stop-color:#424242"/>
</linearGradient>
<path id="Electric_Case" fill="url(#Electric_Case_1_)" stroke="#424242" stroke-width="0.75" stroke-linecap="round" stroke-linejoin="round" stroke-miterlimit="10" d="
	M239.7,292c-1,3.1-4.5,5.7-7.7,5.7H26.3c-3.2,0-6.7-2.6-7.7-5.7L2.5,249.4c-1-3.1,0.8-5.7,4-5.7h243.1c3.2,0,5,2.6,4,5.7L239.7,292z
	"/>
</svg>
