<!--
<svg width="300" height="200"  xmlns="http://www.w3.org/2000/svg" style="right: 0;bottom: 0;transform: rotateX(180deg) rotateY(180deg);position: absolute;top: 0;left: 0;">
<polygon fill="#4fd2dd" points="6,66 6,18 12,12 18,12 24,6 27,6 30,9 36,9 39,6 84,6 81,9 75,9 73.2,7 40.8,7 37.8,10.2 24,10.2 12,21 12,24 9,27 9,51 7.8,54 7.8,63">
<animate attributeName="fill" values="#4fd2dd;#235fa7;#4fd2dd" dur="0.5s" begin="0s" repeatCount="indefinite">
</animate>
</polygon>
<polygon fill="#235fa7" points="27.599999999999998,4.8 38.4,4.8 35.4,7.8 30.599999999999998,7.8">
<animate attributeName="fill" values="#235fa7;#4fd2dd;#235fa7" dur="0.5s" begin="0s" repeatCount="indefinite">
</animate>
</polygon>
<polygon fill="#4fd2dd" points="9,54 9,63 7.199999999999999,66 7.199999999999999,75 7.8,78 7.8,110 8.4,110 8.4,66 9.6,66 9.6,54">
<animate attributeName="fill" values="#4fd2dd;#235fa7;transparent" dur="1.5s" begin="0s" repeatCount="indefinite">
</animate>
</polygon>
</svg>
-->
<svg width="300" height="200" xmlns="http://www.w3.org/2000/svg">
<style>
		.border-item {
		position: absolute;
		top: 0;
		left: 0;
		}
		.right-top {
		right: 0;
		transform: rotateY(180deg);
		}
		.left-bottom {
		bottom: 0;
		transform: rotateX(180deg);
		}
		.right-bottom {
		right: 0;
		bottom: 0;
		transform: rotateX(180deg) rotateY(180deg);
		}
	</style>
	<svg width="300" height="200">
		<polygon points="10, 27 10, 173 13, 176 13, 179 24, 189
      38, 189 41, 192 73, 192 75, 190 81, 190
      85, 194 215, 194 219, 190 225, 190
      227, 192 259, 192 262, 189
      276, 189 287, 179 287, 176
      290, 173 290, 27 287, 25 287, 21
      276, 11 262, 11 259, 8 227, 8 225, 10
      219, 10 215, 6 85, 6 81, 10 75, 10 73, 8 41, 8 38, 11 24, 11 13, 21 13, 24" style="fill: rgba(0, 0, 0, 0); stroke-width: 0;">
		</polygon>
	</svg>
	<svg width="300" height="200" class="border-item left-top">
		<polygon fill="#4fd2dd" points="6,66 6,18 12,12 18,12 24,6 27,6 30,9 36,9 39,6 84,6 81,9 75,9 73.2,7 40.8,7 37.8,10.2 24,10.2 12,21 12,24 9,27 9,51 7.8,54 7.8,63">
			<animate attributeName="fill" values="#4fd2dd;#235fa7;#4fd2dd" dur="0.5s" begin="0s" repeatCount="indefinite">
			</animate>
		</polygon>
		<polygon fill="#235fa7" points="27.599999999999998,4.8 38.4,4.8 35.4,7.8 30.599999999999998,7.8">
			<animate attributeName="fill" values="#235fa7;#4fd2dd;#235fa7" dur="0.5s" begin="0s" repeatCount="indefinite">
			</animate>
		</polygon>
		<polygon fill="#4fd2dd" points="9,54 9,63 7.199999999999999,66 7.199999999999999,75 7.8,78 7.8,110 8.4,110 8.4,66 9.6,66 9.6,54">
			<animate attributeName="fill" values="#4fd2dd;#235fa7;transparent" dur="1.5s" begin="0s" repeatCount="indefinite">
			</animate>
		</polygon>
	</svg>
	<svg width="300" height="200" class="border-item right-top">
		<polygon fill="#4fd2dd" points="6,66 6,18 12,12 18,12 24,6 27,6 30,9 36,9 39,6 84,6 81,9 75,9 73.2,7 40.8,7 37.8,10.2 24,10.2 12,21 12,24 9,27 9,51 7.8,54 7.8,63">
			<animate attributeName="fill" values="#4fd2dd;#235fa7;#4fd2dd" dur="0.5s" begin="0s" repeatCount="indefinite">
			</animate>
		</polygon>
		<polygon fill="#235fa7" points="27.599999999999998,4.8 38.4,4.8 35.4,7.8 30.599999999999998,7.8">
			<animate attributeName="fill" values="#235fa7;#4fd2dd;#235fa7" dur="0.5s" begin="0s" repeatCount="indefinite">
			</animate>
		</polygon>
		<polygon fill="#4fd2dd" points="9,54 9,63 7.199999999999999,66 7.199999999999999,75 7.8,78 7.8,110 8.4,110 8.4,66 9.6,66 9.6,54">
			<animate attributeName="fill" values="#4fd2dd;#235fa7;transparent" dur="1.5s" begin="0s" repeatCount="indefinite">
			</animate>
		</polygon>
	</svg>
	<svg width="300" height="200" class="border-item left-bottom">
		<polygon fill="#4fd2dd" points="6,66 6,18 12,12 18,12 24,6 27,6 30,9 36,9 39,6 84,6 81,9 75,9 73.2,7 40.8,7 37.8,10.2 24,10.2 12,21 12,24 9,27 9,51 7.8,54 7.8,63">
			<animate attributeName="fill" values="#4fd2dd;#235fa7;#4fd2dd" dur="0.5s" begin="0s" repeatCount="indefinite">
			</animate>
		</polygon>
		<polygon fill="#235fa7" points="27.599999999999998,4.8 38.4,4.8 35.4,7.8 30.599999999999998,7.8">
			<animate attributeName="fill" values="#235fa7;#4fd2dd;#235fa7" dur="0.5s" begin="0s" repeatCount="indefinite">
			</animate>
		</polygon>
		<polygon fill="#4fd2dd" points="9,54 9,63 7.199999999999999,66 7.199999999999999,75 7.8,78 7.8,110 8.4,110 8.4,66 9.6,66 9.6,54">
			<animate attributeName="fill" values="#4fd2dd;#235fa7;transparent" dur="1.5s" begin="0s" repeatCount="indefinite">
			</animate>
		</polygon>
	</svg>
	<svg width="300" height="200" class="border-item right-bottom">
		<polygon fill="#4fd2dd" points="6,66 6,18 12,12 18,12 24,6 27,6 30,9 36,9 39,6 84,6 81,9 75,9 73.2,7 40.8,7 37.8,10.2 24,10.2 12,21 12,24 9,27 9,51 7.8,54 7.8,63">
			<animate attributeName="fill" values="#4fd2dd;#235fa7;#4fd2dd" dur="0.5s" begin="0s" repeatCount="indefinite">
			</animate>
		</polygon>
		<polygon fill="#235fa7" points="27.599999999999998,4.8 38.4,4.8 35.4,7.8 30.599999999999998,7.8">
			<animate attributeName="fill" values="#235fa7;#4fd2dd;#235fa7" dur="0.5s" begin="0s" repeatCount="indefinite">
			</animate>
		</polygon>
		<polygon fill="#4fd2dd" points="9,54 9,63 7.199999999999999,66 7.199999999999999,75 7.8,78 7.8,110 8.4,110 8.4,66 9.6,66 9.6,54">
			<animate attributeName="fill" values="#4fd2dd;#235fa7;transparent" dur="1.5s" begin="0s" repeatCount="indefinite">
			</animate>
		</polygon>
	</svg>

</svg>
