<?xml version="1.0" encoding="utf-8"?>

<!-- Copyright 2016 Siemens AG -->

<!-- Generator: Adobe Illustrator 16.0.4, SVG Export Plug-In . SVG Version: 6.00 Build 0)  -->
<!DOCTYPE svg PUBLIC "-//W3C//DTD SVG 1.1//EN" "http://www.w3.org/Graphics/SVG/1.1/DTD/svg11.dtd">
<svg version="1.1" id="SIMATIC_x5F_HMI_x5F_19_x5F_Touch_x5F_Wide_x5F_TP1900Wide"
	 xmlns="http://www.w3.org/2000/svg" xmlns:xlink="http://www.w3.org/1999/xlink" x="0px" y="0px" width="300px" height="210px"
	 viewBox="0 0 300 210" enable-background="new 0 0 300 210" xml:space="preserve">
<linearGradient id="SVGID_1_" gradientUnits="userSpaceOnUse" x1="2" y1="104.7427" x2="297.9717" y2="104.7427">
	<stop  offset="0" style="stop-color:#B0B3B3"/>
	<stop  offset="1" style="stop-color:#7C7F7F"/>
</linearGradient>
<path fill="url(#SVGID_1_)" d="M2,3c0-0.8,0.7-1.5,1.5-1.5h293c0.8,0,1.5,0.7,1.5,1.5v203.6c0,0.8-0.7,1.5-1.5,1.5H3.5
	c-0.8,0-1.5-0.7-1.5-1.5V3z"/>
<rect x="8.7" y="4.1" fill="#708799" width="282.5" height="190.7"/>
<rect x="11.8" y="4.1" fill="#232323" width="276.4" height="174.8"/>
<rect x="275.4" y="27.4" fill="#708799" width="12.9" height="39.6"/>
<path fill-rule="evenodd" clip-rule="evenodd" fill="#FFFFFF" d="M150,27.4H24.4c-0.3,0-0.6,0.3-0.6,0.6v141.2
	c0,0.3,0.3,0.6,0.6,0.6h251.1c0.3,0,0.6-0.3,0.6-0.6V28c0-0.3-0.3-0.6-0.6-0.6H150"/>
<path fill="none" stroke="#232323" stroke-width="0.2" stroke-linecap="round" stroke-linejoin="round" stroke-miterlimit="10" d="
	M150,4.1H5.2c-0.3,0-0.6,0.3-0.6,0.6v200c0,0.3,0.3,0.6,0.6,0.6h289.5c0.3,0,0.6-0.3,0.6-0.6V4.7c0-0.3-0.3-0.6-0.6-0.6H150z"/>
<g id="Logo">
	<g id="Logo_1_">
		<rect x="24.2" y="8.4" fill="#FFFFFF" width="20.6" height="4.9"/>
		<path fill="#128587" d="M23.8,13.8V8.1h21.3v5.7H23.8z M27.2,9.5c-0.3-0.1-0.5-0.1-0.8-0.1c-0.4,0-0.6,0.1-0.9,0.2
			c-0.2,0.2-0.3,0.4-0.3,0.6c0,0.3,0.2,0.6,0.6,0.8l0.6,0.3c0.2,0.1,0.2,0.1,0.2,0.3c0,0.2-0.2,0.3-0.5,0.3c-0.2,0-0.5-0.1-0.9-0.2
			v0.6c0.2,0,0.3,0.1,0.5,0.1c0.2,0,0.3,0,0.4,0c0.4,0,0.7-0.1,0.9-0.3c0.2-0.2,0.3-0.4,0.3-0.7c0-0.4-0.2-0.6-0.6-0.8l-0.5-0.2
			c-0.1,0-0.2-0.1-0.2-0.1c0,0-0.1-0.1-0.1-0.1c0-0.1,0.1-0.2,0.4-0.2c0.1,0,0.3,0,0.4,0c0.1,0,0.2,0.1,0.4,0.1L27.2,9.5L27.2,9.5z
			 M28.7,9.5h-0.8v2.8h0.8V9.5z M31.5,9.5h-2.1v2.8h2.1v-0.5h-1.3v-0.7h1.1v-0.5h-1.1V10h1.3V9.5z M35.5,9.5h-1l-0.7,1.7L33,9.5h-1
			v2.8h0.6v-1.9l0.8,1.9h0.5l0.8-1.9v1.9h0.8V9.5L35.5,9.5z M38.2,9.5h-2.1v2.8h2.1v-0.5h-1.3v-0.7h1.1v-0.5h-1.1V10h1.3V9.5z
			 M41.2,9.5h-0.5v1.8l-1-1.8h-0.9v2.8h0.6v-1.8l1,1.8h0.9V9.5z M43.7,9.5c-0.3-0.1-0.6-0.1-0.8-0.1c-0.4,0-0.7,0.1-0.9,0.2
			c-0.2,0.2-0.3,0.4-0.3,0.6c0,0.3,0.2,0.6,0.6,0.8l0.6,0.3c0.1,0.1,0.2,0.1,0.2,0.1c0,0,0,0.1,0,0.1c0,0.2-0.2,0.3-0.5,0.3
			c-0.2,0-0.5-0.1-0.9-0.2v0.6c0.1,0,0.3,0.1,0.5,0.1c0.2,0,0.3,0,0.5,0c0.4,0,0.7-0.1,0.9-0.2c0.2-0.2,0.3-0.4,0.3-0.7
			c0-0.2-0.1-0.3-0.2-0.5c-0.1-0.1-0.3-0.3-0.5-0.4l-0.5-0.2c-0.2-0.1-0.3-0.2-0.3-0.3c0-0.1,0.2-0.2,0.5-0.2c0.1,0,0.3,0,0.4,0
			c0.1,0,0.2,0.1,0.4,0.1V9.5z"/>
	</g>
</g>
<g id="Typo">
	<g>
		<polyline fill-rule="evenodd" clip-rule="evenodd" fill="#232323" points="288.2,28.4 288.2,35.4 287,35.4 287,32.6 277.5,32.6 
			277.5,31.2 287,31.2 287,28.4 288.2,28.4 		"/>
		<path fill-rule="evenodd" clip-rule="evenodd" fill="#232323" d="M278.5,39c0,0.7,0.2,1.2,0.6,1.5c0.4,0.3,1.2,0.5,2.3,0.5
			c1.2,0,2.4,0,3.6,0c0.7,0,1.3-0.2,1.7-0.5c0.4-0.3,0.6-0.8,0.6-1.5c0-0.6-0.2-1.1-0.6-1.5c-0.4-0.4-1-0.5-1.7-0.5
			c-1.2,0-2.4,0-3.6,0c-1.1,0-1.9,0.2-2.3,0.5C278.6,37.8,278.5,38.3,278.5,39 M277.3,39c0-1.1,0.3-2,1-2.5c0.6-0.5,1.7-0.8,3.2-0.8
			c1.2,0,2.3,0,3.5,0c1.1,0,1.9,0.3,2.6,0.8c0.6,0.6,0.9,1.4,0.9,2.5c0,1.1-0.3,1.9-0.9,2.5c-0.6,0.6-1.5,0.9-2.5,0.9
			c-1.2,0-2.3,0-3.5,0c-1.4,0-2.5-0.3-3.1-0.8C277.6,41,277.3,40.1,277.3,39z"/>
		<path fill-rule="evenodd" clip-rule="evenodd" fill="#232323" d="M281.4,43.5c2.2,0,4.5,0,6.7,0c0,0.4,0,0.9,0,1.3
			c-2.3,0-4.5,0-6.8,0c-1.1,0-1.9,0.2-2.3,0.5c-0.4,0.3-0.6,0.8-0.6,1.5s0.2,1.2,0.6,1.5c0.4,0.3,1.2,0.5,2.3,0.5c2.3,0,4.5,0,6.8,0
			c0,0.5,0,0.9,0,1.4c-2.2,0-4.5,0-6.7,0c-1.5,0-2.5-0.3-3.1-0.8c-0.7-0.5-1-1.4-1-2.5c0-1.2,0.3-2,1-2.5
			C278.9,43.8,280,43.5,281.4,43.5"/>
		<path fill-rule="evenodd" clip-rule="evenodd" fill="#232323" d="M285.2,57.6c0-0.5,0-0.9,0-1.4c0.5,0,0.9,0,1.1-0.1
			c0.2,0,0.4-0.1,0.5-0.2c0.1-0.1,0.3-0.3,0.3-0.5c0.1-0.2,0.1-0.5,0.1-0.6c0-0.5-0.1-0.9-0.4-1.2c-0.1-0.2-0.3-0.4-0.5-0.4
			c-0.3-0.1-0.6-0.2-0.7-0.2c-0.4-0.1-0.9-0.1-1.5-0.1c-0.9,0-1.9,0-2.9,0c-1.2,0-2,0.2-2.4,0.5c-0.3,0.3-0.5,0.7-0.5,1.4
			c0,0.5,0.2,1,0.6,1.3c0.4,0.3,0.9,0.4,1.6,0.4c0,0.5,0,0.9,0,1.4c-1.1,0-2-0.2-2.5-0.8c-0.6-0.5-0.9-1.2-0.9-2.3
			c0-1,0.2-1.7,0.6-2.2c0.6-0.8,1.8-1.2,3.6-1.2c1,0,2,0,3,0c1.4,0,2.4,0.3,3.1,0.9c0.5,0.6,0.8,1.4,0.8,2.5c0,1-0.3,1.8-0.8,2.2
			C287.1,57.4,286.3,57.6,285.2,57.6"/>
		<polyline fill-rule="evenodd" clip-rule="evenodd" fill="#232323" points="277.5,58.6 288.2,58.6 288.2,60 283.6,60 283.6,63.8 
			288.2,63.8 288.2,65.1 277.5,65.1 277.5,63.8 282.4,63.8 282.4,60 277.5,60 277.5,58.6 		"/>
	</g>
	<g id="Name_2_">
		<text transform="matrix(0.9964 0 0 1 247.7891 12.6074)" fill="#FFFFFF" font-family="'SiemensSans-Roman'" font-size="5.1869">SIMATIC HMI</text>
	</g>
</g>
</svg>
