<?xml version="1.0" encoding="utf-8"?>

<!-- Copyright 2016 Siemens AG -->

<!-- Generator: Adobe Illustrator 16.0.4, SVG Export Plug-In . SVG Version: 6.00 Build 0)  -->
<!DOCTYPE svg PUBLIC "-//W3C//DTD SVG 1.1//EN" "http://www.w3.org/Graphics/SVG/1.1/DTD/svg11.dtd">
<svg version="1.1" id="SIMATIC_x5F_Flat_x5F_Panel_x5F_10_x5F_Touch_x5F_FP10T"
	 xmlns="http://www.w3.org/2000/svg" xmlns:xlink="http://www.w3.org/1999/xlink" x="0px" y="0px" width="300px" height="221px"
	 viewBox="0 0 300 221" enable-background="new 0 0 300 221" xml:space="preserve">
<linearGradient id="SVGID_1_" gradientUnits="userSpaceOnUse" x1="2" y1="110.4297" x2="297.9873" y2="110.4297">
	<stop  offset="1.187820e-02" style="stop-color:#EBEBE6"/>
	<stop  offset="2.415080e-02" style="stop-color:#DDDDD9"/>
	<stop  offset="4.116690e-02" style="stop-color:#C3C2C0"/>
	<stop  offset="0.2703" style="stop-color:#BFBEBC"/>
	<stop  offset="0.503" style="stop-color:#B3B2B0"/>
	<stop  offset="0.7366" style="stop-color:#9F9E9C"/>
	<stop  offset="0.9579" style="stop-color:#848381"/>
	<stop  offset="0.9718" style="stop-color:#6B6B6A"/>
	<stop  offset="0.9895" style="stop-color:#515153"/>
	<stop  offset="1" style="stop-color:#47484A"/>
</linearGradient>
<path fill="url(#SVGID_1_)" d="M2.8,1.7C2.3,1.7,2,2.1,2,2.5v215.9c0,0.4,0.3,0.8,0.8,0.8h294.5c0.4,0,0.8-0.3,0.8-0.8V2.5
	c0-0.4-0.3-0.8-0.8-0.8H2.8z"/>
<g id="Display">
	<g>
		<g>
			<rect x="245.4" y="34.2" fill="#629CA1" width="21.3" height="113.6"/>
			<rect x="33.3" y="147.7" fill="#629CA1" width="21.3" height="36.9"/>
			<rect x="33.3" y="34.2" fill="#629CA1" width="233.4" height="6"/>
			<rect x="33.3" y="178.6" fill="#629CA1" width="233.4" height="6"/>
		</g>
		<path fill-rule="evenodd" clip-rule="evenodd" fill="#FFFFFF" d="M146.9,39.8H55.3c-0.4,0-0.7,0.3-0.7,0.7v137.7
			c0,0.4,0.3,0.7,0.7,0.7h189.3c0.4,0,0.7-0.3,0.7-0.7V40.5c0-0.4-0.3-0.7-0.7-0.7H146.9"/>
	</g>
</g>
<g id="Logo_1_">
	<rect x="26.9" y="15.3" fill="#FFFFFF" width="41.5" height="10"/>
	<path fill="#128587" d="M26.2,26V14.5h43V26H26.2z M33,17.5c-0.5-0.1-1.1-0.2-1.7-0.2c-0.7,0-1.3,0.2-1.7,0.5
		c-0.4,0.3-0.7,0.7-0.7,1.3c0,0.7,0.4,1.2,1.3,1.6l1.2,0.5c0.3,0.1,0.5,0.3,0.5,0.5c0,0.3-0.3,0.5-1,0.5c-0.4,0-1-0.1-1.7-0.3V23
		c0.3,0.1,0.6,0.1,1,0.2c0.4,0.1,0.6,0.1,0.9,0.1c0.8,0,1.4-0.2,1.8-0.5c0.5-0.3,0.7-0.8,0.7-1.4c0-0.7-0.4-1.3-1.3-1.7l-1-0.5
		c-0.2-0.1-0.4-0.2-0.5-0.2c-0.1-0.1-0.1-0.2-0.1-0.3c0-0.3,0.3-0.4,0.9-0.4c0.3,0,0.5,0,0.8,0.1c0.2,0,0.5,0.1,0.8,0.2L33,17.5
		L33,17.5z M36,17.4h-1.7v5.7H36V17.4z M41.6,17.4h-4.3v5.7h4.3v-1.1H39v-1.4h2.2v-1H39v-1.3h2.6V17.4z M49.7,17.4h-2.1l-1.5,3.5
		l-1.5-3.5h-2.1v5.7h1.1v-3.8l1.6,3.8h1.1l1.6-3.8v3.8h1.7V17.4L49.7,17.4z M55.3,17.4H51v5.7h4.3v-1.1h-2.7v-1.4h2.3v-1h-2.3v-1.3
		h2.6V17.4z M61.3,17.4h-1.1V21l-2.1-3.6h-1.9v5.7h1.2v-3.7l2.1,3.7h1.8V17.4z M66.4,17.5c-0.6-0.1-1.1-0.2-1.7-0.2
		c-0.7,0-1.3,0.2-1.8,0.5c-0.4,0.3-0.6,0.7-0.6,1.3c0,0.7,0.4,1.2,1.2,1.6l1.2,0.5c0.2,0.1,0.3,0.2,0.4,0.3c0.1,0.1,0.1,0.1,0.1,0.3
		c0,0.3-0.3,0.5-1,0.5c-0.4,0-1-0.1-1.8-0.3V23c0.3,0.1,0.6,0.1,1,0.2c0.4,0.1,0.7,0.1,0.9,0.1c0.7,0,1.3-0.2,1.8-0.5
		c0.4-0.3,0.7-0.8,0.7-1.4c0-0.4-0.1-0.7-0.3-1c-0.2-0.3-0.5-0.5-1-0.7l-1-0.5c-0.3-0.2-0.5-0.3-0.5-0.5c0-0.3,0.3-0.4,0.9-0.4
		c0.3,0,0.5,0,0.8,0.1c0.2,0,0.5,0.1,0.8,0.2V17.5z"/>
</g>
<g id="Typo">
	<g>
		<polyline fill-rule="evenodd" clip-rule="evenodd" fill="#838280" points="263.9,40.2 263.9,50.5 262.2,50.5 262.2,46.3 
			248.2,46.3 248.2,44.3 262.2,44.3 262.2,40.2 263.9,40.2 		"/>
		<path fill-rule="evenodd" clip-rule="evenodd" fill="#838280" d="M249.6,55.7c0,1,0.3,1.8,0.9,2.2c0.6,0.5,1.8,0.7,3.4,0.7
			c1.8,0,3.5,0,5.3,0c1.1,0,1.9-0.2,2.5-0.7c0.6-0.5,0.9-1.3,0.9-2.2c0-0.9-0.3-1.7-0.9-2.2c-0.6-0.5-1.4-0.8-2.5-0.8
			c-1.8,0-3.5,0-5.3,0c-1.6,0-2.8,0.3-3.4,0.8C249.9,54,249.6,54.7,249.6,55.7 M247.9,55.7c0-1.7,0.5-3,1.4-3.7
			c1-0.8,2.5-1.2,4.6-1.2c1.7,0,3.4,0,5.1,0c1.6,0,2.9,0.4,3.8,1.3c0.9,0.8,1.3,2,1.3,3.7c0,1.6-0.4,2.8-1.4,3.7
			c-0.9,0.8-2.2,1.3-3.8,1.3c-1.7,0-3.4,0-5.1,0c-2.1,0-3.7-0.4-4.6-1.2C248.4,58.7,247.9,57.4,247.9,55.7z"/>
		<path fill-rule="evenodd" clip-rule="evenodd" fill="#838280" d="M254,62.4c3.3,0,6.6,0,9.9,0c0,0.7,0,1.3,0,2c-3.3,0-6.7,0-10,0
			c-1.6,0-2.8,0.3-3.4,0.8c-0.6,0.4-0.9,1.2-0.9,2.2c0,1.1,0.3,1.8,0.9,2.2c0.6,0.5,1.8,0.8,3.4,0.8c3.3,0,6.7,0,10,0
			c0,0.7,0,1.3,0,2c-3.3,0-6.6,0-9.9,0c-2.1,0-3.7-0.4-4.6-1.2c-1-0.8-1.5-2.1-1.5-3.8s0.5-3,1.4-3.8
			C250.3,62.8,251.8,62.4,254,62.4"/>
		<path fill-rule="evenodd" clip-rule="evenodd" fill="#838280" d="M259.6,83.3c0-0.7,0-1.4,0-2.1c0.8,0,1.3,0,1.6-0.1
			c0.3-0.1,0.6-0.2,0.8-0.4c0.2-0.2,0.4-0.5,0.5-0.8c0.1-0.4,0.2-0.7,0.2-0.9c0-0.7-0.2-1.3-0.5-1.8c-0.3-0.3-0.5-0.5-0.7-0.6
			c-0.5-0.2-0.8-0.3-1.1-0.3c-0.6-0.1-1.3-0.1-2.2-0.1c-1.4,0-2.8,0-4.2,0c-1.7,0-2.9,0.3-3.6,0.8c-0.5,0.4-0.7,1.1-0.7,2
			c0,0.8,0.3,1.4,0.9,1.8c0.6,0.4,1.4,0.7,2.4,0.7c0,0.7,0,1.4,0,2.1c-1.7,0-2.9-0.4-3.7-1.1c-0.8-0.7-1.3-1.9-1.3-3.3
			c0-1.5,0.3-2.5,0.8-3.2c0.9-1.2,2.7-1.8,5.4-1.8c1.5,0,2.9,0,4.4,0c2.1,0,3.6,0.4,4.5,1.4c0.8,0.8,1.2,2,1.2,3.7
			c0,1.5-0.4,2.6-1.2,3.2C262.3,82.9,261.2,83.3,259.6,83.3"/>
		<polyline fill-rule="evenodd" clip-rule="evenodd" fill="#838280" points="248.2,84.8 263.9,84.8 263.9,86.7 257.1,86.7 
			257.1,92.3 263.9,92.3 263.9,94.3 248.2,94.3 248.2,92.3 255.4,92.3 255.4,86.7 248.2,86.7 248.2,84.8 		"/>
	</g>
	<g id="Name_2_">
		<text transform="matrix(0.9964 0 0 1 176.6655 23.4331)" fill="#25393F" font-family="'SiemensSans-Roman'" font-size="10.5827">SIMATIC FLAT PANEL</text>
	</g>
</g>
</svg>
