<?xml version="1.0" encoding="utf-8"?>

<!-- Copyright 2016 Siemens AG -->

<!-- Generator: Adobe Illustrator 16.0.4, SVG Export Plug-In . SVG Version: 6.00 Build 0)  -->
<!DOCTYPE svg PUBLIC "-//W3C//DTD SVG 1.1//EN" "http://www.w3.org/Graphics/SVG/1.1/DTD/svg11.dtd">
<svg version="1.1" id="SIMATIC_x5F_Multi_x5F_Panel_x5F_15_x5F_Touch_x5F_Daylight-MP377_x5F_MP15P-Daylight"
	 xmlns="http://www.w3.org/2000/svg" xmlns:xlink="http://www.w3.org/1999/xlink" x="0px" y="0px" width="300px" height="233px"
	 viewBox="0 0 300 233" enable-background="new 0 0 300 233" xml:space="preserve">
<linearGradient id="SVGID_1_" gradientUnits="userSpaceOnUse" x1="2" y1="116.5645" x2="297.9873" y2="116.5645">
	<stop  offset="1.187820e-02" style="stop-color:#EBEBE6"/>
	<stop  offset="2.415080e-02" style="stop-color:#DDDDD9"/>
	<stop  offset="4.116690e-02" style="stop-color:#C3C2C0"/>
	<stop  offset="0.2703" style="stop-color:#BFBEBC"/>
	<stop  offset="0.503" style="stop-color:#B3B2B0"/>
	<stop  offset="0.7366" style="stop-color:#9F9E9C"/>
	<stop  offset="0.9579" style="stop-color:#848381"/>
	<stop  offset="0.9718" style="stop-color:#6B6B6A"/>
	<stop  offset="0.9895" style="stop-color:#515153"/>
	<stop  offset="1" style="stop-color:#47484A"/>
</linearGradient>
<path fill="url(#SVGID_1_)" d="M2.8,1.9C2.3,1.9,2,2.2,2,2.6v227.8c0,0.4,0.3,0.8,0.8,0.8h294.5c0.4,0,0.8-0.3,0.8-0.8V2.6
	c0-0.4-0.3-0.8-0.8-0.8H2.8z"/>
<path fill="none" stroke="#000000" stroke-width="0.2" stroke-linecap="round" stroke-linejoin="round" stroke-miterlimit="10" d="
	M14.1,6.1c-0.3,0-0.6,0.3-0.6,0.6v219.7c0,0.3,0.3,0.6,0.6,0.6h271.7c0.3,0,0.6-0.3,0.6-0.6V6.7c0-0.3-0.3-0.6-0.6-0.6H14.1z"/>
<g>
	<rect x="26" y="18.7" fill="#629CA1" width="247.9" height="199.1"/>
	<path fill-rule="evenodd" clip-rule="evenodd" fill="#FFFFFF" d="M150,29.4H37.5c-0.4,0-0.7,0.3-0.7,0.7v168.7
		c0,0.4,0.3,0.7,0.7,0.7h225c0.4,0,0.7-0.3,0.7-0.7V30.1c0-0.4-0.3-0.7-0.7-0.7H150"/>
</g>
<g id="Logo_1_">
	<g id="Logo_2_">
		<rect x="15.3" y="7.9" fill="#FFFFFF" width="21.7" height="5.2"/>
		<path fill="#128587" d="M14.9,13.5v-6h22.4v6H14.9z M18.5,9C18.2,9,17.9,9,17.6,9C17.3,9,17,9,16.7,9.2c-0.2,0.2-0.3,0.4-0.3,0.7
			c0,0.3,0.2,0.6,0.7,0.8l0.6,0.3c0.2,0.1,0.2,0.1,0.2,0.3c0,0.2-0.2,0.3-0.5,0.3c-0.2,0-0.5-0.1-0.9-0.2v0.6c0.2,0,0.3,0.1,0.5,0.1
			c0.2,0,0.3,0,0.5,0c0.4,0,0.7-0.1,1-0.3c0.2-0.2,0.4-0.4,0.4-0.7c0-0.4-0.2-0.7-0.7-0.9L17.5,10c-0.1,0-0.2-0.1-0.2-0.1
			c0,0-0.1-0.1-0.1-0.1c0-0.2,0.2-0.2,0.5-0.2c0.2,0,0.3,0,0.4,0c0.1,0,0.3,0.1,0.4,0.1L18.5,9L18.5,9z M20.1,9h-0.9v3h0.9V9z M23,9
			h-2.2v3H23v-0.6h-1.3v-0.7h1.2v-0.5h-1.2V9.6H23V9z M27.2,9h-1.1l-0.8,1.8L24.6,9h-1.1v3h0.6v-2l0.8,2h0.6l0.8-2v2h0.9V9L27.2,9z
			 M30.1,9h-2.2v3h2.3v-0.6h-1.4v-0.7h1.2v-0.5h-1.2V9.6h1.3V9z M33.3,9h-0.6v1.9L31.6,9h-1v3h0.6v-1.9l1.1,1.9h0.9V9z M35.9,9
			C35.6,9,35.3,9,35,9c-0.4,0-0.7,0.1-0.9,0.2c-0.2,0.2-0.3,0.4-0.3,0.7c0,0.4,0.2,0.6,0.6,0.8L35,11c0.1,0.1,0.2,0.1,0.2,0.1
			c0,0,0,0.1,0,0.1c0,0.2-0.2,0.3-0.5,0.3c-0.2,0-0.5-0.1-0.9-0.2v0.6c0.1,0,0.3,0.1,0.5,0.1c0.2,0,0.4,0,0.5,0
			c0.4,0,0.7-0.1,0.9-0.3c0.2-0.2,0.3-0.4,0.3-0.7c0-0.2-0.1-0.4-0.2-0.5c-0.1-0.1-0.3-0.3-0.5-0.4L34.9,10
			c-0.2-0.1-0.3-0.2-0.3-0.3c0-0.2,0.2-0.2,0.5-0.2c0.1,0,0.3,0,0.4,0c0.1,0,0.3,0.1,0.4,0.1V9z"/>
	</g>
</g>
<g id="Typo">
	<g>
		<path fill-rule="evenodd" clip-rule="evenodd" fill="#629CA1" d="M284.8,18.7c0,2,0,4.1,0,6.1c-0.3,0-0.7,0-1,0c0-0.8,0-1.6,0-2.5
			c-2.8,0-5.5,0-8.3,0c0-0.4,0-0.8,0-1.2c2.8,0,5.5,0,8.3,0c0-0.8,0-1.6,0-2.5C284.1,18.7,284.4,18.7,284.8,18.7"/>
		<path fill-rule="evenodd" clip-rule="evenodd" fill="#629CA1" d="M276.3,28.1c0,0.6,0.2,1,0.5,1.3c0.4,0.3,1,0.4,2.1,0.4
			c1,0,2.1,0,3.1,0c0.7,0,1.1-0.1,1.5-0.4c0.4-0.3,0.5-0.7,0.5-1.3c0-0.6-0.2-1-0.5-1.3c-0.3-0.3-0.8-0.5-1.5-0.5c-1,0-2.1,0-3.1,0
			c-1,0-1.7,0.2-2.1,0.4C276.4,27,276.3,27.4,276.3,28.1 M275.3,28.1c0-1,0.3-1.8,0.9-2.2c0.5-0.5,1.5-0.7,2.8-0.7c1,0,2,0,3,0
			c1,0,1.7,0.2,2.3,0.7c0.5,0.5,0.8,1.2,0.8,2.2c0,1-0.3,1.7-0.8,2.2c-0.5,0.5-1.3,0.8-2.2,0.8c-1,0-2,0-3,0c-1.3,0-2.2-0.2-2.8-0.7
			C275.6,29.8,275.3,29.1,275.3,28.1z"/>
		<path fill-rule="evenodd" clip-rule="evenodd" fill="#629CA1" d="M278.9,32.2c2,0,3.9,0,5.9,0c0,0.4,0,0.8,0,1.2c-2,0-4,0-6,0
			c-1,0-1.7,0.1-2.1,0.4c-0.3,0.3-0.5,0.7-0.5,1.3c0,0.6,0.2,1.1,0.5,1.3c0.4,0.3,1,0.4,2.1,0.4c2,0,4,0,6,0c0,0.4,0,0.8,0,1.2
			c-2,0-3.9,0-5.9,0c-1.3,0-2.2-0.2-2.8-0.7c-0.6-0.5-0.9-1.2-0.9-2.2s0.3-1.7,0.9-2.2C276.7,32.4,277.6,32.2,278.9,32.2"/>
		<path fill-rule="evenodd" clip-rule="evenodd" fill="#629CA1" d="M282.2,44.7c0-0.4,0-0.8,0-1.2c0.4,0,0.8,0,0.9-0.1
			c0.2,0,0.3-0.1,0.5-0.2c0.1-0.1,0.2-0.3,0.3-0.5c0.1-0.2,0.1-0.4,0.1-0.6c0-0.4-0.1-0.8-0.3-1.1c-0.1-0.2-0.3-0.3-0.4-0.3
			c-0.3-0.1-0.5-0.2-0.6-0.2c-0.3,0-0.8-0.1-1.3-0.1c-0.8,0-1.7,0-2.5,0c-1,0-1.8,0.2-2.1,0.5c-0.3,0.3-0.4,0.6-0.4,1.2
			c0,0.5,0.2,0.8,0.5,1.1c0.3,0.3,0.8,0.4,1.4,0.4c0,0.4,0,0.8,0,1.2c-1,0-1.7-0.2-2.2-0.7c-0.5-0.4-0.8-1.1-0.8-2
			c0-0.8,0.2-1.5,0.5-1.9c0.6-0.7,1.6-1,3.2-1c0.9,0,1.7,0,2.6,0c1.3,0,2.1,0.3,2.7,0.8c0.5,0.5,0.7,1.2,0.7,2.2
			c0,0.9-0.2,1.5-0.7,1.9C283.9,44.5,283.2,44.7,282.2,44.7"/>
		<path fill-rule="evenodd" clip-rule="evenodd" fill="#629CA1" d="M275.5,45.7c3.1,0,6.2,0,9.3,0c0,0.4,0,0.8,0,1.2
			c-1.3,0-2.7,0-4,0c0,1.1,0,2.2,0,3.3c1.3,0,2.7,0,4,0c0,0.4,0,0.8,0,1.2c-3.1,0-6.2,0-9.3,0c0-0.4,0-0.8,0-1.2c1.4,0,2.8,0,4.3,0
			c0-1.1,0-2.2,0-3.3c-1.4,0-2.8,0-4.3,0C275.5,46.5,275.5,46.1,275.5,45.7"/>
	</g>
	<g id="Name">
		<text transform="matrix(0.9964 0 0 1 230.5791 12.3984)" fill="#25393F" font-family="'SiemensSans-Roman'" font-size="5.5592">SIMATIC MULTI PANEL</text>
	</g>
</g>
</svg>
