<?xml version="1.0" encoding="utf-8"?>

<!-- Copyright 2016 Siemens AG -->

<!-- Generator: Adobe Illustrator 16.0.4, SVG Export Plug-In . SVG Version: 6.00 Build 0)  -->
<!DOCTYPE svg PUBLIC "-//W3C//DTD SVG 1.1//EN" "http://www.w3.org/Graphics/SVG/1.1/DTD/svg11.dtd">
<svg version="1.1" id="SIMATIC_x5F_HMI_x5F_4_x5F_TouchKey"
	 xmlns="http://www.w3.org/2000/svg" xmlns:xlink="http://www.w3.org/1999/xlink" x="0px" y="0px" width="300px" height="249px"
	 viewBox="0 0 300 249" enable-background="new 0 0 300 249" xml:space="preserve">
<linearGradient id="SVGID_1_" gradientUnits="userSpaceOnUse" x1="1.9331" y1="124.4863" x2="297.9736" y2="124.4863">
	<stop  offset="0" style="stop-color:#B0B3B3"/>
	<stop  offset="1" style="stop-color:#7C7F7F"/>
</linearGradient>
<path fill="url(#SVGID_1_)" d="M1.9,6.8c0-2.7,2.2-4.9,4.9-4.9h286.2c2.7,0,4.9,2.2,4.9,4.9v235.4c0,2.7-2.2,4.9-4.9,4.9H6.8
	c-2.7,0-4.9-2.2-4.9-4.9V6.8z"/>
<path fill-rule="evenodd" clip-rule="evenodd" fill="#708799" d="M222.9,187.9h-13.7v27.5h2.1V190h25.3v-2.1H222.9 M174.3,187.9
	h-13.7v27.5h2.1V190h25.4v-2.1H174.3z M125.7,187.9H112v27.5h2.1V190h25.4v-2.1H125.7z M77,187.9H63.3v27.5h2.1V190h25.4v-2.1H77z
	 M24.2,11h251.6v204.4H24.2V11z"/>
<rect x="29.5" y="11" width="241" height="166.5"/>
<rect x="250.6" y="41.2" fill="#708799" width="21.8" height="59.6"/>
<path fill-rule="evenodd" clip-rule="evenodd" fill="#FFFFFF" d="M150,41.2H49.5c-1.2,0-2.1,0.9-2.1,2.1v113.9
	c0,1.2,0.9,2.1,2.1,2.1h201c1.2,0,2.1-0.9,2.1-2.1V43.3c0-1.2-0.9-2.1-2.1-2.1H150"/>
<g>
	<rect x="106.7" y="182.6" fill="#E8E8E2" width="5.3" height="5.3"/>
	<rect x="203.9" y="182.6" fill="#E8E8E2" width="5.3" height="5.3"/>
	<rect x="155.3" y="182.6" fill="#E8E8E2" width="5.3" height="5.3"/>
	<rect x="58" y="182.6" fill="#E8E8E2" width="5.3" height="5.3"/>
</g>
<path fill="none" stroke="#000000" stroke-width="0.5" stroke-linecap="round" stroke-linejoin="round" stroke-miterlimit="10" d="
	M150,11H13.2c-1.2,0-2.1,0.9-2.1,2.1v222.9c0,1.2,0.9,2.1,2.1,2.1h273.6c1.2,0,2.1-0.9,2.1-2.1V13.1c0-1.2-0.9-2.1-2.1-2.1H150z"/>
<g id="Logo">
	<g id="Logo_2_">
		<rect x="48.4" y="18" fill="#FFFFFF" width="53" height="12.7"/>
		<path fill="#128587" d="M47.4,31.7V17.1h54.9v14.6H47.4z M56.1,20.8c-0.7-0.2-1.4-0.2-2.1-0.2c-0.9,0-1.7,0.2-2.2,0.6
			c-0.6,0.4-0.8,0.9-0.8,1.6c0,0.9,0.5,1.5,1.6,2.1l1.5,0.7c0.4,0.1,0.6,0.4,0.6,0.7c0,0.4-0.4,0.7-1.3,0.7c-0.6,0-1.3-0.1-2.2-0.4
			v1.5c0.4,0.1,0.8,0.2,1.3,0.2c0.5,0.1,0.8,0.1,1.1,0.1c1,0,1.8-0.2,2.3-0.7c0.6-0.4,0.9-1,0.9-1.7c0-0.9-0.5-1.6-1.6-2.1l-1.3-0.6
			c-0.3-0.1-0.5-0.2-0.6-0.3c-0.1-0.1-0.2-0.2-0.2-0.3c0-0.4,0.4-0.6,1.1-0.6c0.4,0,0.7,0,1,0.1c0.3,0,0.6,0.1,1,0.3L56.1,20.8
			L56.1,20.8z M59.9,20.8h-2.1v7.3h2.1V20.8z M67.1,20.8h-5.4v7.3h5.4v-1.4h-3.3V25h2.9v-1.2h-2.9v-1.6h3.3V20.8z M77.4,20.8h-2.6
			l-1.9,4.5L71,20.8h-2.7v7.3h1.4v-4.8l2,4.8h1.4l2.1-4.8v4.8h2.1V20.8L77.4,20.8z M84.5,20.8h-5.4v7.3h5.5v-1.4h-3.4V25h2.9v-1.2
			h-2.9v-1.6h3.3V20.8z M92.3,20.8h-1.4v4.6l-2.6-4.6h-2.4v7.3h1.5v-4.7l2.6,4.7h2.3V20.8z M98.7,20.8c-0.7-0.2-1.4-0.2-2.1-0.2
			c-1,0-1.7,0.2-2.2,0.6c-0.5,0.4-0.8,0.9-0.8,1.6c0,0.9,0.5,1.6,1.6,2.1l1.5,0.7c0.2,0.1,0.4,0.2,0.5,0.3c0.1,0.1,0.1,0.2,0.1,0.3
			c0,0.4-0.4,0.7-1.2,0.7c-0.5,0-1.3-0.1-2.3-0.4v1.5c0.3,0.1,0.8,0.1,1.3,0.2c0.5,0.1,0.9,0.1,1.2,0.1c1,0,1.7-0.2,2.3-0.6
			c0.6-0.4,0.9-1,0.9-1.7c0-0.5-0.1-0.9-0.4-1.2c-0.3-0.4-0.7-0.7-1.2-0.9l-1.3-0.6c-0.4-0.2-0.7-0.4-0.7-0.7c0-0.4,0.4-0.6,1.2-0.6
			c0.3,0,0.7,0,1,0.1c0.3,0,0.6,0.1,1,0.3V20.8z"/>
	</g>
</g>
<g id="Typo">
	<g>
		<polyline fill-rule="evenodd" clip-rule="evenodd" points="270.5,42.3 270.5,52.6 268.8,52.6 268.8,48.5 254.7,48.5 254.7,46.4 
			268.8,46.4 268.8,42.3 270.5,42.3 		"/>
		<path fill-rule="evenodd" clip-rule="evenodd" d="M256,58c0,1.1,0.3,1.8,0.9,2.2c0.6,0.5,1.8,0.8,3.5,0.8c1.7,0,3.5,0,5.3,0
			c1.1,0,2-0.2,2.5-0.8c0.6-0.5,0.9-1.2,0.9-2.2c0-0.9-0.3-1.7-0.9-2.1c-0.6-0.5-1.4-0.8-2.5-0.8c-1.7,0-3.5,0-5.3,0
			c-1.7,0-2.8,0.3-3.5,0.8C256.3,56.3,256,57,256,58 M254.3,58c0-1.7,0.5-3,1.4-3.8c0.9-0.8,2.5-1.2,4.7-1.2c1.7,0,3.4,0,5.2,0
			c1.6,0,2.9,0.4,3.8,1.3c0.9,0.8,1.3,2.1,1.3,3.7c0,1.7-0.4,2.9-1.3,3.8c-0.9,0.9-2.2,1.3-3.8,1.3c-1.7,0-3.4,0-5.2,0
			c-2.1,0-3.7-0.4-4.7-1.2C254.8,61,254.3,59.8,254.3,58z"/>
		<path fill-rule="evenodd" clip-rule="evenodd" d="M260.5,64.8c3.3,0,6.7,0,10,0c0,0.7,0,1.3,0,2c-3.4,0-6.7,0-10.1,0
			c-1.7,0-2.8,0.3-3.5,0.8c-0.6,0.4-0.9,1.2-0.9,2.2c0,1.1,0.3,1.8,0.9,2.3c0.6,0.5,1.8,0.8,3.5,0.8c3.4,0,6.7,0,10.1,0
			c0,0.7,0,1.3,0,2c-3.3,0-6.7,0-10,0c-2.1,0-3.7-0.4-4.7-1.3c-1-0.8-1.5-2.1-1.5-3.8c0-1.7,0.5-3,1.4-3.8
			C256.7,65.2,258.3,64.8,260.5,64.8"/>
		<path fill-rule="evenodd" clip-rule="evenodd" d="M266.1,85.8c0-0.7,0-1.3,0-2.1c0.8,0,1.3,0,1.6-0.1c0.3-0.1,0.5-0.2,0.8-0.4
			c0.2-0.2,0.4-0.4,0.5-0.8c0.1-0.4,0.2-0.7,0.2-0.9c0-0.7-0.2-1.3-0.5-1.8c-0.2-0.4-0.4-0.5-0.7-0.6c-0.4-0.2-0.8-0.3-1.1-0.3
			c-0.6-0.1-1.3-0.1-2.2-0.1c-1.4,0-2.8,0-4.3,0c-1.8,0-3,0.3-3.6,0.9c-0.5,0.4-0.7,1.1-0.7,2c0,0.8,0.3,1.4,0.9,1.8
			c0.6,0.4,1.4,0.6,2.5,0.6c0,0.7,0,1.4,0,2.1c-1.7,0-2.9-0.4-3.8-1.2c-0.8-0.7-1.3-1.8-1.3-3.3c0-1.5,0.3-2.5,0.9-3.2
			c0.9-1.2,2.7-1.8,5.4-1.8c1.5,0,3,0,4.5,0c2.1,0,3.6,0.4,4.6,1.4c0.8,0.8,1.2,2,1.2,3.7c0,1.6-0.4,2.6-1.2,3.3
			C268.9,85.5,267.7,85.8,266.1,85.8"/>
		<polyline fill-rule="evenodd" clip-rule="evenodd" points="254.7,87.4 270.5,87.4 270.5,89.5 263.7,89.5 263.7,95.1 270.5,95.1 
			270.5,97.1 254.7,97.1 254.7,95.1 261.9,95.1 261.9,89.5 254.7,89.5 254.7,87.4 		"/>
	</g>
	<g>
		<text transform="matrix(1.05 0 0 1 64.8486 187.2373)" font-family="'SiemensSans-Roman'" font-size="6.7334">F1</text>
		<text transform="matrix(1.05 0 0 1 113.4321 187.2373)" font-family="'SiemensSans-Roman'" font-size="6.7334">F2</text>
		<text transform="matrix(1.05 0 0 1 162.0156 187.2373)" font-family="'SiemensSans-Roman'" font-size="6.7334">F3</text>
		<text transform="matrix(1.05 0 0 1 210.5991 187.2373)" font-family="'SiemensSans-Roman'" font-size="6.7334">F4</text>
	</g>
	<g id="Name_1_">
		<text transform="matrix(0.9964 0 0 1 176.501 28.8745)" fill="#FFFFFF" font-family="'SiemensSans-Roman'" font-size="13.7383">SIMATIC HMI</text>
	</g>
</g>
</svg>
