<?xml version="1.0" encoding="utf-8"?>

<!-- Copyright 2016 Siemens AG -->

<!-- Generator: Adobe Illustrator 16.0.4, SVG Export Plug-In . SVG Version: 6.00 Build 0)  -->
<!DOCTYPE svg PUBLIC "-//W3C//DTD SVG 1.1//EN" "http://www.w3.org/Graphics/SVG/1.1/DTD/svg11.dtd">
<svg version="1.1" id="Flame_2" xmlns="http://www.w3.org/2000/svg" xmlns:xlink="http://www.w3.org/1999/xlink" x="0px" y="0px"
	 width="117px" height="300px" viewBox="0 0 117 300" enable-background="new 0 0 117 300" xml:space="preserve">
<linearGradient id="Shape_1_" gradientUnits="userSpaceOnUse" x1="58.4497" y1="2.1074" x2="58.4497" y2="298.6361">
	<stop  offset="0" style="stop-color:#FFED00"/>
	<stop  offset="0.138" style="stop-color:#FFEA00"/>
	<stop  offset="0.2432" style="stop-color:#FFE000"/>
	<stop  offset="0.3374" style="stop-color:#FFD000"/>
	<stop  offset="0.4248" style="stop-color:#FFB900"/>
	<stop  offset="0.4944" style="stop-color:#FFA100"/>
	<stop  offset="0.57" style="stop-color:#FF9700"/>
	<stop  offset="0.6966" style="stop-color:#FF7E00"/>
	<stop  offset="0.8577" style="stop-color:#FF5400"/>
	<stop  offset="1" style="stop-color:#FF2900"/>
</linearGradient>
<path id="Shape" fill="url(#Shape_1_)" stroke="#FFA100" stroke-width="0.75" stroke-linecap="round" stroke-linejoin="round" stroke-miterlimit="10" d="
	M110.5,148.3c-5.6-24.5-12.8-33.8-17.7-42.7C81,84.5,93.1,68,91.6,69.2c-9.2,7.4-16.5,18-11.7,36c3.8,14.3-4.8,31-13,28.9
	c-9-2.4-14.9-27.6,1.8-51.2C96.1,44,47.6,2.1,47.6,2.1c18.3,33.2,7.2,67.3-8.9,67.3c-24.2,0-6.9-41.8-6.9-41.8
	c-37.7,30.9-34.3,63.8-16.6,89c31.5,44.8-55.6,66.5,36.7,181.4C114,246.4,121.1,209.8,110.5,148.3z"/>
</svg>
