<?xml version="1.0" encoding="utf-8"?>

<!-- Copyright 2016 Siemens AG -->

<!-- Generator: Adobe Illustrator 16.0.4, SVG Export Plug-In . SVG Version: 6.00 Build 0)  -->
<!DOCTYPE svg PUBLIC "-//W3C//DTD SVG 1.1//EN" "http://www.w3.org/Graphics/SVG/1.1/DTD/svg11.dtd">
<svg version="1.1" id="Smoke_1" xmlns="http://www.w3.org/2000/svg" xmlns:xlink="http://www.w3.org/1999/xlink" x="0px" y="0px"
	 width="300px" height="279px" viewBox="0 0 300 279" enable-background="new 0 0 300 279" xml:space="preserve">
<radialGradient id="Shape_Smoke_1_" cx="152.2915" cy="105.9756" r="231.7912" fx="151.9018" fy="106.1315" gradientUnits="userSpaceOnUse">
	<stop  offset="0" style="stop-color:#FFFFFF"/>
	<stop  offset="1" style="stop-color:#7C7C7B"/>
</radialGradient>
<path id="Shape_Smoke" fill="url(#Shape_Smoke_1_)" stroke="#8C8C91" stroke-width="0.75" stroke-linecap="round" stroke-linejoin="round" stroke-miterlimit="10" d="
	M193.9,276.7H131c0,0-25.9-37-11.1-40.7c-14.8-59.2-44.4-74-44.4-74S53,148,71.5,136.8c0-11.1-36.9,12.2-24.3-12.7
	c-76.4,0.7-40.7-63.9,1.4-58.5C32.4,45.1,85.6-1,96.7,32.3c4.3-26.6,52.8-33.6,66.6-28.1c20.4,8.1,28.4,26.4,22.3,38.6
	c14.7-69.7,173.9-3.9,81.3,22.8c-29.6,7.4,88.8,3.7-7.9,45c11.1,22.2,4.2,29.1-24.2,36.5c17.3,3.7-36.1,33.9-30.8,44.4
	c11.1,22.2,0,44.4-7.4,44.4C204,250.8,193.9,276.7,193.9,276.7z"/>
<g id="Smoke_Shadows">
	<path id="Right" fill="#8C8C91" d="M190.2,143.4c3.7,3.7,11.1,25.9,44.4-3.7C234.6,139.7,205,154.5,190.2,143.4z"/>
	<path id="_x33_" fill="#8C8C91" d="M134.7,99c3.7,3.7,11.1,25.9,44.4-3.7C179.1,95.3,149.5,110.1,134.7,99z"/>
	<path id="_x32_" fill="#8C8C91" d="M93.9,99.5c3.7,3.7,14.8,40.7,66.6-3.7C160.6,95.8,127.3,121.7,93.9,99.5z"/>
	<path id="Left" fill="#8C8C91" d="M64.3,99c3.7,3.7,7.4,33.3,40.7,3.7C105.1,102.7,79.1,117.5,64.3,99z"/>
</g>
</svg>
