<?xml version="1.0" encoding="utf-8"?>

<!-- Copyright 2016 Siemens AG -->

<!-- Generator: Adobe Illustrator 16.0.4, SVG Export Plug-In . SVG Version: 6.00 Build 0)  -->
<!DOCTYPE svg PUBLIC "-//W3C//DTD SVG 1.1//EN" "http://www.w3.org/Graphics/SVG/1.1/DTD/svg11.dtd">
<svg version="1.1" id="Gas_Pump" xmlns="http://www.w3.org/2000/svg" xmlns:xlink="http://www.w3.org/1999/xlink" x="0px" y="0px"
	 width="300px" height="200px" viewBox="0 0 300 200" enable-background="new 0 0 300 200" xml:space="preserve">
<g id="Container">
	<g id="Container_1_">
		<linearGradient id="Shape_18_" gradientUnits="userSpaceOnUse" x1="178.6758" y1="11.4551" x2="178.6758" y2="170.1182">
			<stop  offset="0" style="stop-color:#A5A5A5"/>
			<stop  offset="4.758149e-02" style="stop-color:#B5B5B5"/>
			<stop  offset="0.1509" style="stop-color:#D3D3D3"/>
			<stop  offset="0.2395" style="stop-color:#E5E5E5"/>
			<stop  offset="0.3025" style="stop-color:#ECECEC"/>
			<stop  offset="0.4074" style="stop-color:#E8E8E8"/>
			<stop  offset="0.514" style="stop-color:#DCDCDC"/>
			<stop  offset="0.6214" style="stop-color:#C7C7C7"/>
			<stop  offset="0.7294" style="stop-color:#ABABAB"/>
			<stop  offset="0.8378" style="stop-color:#868686"/>
			<stop  offset="0.9452" style="stop-color:#5A5A5A"/>
			<stop  offset="1" style="stop-color:#404040"/>
		</linearGradient>
		
			<rect id="Shape_17_" x="76.5" y="10.6" fill="url(#Shape_18_)" stroke="#8C8C91" stroke-width="0.75" stroke-linejoin="round" stroke-miterlimit="10" width="204.4" height="160.1"/>
		<linearGradient id="Reflection_6_" gradientUnits="userSpaceOnUse" x1="178.6221" y1="26.752" x2="178.6221" y2="40.2885">
			<stop  offset="0" style="stop-color:#F2F2F2;stop-opacity:0.4"/>
			<stop  offset="1" style="stop-color:#F7F7F7;stop-opacity:0.7"/>
		</linearGradient>
		<rect id="Reflection_5_" x="77.3" y="27" fill="url(#Reflection_6_)" width="202.7" height="27.5"/>
	</g>
	<g id="Pipe_Right">
		<linearGradient id="Shape_20_" gradientUnits="userSpaceOnUse" x1="292.9551" y1="55.2759" x2="292.9551" y2="127.191">
			<stop  offset="0" style="stop-color:#A5A5A5"/>
			<stop  offset="4.758149e-02" style="stop-color:#B5B5B5"/>
			<stop  offset="0.1509" style="stop-color:#D3D3D3"/>
			<stop  offset="0.2395" style="stop-color:#E5E5E5"/>
			<stop  offset="0.3025" style="stop-color:#ECECEC"/>
			<stop  offset="0.4074" style="stop-color:#E8E8E8"/>
			<stop  offset="0.514" style="stop-color:#DCDCDC"/>
			<stop  offset="0.6214" style="stop-color:#C7C7C7"/>
			<stop  offset="0.7294" style="stop-color:#ABABAB"/>
			<stop  offset="0.8378" style="stop-color:#868686"/>
			<stop  offset="0.9452" style="stop-color:#5A5A5A"/>
			<stop  offset="1" style="stop-color:#404040"/>
		</linearGradient>
		
			<rect id="Shape_16_" x="288.2" y="54" fill="url(#Shape_20_)" stroke="#8C8C91" stroke-width="0.75" stroke-linejoin="round" stroke-miterlimit="10" width="9.6" height="73.2"/>
		<linearGradient id="Reflection_7_" gradientUnits="userSpaceOnUse" x1="292.9385" y1="61.7866" x2="292.9385" y2="66.8745">
			<stop  offset="0" style="stop-color:#F2F2F2;stop-opacity:0.4"/>
			<stop  offset="1" style="stop-color:#F7F7F7;stop-opacity:0.7"/>
		</linearGradient>
		<rect id="Reflection_4_" x="288.9" y="61.5" fill="url(#Reflection_7_)" width="8.1" height="12.5"/>
	</g>
	<linearGradient id="Structure_Right_1_" gradientUnits="userSpaceOnUse" x1="284.5215" y1="14.2349" x2="284.5215" y2="165.6743">
		<stop  offset="0" style="stop-color:#A5A5A5"/>
		<stop  offset="8.870660e-02" style="stop-color:#B6B6B6"/>
		<stop  offset="0.2135" style="stop-color:#C8C8C8"/>
		<stop  offset="0.3025" style="stop-color:#CFCFCE"/>
		<stop  offset="0.4177" style="stop-color:#CBCBCA"/>
		<stop  offset="0.5347" style="stop-color:#BFBFBE"/>
		<stop  offset="0.6526" style="stop-color:#AAAAAA"/>
		<stop  offset="0.7711" style="stop-color:#8E8E8D"/>
		<stop  offset="0.8889" style="stop-color:#696969"/>
		<stop  offset="1" style="stop-color:#404040"/>
	</linearGradient>
	
		<polygon id="Structure_Right" fill="url(#Structure_Right_1_)" stroke="#8C8C91" stroke-width="0.75" stroke-linejoin="round" stroke-miterlimit="10" points="
		288.2,165.6 280.9,170.7 280.9,10.6 288.2,15.7 	"/>
	<g id="Ring_Right">
		<linearGradient id="Shape_21_" gradientUnits="userSpaceOnUse" x1="263.5674" y1="10.0688" x2="263.5674" y2="159.7016">
			<stop  offset="0" style="stop-color:#A5A5A5"/>
			<stop  offset="7.963187e-03" style="stop-color:#A7A7A7"/>
			<stop  offset="0.1273" style="stop-color:#C5C5C5"/>
			<stop  offset="0.2297" style="stop-color:#D7D7D7"/>
			<stop  offset="0.3025" style="stop-color:#DEDEDE"/>
			<stop  offset="0.412" style="stop-color:#DADADA"/>
			<stop  offset="0.5233" style="stop-color:#CECECE"/>
			<stop  offset="0.6354" style="stop-color:#B9B9B9"/>
			<stop  offset="0.7481" style="stop-color:#9D9D9D"/>
			<stop  offset="0.8613" style="stop-color:#787878"/>
			<stop  offset="0.9734" style="stop-color:#4C4C4C"/>
			<stop  offset="1" style="stop-color:#404040"/>
		</linearGradient>
		
			<rect id="Shape_15_" x="260.6" y="6" fill="url(#Shape_21_)" stroke="#8C8C91" stroke-width="0.75" stroke-linejoin="round" stroke-miterlimit="10" width="5.9" height="169.3"/>
		<linearGradient id="Reflection_8_" gradientUnits="userSpaceOnUse" x1="263.5664" y1="25.8604" x2="263.5664" y2="34.3172">
			<stop  offset="0" style="stop-color:#F2F2F2;stop-opacity:0.4"/>
			<stop  offset="1" style="stop-color:#F7F7F7;stop-opacity:0.7"/>
		</linearGradient>
		<rect id="Reflection_3_" x="261.4" y="23.3" fill="url(#Reflection_8_)" width="4.4" height="28.9"/>
	</g>
	<g id="Structure_Left">
		<linearGradient id="Shape_22_" gradientUnits="userSpaceOnUse" x1="72.8306" y1="12.4663" x2="72.8306" y2="168.0029">
			<stop  offset="0" style="stop-color:#A5A5A5"/>
			<stop  offset="4.758149e-02" style="stop-color:#B5B5B5"/>
			<stop  offset="0.1509" style="stop-color:#D3D3D3"/>
			<stop  offset="0.2395" style="stop-color:#E5E5E5"/>
			<stop  offset="0.3025" style="stop-color:#ECECEC"/>
			<stop  offset="0.4074" style="stop-color:#E8E8E8"/>
			<stop  offset="0.514" style="stop-color:#DCDCDC"/>
			<stop  offset="0.6214" style="stop-color:#C7C7C7"/>
			<stop  offset="0.7294" style="stop-color:#ABABAB"/>
			<stop  offset="0.8378" style="stop-color:#868686"/>
			<stop  offset="0.9452" style="stop-color:#5A5A5A"/>
			<stop  offset="1" style="stop-color:#404040"/>
		</linearGradient>
		
			<polygon id="Shape_14_" fill="url(#Shape_22_)" stroke="#8C8C91" stroke-width="0.75" stroke-linejoin="round" stroke-miterlimit="10" points="
			69.2,165.6 76.5,170.7 76.5,10.6 69.2,15.7 		"/>
		<polygon id="Reflection_2_" fill="#FFFFFF" points="70,31.1 70,56.6 75.7,54.5 75.7,27 		"/>
	</g>
	
		<linearGradient id="Transport_Hooks_1_" gradientUnits="userSpaceOnUse" x1="-206.3721" y1="-168.5596" x2="557.2101" y2="192.4901">
		<stop  offset="0" style="stop-color:#FFFFFF"/>
		<stop  offset="1" style="stop-color:#7C7C7B"/>
	</linearGradient>
	
		<path id="Transport_Hooks" fill="url(#Transport_Hooks_1_)" stroke="#8C8C91" stroke-width="0.75" stroke-linecap="round" stroke-linejoin="round" stroke-miterlimit="10" d="
		M85.7,10.6H80c0,0,1.5-7.8,5.9-7.8c4.4,0,7.7,0,7.7,0l8.6,7.8h-8.8V5.9h-7.8V10.6z M248.1,10.6h5.7c0,0-1.5-7.8-5.9-7.8
		c-4.4,0-7.7,0-7.7,0l-8.6,7.8h8.8V5.9h7.8V10.6z"/>
</g>
<g id="Pump_Connection">
	<g id="Housing">
		<linearGradient id="Shape_23_" gradientUnits="userSpaceOnUse" x1="25.3833" y1="52.1782" x2="25.3833" y2="72.4701">
			<stop  offset="0" style="stop-color:#A5A5A5"/>
			<stop  offset="4.758149e-02" style="stop-color:#B5B5B5"/>
			<stop  offset="0.1509" style="stop-color:#D3D3D3"/>
			<stop  offset="0.2395" style="stop-color:#E5E5E5"/>
			<stop  offset="0.3025" style="stop-color:#ECECEC"/>
			<stop  offset="0.5563" style="stop-color:#E8E8E8"/>
			<stop  offset="0.8136" style="stop-color:#DCDCDC"/>
			<stop  offset="1" style="stop-color:#CFCFCE"/>
		</linearGradient>
		
			<rect id="Shape_13_" x="2.4" y="51.4" fill="url(#Shape_23_)" stroke="#8C8C91" stroke-width="0.75" stroke-linecap="round" stroke-linejoin="round" stroke-miterlimit="10" width="46" height="102.6"/>
		<linearGradient id="Reflection_9_" gradientUnits="userSpaceOnUse" x1="25.3267" y1="56.3286" x2="25.3267" y2="57.994">
			<stop  offset="0" style="stop-color:#F2F2F2;stop-opacity:0.4"/>
			<stop  offset="1" style="stop-color:#F7F7F7;stop-opacity:0.7"/>
		</linearGradient>
		<rect id="Reflection_1_" x="3.1" y="55.6" fill="url(#Reflection_9_)" width="44.5" height="7"/>
	</g>
	<g id="Struts__x2B__Pipe">
		<linearGradient id="Shape_Pipe_1_" gradientUnits="userSpaceOnUse" x1="56.5381" y1="69.9502" x2="56.5381" y2="111.1577">
			<stop  offset="0" style="stop-color:#A5A5A5"/>
			<stop  offset="4.758149e-02" style="stop-color:#B5B5B5"/>
			<stop  offset="0.1509" style="stop-color:#D3D3D3"/>
			<stop  offset="0.2395" style="stop-color:#E5E5E5"/>
			<stop  offset="0.3025" style="stop-color:#ECECEC"/>
			<stop  offset="0.4074" style="stop-color:#E8E8E8"/>
			<stop  offset="0.514" style="stop-color:#DCDCDC"/>
			<stop  offset="0.6214" style="stop-color:#C7C7C7"/>
			<stop  offset="0.7294" style="stop-color:#ABABAB"/>
			<stop  offset="0.8378" style="stop-color:#868686"/>
			<stop  offset="0.9452" style="stop-color:#5A5A5A"/>
			<stop  offset="1" style="stop-color:#404040"/>
		</linearGradient>
		
			<rect id="Shape_Pipe" x="48.4" y="69.6" fill="url(#Shape_Pipe_1_)" stroke="#8C8C91" stroke-width="0.75" stroke-linecap="round" stroke-linejoin="round" stroke-miterlimit="10" width="16.3" height="42.1"/>
		
			<polygon id="Strut_Front_3" fill="#646567" stroke="#646567" stroke-width="0.75" stroke-linecap="round" stroke-linejoin="round" stroke-miterlimit="10" points="
			48.4,119.8 64.7,119.8 64.7,127.2 48.4,122.7 		"/>
		<linearGradient id="Strut_Front_2_1_" gradientUnits="userSpaceOnUse" x1="83.1641" y1="90.6587" x2="46.4688" y2="90.6587">
			<stop  offset="0" style="stop-color:#FFFFFF"/>
			<stop  offset="1" style="stop-color:#7C7C7B"/>
		</linearGradient>
		
			<rect id="Strut_Front_2" x="48.4" y="84.5" fill="url(#Strut_Front_2_1_)" stroke="#8C8C91" stroke-width="0.75" stroke-linecap="round" stroke-linejoin="round" stroke-miterlimit="10" width="16.3" height="12.3"/>
		<linearGradient id="Strut_Front_1_1_" gradientUnits="userSpaceOnUse" x1="80.2393" y1="57.8062" x2="36.7437" y2="57.8061">
			<stop  offset="0" style="stop-color:#FFFFFF"/>
			<stop  offset="1" style="stop-color:#7C7C7B"/>
		</linearGradient>
		
			<polygon id="Strut_Front_1" fill="url(#Strut_Front_1_1_)" stroke="#8C8C91" stroke-width="0.75" stroke-linecap="round" stroke-linejoin="round" stroke-miterlimit="10" points="
			48.4,61.5 64.7,61.5 64.7,54.1 48.4,58.6 		"/>
		<polygon id="Shadow" fill="#646567" stroke="#646567" stroke-width="0.75" stroke-miterlimit="10" points="64.7,95.9 48.4,92.7 
			48.4,91.8 64.7,91.8 		"/>
		<linearGradient id="Struts_Side_1_" gradientUnits="userSpaceOnUse" x1="64.9316" y1="90.3506" x2="42.2927" y2="90.3506">
			<stop  offset="0" style="stop-color:#FFFFFF"/>
			<stop  offset="1" style="stop-color:#7C7C7B"/>
		</linearGradient>
		
			<path id="Struts_Side" fill="url(#Struts_Side_1_)" stroke="#8C8C91" stroke-width="0.75" stroke-linecap="round" stroke-linejoin="round" stroke-miterlimit="10" d="
			M64.7,63.9H48.4v-2.4h16.3V63.9z M64.7,88.9H48.4v2.4h16.3V88.9z M64.7,116.8H48.4v2.4h16.3V116.8z"/>
	</g>
	<g id="Flange_Container">
		<g id="Fixing_2_">
			<g id="Nut_5">
				<linearGradient id="Shape_24_" gradientUnits="userSpaceOnUse" x1="62.4766" y1="126.8145" x2="64.7017" y2="126.8145">
					<stop  offset="0" style="stop-color:#FFFFFF"/>
					<stop  offset="1" style="stop-color:#7C7C7B"/>
				</linearGradient>
				
					<rect id="Shape_9_" x="62.5" y="124.2" fill="url(#Shape_24_)" stroke="#575756" stroke-width="0.75" stroke-linecap="round" stroke-linejoin="round" stroke-miterlimit="10" width="2.2" height="5.3"/>
				
					<linearGradient id="Shape_Side_Underneath_6_" gradientUnits="userSpaceOnUse" x1="58.2539" y1="129.4531" x2="63.4646" y2="129.4531">
					<stop  offset="0" style="stop-color:#FFFFFF"/>
					<stop  offset="1" style="stop-color:#7C7C7B"/>
				</linearGradient>
				
					<path id="Shape_Side_Underneath_4_" fill="url(#Shape_Side_Underneath_6_)" stroke="#575756" stroke-width="0.75" stroke-linecap="round" stroke-linejoin="round" stroke-miterlimit="10" d="
					M64.2,130.3c0.3,0,0.5-0.4,0.5-0.8c0-0.5-0.2-0.8-0.5-0.8H63c-0.3,0-0.5,0.4-0.5,0.8c0,0.5,0.2,0.8,0.5,0.8H64.2z"/>
				
					<linearGradient id="Shape_Side_Middle_13_" gradientUnits="userSpaceOnUse" x1="60.0044" y1="126.814" x2="66.6969" y2="126.814">
					<stop  offset="0" style="stop-color:#FFFFFF"/>
					<stop  offset="1" style="stop-color:#7C7C7B"/>
				</linearGradient>
				
					<path id="Shape_Side_Middle_6_" fill="url(#Shape_Side_Middle_13_)" stroke="#575756" stroke-width="0.75" stroke-linecap="round" stroke-linejoin="round" stroke-miterlimit="10" d="
					M64.2,128.6c0.3,0,0.5-0.8,0.5-1.8s-0.2-1.8-0.5-1.8H63c-0.3,0-0.5,0.8-0.5,1.8s0.2,1.8,0.5,1.8H64.2z"/>
				
					<path id="Shape_Side_Top_4_" fill="#DEDEDE" stroke="#575756" stroke-width="0.75" stroke-linecap="round" stroke-linejoin="round" stroke-miterlimit="10" d="
					M64.2,125c0.3,0,0.5-0.4,0.5-0.8c0-0.5-0.2-0.8-0.5-0.8H63c-0.3,0-0.5,0.4-0.5,0.8c0,0.5,0.2,0.8,0.5,0.8H64.2z"/>
			</g>
			<g id="Nut_4">
				<linearGradient id="Shape_25_" gradientUnits="userSpaceOnUse" x1="62.4766" y1="110.2949" x2="64.7017" y2="110.2949">
					<stop  offset="0" style="stop-color:#FFFFFF"/>
					<stop  offset="1" style="stop-color:#7C7C7B"/>
				</linearGradient>
				
					<rect id="Shape_5_" x="62.5" y="107.7" fill="url(#Shape_25_)" stroke="#575756" stroke-width="0.75" stroke-linecap="round" stroke-linejoin="round" stroke-miterlimit="10" width="2.2" height="5.3"/>
				
					<linearGradient id="Shape_Side_Underneath_7_" gradientUnits="userSpaceOnUse" x1="58.2539" y1="112.9336" x2="63.4646" y2="112.9336">
					<stop  offset="0" style="stop-color:#FFFFFF"/>
					<stop  offset="1" style="stop-color:#7C7C7B"/>
				</linearGradient>
				
					<path id="Shape_Side_Underneath_2_" fill="url(#Shape_Side_Underneath_7_)" stroke="#575756" stroke-width="0.75" stroke-linecap="round" stroke-linejoin="round" stroke-miterlimit="10" d="
					M64.2,113.8c0.3,0,0.5-0.4,0.5-0.8c0-0.5-0.2-0.8-0.5-0.8H63c-0.3,0-0.5,0.4-0.5,0.8c0,0.5,0.2,0.8,0.5,0.8H64.2z"/>
				
					<linearGradient id="Shape_Side_Middle_14_" gradientUnits="userSpaceOnUse" x1="60.0044" y1="110.2944" x2="66.6969" y2="110.2944">
					<stop  offset="0" style="stop-color:#FFFFFF"/>
					<stop  offset="1" style="stop-color:#7C7C7B"/>
				</linearGradient>
				
					<path id="Shape_Side_Middle_3_" fill="url(#Shape_Side_Middle_14_)" stroke="#575756" stroke-width="0.75" stroke-linecap="round" stroke-linejoin="round" stroke-miterlimit="10" d="
					M64.2,112.1c0.3,0,0.5-0.8,0.5-1.8c0-1-0.2-1.8-0.5-1.8H63c-0.3,0-0.5,0.8-0.5,1.8c0,1,0.2,1.8,0.5,1.8H64.2z"/>
				
					<path id="Shape_Side_Top_2_" fill="#DEDEDE" stroke="#575756" stroke-width="0.75" stroke-linecap="round" stroke-linejoin="round" stroke-miterlimit="10" d="
					M64.2,108.5c0.3,0,0.5-0.4,0.5-0.8s-0.2-0.8-0.5-0.8H63c-0.3,0-0.5,0.4-0.5,0.8s0.2,0.8,0.5,0.8H64.2z"/>
			</g>
			<g id="Nut_3">
				<linearGradient id="Shape_26_" gradientUnits="userSpaceOnUse" x1="62.4766" y1="90.6582" x2="64.7017" y2="90.6582">
					<stop  offset="0" style="stop-color:#FFFFFF"/>
					<stop  offset="1" style="stop-color:#7C7C7B"/>
				</linearGradient>
				
					<rect id="Shape_6_" x="62.5" y="88" fill="url(#Shape_26_)" stroke="#575756" stroke-width="0.75" stroke-linecap="round" stroke-linejoin="round" stroke-miterlimit="10" width="2.2" height="5.3"/>
				
					<linearGradient id="Shape_Side_Underneath_8_" gradientUnits="userSpaceOnUse" x1="58.2539" y1="93.2974" x2="63.4646" y2="93.2974">
					<stop  offset="0" style="stop-color:#FFFFFF"/>
					<stop  offset="1" style="stop-color:#7C7C7B"/>
				</linearGradient>
				
					<path id="Shape_Side_Underneath_1_" fill="url(#Shape_Side_Underneath_8_)" stroke="#575756" stroke-width="0.75" stroke-linecap="round" stroke-linejoin="round" stroke-miterlimit="10" d="
					M64.2,94.1c0.3,0,0.5-0.4,0.5-0.8c0-0.5-0.2-0.8-0.5-0.8H63c-0.3,0-0.5,0.4-0.5,0.8c0,0.5,0.2,0.8,0.5,0.8H64.2z"/>
				
					<linearGradient id="Shape_Side_Middle_16_" gradientUnits="userSpaceOnUse" x1="60.0044" y1="90.6582" x2="66.6969" y2="90.6582">
					<stop  offset="0" style="stop-color:#FFFFFF"/>
					<stop  offset="1" style="stop-color:#7C7C7B"/>
				</linearGradient>
				
					<path id="Shape_Side_Middle_2_" fill="url(#Shape_Side_Middle_16_)" stroke="#575756" stroke-width="0.75" stroke-linecap="round" stroke-linejoin="round" stroke-miterlimit="10" d="
					M64.2,92.5c0.3,0,0.5-0.8,0.5-1.8s-0.2-1.8-0.5-1.8H63c-0.3,0-0.5,0.8-0.5,1.8s0.2,1.8,0.5,1.8H64.2z"/>
				
					<path id="Shape_Side_Top_1_" fill="#DEDEDE" stroke="#575756" stroke-width="0.75" stroke-linecap="round" stroke-linejoin="round" stroke-miterlimit="10" d="
					M64.2,88.9c0.3,0,0.5-0.4,0.5-0.8c0-0.5-0.2-0.8-0.5-0.8H63c-0.3,0-0.5,0.4-0.5,0.8c0,0.5,0.2,0.8,0.5,0.8H64.2z"/>
			</g>
			<g id="Nut_2">
				<linearGradient id="Shape_27_" gradientUnits="userSpaceOnUse" x1="62.4766" y1="71.022" x2="64.7017" y2="71.022">
					<stop  offset="0" style="stop-color:#FFFFFF"/>
					<stop  offset="1" style="stop-color:#7C7C7B"/>
				</linearGradient>
				
					<rect id="Shape_10_" x="62.5" y="68.4" fill="url(#Shape_27_)" stroke="#575756" stroke-width="0.75" stroke-linecap="round" stroke-linejoin="round" stroke-miterlimit="10" width="2.2" height="5.3"/>
				
					<linearGradient id="Shape_Side_Underneath_9_" gradientUnits="userSpaceOnUse" x1="58.2539" y1="73.6611" x2="63.4646" y2="73.6611">
					<stop  offset="0" style="stop-color:#FFFFFF"/>
					<stop  offset="1" style="stop-color:#7C7C7B"/>
				</linearGradient>
				
					<path id="Shape_Side_Underneath_5_" fill="url(#Shape_Side_Underneath_9_)" stroke="#575756" stroke-width="0.75" stroke-linecap="round" stroke-linejoin="round" stroke-miterlimit="10" d="
					M64.2,74.5c0.3,0,0.5-0.4,0.5-0.8c0-0.5-0.2-0.8-0.5-0.8H63c-0.3,0-0.5,0.4-0.5,0.8c0,0.5,0.2,0.8,0.5,0.8H64.2z"/>
				
					<linearGradient id="Shape_Side_Middle_17_" gradientUnits="userSpaceOnUse" x1="60.0044" y1="71.0215" x2="66.6969" y2="71.0215">
					<stop  offset="0" style="stop-color:#FFFFFF"/>
					<stop  offset="1" style="stop-color:#7C7C7B"/>
				</linearGradient>
				
					<path id="Shape_Side_Middle_7_" fill="url(#Shape_Side_Middle_17_)" stroke="#575756" stroke-width="0.75" stroke-linecap="round" stroke-linejoin="round" stroke-miterlimit="10" d="
					M64.2,72.8c0.3,0,0.5-0.8,0.5-1.8s-0.2-1.8-0.5-1.8H63c-0.3,0-0.5,0.8-0.5,1.8s0.2,1.8,0.5,1.8H64.2z"/>
				
					<path id="Shape_Side_Top_5_" fill="#DEDEDE" stroke="#575756" stroke-width="0.75" stroke-linecap="round" stroke-linejoin="round" stroke-miterlimit="10" d="
					M64.2,69.2c0.3,0,0.5-0.4,0.5-0.8c0-0.5-0.2-0.8-0.5-0.8H63c-0.3,0-0.5,0.4-0.5,0.8c0,0.5,0.2,0.8,0.5,0.8H64.2z"/>
			</g>
			<g id="Nut_1">
				<linearGradient id="Shape_28_" gradientUnits="userSpaceOnUse" x1="62.4766" y1="54.5215" x2="64.7017" y2="54.5215">
					<stop  offset="0" style="stop-color:#FFFFFF"/>
					<stop  offset="1" style="stop-color:#7C7C7B"/>
				</linearGradient>
				
					<rect id="Shape_8_" x="62.5" y="51.9" fill="url(#Shape_28_)" stroke="#575756" stroke-width="0.75" stroke-linecap="round" stroke-linejoin="round" stroke-miterlimit="10" width="2.2" height="5.3"/>
				
					<linearGradient id="Shape_Side_Underneath_10_" gradientUnits="userSpaceOnUse" x1="58.2539" y1="57.1602" x2="63.4646" y2="57.1602">
					<stop  offset="0" style="stop-color:#FFFFFF"/>
					<stop  offset="1" style="stop-color:#7C7C7B"/>
				</linearGradient>
				
					<path id="Shape_Side_Underneath_3_" fill="url(#Shape_Side_Underneath_10_)" stroke="#575756" stroke-width="0.75" stroke-linecap="round" stroke-linejoin="round" stroke-miterlimit="10" d="
					M64.2,58c0.3,0,0.5-0.4,0.5-0.8c0-0.5-0.2-0.8-0.5-0.8H63c-0.3,0-0.5,0.4-0.5,0.8c0,0.5,0.2,0.8,0.5,0.8H64.2z"/>
				<linearGradient id="Shape_Side_Middle_18_" gradientUnits="userSpaceOnUse" x1="60.0044" y1="54.521" x2="66.6969" y2="54.521">
					<stop  offset="0" style="stop-color:#FFFFFF"/>
					<stop  offset="1" style="stop-color:#7C7C7B"/>
				</linearGradient>
				
					<path id="Shape_Side_Middle_5_" fill="url(#Shape_Side_Middle_18_)" stroke="#575756" stroke-width="0.75" stroke-linecap="round" stroke-linejoin="round" stroke-miterlimit="10" d="
					M64.2,56.3c0.3,0,0.5-0.8,0.5-1.8s-0.2-1.8-0.5-1.8H63c-0.3,0-0.5,0.8-0.5,1.8s0.2,1.8,0.5,1.8H64.2z"/>
				
					<path id="Shape_Side_Top_3_" fill="#DEDEDE" stroke="#575756" stroke-width="0.75" stroke-linecap="round" stroke-linejoin="round" stroke-miterlimit="10" d="
					M64.2,52.7c0.3,0,0.5-0.4,0.5-0.8c0-0.5-0.2-0.8-0.5-0.8H63c-0.3,0-0.5,0.4-0.5,0.8c0,0.5,0.2,0.8,0.5,0.8H64.2z"/>
			</g>
		</g>
		<linearGradient id="Shape_29_" gradientUnits="userSpaceOnUse" x1="66.9399" y1="48.5137" x2="66.9399" y2="132.8572">
			<stop  offset="0" style="stop-color:#A5A5A5"/>
			<stop  offset="4.758149e-02" style="stop-color:#B5B5B5"/>
			<stop  offset="0.1509" style="stop-color:#D3D3D3"/>
			<stop  offset="0.2395" style="stop-color:#E5E5E5"/>
			<stop  offset="0.3025" style="stop-color:#ECECEC"/>
			<stop  offset="0.4074" style="stop-color:#E8E8E8"/>
			<stop  offset="0.514" style="stop-color:#DCDCDC"/>
			<stop  offset="0.6214" style="stop-color:#C7C7C7"/>
			<stop  offset="0.7294" style="stop-color:#ABABAB"/>
			<stop  offset="0.8378" style="stop-color:#868686"/>
			<stop  offset="0.9452" style="stop-color:#5A5A5A"/>
			<stop  offset="1" style="stop-color:#404040"/>
		</linearGradient>
		
			<rect id="Shape" x="64.7" y="47.9" fill="url(#Shape_29_)" stroke="#8C8C91" stroke-width="0.75" stroke-linejoin="round" stroke-miterlimit="10" width="4.5" height="85.4"/>
		<linearGradient id="Reflection_10_" gradientUnits="userSpaceOnUse" x1="66.9751" y1="57.3247" x2="66.9751" y2="64.1445">
			<stop  offset="0" style="stop-color:#F2F2F2;stop-opacity:0.4"/>
			<stop  offset="1" style="stop-color:#F7F7F7;stop-opacity:0.7"/>
		</linearGradient>
		<rect id="Reflection" x="65.4" y="56.7" fill="url(#Reflection_10_)" width="3.1" height="14.6"/>
	</g>
	<linearGradient id="Connection_Base_1_" gradientUnits="userSpaceOnUse" x1="25.3823" y1="176.0981" x2="25.3823" y2="134.111">
		<stop  offset="0" style="stop-color:#FFFFFF"/>
		<stop  offset="1" style="stop-color:#7C7C7B"/>
	</linearGradient>
	<path id="Connection_Base" fill="url(#Connection_Base_1_)" stroke="#8C8C91" stroke-width="0.75" stroke-miterlimit="10" d="
		M16.1,154v9.8h-2.9V154H16.1z M34.6,154v9.8h2.9V154H34.6z"/>
	<g id="Fixing_1_">
		<g id="Nut_Bottom_Right_1_">
			<linearGradient id="Shape_30_" gradientUnits="userSpaceOnUse" x1="42.6831" y1="153.6084" x2="42.6831" y2="157.3185">
				<stop  offset="0" style="stop-color:#FFFFFF"/>
				<stop  offset="1" style="stop-color:#7C7C7B"/>
			</linearGradient>
			
				<rect id="Shape_4_" x="40.7" y="154" fill="url(#Shape_30_)" stroke="#646567" stroke-width="0.75" stroke-linecap="round" stroke-linejoin="round" stroke-miterlimit="10" width="4" height="2"/>
			
				<linearGradient id="Shape_Side_Right_8_" gradientUnits="userSpaceOnUse" x1="-63.4072" y1="39.2217" x2="-58.8025" y2="39.2217" gradientTransform="matrix(0 -1 1 0 5.4463 96.3311)">
				<stop  offset="0" style="stop-color:#FFFFFF"/>
				<stop  offset="1" style="stop-color:#7C7C7B"/>
			</linearGradient>
			
				<path id="Shape_Side_Right_3_" fill="url(#Shape_Side_Right_8_)" stroke="#646567" stroke-width="0.75" stroke-linecap="round" stroke-linejoin="round" stroke-miterlimit="10" d="
				M45.3,154.5c0-0.2-0.3-0.4-0.6-0.4c-0.4,0-0.6,0.2-0.6,0.4v1.1c0,0.2,0.3,0.4,0.6,0.4c0.3,0,0.6-0.2,0.6-0.4V154.5z"/>
			
				<linearGradient id="Shape_Side_Middle_19_" gradientUnits="userSpaceOnUse" x1="40.3428" y1="152.7324" x2="45.1566" y2="157.4466">
				<stop  offset="0" style="stop-color:#FFFFFF"/>
				<stop  offset="1" style="stop-color:#7C7C7B"/>
			</linearGradient>
			
				<path id="Shape_Side_Middle_8_" fill="url(#Shape_Side_Middle_19_)" stroke="#646567" stroke-width="0.75" stroke-linecap="round" stroke-linejoin="round" stroke-miterlimit="10" d="
				M44,154.5c0-0.2-0.6-0.4-1.4-0.4c-0.7,0-1.4,0.2-1.4,0.4v1.1c0,0.2,0.6,0.4,1.4,0.4c0.7,0,1.4-0.2,1.4-0.4V154.5z"/>
			<linearGradient id="Shape_Side_Left_8_" gradientUnits="userSpaceOnUse" x1="40.4829" y1="154.7158" x2="42.3881" y2="157.433">
				<stop  offset="0" style="stop-color:#FFFFFF"/>
				<stop  offset="1" style="stop-color:#7C7C7B"/>
			</linearGradient>
			
				<path id="Shape_Side_Left_3_" fill="url(#Shape_Side_Left_8_)" stroke="#646567" stroke-width="0.75" stroke-linecap="round" stroke-linejoin="round" stroke-miterlimit="10" d="
				M41.3,154.5c0-0.2-0.3-0.4-0.6-0.4s-0.6,0.2-0.6,0.4v1.1c0,0.2,0.3,0.4,0.6,0.4s0.6-0.2,0.6-0.4V154.5z"/>
		</g>
		<g id="Nut_Bottom_Left_1_">
			<linearGradient id="Shape_31_" gradientUnits="userSpaceOnUse" x1="8.0825" y1="153.6084" x2="8.0825" y2="157.3185">
				<stop  offset="0" style="stop-color:#FFFFFF"/>
				<stop  offset="1" style="stop-color:#7C7C7B"/>
			</linearGradient>
			
				<rect id="Shape_11_" x="6.1" y="154" fill="url(#Shape_31_)" stroke="#646567" stroke-width="0.75" stroke-linecap="round" stroke-linejoin="round" stroke-miterlimit="10" width="4" height="2"/>
			
				<linearGradient id="Shape_Side_Right_9_" gradientUnits="userSpaceOnUse" x1="-63.4072" y1="4.6211" x2="-58.8025" y2="4.6211" gradientTransform="matrix(0 -1 1 0 5.4463 96.3311)">
				<stop  offset="0" style="stop-color:#FFFFFF"/>
				<stop  offset="1" style="stop-color:#7C7C7B"/>
			</linearGradient>
			
				<path id="Shape_Side_Right_4_" fill="url(#Shape_Side_Right_9_)" stroke="#646567" stroke-width="0.75" stroke-linecap="round" stroke-linejoin="round" stroke-miterlimit="10" d="
				M10.7,154.5c0-0.2-0.3-0.4-0.6-0.4c-0.4,0-0.6,0.2-0.6,0.4v1.1c0,0.2,0.3,0.4,0.6,0.4c0.3,0,0.6-0.2,0.6-0.4V154.5z"/>
			
				<linearGradient id="Shape_Side_Middle_20_" gradientUnits="userSpaceOnUse" x1="5.7432" y1="152.7324" x2="10.5553" y2="157.445">
				<stop  offset="0" style="stop-color:#FFFFFF"/>
				<stop  offset="1" style="stop-color:#7C7C7B"/>
			</linearGradient>
			
				<path id="Shape_Side_Middle_9_" fill="url(#Shape_Side_Middle_20_)" stroke="#646567" stroke-width="0.75" stroke-linecap="round" stroke-linejoin="round" stroke-miterlimit="10" d="
				M9.4,154.5c0-0.2-0.6-0.4-1.4-0.4c-0.7,0-1.4,0.2-1.4,0.4v1.1c0,0.2,0.6,0.4,1.4,0.4c0.7,0,1.4-0.2,1.4-0.4V154.5z"/>
			<linearGradient id="Shape_Side_Left_9_" gradientUnits="userSpaceOnUse" x1="5.8823" y1="154.7158" x2="7.7875" y2="157.433">
				<stop  offset="0" style="stop-color:#FFFFFF"/>
				<stop  offset="1" style="stop-color:#7C7C7B"/>
			</linearGradient>
			
				<path id="Shape_Side_Left_4_" fill="url(#Shape_Side_Left_9_)" stroke="#646567" stroke-width="0.75" stroke-linecap="round" stroke-linejoin="round" stroke-miterlimit="10" d="
				M6.7,154.5c0-0.2-0.3-0.4-0.6-0.4s-0.6,0.2-0.6,0.4v1.1c0,0.2,0.3,0.4,0.6,0.4s0.6-0.2,0.6-0.4V154.5z"/>
		</g>
		<g id="Nut_Top_Right_1_">
			<linearGradient id="Shape_32_" gradientUnits="userSpaceOnUse" x1="42.6831" y1="145.9321" x2="42.6831" y2="149.6414">
				<stop  offset="0" style="stop-color:#FFFFFF"/>
				<stop  offset="1" style="stop-color:#7C7C7B"/>
			</linearGradient>
			
				<rect id="Shape_2_" x="40.7" y="146.4" fill="url(#Shape_32_)" stroke="#646567" stroke-width="0.75" stroke-linecap="round" stroke-linejoin="round" stroke-miterlimit="10" width="4" height="2"/>
			
				<linearGradient id="Shape_Side_Right_10_" gradientUnits="userSpaceOnUse" x1="-55.729" y1="39.2217" x2="-51.1254" y2="39.2217" gradientTransform="matrix(0 -1 1 0 5.4463 96.3311)">
				<stop  offset="0" style="stop-color:#FFFFFF"/>
				<stop  offset="1" style="stop-color:#7C7C7B"/>
			</linearGradient>
			
				<path id="Shape_Side_Right_2_" fill="url(#Shape_Side_Right_10_)" stroke="#646567" stroke-width="0.75" stroke-linecap="round" stroke-linejoin="round" stroke-miterlimit="10" d="
				M45.3,146.8c0-0.2-0.3-0.4-0.6-0.4c-0.4,0-0.6,0.2-0.6,0.4v1.1c0,0.2,0.3,0.4,0.6,0.4c0.3,0,0.6-0.2,0.6-0.4V146.8z"/>
			
				<linearGradient id="Shape_Side_Middle_21_" gradientUnits="userSpaceOnUse" x1="40.3428" y1="145.0552" x2="45.1566" y2="149.7694">
				<stop  offset="0" style="stop-color:#FFFFFF"/>
				<stop  offset="1" style="stop-color:#7C7C7B"/>
			</linearGradient>
			
				<path id="Shape_Side_Middle_1_" fill="url(#Shape_Side_Middle_21_)" stroke="#646567" stroke-width="0.75" stroke-linecap="round" stroke-linejoin="round" stroke-miterlimit="10" d="
				M44,146.8c0-0.2-0.6-0.4-1.4-0.4c-0.7,0-1.4,0.2-1.4,0.4v1.1c0,0.2,0.6,0.4,1.4,0.4c0.7,0,1.4-0.2,1.4-0.4V146.8z"/>
			
				<linearGradient id="Shape_Side_Left_10_" gradientUnits="userSpaceOnUse" x1="40.4824" y1="147.0391" x2="42.3886" y2="149.7576">
				<stop  offset="0" style="stop-color:#FFFFFF"/>
				<stop  offset="1" style="stop-color:#7C7C7B"/>
			</linearGradient>
			
				<path id="Shape_Side_Left_2_" fill="url(#Shape_Side_Left_10_)" stroke="#646567" stroke-width="0.75" stroke-linecap="round" stroke-linejoin="round" stroke-miterlimit="10" d="
				M41.3,146.8c0-0.2-0.3-0.4-0.6-0.4s-0.6,0.2-0.6,0.4v1.1c0,0.2,0.3,0.4,0.6,0.4s0.6-0.2,0.6-0.4V146.8z"/>
		</g>
		<g id="Nut_Top_Left_1_">
			<linearGradient id="Shape_33_" gradientUnits="userSpaceOnUse" x1="8.0825" y1="145.9321" x2="8.0825" y2="149.6414">
				<stop  offset="0" style="stop-color:#FFFFFF"/>
				<stop  offset="1" style="stop-color:#7C7C7B"/>
			</linearGradient>
			
				<rect id="Shape_7_" x="6.1" y="146.4" fill="url(#Shape_33_)" stroke="#646567" stroke-width="0.75" stroke-linecap="round" stroke-linejoin="round" stroke-miterlimit="10" width="4" height="2"/>
			
				<linearGradient id="Shape_Side_Right_11_" gradientUnits="userSpaceOnUse" x1="-55.729" y1="4.6211" x2="-51.1254" y2="4.6211" gradientTransform="matrix(0 -1 1 0 5.4463 96.3311)">
				<stop  offset="0" style="stop-color:#FFFFFF"/>
				<stop  offset="1" style="stop-color:#7C7C7B"/>
			</linearGradient>
			
				<path id="Shape_Side_Right_5_" fill="url(#Shape_Side_Right_11_)" stroke="#646567" stroke-width="0.75" stroke-linecap="round" stroke-linejoin="round" stroke-miterlimit="10" d="
				M10.7,146.8c0-0.2-0.3-0.4-0.6-0.4c-0.4,0-0.6,0.2-0.6,0.4v1.1c0,0.2,0.3,0.4,0.6,0.4c0.3,0,0.6-0.2,0.6-0.4V146.8z"/>
			
				<linearGradient id="Shape_Side_Middle_22_" gradientUnits="userSpaceOnUse" x1="5.7437" y1="145.0562" x2="10.5558" y2="149.7687">
				<stop  offset="0" style="stop-color:#FFFFFF"/>
				<stop  offset="1" style="stop-color:#7C7C7B"/>
			</linearGradient>
			
				<path id="Shape_Side_Middle_4_" fill="url(#Shape_Side_Middle_22_)" stroke="#646567" stroke-width="0.75" stroke-linecap="round" stroke-linejoin="round" stroke-miterlimit="10" d="
				M9.4,146.8c0-0.2-0.6-0.4-1.4-0.4c-0.7,0-1.4,0.2-1.4,0.4v1.1c0,0.2,0.6,0.4,1.4,0.4c0.7,0,1.4-0.2,1.4-0.4V146.8z"/>
			<linearGradient id="Shape_Side_Left_11_" gradientUnits="userSpaceOnUse" x1="5.8818" y1="147.0391" x2="7.787" y2="149.7562">
				<stop  offset="0" style="stop-color:#FFFFFF"/>
				<stop  offset="1" style="stop-color:#7C7C7B"/>
			</linearGradient>
			
				<path id="Shape_Side_Left_5_" fill="url(#Shape_Side_Left_11_)" stroke="#646567" stroke-width="0.75" stroke-linecap="round" stroke-linejoin="round" stroke-miterlimit="10" d="
				M6.7,146.8c0-0.2-0.3-0.4-0.6-0.4s-0.6,0.2-0.6,0.4v1.1c0,0.2,0.3,0.4,0.6,0.4s0.6-0.2,0.6-0.4V146.8z"/>
		</g>
	</g>
	<linearGradient id="Base_Support_2_" gradientUnits="userSpaceOnUse" x1="-20.5674" y1="130.5684" x2="119.5826" y2="193.4502">
		<stop  offset="0" style="stop-color:#FFFFFF"/>
		<stop  offset="1" style="stop-color:#7C7C7B"/>
	</linearGradient>
	
		<rect id="Base_Support_1_" x="2.4" y="148.3" fill="url(#Base_Support_2_)" stroke="#8C8C91" stroke-width="0.75" stroke-linecap="round" stroke-linejoin="round" stroke-miterlimit="10" width="46" height="5.7"/>
	
		<line id="Reflection_Line" fill="none" stroke="#FFFFFF" stroke-width="0.75" stroke-miterlimit="10" x1="48" y1="151.7" x2="2.8" y2="151.7"/>
	
		<line id="Devider_Line" fill="none" stroke="#575756" stroke-width="0.75" stroke-miterlimit="10" x1="48" y1="150.9" x2="2.8" y2="150.9"/>
</g>
<g id="Base_Support">
	<linearGradient id="Support_Front_1_" gradientUnits="userSpaceOnUse" x1="-141.4033" y1="63.7793" x2="733.3553" y2="431.8479">
		<stop  offset="0" style="stop-color:#FFFFFF"/>
		<stop  offset="1" style="stop-color:#7C7C7B"/>
	</linearGradient>
	<path id="Support_Front" fill="url(#Support_Front_1_)" stroke="#8C8C91" stroke-width="0.75" stroke-miterlimit="10" d="
		M122.6,194.8H2.4v-28.1h120.2V194.8z M270.8,166.7h-36.1v28.1h36.1V166.7z"/>
	
		<path id="Shadows" fill="#7C7C7B" stroke="#7C7C7B" stroke-width="0.75" stroke-linecap="round" stroke-linejoin="round" stroke-miterlimit="10" d="
		M83.7,174.2H2.4v-7.5h81.3V174.2z M122.6,166.7H86.6v28.1H92v-20.5h30.7V166.7z M270.8,166.7h-36v28.1h5.4v-20.5h30.7V166.7z"/>
	
		<path id="Shadows_Container" fill="#646567" stroke="#646567" stroke-width="0.75" stroke-linecap="round" stroke-linejoin="round" stroke-miterlimit="10" d="
		M86.6,126.4V161H92C92,161,87.7,148.1,86.6,126.4z M234.7,126.4V161h5.4C240.2,161,235.9,148.1,234.7,126.4z M125.5,126.4v37.4h7.3
		C132.8,163.9,126.7,148.1,125.5,126.4z M273.6,126.4v37.4h6.5C280.2,163.9,274.8,148.1,273.6,126.4z"/>
	<g id="Fixing">
		<g id="Nut_Bottom_Right">
			<linearGradient id="Shape_34_" gradientUnits="userSpaceOnUse" x1="252.9121" y1="166.0811" x2="252.9121" y2="172.7449">
				<stop  offset="0" style="stop-color:#FFFFFF"/>
				<stop  offset="1" style="stop-color:#7C7C7B"/>
			</linearGradient>
			
				<rect id="Shape_3_" x="249.3" y="166.9" fill="url(#Shape_34_)" stroke="#646567" stroke-width="0.75" stroke-linecap="round" stroke-linejoin="round" stroke-miterlimit="10" width="7.1" height="3.5"/>
			
				<linearGradient id="Shape_Side_Right_13_" gradientUnits="userSpaceOnUse" x1="-80.7598" y1="251.0283" x2="-72.4891" y2="251.0283" gradientTransform="matrix(0 -1 1 0 5.4463 96.3311)">
				<stop  offset="0" style="stop-color:#FFFFFF"/>
				<stop  offset="1" style="stop-color:#7C7C7B"/>
			</linearGradient>
			
				<path id="Shape_Side_Right_7_" fill="url(#Shape_Side_Right_13_)" stroke="#646567" stroke-width="0.75" stroke-linecap="round" stroke-linejoin="round" stroke-miterlimit="10" d="
				M257.6,167.6c0-0.4-0.5-0.7-1.1-0.7c-0.6,0-1.1,0.3-1.1,0.7v2c0,0.4,0.5,0.7,1.1,0.7c0.6,0,1.1-0.3,1.1-0.7V167.6z"/>
			
				<linearGradient id="Shape_Side_Middle_23_" gradientUnits="userSpaceOnUse" x1="248.708" y1="164.5068" x2="257.3525" y2="172.9724">
				<stop  offset="0" style="stop-color:#FFFFFF"/>
				<stop  offset="1" style="stop-color:#7C7C7B"/>
			</linearGradient>
			
				<path id="Shape_Side_Middle_12_" fill="url(#Shape_Side_Middle_23_)" stroke="#646567" stroke-width="0.75" stroke-linecap="round" stroke-linejoin="round" stroke-miterlimit="10" d="
				M255.3,167.6c0-0.4-1.1-0.7-2.4-0.7c-1.3,0-2.4,0.3-2.4,0.7v2c0,0.4,1.1,0.7,2.4,0.7c1.3,0,2.4-0.3,2.4-0.7V167.6z"/>
			
				<linearGradient id="Shape_Side_Left_13_" gradientUnits="userSpaceOnUse" x1="248.96" y1="168.0698" x2="252.3827" y2="172.9513">
				<stop  offset="0" style="stop-color:#FFFFFF"/>
				<stop  offset="1" style="stop-color:#7C7C7B"/>
			</linearGradient>
			
				<path id="Shape_Side_Left_7_" fill="url(#Shape_Side_Left_13_)" stroke="#646567" stroke-width="0.75" stroke-linecap="round" stroke-linejoin="round" stroke-miterlimit="10" d="
				M250.5,167.6c0-0.4-0.5-0.7-1.1-0.7c-0.6,0-1.1,0.3-1.1,0.7v2c0,0.4,0.5,0.7,1.1,0.7c0.6,0,1.1-0.3,1.1-0.7V167.6z"/>
		</g>
		<g id="Nut_Bottom_Left">
			<linearGradient id="Shape_35_" gradientUnits="userSpaceOnUse" x1="104.5981" y1="165.9341" x2="104.5981" y2="172.598">
				<stop  offset="0" style="stop-color:#FFFFFF"/>
				<stop  offset="1" style="stop-color:#7C7C7B"/>
			</linearGradient>
			
				<rect id="Shape_1_" x="101" y="166.7" fill="url(#Shape_35_)" stroke="#646567" stroke-width="0.75" stroke-linecap="round" stroke-linejoin="round" stroke-miterlimit="10" width="7.1" height="3.5"/>
			
				<linearGradient id="Shape_Side_Right_14_" gradientUnits="userSpaceOnUse" x1="-80.6128" y1="102.7139" x2="-72.3422" y2="102.7139" gradientTransform="matrix(0 -1 1 0 5.4463 96.3311)">
				<stop  offset="0" style="stop-color:#FFFFFF"/>
				<stop  offset="1" style="stop-color:#7C7C7B"/>
			</linearGradient>
			
				<path id="Shape_Side_Right_1_" fill="url(#Shape_Side_Right_14_)" stroke="#646567" stroke-width="0.75" stroke-linecap="round" stroke-linejoin="round" stroke-miterlimit="10" d="
				M109.3,167.5c0-0.4-0.5-0.7-1.1-0.7c-0.6,0-1.1,0.3-1.1,0.7v2c0,0.4,0.5,0.7,1.1,0.7c0.6,0,1.1-0.3,1.1-0.7V167.5z"/>
			
				<linearGradient id="Shape_Side_Middle_24_" gradientUnits="userSpaceOnUse" x1="100.3936" y1="164.3599" x2="109.0381" y2="172.8254">
				<stop  offset="0" style="stop-color:#FFFFFF"/>
				<stop  offset="1" style="stop-color:#7C7C7B"/>
			</linearGradient>
			
				<path id="Shape_Side_Middle_11_" fill="url(#Shape_Side_Middle_24_)" stroke="#646567" stroke-width="0.75" stroke-linecap="round" stroke-linejoin="round" stroke-miterlimit="10" d="
				M107,167.5c0-0.4-1.1-0.7-2.4-0.7c-1.3,0-2.4,0.3-2.4,0.7v2c0,0.4,1.1,0.7,2.4,0.7c1.3,0,2.4-0.3,2.4-0.7V167.5z"/>
			
				<linearGradient id="Shape_Side_Left_14_" gradientUnits="userSpaceOnUse" x1="100.646" y1="167.9233" x2="104.0678" y2="172.8035">
				<stop  offset="0" style="stop-color:#FFFFFF"/>
				<stop  offset="1" style="stop-color:#7C7C7B"/>
			</linearGradient>
			
				<path id="Shape_Side_Left_1_" fill="url(#Shape_Side_Left_14_)" stroke="#646567" stroke-width="0.75" stroke-linecap="round" stroke-linejoin="round" stroke-miterlimit="10" d="
				M102.2,167.5c0-0.4-0.5-0.7-1.1-0.7c-0.6,0-1.1,0.3-1.1,0.7v2c0,0.4,0.5,0.7,1.1,0.7c0.6,0,1.1-0.3,1.1-0.7V167.5z"/>
		</g>
		<g id="Nut_Top_Right">
			<linearGradient id="Shape_36_" gradientUnits="userSpaceOnUse" x1="252.9121" y1="156.8384" x2="252.9121" y2="163.5023">
				<stop  offset="0" style="stop-color:#FFFFFF"/>
				<stop  offset="1" style="stop-color:#7C7C7B"/>
			</linearGradient>
			
				<rect id="Shape_12_" x="249.3" y="157.6" fill="url(#Shape_36_)" stroke="#646567" stroke-width="0.75" stroke-linecap="round" stroke-linejoin="round" stroke-miterlimit="10" width="7.1" height="3.5"/>
			
				<linearGradient id="Shape_Side_Right_15_" gradientUnits="userSpaceOnUse" x1="-71.5171" y1="251.0283" x2="-63.2465" y2="251.0283" gradientTransform="matrix(0 -1 1 0 5.4463 96.3311)">
				<stop  offset="0" style="stop-color:#FFFFFF"/>
				<stop  offset="1" style="stop-color:#7C7C7B"/>
			</linearGradient>
			
				<path id="Shape_Side_Right_6_" fill="url(#Shape_Side_Right_15_)" stroke="#646567" stroke-width="0.75" stroke-linecap="round" stroke-linejoin="round" stroke-miterlimit="10" d="
				M257.6,158.4c0-0.4-0.5-0.7-1.1-0.7c-0.6,0-1.1,0.3-1.1,0.7v2c0,0.4,0.5,0.7,1.1,0.7c0.6,0,1.1-0.3,1.1-0.7V158.4z"/>
			
				<linearGradient id="Shape_Side_Middle_25_" gradientUnits="userSpaceOnUse" x1="248.708" y1="155.2642" x2="257.3525" y2="163.7297">
				<stop  offset="0" style="stop-color:#FFFFFF"/>
				<stop  offset="1" style="stop-color:#7C7C7B"/>
			</linearGradient>
			
				<path id="Shape_Side_Middle_10_" fill="url(#Shape_Side_Middle_25_)" stroke="#646567" stroke-width="0.75" stroke-linecap="round" stroke-linejoin="round" stroke-miterlimit="10" d="
				M255.3,158.4c0-0.4-1.1-0.7-2.4-0.7c-1.3,0-2.4,0.3-2.4,0.7v2c0,0.4,1.1,0.7,2.4,0.7c1.3,0,2.4-0.3,2.4-0.7V158.4z"/>
			
				<linearGradient id="Shape_Side_Left_15_" gradientUnits="userSpaceOnUse" x1="248.96" y1="158.8281" x2="252.3817" y2="163.7083">
				<stop  offset="0" style="stop-color:#FFFFFF"/>
				<stop  offset="1" style="stop-color:#7C7C7B"/>
			</linearGradient>
			
				<path id="Shape_Side_Left_6_" fill="url(#Shape_Side_Left_15_)" stroke="#646567" stroke-width="0.75" stroke-linecap="round" stroke-linejoin="round" stroke-miterlimit="10" d="
				M250.5,158.4c0-0.4-0.5-0.7-1.1-0.7c-0.6,0-1.1,0.3-1.1,0.7v2c0,0.4,0.5,0.7,1.1,0.7c0.6,0,1.1-0.3,1.1-0.7V158.4z"/>
		</g>
		<g id="Nut_Top_Left">
			<linearGradient id="Shape_37_" gradientUnits="userSpaceOnUse" x1="104.7451" y1="156.8384" x2="104.7451" y2="163.5023">
				<stop  offset="0" style="stop-color:#FFFFFF"/>
				<stop  offset="1" style="stop-color:#7C7C7B"/>
			</linearGradient>
			
				<rect id="Shape_19_" x="101.2" y="157.6" fill="url(#Shape_37_)" stroke="#646567" stroke-width="0.75" stroke-linecap="round" stroke-linejoin="round" stroke-miterlimit="10" width="7.1" height="3.5"/>
			
				<linearGradient id="Shape_Side_Right_16_" gradientUnits="userSpaceOnUse" x1="-71.5171" y1="102.8608" x2="-63.2465" y2="102.8608" gradientTransform="matrix(0 -1 1 0 5.4463 96.3311)">
				<stop  offset="0" style="stop-color:#FFFFFF"/>
				<stop  offset="1" style="stop-color:#7C7C7B"/>
			</linearGradient>
			
				<path id="Shape_Side_Right_12_" fill="url(#Shape_Side_Right_16_)" stroke="#646567" stroke-width="0.75" stroke-linecap="round" stroke-linejoin="round" stroke-miterlimit="10" d="
				M109.4,158.4c0-0.4-0.5-0.7-1.1-0.7c-0.6,0-1.1,0.3-1.1,0.7v2c0,0.4,0.5,0.7,1.1,0.7c0.6,0,1.1-0.3,1.1-0.7V158.4z"/>
			
				<linearGradient id="Shape_Side_Middle_26_" gradientUnits="userSpaceOnUse" x1="100.541" y1="155.2642" x2="109.1855" y2="163.7297">
				<stop  offset="0" style="stop-color:#FFFFFF"/>
				<stop  offset="1" style="stop-color:#7C7C7B"/>
			</linearGradient>
			
				<path id="Shape_Side_Middle_15_" fill="url(#Shape_Side_Middle_26_)" stroke="#646567" stroke-width="0.75" stroke-linecap="round" stroke-linejoin="round" stroke-miterlimit="10" d="
				M107.2,158.4c0-0.4-1.1-0.7-2.4-0.7c-1.3,0-2.4,0.3-2.4,0.7v2c0,0.4,1.1,0.7,2.4,0.7c1.3,0,2.4-0.3,2.4-0.7V158.4z"/>
			
				<linearGradient id="Shape_Side_Left_16_" gradientUnits="userSpaceOnUse" x1="100.793" y1="158.8276" x2="104.2148" y2="163.7078">
				<stop  offset="0" style="stop-color:#FFFFFF"/>
				<stop  offset="1" style="stop-color:#7C7C7B"/>
			</linearGradient>
			
				<path id="Shape_Side_Left_12_" fill="url(#Shape_Side_Left_16_)" stroke="#646567" stroke-width="0.75" stroke-linecap="round" stroke-linejoin="round" stroke-miterlimit="10" d="
				M102.3,158.4c0-0.4-0.5-0.7-1.1-0.7c-0.6,0-1.1,0.3-1.1,0.7v2c0,0.4,0.5,0.7,1.1,0.7c0.6,0,1.1-0.3,1.1-0.7V158.4z"/>
		</g>
	</g>
	
		<linearGradient id="Support_Horizontal_1_" gradientUnits="userSpaceOnUse" x1="-192.5576" y1="93.4141" x2="506.0222" y2="275.7412">
		<stop  offset="0" style="stop-color:#FFFFFF"/>
		<stop  offset="1" style="stop-color:#7C7C7B"/>
	</linearGradient>
	
		<path id="Support_Horizontal" fill="url(#Support_Horizontal_1_)" stroke="#8C8C91" stroke-width="0.75" stroke-linecap="round" stroke-linejoin="round" stroke-miterlimit="10" d="
		M280.9,166.7H2.4v-2.9h278.5V166.7z M280.9,194.8H2.4v2.9h278.5V194.8z M122.6,161H86.6v2.9h36.1V161z M270.8,163.9h-36.1V161h36.1
		V163.9z"/>
	
		<linearGradient id="Support_Vertical_1_" gradientUnits="userSpaceOnUse" x1="178.6763" y1="111.2612" x2="178.6763" y2="262.9241">
		<stop  offset="0" style="stop-color:#FFFFFF"/>
		<stop  offset="1" style="stop-color:#7C7C7B"/>
	</linearGradient>
	
		<path id="Support_Vertical" fill="url(#Support_Vertical_1_)" stroke="#8C8C91" stroke-width="0.75" stroke-linecap="round" stroke-linejoin="round" stroke-miterlimit="10" d="
		M86.6,126.4v68.4h-2.9v-68.4H86.6z M125.5,126.4v68.4h-2.9v-68.4H125.5z M234.7,126.4v68.4h-2.9v-68.4H234.7z M273.6,126.4v68.4
		h-2.9v-68.4H273.6z"/>
	<path id="Reflection_Lines" fill="none" stroke="#FFFFFF" stroke-width="0.75" stroke-miterlimit="10" d="M87.1,164.2h35.1
		 M235.2,164.2h35.2"/>
	<path id="Devider_Lines" fill="none" stroke="#575756" stroke-width="0.75" stroke-miterlimit="10" d="M87.1,163.4h35.1
		 M235.2,163.4h35.2"/>
</g>
<g id="Flange_Front">
	
		<circle id="Shadow_1_" fill="#646567" stroke="#646567" stroke-width="0.75" stroke-linecap="round" stroke-linejoin="round" stroke-miterlimit="10" cx="185.9" cy="105.2" r="45.4"/>
	<linearGradient id="Flange_Connection_1_" gradientUnits="userSpaceOnUse" x1="138.3467" y1="51.4595" x2="273.8969" y2="206.13">
		<stop  offset="0" style="stop-color:#FFFFFF"/>
		<stop  offset="1" style="stop-color:#7C7C7B"/>
	</linearGradient>
	
		<path id="Flange_Connection_2_" fill="url(#Flange_Connection_1_)" stroke="#646567" stroke-width="0.75" stroke-miterlimit="10" d="
		M178.1,48.3c-26.8,0-48.5,21.7-48.5,48.5c0,26.8,21.7,48.5,48.5,48.5c26.8,0,48.5-21.7,48.5-48.5C226.6,70,204.9,48.3,178.1,48.3z
		 M198.6,57.7c0.5-0.9,1.6-1.2,2.5-0.7c0.9,0.5,1.2,1.6,0.7,2.5c-0.5,0.9-1.6,1.2-2.5,0.7C198.4,59.7,198.1,58.5,198.6,57.7z
		 M178.1,50.8c1,0,1.8,0.8,1.8,1.8s-0.8,1.8-1.8,1.8c-1,0-1.8-0.8-1.8-1.8S177.1,50.8,178.1,50.8z M155.1,57c0.9-0.5,2-0.2,2.5,0.7
		c0.5,0.9,0.2,2-0.7,2.5c-0.9,0.5-2,0.2-2.5-0.7S154.2,57.5,155.1,57z M138.2,73.9c0.5-0.9,1.6-1.2,2.5-0.7c0.9,0.5,1.2,1.6,0.7,2.5
		c-0.5,0.9-1.6,1.2-2.5,0.7C138,75.9,137.7,74.7,138.2,73.9z M133.8,98.7c-1,0-1.8-0.8-1.8-1.8c0-1,0.8-1.8,1.8-1.8
		c1,0,1.8,0.8,1.8,1.8C135.7,97.9,134.9,98.7,133.8,98.7z M140.7,120.6c-0.9,0.5-2,0.2-2.5-0.7c-0.5-0.9-0.2-2,0.7-2.5
		c0.9-0.5,2-0.2,2.5,0.7C141.9,119,141.6,120.1,140.7,120.6z M157.6,136.1c-0.5,0.9-1.6,1.2-2.5,0.7c-0.9-0.5-1.2-1.6-0.7-2.5
		c0.5-0.9,1.6-1.2,2.5-0.7C157.8,134.1,158.1,135.3,157.6,136.1z M178.1,143c-1,0-1.8-0.8-1.8-1.8c0-1,0.8-1.8,1.8-1.8
		c1,0,1.8,0.8,1.8,1.8C179.9,142.2,179.1,143,178.1,143z M201.1,136.8c-0.9,0.5-2,0.2-2.5-0.7c-0.5-0.9-0.2-2,0.7-2.5
		c0.9-0.5,2-0.2,2.5,0.7C202.3,135.2,202,136.3,201.1,136.8z M178.1,136.5c-21.9,0-39.7-17.8-39.7-39.7s17.8-39.7,39.7-39.7
		c21.9,0,39.7,17.8,39.7,39.7S200,136.5,178.1,136.5z M218,119.9c-0.5,0.9-1.6,1.2-2.5,0.7c-0.9-0.5-1.2-1.6-0.7-2.5
		c0.5-0.9,1.6-1.2,2.5-0.7C218.2,118,218.5,119.1,218,119.9z M217.3,76.4c-0.9,0.5-2,0.2-2.5-0.7c-0.5-0.9-0.2-2,0.7-2.5
		c0.9-0.5,2-0.2,2.5,0.7C218.5,74.7,218.2,75.9,217.3,76.4z M222.3,98.7c-1,0-1.8-0.8-1.8-1.8c0-1,0.8-1.8,1.8-1.8
		c1,0,1.8,0.8,1.8,1.8C224.2,97.9,223.4,98.7,222.3,98.7z"/>
	<linearGradient id="Ring_Flange_1_" gradientUnits="userSpaceOnUse" x1="140.3325" y1="59.0737" x2="219.2695" y2="138.0107">
		<stop  offset="0" style="stop-color:#FFFFFF"/>
		<stop  offset="1" style="stop-color:#7C7C7B"/>
	</linearGradient>
	<path id="Ring_Flange" fill="url(#Ring_Flange_1_)" stroke="#8C8C91" stroke-width="0.75" stroke-miterlimit="10" d="M178.1,57.1
		c-21.9,0-39.7,17.8-39.7,39.7s17.8,39.7,39.7,39.7c21.9,0,39.7-17.8,39.7-39.7S200,57.1,178.1,57.1z M178.1,126.6
		c-16.5,0-29.8-13.4-29.8-29.8c0-16.5,13.4-29.8,29.8-29.8c16.5,0,29.8,13.4,29.8,29.8C207.9,113.3,194.5,126.6,178.1,126.6z"/>
	<linearGradient id="Ring_Opening_1_" gradientUnits="userSpaceOnUse" x1="198.5557" y1="129.873" x2="183.9597" y2="106.3147">
		<stop  offset="0" style="stop-color:#9A9A99"/>
		<stop  offset="0.2954" style="stop-color:#919190"/>
		<stop  offset="0.7771" style="stop-color:#797978"/>
		<stop  offset="1" style="stop-color:#6B6B6A"/>
	</linearGradient>
	<path id="Ring_Opening" fill="url(#Ring_Opening_1_)" stroke="#646567" stroke-width="0.75" stroke-miterlimit="10" d="M178.1,67
		c-16.5,0-29.8,13.4-29.8,29.8c0,16.5,13.4,29.8,29.8,29.8c16.5,0,29.8-13.4,29.8-29.8C207.9,80.3,194.5,67,178.1,67z M178.1,124.4
		c-15.2,0-27.6-12.4-27.6-27.6c0-15.2,12.4-27.6,27.6-27.6c15.2,0,27.6,12.4,27.6,27.6C205.7,112.1,193.3,124.4,178.1,124.4z"/>
	<linearGradient id="Opening_1_" gradientUnits="userSpaceOnUse" x1="254.6963" y1="197.8716" x2="179.446" y2="98.624">
		<stop  offset="0" style="stop-color:#9D9D9C"/>
		<stop  offset="0.1774" style="stop-color:#969696"/>
		<stop  offset="0.4268" style="stop-color:#848484"/>
		<stop  offset="0.7172" style="stop-color:#666666"/>
		<stop  offset="1" style="stop-color:#424242"/>
	</linearGradient>
	
		<circle id="Opening" fill="url(#Opening_1_)" stroke="#575756" stroke-width="0.75" stroke-miterlimit="10" cx="178.1" cy="96.8" r="27.6"/>
</g>
</svg>
