<?xml version="1.0" encoding="utf-8"?>

<!-- Copyright 2016 Siemens AG -->

<!-- Generator: Adobe Illustrator 16.0.4, SVG Export Plug-In . SVG Version: 6.00 Build 0)  -->
<!DOCTYPE svg PUBLIC "-//W3C//DTD SVG 1.1//EN" "http://www.w3.org/Graphics/SVG/1.1/DTD/svg11.dtd">
<svg version="1.1" id="Radial_Fume_Exhauster" xmlns="http://www.w3.org/2000/svg" xmlns:xlink="http://www.w3.org/1999/xlink"
	 x="0px" y="0px" width="250px" height="300px" viewBox="0 0 250 300" enable-background="new 0 0 250 300" xml:space="preserve">
<g id="Base_1_">
	<linearGradient id="Shape_3_" gradientUnits="userSpaceOnUse" x1="-15.5176" y1="228.2534" x2="257.1479" y2="208.2535">
		<stop  offset="0" style="stop-color:#FFFFFF"/>
		<stop  offset="1" style="stop-color:#7C7C7B"/>
	</linearGradient>
	
		<rect id="Shape_2_" x="45.7" y="137.6" fill="url(#Shape_3_)" stroke="#8C8C91" stroke-width="0.75" stroke-miterlimit="10" width="167.3" height="160"/>
	<linearGradient id="Supporting_Foot_1_" gradientUnits="userSpaceOnUse" x1="-49.3374" y1="302.1099" x2="313.3286" y2="285.4429">
		<stop  offset="0" style="stop-color:#FFFFFF"/>
		<stop  offset="1" style="stop-color:#7C7C7B"/>
	</linearGradient>
	
		<rect id="Supporting_Foot_2_" x="32" y="290.1" fill="url(#Supporting_Foot_1_)" stroke="#8C8C91" stroke-width="0.75" stroke-miterlimit="10" width="194.9" height="7.5"/>
	
		<line id="Devider_Line_2_" fill="none" stroke="#646567" stroke-width="0.75" stroke-miterlimit="10" x1="46.1" y1="273.7" x2="212.7" y2="273.7"/>
	
		<line id="Reflection_Line_4_" fill="none" stroke="#FFFFFF" stroke-width="0.75" stroke-miterlimit="10" x1="46.1" y1="274.4" x2="212.7" y2="274.4"/>
</g>
<g id="Housing_1_">
	<linearGradient id="Shape_4_" gradientUnits="userSpaceOnUse" x1="35.2573" y1="-55.042" x2="293.4559" y2="362.9437">
		<stop  offset="0" style="stop-color:#FFFFFF"/>
		<stop  offset="1" style="stop-color:#7C7C7B"/>
	</linearGradient>
	<path id="Shape_1_" fill="url(#Shape_4_)" d="M240.9,19.5H116.2C56.3,19.5,7.7,68.1,7.7,127.9c0,59.9,48.5,108.4,108.4,108.4
		s108.4-48.5,108.4-108.4c0-4.1-0.6-12.7-1-16.6h17.4V19.5z"/>
	<linearGradient id="Bevelled_Edge_2_" gradientUnits="userSpaceOnUse" x1="104.2236" y1="50.876" x2="167.7236" y2="173.876">
		<stop  offset="0" style="stop-color:#FFFFFF"/>
		<stop  offset="1" style="stop-color:#7C7C7B"/>
	</linearGradient>
	<path id="Bevelled_Edge_1_" fill="url(#Bevelled_Edge_2_)" d="M241.2,15H115.6C53.3,15,2.7,65.6,2.7,127.9
		c0,62.4,50.6,112.9,112.9,112.9c62.4,0,112.9-50.6,112.9-112.9c0-4.2-0.2-8.4-0.7-12.5h13.3V15z M240.9,111.3h-17.4
		c0.4,3.9,1,12.5,1,16.6c0,59.9-48.5,108.4-108.4,108.4S7.7,187.8,7.7,127.9c0-59.9,48.5-108.4,108.4-108.4h124.7V111.3z"/>
	<path id="Outline_1_" fill="none" stroke="#8C8C91" stroke-width="0.75" stroke-miterlimit="10" d="M241.2,15H115.6
		C53.3,15,2.7,65.6,2.7,127.9c0,62.4,50.6,112.9,112.9,112.9c62.4,0,112.9-50.6,112.9-112.9c0-4.2-0.2-8.4-0.7-12.5h13.3V15z"/>
	<linearGradient id="Flange_2_" gradientUnits="userSpaceOnUse" x1="197.7271" y1="-25.9932" x2="288.2502" y2="150.8004">
		<stop  offset="0" style="stop-color:#A5A5A5"/>
		<stop  offset="4.758149e-02" style="stop-color:#B5B5B5"/>
		<stop  offset="0.1509" style="stop-color:#D3D3D3"/>
		<stop  offset="0.2395" style="stop-color:#E5E5E5"/>
		<stop  offset="0.3025" style="stop-color:#ECECEC"/>
		<stop  offset="0.4074" style="stop-color:#E8E8E8"/>
		<stop  offset="0.514" style="stop-color:#DCDCDC"/>
		<stop  offset="0.6214" style="stop-color:#C7C7C7"/>
		<stop  offset="0.7294" style="stop-color:#ABABAB"/>
		<stop  offset="0.8378" style="stop-color:#868686"/>
		<stop  offset="0.9452" style="stop-color:#5A5A5A"/>
		<stop  offset="1" style="stop-color:#404040"/>
	</linearGradient>
	
		<rect id="Flange_1_" x="241.2" y="2.4" fill="url(#Flange_2_)" stroke="#8C8C91" stroke-width="0.75" stroke-miterlimit="10" width="6.5" height="125.7"/>
</g>
<g id="Suction_Port_1_">
	<circle id="Shadow" fill="#7C7C7B" stroke="#7C7C7B" stroke-width="0.75" stroke-miterlimit="10" cx="139.7" cy="145.5" r="73.5"/>
	<linearGradient id="Ring_2_" gradientUnits="userSpaceOnUse" x1="182.124" y1="180.4795" x2="148.4144" y2="146.7698">
		<stop  offset="0" style="stop-color:#575756"/>
		<stop  offset="1.586480e-02" style="stop-color:#5D5C5C"/>
		<stop  offset="0.1171" style="stop-color:#797878"/>
		<stop  offset="0.2183" style="stop-color:#8D8D8C"/>
		<stop  offset="0.3189" style="stop-color:#999998"/>
		<stop  offset="0.4178" style="stop-color:#9D9D9C"/>
		<stop  offset="0.5402" style="stop-color:#979696"/>
		<stop  offset="0.7122" style="stop-color:#848484"/>
		<stop  offset="0.9127" style="stop-color:#676666"/>
		<stop  offset="1" style="stop-color:#575756"/>
	</linearGradient>
	<path id="Ring_1_" fill="url(#Ring_2_)" stroke="#646567" stroke-width="0.75" stroke-miterlimit="10" d="M129.7,87.9
		c-22.2,0-40.2,18-40.2,40.2s18,40.2,40.2,40.2s40.2-18,40.2-40.2S151.9,87.9,129.7,87.9z M129.7,163.8c-19.7,0-35.7-16-35.7-35.7
		c0-19.7,16-35.7,35.7-35.7c19.7,0,35.7,16,35.7,35.7C165.4,147.8,149.4,163.8,129.7,163.8z"/>
	
		<circle id="Blower_Wheel_Compartment_1_" fill="#424242" stroke="#646567" stroke-width="0.75" stroke-miterlimit="10" cx="129.4" cy="128.1" r="35.7"/>
	<linearGradient id="Hopper_2_" gradientUnits="userSpaceOnUse" x1="208.9604" y1="207.6851" x2="83.1814" y2="81.906">
		<stop  offset="0" style="stop-color:#FFFFFF"/>
		<stop  offset="1" style="stop-color:#7C7C7B"/>
	</linearGradient>
	<path id="Hopper_1_" fill="url(#Hopper_2_)" stroke="#646567" stroke-width="0.75" stroke-miterlimit="10" d="M129.4,59.7
		c-37.8,0-68.4,30.6-68.4,68.4c0,37.8,30.6,68.4,68.4,68.4c37.8,0,68.4-30.6,68.4-68.4C197.8,90.3,167.1,59.7,129.4,59.7z
		 M129.4,168.3c-22.2,0-40.2-18-40.2-40.2s18-40.2,40.2-40.2s40.2,18,40.2,40.2S151.6,168.3,129.4,168.3z"/>
	<linearGradient id="Refection_2_" gradientUnits="userSpaceOnUse" x1="76.644" y1="168.8809" x2="193.8306" y2="168.8809">
		<stop  offset="0" style="stop-color:#F2F2F2;stop-opacity:0.4"/>
		<stop  offset="1" style="stop-color:#F7F7F7;stop-opacity:0.7"/>
	</linearGradient>
	<path id="Refection_1_" fill="url(#Refection_2_)" d="M178.3,142.5c-5.2,27.2-28.9,47.8-57.3,47.8c-17.8,0-33.7-8.1-44.4-20.8
		c12.4,15.7,31.4,25.8,52.8,25.8c30.2,0,55.7-20.1,64.4-47.8L178.3,142.5z"/>
	<linearGradient id="Flange_3_" gradientUnits="userSpaceOnUse" x1="55.2568" y1="53.9443" x2="272.5878" y2="271.2753">
		<stop  offset="0" style="stop-color:#A5A5A5"/>
		<stop  offset="4.758149e-02" style="stop-color:#B5B5B5"/>
		<stop  offset="0.1509" style="stop-color:#D3D3D3"/>
		<stop  offset="0.2395" style="stop-color:#E5E5E5"/>
		<stop  offset="0.3025" style="stop-color:#ECECEC"/>
		<stop  offset="0.4074" style="stop-color:#E8E8E8"/>
		<stop  offset="0.514" style="stop-color:#DCDCDC"/>
		<stop  offset="0.6214" style="stop-color:#C7C7C7"/>
		<stop  offset="0.7294" style="stop-color:#ABABAB"/>
		<stop  offset="0.8378" style="stop-color:#868686"/>
		<stop  offset="0.9452" style="stop-color:#5A5A5A"/>
		<stop  offset="1" style="stop-color:#404040"/>
	</linearGradient>
	<path id="Flange" fill="url(#Flange_3_)" stroke="#646567" stroke-width="0.75" stroke-miterlimit="10" d="M129.4,44.4
		c-46.2,0-83.7,37.5-83.7,83.7s37.5,83.7,83.7,83.7s83.7-37.5,83.7-83.7S175.6,44.4,129.4,44.4z M164.8,60.6c0.9-1.5,2.8-2,4.3-1.2
		s2,2.8,1.2,4.3c-0.9,1.5-2.8,2-4.3,1.2S163.9,62.1,164.8,60.6z M129.4,48.8c1.7,0,3.2,1.4,3.2,3.2s-1.4,3.2-3.2,3.2
		c-1.7,0-3.2-1.4-3.2-3.2S127.7,48.8,129.4,48.8z M89.7,59.5c1.5-0.9,3.4-0.4,4.3,1.2c0.9,1.5,0.4,3.4-1.2,4.3
		c-1.5,0.9-3.4,0.4-4.3-1.2C87.7,62.3,88.2,60.3,89.7,59.5z M60.6,88.5c0.9-1.5,2.8-2,4.3-1.2c1.5,0.9,2,2.8,1.2,4.3s-2.8,2-4.3,1.2
		C60.3,92,59.7,90,60.6,88.5z M53.1,131.4c-1.7,0-3.2-1.4-3.2-3.2c0-1.7,1.4-3.2,3.2-3.2c1.7,0,3.2,1.4,3.2,3.2
		C56.3,130,54.9,131.4,53.1,131.4z M64.9,169.1c-1.5,0.9-3.4,0.4-4.3-1.2c-0.9-1.5-0.4-3.4,1.2-4.3s3.4-0.4,4.3,1.2
		C67,166.3,66.4,168.2,64.9,169.1z M94,195.9c-0.9,1.5-2.8,2-4.3,1.2c-1.5-0.9-2-2.8-1.2-4.3c0.9-1.5,2.8-2,4.3-1.2
		C94.4,192.4,94.9,194.4,94,195.9z M129.4,207.7c-1.7,0-3.2-1.4-3.2-3.2c0-1.7,1.4-3.2,3.2-3.2c1.7,0,3.2,1.4,3.2,3.2
		C132.6,206.2,131.1,207.7,129.4,207.7z M169.1,197c-1.5,0.9-3.4,0.4-4.3-1.2c-0.9-1.5-0.4-3.4,1.2-4.3s3.4-0.4,4.3,1.2
		C171.1,194.2,170.6,196.1,169.1,197z M129.4,196.5c-37.8,0-68.4-30.6-68.4-68.4c0-37.8,30.6-68.4,68.4-68.4
		c37.8,0,68.4,30.6,68.4,68.4C197.8,165.9,167.2,196.5,129.4,196.5z M198.2,168c-0.9,1.5-2.8,2-4.3,1.2s-2-2.8-1.2-4.3
		c0.9-1.5,2.8-2,4.3-1.2S199,166.4,198.2,168z M197,92.8c-1.5,0.9-3.4,0.4-4.3-1.2s-0.4-3.4,1.2-4.3c1.5-0.9,3.4-0.4,4.3,1.2
		C199,90,198.5,92,197,92.8z M205.7,131.4c-1.7,0-3.2-1.4-3.2-3.2c0-1.7,1.4-3.2,3.2-3.2s3.2,1.4,3.2,3.2
		C208.8,130,207.4,131.4,205.7,131.4z"/>
</g>
<g id="Motor_Fan_1_">
	
		<linearGradient id="Paddel_Wheel_4_2_" gradientUnits="userSpaceOnUse" x1="131.2168" y1="78.248" x2="148.4333" y2="78.248" gradientTransform="matrix(0.7071 -0.7071 0.7071 0.7071 -44.1304 163.8301)">
		<stop  offset="0" style="stop-color:#575756"/>
		<stop  offset="1.586480e-02" style="stop-color:#5D5C5C"/>
		<stop  offset="0.1171" style="stop-color:#797878"/>
		<stop  offset="0.2183" style="stop-color:#8D8D8C"/>
		<stop  offset="0.3189" style="stop-color:#999998"/>
		<stop  offset="0.4178" style="stop-color:#9D9D9C"/>
		<stop  offset="0.5402" style="stop-color:#979696"/>
		<stop  offset="0.7122" style="stop-color:#848484"/>
		<stop  offset="0.9127" style="stop-color:#676666"/>
		<stop  offset="1" style="stop-color:#575756"/>
	</linearGradient>
	<path id="Paddel_Wheel_4_1_" fill="url(#Paddel_Wheel_4_2_)" stroke="#646567" stroke-width="0.75" stroke-miterlimit="10" d="
		M99.9,108.3l22.6,22.6l10-10l-22.5-22.5c-2.1,1.3-4,2.9-5.8,4.7C102.6,104.7,101.2,106.5,99.9,108.3z"/>
	
		<linearGradient id="Paddel_Wheel_3_2_" gradientUnits="userSpaceOnUse" x1="196.2852" y1="88.1064" x2="213.4993" y2="88.1064" gradientTransform="matrix(-0.7071 -0.7071 0.7071 -0.7071 204.5239 354.9331)">
		<stop  offset="0" style="stop-color:#575756"/>
		<stop  offset="1.586480e-02" style="stop-color:#5D5C5C"/>
		<stop  offset="0.1171" style="stop-color:#797878"/>
		<stop  offset="0.2183" style="stop-color:#8D8D8C"/>
		<stop  offset="0.3189" style="stop-color:#999998"/>
		<stop  offset="0.4178" style="stop-color:#9D9D9C"/>
		<stop  offset="0.5402" style="stop-color:#979696"/>
		<stop  offset="0.7122" style="stop-color:#848484"/>
		<stop  offset="0.9127" style="stop-color:#676666"/>
		<stop  offset="1" style="stop-color:#575756"/>
	</linearGradient>
	<path id="Paddel_Wheel_3_1_" fill="url(#Paddel_Wheel_3_2_)" stroke="#646567" stroke-width="0.75" stroke-miterlimit="10" d="
		M110,157.9l22.6-22.6l-10-10L100,147.8c1.3,2.1,2.9,4,4.7,5.8C106.4,155.2,108.1,156.6,110,157.9z"/>
	
		<linearGradient id="Paddel_Wheel_2_2_" gradientUnits="userSpaceOnUse" x1="186.4268" y1="117.106" x2="203.6433" y2="117.106" gradientTransform="matrix(-0.7071 0.7071 0.7071 0.7071 204.5239 -84.8237)">
		<stop  offset="0" style="stop-color:#575756"/>
		<stop  offset="1.586480e-02" style="stop-color:#5D5C5C"/>
		<stop  offset="0.1171" style="stop-color:#797878"/>
		<stop  offset="0.2183" style="stop-color:#8D8D8C"/>
		<stop  offset="0.3189" style="stop-color:#999998"/>
		<stop  offset="0.4178" style="stop-color:#9D9D9C"/>
		<stop  offset="0.5402" style="stop-color:#979696"/>
		<stop  offset="0.7122" style="stop-color:#848484"/>
		<stop  offset="0.9127" style="stop-color:#676666"/>
		<stop  offset="1" style="stop-color:#575756"/>
	</linearGradient>
	<path id="Paddel_Wheel_2_1_" fill="url(#Paddel_Wheel_2_2_)" stroke="#646567" stroke-width="0.75" stroke-miterlimit="10" d="
		M159.5,147.9c-1.3,1.8-2.7,3.6-4.3,5.2c-1.8,1.8-3.8,3.4-5.8,4.7L127,135.3l10-10L159.5,147.9z"/>
	
		<linearGradient id="Paddel_Wheel_1_2_" gradientUnits="userSpaceOnUse" x1="121.3623" y1="126.9629" x2="138.5777" y2="126.9629" gradientTransform="matrix(0.7071 0.7071 0.7071 -0.7071 -44.1304 106.2793)">
		<stop  offset="0" style="stop-color:#575756"/>
		<stop  offset="1.586480e-02" style="stop-color:#5D5C5C"/>
		<stop  offset="0.1171" style="stop-color:#797878"/>
		<stop  offset="0.2183" style="stop-color:#8D8D8C"/>
		<stop  offset="0.3189" style="stop-color:#999998"/>
		<stop  offset="0.4178" style="stop-color:#9D9D9C"/>
		<stop  offset="0.5402" style="stop-color:#979696"/>
		<stop  offset="0.7122" style="stop-color:#848484"/>
		<stop  offset="0.9127" style="stop-color:#676666"/>
		<stop  offset="1" style="stop-color:#575756"/>
	</linearGradient>
	<path id="Paddel_Wheel_1_1_" fill="url(#Paddel_Wheel_1_2_)" stroke="#646567" stroke-width="0.75" stroke-miterlimit="10" d="
		M149.5,98.3c1.8,1.2,3.6,2.7,5.2,4.3c1.8,1.8,3.4,3.8,4.7,5.8L137,130.9l-10-10L149.5,98.3z"/>
	<linearGradient id="Suspension_2_" gradientUnits="userSpaceOnUse" x1="107.6133" y1="111.3916" x2="125.4468" y2="125.0581">
		<stop  offset="0" style="stop-color:#9A9A99"/>
		<stop  offset="0.2954" style="stop-color:#919190"/>
		<stop  offset="0.7771" style="stop-color:#797978"/>
		<stop  offset="1" style="stop-color:#6B6B6A"/>
	</linearGradient>
	
		<circle id="Suspension_1_" fill="url(#Suspension_2_)" stroke="#646567" stroke-width="0.75" stroke-miterlimit="10" cx="129.4" cy="128.1" r="12.4"/>
</g>
</svg>
