<?xml version="1.0" encoding="utf-8"?>

<!-- Copyright 2016 Siemens AG -->

<!-- Generator: Adobe Illustrator 16.0.4, SVG Export Plug-In . SVG Version: 6.00 Build 0)  -->
<!DOCTYPE svg PUBLIC "-//W3C//DTD SVG 1.1//EN" "http://www.w3.org/Graphics/SVG/1.1/DTD/svg11.dtd">
<svg version="1.1" id="SIMATIC_x5F_ET200SP_x5F_Motorstarter"
	 xmlns="http://www.w3.org/2000/svg" xmlns:xlink="http://www.w3.org/1999/xlink" x="0px" y="0px" width="45px" height="300px"
	 viewBox="0 0 45 300" enable-background="new 0 0 45 300" xml:space="preserve">
<path fill="#617485" d="M43.2,236.1c0,20.1,0,40.2,0,60.3c0,0.4-0.3,0.7-0.7,0.7c-13.4,0-26.7,0-40,0c-0.4,0-0.7-0.3-0.7-0.7
	c0-10,0-20.1,0-30.1c0-3.8,0-7.5,0-11.3c0-3.8,0-7.5,0-11.3c0-2.5,0-5,0-7.5c0-0.4,0.3-0.7,0.7-0.7c13.3,0,26.7,0,40,0
	C42.9,235.4,43.2,235.7,43.2,236.1z"/>
<polygon fill="#617485" points="43.2,234.7 43.2,234.8 43.2,234.8 43.2,234.9 43.2,234.9 43.2,234.9 43.2,235 43.1,235 43.1,235.1 
	43.1,235.1 43.1,235.1 43,235.2 43,235.2 43,235.2 42.9,235.3 42.9,235.3 42.8,235.3 42.8,235.3 42.8,235.3 42.8,235.3 42.7,235.4 
	42.7,235.4 42.7,235.4 42.6,235.4 42.5,235.4 2.5,235.4 2.4,235.4 2.3,235.4 2.3,235.4 2.3,235.4 2.2,235.3 2.2,235.3 2.2,235.3 
	2.1,235.3 2.1,235.2 2,235.2 2,235.2 2,235.2 1.9,235.1 1.9,235.1 1.9,235.1 1.9,235 1.9,235 1.9,235 1.9,235 1.8,235 1.8,234.9 
	1.8,234.9 1.8,234.9 1.8,234.8 1.8,234.8 1.8,234.7 1.8,208.5 1.8,182.2 1.8,182.1 1.8,182.1 1.8,182 1.8,182 1.8,182 1.8,182 
	1.9,181.9 1.9,181.8 1.9,181.8 1.9,181.8 2,181.8 2,181.7 2,181.7 2.1,181.6 2.1,181.6 2.2,181.6 2.2,181.6 2.2,181.6 2.2,181.6 
	2.3,181.6 2.3,181.5 2.3,181.5 2.4,181.5 2.5,181.5 42.5,181.5 42.6,181.5 42.7,181.5 42.7,181.5 42.7,181.6 42.8,181.6 42.8,181.6 
	42.8,181.6 42.9,181.6 42.9,181.7 43,181.7 43,181.7 43,181.7 43.1,181.8 43.1,181.8 43.1,181.8 43.1,181.9 43.1,181.9 43.1,181.9 
	43.1,181.9 43.2,181.9 43.2,182 43.2,182 43.2,182 43.2,182.1 43.2,182.1 43.2,182.2 43.2,208.5 "/>
<path fill="#617485" d="M2.5,2c13.3,0,26.7,0,40,0c0.4,0,0.7,0.3,0.7,0.7c0,59.4,0,118.8,0,178.1c0,0.4-0.3,0.7-0.7,0.7
	c-13.4,0-26.7,0-40,0c-0.4,0-0.7-0.3-0.7-0.7c0-59.4,0-118.8,0-178.1C1.8,2.3,2.1,2,2.5,2z"/>
<line stroke="#000000" stroke-width="1.993" x1="1.8" y1="297" x2="43.2" y2="297"/>
<polyline fill="none" stroke="#000000" stroke-width="0.7008" stroke-linecap="round" stroke-linejoin="round" points="21.1,198.5 
	21.1,198.9 21.1,199.7 21.1,200.1 21.1,201.1 "/>
<polygon fill="#FFFFFF" points="41,155.2 41.3,155.2 41.3,154.4 40.5,154.4 40.5,154.7 41,154.7 "/>
<polygon fill="#FFFFFF" points="33,164.9 32.7,164.9 32.7,165.7 33.5,165.7 33.5,165.5 33,165.5 "/>
<rect x="34.9" y="154.4" fill="#FFFFFF" width="1.4" height="0.3"/>
<polygon fill="#FFFFFF" points="40.5,165.5 40.5,165.7 41.3,165.7 41.3,164.9 41,164.9 41,165.5 "/>
<rect x="40.1" y="95.5" transform="matrix(-0.5001 0.866 -0.866 -0.5001 144.9051 110.9217)" fill="#FFFFFF" width="0.7" height="3.6"/>
<polygon fill="#FFFFFF" points="32.7,155.2 33,155.2 33,154.7 33.5,154.7 33.5,154.4 32.7,154.4 "/>
<rect x="41" y="159.4" fill="#FFFFFF" width="0.3" height="1.4"/>
<rect x="41" y="162.1" fill="#FFFFFF" width="0.3" height="1.4"/>
<rect x="32.7" y="162.1" fill="#FFFFFF" width="0.3" height="1.4"/>
<polygon fill="#FFFFFF" points="36.9,160.8 37.1,160.8 37.1,158.1 39.8,158.1 39.8,157.9 37.1,157.9 37.1,155.2 36.9,155.2 
	36.9,157.9 34.2,157.9 34.2,158.1 36.9,158.1 "/>
<path fill="none" stroke="#475462" stroke-width="0.7418" d="M43.2,282.5c-2.5,0-5,0-7.5,0c-0.2,0-0.4-0.1-0.6-0.3
	c0-0.1-0.1-0.1-0.1-0.2c-0.1-0.1-0.1-0.3-0.1-0.4c0-0.1,0-0.3,0-0.4c0-0.7,0-1.5,0-2.2c0-0.1,0-0.3,0-0.4c0-0.1,0.1-0.3,0.1-0.4
	c0-0.1,0.1-0.1,0.1-0.2c0.1-0.2,0.3-0.3,0.6-0.3c2.5,0,5,0,7.5,0"/>
<path fill="none" stroke="#475462" stroke-width="0.7418" d="M43.2,247.2c-2.5,0-5,0-7.5,0c-0.2,0-0.4-0.1-0.6-0.3
	c0-0.1-0.1-0.1-0.1-0.2c-0.1-0.1-0.1-0.3-0.1-0.4c0-0.1,0-0.3,0-0.4c0-0.7,0-1.5,0-2.2c0-0.1,0-0.3,0-0.4c0-0.1,0.1-0.3,0.1-0.4
	c0-0.1,0.1-0.1,0.1-0.2c0.1-0.2,0.3-0.3,0.6-0.3c2.5,0,5,0,7.5,0"/>
<path fill="none" stroke="#475462" stroke-width="0.7418" d="M43.2,259c-2.5,0-5,0-7.5,0c-0.2,0-0.4-0.1-0.6-0.3
	c0-0.1-0.1-0.1-0.1-0.2c-0.1-0.1-0.1-0.3-0.1-0.4c0-0.1,0-0.3,0-0.4c0-0.7,0-1.5,0-2.2c0-0.1,0-0.3,0-0.4c0-0.1,0.1-0.3,0.1-0.4
	c0-0.1,0.1-0.1,0.1-0.2c0.1-0.2,0.3-0.3,0.6-0.3c2.5,0,5,0,7.5,0"/>
<path fill="none" stroke="#475462" stroke-width="0.7418" d="M43.2,270.7c-2.5,0-5,0-7.5,0c-0.2,0-0.3,0-0.4-0.1
	c-0.1-0.1-0.2-0.2-0.3-0.3c-0.1-0.3-0.2-0.5-0.2-0.8c0-0.7,0-1.5,0-2.2c0-0.3,0-0.6,0.2-0.8c0.1-0.2,0.2-0.3,0.5-0.4
	c0.1,0,0.1,0,0.2,0c2.5,0,5,0,7.5,0"/>
<rect x="32.7" y="159.4" fill="#FFFFFF" width="0.3" height="1.4"/>
<rect x="32.7" y="156.6" fill="#FFFFFF" width="0.3" height="1.4"/>
<polygon fill="#FFFFFF" points="3.5,5.8 4,5.8 4,6 3.7,6 3.7,9.9 4,9.9 4,10.1 3.5,10.1 "/>
<rect x="21.1" y="216.8" fill="none" stroke="#475462" stroke-width="0.7418" width="4.3" height="3.7"/>
<circle fill="none" stroke="#475462" stroke-width="0.7418" cx="22.7" cy="218.6" r="0.8"/>
<rect x="21.1" y="217.8" fill="none" stroke="#475462" stroke-width="0.7418" width="3.5" height="1.6"/>
<rect x="21.1" y="211.9" fill="none" stroke="#475462" stroke-width="0.7418" width="4.3" height="3.7"/>
<circle fill="none" stroke="#475462" stroke-width="0.7418" cx="22.7" cy="213.8" r="0.8"/>
<rect x="21.1" y="213" fill="none" stroke="#475462" stroke-width="0.7418" width="3.5" height="1.6"/>
<rect x="21.1" y="207.1" fill="none" stroke="#475462" stroke-width="0.7418" width="4.3" height="3.7"/>
<circle fill="none" stroke="#475462" stroke-width="0.7418" cx="22.7" cy="208.9" r="0.8"/>
<rect x="21.1" y="208.1" fill="none" stroke="#475462" stroke-width="0.7418" width="3.5" height="1.6"/>
<rect x="21.1" y="202.3" fill="none" stroke="#475462" stroke-width="0.7418" width="4.3" height="3.7"/>
<circle fill="none" stroke="#475462" stroke-width="0.7418" cx="22.7" cy="204.1" r="0.8"/>
<rect x="21.1" y="203.3" fill="none" stroke="#475462" stroke-width="0.7418" width="3.5" height="1.6"/>
<rect x="21.1" y="192.6" fill="none" stroke="#475462" stroke-width="0.7418" width="4.3" height="3.7"/>
<circle fill="none" stroke="#475462" stroke-width="0.7418" cx="22.7" cy="194.4" r="0.8"/>
<rect x="21.1" y="193.6" fill="none" stroke="#475462" stroke-width="0.7418" width="3.5" height="1.6"/>
<path fill="none" stroke="#475462" stroke-width="0.7418" d="M29.4,217.2c0,0.9,0,1.8,0,2.8c-0.1,0-0.2,0-0.3,0c0,0-0.1,0.1-0.1,0.1
	c-0.1,0.1-0.1,0.1-0.2,0.2c0,0-0.1,0.1-0.1,0.1c-0.1,0-0.1,0.1-0.2,0.1c0,0-0.1,0-0.1,0c0,0-0.1,0-0.1,0c0,0,0,0,0,0c0,0,0,0,0,0
	c0,0,0,0,0,0c0,0,0,0,0,0c0,0-0.1,0-0.1,0c0,0-0.1,0-0.1,0c0,0-0.1,0-0.1,0c0,0-0.1,0-0.1,0c0,0,0,0-0.1,0c0,0,0,0-0.1,0
	c0,0,0,0-0.1,0c0,0,0,0-0.1,0c0,0-0.1,0-0.1,0c0,0-0.1,0-0.1,0c-0.6,0-1.2-0.3-1.6-0.7c-0.1,0-0.2,0-0.3,0c0,0.2,0,0.4,0,0.6
	c-1.5,0-2.9,0-4.4,0c0-1.3,0-2.6,0-3.9c1.5,0,2.9,0,4.4,0c0,0.2,0,0.4,0,0.6c0.1,0,0.2,0,0.3,0c0.4-0.4,1-0.7,1.6-0.7
	c0,0,0.1,0,0.1,0c0,0,0.1,0,0.1,0c0,0,0.1,0,0.1,0c0,0,0.1,0,0.1,0c0,0,0,0,0.1,0c0,0,0,0,0.1,0c0,0,0,0,0.1,0c0,0,0,0,0.1,0
	c0,0,0.1,0,0.1,0c0,0,0.1,0,0.1,0c0,0,0.1,0,0.1,0c0,0,0.1,0,0.1,0c0,0,0,0,0,0c0,0,0,0,0,0c0,0,0,0,0,0c0,0,0,0,0,0
	c0.1,0,0.1,0.1,0.2,0.1c0,0,0.1,0.1,0.1,0.1c0.1,0,0.1,0.1,0.2,0.2c0,0,0.1,0.1,0.1,0.1C29.2,217.2,29.3,217.2,29.4,217.2z"/>
<path fill="none" stroke="#475462" stroke-width="0.7418" d="M29.4,193.1c0,0.9,0,1.8,0,2.8c-0.1,0-0.2,0-0.3,0c0,0-0.1,0.1-0.1,0.1
	c-0.1,0.1-0.1,0.1-0.2,0.2c0,0-0.1,0.1-0.1,0.1c-0.1,0-0.1,0.1-0.2,0.1c0,0-0.1,0-0.1,0c0,0-0.1,0-0.1,0c0,0,0,0,0,0c0,0,0,0,0,0
	c0,0,0,0,0,0c0,0,0,0,0,0c0,0-0.1,0-0.1,0c0,0-0.1,0-0.1,0c0,0-0.1,0-0.1,0c0,0-0.1,0-0.1,0c0,0,0,0-0.1,0c0,0,0,0-0.1,0
	c0,0,0,0-0.1,0c0,0,0,0-0.1,0c0,0-0.1,0-0.1,0c0,0-0.1,0-0.1,0c-0.6,0-1.2-0.3-1.6-0.7c-0.1,0-0.2,0-0.3,0c0,0.2,0,0.4,0,0.6
	c-1.5,0-2.9,0-4.4,0c0-1.3,0-2.6,0-3.9c1.5,0,2.9,0,4.4,0c0,0.2,0,0.4,0,0.6c0.1,0,0.2,0,0.3,0c0.4-0.4,1-0.7,1.6-0.7
	c0,0,0.1,0,0.1,0c0,0,0.1,0,0.1,0c0,0,0.1,0,0.1,0c0,0,0.1,0,0.1,0c0,0,0,0,0.1,0c0,0,0,0,0.1,0c0,0,0,0,0.1,0c0,0,0,0,0.1,0
	c0,0,0.1,0,0.1,0c0,0,0.1,0,0.1,0c0,0,0.1,0,0.1,0c0,0,0.1,0,0.1,0c0,0,0,0,0,0c0,0,0,0,0,0c0,0,0,0,0,0c0,0,0,0,0,0
	c0.1,0,0.1,0.1,0.2,0.1c0,0,0.1,0.1,0.1,0.1c0.1,0,0.1,0.1,0.2,0.2c0,0,0.1,0.1,0.1,0.1C29.2,193.1,29.3,193.1,29.4,193.1z"/>
<path fill="none" stroke="#475462" stroke-width="0.7418" d="M29.4,212.4c0,0.9,0,1.8,0,2.8c-0.1,0-0.2,0-0.3,0c0,0-0.1,0.1-0.1,0.1
	c-0.1,0.1-0.1,0.1-0.2,0.2c0,0-0.1,0.1-0.1,0.1c-0.1,0-0.1,0.1-0.2,0.1c0,0-0.1,0-0.1,0c0,0-0.1,0-0.1,0c0,0,0,0,0,0c0,0,0,0,0,0
	c0,0,0,0,0,0c0,0,0,0,0,0c0,0-0.1,0-0.1,0c0,0-0.1,0-0.1,0c0,0-0.1,0-0.1,0c0,0-0.1,0-0.1,0c0,0,0,0-0.1,0c0,0,0,0-0.1,0
	c0,0,0,0-0.1,0c0,0,0,0-0.1,0c0,0-0.1,0-0.1,0c0,0-0.1,0-0.1,0c-0.6,0-1.2-0.3-1.6-0.7c-0.1,0-0.2,0-0.3,0c0,0.2,0,0.4,0,0.6
	c-1.5,0-2.9,0-4.4,0c0-1.3,0-2.6,0-3.9c1.5,0,2.9,0,4.4,0c0,0.2,0,0.4,0,0.6c0.1,0,0.2,0,0.3,0c0.4-0.4,1-0.7,1.6-0.7
	c0,0,0.1,0,0.1,0c0,0,0.1,0,0.1,0c0,0,0.1,0,0.1,0c0,0,0.1,0,0.1,0c0,0,0,0,0.1,0c0,0,0,0,0.1,0c0,0,0,0,0.1,0c0,0,0,0,0.1,0
	c0,0,0.1,0,0.1,0c0,0,0.1,0,0.1,0c0,0,0.1,0,0.1,0c0,0,0.1,0,0.1,0c0,0,0,0,0,0c0,0,0,0,0,0c0,0,0,0,0,0c0,0,0,0,0,0
	c0.1,0,0.1,0.1,0.2,0.1c0,0,0.1,0.1,0.1,0.1c0.1,0.1,0.1,0.1,0.2,0.2c0,0,0.1,0.1,0.1,0.1C29.2,212.4,29.3,212.4,29.4,212.4z"/>
<path fill="none" stroke="#475462" stroke-width="0.7418" d="M29.4,197.9c0,0.9,0,1.8,0,2.8c-0.1,0-0.2,0-0.3,0c0,0-0.1,0.1-0.1,0.1
	c-0.1,0.1-0.1,0.1-0.2,0.2c0,0-0.1,0.1-0.1,0.1c-0.1,0-0.1,0.1-0.2,0.1c0,0-0.1,0-0.1,0c0,0-0.1,0-0.1,0c0,0,0,0,0,0c0,0,0,0,0,0
	c0,0,0,0,0,0c0,0,0,0,0,0c0,0-0.1,0-0.1,0c0,0-0.1,0-0.1,0c0,0-0.1,0-0.1,0c0,0-0.1,0-0.1,0c0,0,0,0-0.1,0c0,0,0,0-0.1,0
	c0,0,0,0-0.1,0c0,0,0,0-0.1,0c0,0-0.1,0-0.1,0c0,0-0.1,0-0.1,0c-0.6,0-1.2-0.3-1.6-0.7c-0.1,0-0.2,0-0.3,0c0,0.2,0,0.4,0,0.6
	c-1.5,0-2.9,0-4.4,0c0-1.3,0-2.6,0-3.9c1.5,0,2.9,0,4.4,0c0,0.2,0,0.4,0,0.6c0.1,0,0.2,0,0.3,0c0.4-0.4,1-0.7,1.6-0.7
	c0,0,0.1,0,0.1,0c0,0,0.1,0,0.1,0c0,0,0.1,0,0.1,0c0,0,0.1,0,0.1,0c0,0,0,0,0.1,0c0,0,0,0,0.1,0c0,0,0,0,0.1,0c0,0,0,0,0.1,0
	c0,0,0.1,0,0.1,0c0,0,0.1,0,0.1,0c0,0,0.1,0,0.1,0c0,0,0.1,0,0.1,0c0,0,0,0,0,0c0,0,0,0,0,0c0,0,0,0,0,0c0,0,0,0,0,0
	c0.1,0,0.1,0.1,0.2,0.1c0,0,0.1,0.1,0.1,0.1c0.1,0,0.1,0.1,0.2,0.2c0,0,0.1,0.1,0.1,0.1C29.2,197.9,29.3,197.9,29.4,197.9z"/>
<path fill="none" stroke="#475462" stroke-width="0.7418" d="M29.4,207.6c0,0.9,0,1.8,0,2.8c-0.1,0-0.2,0-0.3,0c0,0-0.1,0.1-0.1,0.1
	c-0.1,0-0.1,0.1-0.2,0.2c0,0-0.1,0.1-0.1,0.1c-0.1,0-0.1,0.1-0.2,0.1c0,0-0.1,0-0.1,0c0,0-0.1,0-0.1,0c0,0,0,0,0,0c0,0,0,0,0,0
	c0,0,0,0,0,0c0,0,0,0,0,0c0,0-0.1,0-0.1,0c0,0-0.1,0-0.1,0c0,0-0.1,0-0.1,0c0,0-0.1,0-0.1,0c0,0,0,0-0.1,0c0,0,0,0-0.1,0
	c0,0,0,0-0.1,0c0,0,0,0-0.1,0c0,0-0.1,0-0.1,0c0,0-0.1,0-0.1,0c-0.6,0-1.2-0.3-1.6-0.7c-0.1,0-0.2,0-0.3,0c0,0.2,0,0.4,0,0.6
	c-1.5,0-2.9,0-4.4,0c0-1.3,0-2.6,0-3.9c1.5,0,2.9,0,4.4,0c0,0.2,0,0.4,0,0.6c0.1,0,0.2,0,0.3,0c0.4-0.4,1-0.7,1.6-0.7
	c0,0,0.1,0,0.1,0c0,0,0.1,0,0.1,0c0,0,0.1,0,0.1,0c0,0,0.1,0,0.1,0c0,0,0,0,0.1,0c0,0,0,0,0.1,0c0,0,0,0,0.1,0c0,0,0,0,0.1,0
	c0,0,0.1,0,0.1,0c0,0,0.1,0,0.1,0c0,0,0.1,0,0.1,0c0,0,0.1,0,0.1,0c0,0,0,0,0,0c0,0,0,0,0,0c0,0,0,0,0,0c0,0,0,0,0,0
	c0.1,0,0.1,0.1,0.2,0.1c0,0,0.1,0.1,0.1,0.1c0.1,0.1,0.1,0.1,0.2,0.2c0,0,0.1,0.1,0.1,0.1C29.2,207.6,29.3,207.6,29.4,207.6z"/>
<path fill="none" stroke="#475462" stroke-width="0.7418" d="M29.4,202.7c0,0.9,0,1.8,0,2.8c-0.1,0-0.2,0-0.3,0c0,0-0.1,0.1-0.1,0.1
	c-0.1,0.1-0.1,0.1-0.2,0.2c0,0-0.1,0.1-0.1,0.1c-0.1,0-0.1,0.1-0.2,0.1c0,0-0.1,0-0.1,0c0,0-0.1,0-0.1,0c0,0,0,0,0,0c0,0,0,0,0,0
	c0,0,0,0,0,0c0,0,0,0,0,0c0,0-0.1,0-0.1,0c0,0-0.1,0-0.1,0c0,0-0.1,0-0.1,0c0,0-0.1,0-0.1,0c0,0,0,0-0.1,0c0,0,0,0-0.1,0
	c0,0,0,0-0.1,0c0,0,0,0-0.1,0c0,0-0.1,0-0.1,0c0,0-0.1,0-0.1,0c-0.6,0-1.2-0.3-1.6-0.7c-0.1,0-0.2,0-0.3,0c0,0.2,0,0.4,0,0.6
	c-1.5,0-2.9,0-4.4,0c0-1.3,0-2.6,0-3.9c1.5,0,2.9,0,4.4,0c0,0.2,0,0.4,0,0.6c0.1,0,0.2,0,0.3,0c0.4-0.4,1-0.7,1.6-0.7
	c0,0,0.1,0,0.1,0c0,0,0.1,0,0.1,0c0,0,0.1,0,0.1,0c0,0,0.1,0,0.1,0c0,0,0,0,0.1,0c0,0,0,0,0.1,0c0,0,0,0,0.1,0c0,0,0,0,0.1,0
	c0,0,0.1,0,0.1,0c0,0,0.1,0,0.1,0c0,0,0.1,0,0.1,0c0,0,0.1,0,0.1,0c0,0,0,0,0,0c0,0,0,0,0,0c0,0,0,0,0,0c0,0,0,0,0,0
	c0.1,0,0.1,0.1,0.2,0.1c0,0,0.1,0.1,0.1,0.1c0.1,0.1,0.1,0.1,0.2,0.2c0,0,0.1,0.1,0.1,0.1C29.2,202.7,29.3,202.7,29.4,202.7z"/>
<rect x="21.1" y="197.4" fill="none" stroke="#475462" stroke-width="0.7418" width="4.3" height="3.7"/>
<circle fill="none" stroke="#475462" stroke-width="0.7418" cx="22.7" cy="199.3" r="0.8"/>
<rect x="21.1" y="198.5" fill="none" stroke="#475462" stroke-width="0.7418" width="3.5" height="1.6"/>
<rect x="20.6" y="191.3" fill="none" stroke="#475462" stroke-width="0.7418" width="8.8" height="30.8"/>
<rect x="34.5" y="207.6" fill="#EBEDF3" width="2.7" height="2.7"/>
<rect x="34.5" y="202.8" fill="#EBEDF3" width="2.7" height="2.7"/>
<rect x="34.5" y="197.9" fill="#EBEDF3" width="2.7" height="2.7"/>
<rect x="34.5" y="193.1" fill="#EBEDF3" width="2.7" height="2.7"/>
<rect x="19.2" y="204.1" fill="#FFFFFF" width="1" height="0.2"/>
<rect x="19.2" y="199.2" fill="#FFFFFF" width="1" height="0.2"/>
<polygon fill="#FFFFFF" points="34.2,199.2 34.2,199.3 34.2,199.4 33.1,199.4 33.1,199.3 33.1,199.2 "/>
<polygon fill="#FFFFFF" points="33.1,208.9 34.2,208.9 34.2,209 34.2,209.1 33.1,209.1 33.1,209 "/>
<polygon fill="#FFFFFF" points="34.2,204.1 34.2,204.2 34.2,204.2 33.1,204.2 33.1,204.2 33.1,204.1 "/>
<polygon fill="#FFFFFF" points="34.2,194.6 33.1,194.6 33.1,194.5 33.1,194.4 34.2,194.4 34.2,194.5 "/>
<rect x="19.2" y="194.4" fill="#FFFFFF" width="1" height="0.2"/>
<rect x="19.2" y="208.9" fill="#FFFFFF" width="1" height="0.2"/>
<rect x="23.3" y="105.3" fill="none" stroke="#475462" stroke-width="0.7418" width="3.9" height="4.4"/>
<rect x="17.8" y="105.3" fill="none" stroke="#475462" stroke-width="0.7418" width="3.9" height="4.4"/>
<rect x="22.2" y="64.4" fill="#FFFFFF" width="0.7" height="2.5"/>
<circle fill="#384152" cx="22.5" cy="70.4" r="3.5"/>
<circle fill="#384152" cx="22.5" cy="87" r="10.9"/>
<polygon fill="#FFFFFF" points="27.3,111.7 26.8,111.7 26.8,112 28.2,112 28.2,111.7 27.6,111.7 27.6,109.8 27.3,109.8 "/>
<rect x="31.4" y="126.5" fill="#EBEDF3" width="2.7" height="2.7"/>
<rect x="31.4" y="123" fill="#EBEDF3" width="2.7" height="2.7"/>
<rect x="31.4" y="119.5" fill="#EBEDF3" width="2.7" height="2.7"/>
<rect x="31.4" y="116" fill="#EBEDF3" width="2.7" height="2.7"/>
<rect x="1.8" y="10.8" fill="#74889A" width="41.4" height="5.2"/>
<polygon fill="#FFFFFF" points="28.5,64.3 28.6,64.4 28.8,64.5 28.8,64.5 28.8,64.6 28.9,64.6 28.9,64.6 29,64.7 29,64.8 29.1,64.9 
	29.3,65.1 29.3,65.1 29.3,65.1 29.3,65.2 29.3,65.2 29.4,65.3 29.4,65.4 29.5,65.5 29.5,65.7 29.5,65.8 29.5,65.8 29.6,65.9 
	29.6,65.9 29.6,66 29.6,66.1 29.6,66.3 29.6,66.4 29.6,66.5 29.5,66.6 29.5,66.7 29.5,66.8 29.5,67 29.4,67.1 29.4,67.2 29.3,67.2 
	29.3,67.3 29.3,67.3 29.3,67.4 29.2,67.4 29.1,67.6 29,67.7 29,67.8 28.9,67.8 28.9,67.8 28.9,67.9 28.8,67.9 28.7,68 28.6,68.1 
	28.4,68.2 28.4,68.2 28.3,68.2 28.3,68.2 28.2,68.2 28.2,68.3 28.1,68.3 27.9,68.4 27.7,68.4 27.6,68.4 27.6,68.4 27.5,68.4 
	27.4,68.4 27.2,68.4 27,68.4 26.9,68.4 26.8,68.4 26.8,68.3 26.7,68.3 26.7,68.3 26.7,68.3 26.5,68.2 26.3,68.2 26.3,68.1 
	26.2,68.1 26.1,68 26.1,68 26.1,68 26,68 25.9,67.9 25.8,67.7 25.7,67.7 25.6,67.6 25.6,67.6 25.6,67.5 25.6,67.5 25.5,67.4 
	25.4,67.3 25.4,67.1 25.3,67 25.3,67 25.3,66.9 25.2,66.8 25.2,66.6 25.2,66.4 25.2,66.3 25.2,66.3 25.2,66.2 25.2,66.2 25.2,66.1 
	25.2,66.1 25.2,65.9 25.2,65.7 25.2,65.6 25.3,65.5 25.3,65.5 25.3,65.5 25.3,65.4 25.3,65.4 25.4,65.2 25.5,65.1 25.5,65 
	25.6,64.9 25.6,64.9 25.7,64.8 25.7,64.8 25.7,64.8 25.8,64.6 26,64.5 26.1,64.4 26.3,64.3 26.4,64.5 26.3,64.6 26.1,64.7 26,64.8 
	25.9,64.9 25.9,65 25.9,65 25.8,65 25.8,65.1 25.8,65.1 25.7,65.2 25.7,65.3 25.6,65.5 25.6,65.5 25.6,65.6 25.5,65.6 25.5,65.6 
	25.5,65.7 25.5,65.8 25.5,65.9 25.4,66.1 25.4,66.1 25.4,66.2 25.4,66.2 25.4,66.2 25.4,66.3 25.4,66.4 25.5,66.6 25.5,66.7 
	25.5,66.8 25.6,66.9 25.6,66.9 25.6,67 25.7,67.2 25.8,67.3 25.8,67.3 25.8,67.4 25.8,67.4 25.9,67.4 25.9,67.5 26,67.5 26.1,67.6 
	26.2,67.8 26.2,67.8 26.3,67.8 26.3,67.8 26.3,67.8 26.4,67.9 26.5,67.9 26.6,68 26.7,68 26.8,68.1 26.8,68.1 26.9,68.1 26.9,68.1 
	27,68.1 27.1,68.1 27.2,68.1 27.4,68.1 27.5,68.1 27.5,68.1 27.6,68.1 27.7,68.1 27.8,68.1 28,68 28.1,68 28.1,68 28.2,68 28.2,68 
	28.2,67.9 28.3,67.9 28.4,67.8 28.5,67.8 28.6,67.7 28.7,67.6 28.7,67.6 28.7,67.6 28.8,67.6 28.8,67.5 28.9,67.4 29,67.3 29,67.2 
	29.1,67.2 29.1,67.1 29.1,67.1 29.1,67.1 29.1,67 29.2,66.9 29.2,66.7 29.3,66.6 29.3,66.6 29.3,66.5 29.3,66.4 29.3,66.2 
	29.3,66.1 29.3,66 29.3,65.9 29.3,65.9 29.3,65.9 29.3,65.8 29.3,65.8 29.2,65.6 29.2,65.5 29.1,65.4 29.1,65.3 29.1,65.3 
	29.1,65.3 29,65.2 29,65.2 28.9,65.1 28.8,64.9 28.8,64.9 28.7,64.8 28.7,64.8 28.7,64.8 28.6,64.8 28.6,64.7 28.5,64.6 28.3,64.5 
	"/>
<rect x="5.2" y="18.8" fill="#A8D9E7" width="18.2" height="44.9"/>
<rect x="31.5" y="12" fill="#EBEDF3" width="2.6" height="2.6"/>
<rect x="28" y="12" fill="#EBEDF3" width="2.6" height="2.6"/>
<rect x="24.5" y="12" fill="#EBEDF3" width="2.6" height="2.6"/>
<rect x="34.9" y="165.5" fill="#FFFFFF" width="1.4" height="0.3"/>
<rect x="37.7" y="154.4" fill="#FFFFFF" width="1.4" height="0.3"/>
<rect x="41" y="156.6" fill="#FFFFFF" width="0.3" height="1.4"/>
<rect x="37.7" y="165.5" fill="#FFFFFF" width="1.4" height="0.3"/>
<polygon fill="#FFFFFF" points="12.7,79.3 8.4,82 9.8,82.5 9.5,83.3 9.4,84 9.2,84.8 9.1,85.6 9.1,86 9,86.3 9,86.5 9,86.7 9,86.9 
	9,87.1 9.1,87.9 9.2,88.7 9.3,89.5 9.4,90.2 9.6,90.6 9.7,91 9.7,91.2 9.8,91.4 9.8,91.5 9.9,91.6 9.9,91.6 9.9,91.7 10.2,92.5 
	10.6,93.2 11,93.9 11.4,94.5 12.7,94.5 12.4,94.1 12.1,93.7 11.8,93.3 11.6,92.8 11.3,92.4 11.1,91.9 10.9,91.4 10.7,90.9 
	10.7,90.8 10.7,90.7 10.6,90.6 10.6,90.5 10.5,90.2 10.4,90 10.3,89.5 10.2,89 10.2,88.5 10.1,88 10.1,87.4 10.1,86.9 10.1,86.8 
	10.1,86.7 10.1,86.6 10.1,86.4 10.1,86.2 10.1,85.9 10.2,85.4 10.2,84.9 10.3,84.4 10.4,83.9 10.6,83.4 10.7,82.9 10.8,82.8 
	10.8,82.7 10.9,82.6 10.9,82.4 11,82.2 11.1,82 11.3,81.5 11.6,81 11.8,80.6 12.1,80.2 12.4,79.7 "/>
<rect x="27.2" y="63.1" fill="#FFFFFF" width="0.3" height="2.1"/>
<polygon fill="#FFFFFF" points="27.3,117.4 27.6,117.4 27.6,115.3 25.9,111.8 25.7,111.9 27.3,115.3 "/>
<polygon fill="#FFFFFF" points="36.2,104.2 36.2,101.4 34.8,101.4 34.8,101.7 35.9,101.7 35.9,104.4 40.6,104.4 40.6,101.7 
	41.7,101.7 41.7,101.4 40.4,101.4 40.4,104.2 "/>
<polygon fill="#FFFFFF" points="38.7,100 39.1,100 38.3,99.2 37.5,100 37.9,100 37.9,102.8 38.7,102.8 "/>
<rect x="6.3" y="7.8" fill="#FFFFFF" width="0.9" height="0.3"/>
<polygon fill="#FFFFFF" points="10,5.8 10,10.1 9.5,10.1 9.5,9.9 9.8,9.9 9.8,6 9.5,6 9.5,5.8 "/>
<rect x="22.2" y="105.8" fill="#FFFFFF" width="0.7" height="3.6"/>
<path fill="none" stroke="#475462" stroke-width="0.7418" d="M25.7,275.9c0,2.8,0,5.5,0,8.3c0,0.3-0.1,0.4-0.4,0.4
	c-6.1,0-12.2,0-18.3,0c-0.3,0-0.4-0.1-0.4-0.4c0-2.8,0-5.5,0-8.3c0-0.3,0.1-0.4,0.4-0.4c6.1,0,12.2,0,18.3,0
	C25.5,275.5,25.7,275.6,25.7,275.9z"/>
<path fill="none" stroke="#475462" stroke-width="0.7418" d="M25.7,264.2c0,2.8,0,5.5,0,8.3c0,0.3-0.1,0.4-0.4,0.4
	c-6.1,0-12.2,0-18.3,0c-0.3,0-0.4-0.1-0.4-0.4c0-2.8,0-5.5,0-8.3c0-0.3,0.1-0.4,0.4-0.4c6.1,0,12.2,0,18.3,0
	C25.5,263.8,25.7,263.9,25.7,264.2z"/>
<path fill="none" stroke="#475462" stroke-width="0.7418" d="M25.7,240.7c0,2.8,0,5.5,0,8.3c0,0.3-0.1,0.4-0.4,0.4
	c-6.1,0-12.2,0-18.3,0c-0.3,0-0.4-0.1-0.4-0.4c0-2.8,0-5.5,0-8.3c0-0.3,0.1-0.4,0.4-0.4c6.1,0,12.2,0,18.3,0
	C25.6,240.3,25.7,240.4,25.7,240.7z"/>
<path fill="none" stroke="#475462" stroke-width="0.7418" d="M33,191.1c0,3,0,36,0,39c0,0.3-0.1,0.5-0.4,0.5c-6.6,0-13.2,0-19.8,0
	c-0.3,0-0.4-0.1-0.4-0.5c0-3,0-36,0-39c0-0.3,0.1-0.4,0.4-0.4c6.6,0,13.2,0,19.8,0C32.9,190.7,33,190.8,33,191.1z"/>
<path fill="none" stroke="#475462" stroke-width="0.7418" d="M25.7,252.5c0,2.8,0,5.5,0,8.3c0,0.3-0.1,0.4-0.4,0.4
	c-6.1,0-12.2,0-18.3,0c-0.3,0-0.4-0.1-0.4-0.4c0-2.8,0-5.5,0-8.3c0-0.3,0.1-0.4,0.4-0.4c6.1,0,12.2,0,18.3,0
	C25.5,252,25.7,252.2,25.7,252.5z"/>
<line fill="none" stroke="#475462" stroke-width="0.4857" stroke-miterlimit="10" x1="42.5" y1="181.5" x2="2.3" y2="181.5"/>
<line fill="none" stroke="#475462" stroke-width="0.4857" stroke-miterlimit="10" x1="42.5" y1="235.4" x2="2.3" y2="235.4"/>
<line fill="none" stroke="#475462" stroke-width="0.4932" stroke-miterlimit="10" x1="43.2" y1="4.7" x2="1.8" y2="4.7"/>
<path fill="#455063" d="M25.2,104.7c-0.1,0.5-0.5,0.9-1,0.9c-1.3,0-2.5,0-3.8,0c-0.5,0-0.9-0.4-1-0.9c-0.1-0.7-0.2-1.5-0.3-2.2
	c-0.1-0.7-0.2-1.5-0.3-2.2c0-0.1,0-0.2,0-0.3c0-0.1,0-0.2,0-0.3c0-0.1,0-0.2,0-0.3c0-0.1,0-0.2,0-0.3c0-0.2,0-0.4-0.1-0.5
	c0-0.2,0-0.4-0.1-0.5c0-0.4-0.1-0.7-0.1-1.1c0-0.4-0.1-0.7-0.1-1.1c0-0.7-0.1-1.5-0.1-2.2c0-0.7,0-1.5-0.1-2.2c0-0.7,0-1.5,0-2.2
	c0-0.7,0-1.5,0-2.2c0-0.7,0.1-1.4,0.1-2.2c0-0.7,0.1-1.4,0.1-2.2c0.1-0.7,0.1-1.4,0.2-2.2c0.1-0.7,0.2-1.4,0.2-2.2
	c0.1-0.7,0.2-1.4,0.3-2.2c0.1-0.7,0.2-1.4,0.3-2.2c0.1-0.7,0.3-1.4,0.4-2.2c0.1-0.7,0.3-1.4,0.4-2.2c0-0.1,0-0.1,0-0.2
	c0-0.1,0-0.1,0.1-0.2c0-0.1,0-0.1,0.1-0.2c0-0.1,0.1-0.1,0.1-0.2c0,0,0,0,0,0c0,0,0,0,0,0c0,0,0,0,0,0c0,0,0,0,0,0c0,0,0,0,0.1-0.1
	c0,0,0,0,0.1-0.1c0,0,0.1-0.1,0.1-0.1c0,0,0.1-0.1,0.1-0.1c0,0,0,0,0,0c0,0,0,0,0,0c0,0,0,0,0,0c0,0,0,0,0,0c0,0,0,0,0.1,0
	c0,0,0.1,0,0.1,0c0.1,0,0.1-0.1,0.2-0.1c0.1,0,0.1,0,0.2-0.1c0,0,0,0,0,0c0,0,0,0,0,0c0,0,0,0,0,0c0,0,0,0,0,0c0,0,0.1,0,0.1,0
	c0,0,0.1,0,0.1,0c0.1,0,0.1,0,0.2,0c0.1,0,0.1,0,0.2,0c0,0,0,0,0,0c0,0,0,0,0,0c0,0,0,0,0,0c0,0,0,0,0,0c0,0,0.1,0,0.1,0
	c0,0,0.1,0,0.1,0c0.1,0,0.1,0,0.2,0c0.1,0,0.1,0,0.2,0.1c0,0,0.1,0,0.1,0c0,0,0.1,0,0.1,0c0,0,0.1,0,0.1,0c0,0,0.1,0,0.1,0
	c0,0,0.1,0.1,0.1,0.1c0,0,0.1,0.1,0.1,0.1c0,0,0,0,0.1,0.1c0,0,0,0,0.1,0.1c0,0,0,0,0.1,0.1c0,0,0,0,0.1,0.1c0,0,0.1,0.1,0.1,0.1
	c0,0.1,0.1,0.1,0.1,0.1c0,0.1,0.1,0.1,0.1,0.2c0,0.1,0,0.1,0.1,0.2c0,0.1,0,0.1,0.1,0.2c0,0.1,0,0.1,0,0.2c0.1,0.7,0.3,1.4,0.4,2.2
	c0.1,0.7,0.3,1.4,0.4,2.2c0.1,0.7,0.2,1.4,0.3,2.2c0.1,0.7,0.2,1.4,0.3,2.2c0.1,0.7,0.2,1.4,0.2,2.2c0.1,0.7,0.1,1.4,0.2,2.2
	c0,0.7,0.1,1.4,0.1,2.2c0,0.7,0.1,1.4,0.1,2.2c0,0.7,0,1.5,0,2.2c0,0.7,0,1.5,0,2.2c0,0.7,0,1.5-0.1,2.2c0,0.7-0.1,1.5-0.1,2.2
	c0,0.4-0.1,0.7-0.1,1.1c0,0.4-0.1,0.7-0.1,1.1c0,0.2,0,0.4-0.1,0.5c0,0.2,0,0.4-0.1,0.5c0,0.1,0,0.2,0,0.3c0,0.1,0,0.2,0,0.3
	c0,0.1,0,0.2,0,0.3c0,0.1,0,0.2,0,0.3c-0.1,0.7-0.2,1.5-0.3,2.2C25.4,103.3,25.3,104,25.2,104.7C25.2,104.7,25.2,104.7,25.2,104.7
	C25.2,104.7,25.2,104.7,25.2,104.7"/>
<polyline fill="none" stroke="#475462" stroke-width="0.4932" stroke-miterlimit="10" points="4,2 4.1,4.1 5.8,4.1 5.9,2 "/>
<polyline fill="none" stroke="#475462" stroke-width="0.4932" stroke-miterlimit="10" points="7.3,2 7.4,4.1 9.1,4.1 9.2,2 "/>
<polyline fill="none" stroke="#475462" stroke-width="0.4932" stroke-miterlimit="10" points="10.6,2 10.7,4.1 13.8,4.1 13.9,2 "/>
<polyline fill="none" stroke="#475462" stroke-width="0.4932" stroke-miterlimit="10" points="15.3,2 15.4,4.1 21,4.1 21.1,2 "/>
<polyline fill="none" stroke="#475462" stroke-width="0.4932" stroke-miterlimit="10" points="41,2 40.9,4.1 39.2,4.1 39.1,2 "/>
<polyline fill="none" stroke="#475462" stroke-width="0.4932" stroke-miterlimit="10" points="37.7,2 37.6,4.1 35.9,4.1 35.8,2 "/>
<polyline fill="none" stroke="#475462" stroke-width="0.4932" stroke-miterlimit="10" points="34.4,2 34.3,4.1 31.2,4.1 31.1,2 "/>
<polyline fill="none" stroke="#475462" stroke-width="0.4932" stroke-miterlimit="10" points="29.7,2 29.6,4.1 24,4.1 23.9,2 "/>
<circle fill="none" stroke="#FFFFFF" stroke-width="0.4945" stroke-miterlimit="10" cx="22.5" cy="113.6" r="2.2"/>
<circle fill="none" stroke="#475462" stroke-width="0.4857" stroke-miterlimit="10" cx="14.6" cy="152.4" r="3.9"/>
<path fill="none" stroke="#475462" stroke-width="0.4857" stroke-miterlimit="10" d="M18.5,186.2c0,0.5,0.4,0.9,0.9,0.9h6.2
	c0.5,0,0.9-0.4,0.9-0.9V184c0-0.5-0.4-0.9-0.9-0.9h-6.2c-0.5,0-0.9,0.4-0.9,0.9V186.2z"/>
<g id="Typo">
	<g>
		<text transform="matrix(0.6717 0 0 1 24.375 18.8018)" fill="#EBEDF3" font-family="'SiemensSans-Roman'" font-size="3.3326">RN</text>
		<text transform="matrix(0.7131 0 0 1 27.9561 18.8018)" fill="#EBEDF3" font-family="'SiemensSans-Roman'" font-size="3.3326">ER</text>
		<text transform="matrix(0.6493 0 0 1 31.3911 18.8018)" fill="#EBEDF3" font-family="'SiemensSans-Roman'" font-size="3.3326">MT</text>
		<text transform="matrix(1.0223 0 0 1 34.9136 118.5918)" fill="#EBEDF3" font-family="'SiemensSans-Roman'" font-size="3.3326">APP</text>
		<text transform="matrix(1.0223 0 0 1 10.313 161.4238)" fill="#EBEDF3" font-family="'SiemensSans-Roman'" font-size="3.697">TEST/</text>
		<text transform="matrix(1.0223 0 0 1 34.6416 157.6865)" fill="#EBEDF3" font-family="'SiemensSans-Roman'" font-size="3.4469">X</text>
		<text transform="matrix(1.0223 0 0 1 37.5645 157.6865)" fill="#EBEDF3" font-family="'SiemensSans-Roman'" font-size="3.4469">2</text>
		<text transform="matrix(0.9298 0 0 1 8.2056 180.1279)" fill="#EBEDF3" font-family="'SiemensSans-Roman'" font-size="3.0345">3RK1308−0AB00−CBP0</text>
		<text transform="matrix(0.9298 0 0 1 8.2056 233.9995)" fill="#EBEDF3" font-family="'SiemensSans-Roman'" font-size="3.0345">3RK1908−1AA00−0BP0</text>
		<text transform="matrix(1.0223 0 0 1 34.6416 160.915)" fill="#EBEDF3" font-family="'SiemensSans-Roman'" font-size="3.4469">3</text>
		<text transform="matrix(0.6964 0 0 1 35.1777 164.9219)" fill="#EBEDF3" font-family="'SiemensSans-Roman'" font-size="3.5925">1</text>
		<text transform="matrix(0.8033 0 0 1 37.0068 164.939)" fill="#EBEDF3" font-family="'SiemensSans-Roman'" font-size="3.5196">0</text>
		<text transform="matrix(0.8033 0 0 1 39.2085 164.939)" fill="#EBEDF3" font-family="'SiemensSans-Roman'" font-size="3.5196">0</text>
		<text transform="matrix(0.7988 0 0 1 33.3047 164.9219)" fill="#EBEDF3" font-family="'SiemensSans-Roman'" font-size="3.5925">V</text>
		<text transform="matrix(0.8246 0 0 1 13.981 195.625)" fill="#EBEDF3" font-family="'SiemensSans-Roman'" font-size="3.3153">DI3</text>
		<text transform="matrix(0.8246 0 0 1 13.981 200.4438)" fill="#EBEDF3" font-family="'SiemensSans-Roman'" font-size="3.3153">DI2</text>
		<text transform="matrix(0.8246 0 0 1 13.981 205.2627)" fill="#EBEDF3" font-family="'SiemensSans-Roman'" font-size="3.3153">DI1</text>
		<text transform="matrix(0.8246 0 0 1 13.981 210.0815)" fill="#EBEDF3" font-family="'SiemensSans-Roman'" font-size="3.3153">LC</text>
		<text transform="matrix(0.8246 0 0 1 13.981 214.9004)" fill="#EBEDF3" font-family="'SiemensSans-Roman'" font-size="3.3153">M</text>
		<text transform="matrix(0.7923 0 0 1 13.9814 218.6035)" fill="#EBEDF3" font-family="'SiemensSans-Roman'" font-size="3.3153">24V</text>
		<text transform="matrix(0.7923 0 0 1 13.9814 221.1152)" fill="#EBEDF3" font-family="'SiemensSans-Roman'" font-size="3.3153">OUT</text>
		<text transform="matrix(1.0223 0 0 1 37.4385 160.915)" fill="#EBEDF3" font-family="'SiemensSans-Roman'" font-size="3.4469">4</text>
		<text transform="matrix(1.0223 0 0 1 9.6055 164.8325)" fill="#EBEDF3" font-family="'SiemensSans-Roman'" font-size="3.697">RESET</text>
		<text transform="matrix(1.0223 0 0 1 34.9136 122.0942)" fill="#EBEDF3" font-family="'SiemensSans-Roman'" font-size="3.3326">MAN</text>
		<text transform="matrix(1.0223 0 0 1 34.9136 125.5967)" fill="#EBEDF3" font-family="'SiemensSans-Roman'" font-size="3.3326">F-DI</text>
		<text transform="matrix(1.0223 0 0 1 34.9136 129.0991)" fill="#EBEDF3" font-family="'SiemensSans-Roman'" font-size="3.3326">PWR</text>
		<rect x="36.6" y="164.5" fill="#EBEDF3" width="0.3" height="0.4"/>
		<rect x="38.8" y="164.5" fill="#EBEDF3" width="0.3" height="0.4"/>
		<text transform="matrix(0.8313 0 0 1 26.3672 246.2466)" fill="#EBEDF3" font-family="'SiemensSans-Roman'" font-size="4.1449">L1(L)</text>
		<text transform="matrix(0.8313 0 0 1 26.3672 257.9736)" fill="#EBEDF3" font-family="'SiemensSans-Roman'" font-size="4.1449">L2 (L)</text>
		<text transform="matrix(0.8313 0 0 1 26.3672 269.7002)" fill="#EBEDF3" font-family="'SiemensSans-Roman'" font-size="4.1449">L3</text>
		<text transform="matrix(0.8313 0 0 1 26.3672 281.4272)" fill="#EBEDF3" font-family="'SiemensSans-Roman'" font-size="4.1449">PE</text>
		<text transform="matrix(0.7248 0 0 1 4.1221 9.5269)" fill="#EBEDF3" font-family="'SiemensSans-Roman'" font-size="5.0787">X</text>
		<text transform="matrix(0.7248 0 0 1 7.1719 9.5269)" fill="#EBEDF3" font-family="'SiemensSans-Roman'" font-size="5.0787">X</text>
		<text transform="matrix(0.8807 0 0 1 36.377 9.5269)" fill="#EBEDF3" font-family="'SiemensSans-Roman'" font-size="5.0787">HF</text>
	</g>
</g>
</svg>
