<?xml version="1.0" encoding="utf-8"?>

<!-- Copyright 2016 Siemens AG -->

<!-- Generator: Adobe Illustrator 16.0.4, SVG Export Plug-In . SVG Version: 6.00 Build 0)  -->
<!DOCTYPE svg PUBLIC "-//W3C//DTD SVG 1.1//EN" "http://www.w3.org/Graphics/SVG/1.1/DTD/svg11.dtd">
<svg version="1.1" id="Tank_4_With_Rivets" xmlns="http://www.w3.org/2000/svg" xmlns:xlink="http://www.w3.org/1999/xlink" x="0px"
	 y="0px" width="256px" height="300px" viewBox="0 0 256 300" enable-background="new 0 0 256 300" xml:space="preserve">
<g id="Hopper_1_">
	<linearGradient id="Shape_1_" gradientUnits="userSpaceOnUse" x1="-81.772" y1="165.9463" x2="223.9691" y2="261.4375">
		<stop  offset="0" style="stop-color:#A5A5A5"/>
		<stop  offset="7.102013e-02" style="stop-color:#B5B5B5"/>
		<stop  offset="0.2252" style="stop-color:#D3D3D3"/>
		<stop  offset="0.3574" style="stop-color:#E5E5E5"/>
		<stop  offset="0.4515" style="stop-color:#ECECEC"/>
		<stop  offset="0.534" style="stop-color:#E8E8E8"/>
		<stop  offset="0.6178" style="stop-color:#DCDCDC"/>
		<stop  offset="0.7023" style="stop-color:#C7C7C7"/>
		<stop  offset="0.7872" style="stop-color:#ABABAB"/>
		<stop  offset="0.8725" style="stop-color:#868686"/>
		<stop  offset="0.9569" style="stop-color:#5A5A5A"/>
		<stop  offset="1" style="stop-color:#404040"/>
	</linearGradient>
	
		<polygon id="Shape_3_" fill="url(#Shape_1_)" stroke="#8C8C91" stroke-width="0.75" stroke-linecap="round" stroke-linejoin="round" stroke-miterlimit="10" points="
		152.3,297.6 103.7,297.6 2.4,197 253.6,197 	"/>
	
		<linearGradient id="Reflection_Gradation_2_" gradientUnits="userSpaceOnUse" x1="96.46" y1="213.9331" x2="26.6259" y2="271.1248">
		<stop  offset="0" style="stop-color:#FFFFFF"/>
		<stop  offset="1" style="stop-color:#7C7C7B"/>
	</linearGradient>
	
		<polyline id="Reflection_Gradation_1_" fill="url(#Reflection_Gradation_2_)" stroke="#8C8C91" stroke-width="0.75" stroke-linecap="round" stroke-linejoin="round" stroke-miterlimit="10" points="
		109.1,297.6 103.7,297.6 2.4,197 28.1,197 	"/>
	<linearGradient id="Reflection_White_2_" gradientUnits="userSpaceOnUse" x1="101.1812" y1="227.707" x2="-16.119" y2="308.0364">
		<stop  offset="0" style="stop-color:#FFFFFF"/>
		<stop  offset="1" style="stop-color:#7C7C7B"/>
	</linearGradient>
	<polygon id="Reflection_White_1_" fill="url(#Reflection_White_2_)" points="28.1,197.5 108.7,297.1 117,297.1 71.1,197.5 	"/>
</g>
<g id="Body_2_">
	<linearGradient id="Shape_4_" gradientUnits="userSpaceOnUse" x1="4.9399" y1="121.1636" x2="250.4235" y2="121.1636">
		<stop  offset="0" style="stop-color:#A5A5A5"/>
		<stop  offset="4.758149e-02" style="stop-color:#B5B5B5"/>
		<stop  offset="0.1509" style="stop-color:#D3D3D3"/>
		<stop  offset="0.2395" style="stop-color:#E5E5E5"/>
		<stop  offset="0.3025" style="stop-color:#ECECEC"/>
		<stop  offset="0.4074" style="stop-color:#E8E8E8"/>
		<stop  offset="0.514" style="stop-color:#DCDCDC"/>
		<stop  offset="0.6214" style="stop-color:#C7C7C7"/>
		<stop  offset="0.7294" style="stop-color:#ABABAB"/>
		<stop  offset="0.8378" style="stop-color:#868686"/>
		<stop  offset="0.9452" style="stop-color:#5A5A5A"/>
		<stop  offset="1" style="stop-color:#404040"/>
	</linearGradient>
	
		<rect id="Shape_2_" x="2.4" y="45.3" fill="url(#Shape_4_)" stroke="#8C8C91" stroke-width="0.75" stroke-linecap="round" stroke-linejoin="round" stroke-miterlimit="10" width="251.3" height="151.7"/>
	<linearGradient id="Reflection_3_" gradientUnits="userSpaceOnUse" x1="26.4761" y1="120.9902" x2="40.4746" y2="120.9902">
		<stop  offset="0" style="stop-color:#F2F2F2;stop-opacity:0.4"/>
		<stop  offset="1" style="stop-color:#F7F7F7;stop-opacity:0.7"/>
	</linearGradient>
	<path id="Reflection_2_" fill="url(#Reflection_3_)" d="M28.1,45.7c0,31.5,0,133.6,0,150.6H71c0-16.4,0-101,0-150.6H28.1z"/>
</g>
<g id="Head">
	<linearGradient id="Shape_5_" gradientUnits="userSpaceOnUse" x1="2.3721" y1="23.8652" x2="253.626" y2="23.8652">
		<stop  offset="0" style="stop-color:#A5A5A5"/>
		<stop  offset="4.758149e-02" style="stop-color:#B5B5B5"/>
		<stop  offset="0.1509" style="stop-color:#D3D3D3"/>
		<stop  offset="0.2395" style="stop-color:#E5E5E5"/>
		<stop  offset="0.3025" style="stop-color:#ECECEC"/>
		<stop  offset="0.4074" style="stop-color:#E8E8E8"/>
		<stop  offset="0.514" style="stop-color:#DCDCDC"/>
		<stop  offset="0.6214" style="stop-color:#C7C7C7"/>
		<stop  offset="0.7294" style="stop-color:#ABABAB"/>
		<stop  offset="0.8378" style="stop-color:#868686"/>
		<stop  offset="0.9452" style="stop-color:#5A5A5A"/>
		<stop  offset="1" style="stop-color:#404040"/>
	</linearGradient>
	
		<path id="Shape" fill="url(#Shape_5_)" stroke="#8C8C91" stroke-width="0.75" stroke-linecap="round" stroke-linejoin="round" stroke-miterlimit="10" d="
		M129.3,2.4c-0.5,0-0.9,0-1.3,0c-0.5,0-0.9,0-1.3,0C2.4,2.4,2.4,34.6,2.4,45.3h251.3C253.6,34.6,253.6,2.4,129.3,2.4z"/>
	<linearGradient id="Reflection_4_" gradientUnits="userSpaceOnUse" x1="25.3926" y1="24.3745" x2="48.8224" y2="24.3745">
		<stop  offset="0" style="stop-color:#F2F2F2;stop-opacity:0.4"/>
		<stop  offset="1" style="stop-color:#F7F7F7;stop-opacity:0.7"/>
	</linearGradient>
	<path id="Reflection_1_" fill="url(#Reflection_4_)" d="M71.1,44.8C71.1,16,100,4,100,4S36.3,2.9,28.2,44.8H71.1z"/>
</g>
<linearGradient id="Connections_Vertical_1_" gradientUnits="userSpaceOnUse" x1="-12.751" y1="124.0942" x2="254.955" y2="124.0942">
	<stop  offset="0" style="stop-color:#A5A5A5"/>
	<stop  offset="7.963187e-03" style="stop-color:#A7A7A7"/>
	<stop  offset="0.1273" style="stop-color:#C5C5C5"/>
	<stop  offset="0.2297" style="stop-color:#D7D7D7"/>
	<stop  offset="0.3025" style="stop-color:#DEDEDE"/>
	<stop  offset="0.4524" style="stop-color:#DBDBDB"/>
	<stop  offset="0.5634" style="stop-color:#D2D2D2"/>
	<stop  offset="0.662" style="stop-color:#C1C1C1"/>
	<stop  offset="0.7533" style="stop-color:#ABABAB"/>
	<stop  offset="0.8396" style="stop-color:#8E8E8E"/>
	<stop  offset="0.9209" style="stop-color:#6A6A6A"/>
	<stop  offset="0.9991" style="stop-color:#414141"/>
	<stop  offset="1" style="stop-color:#404040"/>
</linearGradient>
<path id="Connections_Vertical" fill="url(#Connections_Vertical_1_)" stroke="#8C8C91" stroke-width="0.75" stroke-linecap="round" stroke-linejoin="round" stroke-miterlimit="10" d="
	M130.9,100v42.9h-5.9V100H130.9z M206.1,51.2v42.9h5.1V51.2H206.1z M44.6,51.2v42.9h4.9V51.2H44.6z M206.1,148.7v42.9h5.1v-42.9
	H206.1z M44.6,148.7v42.9h4.9v-42.9H44.6z M125.1,197v46.2h5.9V197H125.1z M125.1,5v40.3h5.9V5H125.1z"/>
<linearGradient id="Connections_Horizontal_1_" gradientUnits="userSpaceOnUse" x1="8.106" y1="149.8154" x2="246.4787" y2="149.8154">
	<stop  offset="0" style="stop-color:#A5A5A5"/>
	<stop  offset="7.963187e-03" style="stop-color:#A7A7A7"/>
	<stop  offset="0.1273" style="stop-color:#C5C5C5"/>
	<stop  offset="0.2297" style="stop-color:#D7D7D7"/>
	<stop  offset="0.3025" style="stop-color:#DEDEDE"/>
	<stop  offset="0.4524" style="stop-color:#DBDBDB"/>
	<stop  offset="0.5634" style="stop-color:#D2D2D2"/>
	<stop  offset="0.662" style="stop-color:#C1C1C1"/>
	<stop  offset="0.7533" style="stop-color:#ABABAB"/>
	<stop  offset="0.8396" style="stop-color:#8E8E8E"/>
	<stop  offset="0.9209" style="stop-color:#6A6A6A"/>
	<stop  offset="0.9991" style="stop-color:#414141"/>
	<stop  offset="1" style="stop-color:#404040"/>
</linearGradient>
<path id="Connections_Horizontal" fill="url(#Connections_Horizontal_1_)" stroke="#8C8C91" stroke-width="0.75" stroke-linecap="round" stroke-linejoin="round" stroke-miterlimit="10" d="
	M253.6,51.2H2.4v-5.9h251.3V51.2z M253.6,191.7H2.4v5.4h251.3V191.7z M156.8,293.1H99.2l4.5,4.5h48.5L156.8,293.1z M207.1,243.2
	H48.9l4.6,4.5h149L207.1,243.2z M253.6,94.1H2.4v5.9h251.3V94.1z M253.6,142.9H2.4v5.9h251.3V142.9z M183.1,5l-28.8-2.9h-51.9
	L72.8,5L183.1,5z"/>
<path id="Shadow_Lines" fill="none" stroke="#646567" stroke-width="0.75" stroke-linecap="round" stroke-linejoin="round" stroke-miterlimit="10" d="
	M72.8,5h110.3 M103.7,297.6h48.5 M53.5,247.7h149 M2.4,100h122.7 M130.9,100h122.7 M2.4,51.2h42.2 M49.5,51.2h156.6 M211.2,51.2
	h42.4 M2.4,148.7h42.2 M2.4,197h122.7 M130.9,197h122.7 M49.5,148.7h156.6 M211.2,148.7h42.4 M130.9,142.9V100 M211.2,94.1V51.2
	 M49.5,94.1V51.2 M211.2,191.7v-42.9 M49.5,191.7v-42.9 M130.9,243.2V197 M130.9,45.3V5"/>
<linearGradient id="Rivets_Hopper_1_" gradientUnits="userSpaceOnUse" x1="42.9033" y1="248.2783" x2="215.2527" y2="248.2783">
	<stop  offset="0" style="stop-color:#FFFFFF"/>
	<stop  offset="1" style="stop-color:#7C7C7B"/>
</linearGradient>
<path id="Rivets_Hopper" fill="url(#Rivets_Hopper_1_)" stroke="#646567" stroke-width="0.75" stroke-linecap="round" stroke-linejoin="round" stroke-miterlimit="10" d="
	M129.3,201.2c0,0.5-0.6,1-1.3,1s-1.3-0.4-1.3-1s0.6-1,1.3-1S129.3,200.6,129.3,201.2z M128,206.6c-0.7,0-1.3,0.4-1.3,1s0.6,1,1.3,1
	s1.3-0.4,1.3-1S128.7,206.6,128,206.6z M128,213c-0.7,0-1.3,0.4-1.3,1s0.6,1,1.3,1s1.3-0.4,1.3-1S128.7,213,128,213z M128,219.3
	c-0.7,0-1.3,0.4-1.3,1s0.6,1,1.3,1s1.3-0.4,1.3-1S128.7,219.3,128,219.3z M128,225.7c-0.7,0-1.3,0.4-1.3,1s0.6,1,1.3,1
	s1.3-0.4,1.3-1S128.7,225.7,128,225.7z M128,232.1c-0.7,0-1.3,0.4-1.3,1s0.6,1,1.3,1s1.3-0.4,1.3-1S128.7,232.1,128,232.1z
	 M128,238.4c-0.7,0-1.3,0.4-1.3,1s0.6,1,1.3,1s1.3-0.4,1.3-1S128.7,238.4,128,238.4z M128,244.5c-0.7,0-1.3,0.4-1.3,1s0.6,1,1.3,1
	s1.3-0.4,1.3-1S128.7,244.5,128,244.5z M118.2,244.5c-0.7,0-1.3,0.4-1.3,1s0.6,1,1.3,1s1.3-0.4,1.3-1S118.9,244.5,118.2,244.5z
	 M107.8,244.5c-0.7,0-1.3,0.4-1.3,1s0.6,1,1.3,1s1.3-0.4,1.3-1S108.5,244.5,107.8,244.5z M98.5,244.5c-0.7,0-1.3,0.4-1.3,1
	s0.6,1,1.3,1s1.3-0.4,1.3-1S99.2,244.5,98.5,244.5z M89.9,244.5c-0.6,0-1.1,0.4-1.1,1s0.5,1,1.1,1c0.6,0,1.1-0.4,1.1-1
	S90.5,244.5,89.9,244.5z M82.2,244.5c-0.6,0-1,0.4-1,1s0.5,1,1,1c0.6,0,1-0.4,1-1S82.8,244.5,82.2,244.5z M74.7,244.5
	c-0.6,0-1.1,0.4-1.1,1s0.5,1,1.1,1c0.6,0,1.1-0.4,1.1-1S75.2,244.5,74.7,244.5z M62.3,244.5c-0.5,0.1-0.8,0.6-0.7,1.1
	c0.1,0.5,0.6,0.8,1.1,0.7c0.5-0.1,0.8-0.6,0.7-1.1C63.2,244.7,62.8,244.4,62.3,244.5z M57.6,244.6c-0.5,0.2-0.7,0.7-0.5,1.2
	c0.2,0.5,0.7,0.8,1.2,0.6c0.5-0.2,0.7-0.7,0.5-1.2C58.5,244.6,58,244.4,57.6,244.6z M51.8,244.5c-0.2,0.1-0.1,0.7,0.2,1.2
	c0.3,0.5,0.8,0.8,1,0.7c0.2-0.1,0.1-0.7-0.2-1.2C52.4,244.7,52,244.4,51.8,244.5z M54.4,244.6c-0.4,0.2-0.4,0.7-0.2,1.2
	c0.2,0.5,0.7,0.8,1.1,0.6c0.4-0.2,0.4-0.7,0.2-1.2C55.2,244.6,54.7,244.4,54.4,244.6z M68.2,244.5c-0.5,0.1-0.8,0.6-0.7,1.1
	c0.1,0.5,0.6,0.9,1,0.8s0.8-0.6,0.7-1.1C69.1,244.8,68.7,244.4,68.2,244.5z M136.5,245.5c0,0.5,0.6,1,1.3,1c0.7,0,1.3-0.4,1.3-1
	s-0.6-1-1.3-1C137.1,244.5,136.5,244.9,136.5,245.5z M146.9,245.5c0,0.5,0.6,1,1.3,1c0.7,0,1.3-0.4,1.3-1s-0.6-1-1.3-1
	C147.5,244.5,146.9,244.9,146.9,245.5z M156.2,245.5c0,0.5,0.6,1,1.3,1s1.3-0.4,1.3-1s-0.6-1-1.3-1S156.2,244.9,156.2,245.5z
	 M165,245.5c0,0.5,0.5,1,1.1,1c0.6,0,1.1-0.4,1.1-1s-0.5-1-1.1-1C165.5,244.5,165,244.9,165,245.5z M172.8,245.5c0,0.5,0.5,1,1,1
	c0.6,0,1-0.4,1-1s-0.5-1-1-1C173.2,244.5,172.8,244.9,172.8,245.5z M180.3,245.5c0,0.5,0.5,1,1.1,1c0.6,0,1.1-0.4,1.1-1
	s-0.5-1-1.1-1C180.8,244.5,180.3,244.9,180.3,245.5z M192.6,245.3c-0.1,0.5,0.2,1,0.7,1.1c0.5,0.1,1-0.2,1.1-0.7
	c0.1-0.5-0.2-1-0.7-1.1C193.2,244.4,192.7,244.7,192.6,245.3z M197.3,245.1c-0.2,0.5,0,1,0.5,1.2c0.5,0.2,1-0.1,1.2-0.6
	c0.2-0.5,0-1-0.5-1.2C198,244.4,197.5,244.6,197.3,245.1z M203.2,245.2c-0.3,0.5-0.4,1-0.2,1.2c0.2,0.1,0.7-0.2,1-0.7
	c0.3-0.5,0.4-1,0.2-1.2C204,244.4,203.6,244.7,203.2,245.2z M200.5,245.1c-0.2,0.5-0.2,1,0.2,1.2c0.4,0.2,0.8-0.1,1.1-0.6
	c0.2-0.5,0.2-1-0.2-1.2C201.3,244.4,200.8,244.6,200.5,245.1z M186.8,245.3c-0.1,0.5,0.2,1,0.7,1.1s0.9-0.3,1-0.8
	c0.1-0.5-0.2-1-0.7-1.1C187.3,244.4,186.9,244.8,186.8,245.3z M128,294.4c-0.7,0-1.3,0.4-1.3,1s0.6,1,1.3,1s1.3-0.4,1.3-1
	S128.7,294.4,128,294.4z M119.1,294.4c-0.6,0-1.1,0.4-1.1,1s0.5,1,1.1,1c0.6,0,1.1-0.4,1.1-1S119.7,294.4,119.1,294.4z M112.6,294.4
	c-0.5,0.1-0.8,0.6-0.7,1.1c0.1,0.5,0.6,0.8,1.1,0.7c0.5-0.1,0.8-0.6,0.7-1.1C113.5,294.7,113.1,294.3,112.6,294.4z M107.9,294.5
	c-0.5,0.2-0.7,0.7-0.5,1.2c0.2,0.5,0.7,0.8,1.2,0.6c0.5-0.2,0.7-0.7,0.5-1.2C108.8,294.6,108.3,294.3,107.9,294.5z M102.1,294.5
	c-0.2,0.1-0.1,0.7,0.2,1.2c0.3,0.5,0.8,0.8,1,0.7c0.2-0.1,0.1-0.7-0.2-1.2C102.7,294.6,102.3,294.3,102.1,294.5z M104.7,294.5
	c-0.4,0.2-0.4,0.7-0.2,1.2c0.2,0.5,0.7,0.8,1.1,0.6c0.4-0.2,0.4-0.7,0.2-1.2C105.5,294.6,105,294.3,104.7,294.5z M135.8,295.4
	c0,0.5,0.5,1,1.1,1c0.6,0,1.1-0.4,1.1-1s-0.5-1-1.1-1C136.3,294.4,135.8,294.8,135.8,295.4z M142.3,295.2c-0.1,0.5,0.2,1,0.7,1.1
	c0.5,0.1,1-0.2,1.1-0.7c0.1-0.5-0.2-1-0.7-1.1C142.9,294.3,142.5,294.7,142.3,295.2z M147,295.1c-0.2,0.5,0,1,0.5,1.2
	c0.5,0.2,1-0.1,1.2-0.6c0.2-0.5,0-1-0.5-1.2C147.7,294.3,147.2,294.6,147,295.1z M152.9,295.1c-0.3,0.5-0.4,1-0.2,1.2
	c0.2,0.1,0.7-0.2,1-0.7c0.3-0.5,0.4-1,0.2-1.2C153.7,294.3,153.3,294.6,152.9,295.1z M150.2,295.1c-0.2,0.5-0.2,1,0.2,1.2
	c0.4,0.2,0.8-0.1,1.1-0.6c0.2-0.5,0.2-1-0.2-1.2C151,294.3,150.5,294.6,150.2,295.1z"/>
<linearGradient id="Rivets_Body_1_" gradientUnits="userSpaceOnUse" x1="-11.7026" y1="121.2793" x2="271.2443" y2="121.2793">
	<stop  offset="0" style="stop-color:#FFFFFF"/>
	<stop  offset="1" style="stop-color:#7C7C7B"/>
</linearGradient>
<path id="Rivets_Body" fill="url(#Rivets_Body_1_)" stroke="#646567" stroke-width="0.75" stroke-linecap="round" stroke-linejoin="round" stroke-miterlimit="10" d="
	M129.3,48.2c0,0.7-0.6,1.3-1.3,1.3c-0.7,0-1.3-0.6-1.3-1.3s0.6-1.3,1.3-1.3C128.7,47,129.3,47.5,129.3,48.2z M138.5,47
	c-0.7,0-1.3,0.6-1.3,1.3s0.6,1.3,1.3,1.3s1.3-0.6,1.3-1.3S139.2,47,138.5,47z M148.9,47c-0.7,0-1.3,0.6-1.3,1.3s0.6,1.3,1.3,1.3
	c0.7,0,1.3-0.6,1.3-1.3S149.6,47,148.9,47z M159.4,47c-0.7,0-1.3,0.6-1.3,1.3s0.6,1.3,1.3,1.3s1.3-0.6,1.3-1.3S160.1,47,159.4,47z
	 M169.9,47c-0.7,0-1.2,0.6-1.2,1.3s0.5,1.3,1.2,1.3s1.2-0.6,1.2-1.3S170.6,47,169.9,47z M180.4,47c-0.6,0-1.2,0.6-1.2,1.3
	s0.5,1.3,1.2,1.3c0.6,0,1.2-0.6,1.2-1.3S181,47,180.4,47z M189.8,47c-0.6,0-1.2,0.6-1.2,1.3s0.5,1.3,1.2,1.3c0.6,0,1.2-0.6,1.2-1.3
	S190.5,47,189.8,47z M199.3,47c-0.6,0-1.2,0.6-1.2,1.3s0.5,1.3,1.2,1.3s1.2-0.6,1.2-1.3S199.9,47,199.3,47z M208.6,47
	c-0.6,0-1.1,0.6-1.1,1.3s0.5,1.3,1.1,1.3s1.1-0.6,1.1-1.3S209.2,47,208.6,47z M217,47c-0.6,0-1.1,0.6-1.1,1.3s0.5,1.3,1.1,1.3
	c0.6,0,1.1-0.6,1.1-1.3S217.6,47,217,47z M223.9,47c-0.6,0-1.1,0.6-1.1,1.3s0.5,1.3,1.1,1.3c0.6,0,1.1-0.6,1.1-1.3
	S224.5,47,223.9,47z M230,47c-0.6,0-1,0.6-1,1.3s0.5,1.3,1,1.3s1-0.6,1-1.3S230.6,47,230,47z M236.3,47c-0.5,0-0.9,0.6-0.9,1.3
	s0.4,1.3,0.9,1.3c0.5,0,0.9-0.6,0.9-1.3S236.8,47,236.3,47z M242.2,47c-0.5,0-0.9,0.6-0.9,1.3s0.4,1.3,0.9,1.3s0.9-0.6,0.9-1.3
	S242.7,47,242.2,47z M250.4,47c-0.3,0-0.6,0.6-0.6,1.3s0.2,1.3,0.6,1.3s0.6-0.6,0.6-1.3S250.7,47,250.4,47z M252.9,47
	c-0.2,0-0.4,0.6-0.4,1.3s0.2,1.3,0.4,1.3c0.2,0,0.4-0.6,0.4-1.3S253.1,47,252.9,47z M246.9,47c-0.4,0-0.7,0.6-0.7,1.3
	s0.3,1.3,0.7,1.3s0.7-0.6,0.7-1.3S247.2,47,246.9,47z M116.3,48.2c0,0.7,0.6,1.3,1.3,1.3s1.3-0.6,1.3-1.3s-0.6-1.3-1.3-1.3
	S116.3,47.5,116.3,48.2z M105.8,48.2c0,0.7,0.6,1.3,1.3,1.3c0.7,0,1.3-0.6,1.3-1.3s-0.6-1.3-1.3-1.3C106.4,47,105.8,47.5,105.8,48.2
	z M95.4,48.2c0,0.7,0.6,1.3,1.3,1.3s1.3-0.6,1.3-1.3S97.3,47,96.6,47S95.4,47.5,95.4,48.2z M84.9,48.2c0,0.7,0.5,1.3,1.2,1.3
	s1.2-0.6,1.2-1.3S86.8,47,86.1,47S84.9,47.5,84.9,48.2z M74.5,48.2c0,0.7,0.5,1.3,1.2,1.3c0.6,0,1.2-0.6,1.2-1.3S76.3,47,75.6,47
	C75,47,74.5,47.5,74.5,48.2z M65,48.2c0,0.7,0.5,1.3,1.2,1.3c0.6,0,1.2-0.6,1.2-1.3S66.8,47,66.2,47C65.5,47,65,47.5,65,48.2z
	 M55.5,48.2c0,0.7,0.5,1.3,1.2,1.3c0.6,0,1.2-0.6,1.2-1.3S57.4,47,56.7,47C56.1,47,55.5,47.5,55.5,48.2z M45.9,48.2
	c0,0.7,0.5,1.3,1.1,1.3c0.6,0,1.1-0.6,1.1-1.3S47.6,47,47,47C46.4,47,45.9,47.5,45.9,48.2z M37.9,48.2c0,0.7,0.5,1.3,1.1,1.3
	s1.1-0.6,1.1-1.3S39.6,47,39,47S37.9,47.5,37.9,48.2z M31,48.2c0,0.7,0.5,1.3,1.1,1.3s1.1-0.6,1.1-1.3S32.7,47,32.1,47
	S31,47.5,31,48.2z M24.9,48.2c0,0.7,0.5,1.3,1,1.3c0.6,0,1-0.6,1-1.3S26.5,47,26,47C25.4,47,24.9,47.5,24.9,48.2z M18.8,48.2
	c0,0.7,0.4,1.3,0.9,1.3s0.9-0.6,0.9-1.3S20.2,47,19.7,47S18.8,47.5,18.8,48.2z M12.9,48.2c0,0.7,0.4,1.3,0.9,1.3s0.9-0.6,0.9-1.3
	S14.2,47,13.8,47S12.9,47.5,12.9,48.2z M5,48.3c0,0.7,0.3,1.3,0.6,1.3c0.3,0,0.6-0.6,0.6-1.3S5.9,47,5.6,47C5.3,47,5,47.6,5,48.3z
	 M2.7,48.2c0,0.7,0.2,1.3,0.4,1.3c0.2,0,0.4-0.6,0.4-1.3S3.3,47,3.1,47C2.9,47,2.7,47.5,2.7,48.2z M8.5,48.2c0,0.7,0.3,1.3,0.7,1.3
	s0.6-0.6,0.6-1.3S9.5,47,9.1,47S8.5,47.5,8.5,48.2z M128,95.6c-0.7,0-1.3,0.6-1.3,1.3s0.6,1.3,1.3,1.3c0.7,0,1.3-0.6,1.3-1.3
	S128.7,95.6,128,95.6z M128,105.1c-0.7,0-1.3,0.6-1.3,1.3s0.6,1.3,1.3,1.3c0.7,0,1.3-0.6,1.3-1.3S128.7,105.1,128,105.1z M128,115
	c-0.7,0-1.3,0.6-1.3,1.3s0.6,1.3,1.3,1.3c0.7,0,1.3-0.6,1.3-1.3S128.7,115,128,115z M128,125c-0.7,0-1.3,0.6-1.3,1.3
	s0.6,1.3,1.3,1.3c0.7,0,1.3-0.6,1.3-1.3S128.7,125,128,125z M128,134.9c-0.7,0-1.3,0.6-1.3,1.3s0.6,1.3,1.3,1.3
	c0.7,0,1.3-0.6,1.3-1.3S128.7,134.9,128,134.9z M47,56.5c-0.6,0-1.1,0.6-1.1,1.3s0.5,1.3,1.1,1.3s1.1-0.6,1.1-1.3S47.6,56.5,47,56.5
	z M47,66.5c-0.6,0-1.1,0.6-1.1,1.3S46.4,69,47,69s1.1-0.6,1.1-1.3S47.6,66.5,47,66.5z M47,76.4c-0.6,0-1.1,0.6-1.1,1.3
	s0.5,1.3,1.1,1.3s1.1-0.6,1.1-1.3S47.6,76.4,47,76.4z M47,86.3c-0.6,0-1.1,0.6-1.1,1.3s0.5,1.3,1.1,1.3s1.1-0.6,1.1-1.3
	S47.6,86.3,47,86.3z M208.6,56.5c-0.6,0-1.1,0.6-1.1,1.3s0.5,1.3,1.1,1.3c0.6,0,1.1-0.6,1.1-1.3S209.2,56.5,208.6,56.5z M208.6,66.5
	c-0.6,0-1.1,0.6-1.1,1.3s0.5,1.3,1.1,1.3c0.6,0,1.1-0.6,1.1-1.3S209.2,66.5,208.6,66.5z M208.6,76.4c-0.6,0-1.1,0.6-1.1,1.3
	s0.5,1.3,1.1,1.3c0.6,0,1.1-0.6,1.1-1.3S209.2,76.4,208.6,76.4z M208.6,86.3c-0.6,0-1.1,0.6-1.1,1.3s0.5,1.3,1.1,1.3
	c0.6,0,1.1-0.6,1.1-1.3S209.2,86.3,208.6,86.3z M47,154.2c-0.6,0-1.1,0.6-1.1,1.3s0.5,1.3,1.1,1.3s1.1-0.6,1.1-1.3
	S47.6,154.2,47,154.2z M47,164.2c-0.6,0-1.1,0.6-1.1,1.3s0.5,1.3,1.1,1.3s1.1-0.6,1.1-1.3S47.6,164.2,47,164.2z M47,174.1
	c-0.6,0-1.1,0.6-1.1,1.3s0.5,1.3,1.1,1.3s1.1-0.6,1.1-1.3S47.6,174.1,47,174.1z M47,184c-0.6,0-1.1,0.6-1.1,1.3s0.5,1.3,1.1,1.3
	s1.1-0.6,1.1-1.3S47.6,184,47,184z M208.6,154.2c-0.6,0-1.1,0.6-1.1,1.3s0.5,1.3,1.1,1.3c0.6,0,1.1-0.6,1.1-1.3
	S209.2,154.2,208.6,154.2z M208.6,164.2c-0.6,0-1.1,0.6-1.1,1.3s0.5,1.3,1.1,1.3c0.6,0,1.1-0.6,1.1-1.3S209.2,164.2,208.6,164.2z
	 M208.6,174.1c-0.6,0-1.1,0.6-1.1,1.3s0.5,1.3,1.1,1.3c0.6,0,1.1-0.6,1.1-1.3S209.2,174.1,208.6,174.1z M208.6,184
	c-0.6,0-1.1,0.6-1.1,1.3s0.5,1.3,1.1,1.3c0.6,0,1.1-0.6,1.1-1.3S209.2,184,208.6,184z M138.5,95.6c-0.7,0-1.3,0.6-1.3,1.3
	s0.6,1.3,1.3,1.3s1.3-0.6,1.3-1.3S139.2,95.6,138.5,95.6z M148.9,95.6c-0.7,0-1.3,0.6-1.3,1.3s0.6,1.3,1.3,1.3
	c0.7,0,1.3-0.6,1.3-1.3S149.6,95.6,148.9,95.6z M159.4,95.6c-0.7,0-1.3,0.6-1.3,1.3s0.6,1.3,1.3,1.3s1.3-0.6,1.3-1.3
	S160.1,95.6,159.4,95.6z M169.9,95.6c-0.7,0-1.2,0.6-1.2,1.3s0.5,1.3,1.2,1.3s1.2-0.6,1.2-1.3S170.6,95.6,169.9,95.6z M180.4,95.6
	c-0.6,0-1.2,0.6-1.2,1.3s0.5,1.3,1.2,1.3c0.6,0,1.2-0.6,1.2-1.3S181,95.6,180.4,95.6z M189.8,95.6c-0.6,0-1.2,0.6-1.2,1.3
	s0.5,1.3,1.2,1.3c0.6,0,1.2-0.6,1.2-1.3S190.5,95.6,189.8,95.6z M199.3,95.6c-0.6,0-1.2,0.6-1.2,1.3s0.5,1.3,1.2,1.3
	s1.2-0.6,1.2-1.3S199.9,95.6,199.3,95.6z M208.6,95.6c-0.6,0-1.1,0.6-1.1,1.3s0.5,1.3,1.1,1.3s1.1-0.6,1.1-1.3
	S209.2,95.6,208.6,95.6z M217,95.6c-0.6,0-1.1,0.6-1.1,1.3s0.5,1.3,1.1,1.3c0.6,0,1.1-0.6,1.1-1.3S217.6,95.6,217,95.6z M223.9,95.6
	c-0.6,0-1.1,0.6-1.1,1.3s0.5,1.3,1.1,1.3c0.6,0,1.1-0.6,1.1-1.3S224.5,95.6,223.9,95.6z M230,95.6c-0.6,0-1,0.6-1,1.3s0.5,1.3,1,1.3
	s1-0.6,1-1.3S230.6,95.6,230,95.6z M236.3,95.6c-0.5,0-0.9,0.6-0.9,1.3s0.4,1.3,0.9,1.3c0.5,0,0.9-0.6,0.9-1.3
	S236.8,95.6,236.3,95.6z M242.2,95.6c-0.5,0-0.9,0.6-0.9,1.3s0.4,1.3,0.9,1.3s0.9-0.6,0.9-1.3S242.7,95.6,242.2,95.6z M250.4,95.7
	c-0.3,0-0.6,0.6-0.6,1.3s0.2,1.3,0.6,1.3s0.6-0.6,0.6-1.3S250.7,95.7,250.4,95.7z M252.9,95.6c-0.2,0-0.4,0.6-0.4,1.3
	s0.2,1.3,0.4,1.3c0.2,0,0.4-0.6,0.4-1.3S253.1,95.6,252.9,95.6z M246.9,95.6c-0.4,0-0.7,0.6-0.7,1.3s0.3,1.3,0.7,1.3
	s0.7-0.6,0.7-1.3S247.2,95.6,246.9,95.6z M116.3,96.9c0,0.7,0.6,1.3,1.3,1.3s1.3-0.6,1.3-1.3s-0.6-1.3-1.3-1.3
	S116.3,96.2,116.3,96.9z M105.8,96.9c0,0.7,0.6,1.3,1.3,1.3c0.7,0,1.3-0.6,1.3-1.3s-0.6-1.3-1.3-1.3
	C106.4,95.6,105.8,96.2,105.8,96.9z M95.4,96.9c0,0.7,0.6,1.3,1.3,1.3s1.3-0.6,1.3-1.3s-0.6-1.3-1.3-1.3S95.4,96.2,95.4,96.9z
	 M84.9,96.9c0,0.7,0.5,1.3,1.2,1.3s1.2-0.6,1.2-1.3s-0.5-1.3-1.2-1.3S84.9,96.2,84.9,96.9z M74.5,96.9c0,0.7,0.5,1.3,1.2,1.3
	c0.6,0,1.2-0.6,1.2-1.3s-0.5-1.3-1.2-1.3C75,95.6,74.5,96.2,74.5,96.9z M65,96.9c0,0.7,0.5,1.3,1.2,1.3c0.6,0,1.2-0.6,1.2-1.3
	s-0.5-1.3-1.2-1.3C65.5,95.6,65,96.2,65,96.9z M55.5,96.9c0,0.7,0.5,1.3,1.2,1.3c0.6,0,1.2-0.6,1.2-1.3s-0.5-1.3-1.2-1.3
	C56.1,95.6,55.5,96.2,55.5,96.9z M45.9,96.9c0,0.7,0.5,1.3,1.1,1.3c0.6,0,1.1-0.6,1.1-1.3s-0.5-1.3-1.1-1.3
	C46.4,95.6,45.9,96.2,45.9,96.9z M37.9,96.9c0,0.7,0.5,1.3,1.1,1.3s1.1-0.6,1.1-1.3s-0.5-1.3-1.1-1.3S37.9,96.2,37.9,96.9z M31,96.9
	c0,0.7,0.5,1.3,1.1,1.3s1.1-0.6,1.1-1.3s-0.5-1.3-1.1-1.3S31,96.2,31,96.9z M24.9,96.9c0,0.7,0.5,1.3,1,1.3c0.6,0,1-0.6,1-1.3
	s-0.5-1.3-1-1.3C25.4,95.6,24.9,96.2,24.9,96.9z M18.8,96.9c0,0.7,0.4,1.3,0.9,1.3s0.9-0.6,0.9-1.3s-0.4-1.3-0.9-1.3
	S18.8,96.2,18.8,96.9z M12.9,96.9c0,0.7,0.4,1.3,0.9,1.3s0.9-0.6,0.9-1.3s-0.4-1.3-0.9-1.3S12.9,96.2,12.9,96.9z M5,96.9
	c0,0.7,0.3,1.3,0.6,1.3c0.3,0,0.6-0.6,0.6-1.3s-0.2-1.3-0.6-1.3C5.3,95.7,5,96.2,5,96.9z M2.7,96.9c0,0.7,0.2,1.3,0.4,1.3
	c0.2,0,0.4-0.6,0.4-1.3s-0.2-1.3-0.4-1.3C2.9,95.6,2.7,96.2,2.7,96.9z M8.5,96.9c0,0.7,0.3,1.3,0.7,1.3s0.6-0.6,0.6-1.3
	s-0.3-1.3-0.6-1.3S8.5,96.2,8.5,96.9z M128,144.3c-0.7,0-1.3,0.6-1.3,1.3s0.6,1.3,1.3,1.3c0.7,0,1.3-0.6,1.3-1.3
	S128.7,144.3,128,144.3z M138.5,144.3c-0.7,0-1.3,0.6-1.3,1.3s0.6,1.3,1.3,1.3s1.3-0.6,1.3-1.3S139.2,144.3,138.5,144.3z
	 M148.9,144.3c-0.7,0-1.3,0.6-1.3,1.3s0.6,1.3,1.3,1.3c0.7,0,1.3-0.6,1.3-1.3S149.6,144.3,148.9,144.3z M159.4,144.3
	c-0.7,0-1.3,0.6-1.3,1.3s0.6,1.3,1.3,1.3s1.3-0.6,1.3-1.3S160.1,144.3,159.4,144.3z M169.9,144.3c-0.7,0-1.2,0.6-1.2,1.3
	s0.5,1.3,1.2,1.3s1.2-0.6,1.2-1.3S170.6,144.3,169.9,144.3z M180.4,144.3c-0.6,0-1.2,0.6-1.2,1.3s0.5,1.3,1.2,1.3
	c0.6,0,1.2-0.6,1.2-1.3S181,144.3,180.4,144.3z M189.8,144.3c-0.6,0-1.2,0.6-1.2,1.3s0.5,1.3,1.2,1.3c0.6,0,1.2-0.6,1.2-1.3
	S190.5,144.3,189.8,144.3z M199.3,144.3c-0.6,0-1.2,0.6-1.2,1.3s0.5,1.3,1.2,1.3s1.2-0.6,1.2-1.3S199.9,144.3,199.3,144.3z
	 M208.6,144.3c-0.6,0-1.1,0.6-1.1,1.3s0.5,1.3,1.1,1.3c0.6,0,1.1-0.6,1.1-1.3S209.2,144.3,208.6,144.3z M217,144.3
	c-0.6,0-1.1,0.6-1.1,1.3s0.5,1.3,1.1,1.3c0.6,0,1.1-0.6,1.1-1.3S217.6,144.3,217,144.3z M223.9,144.3c-0.6,0-1.1,0.6-1.1,1.3
	s0.5,1.3,1.1,1.3c0.6,0,1.1-0.6,1.1-1.3S224.5,144.3,223.9,144.3z M230,144.3c-0.6,0-1,0.6-1,1.3s0.5,1.3,1,1.3s1-0.6,1-1.3
	S230.6,144.3,230,144.3z M236.3,144.3c-0.5,0-0.9,0.6-0.9,1.3s0.4,1.3,0.9,1.3c0.5,0,0.9-0.6,0.9-1.3S236.8,144.3,236.3,144.3z
	 M242.2,144.3c-0.5,0-0.9,0.6-0.9,1.3s0.4,1.3,0.9,1.3s0.9-0.6,0.9-1.3S242.7,144.3,242.2,144.3z M250.4,144.3
	c-0.3,0-0.6,0.6-0.6,1.3s0.2,1.3,0.6,1.3s0.6-0.6,0.6-1.3S250.7,144.3,250.4,144.3z M252.9,144.3c-0.2,0-0.4,0.6-0.4,1.3
	s0.2,1.3,0.4,1.3c0.2,0,0.4-0.6,0.4-1.3S253.1,144.3,252.9,144.3z M246.9,144.3c-0.4,0-0.7,0.6-0.7,1.3s0.3,1.3,0.7,1.3
	s0.7-0.6,0.7-1.3S247.2,144.3,246.9,144.3z M116.3,145.6c0,0.7,0.6,1.3,1.3,1.3s1.3-0.6,1.3-1.3s-0.6-1.3-1.3-1.3
	S116.3,144.9,116.3,145.6z M105.8,145.6c0,0.7,0.6,1.3,1.3,1.3c0.7,0,1.3-0.6,1.3-1.3s-0.6-1.3-1.3-1.3
	C106.4,144.3,105.8,144.9,105.8,145.6z M95.4,145.6c0,0.7,0.6,1.3,1.3,1.3s1.3-0.6,1.3-1.3s-0.6-1.3-1.3-1.3S95.4,144.9,95.4,145.6z
	 M84.9,145.6c0,0.7,0.5,1.3,1.2,1.3s1.2-0.6,1.2-1.3s-0.5-1.3-1.2-1.3S84.9,144.9,84.9,145.6z M74.5,145.6c0,0.7,0.5,1.3,1.2,1.3
	c0.6,0,1.2-0.6,1.2-1.3s-0.5-1.3-1.2-1.3C75,144.3,74.5,144.9,74.5,145.6z M65,145.6c0,0.7,0.5,1.3,1.2,1.3c0.6,0,1.2-0.6,1.2-1.3
	s-0.5-1.3-1.2-1.3C65.5,144.3,65,144.9,65,145.6z M55.5,145.6c0,0.7,0.5,1.3,1.2,1.3c0.6,0,1.2-0.6,1.2-1.3s-0.5-1.3-1.2-1.3
	C56.1,144.3,55.5,144.9,55.5,145.6z M45.9,145.6c0,0.7,0.5,1.3,1.1,1.3c0.6,0,1.1-0.6,1.1-1.3s-0.5-1.3-1.1-1.3
	C46.4,144.3,45.9,144.9,45.9,145.6z M37.9,145.6c0,0.7,0.5,1.3,1.1,1.3s1.1-0.6,1.1-1.3s-0.5-1.3-1.1-1.3S37.9,144.9,37.9,145.6z
	 M31,145.6c0,0.7,0.5,1.3,1.1,1.3s1.1-0.6,1.1-1.3s-0.5-1.3-1.1-1.3S31,144.9,31,145.6z M24.9,145.6c0,0.7,0.5,1.3,1,1.3
	c0.6,0,1-0.6,1-1.3s-0.5-1.3-1-1.3C25.4,144.3,24.9,144.9,24.9,145.6z M18.8,145.6c0,0.7,0.4,1.3,0.9,1.3s0.9-0.6,0.9-1.3
	s-0.4-1.3-0.9-1.3S18.8,144.9,18.8,145.6z M12.9,145.6c0,0.7,0.4,1.3,0.9,1.3s0.9-0.6,0.9-1.3s-0.4-1.3-0.9-1.3
	S12.9,144.9,12.9,145.6z M5,145.6c0,0.7,0.3,1.3,0.6,1.3c0.3,0,0.6-0.6,0.6-1.3s-0.2-1.3-0.6-1.3C5.3,144.3,5,144.9,5,145.6z
	 M2.7,145.6c0,0.7,0.2,1.3,0.4,1.3c0.2,0,0.4-0.6,0.4-1.3s-0.2-1.3-0.4-1.3C2.9,144.3,2.7,144.9,2.7,145.6z M8.5,145.6
	c0,0.7,0.3,1.3,0.7,1.3s0.6-0.6,0.6-1.3s-0.3-1.3-0.6-1.3S8.5,144.9,8.5,145.6z M128,193c-0.7,0-1.3,0.6-1.3,1.3s0.6,1.3,1.3,1.3
	c0.7,0,1.3-0.6,1.3-1.3S128.7,193,128,193z M138.5,193c-0.7,0-1.3,0.6-1.3,1.3s0.6,1.3,1.3,1.3s1.3-0.6,1.3-1.3S139.2,193,138.5,193
	z M148.9,193c-0.7,0-1.3,0.6-1.3,1.3s0.6,1.3,1.3,1.3c0.7,0,1.3-0.6,1.3-1.3S149.6,193,148.9,193z M159.4,193
	c-0.7,0-1.3,0.6-1.3,1.3s0.6,1.3,1.3,1.3s1.3-0.6,1.3-1.3S160.1,193,159.4,193z M169.9,193c-0.7,0-1.2,0.6-1.2,1.3s0.5,1.3,1.2,1.3
	s1.2-0.6,1.2-1.3S170.6,193,169.9,193z M180.4,193c-0.6,0-1.2,0.6-1.2,1.3s0.5,1.3,1.2,1.3c0.6,0,1.2-0.6,1.2-1.3S181,193,180.4,193
	z M189.8,193c-0.6,0-1.2,0.6-1.2,1.3s0.5,1.3,1.2,1.3c0.6,0,1.2-0.6,1.2-1.3S190.5,193,189.8,193z M199.3,193
	c-0.6,0-1.2,0.6-1.2,1.3s0.5,1.3,1.2,1.3s1.2-0.6,1.2-1.3S199.9,193,199.3,193z M208.6,193c-0.6,0-1.1,0.6-1.1,1.3s0.5,1.3,1.1,1.3
	c0.6,0,1.1-0.6,1.1-1.3S209.2,193,208.6,193z M217,193c-0.6,0-1.1,0.6-1.1,1.3s0.5,1.3,1.1,1.3c0.6,0,1.1-0.6,1.1-1.3
	S217.6,193,217,193z M223.9,193c-0.6,0-1.1,0.6-1.1,1.3s0.5,1.3,1.1,1.3c0.6,0,1.1-0.6,1.1-1.3S224.5,193,223.9,193z M230,193
	c-0.6,0-1,0.6-1,1.3s0.5,1.3,1,1.3s1-0.6,1-1.3S230.6,193,230,193z M236.3,193c-0.5,0-0.9,0.6-0.9,1.3s0.4,1.3,0.9,1.3
	c0.5,0,0.9-0.6,0.9-1.3S236.8,193,236.3,193z M242.2,193c-0.5,0-0.9,0.6-0.9,1.3s0.4,1.3,0.9,1.3s0.9-0.6,0.9-1.3
	S242.7,193,242.2,193z M250.4,193c-0.3,0-0.6,0.6-0.6,1.3s0.2,1.3,0.6,1.3s0.6-0.6,0.6-1.3S250.7,193,250.4,193z M252.9,193
	c-0.2,0-0.4,0.6-0.4,1.3s0.2,1.3,0.4,1.3c0.2,0,0.4-0.6,0.4-1.3S253.1,193,252.9,193z M246.9,193c-0.4,0-0.7,0.6-0.7,1.3
	s0.3,1.3,0.7,1.3s0.7-0.6,0.7-1.3S247.2,193,246.9,193z M116.3,194.3c0,0.7,0.6,1.3,1.3,1.3s1.3-0.6,1.3-1.3s-0.6-1.3-1.3-1.3
	S116.3,193.6,116.3,194.3z M105.8,194.3c0,0.7,0.6,1.3,1.3,1.3c0.7,0,1.3-0.6,1.3-1.3s-0.6-1.3-1.3-1.3
	C106.4,193,105.8,193.6,105.8,194.3z M95.4,194.3c0,0.7,0.6,1.3,1.3,1.3s1.3-0.6,1.3-1.3s-0.6-1.3-1.3-1.3S95.4,193.6,95.4,194.3z
	 M84.9,194.3c0,0.7,0.5,1.3,1.2,1.3s1.2-0.6,1.2-1.3s-0.5-1.3-1.2-1.3S84.9,193.6,84.9,194.3z M74.5,194.3c0,0.7,0.5,1.3,1.2,1.3
	c0.6,0,1.2-0.6,1.2-1.3s-0.5-1.3-1.2-1.3C75,193,74.5,193.6,74.5,194.3z M65,194.3c0,0.7,0.5,1.3,1.2,1.3c0.6,0,1.2-0.6,1.2-1.3
	s-0.5-1.3-1.2-1.3C65.5,193,65,193.6,65,194.3z M55.5,194.3c0,0.7,0.5,1.3,1.2,1.3c0.6,0,1.2-0.6,1.2-1.3s-0.5-1.3-1.2-1.3
	C56.1,193,55.5,193.6,55.5,194.3z M45.9,194.3c0,0.7,0.5,1.3,1.1,1.3c0.6,0,1.1-0.6,1.1-1.3S47.6,193,47,193
	C46.4,193,45.9,193.6,45.9,194.3z M37.9,194.3c0,0.7,0.5,1.3,1.1,1.3s1.1-0.6,1.1-1.3S39.6,193,39,193S37.9,193.6,37.9,194.3z
	 M31,194.3c0,0.7,0.5,1.3,1.1,1.3s1.1-0.6,1.1-1.3s-0.5-1.3-1.1-1.3S31,193.6,31,194.3z M24.9,194.3c0,0.7,0.5,1.3,1,1.3
	c0.6,0,1-0.6,1-1.3s-0.5-1.3-1-1.3C25.4,193,24.9,193.6,24.9,194.3z M18.8,194.3c0,0.7,0.4,1.3,0.9,1.3s0.9-0.6,0.9-1.3
	s-0.4-1.3-0.9-1.3S18.8,193.6,18.8,194.3z M12.9,194.3c0,0.7,0.4,1.3,0.9,1.3s0.9-0.6,0.9-1.3s-0.4-1.3-0.9-1.3
	S12.9,193.6,12.9,194.3z M5,194.3c0,0.7,0.3,1.3,0.6,1.3c0.3,0,0.6-0.6,0.6-1.3S5.9,193,5.6,193C5.3,193,5,193.6,5,194.3z
	 M2.7,194.3c0,0.7,0.2,1.3,0.4,1.3c0.2,0,0.4-0.6,0.4-1.3S3.3,193,3.1,193C2.9,193,2.7,193.6,2.7,194.3z M8.5,194.3
	c0,0.7,0.3,1.3,0.7,1.3s0.6-0.6,0.6-1.3S9.5,193,9.1,193S8.5,193.6,8.5,194.3z"/>
<linearGradient id="Rivets_Head_1_" gradientUnits="userSpaceOnUse" x1="86.6543" y1="22.1162" x2="170.3927" y2="22.1162">
	<stop  offset="0" style="stop-color:#FFFFFF"/>
	<stop  offset="1" style="stop-color:#7C7C7B"/>
</linearGradient>
<path id="Rivets_Head" fill="url(#Rivets_Head_1_)" stroke="#646567" stroke-width="0.75" stroke-linecap="round" stroke-linejoin="round" stroke-miterlimit="10" d="
	M129.3,39.9c0,0.7-0.6,1.3-1.3,1.3s-1.3-0.6-1.3-1.3s0.6-1.3,1.3-1.3S129.3,39.2,129.3,39.9z M128,31c-0.7,0-1.3,0.6-1.3,1.3
	s0.6,1.3,1.3,1.3s1.3-0.6,1.3-1.3S128.7,31,128,31z M128,24.4c-0.7,0-1.3,0.5-1.3,1s0.6,1,1.3,1s1.3-0.5,1.3-1S128.7,24.4,128,24.4z
	 M128,18.6c-0.7,0-1.3,0.4-1.3,1s0.6,1,1.3,1s1.3-0.4,1.3-1S128.7,18.6,128,18.6z M128,14.4c-0.7,0-1.3,0.3-1.3,0.8
	c0,0.4,0.6,0.8,1.3,0.8s1.3-0.3,1.3-0.8C129.3,14.7,128.7,14.4,128,14.4z M128,10.9c-0.7,0-1.3,0.3-1.3,0.8s0.6,0.8,1.3,0.8
	s1.3-0.3,1.3-0.8S128.7,10.9,128,10.9z M128,8.1c-0.7,0-1.3,0.3-1.3,0.7c0,0.4,0.6,0.7,1.3,0.7s1.3-0.3,1.3-0.7
	C129.3,8.4,128.7,8.1,128,8.1z M128,6c-0.7,0-1.3,0.2-1.3,0.5S127.3,7,128,7s1.3-0.2,1.3-0.5S128.7,6,128,6z M128,3.1
	c-0.7,0-1.3,0.2-1.3,0.4s0.6,0.4,1.3,0.4s1.3-0.2,1.3-0.4S128.7,3.1,128,3.1z M136,3.5c0,0.2,0.5,0.4,1.1,0.4c0.6,0,1.1-0.2,1.1-0.4
	s-0.5-0.4-1.1-0.4C136.5,3.1,136,3.3,136,3.5z M143.3,3.5c0,0.2,0.5,0.4,1,0.4c0.6,0,1-0.2,1-0.4s-0.5-0.4-1-0.4
	C143.7,3.1,143.3,3.3,143.3,3.5z M149.7,3.5c0,0.2,0.4,0.4,1,0.4c0.5,0,1-0.2,1-0.4s-0.4-0.4-1-0.4C150.1,3.1,149.7,3.3,149.7,3.5z
	 M155.1,3.5c0,0.2,0.4,0.4,0.9,0.4c0.5,0,0.9-0.2,0.9-0.4s-0.4-0.4-0.9-0.4C155.5,3.1,155.1,3.3,155.1,3.5z M158.9,3.5
	c0,0.2,0.3,0.4,0.7,0.4s0.7-0.2,0.7-0.4s-0.3-0.4-0.7-0.4S158.9,3.3,158.9,3.5z M161.6,3.5c0,0.2,0.3,0.4,0.8,0.4s0.8-0.2,0.8-0.4
	s-0.3-0.4-0.8-0.4S161.6,3.3,161.6,3.5z M163.9,3.5c0,0.2,0.3,0.4,0.6,0.4s0.6-0.2,0.6-0.4s-0.3-0.4-0.6-0.4S163.9,3.3,163.9,3.5z
	 M118.8,3.1c-0.6,0-1.1,0.2-1.1,0.4s0.5,0.4,1.1,0.4c0.6,0,1.1-0.2,1.1-0.4S119.5,3.1,118.8,3.1z M111.7,3.1c-0.6,0-1,0.2-1,0.4
	s0.5,0.4,1,0.4c0.6,0,1-0.2,1-0.4S112.3,3.1,111.7,3.1z M105.3,3.1c-0.5,0-1,0.2-1,0.4s0.4,0.4,1,0.4c0.5,0,1-0.2,1-0.4
	S105.9,3.1,105.3,3.1z M100,3.1c-0.5,0-0.9,0.2-0.9,0.4s0.4,0.4,0.9,0.4c0.5,0,0.9-0.2,0.9-0.4S100.5,3.1,100,3.1z M96.3,3.1
	c-0.4,0-0.7,0.2-0.7,0.4s0.3,0.4,0.7,0.4s0.7-0.2,0.7-0.4S96.7,3.1,96.3,3.1z M93.7,3.1c-0.4,0-0.8,0.2-0.8,0.4s0.3,0.4,0.8,0.4
	s0.8-0.2,0.8-0.4S94.1,3.1,93.7,3.1z M91.5,3.1c-0.3,0-0.6,0.2-0.6,0.4s0.3,0.4,0.6,0.4s0.6-0.2,0.6-0.4S91.8,3.1,91.5,3.1z"/>
</svg>
