<?xml version="1.0" encoding="utf-8"?>

<!-- Copyright 2016 Siemens AG -->

<!-- Generator: Adobe Illustrator 16.0.4, SVG Export Plug-In . SVG Version: 6.00 Build 0)  -->
<!DOCTYPE svg PUBLIC "-//W3C//DTD SVG 1.1//EN" "http://www.w3.org/Graphics/SVG/1.1/DTD/svg11.dtd">
<svg version="1.1" id="Process_Column_1" xmlns="http://www.w3.org/2000/svg" xmlns:xlink="http://www.w3.org/1999/xlink" x="0px"
	 y="0px" width="79px" height="300px" viewBox="0 0 79 300" enable-background="new 0 0 79 300" xml:space="preserve">
<g id="Vessel">
	<g id="Base_2_">
		<linearGradient id="Shape_3_" gradientUnits="userSpaceOnUse" x1="15.9722" y1="295.7036" x2="67.7471" y2="295.7036">
			<stop  offset="0" style="stop-color:#A5A5A5"/>
			<stop  offset="4.758149e-02" style="stop-color:#B5B5B5"/>
			<stop  offset="0.1509" style="stop-color:#D3D3D3"/>
			<stop  offset="0.2395" style="stop-color:#E5E5E5"/>
			<stop  offset="0.3025" style="stop-color:#ECECEC"/>
			<stop  offset="0.4074" style="stop-color:#E8E8E8"/>
			<stop  offset="0.514" style="stop-color:#DCDCDC"/>
			<stop  offset="0.6214" style="stop-color:#C7C7C7"/>
			<stop  offset="0.7294" style="stop-color:#ABABAB"/>
			<stop  offset="0.8378" style="stop-color:#868686"/>
			<stop  offset="0.9452" style="stop-color:#5A5A5A"/>
			<stop  offset="1" style="stop-color:#404040"/>
		</linearGradient>
		
			<rect id="Shape_5_" x="16.4" y="293.8" fill="url(#Shape_3_)" stroke="#8C8C91" stroke-width="0.75" stroke-linecap="round" stroke-linejoin="round" stroke-miterlimit="10" width="46.1" height="3.8"/>
		<linearGradient id="Reflection_1_" gradientUnits="userSpaceOnUse" x1="21.6299" y1="295.6924" x2="24.553" y2="295.6924">
			<stop  offset="0" style="stop-color:#F2F2F2;stop-opacity:0.4"/>
			<stop  offset="1" style="stop-color:#F7F7F7;stop-opacity:0.7"/>
		</linearGradient>
		<rect id="Reflection_4_" x="21.2" y="294.2" fill="url(#Reflection_1_)" width="7.8" height="3"/>
	</g>
	<g id="Vessel_1_">
		<linearGradient id="Shape_4_" gradientUnits="userSpaceOnUse" x1="17.4478" y1="152.6357" x2="64.6078" y2="152.6357">
			<stop  offset="0" style="stop-color:#A5A5A5"/>
			<stop  offset="4.758149e-02" style="stop-color:#B5B5B5"/>
			<stop  offset="0.1509" style="stop-color:#D3D3D3"/>
			<stop  offset="0.2395" style="stop-color:#E5E5E5"/>
			<stop  offset="0.3025" style="stop-color:#ECECEC"/>
			<stop  offset="0.4074" style="stop-color:#E8E8E8"/>
			<stop  offset="0.514" style="stop-color:#DCDCDC"/>
			<stop  offset="0.6214" style="stop-color:#C7C7C7"/>
			<stop  offset="0.7294" style="stop-color:#ABABAB"/>
			<stop  offset="0.8378" style="stop-color:#868686"/>
			<stop  offset="0.9452" style="stop-color:#5A5A5A"/>
			<stop  offset="1" style="stop-color:#404040"/>
		</linearGradient>
		
			<rect id="Shape_2_" x="17.3" y="11.5" fill="url(#Shape_4_)" stroke="#8C8C91" stroke-width="0.75" stroke-linecap="round" stroke-linejoin="round" stroke-miterlimit="10" width="44.4" height="282.3"/>
		<linearGradient id="Reflection_5_" gradientUnits="userSpaceOnUse" x1="20.4893" y1="152.6226" x2="25.2199" y2="152.6226">
			<stop  offset="0" style="stop-color:#F2F2F2;stop-opacity:0.4"/>
			<stop  offset="1" style="stop-color:#F7F7F7;stop-opacity:0.7"/>
		</linearGradient>
		<rect id="Reflection_3_" x="21.8" y="11.9" fill="url(#Reflection_5_)" width="7.6" height="281.5"/>
	</g>
	<g id="Cover_1_">
		<linearGradient id="Shape_6_" gradientUnits="userSpaceOnUse" x1="16.979" y1="6.9268" x2="65.4417" y2="6.9268">
			<stop  offset="0" style="stop-color:#A5A5A5"/>
			<stop  offset="4.758149e-02" style="stop-color:#B5B5B5"/>
			<stop  offset="0.1509" style="stop-color:#D3D3D3"/>
			<stop  offset="0.2395" style="stop-color:#E5E5E5"/>
			<stop  offset="0.3025" style="stop-color:#ECECEC"/>
			<stop  offset="0.4074" style="stop-color:#E8E8E8"/>
			<stop  offset="0.514" style="stop-color:#DCDCDC"/>
			<stop  offset="0.6214" style="stop-color:#C7C7C7"/>
			<stop  offset="0.7294" style="stop-color:#ABABAB"/>
			<stop  offset="0.8378" style="stop-color:#868686"/>
			<stop  offset="0.9452" style="stop-color:#5A5A5A"/>
			<stop  offset="1" style="stop-color:#404040"/>
		</linearGradient>
		
			<path id="Shape_1_" fill="url(#Shape_6_)" stroke="#8C8C91" stroke-width="0.75" stroke-linecap="round" stroke-linejoin="round" stroke-miterlimit="10" d="
			M61.7,11.5c0-4.2-9.9-9.1-22.2-9.1c-12.3,0-22.2,4.9-22.2,9.1H61.7z"/>
		<path id="Reflection_2_" fill="#FFFFFF" d="M21.8,11h7.6c0,0-0.1-6.2,7.1-8.1C36.5,2.9,22.3,5,21.8,11z"/>
	</g>
	<path id="Reflection_Lines" fill="none" stroke="#FFFFFF" stroke-width="0.75" stroke-miterlimit="10" d="M17.7,65h43.6
		 M17.7,125.4h43.6 M17.7,185.9h43.6 M17.7,246.3h43.6"/>
	<linearGradient id="Rings_1_" gradientUnits="userSpaceOnUse" x1="17.7183" y1="157.1636" x2="61.3649" y2="157.1636">
		<stop  offset="0" style="stop-color:#A5A5A5"/>
		<stop  offset="8.870660e-02" style="stop-color:#B6B6B6"/>
		<stop  offset="0.2135" style="stop-color:#C8C8C8"/>
		<stop  offset="0.3025" style="stop-color:#CFCFCE"/>
		<stop  offset="0.4177" style="stop-color:#CBCBCA"/>
		<stop  offset="0.5347" style="stop-color:#BFBFBE"/>
		<stop  offset="0.6526" style="stop-color:#AAAAAA"/>
		<stop  offset="0.7711" style="stop-color:#8E8E8D"/>
		<stop  offset="0.8889" style="stop-color:#696969"/>
		<stop  offset="1" style="stop-color:#404040"/>
	</linearGradient>
	
		<path id="Rings" fill="url(#Rings_1_)" stroke="#646567" stroke-width="0.7524" stroke-linecap="round" stroke-linejoin="round" stroke-miterlimit="10" d="
		M61.7,67.3H17.3v-1.6h44.4V67.3z M61.7,126.2H17.3v1.6h44.4V126.2z M61.7,186.6H17.3v1.6h44.4V186.6z M61.7,247H17.3v1.6h44.4V247z
		"/>
</g>
<g id="Ladders">
	<g id="Ladder_Bottom">
		
			<path id="Rungs_1_" fill="none" stroke="#8C8C91" stroke-width="0.75" stroke-linecap="round" stroke-linejoin="round" stroke-miterlimit="10" d="
			M31.9,224.1H37 M31.9,228.5H37 M31.9,232.9H37 M31.9,237.3H37 M31.9,241.7H37 M31.9,246H37 M31.9,250.4H37 M31.9,254.8H37
			 M31.9,259.2H37 M31.9,263.6H37 M31.9,267.9H37 M31.9,272.3H37 M31.9,276.7H37 M31.9,281.1H37 M31.9,285.4H37 M31.9,289.8H37
			 M31.9,294.2H37"/>
		
			<path id="Handrail_1_" fill="#ADADAD" stroke="#646567" stroke-width="0.75" stroke-linecap="round" stroke-linejoin="round" stroke-miterlimit="10" d="
			M32.3,297.6h-0.7v-75.5h0.7V297.6z M37.4,222.1h-0.7v75.5h0.7V222.1z"/>
	</g>
	<g id="Ladder_3">
		
			<path id="Rungs_3_" fill="none" stroke="#8C8C91" stroke-width="0.75" stroke-linecap="round" stroke-linejoin="round" stroke-miterlimit="10" d="
			M42,163.9H47 M42,168.2H47 M42,172.6H47 M42,177H47 M42,181.4H47 M42,185.8H47 M42,190.1H47 M42,194.5H47 M42,198.9H47 M42,203.3
			H47 M42,207.6H47 M42,212H47 M42,216.4H47"/>
		
			<path id="Handrail_3_" fill="#ADADAD" stroke="#646567" stroke-width="0.75" stroke-linecap="round" stroke-linejoin="round" stroke-miterlimit="10" d="
			M42.3,219.8h-0.7v-58.1h0.7V219.8z M47.4,161.7h-0.7v58.1h0.7V161.7z"/>
	</g>
	<g id="Ladder_2">
		
			<path id="Rungs_5_" fill="none" stroke="#8C8C91" stroke-width="0.75" stroke-linecap="round" stroke-linejoin="round" stroke-miterlimit="10" d="
			M31.9,103.5H37 M31.9,107.8H37 M31.9,112.2H37 M31.9,116.6H37 M31.9,121H37 M31.9,125.4H37 M31.9,129.7H37 M31.9,134.1H37
			 M31.9,138.5H37 M31.9,142.9H37 M31.9,147.3H37 M31.9,151.6H37 M31.9,156H37"/>
		
			<path id="Handrail_9_" fill="#ADADAD" stroke="#646567" stroke-width="0.75" stroke-linecap="round" stroke-linejoin="round" stroke-miterlimit="10" d="
			M32.3,159.4h-0.7v-58.1h0.7V159.4z M37.4,101.3h-0.7v58.1h0.7V101.3z"/>
	</g>
	<g id="Ladder_Top">
		
			<path id="Rungs_8_" fill="none" stroke="#8C8C91" stroke-width="0.75" stroke-linecap="round" stroke-linejoin="round" stroke-miterlimit="10" d="
			M42,43H47 M42,47.4H47 M42,51.8H47 M42,56.2H47 M42,60.5H47 M42,64.9H47 M42,69.3H47 M42,73.7H47 M42,78.1H47 M42,82.4H47
			 M42,86.8H47 M42,91.2H47 M42,95.6H47"/>
		
			<path id="Handrail_12_" fill="#ADADAD" stroke="#646567" stroke-width="0.75" stroke-linecap="round" stroke-linejoin="round" stroke-miterlimit="10" d="
			M42.3,99h-0.7V40.9h0.7V99z M47.4,40.9h-0.7V99h0.7V40.9z"/>
	</g>
</g>
<g id="Platforms__x2B__Fixing">
	<g id="Platform_4_7_">
		<g id="Railings_7_">
			
				<path id="Railings_Small_7_" fill="none" stroke="#8C8C91" stroke-linecap="round" stroke-linejoin="round" stroke-miterlimit="10" d="
				M75.2,212.7H3.7 M75.2,216.3H3.7"/>
			
				<path id="Upright_Posts_7_" fill="#AFAFAE" stroke="#646567" stroke-width="0.75" stroke-linecap="round" stroke-linejoin="round" stroke-miterlimit="10" d="
				M4,208.9H3.4v10.9H4V208.9z M28.6,208.9h-0.6v10.9h0.6V208.9z M39.7,208.9h-0.6v10.9h0.6V208.9z M18.6,208.9H18v10.9h0.6V208.9z
				 M12.1,208.9h-0.6v10.9h0.6V208.9z M7.6,208.9H7v10.9h0.6V208.9z M74.9,219.8h0.6v-10.9h-0.6V219.8z M50.3,219.8h0.6v-10.9h-0.6
				V219.8z M60.3,219.8h0.6v-10.9h-0.6V219.8z M66.9,219.8h0.6v-10.9h-0.6V219.8z M71.3,219.8h0.6v-10.9h-0.6V219.8z"/>
			<linearGradient id="Handrail_2_" gradientUnits="userSpaceOnUse" x1="4.6641" y1="208.8799" x2="75.5708" y2="208.8799">
				<stop  offset="0" style="stop-color:#A5A5A5"/>
				<stop  offset="4.758149e-02" style="stop-color:#B5B5B5"/>
				<stop  offset="0.1509" style="stop-color:#D3D3D3"/>
				<stop  offset="0.2395" style="stop-color:#E5E5E5"/>
				<stop  offset="0.3025" style="stop-color:#ECECEC"/>
				<stop  offset="0.4074" style="stop-color:#E8E8E8"/>
				<stop  offset="0.514" style="stop-color:#DCDCDC"/>
				<stop  offset="0.6214" style="stop-color:#C7C7C7"/>
				<stop  offset="0.7294" style="stop-color:#ABABAB"/>
				<stop  offset="0.8378" style="stop-color:#868686"/>
				<stop  offset="0.9452" style="stop-color:#5A5A5A"/>
				<stop  offset="1" style="stop-color:#404040"/>
			</linearGradient>
			
				<path id="Handrail_8_" fill="url(#Handrail_2_)" stroke="#8C8C91" stroke-width="0.75" stroke-linecap="round" stroke-linejoin="round" stroke-miterlimit="10" d="
				M76.2,209.2c0.2,0,0.3-0.1,0.3-0.3c0-0.2-0.1-0.3-0.3-0.3H2.8c-0.2,0-0.3,0.1-0.3,0.3c0,0.2,0.1,0.3,0.3,0.3H76.2z"/>
		</g>
		
			<polygon id="Fixing_Right_7_" fill="#646567" stroke="#646567" stroke-width="0.75" stroke-linecap="round" stroke-linejoin="round" stroke-miterlimit="10" points="
			68.8,222.1 61.7,226.5 61.7,229.1 73.1,222.1 		"/>
		
			<path id="Shadow_Platform_7_" fill="#646567" stroke="#646567" stroke-width="0.75" stroke-linecap="round" stroke-linejoin="round" stroke-miterlimit="10" d="
			M17.2,226.5v-4.3h44.4v7c0,0-9.6-5.4-22.2-5.4C26.9,223.7,17.2,226.5,17.2,226.5z"/>
		<linearGradient id="Fixing_Front_1_" gradientUnits="userSpaceOnUse" x1="29.4165" y1="229.439" x2="29.4165" y2="219.9395">
			<stop  offset="0" style="stop-color:#FFFFFF"/>
			<stop  offset="1" style="stop-color:#7C7C7B"/>
		</linearGradient>
		
			<path id="Fixing_Front_7_" fill="url(#Fixing_Front_1_)" stroke="#8C8C91" stroke-width="0.75" stroke-linecap="round" stroke-linejoin="round" stroke-miterlimit="10" d="
			M5.8,222.1l11.4,7v-2.6l-7.1-4.4H5.8z M25.9,222.1h2.3l2.4,7h-2.3L25.9,222.1z M50.7,229.1h-2.3l2.4-7H53L50.7,229.1z"/>
		<g id="Fixing_Sides_7_">
			<linearGradient id="Right_1_" gradientUnits="userSpaceOnUse" x1="48.3931" y1="225.5869" x2="50.7749" y2="225.5869">
				<stop  offset="0" style="stop-color:#FFFFFF"/>
				<stop  offset="1" style="stop-color:#7C7C7B"/>
			</linearGradient>
			
				<polygon id="Right_7_" fill="url(#Right_1_)" stroke="#8C8C91" stroke-width="0.75" stroke-linecap="round" stroke-linejoin="round" stroke-miterlimit="10" points="
				48.4,229.1 48.4,226.8 49.9,222.1 50.8,222.1 			"/>
			<linearGradient id="Left_1_" gradientUnits="userSpaceOnUse" x1="28.1284" y1="225.5869" x2="30.5103" y2="225.5869">
				<stop  offset="0" style="stop-color:#9A9A99"/>
				<stop  offset="0.2954" style="stop-color:#919190"/>
				<stop  offset="0.7771" style="stop-color:#797978"/>
				<stop  offset="1" style="stop-color:#6B6B6A"/>
			</linearGradient>
			
				<polygon id="Left_7_" fill="url(#Left_1_)" stroke="#646567" stroke-width="0.75" stroke-linecap="round" stroke-linejoin="round" stroke-miterlimit="10" points="
				30.5,229.1 30.5,226.8 29,222.1 28.1,222.1 			"/>
		</g>
		
			<path id="Shadows_Fixing_7_" fill="#646567" stroke="#646567" stroke-width="0.75" stroke-linecap="round" stroke-linejoin="round" stroke-miterlimit="10" d="
			M7.9,223.3h4.3l-2.1-1.3H5.8L7.9,223.3z M25.9,222.1H29l0.4,1.2h-3.1L25.9,222.1z M52.6,223.3h-3.1l0.4-1.3H53L52.6,223.3z"/>
		<linearGradient id="Platform_1_" gradientUnits="userSpaceOnUse" x1="2.6084" y1="220.96" x2="75.9152" y2="220.96">
			<stop  offset="0" style="stop-color:#A5A5A5"/>
			<stop  offset="4.758149e-02" style="stop-color:#B5B5B5"/>
			<stop  offset="0.1509" style="stop-color:#D3D3D3"/>
			<stop  offset="0.2395" style="stop-color:#E5E5E5"/>
			<stop  offset="0.3025" style="stop-color:#ECECEC"/>
			<stop  offset="0.4074" style="stop-color:#E8E8E8"/>
			<stop  offset="0.514" style="stop-color:#DCDCDC"/>
			<stop  offset="0.6214" style="stop-color:#C7C7C7"/>
			<stop  offset="0.7294" style="stop-color:#ABABAB"/>
			<stop  offset="0.8378" style="stop-color:#868686"/>
			<stop  offset="0.9452" style="stop-color:#5A5A5A"/>
			<stop  offset="1" style="stop-color:#404040"/>
		</linearGradient>
		
			<rect id="Platform_7_" x="2.5" y="219.8" fill="url(#Platform_1_)" stroke="#8C8C91" stroke-width="0.75" stroke-linecap="round" stroke-linejoin="round" stroke-miterlimit="10" width="73.9" height="2.3"/>
	</g>
	<g id="Platform_3">
		<g id="Railings_6_">
			
				<path id="Railings_Small_6_" fill="none" stroke="#8C8C91" stroke-linecap="round" stroke-linejoin="round" stroke-miterlimit="10" d="
				M75.2,152.3H3.7 M75.2,155.9H3.7"/>
			
				<path id="Upright_Posts_6_" fill="#AFAFAE" stroke="#646567" stroke-width="0.75" stroke-linecap="round" stroke-linejoin="round" stroke-miterlimit="10" d="
				M4,148.6H3.4v10.9H4V148.6z M28.6,148.6h-0.6v10.9h0.6V148.6z M39.7,148.6h-0.6v10.9h0.6V148.6z M18.6,148.6H18v10.9h0.6V148.6z
				 M12.1,148.6h-0.6v10.9h0.6V148.6z M7.6,148.6H7v10.9h0.6V148.6z M74.9,159.4h0.6v-10.9h-0.6V159.4z M50.3,159.4h0.6v-10.9h-0.6
				V159.4z M60.3,159.4h0.6v-10.9h-0.6V159.4z M66.9,159.4h0.6v-10.9h-0.6V159.4z M71.3,159.4h0.6v-10.9h-0.6V159.4z"/>
			<linearGradient id="Handrail_7_" gradientUnits="userSpaceOnUse" x1="4.6641" y1="148.4922" x2="75.5708" y2="148.4922">
				<stop  offset="0" style="stop-color:#A5A5A5"/>
				<stop  offset="4.758149e-02" style="stop-color:#B5B5B5"/>
				<stop  offset="0.1509" style="stop-color:#D3D3D3"/>
				<stop  offset="0.2395" style="stop-color:#E5E5E5"/>
				<stop  offset="0.3025" style="stop-color:#ECECEC"/>
				<stop  offset="0.4074" style="stop-color:#E8E8E8"/>
				<stop  offset="0.514" style="stop-color:#DCDCDC"/>
				<stop  offset="0.6214" style="stop-color:#C7C7C7"/>
				<stop  offset="0.7294" style="stop-color:#ABABAB"/>
				<stop  offset="0.8378" style="stop-color:#868686"/>
				<stop  offset="0.9452" style="stop-color:#5A5A5A"/>
				<stop  offset="1" style="stop-color:#404040"/>
			</linearGradient>
			
				<path id="Handrail_6_" fill="url(#Handrail_7_)" stroke="#8C8C91" stroke-width="0.75" stroke-linecap="round" stroke-linejoin="round" stroke-miterlimit="10" d="
				M76.2,148.8c0.2,0,0.3-0.1,0.3-0.3c0-0.2-0.1-0.3-0.3-0.3H2.8c-0.2,0-0.3,0.1-0.3,0.3c0,0.2,0.1,0.3,0.3,0.3H76.2z"/>
		</g>
		
			<polygon id="Fixing_Right_6_" fill="#646567" stroke="#646567" stroke-width="0.75" stroke-linecap="round" stroke-linejoin="round" stroke-miterlimit="10" points="
			68.8,161.7 61.7,166.1 61.7,168.7 73.1,161.7 		"/>
		
			<path id="Shadow_Platform_6_" fill="#646567" stroke="#646567" stroke-width="0.75" stroke-linecap="round" stroke-linejoin="round" stroke-miterlimit="10" d="
			M17.2,166.1v-4.3h44.4v7c0,0-9.6-5.4-22.2-5.4C26.9,163.4,17.2,166.1,17.2,166.1z"/>
		<linearGradient id="Fixing_Front_2_" gradientUnits="userSpaceOnUse" x1="29.4165" y1="169.0513" x2="29.4165" y2="159.5518">
			<stop  offset="0" style="stop-color:#FFFFFF"/>
			<stop  offset="1" style="stop-color:#7C7C7B"/>
		</linearGradient>
		
			<path id="Fixing_Front_6_" fill="url(#Fixing_Front_2_)" stroke="#8C8C91" stroke-width="0.75" stroke-linecap="round" stroke-linejoin="round" stroke-miterlimit="10" d="
			M5.8,161.7l11.4,7v-2.6l-7.1-4.4H5.8z M25.9,161.7h2.3l2.4,7h-2.3L25.9,161.7z M50.7,168.7h-2.3l2.4-7H53L50.7,168.7z"/>
		<g id="Fixing_Sides_6_">
			<linearGradient id="Right_2_" gradientUnits="userSpaceOnUse" x1="48.3931" y1="165.1992" x2="50.7749" y2="165.1992">
				<stop  offset="0" style="stop-color:#FFFFFF"/>
				<stop  offset="1" style="stop-color:#7C7C7B"/>
			</linearGradient>
			
				<polygon id="Right_6_" fill="url(#Right_2_)" stroke="#8C8C91" stroke-width="0.75" stroke-linecap="round" stroke-linejoin="round" stroke-miterlimit="10" points="
				48.4,168.7 48.4,166.4 49.9,161.7 50.8,161.7 			"/>
			<linearGradient id="Left_2_" gradientUnits="userSpaceOnUse" x1="28.1284" y1="165.1992" x2="30.5103" y2="165.1992">
				<stop  offset="0" style="stop-color:#9A9A99"/>
				<stop  offset="0.2954" style="stop-color:#919190"/>
				<stop  offset="0.7771" style="stop-color:#797978"/>
				<stop  offset="1" style="stop-color:#6B6B6A"/>
			</linearGradient>
			
				<polygon id="Left_6_" fill="url(#Left_2_)" stroke="#646567" stroke-width="0.75" stroke-linecap="round" stroke-linejoin="round" stroke-miterlimit="10" points="
				30.5,168.7 30.5,166.4 29,161.7 28.1,161.7 			"/>
		</g>
		
			<path id="Shadows_Fixing_6_" fill="#646567" stroke="#646567" stroke-width="0.75" stroke-linecap="round" stroke-linejoin="round" stroke-miterlimit="10" d="
			M7.9,163h4.3l-2.1-1.3H5.8L7.9,163z M25.9,161.7H29l0.4,1.2h-3.1L25.9,161.7z M52.6,163h-3.1l0.4-1.3H53L52.6,163z"/>
		<linearGradient id="Platform_2_" gradientUnits="userSpaceOnUse" x1="2.6084" y1="160.5723" x2="75.9152" y2="160.5723">
			<stop  offset="0" style="stop-color:#A5A5A5"/>
			<stop  offset="4.758149e-02" style="stop-color:#B5B5B5"/>
			<stop  offset="0.1509" style="stop-color:#D3D3D3"/>
			<stop  offset="0.2395" style="stop-color:#E5E5E5"/>
			<stop  offset="0.3025" style="stop-color:#ECECEC"/>
			<stop  offset="0.4074" style="stop-color:#E8E8E8"/>
			<stop  offset="0.514" style="stop-color:#DCDCDC"/>
			<stop  offset="0.6214" style="stop-color:#C7C7C7"/>
			<stop  offset="0.7294" style="stop-color:#ABABAB"/>
			<stop  offset="0.8378" style="stop-color:#868686"/>
			<stop  offset="0.9452" style="stop-color:#5A5A5A"/>
			<stop  offset="1" style="stop-color:#404040"/>
		</linearGradient>
		
			<rect id="Platform_6_" x="2.5" y="159.4" fill="url(#Platform_2_)" stroke="#8C8C91" stroke-width="0.75" stroke-linecap="round" stroke-linejoin="round" stroke-miterlimit="10" width="73.9" height="2.3"/>
	</g>
	<g id="Platform_2">
		<g id="Railings_5_">
			
				<path id="Railings_Small_5_" fill="none" stroke="#8C8C91" stroke-linecap="round" stroke-linejoin="round" stroke-miterlimit="10" d="
				M75.2,91.9H3.7 M75.2,95.5H3.7"/>
			
				<path id="Upright_Posts_5_" fill="#AFAFAE" stroke="#646567" stroke-width="0.75" stroke-linecap="round" stroke-linejoin="round" stroke-miterlimit="10" d="
				M4,88.2H3.4V99H4V88.2z M28.6,88.2h-0.6V99h0.6V88.2z M39.7,88.2h-0.6V99h0.6V88.2z M18.6,88.2H18V99h0.6V88.2z M12.1,88.2h-0.6
				V99h0.6V88.2z M7.6,88.2H7V99h0.6V88.2z M74.9,99h0.6V88.2h-0.6V99z M50.3,99h0.6V88.2h-0.6V99z M60.3,99h0.6V88.2h-0.6V99z
				 M66.9,99h0.6V88.2h-0.6V99z M71.3,99h0.6V88.2h-0.6V99z"/>
			<linearGradient id="Handrail_10_" gradientUnits="userSpaceOnUse" x1="4.6641" y1="88.104" x2="75.5708" y2="88.104">
				<stop  offset="0" style="stop-color:#A5A5A5"/>
				<stop  offset="4.758149e-02" style="stop-color:#B5B5B5"/>
				<stop  offset="0.1509" style="stop-color:#D3D3D3"/>
				<stop  offset="0.2395" style="stop-color:#E5E5E5"/>
				<stop  offset="0.3025" style="stop-color:#ECECEC"/>
				<stop  offset="0.4074" style="stop-color:#E8E8E8"/>
				<stop  offset="0.514" style="stop-color:#DCDCDC"/>
				<stop  offset="0.6214" style="stop-color:#C7C7C7"/>
				<stop  offset="0.7294" style="stop-color:#ABABAB"/>
				<stop  offset="0.8378" style="stop-color:#868686"/>
				<stop  offset="0.9452" style="stop-color:#5A5A5A"/>
				<stop  offset="1" style="stop-color:#404040"/>
			</linearGradient>
			
				<path id="Handrail_5_" fill="url(#Handrail_10_)" stroke="#8C8C91" stroke-width="0.75" stroke-linecap="round" stroke-linejoin="round" stroke-miterlimit="10" d="
				M76.2,88.4c0.2,0,0.3-0.1,0.3-0.3c0-0.2-0.1-0.3-0.3-0.3H2.8c-0.2,0-0.3,0.1-0.3,0.3c0,0.2,0.1,0.3,0.3,0.3H76.2z"/>
		</g>
		
			<polygon id="Fixing_Right_5_" fill="#646567" stroke="#646567" stroke-width="0.75" stroke-linecap="round" stroke-linejoin="round" stroke-miterlimit="10" points="
			68.8,101.3 61.7,105.7 61.7,108.3 73.1,101.3 		"/>
		
			<path id="Shadow_Platform_5_" fill="#646567" stroke="#646567" stroke-width="0.75" stroke-linecap="round" stroke-linejoin="round" stroke-miterlimit="10" d="
			M17.2,105.7v-4.3h44.4v7c0,0-9.6-5.4-22.2-5.4C26.9,103,17.2,105.7,17.2,105.7z"/>
		<linearGradient id="Fixing_Front_3_" gradientUnits="userSpaceOnUse" x1="29.4165" y1="108.6631" x2="29.4165" y2="99.1637">
			<stop  offset="0" style="stop-color:#FFFFFF"/>
			<stop  offset="1" style="stop-color:#7C7C7B"/>
		</linearGradient>
		
			<path id="Fixing_Front_5_" fill="url(#Fixing_Front_3_)" stroke="#8C8C91" stroke-width="0.75" stroke-linecap="round" stroke-linejoin="round" stroke-miterlimit="10" d="
			M5.8,101.3l11.4,7v-2.6l-7.1-4.4H5.8z M25.9,101.3h2.3l2.4,7h-2.3L25.9,101.3z M50.7,108.3h-2.3l2.4-7H53L50.7,108.3z"/>
		<g id="Fixing_Sides_5_">
			<linearGradient id="Right_3_" gradientUnits="userSpaceOnUse" x1="48.3931" y1="104.811" x2="50.7749" y2="104.811">
				<stop  offset="0" style="stop-color:#FFFFFF"/>
				<stop  offset="1" style="stop-color:#7C7C7B"/>
			</linearGradient>
			
				<polygon id="Right_5_" fill="url(#Right_3_)" stroke="#8C8C91" stroke-width="0.75" stroke-linecap="round" stroke-linejoin="round" stroke-miterlimit="10" points="
				48.4,108.3 48.4,106 49.9,101.3 50.8,101.3 			"/>
			<linearGradient id="Left_3_" gradientUnits="userSpaceOnUse" x1="28.1284" y1="104.811" x2="30.5103" y2="104.811">
				<stop  offset="0" style="stop-color:#9A9A99"/>
				<stop  offset="0.2954" style="stop-color:#919190"/>
				<stop  offset="0.7771" style="stop-color:#797978"/>
				<stop  offset="1" style="stop-color:#6B6B6A"/>
			</linearGradient>
			
				<polygon id="Left_5_" fill="url(#Left_3_)" stroke="#646567" stroke-width="0.75" stroke-linecap="round" stroke-linejoin="round" stroke-miterlimit="10" points="
				30.5,108.3 30.5,106 29,101.3 28.1,101.3 			"/>
		</g>
		
			<path id="Shadows_Fixing_5_" fill="#646567" stroke="#646567" stroke-width="0.75" stroke-linecap="round" stroke-linejoin="round" stroke-miterlimit="10" d="
			M7.9,102.6h4.3l-2.1-1.3H5.8L7.9,102.6z M25.9,101.3H29l0.4,1.2h-3.1L25.9,101.3z M52.6,102.6h-3.1l0.4-1.3H53L52.6,102.6z"/>
		<linearGradient id="Platform_3_" gradientUnits="userSpaceOnUse" x1="2.6084" y1="100.1841" x2="75.9152" y2="100.1841">
			<stop  offset="0" style="stop-color:#A5A5A5"/>
			<stop  offset="4.758149e-02" style="stop-color:#B5B5B5"/>
			<stop  offset="0.1509" style="stop-color:#D3D3D3"/>
			<stop  offset="0.2395" style="stop-color:#E5E5E5"/>
			<stop  offset="0.3025" style="stop-color:#ECECEC"/>
			<stop  offset="0.4074" style="stop-color:#E8E8E8"/>
			<stop  offset="0.514" style="stop-color:#DCDCDC"/>
			<stop  offset="0.6214" style="stop-color:#C7C7C7"/>
			<stop  offset="0.7294" style="stop-color:#ABABAB"/>
			<stop  offset="0.8378" style="stop-color:#868686"/>
			<stop  offset="0.9452" style="stop-color:#5A5A5A"/>
			<stop  offset="1" style="stop-color:#404040"/>
		</linearGradient>
		
			<rect id="Platform_5_" x="2.5" y="99" fill="url(#Platform_3_)" stroke="#8C8C91" stroke-width="0.75" stroke-linecap="round" stroke-linejoin="round" stroke-miterlimit="10" width="73.9" height="2.3"/>
	</g>
	<g id="Platform_Top">
		<g id="Railings_4_">
			
				<path id="Railings_Small_4_" fill="none" stroke="#8C8C91" stroke-linecap="round" stroke-linejoin="round" stroke-miterlimit="10" d="
				M75.2,31.6H3.7 M75.2,35.1H3.7"/>
			
				<path id="Upright_Posts_4_" fill="#AFAFAE" stroke="#646567" stroke-width="0.75" stroke-linecap="round" stroke-linejoin="round" stroke-miterlimit="10" d="
				M4,27.8H3.4v10.9H4V27.8z M28.6,27.8h-0.6v10.9h0.6V27.8z M39.7,27.8h-0.6v10.9h0.6V27.8z M18.6,27.8H18v10.9h0.6V27.8z
				 M12.1,27.8h-0.6v10.9h0.6V27.8z M7.6,27.8H7v10.9h0.6V27.8z M74.9,38.6h0.6V27.8h-0.6V38.6z M50.3,38.6h0.6V27.8h-0.6V38.6z
				 M60.3,38.6h0.6V27.8h-0.6V38.6z M66.9,38.6h0.6V27.8h-0.6V38.6z M71.3,38.6h0.6V27.8h-0.6V38.6z"/>
			<linearGradient id="Handrail_11_" gradientUnits="userSpaceOnUse" x1="4.6641" y1="27.7168" x2="75.5708" y2="27.7168">
				<stop  offset="0" style="stop-color:#A5A5A5"/>
				<stop  offset="4.758149e-02" style="stop-color:#B5B5B5"/>
				<stop  offset="0.1509" style="stop-color:#D3D3D3"/>
				<stop  offset="0.2395" style="stop-color:#E5E5E5"/>
				<stop  offset="0.3025" style="stop-color:#ECECEC"/>
				<stop  offset="0.4074" style="stop-color:#E8E8E8"/>
				<stop  offset="0.514" style="stop-color:#DCDCDC"/>
				<stop  offset="0.6214" style="stop-color:#C7C7C7"/>
				<stop  offset="0.7294" style="stop-color:#ABABAB"/>
				<stop  offset="0.8378" style="stop-color:#868686"/>
				<stop  offset="0.9452" style="stop-color:#5A5A5A"/>
				<stop  offset="1" style="stop-color:#404040"/>
			</linearGradient>
			
				<path id="Handrail_4_" fill="url(#Handrail_11_)" stroke="#8C8C91" stroke-width="0.75" stroke-linecap="round" stroke-linejoin="round" stroke-miterlimit="10" d="
				M76.2,28c0.2,0,0.3-0.1,0.3-0.3c0-0.2-0.1-0.3-0.3-0.3H2.8c-0.2,0-0.3,0.1-0.3,0.3c0,0.2,0.1,0.3,0.3,0.3H76.2z"/>
		</g>
		
			<polygon id="Fixing_Right_4_" fill="#646567" stroke="#646567" stroke-width="0.75" stroke-linecap="round" stroke-linejoin="round" stroke-miterlimit="10" points="
			68.8,40.9 61.7,45.3 61.7,47.9 73.1,40.9 		"/>
		
			<path id="Shadow_Platform_4_" fill="#646567" stroke="#646567" stroke-width="0.75" stroke-linecap="round" stroke-linejoin="round" stroke-miterlimit="10" d="
			M17.2,45.3V41h44.4v7c0,0-9.6-5.4-22.2-5.4C26.9,42.6,17.2,45.3,17.2,45.3z"/>
		<linearGradient id="Fixing_Front_8_" gradientUnits="userSpaceOnUse" x1="29.4165" y1="48.2754" x2="29.4165" y2="38.776">
			<stop  offset="0" style="stop-color:#FFFFFF"/>
			<stop  offset="1" style="stop-color:#7C7C7B"/>
		</linearGradient>
		
			<path id="Fixing_Front_4_" fill="url(#Fixing_Front_8_)" stroke="#8C8C91" stroke-width="0.75" stroke-linecap="round" stroke-linejoin="round" stroke-miterlimit="10" d="
			M5.8,40.9l11.4,7v-2.6l-7.1-4.4H5.8z M25.9,40.9h2.3l2.4,7h-2.3L25.9,40.9z M50.7,47.9h-2.3l2.4-7H53L50.7,47.9z"/>
		<g id="Fixing_Sides_4_">
			<linearGradient id="Right_8_" gradientUnits="userSpaceOnUse" x1="48.3931" y1="44.4233" x2="50.7749" y2="44.4233">
				<stop  offset="0" style="stop-color:#FFFFFF"/>
				<stop  offset="1" style="stop-color:#7C7C7B"/>
			</linearGradient>
			
				<polygon id="Right_4_" fill="url(#Right_8_)" stroke="#8C8C91" stroke-width="0.75" stroke-linecap="round" stroke-linejoin="round" stroke-miterlimit="10" points="
				48.4,47.9 48.4,45.6 49.9,40.9 50.8,40.9 			"/>
			<linearGradient id="Left_8_" gradientUnits="userSpaceOnUse" x1="28.1284" y1="44.4233" x2="30.5103" y2="44.4233">
				<stop  offset="0" style="stop-color:#9A9A99"/>
				<stop  offset="0.2954" style="stop-color:#919190"/>
				<stop  offset="0.7771" style="stop-color:#797978"/>
				<stop  offset="1" style="stop-color:#6B6B6A"/>
			</linearGradient>
			
				<polygon id="Left_4_" fill="url(#Left_8_)" stroke="#646567" stroke-width="0.75" stroke-linecap="round" stroke-linejoin="round" stroke-miterlimit="10" points="
				30.5,47.9 30.5,45.6 29,40.9 28.1,40.9 			"/>
		</g>
		
			<path id="Shadows_Fixing_4_" fill="#646567" stroke="#646567" stroke-width="0.75" stroke-linecap="round" stroke-linejoin="round" stroke-miterlimit="10" d="
			M7.9,42.2h4.3l-2.1-1.3H5.8L7.9,42.2z M25.9,40.9H29l0.4,1.2h-3.1L25.9,40.9z M52.6,42.2h-3.1l0.4-1.3H53L52.6,42.2z"/>
		<linearGradient id="Platform_8_" gradientUnits="userSpaceOnUse" x1="2.6084" y1="39.7964" x2="75.9152" y2="39.7964">
			<stop  offset="0" style="stop-color:#A5A5A5"/>
			<stop  offset="4.758149e-02" style="stop-color:#B5B5B5"/>
			<stop  offset="0.1509" style="stop-color:#D3D3D3"/>
			<stop  offset="0.2395" style="stop-color:#E5E5E5"/>
			<stop  offset="0.3025" style="stop-color:#ECECEC"/>
			<stop  offset="0.4074" style="stop-color:#E8E8E8"/>
			<stop  offset="0.514" style="stop-color:#DCDCDC"/>
			<stop  offset="0.6214" style="stop-color:#C7C7C7"/>
			<stop  offset="0.7294" style="stop-color:#ABABAB"/>
			<stop  offset="0.8378" style="stop-color:#868686"/>
			<stop  offset="0.9452" style="stop-color:#5A5A5A"/>
			<stop  offset="1" style="stop-color:#404040"/>
		</linearGradient>
		
			<rect id="Platform_4_" x="2.5" y="38.6" fill="url(#Platform_8_)" stroke="#8C8C91" stroke-width="0.75" stroke-linecap="round" stroke-linejoin="round" stroke-miterlimit="10" width="73.9" height="2.3"/>
	</g>
</g>
</svg>
