<?xml version="1.0" encoding="utf-8"?>

<!-- Copyright 2016 Siemens AG -->

<!-- Generator: Adobe Illustrator 16.0.4, SVG Export Plug-In . SVG Version: 6.00 Build 0)  -->
<!DOCTYPE svg PUBLIC "-//W3C//DTD SVG 1.1//EN" "http://www.w3.org/Graphics/SVG/1.1/DTD/svg11.dtd">
<svg version="1.1" id="Motor_4" xmlns="http://www.w3.org/2000/svg" xmlns:xlink="http://www.w3.org/1999/xlink" x="0px" y="0px"
	 width="300px" height="169px" viewBox="0 0 300 169" enable-background="new 0 0 300 169" xml:space="preserve">
<g id="Motor_Housing">
	<g id="Driving_Shaft">
		<linearGradient id="Shape_Bottom_3_" gradientUnits="userSpaceOnUse" x1="215.2378" y1="6.2432" x2="281.4023" y2="103.8975">
			<stop  offset="0" style="stop-color:#FFFFFF"/>
			<stop  offset="1" style="stop-color:#7C7C7B"/>
		</linearGradient>
		
			<rect id="Shape_Bottom_2_" x="247.3" y="88.2" fill="url(#Shape_Bottom_3_)" stroke="#8C8C91" stroke-width="0.75" stroke-linecap="round" stroke-linejoin="round" stroke-miterlimit="10" width="50.8" height="5.6"/>
		<linearGradient id="Shape_Front_3_" gradientUnits="userSpaceOnUse" x1="188.4888" y1="18.0815" x2="345.6697" y2="137.7719">
			<stop  offset="0" style="stop-color:#FFFFFF"/>
			<stop  offset="1" style="stop-color:#7C7C7B"/>
		</linearGradient>
		
			<rect id="Shape_Front_2_" x="247.3" y="76.1" fill="url(#Shape_Front_3_)" stroke="#8C8C91" stroke-width="0.75" stroke-linecap="round" stroke-linejoin="round" stroke-miterlimit="10" width="50.8" height="12.1"/>
		<linearGradient id="Shape_Top_3_" gradientUnits="userSpaceOnUse" x1="249.373" y1="48.355" x2="347.9701" y2="154.2129">
			<stop  offset="0" style="stop-color:#FFFFFF"/>
			<stop  offset="1" style="stop-color:#7C7C7B"/>
		</linearGradient>
		
			<rect id="Shape_Top_2_" x="247.3" y="70.6" fill="url(#Shape_Top_3_)" stroke="#8C8C91" stroke-width="0.75" stroke-linecap="round" stroke-linejoin="round" stroke-miterlimit="10" width="50.8" height="5.6"/>
		
			<line id="Reflection_Line_2_" fill="none" stroke="#FFFFFF" stroke-width="0.75" stroke-linejoin="round" stroke-miterlimit="10" x1="247.6" y1="76.1" x2="297.7" y2="76.1"/>
	</g>
	<g id="Rings_Driving_Shaft">
		<linearGradient id="Ring_Shaft_1_" gradientUnits="userSpaceOnUse" x1="245.1592" y1="62.2515" x2="245.1592" y2="85.5313">
			<stop  offset="1.998960e-02" style="stop-color:#424242"/>
			<stop  offset="0.2326" style="stop-color:#666666"/>
			<stop  offset="1" style="stop-color:#1A1A1A"/>
		</linearGradient>
		
			<polygon id="Ring_Shaft" fill="url(#Ring_Shaft_1_)" stroke="#575756" stroke-width="0.75" stroke-linecap="round" stroke-linejoin="round" stroke-miterlimit="10" points="
			247.3,99.4 243.1,101.5 243.1,62.8 247.3,64.9 		"/>
		<linearGradient id="Ring_Housing_1_" gradientUnits="userSpaceOnUse" x1="240.9668" y1="55.1528" x2="240.9668" y2="91.689">
			<stop  offset="1.998960e-02" style="stop-color:#424242"/>
			<stop  offset="0.2326" style="stop-color:#666666"/>
			<stop  offset="1" style="stop-color:#1A1A1A"/>
		</linearGradient>
		
			<rect id="Ring_Housing" x="238.9" y="57.1" fill="url(#Ring_Housing_1_)" stroke="#575756" stroke-width="0.75" stroke-linecap="round" stroke-linejoin="round" stroke-miterlimit="10" width="4.2" height="50.3"/>
	</g>
	<linearGradient id="Plate_Right_1_" gradientUnits="userSpaceOnUse" x1="236.7744" y1="13.2734" x2="236.7744" y2="145.9141">
		<stop  offset="0" style="stop-color:#A5A5A5"/>
		<stop  offset="8.870660e-02" style="stop-color:#B6B6B6"/>
		<stop  offset="0.2135" style="stop-color:#C8C8C8"/>
		<stop  offset="0.3025" style="stop-color:#CFCFCE"/>
		<stop  offset="0.4199" style="stop-color:#BDBDBC"/>
		<stop  offset="0.6555" style="stop-color:#8E8E8E"/>
		<stop  offset="0.9849" style="stop-color:#444444"/>
		<stop  offset="1" style="stop-color:#404040"/>
	</linearGradient>
	
		<polygon id="Plate_Right" fill="url(#Plate_Right_1_)" stroke="#646567" stroke-width="0.75" stroke-linecap="round" stroke-linejoin="round" stroke-miterlimit="10" points="
		238.9,148.4 234.7,151.5 234.7,12.8 238.9,15.9 	"/>
	<g id="Housing">
		<linearGradient id="Shape_Bottom_4_" gradientUnits="userSpaceOnUse" x1="-173.7969" y1="-46.5869" x2="163.2636" y2="150.4061">
			<stop  offset="0" style="stop-color:#FFFFFF"/>
			<stop  offset="1" style="stop-color:#7C7C7B"/>
		</linearGradient>
		
			<rect id="Shape_Bottom_1_" x="67" y="130.8" fill="url(#Shape_Bottom_4_)" stroke="#8C8C91" stroke-width="0.75" stroke-linecap="round" stroke-linejoin="round" stroke-miterlimit="10" width="167.7" height="24.7"/>
		<linearGradient id="Shape_Front_4_" gradientUnits="userSpaceOnUse" x1="-37.6934" y1="-46.749" x2="332.6838" y2="206.5308">
			<stop  offset="0" style="stop-color:#FFFFFF"/>
			<stop  offset="1" style="stop-color:#7C7C7B"/>
		</linearGradient>
		
			<rect id="Shape_Front_1_" x="67" y="33.6" fill="url(#Shape_Front_4_)" stroke="#8C8C91" stroke-width="0.75" stroke-linecap="round" stroke-linejoin="round" stroke-miterlimit="10" width="167.7" height="97.2"/>
		<linearGradient id="Shape_Top_4_" gradientUnits="userSpaceOnUse" x1="71.1938" y1="-64.2998" x2="408.3871" y2="297.7249">
			<stop  offset="0" style="stop-color:#FFFFFF"/>
			<stop  offset="1" style="stop-color:#7C7C7B"/>
		</linearGradient>
		
			<rect id="Shape_Top_1_" x="67" y="8.9" fill="url(#Shape_Top_4_)" stroke="#8C8C91" stroke-width="0.75" stroke-linecap="round" stroke-linejoin="round" stroke-miterlimit="10" width="167.7" height="24.7"/>
	</g>
	
		<line id="Reflection_Line" fill="none" stroke="#FFFFFF" stroke-width="0.75" stroke-linejoin="round" stroke-miterlimit="10" x1="2.8" y1="33.6" x2="234.3" y2="33.6"/>
	<g id="Cooling_Fins">
		<linearGradient id="Fins_Bottom_1_" gradientUnits="userSpaceOnUse" x1="31.9326" y1="49.5063" x2="151.6089" y2="144.4221">
			<stop  offset="0" style="stop-color:#666666"/>
			<stop  offset="1" style="stop-color:#1A1A1A"/>
		</linearGradient>
		<path id="Fins_Bottom" fill="url(#Fins_Bottom_1_)" d="M212.7,134.9H67v3.3h145.7V134.9z M212.7,141.5H67v3.3h145.7V141.5z
			 M212.7,148.1H67v3.3h145.7V148.1z M233,134.9h-16.8v3.3H233V134.9z M233,141.5h-16.8v3.3H233V141.5z M233,148.1h-16.8v3.3H233
			V148.1z"/>
		<linearGradient id="Fins_Front_1_" gradientUnits="userSpaceOnUse" x1="93.5869" y1="58.5498" x2="379.7101" y2="178.392">
			<stop  offset="0" style="stop-color:#666666"/>
			<stop  offset="1" style="stop-color:#1A1A1A"/>
		</linearGradient>
		<path id="Fins_Front" fill="url(#Fins_Front_1_)" d="M212.7,38.1H67v6.8h145.7V38.1z M212.7,51.6H67v6.8h145.7V51.6z M212.7,65.2
			H67V72h145.7V65.2z M212.7,78.8H67v6.8h145.7V78.8z M212.7,92.4H67v6.8h145.7V92.4z M212.7,105.9H67v6.8h145.7V105.9z
			 M212.7,119.5H67v6.8h145.7V119.5z M233,38.1h-16.8v6.8H233V38.1z M233,51.6h-16.8v6.8H233V51.6z M233,65.2h-16.8V72H233V65.2z
			 M233,78.8h-16.8v6.8H233V78.8z M233,92.4h-16.8v6.8H233V92.4z M233,105.9h-16.8v6.8H233V105.9z M233,119.5h-16.8v6.8H233V119.5z"
			/>
		<linearGradient id="Fins_Top_1_" gradientUnits="userSpaceOnUse" x1="174.7061" y1="28.4717" x2="271.1699" y2="58.1331">
			<stop  offset="0" style="stop-color:#9A9A99"/>
			<stop  offset="0.2954" style="stop-color:#919190"/>
			<stop  offset="0.7771" style="stop-color:#797978"/>
			<stop  offset="1" style="stop-color:#6B6B6A"/>
		</linearGradient>
		<path id="Fins_Top" fill="url(#Fins_Top_1_)" d="M212.7,15.9H67v-3.3h145.7V15.9z M212.7,19.2H67v3.3h145.7V19.2z M212.7,25.8H67
			v3.3h145.7V25.8z M233,12.6h-16.8v3.3H233V12.6z M233,19.2h-16.8v3.3H233V19.2z M233,25.8h-16.8v3.3H233V25.8z"/>
	</g>
	<g id="Cover_Left_Side">
		<linearGradient id="Shape_Bottom_5_" gradientUnits="userSpaceOnUse" x1="-128.3916" y1="56.1631" x2="68.6981" y2="165.1847">
			<stop  offset="0" style="stop-color:#FFFFFF"/>
			<stop  offset="1" style="stop-color:#7C7C7B"/>
		</linearGradient>
		
			<rect id="Shape_Bottom" x="2.4" y="130.8" fill="url(#Shape_Bottom_5_)" stroke="#8C8C91" stroke-width="0.75" stroke-linecap="round" stroke-linejoin="round" stroke-miterlimit="10" width="64.6" height="31.2"/>
		<linearGradient id="Shape_Front_5_" gradientUnits="userSpaceOnUse" x1="-159.7979" y1="-65.9204" x2="203.3741" y2="210.6283">
			<stop  offset="0" style="stop-color:#FFFFFF"/>
			<stop  offset="1" style="stop-color:#7C7C7B"/>
		</linearGradient>
		
			<rect id="Shape_Front" x="2.4" y="33.6" fill="url(#Shape_Front_5_)" stroke="#8C8C91" stroke-width="0.75" stroke-linecap="round" stroke-linejoin="round" stroke-miterlimit="10" width="64.6" height="97.2"/>
		<linearGradient id="Shape_Top_5_" gradientUnits="userSpaceOnUse" x1="-9.8838" y1="-20.0732" x2="257.4633" y2="208.1909">
			<stop  offset="0" style="stop-color:#FFFFFF"/>
			<stop  offset="1" style="stop-color:#7C7C7B"/>
		</linearGradient>
		
			<rect id="Shape_Top" x="2.4" y="2.4" fill="url(#Shape_Top_5_)" stroke="#8C8C91" stroke-width="0.75" stroke-linecap="round" stroke-linejoin="round" stroke-miterlimit="10" width="64.6" height="31.2"/>
		<g id="Shadows">
			
				<rect id="Shadow_Front" x="67" y="33.6" fill="#6A6A69" stroke="#6A6A69" stroke-width="0.75" stroke-linecap="round" stroke-linejoin="round" stroke-miterlimit="10" width="3.6" height="97.2"/>
			
				<rect id="Shadow_Bottom" x="67" y="130.8" fill="#575756" stroke="#575756" stroke-width="0.75" stroke-linecap="round" stroke-linejoin="round" stroke-miterlimit="10" width="3.6" height="24.7"/>
			
				<rect id="Shadow_Top" x="67" y="8.9" fill="#9A9A99" stroke="#9A9A99" stroke-width="0.75" stroke-linecap="round" stroke-linejoin="round" stroke-miterlimit="10" width="3.6" height="24.7"/>
		</g>
	</g>
</g>
<g id="Electric_Box">
	
		<polygon id="Shadow" fill="#6A6A69" stroke="#6A6A69" stroke-width="0.75" stroke-linecap="round" stroke-linejoin="round" stroke-miterlimit="10" points="
		99,121.6 173,121.6 173,45.4 180.1,62 180.1,127.4 102.6,127.4 	"/>
	<linearGradient id="Dark_Background_1_" gradientUnits="userSpaceOnUse" x1="97.8477" y1="16.2729" x2="118.6292" y2="54.0393">
		<stop  offset="0" style="stop-color:#666666"/>
		<stop  offset="1" style="stop-color:#1A1A1A"/>
	</linearGradient>
	
		<rect id="Dark_Background" x="95.3" y="42.8" fill="url(#Dark_Background_1_)" stroke="#575756" stroke-width="0.75" stroke-linecap="round" stroke-linejoin="round" stroke-miterlimit="10" width="77.7" height="78.8"/>
	<linearGradient id="Shape_Housing_2_" gradientUnits="userSpaceOnUse" x1="68.6279" y1="3.9111" x2="212.7129" y2="176.1206">
		<stop  offset="0" style="stop-color:#FFFFFF"/>
		<stop  offset="1" style="stop-color:#7C7C7B"/>
	</linearGradient>
	
		<rect id="Shape_Housing_1_" x="97.9" y="45.4" fill="url(#Shape_Housing_2_)" stroke="#646567" stroke-width="0.75" stroke-linecap="round" stroke-linejoin="round" stroke-miterlimit="10" width="72.5" height="73.5"/>
	<linearGradient id="Screws_2_" gradientUnits="userSpaceOnUse" x1="131.0464" y1="78.4111" x2="188.4322" y2="148.5194">
		<stop  offset="0" style="stop-color:#666666"/>
		<stop  offset="1" style="stop-color:#1A1A1A"/>
	</linearGradient>
	
		<path id="Screws_1_" fill="url(#Screws_2_)" stroke="#575756" stroke-width="0.75" stroke-linecap="round" stroke-linejoin="round" stroke-miterlimit="10" d="
		M104.4,49.8c0,1.2-1,2.2-2.2,2.2s-2.2-1-2.2-2.2c0-1.2,1-2.2,2.2-2.2S104.4,48.5,104.4,49.8z M166,47.6c-1.2,0-2.2,1-2.2,2.2
		c0,1.2,1,2.2,2.2,2.2s2.2-1,2.2-2.2C168.2,48.5,167.2,47.6,166,47.6z M102.2,112.3c-1.2,0-2.2,1-2.2,2.2c0,1.2,1,2.2,2.2,2.2
		s2.2-1,2.2-2.2C104.4,113.3,103.4,112.3,102.2,112.3z M166,112.3c-1.2,0-2.2,1-2.2,2.2c0,1.2,1,2.2,2.2,2.2s2.2-1,2.2-2.2
		C168.2,113.3,167.2,112.3,166,112.3z"/>
	
		<polyline id="Reflection_Line_1_" fill="none" stroke="#FFFFFF" stroke-width="0.75" stroke-linecap="round" stroke-linejoin="round" stroke-miterlimit="10" points="
		105.8,111.5 105.8,52.7 162.4,52.7 	"/>
	
		<polyline id="Shadow_Line_1_" fill="none" stroke="#646567" stroke-width="0.75" stroke-linecap="round" stroke-linejoin="round" stroke-miterlimit="10" points="
		162.4,52.7 162.4,111.5 105.8,111.5 	"/>
</g>
<g id="Stands">
	<linearGradient id="Plates_1_" gradientUnits="userSpaceOnUse" x1="140.9727" y1="117.2129" x2="145.776" y2="183.4526">
		<stop  offset="0" style="stop-color:#666666"/>
		<stop  offset="1" style="stop-color:#1A1A1A"/>
	</linearGradient>
	
		<path id="Plates" fill="url(#Plates_1_)" stroke="#575756" stroke-width="0.75" stroke-linecap="round" stroke-linejoin="round" stroke-miterlimit="10" d="
		M121.9,166.6H72.2V159h49.7V166.6z M216.3,159h-49.7v7.7h49.7V159z"/>
	
		<linearGradient id="Connection_Motor_1_" gradientUnits="userSpaceOnUse" x1="144.2788" y1="163.4619" x2="144.2788" y2="152.0445">
		<stop  offset="0" style="stop-color:#666666"/>
		<stop  offset="1" style="stop-color:#1A1A1A"/>
	</linearGradient>
	
		<path id="Connection_Motor" fill="url(#Connection_Motor_1_)" stroke="#575756" stroke-width="0.75" stroke-linecap="round" stroke-linejoin="round" stroke-miterlimit="10" d="
		M118.7,158.8H95.3v-6h23.5V158.8z M193.3,152.8h-23.5v6h23.5V152.8z"/>
</g>
</svg>
