<?xml version="1.0" encoding="utf-8"?>

<!-- Copyright 2016 Siemens AG -->

<!-- Generator: Adobe Illustrator 16.0.4, SVG Export Plug-In . SVG Version: 6.00 Build 0)  -->
<!DOCTYPE svg PUBLIC "-//W3C//DTD SVG 1.1//EN" "http://www.w3.org/Graphics/SVG/1.1/DTD/svg11.dtd">
<svg version="1.1" id="Commercial" xmlns="http://www.w3.org/2000/svg" xmlns:xlink="http://www.w3.org/1999/xlink" x="0px" y="0px"
	 width="300px" height="199px" viewBox="0 0 300 199" enable-background="new 0 0 300 199" xml:space="preserve">
<g id="High_Building_Middle">
	
		<rect id="Stripes" x="152.7" y="2.4" fill="#424242" stroke="#646567" stroke-width="0.75" stroke-miterlimit="10" width="28.1" height="194.2"/>
	<linearGradient id="Windows_3_" gradientUnits="userSpaceOnUse" x1="161.5801" y1="57.897" x2="171.08" y2="133.8969">
		<stop  offset="0" style="stop-color:#9A9A99"/>
		<stop  offset="0.2954" style="stop-color:#919190"/>
		<stop  offset="0.7771" style="stop-color:#797978"/>
		<stop  offset="1" style="stop-color:#6B6B6A"/>
	</linearGradient>
	<path id="Windows_2_" fill="url(#Windows_3_)" stroke="#646567" stroke-width="0.75" stroke-miterlimit="10" d="M152.7,196.6h-21.4
		V2.4h21.4V196.6z M177.5,2.4h-21.4v194.2h21.4V2.4z M202.3,2.4h-21.4v194.2h21.4V2.4z"/>
	<linearGradient id="Left_Side_1_" gradientUnits="userSpaceOnUse" x1="29.4683" y1="-28.2295" x2="140.1958" y2="97.0538">
		<stop  offset="0" style="stop-color:#575756"/>
		<stop  offset="1.586480e-02" style="stop-color:#5D5C5C"/>
		<stop  offset="0.1171" style="stop-color:#797878"/>
		<stop  offset="0.2183" style="stop-color:#8D8D8C"/>
		<stop  offset="0.3189" style="stop-color:#999998"/>
		<stop  offset="0.4178" style="stop-color:#9D9D9C"/>
		<stop  offset="0.5402" style="stop-color:#979696"/>
		<stop  offset="0.7122" style="stop-color:#848484"/>
		<stop  offset="0.9127" style="stop-color:#676666"/>
		<stop  offset="1" style="stop-color:#575756"/>
	</linearGradient>
	<polygon id="Left_Side" fill="url(#Left_Side_1_)" stroke="#646567" stroke-width="0.75" stroke-miterlimit="10" points="
		107.1,26.6 107.1,139.8 128.5,146.5 128.5,3.7 	"/>
</g>
<g id="Building_Right">
	<linearGradient id="Windows_4_" gradientUnits="userSpaceOnUse" x1="236.2305" y1="0.75" x2="236.2305" y2="131.2964">
		<stop  offset="0" style="stop-color:#575756"/>
		<stop  offset="1.586480e-02" style="stop-color:#5D5C5C"/>
		<stop  offset="0.1171" style="stop-color:#797878"/>
		<stop  offset="0.2183" style="stop-color:#8D8D8C"/>
		<stop  offset="0.3189" style="stop-color:#999998"/>
		<stop  offset="0.4178" style="stop-color:#9D9D9C"/>
		<stop  offset="0.5402" style="stop-color:#979696"/>
		<stop  offset="0.7122" style="stop-color:#848484"/>
		<stop  offset="0.9127" style="stop-color:#676666"/>
		<stop  offset="1" style="stop-color:#575756"/>
	</linearGradient>
	
		<rect id="Windows_1_" x="188.2" y="95.5" fill="url(#Windows_4_)" stroke="#646567" stroke-width="0.75" stroke-miterlimit="10" width="96.1" height="101.2"/>
	<linearGradient id="Aluminum_Facade_2_" gradientUnits="userSpaceOnUse" x1="219.5576" y1="127.0234" x2="307.1168" y2="172.8875">
		<stop  offset="0" style="stop-color:#FFFFFF"/>
		<stop  offset="1" style="stop-color:#7C7C7B"/>
	</linearGradient>
	<path id="Aluminum_Facade_1_" fill="url(#Aluminum_Facade_2_)" stroke="#8C8C91" stroke-width="0.75" stroke-miterlimit="10" d="
		M297.6,171.6H188.2v11.5h109.4V171.6z M297.6,152.5H188.2V164h109.4V152.5z M297.6,133.5H188.2V145h109.4V133.5z M297.6,114.5
		H188.2V126h109.4V114.5z M297.6,95.5H188.2v11.5h109.4V95.5z"/>
</g>
<g id="Building_Left">
	<polygon id="Windows" fill="#424242" stroke="#646567" stroke-width="0.75" stroke-miterlimit="10" points="128.5,196.6 
		128.5,151.6 68.3,133.8 9.1,133.8 9.1,196.6 	"/>
	<linearGradient id="Aluminum_Facade_3_" gradientUnits="userSpaceOnUse" x1="52.0518" y1="159.9277" x2="75.3804" y2="159.9277">
		<stop  offset="0" style="stop-color:#FFFFFF"/>
		<stop  offset="1" style="stop-color:#7C7C7B"/>
	</linearGradient>
	<path id="Aluminum_Facade" fill="url(#Aluminum_Facade_3_)" stroke="#8C8C91" stroke-width="0.75" stroke-miterlimit="10" d="
		M68.3,138.8H2.4v-8.6h65.9l60.2,19.1v6.5L68.3,138.8z M128.5,167.1v-6.5l-60.2-16.1H2.4v8.6h65.9L128.5,167.1z M128.5,178.4v-6.6
		l-60.2-13.1H2.4v8.6h65.9L128.5,178.4z M128.5,189.6v-6.6L68.3,173H2.4v8.6h65.9L128.5,189.6z"/>
</g>
</svg>
