<?xml version="1.0" encoding="utf-8"?>

<!-- Copyright 2016 Siemens AG -->

<!-- Generator: Adobe Illustrator 16.0.4, SVG Export Plug-In . SVG Version: 6.00 Build 0)  -->
<!DOCTYPE svg PUBLIC "-//W3C//DTD SVG 1.1//EN" "http://www.w3.org/Graphics/SVG/1.1/DTD/svg11.dtd">
<svg version="1.1" id="Factory" xmlns="http://www.w3.org/2000/svg" xmlns:xlink="http://www.w3.org/1999/xlink" x="0px" y="0px"
	 width="300px" height="122px" viewBox="0 0 300 122" enable-background="new 0 0 300 122" xml:space="preserve">
<g id="Factory_Building_1_">
	<linearGradient id="Structure_2_" gradientUnits="userSpaceOnUse" x1="130.7217" y1="17.8057" x2="305.4332" y2="121.8365">
		<stop  offset="0" style="stop-color:#FFFFFF"/>
		<stop  offset="1" style="stop-color:#7C7C7B"/>
	</linearGradient>
	
		<rect id="Structure_6_" x="113.4" y="5.1" fill="url(#Structure_2_)" stroke="#8C8C91" stroke-width="0.75" stroke-miterlimit="10" width="184.2" height="114.6"/>
	<path id="Reflection_Lines" fill="none" stroke="#FFFFFF" stroke-width="0.75" stroke-miterlimit="10" d="M117.7,5.4v113.8
		 M121.4,5.4v113.8 M125.2,5.4v113.8 M129,5.4v113.8 M132.7,5.4v113.8 M136.5,5.4v113.8 M140.3,5.4v113.8 M144,5.4v113.8 M147.8,5.4
		v113.8 M151.6,5.4v113.8 M155.3,5.4v113.8 M159.1,5.4v113.8 M162.9,5.4v113.8 M166.6,5.4v113.8 M170.4,5.4v113.8 M174.2,5.4v113.8
		 M177.9,5.4v113.8 M181.7,5.4v113.8 M185.5,5.4v113.8 M189.2,5.4v113.8 M193,5.4v113.8 M196.8,5.4v113.8 M200.5,5.4v113.8
		 M204.3,5.4v113.8 M208.1,5.4v113.8 M211.8,5.4v113.8 M215.6,5.4v113.8 M219.4,5.4v113.8 M223.1,5.4v113.8 M226.9,5.4v113.8
		 M230.6,5.4v113.8 M234.4,5.4v113.8 M238.2,5.4v113.8 M241.9,5.4v113.8 M245.7,5.4v113.8 M249.5,5.4v113.8 M253.2,5.4v113.8
		 M257,5.4v113.8 M260.8,5.4v113.8 M264.5,5.4v113.8 M268.3,5.4v113.8 M272.1,5.4v113.8 M275.8,5.4v113.8 M279.6,5.4v113.8
		 M283.4,5.4v113.8 M287.1,5.4v113.8 M290.9,5.4v113.8 M294.7,5.4v113.8"/>
	<path id="Sheet_Metal_Facade_2_" fill="none" stroke="#AFAFAE" stroke-width="0.75" stroke-miterlimit="10" d="M116.9,5.4v113.8
		 M120.7,5.4v113.8 M124.4,5.4v113.8 M128.2,5.4v113.8 M132,5.4v113.8 M135.7,5.4v113.8 M139.5,5.4v113.8 M143.3,5.4v113.8 M147,5.4
		v113.8 M150.8,5.4v113.8 M154.6,5.4v113.8 M158.3,5.4v113.8 M162.1,5.4v113.8 M165.9,5.4v113.8 M169.6,5.4v113.8 M173.4,5.4v113.8
		 M177.2,5.4v113.8 M180.9,5.4v113.8 M184.7,5.4v113.8 M188.5,5.4v113.8 M192.2,5.4v113.8 M196,5.4v113.8 M199.8,5.4v113.8
		 M203.5,5.4v113.8 M207.3,5.4v113.8 M211.1,5.4v113.8 M214.8,5.4v113.8 M218.6,5.4v113.8 M222.4,5.4v113.8 M226.1,5.4v113.8
		 M229.9,5.4v113.8 M233.7,5.4v113.8 M237.4,5.4v113.8 M241.2,5.4v113.8 M245,5.4v113.8 M248.7,5.4v113.8 M252.5,5.4v113.8
		 M256.3,5.4v113.8 M260,5.4v113.8 M263.8,5.4v113.8 M267.6,5.4v113.8 M271.3,5.4v113.8 M275.1,5.4v113.8 M278.9,5.4v113.8
		 M282.6,5.4v113.8 M286.4,5.4v113.8 M290.2,5.4v113.8 M293.9,5.4v113.8"/>
	<linearGradient id="Company_Sign_1_" gradientUnits="userSpaceOnUse" x1="255.7881" y1="8.8091" x2="275.7292" y2="28.7502">
		<stop  offset="0" style="stop-color:#F4F4F4"/>
		<stop  offset="1" style="stop-color:#DEDEDE"/>
	</linearGradient>
	
		<rect id="Company_Sign_2_" x="239.9" y="12.9" fill="url(#Company_Sign_1_)" stroke="#646567" stroke-width="0.75" stroke-miterlimit="10" width="53.1" height="13.3"/>
	<linearGradient id="Roof_3_" gradientUnits="userSpaceOnUse" x1="88.3936" y1="3.6943" x2="335.3766" y2="3.6943">
		<stop  offset="0" style="stop-color:#575756"/>
		<stop  offset="1.586480e-02" style="stop-color:#5D5C5C"/>
		<stop  offset="0.1171" style="stop-color:#797878"/>
		<stop  offset="0.2183" style="stop-color:#8D8D8C"/>
		<stop  offset="0.3189" style="stop-color:#999998"/>
		<stop  offset="0.4178" style="stop-color:#9D9D9C"/>
		<stop  offset="0.5402" style="stop-color:#979696"/>
		<stop  offset="0.7122" style="stop-color:#848484"/>
		<stop  offset="0.9127" style="stop-color:#676666"/>
		<stop  offset="1" style="stop-color:#575756"/>
	</linearGradient>
	
		<rect id="Roof_1_" x="113.4" y="2.3" fill="url(#Roof_3_)" stroke="#646567" stroke-width="0.75" stroke-miterlimit="10" width="184.2" height="2.7"/>
</g>
<g id="Rolling_Gate_Right_2_">
	<linearGradient id="Gate_Structure_1_" gradientUnits="userSpaceOnUse" x1="251.7207" y1="99.6738" x2="269.5803" y2="136.2051">
		<stop  offset="0" style="stop-color:#FFFFFF"/>
		<stop  offset="1" style="stop-color:#7C7C7B"/>
	</linearGradient>
	<path id="Gate_Structure_5_" fill="url(#Gate_Structure_1_)" stroke="#646567" stroke-width="0.75" stroke-miterlimit="10" d="
		M217,67.5v9h63.4v-9H217z M217,76.5v9h63.4v-9H217z M217,85.5v9h63.4v-9H217z M217,94.5v9h63.4v-9H217z M280.5,119.6H217v-16.2
		h63.4V119.6z"/>
	<linearGradient id="Windows_1_" gradientUnits="userSpaceOnUse" x1="248.7373" y1="131.7998" x2="248.7373" y2="88.8279">
		<stop  offset="0" style="stop-color:#575756"/>
		<stop  offset="1.586480e-02" style="stop-color:#5D5C5C"/>
		<stop  offset="0.1171" style="stop-color:#797878"/>
		<stop  offset="0.2183" style="stop-color:#8D8D8C"/>
		<stop  offset="0.3189" style="stop-color:#999998"/>
		<stop  offset="0.4178" style="stop-color:#9D9D9C"/>
		<stop  offset="0.5402" style="stop-color:#979696"/>
		<stop  offset="0.7122" style="stop-color:#848484"/>
		<stop  offset="0.9127" style="stop-color:#676666"/>
		<stop  offset="1" style="stop-color:#575756"/>
	</linearGradient>
	<path id="Windows_19_" fill="url(#Windows_1_)" stroke="#646567" stroke-width="0.75" stroke-miterlimit="10" d="M237.7,75.1h-19.3
		v-6.1h19.3V75.1z M258.4,75.1h-19.3v-6.1h19.3V75.1z M279,75.1h-19.3v-6.1H279V75.1z M218.4,84.1v-6.1h19.3v6.1H218.4z M239.1,84.1
		v-6.1h19.3v6.1H239.1z M259.8,84.1v-6.1H279v6.1H259.8z M218.4,93.1v-6.1h19.3v6.1H218.4z M239.1,93.1v-6.1h19.3v6.1H239.1z
		 M259.8,93.1v-6.1H279v6.1H259.8z M218.4,102v-6.1h19.3v6.1H218.4z M239.1,102v-6.1h19.3v6.1H239.1z M259.8,102v-6.1H279v6.1H259.8
		z"/>
	<path id="Gate_Elements_5_" fill="none" stroke="#8C8C91" stroke-width="0.75" stroke-miterlimit="10" d="M217.5,106.2H280
		 M217.5,108.9H280 M217.5,111.5H280 M217.5,114.2H280 M217.5,116.9H280"/>
	<linearGradient id="Frame_1_" gradientUnits="userSpaceOnUse" x1="259.8682" y1="107.8477" x2="290.1738" y2="151.4697">
		<stop  offset="0" style="stop-color:#FFFFFF"/>
		<stop  offset="1" style="stop-color:#7C7C7B"/>
	</linearGradient>
	<polygon id="Frame_5_" fill="url(#Frame_1_)" stroke="#646567" stroke-width="0.75" stroke-miterlimit="10" points="213.5,64 
		213.5,119.6 217,119.6 217,67.5 280.5,67.5 280.5,119.6 284,119.6 284,64 	"/>
</g>
<g id="Rolling_Gate_Open_2_">
	<linearGradient id="Gate_Structure_2_" gradientUnits="userSpaceOnUse" x1="168.4863" y1="87.9976" x2="181.9709" y2="115.5798">
		<stop  offset="0" style="stop-color:#FFFFFF"/>
		<stop  offset="1" style="stop-color:#7C7C7B"/>
	</linearGradient>
	<path id="Gate_Structure_4_" fill="url(#Gate_Structure_2_)" stroke="#646567" stroke-width="0.75" stroke-miterlimit="10" d="
		M134.5,67.5v6.6H198v-6.6H134.5z M134.5,74.1v9H198v-9H134.5z M198,99.3h-63.4V83.1H198V99.3z"/>
	<linearGradient id="Windows_2_" gradientUnits="userSpaceOnUse" x1="166.2334" y1="75.4824" x2="166.2334" y2="101.2098">
		<stop  offset="0" style="stop-color:#575756"/>
		<stop  offset="1.586480e-02" style="stop-color:#5D5C5C"/>
		<stop  offset="0.1171" style="stop-color:#797878"/>
		<stop  offset="0.2183" style="stop-color:#8D8D8C"/>
		<stop  offset="0.3189" style="stop-color:#999998"/>
		<stop  offset="0.4178" style="stop-color:#9D9D9C"/>
		<stop  offset="0.5402" style="stop-color:#979696"/>
		<stop  offset="0.7122" style="stop-color:#848484"/>
		<stop  offset="0.9127" style="stop-color:#676666"/>
		<stop  offset="1" style="stop-color:#575756"/>
	</linearGradient>
	<path id="Windows_18_" fill="url(#Windows_2_)" stroke="#646567" stroke-width="0.75" stroke-miterlimit="10" d="M135.9,72.7v-3.8
		h19.3v3.8H135.9z M156.6,72.7v-3.8h19.3v3.8H156.6z M177.3,72.7v-3.8h19.3v3.8H177.3z M135.9,81.7v-6.1h19.3v6.1H135.9z
		 M156.6,81.7v-6.1h19.3v6.1H156.6z M177.3,81.7v-6.1h19.3v6.1H177.3z"/>
	<path id="Gate_Elements_4_" fill="none" stroke="#8C8C91" stroke-width="0.75" stroke-miterlimit="10" d="M135,85.8h62.5 M135,88.5
		h62.5 M135,91.2h62.5 M135,93.9h62.5 M135,96.6h62.5"/>
	<linearGradient id="Indoor_1_" gradientUnits="userSpaceOnUse" x1="166.2334" y1="151.2188" x2="166.2334" y2="108.3097">
		<stop  offset="0" style="stop-color:#FFFFFF"/>
		<stop  offset="1" style="stop-color:#424242"/>
	</linearGradient>
	
		<rect id="Indoor_2_" x="134.5" y="99.3" fill="url(#Indoor_1_)" stroke="#646567" stroke-width="0.75" stroke-miterlimit="10" width="63.4" height="20.4"/>
	<linearGradient id="Frame_2_" gradientUnits="userSpaceOnUse" x1="160.9932" y1="85.6592" x2="225.0849" y2="160.4984">
		<stop  offset="0" style="stop-color:#FFFFFF"/>
		<stop  offset="1" style="stop-color:#7C7C7B"/>
	</linearGradient>
	<polygon id="Frame_4_" fill="url(#Frame_2_)" stroke="#646567" stroke-width="0.75" stroke-miterlimit="10" points="131,64 
		131,119.6 134.5,119.6 134.5,67.5 198,67.5 198,119.6 201.5,119.6 201.5,64 	"/>
</g>
<g id="Office_2_">
	<linearGradient id="Structure_3_" gradientUnits="userSpaceOnUse" x1="59.0068" y1="90.6318" x2="135.6731" y2="192.6315">
		<stop  offset="0" style="stop-color:#FFFFFF"/>
		<stop  offset="1" style="stop-color:#424242"/>
	</linearGradient>
	
		<rect id="Structure_1_" x="2.5" y="58.8" fill="url(#Structure_3_)" stroke="#646567" stroke-width="0.75" stroke-miterlimit="10" width="110.9" height="60.8"/>
	<linearGradient id="Roof_4_" gradientUnits="userSpaceOnUse" x1="-5.502" y1="-28.457" x2="105.7356" y2="122.1356">
		<stop  offset="0" style="stop-color:#575756"/>
		<stop  offset="1.586480e-02" style="stop-color:#5D5C5C"/>
		<stop  offset="0.1171" style="stop-color:#797878"/>
		<stop  offset="0.2183" style="stop-color:#8D8D8C"/>
		<stop  offset="0.3189" style="stop-color:#999998"/>
		<stop  offset="0.4178" style="stop-color:#9D9D9C"/>
		<stop  offset="0.5402" style="stop-color:#979696"/>
		<stop  offset="0.7122" style="stop-color:#848484"/>
		<stop  offset="0.9127" style="stop-color:#676666"/>
		<stop  offset="1" style="stop-color:#575756"/>
	</linearGradient>
	
		<rect id="Roof_2_" x="2.5" y="56.1" fill="url(#Roof_4_)" stroke="#646567" stroke-width="0.75" stroke-miterlimit="10" width="110.9" height="2.7"/>
	<polygon id="Shadow_6_" fill="#646567" stroke="#646567" stroke-width="0.75" stroke-miterlimit="10" points="113.7,56.9 
		113.7,119.6 118.9,119.6 118.9,64.2 	"/>
	
		<linearGradient id="Windows_Second_Floor_2_" gradientUnits="userSpaceOnUse" x1="57.5493" y1="96.2539" x2="57.5493" y2="72.4867">
		<stop  offset="0" style="stop-color:#575756"/>
		<stop  offset="1.586480e-02" style="stop-color:#5D5C5C"/>
		<stop  offset="0.1171" style="stop-color:#797878"/>
		<stop  offset="0.2183" style="stop-color:#8D8D8C"/>
		<stop  offset="0.3189" style="stop-color:#999998"/>
		<stop  offset="0.4178" style="stop-color:#9D9D9C"/>
		<stop  offset="0.5402" style="stop-color:#979696"/>
		<stop  offset="0.7122" style="stop-color:#848484"/>
		<stop  offset="0.9127" style="stop-color:#676666"/>
		<stop  offset="1" style="stop-color:#575756"/>
	</linearGradient>
	
		<path id="Windows_Second_Floor_1_" fill="url(#Windows_Second_Floor_2_)" stroke="#646567" stroke-width="0.75" stroke-miterlimit="10" d="
		M68.9,67.8H51.5v-5h17.5V67.8z M68.9,69.8H51.5v10.8h17.5V69.8z M89,62.7H71.5v5H89V62.7z M89,69.8H71.5v10.8H89V69.8z M109.1,62.7
		H91.6v5h17.5V62.7z M109.1,69.8H91.6v10.8h17.5V69.8z M23.5,62.7H6v5h17.5V62.7z M23.5,69.8H6v10.8h17.5V69.8z M43.6,62.7H26.1v5
		h17.5V62.7z M43.6,69.8H26.1v10.8h17.5V69.8z"/>
	
		<linearGradient id="Windows_First_Floor_2_" gradientUnits="userSpaceOnUse" x1="57.5493" y1="113.8735" x2="57.5493" y2="90.4772">
		<stop  offset="0" style="stop-color:#575756"/>
		<stop  offset="1.586480e-02" style="stop-color:#5D5C5C"/>
		<stop  offset="0.1171" style="stop-color:#797878"/>
		<stop  offset="0.2183" style="stop-color:#8D8D8C"/>
		<stop  offset="0.3189" style="stop-color:#999998"/>
		<stop  offset="0.4178" style="stop-color:#9D9D9C"/>
		<stop  offset="0.5402" style="stop-color:#979696"/>
		<stop  offset="0.7122" style="stop-color:#848484"/>
		<stop  offset="0.9127" style="stop-color:#676666"/>
		<stop  offset="1" style="stop-color:#575756"/>
	</linearGradient>
	
		<path id="Windows_First_Floor_1_" fill="url(#Windows_First_Floor_2_)" stroke="#646567" stroke-width="0.75" stroke-miterlimit="10" d="
		M68.9,90.9H51.5v-5h17.5V90.9z M68.9,92.9H51.5v10.8h17.5V92.9z M89,85.9H71.5v5H89V85.9z M89,92.9H71.5v10.8H89V92.9z M109.1,85.9
		H91.6v5h17.5V85.9z M109.1,92.9H91.6v10.8h17.5V92.9z M23.5,85.9H6v5h17.5V85.9z M23.5,92.9H6v10.8h17.5V92.9z M43.6,85.9H26.1v5
		h17.5V85.9z M43.6,92.9H26.1v10.8h17.5V92.9z"/>
</g>
</svg>
