<?xml version="1.0" encoding="utf-8"?>

<!-- Copyright 2016 Siemens AG -->

<!-- Generator: Adobe Illustrator 16.0.4, SVG Export Plug-In . SVG Version: 6.00 Build 0)  -->
<!DOCTYPE svg PUBLIC "-//W3C//DTD SVG 1.1//EN" "http://www.w3.org/Graphics/SVG/1.1/DTD/svg11.dtd">
<svg version="1.1" id="Outdoor_Enclosure" xmlns="http://www.w3.org/2000/svg" xmlns:xlink="http://www.w3.org/1999/xlink" x="0px"
	 y="0px" width="300px" height="273px" viewBox="0 0 300 273" enable-background="new 0 0 300 273" xml:space="preserve">
<g id="Enclosure_Structure_1_">
	<g id="Base_1_">
		<linearGradient id="Shape_1_" gradientUnits="userSpaceOnUse" x1="-200.9707" y1="76.623" x2="135.5291" y2="253.1231">
			<stop  offset="0" style="stop-color:#9A9A99"/>
			<stop  offset="0.2954" style="stop-color:#919190"/>
			<stop  offset="0.7771" style="stop-color:#797978"/>
			<stop  offset="1" style="stop-color:#6B6B6A"/>
		</linearGradient>
		
			<rect id="Shape_7_" x="7.7" y="250.8" fill="url(#Shape_1_)" stroke="#646567" stroke-width="0.75" stroke-miterlimit="10" width="284.7" height="19.8"/>
		
			<rect id="Shadow_3_" x="7.7" y="250.8" fill="#575756" stroke="#575756" stroke-width="0.75" stroke-miterlimit="10" width="284.7" height="4.1"/>
	</g>
	<linearGradient id="Shape_Enclosure_1_" gradientUnits="userSpaceOnUse" x1="-37.5581" y1="-28.6484" x2="547.6035" y2="474.3858">
		<stop  offset="0" style="stop-color:#FFFFFF"/>
		<stop  offset="1" style="stop-color:#7C7C7B"/>
	</linearGradient>
	
		<rect id="Shape_Enclosure" x="2.3" y="14.3" fill="url(#Shape_Enclosure_1_)" stroke="#8C8C91" stroke-width="0.75" stroke-linecap="round" stroke-linejoin="round" stroke-miterlimit="10" width="295.3" height="236.5"/>
	<path id="Reflection_Lines_3_" fill="none" stroke="#FFFFFF" stroke-width="0.75" stroke-miterlimit="10" d="M20.5,250.2V14.9
		 M37.8,250.2V14.9 M55.2,250.2V14.9 M72.6,250.2V14.9 M90,250.2V14.9 M107.3,250.2V14.9 M124.7,250.2V14.9 M142.1,250.2V14.9
		 M159.4,250.2V14.9 M176.8,250.2V14.9 M194.2,250.2V14.9 M211.6,250.2V14.9 M228.9,250.2V14.9 M246.3,250.2V14.9 M263.7,250.2V14.9
		 M281,250.2V14.9"/>
	<path id="Sheet_Facade_1_" fill="none" stroke="#646567" stroke-width="0.75" stroke-miterlimit="10" d="M19.7,250.2V14.9
		 M37.1,250.2V14.9 M54.4,250.2V14.9 M71.8,250.2V14.9 M89.2,250.2V14.9 M106.6,250.2V14.9 M123.9,250.2V14.9 M141.3,250.2V14.9
		 M158.7,250.2V14.9 M176.1,250.2V14.9 M193.4,250.2V14.9 M210.8,250.2V14.9 M228.2,250.2V14.9 M245.5,250.2V14.9 M262.9,250.2V14.9
		 M280.3,250.2V14.9"/>
	<linearGradient id="Roof_1_" gradientUnits="userSpaceOnUse" x1="-289.2993" y1="-76.1167" x2="493.804" y2="74.506">
		<stop  offset="0" style="stop-color:#FFFFFF"/>
		<stop  offset="1" style="stop-color:#7C7C7B"/>
	</linearGradient>
	
		<rect id="Roof" x="2.3" y="2.4" fill="url(#Roof_1_)" stroke="#8C8C91" stroke-width="0.75" stroke-linecap="round" stroke-linejoin="round" stroke-miterlimit="10" width="295.3" height="11.9"/>
</g>
<g id="Door_3_">
	<linearGradient id="Shape_Door_2_" gradientUnits="userSpaceOnUse" x1="-48.9448" y1="-19.3628" x2="287.0366" y2="280.6417">
		<stop  offset="0" style="stop-color:#FFFFFF"/>
		<stop  offset="1" style="stop-color:#7C7C7B"/>
	</linearGradient>
	
		<rect id="Shape_Door_1_" x="111.3" y="73.2" fill="url(#Shape_Door_2_)" stroke="#646567" stroke-width="0.75" stroke-linecap="round" stroke-linejoin="round" stroke-miterlimit="10" width="77.2" height="170"/>
	<g id="Door_Lock_1_">
		
			<rect id="Shape_6_" x="116.5" y="150.6" fill="#575756" stroke="#646567" stroke-width="0.75" stroke-linecap="round" stroke-linejoin="round" stroke-miterlimit="10" width="5" height="20.1"/>
		<g id="Lock_1_">
			<polygon id="Bottom_1_" fill="#DEDEDE" points="117.6,155.1 117.6,161.1 120.4,161.1 120.4,155.1 119,155.1 			"/>
			<circle id="Top_4_" fill="#DEDEDE" cx="119" cy="153.7" r="1.4"/>
		</g>
	</g>
	<linearGradient id="Hinges_2_" gradientUnits="userSpaceOnUse" x1="186.3247" y1="158.2305" x2="189.9154" y2="158.2305">
		<stop  offset="0" style="stop-color:#575756"/>
		<stop  offset="1.586480e-02" style="stop-color:#5D5C5C"/>
		<stop  offset="0.1171" style="stop-color:#797878"/>
		<stop  offset="0.2183" style="stop-color:#8D8D8C"/>
		<stop  offset="0.3189" style="stop-color:#999998"/>
		<stop  offset="0.4178" style="stop-color:#9D9D9C"/>
		<stop  offset="0.5402" style="stop-color:#979696"/>
		<stop  offset="0.7122" style="stop-color:#848484"/>
		<stop  offset="0.9127" style="stop-color:#676666"/>
		<stop  offset="1" style="stop-color:#575756"/>
	</linearGradient>
	
		<path id="Hinges_1_" fill="url(#Hinges_2_)" stroke="#646567" stroke-width="0.75" stroke-linecap="round" stroke-linejoin="round" stroke-miterlimit="10" d="
		M190.9,103.4h-4.6V85.3h4.6V103.4z M190.9,213.1h-4.6v18.1h4.6V213.1z M190.9,151.7h-4.6v18.1h4.6V151.7z"/>
	
		<path id="Reflection_Lines_2_" fill="none" stroke="#FFFFFF" stroke-width="0.75" stroke-linejoin="round" stroke-miterlimit="10" d="
		M126.3,88.8h12.6 M144.5,88.8h12.6 M162.6,88.8h12.6 M126.3,92.5h12.6 M144.5,92.5h12.6 M162.6,92.5h12.6 M126.3,96.3h12.6
		 M144.5,96.3h12.6 M162.6,96.3h12.6 M126.3,100h12.6 M144.5,100h12.6 M162.6,100h12.6 M126.3,103.7h12.6 M144.5,103.7h12.6
		 M162.6,103.7h12.6 M126.3,107.4h12.6 M144.5,107.4h12.6 M162.6,107.4h12.6 M126.3,111.1h12.6 M144.5,111.1h12.6 M162.6,111.1h12.6
		 M126.3,114.8h12.6 M144.5,114.8h12.6 M162.6,114.8h12.6 M126.3,118.5h12.6 M144.5,118.5h12.6 M162.6,118.5h12.6 M126.3,122.2h12.6
		 M144.5,122.2h12.6 M162.6,122.2h12.6 M126.3,125.9h12.6 M144.5,125.9h12.6 M162.6,125.9h12.6 M126.3,129.6h12.6 M144.5,129.6h12.6
		 M162.6,129.6h12.6"/>
	<path id="Ventilation_Slots_1_" fill="#646567" d="M138.9,88.5h-12.6v-1.2h12.6V88.5z M157.1,87.3h-12.6v1.2h12.6V87.3z
		 M175.2,87.3h-12.6v1.2h12.6V87.3z M138.9,91h-12.6v1.2h12.6V91z M157.1,91h-12.6v1.2h12.6V91z M175.2,91h-12.6v1.2h12.6V91z
		 M138.9,94.7h-12.6v1.2h12.6V94.7z M157.1,94.7h-12.6v1.2h12.6V94.7z M175.2,94.7h-12.6v1.2h12.6V94.7z M138.9,98.4h-12.6v1.2h12.6
		V98.4z M157.1,98.4h-12.6v1.2h12.6V98.4z M175.2,98.4h-12.6v1.2h12.6V98.4z M138.9,102.1h-12.6v1.2h12.6V102.1z M157.1,102.1h-12.6
		v1.2h12.6V102.1z M175.2,102.1h-12.6v1.2h12.6V102.1z M138.9,105.8h-12.6v1.2h12.6V105.8z M157.1,105.8h-12.6v1.2h12.6V105.8z
		 M175.2,105.8h-12.6v1.2h12.6V105.8z M138.9,109.5h-12.6v1.2h12.6V109.5z M157.1,109.5h-12.6v1.2h12.6V109.5z M175.2,109.5h-12.6
		v1.2h12.6V109.5z M138.9,113.2h-12.6v1.2h12.6V113.2z M157.1,113.2h-12.6v1.2h12.6V113.2z M175.2,113.2h-12.6v1.2h12.6V113.2z
		 M138.9,116.9h-12.6v1.2h12.6V116.9z M157.1,116.9h-12.6v1.2h12.6V116.9z M175.2,116.9h-12.6v1.2h12.6V116.9z M138.9,120.7h-12.6
		v1.2h12.6V120.7z M157.1,120.7h-12.6v1.2h12.6V120.7z M175.2,120.7h-12.6v1.2h12.6V120.7z M138.9,124.4h-12.6v1.2h12.6V124.4z
		 M157.1,124.4h-12.6v1.2h12.6V124.4z M175.2,124.4h-12.6v1.2h12.6V124.4z M138.9,128.1h-12.6v1.2h12.6V128.1z M157.1,128.1h-12.6
		v1.2h12.6V128.1z M175.2,128.1h-12.6v1.2h12.6V128.1z"/>
</g>
</svg>
