<?xml version="1.0" encoding="utf-8"?>

<!-- Copyright 2016 Siemens AG -->

<!-- Generator: Adobe Illustrator 16.0.4, SVG Export Plug-In . SVG Version: 6.00 Build 0)  -->
<!DOCTYPE svg PUBLIC "-//W3C//DTD SVG 1.1//EN" "http://www.w3.org/Graphics/SVG/1.1/DTD/svg11.dtd">
<svg version="1.1" id="Shelter" xmlns="http://www.w3.org/2000/svg" xmlns:xlink="http://www.w3.org/1999/xlink" x="0px" y="0px"
	 width="300px" height="283px" viewBox="0 0 300 283" enable-background="new 0 0 300 283" xml:space="preserve">
<g id="Structure_Shelter">
	<linearGradient id="Shape_Shelter_1_" gradientUnits="userSpaceOnUse" x1="-30.8228" y1="-11.5781" x2="346.3823" y2="368.6526">
		<stop  offset="0" style="stop-color:#9A9A99"/>
		<stop  offset="0.2954" style="stop-color:#919190"/>
		<stop  offset="0.7771" style="stop-color:#797978"/>
		<stop  offset="1" style="stop-color:#6B6B6A"/>
	</linearGradient>
	
		<polygon id="Shape_Shelter" fill="url(#Shape_Shelter_1_)" stroke="#646567" stroke-width="0.75" stroke-linecap="round" stroke-linejoin="round" stroke-miterlimit="10" points="
		149.9,13.5 13.8,60.6 13.8,280.6 286.1,280.6 286.1,60.6 	"/>
	
		<path id="Reflection_Lines_1_" fill="none" stroke="#DEDEDE" stroke-width="0.75" stroke-linecap="round" stroke-linejoin="round" stroke-miterlimit="10" d="
		M52.1,72.1H40v197.2 M103.3,29.7h93.4 M72.7,40.2h154.4 M42.2,50.8h215.4 M13.8,61.4h272.4 M32.9,72.1H20.8v197.2 M202.4,167.6
		h-12.1v101.7 M221.6,167.6h-12.1v101.7 M240.7,167.6h-12.1v101.7 M259.9,167.6h-12.1v101.7 M279.1,72.1H267v197.2 M183.3,72.1
		h-12.1v197.2"/>
	
		<path id="Devider__x2B__Shadow_Lines" fill="none" stroke="#575756" stroke-width="0.75" stroke-linecap="round" stroke-linejoin="round" stroke-miterlimit="10" d="
		M52.1,72.1v197.2H40 M32.9,72.1v197.2H20.8 M202.4,167.6v101.7h-12.1 M221.6,167.6v101.7h-12.1 M240.7,167.6v101.7h-12.1
		 M259.9,167.6v101.7h-12.1 M279.1,72.1v197.2H267 M183.3,72.1v197.2h-12.1 M13.8,60.6h272.4 M44.4,50.1h211.2 M74.9,39.5H225
		 M105.4,28.9h88.8"/>
	
		<polygon id="Shadow_Roof" fill="#575756" stroke="#575756" stroke-width="0.75" stroke-linecap="round" stroke-linejoin="round" stroke-miterlimit="10" points="
		149.9,13.6 13.8,60.7 13.8,66.7 149.9,19.6 286.1,66.7 286.1,60.7 	"/>
	<linearGradient id="Roof_1_" gradientUnits="userSpaceOnUse" x1="40.2954" y1="-47.6211" x2="87.3613" y2="-1.9001">
		<stop  offset="0" style="stop-color:#9A9A99"/>
		<stop  offset="0.2954" style="stop-color:#919190"/>
		<stop  offset="0.7771" style="stop-color:#797978"/>
		<stop  offset="1" style="stop-color:#6B6B6A"/>
	</linearGradient>
	
		<polygon id="Roof" fill="url(#Roof_1_)" stroke="#646567" stroke-width="0.75" stroke-linecap="round" stroke-linejoin="round" stroke-miterlimit="10" points="
		2.4,53.2 2.4,64.6 149.9,13.5 297.5,64.6 297.5,53.2 149.9,2.2 	"/>
</g>
<g id="Window">
	<linearGradient id="Frame_1_" gradientUnits="userSpaceOnUse" x1="182.0269" y1="67.77" x2="326.745" y2="223.514">
		<stop  offset="0" style="stop-color:#FFFFFF"/>
		<stop  offset="1" style="stop-color:#7C7C7B"/>
	</linearGradient>
	
		<rect id="Frame" x="190.3" y="72.1" fill="url(#Frame_1_)" stroke="#575756" stroke-width="0.75" stroke-linecap="round" stroke-linejoin="round" stroke-miterlimit="10" width="69.6" height="84.2"/>
	<linearGradient id="Glass_1_" gradientUnits="userSpaceOnUse" x1="225.1636" y1="116.8672" x2="225.1636" y2="307.3552">
		<stop  offset="0" style="stop-color:#575756"/>
		<stop  offset="1.586480e-02" style="stop-color:#5D5C5C"/>
		<stop  offset="0.1171" style="stop-color:#797878"/>
		<stop  offset="0.2183" style="stop-color:#8D8D8C"/>
		<stop  offset="0.3189" style="stop-color:#999998"/>
		<stop  offset="0.4178" style="stop-color:#9D9D9C"/>
		<stop  offset="0.5402" style="stop-color:#979696"/>
		<stop  offset="0.7122" style="stop-color:#848484"/>
		<stop  offset="0.9127" style="stop-color:#676666"/>
		<stop  offset="1" style="stop-color:#575756"/>
	</linearGradient>
	
		<rect id="Glass" x="196.9" y="78.5" fill="url(#Glass_1_)" stroke="#575756" stroke-width="0.75" stroke-linecap="round" stroke-linejoin="round" stroke-miterlimit="10" width="56.5" height="71.4"/>
	<linearGradient id="Frame_Inside_1_" gradientUnits="userSpaceOnUse" x1="196.873" y1="72.1865" x2="270.2174" y2="152.5045">
		<stop  offset="0" style="stop-color:#FFFFFF"/>
		<stop  offset="1" style="stop-color:#7C7C7B"/>
	</linearGradient>
	
		<rect id="Frame_Inside" x="196.9" y="100.1" fill="url(#Frame_Inside_1_)" stroke="#575756" stroke-width="0.75" stroke-linecap="round" stroke-linejoin="round" stroke-miterlimit="10" width="56.5" height="6.1"/>
	
		<polygon id="Shadow" fill="#575756" stroke="#575756" stroke-width="0.75" stroke-linecap="round" stroke-linejoin="round" stroke-miterlimit="10" points="
		253.4,78.5 196.9,78.5 196.9,149.8 199.3,149.8 199.3,80.9 253.4,80.9 	"/>
</g>
<g id="Door">
	<linearGradient id="Shape_Door_1_" gradientUnits="userSpaceOnUse" x1="-39.5918" y1="0.8555" x2="267.5769" y2="357.2499">
		<stop  offset="0" style="stop-color:#FFFFFF"/>
		<stop  offset="1" style="stop-color:#7C7C7B"/>
	</linearGradient>
	
		<rect id="Shape_Door" x="59.2" y="72.1" fill="url(#Shape_Door_1_)" stroke="#575756" stroke-width="0.75" stroke-linecap="round" stroke-linejoin="round" stroke-miterlimit="10" width="105" height="208.6"/>
	<linearGradient id="Hinges_1_" gradientUnits="userSpaceOnUse" x1="119.1113" y1="176.3467" x2="161.7685" y2="176.3467">
		<stop  offset="0" style="stop-color:#575756"/>
		<stop  offset="1.586480e-02" style="stop-color:#5D5C5C"/>
		<stop  offset="0.1171" style="stop-color:#797878"/>
		<stop  offset="0.2183" style="stop-color:#8D8D8C"/>
		<stop  offset="0.3189" style="stop-color:#999998"/>
		<stop  offset="0.4178" style="stop-color:#9D9D9C"/>
		<stop  offset="0.5402" style="stop-color:#979696"/>
		<stop  offset="0.7122" style="stop-color:#848484"/>
		<stop  offset="0.9127" style="stop-color:#676666"/>
		<stop  offset="1" style="stop-color:#575756"/>
	</linearGradient>
	
		<path id="Hinges" fill="url(#Hinges_1_)" stroke="#646567" stroke-width="0.75" stroke-linecap="round" stroke-linejoin="round" stroke-miterlimit="10" d="
		M169.7,90.1h-13.6v-6.7h13.6V90.1z M169.7,262.6h-13.6v6.7h13.6V262.6z"/>
	
		<path id="Reflection_Lines" fill="none" stroke="#FFFFFF" stroke-width="0.75" stroke-linecap="round" stroke-linejoin="round" stroke-miterlimit="10" d="
		M152.8,83.4v185.9H70.5 M81.9,257.9V94.8h59.6"/>
	
		<path id="Shadow_Lines" fill="none" stroke="#575756" stroke-width="0.75" stroke-linecap="round" stroke-linejoin="round" stroke-miterlimit="10" d="
		M70.5,269.3V83.4h82.3 M141.5,94.8v163.2H81.9"/>
	<g id="Handle__x2B__Lock">
		<linearGradient id="Shape_1_" gradientUnits="userSpaceOnUse" x1="64.8247" y1="162.0322" x2="78.3487" y2="174.8278">
			<stop  offset="0" style="stop-color:#9A9A99"/>
			<stop  offset="0.2954" style="stop-color:#919190"/>
			<stop  offset="0.7771" style="stop-color:#797978"/>
			<stop  offset="1" style="stop-color:#6B6B6A"/>
		</linearGradient>
		
			<rect id="Shape" x="70.5" y="161.4" fill="url(#Shape_1_)" stroke="#646567" stroke-width="0.75" stroke-linecap="round" stroke-linejoin="round" stroke-miterlimit="10" width="11.3" height="22.7"/>
		<linearGradient id="Lock_1_" gradientUnits="userSpaceOnUse" x1="72.6284" y1="176.4961" x2="78.9337" y2="176.4961">
			<stop  offset="0" style="stop-color:#FFFFFF"/>
			<stop  offset="1" style="stop-color:#7C7C7B"/>
		</linearGradient>
		
			<path id="Lock" fill="url(#Lock_1_)" stroke="#646567" stroke-width="0.75" stroke-linecap="round" stroke-linejoin="round" stroke-miterlimit="10" d="
			M78.5,174.6c0-1.3-1-2.3-2.3-2.3c-1.3,0-2.3,1-2.3,2.3c0,0.8,0.4,1.5,1.1,1.9v4.1h2.5v-4.1C78,176.1,78.5,175.4,78.5,174.6z"/>
		<linearGradient id="Handle_1_" gradientUnits="userSpaceOnUse" x1="84.187" y1="162.0625" x2="84.7134" y2="164.4917">
			<stop  offset="0" style="stop-color:#575756"/>
			<stop  offset="1.586480e-02" style="stop-color:#5D5C5C"/>
			<stop  offset="0.1171" style="stop-color:#797878"/>
			<stop  offset="0.2183" style="stop-color:#8D8D8C"/>
			<stop  offset="0.3189" style="stop-color:#999998"/>
			<stop  offset="0.4178" style="stop-color:#9D9D9C"/>
			<stop  offset="0.5402" style="stop-color:#979696"/>
			<stop  offset="0.7122" style="stop-color:#848484"/>
			<stop  offset="0.9127" style="stop-color:#676666"/>
			<stop  offset="1" style="stop-color:#575756"/>
		</linearGradient>
		
			<path id="Handle" fill="url(#Handle_1_)" stroke="#646567" stroke-width="0.75" stroke-linecap="round" stroke-linejoin="round" stroke-miterlimit="10" d="
			M92.7,168.9c-1.7,0-4.4-0.3-7.5-1.6c-4.1-1.7-8,1.1-8.1,1.2c-0.7,0.5-1.7,0.4-2.3-0.4c-0.5-0.7-0.4-1.7,0.4-2.3
			c0.2-0.2,5.5-3.9,11.3-1.5c4.4,1.8,7.6,1.2,7.7,1.2c0.9-0.2,1.7,0.4,1.9,1.3c0.2,0.9-0.4,1.7-1.3,1.9
			C94.7,168.7,93.9,168.9,92.7,168.9z"/>
	</g>
</g>
</svg>
