<?xml version="1.0" encoding="utf-8"?>

<!-- Copyright 2016 Siemens AG -->

<!-- Generator: Adobe Illustrator 16.0.4, SVG Export Plug-In . SVG Version: 6.00 Build 0)  -->
<!DOCTYPE svg PUBLIC "-//W3C//DTD SVG 1.1//EN" "http://www.w3.org/Graphics/SVG/1.1/DTD/svg11.dtd">
<svg version="1.1" id="Heating_Up" xmlns="http://www.w3.org/2000/svg" xmlns:xlink="http://www.w3.org/1999/xlink" x="0px" y="0px"
	 width="300px" height="300px" viewBox="0 0 300 300" enable-background="new 0 0 300 300" xml:space="preserve">
<linearGradient id="Button_1_" gradientUnits="userSpaceOnUse" x1="-56.4541" y1="-56.4287" x2="410.0616" y2="410.087">
	<stop  offset="0" style="stop-color:#FFFFFF"/>
	<stop  offset="1" style="stop-color:#7C7C7B"/>
</linearGradient>
<circle id="Button" fill="url(#Button_1_)" stroke="#8C8C91" stroke-width="0.75" stroke-miterlimit="10" cx="150.1" cy="150.1" r="148"/>
<g id="Thermometer">
	<linearGradient id="Temperature_1_" gradientUnits="userSpaceOnUse" x1="67.3784" y1="184.1875" x2="143.7964" y2="184.1875">
		<stop  offset="0" style="stop-color:#FF0000"/>
		<stop  offset="1" style="stop-color:#FFED00"/>
	</linearGradient>
	<path id="Temperature" fill="url(#Temperature_1_)" d="M125.3,175.5v-53.6H85.8v53.6c-11.1,6.7-18.5,18.8-18.5,32.7
		c0,21.1,17.1,38.2,38.2,38.2s38.2-17.1,38.2-38.2C143.8,194.4,136.4,182.2,125.3,175.5z"/>
	
		<path id="Thermometer_Outline" fill="none" stroke="#575756" stroke-width="10" stroke-linecap="round" stroke-linejoin="round" stroke-miterlimit="10" d="
		M125.3,175.5V73.8c0-10.9-8.8-19.8-19.8-19.8s-19.8,8.8-19.8,19.8v101.7c-11.1,6.7-18.5,18.8-18.5,32.7c0,21.1,17.1,38.2,38.2,38.2
		s38.2-17.1,38.2-38.2C143.8,194.4,136.4,182.2,125.3,175.5z"/>
	<path id="Scale" fill="#575756" d="M74.8,84.9H62.4V72.6h12.3V84.9z M74.8,97.1H62.4v12.3h12.3V97.1z M74.8,121.7H62.4V134h12.3
		V121.7z M74.8,146.2H62.4v12.3h12.3V146.2z"/>
</g>
<g id="Arrows">
	<polygon id="Bottom" fill="#E85200" stroke="#E85200" stroke-width="10" stroke-miterlimit="10" points="172.3,230.5 207.1,159.9 
		241.8,230.5 	"/>
	<polygon id="Top" fill="none" stroke="#E85200" stroke-width="10" stroke-miterlimit="10" points="172.3,132.6 207.1,62 
		241.8,132.6 	"/>
</g>
</svg>
