<?xml version="1.0" encoding="utf-8"?>

<!-- Copyright 2016 Siemens AG -->

<!-- Generator: Adobe Illustrator 16.0.4, SVG Export Plug-In . SVG Version: 6.00 Build 0)  -->
<!DOCTYPE svg PUBLIC "-//W3C//DTD SVG 1.1//EN" "http://www.w3.org/Graphics/SVG/1.1/DTD/svg11.dtd">
<svg version="1.1" id="Running_Arrows_1" xmlns="http://www.w3.org/2000/svg" xmlns:xlink="http://www.w3.org/1999/xlink" x="0px"
	 y="0px" width="300px" height="300px" viewBox="0 0 300 300" enable-background="new 0 0 300 300" xml:space="preserve">
<linearGradient id="Button_1_" gradientUnits="userSpaceOnUse" x1="-56.4531" y1="-56.3271" x2="410.061" y2="410.187">
	<stop  offset="0" style="stop-color:#FFFFFF"/>
	<stop  offset="1" style="stop-color:#7C7C7B"/>
</linearGradient>
<circle id="Button" fill="url(#Button_1_)" stroke="#8C8C91" stroke-width="0.75" stroke-miterlimit="10" cx="150.1" cy="150.2" r="148"/>
<path id="Arrows" fill="#575756" stroke="#424242" stroke-width="0.75" stroke-linecap="round" stroke-linejoin="round" stroke-miterlimit="10" d="
	M161.4,52l0-34.9l52.3,52.3l-52.3,52.3l0-38.4c-20.9-3.5-43.2,2.7-59.4,18.9c-23.6,23.6-26.1,60.3-7.8,86.7l-22.2,22.2
	c-30.3-38.8-27.7-95.1,8-130.8C102.3,58.1,132.5,48.7,161.4,52z M138.7,248.4c29,3.3,59.1-6.1,81.3-28.3c35.7-35.7,38.3-92,8-130.8
	l-22.2,22.2c18.4,26.5,15.8,63.1-7.8,86.7c-16.1,16.1-38.4,22.4-59.4,18.9l0-38.4L86.4,231l52.3,52.3L138.7,248.4z"/>
</svg>
