<?xml version="1.0" encoding="utf-8"?>

<!-- Copyright 2016 Siemens AG -->

<!-- Generator: Adobe Illustrator 16.0.4, SVG Export Plug-In . SVG Version: 6.00 Build 0)  -->
<!DOCTYPE svg PUBLIC "-//W3C//DTD SVG 1.1//EN" "http://www.w3.org/Graphics/SVG/1.1/DTD/svg11.dtd">
<svg version="1.1" id="Running_Arrows_2" xmlns="http://www.w3.org/2000/svg" xmlns:xlink="http://www.w3.org/1999/xlink" x="0px"
	 y="0px" width="300px" height="300px" viewBox="0 0 300 300" enable-background="new 0 0 300 300" xml:space="preserve">
<linearGradient id="Button_1_" gradientUnits="userSpaceOnUse" x1="-56.4531" y1="-56.3271" x2="410.061" y2="410.187">
	<stop  offset="0" style="stop-color:#FFFFFF"/>
	<stop  offset="1" style="stop-color:#7C7C7B"/>
</linearGradient>
<circle id="Button" fill="url(#Button_1_)" stroke="#8C8C91" stroke-width="0.75" stroke-miterlimit="10" cx="150.1" cy="150.2" r="148"/>
<path id="Arrows" fill="#575756" stroke="#424242" stroke-width="0.75" stroke-linecap="round" stroke-linejoin="round" stroke-miterlimit="10" d="
	M227.5,88.8l24.7-24.7v74h-74l27.2-27.2c-12.3-17.3-32.5-28.6-55.3-28.6c-33.3,0-61.1,24.1-66.8,55.8l-31.4,0
	c6-48.9,47.7-86.8,98.1-86.8C181.4,51.3,209.4,66,227.5,88.8z M72.6,211.6c18.1,22.8,46.1,37.5,77.5,37.5c50.4,0,92.2-38,98.2-86.8
	l-31.4,0c-5.7,31.7-33.5,55.8-66.8,55.8c-22.8,0-43-11.3-55.3-28.6l27.2-27.2l-74,0v74L72.6,211.6z"/>
</svg>
