<?xml version="1.0" encoding="utf-8"?>

<!-- Copyright 2016 Siemens AG -->

<!-- Generator: Adobe Illustrator 16.0.4, SVG Export Plug-In . SVG Version: 6.00 Build 0)  -->
<!DOCTYPE svg PUBLIC "-//W3C//DTD SVG 1.1//EN" "http://www.w3.org/Graphics/SVG/1.1/DTD/svg11.dtd">
<svg version="1.1" id="Running_Arrows" xmlns="http://www.w3.org/2000/svg" xmlns:xlink="http://www.w3.org/1999/xlink" x="0px"
	 y="0px" width="300px" height="300px" viewBox="0 0 300 300" enable-background="new 0 0 300 300" xml:space="preserve">
<linearGradient id="Button_1_" gradientUnits="userSpaceOnUse" x1="-56.4531" y1="-56.3271" x2="410.061" y2="410.187">
	<stop  offset="0" style="stop-color:#FFFFFF"/>
	<stop  offset="1" style="stop-color:#7C7C7B"/>
</linearGradient>
<circle id="Button" fill="url(#Button_1_)" stroke="#8C8C91" stroke-width="0.75" stroke-miterlimit="10" cx="150.1" cy="150.2" r="148"/>
<path id="Arrows" fill="#575756" stroke="#424242" stroke-width="0.75" stroke-linecap="round" stroke-linejoin="round" stroke-miterlimit="10" d="
	M88.7,72.7L64,48h74l0,74l-27.2-27.2c-17.3,12.3-28.6,32.5-28.6,55.3c0,33.3,24.1,61.1,55.8,66.8l0,31.4
	c-48.9-6-86.8-47.7-86.8-98.1C51.2,118.8,65.9,90.9,88.7,72.7z M211.5,227.7c22.8-18.1,37.5-46.1,37.5-77.5
	c0-50.4-38-92.2-86.8-98.2l0,31.4c31.7,5.7,55.8,33.5,55.8,66.8c0,22.8-11.3,43-28.6,55.3l-27.2-27.2v74h74L211.5,227.7z"/>
</svg>
