<?xml version="1.0" encoding="utf-8"?>

<!-- Copyright 2016 Siemens AG -->

<!-- Generator: Adobe Illustrator 16.0.4, SVG Export Plug-In . SVG Version: 6.00 Build 0)  -->
<!DOCTYPE svg PUBLIC "-//W3C//DTD SVG 1.1//EN" "http://www.w3.org/Graphics/SVG/1.1/DTD/svg11.dtd">
<svg version="1.1" id="Running_3" xmlns="http://www.w3.org/2000/svg" xmlns:xlink="http://www.w3.org/1999/xlink" x="0px" y="0px"
	 width="300px" height="300px" viewBox="0 0 300 300" enable-background="new 0 0 300 300" xml:space="preserve">
<linearGradient id="Shape_Inside_2_" gradientUnits="userSpaceOnUse" x1="95.584" y1="95.7734" x2="314.222" y2="314.4115">
	<stop  offset="0" style="stop-color:#FFFFFF"/>
	<stop  offset="1" style="stop-color:#7C7C7B"/>
</linearGradient>
<circle id="Shape_Inside_1_" fill="url(#Shape_Inside_2_)" stroke="#8C8C91" stroke-width="0.75" stroke-miterlimit="10" cx="150.1" cy="150.3" r="117.3"/>
<linearGradient id="Ring_Outside_2_" gradientUnits="userSpaceOnUse" x1="-56.416" y1="-56.2275" x2="410.0997" y2="410.2881">
	<stop  offset="0" style="stop-color:#FFFFFF"/>
	<stop  offset="1" style="stop-color:#7C7C7B"/>
</linearGradient>
<path id="Ring_Outside_1_" fill="url(#Ring_Outside_2_)" stroke="#8C8C91" stroke-width="0.75" stroke-miterlimit="10" d="
	M150.1,2.3c-81.7,0-148,66.3-148,148s66.3,148,148,148c81.7,0,148-66.3,148-148S231.9,2.3,150.1,2.3z M150.1,273.6
	c-68.1,0-123.3-55.2-123.3-123.3C26.8,82.2,82,27,150.1,27s123.3,55.2,123.3,123.3C273.4,218.4,218.2,273.6,150.1,273.6z"/>
<path id="Symbol" fill="#575756" stroke="#424242" stroke-width="0.75" stroke-miterlimit="10" d="M26.8,150.3
	c0,68.1,55.2,123.3,123.3,123.3c68.1,0,123.3-55.2,123.3-123.3S218.2,27,150.1,27C82,27,26.8,82.2,26.8,150.3z M32.8,147.3
	C34.4,84.9,84.7,34.6,147.1,33v114.3H32.8z M267.4,153.3c-1.6,62.4-51.9,112.7-114.3,114.3V153.3H267.4z M267.4,147.3H153.1V33
	C215.5,34.6,265.8,84.9,267.4,147.3z"/>
</svg>
