<?xml version="1.0" encoding="utf-8"?>

<!-- Copyright 2016 Siemens AG -->

<!-- Generator: Adobe Illustrator 16.0.4, SVG Export Plug-In . SVG Version: 6.00 Build 0)  -->
<!DOCTYPE svg PUBLIC "-//W3C//DTD SVG 1.1//EN" "http://www.w3.org/Graphics/SVG/1.1/DTD/svg11.dtd">
<svg version="1.1" id="_x39_0_Degree_Bend_4" xmlns="http://www.w3.org/2000/svg" xmlns:xlink="http://www.w3.org/1999/xlink"
	 x="0px" y="0px" width="300px" height="300px" viewBox="0 0 300 300" enable-background="new 0 0 300 300" xml:space="preserve">
<radialGradient id="Shape_1_" cx="2.5244" cy="2.4341" r="294.8271" gradientUnits="userSpaceOnUse">
	<stop  offset="0.5025" style="stop-color:#A5A5A5"/>
	<stop  offset="0.5098" style="stop-color:#ABABAB"/>
	<stop  offset="0.5469" style="stop-color:#C8C8C8"/>
	<stop  offset="0.5842" style="stop-color:#DCDCDC"/>
	<stop  offset="0.6213" style="stop-color:#E8E8E8"/>
	<stop  offset="0.658" style="stop-color:#ECECEC"/>
	<stop  offset="0.7046" style="stop-color:#E7E7E7"/>
	<stop  offset="0.7572" style="stop-color:#DADADA"/>
	<stop  offset="0.8128" style="stop-color:#C3C3C3"/>
	<stop  offset="0.8704" style="stop-color:#A3A3A3"/>
	<stop  offset="0.9295" style="stop-color:#7B7B7B"/>
	<stop  offset="0.9892" style="stop-color:#4A4A4A"/>
	<stop  offset="1" style="stop-color:#404040"/>
</radialGradient>
<path id="Shape" fill="url(#Shape_1_)" d="M298.4,2c0,163.3-132.4,295.7-295.7,295.7V148.3C83.5,148.3,149,82.8,149,2H298.4z"/>
<linearGradient id="Reflection_1_" gradientUnits="userSpaceOnUse" x1="79.145" y1="78.4185" x2="96.9293" y2="96.2027">
	<stop  offset="0" style="stop-color:#F2F2F2;stop-opacity:0.4"/>
	<stop  offset="1" style="stop-color:#F7F7F7;stop-opacity:0.7"/>
</linearGradient>
<path id="Reflection" fill="url(#Reflection_1_)" d="M164.3,2c0,71.2-46.1,131.7-110,153.2c-16.2,5.5-33.5,8.4-51.5,8.4V189
	c103.3-0.2,187-83.7,187-187H164.3z"/>
<path id="Outline" fill="none" stroke="#8C8C91" stroke-width="0.75" stroke-miterlimit="10" d="M149,2
	c0,80.8-65.5,146.2-146.2,146.2 M2.7,297.7C166,297.7,298.4,165.3,298.4,2"/>
</svg>
