<?xml version="1.0" encoding="utf-8"?>

<!-- Copyright 2016 Siemens AG -->

<!-- Generator: Adobe Illustrator 16.0.4, SVG Export Plug-In . SVG Version: 6.00 Build 0)  -->
<!DOCTYPE svg PUBLIC "-//W3C//DTD SVG 1.1//EN" "http://www.w3.org/Graphics/SVG/1.1/DTD/svg11.dtd">
<svg version="1.1" id="_x39_0_Degree_Bend_3" xmlns="http://www.w3.org/2000/svg" xmlns:xlink="http://www.w3.org/1999/xlink"
	 x="0px" y="0px" width="300px" height="300px" viewBox="0 0 300 300" enable-background="new 0 0 300 300" xml:space="preserve">
<radialGradient id="Shape_4_" cx="662.2734" cy="3311.8125" r="346.6769" gradientTransform="matrix(-1 0 0 -0.9188 970.332 3025.855)" gradientUnits="userSpaceOnUse">
	<stop  offset="0.4577" style="stop-color:#404040"/>
	<stop  offset="0.4843" style="stop-color:#616161"/>
	<stop  offset="0.5239" style="stop-color:#8B8B8B"/>
	<stop  offset="0.5644" style="stop-color:#AEAEAE"/>
	<stop  offset="0.6051" style="stop-color:#C9C9C9"/>
	<stop  offset="0.6462" style="stop-color:#DDDDDD"/>
	<stop  offset="0.6881" style="stop-color:#E8E8E8"/>
	<stop  offset="0.7317" style="stop-color:#ECECEC"/>
	<stop  offset="0.7617" style="stop-color:#E6E6E6"/>
	<stop  offset="0.802" style="stop-color:#D5D5D5"/>
	<stop  offset="0.8484" style="stop-color:#B8B8B8"/>
	<stop  offset="0.8992" style="stop-color:#919191"/>
	<stop  offset="0.9531" style="stop-color:#5F5F5F"/>
	<stop  offset="0.9783" style="stop-color:#454545"/>
</radialGradient>
<path id="Shape_3_" fill="url(#Shape_4_)" d="M298.4,297.7C135.1,297.7,2.7,165.3,2.7,2h149.4c0,80.8,65.5,146.3,146.2,146.3V297.7z
	"/>
<g id="Reflection">
	<linearGradient id="Top_Right_1_" gradientUnits="userSpaceOnUse" x1="271.2861" y1="195.998" x2="257.7861" y2="107.748">
		<stop  offset="0" style="stop-color:#FFFFFF"/>
		<stop  offset="0.1478" style="stop-color:#F1F1F1"/>
		<stop  offset="0.4261" style="stop-color:#CDCDCD"/>
		<stop  offset="0.8024" style="stop-color:#939393"/>
		<stop  offset="0.9427" style="stop-color:#7C7C7B"/>
	</linearGradient>
	<path id="Top_Right" fill="url(#Top_Right_1_)" d="M232.1,149.3c18.2,8.2,38.2,13.2,59.3,14.1c4.5,0.2,7,0.2,7,0.2
		c0,0,0,18.7,0,25.5C294.1,189,256.9,185.4,232.1,149.3z"/>
	<linearGradient id="Left_1_" gradientUnits="userSpaceOnUse" x1="74.042" y1="52.4668" x2="-7.6572" y2="97.9849">
		<stop  offset="0" style="stop-color:#FFFFFF"/>
		<stop  offset="0.2971" style="stop-color:#D7D7D7"/>
		<stop  offset="0.898" style="stop-color:#7C7C7B"/>
	</linearGradient>
	<path id="Left" fill="url(#Left_1_)" d="M57.5,143.2C32.9,101.8,18.6,53.6,18.2,2h25.5C43.7,12,43.7,91,57.5,143.2z"/>
</g>
<linearGradient id="Gradation_Top_Right_1_" gradientUnits="userSpaceOnUse" x1="258.1367" y1="167.4448" x2="262.7012" y2="99.9878">
	<stop  offset="0" style="stop-color:#DEDEDE"/>
	<stop  offset="8.504969e-02" style="stop-color:#CECECE"/>
	<stop  offset="0.3511" style="stop-color:#A2A2A1"/>
	<stop  offset="0.557" style="stop-color:#868685"/>
	<stop  offset="0.6765" style="stop-color:#7C7C7B"/>
	<stop  offset="0.9962" style="stop-color:#575756"/>
</linearGradient>
<path id="Gradation_Top_Right" fill="url(#Gradation_Top_Right_1_)" d="M220.9,126.1c2.7,7.4,6.3,15.5,11.2,23.3
	c18.2,8.2,38.2,13.1,59.2,14c4.3,0.2,6.8,0.2,7,0.2v-15.3C269.9,148.3,243.4,140.2,220.9,126.1z"/>
<path id="Outline" fill="none" stroke="#8C8C91" stroke-width="0.75" stroke-miterlimit="10" d="M298.4,297.7
	C135.1,297.7,2.7,165.3,2.7,2 M152.1,2c0,80.8,65.5,146.3,146.2,146.3"/>
</svg>
