<?xml version="1.0" encoding="utf-8"?>

<!-- Copyright 2016 Siemens AG -->

<!-- Generator: Adobe Illustrator 16.0.4, SVG Export Plug-In . SVG Version: 6.00 Build 0)  -->
<!DOCTYPE svg PUBLIC "-//W3C//DTD SVG 1.1//EN" "http://www.w3.org/Graphics/SVG/1.1/DTD/svg11.dtd">
<svg version="1.1" id="Ventilator" xmlns="http://www.w3.org/2000/svg" xmlns:xlink="http://www.w3.org/1999/xlink" x="0px" y="0px"
	 width="300px" height="300px" viewBox="0 0 300 300" enable-background="new 0 0 300 300" xml:space="preserve">
<linearGradient id="Ventilator_Compartment_1_" gradientUnits="userSpaceOnUse" x1="267.8564" y1="267.8657" x2="174.9129" y2="174.9221">
	<stop  offset="0" style="stop-color:#6B6B6A"/>
	<stop  offset="1" style="stop-color:#434343"/>
</linearGradient>
<path id="Ventilator_Compartment" fill="url(#Ventilator_Compartment_1_)" stroke="#575756" stroke-width="0.75" stroke-linecap="round" stroke-linejoin="round" stroke-miterlimit="10" d="
	M271.7,150c0,67.2-54.5,121.7-121.7,121.7c-67.2,0-121.7-54.5-121.7-121.7C28.3,82.8,82.8,28.3,150,28.3
	C217.2,28.3,271.7,82.8,271.7,150z"/>
<path id="Blades" fill="#AFAFAE" stroke="#8C8C91" stroke-width="0.75" stroke-linecap="round" stroke-linejoin="round" stroke-miterlimit="10" d="
	M276.3,168.2c-0.7-1.2-18.8-29.7-55.4-36.3c-29.9-5.3-49.8,0.7-61.3,6.7c6.4-9.7,19.5-23.2,45.4-32.6c31.8-11.5,59.7,3.1,60,3.2
	c1.8,1,4.1,0.3,5.1-1.5c1-1.8,0.3-4.1-1.5-5.1c-1.3-0.7-31.1-16.4-66.2-3.7c-28.6,10.3-42.8,25.5-49.8,36.5c0.1-1.6,0.2-3.2,0.5-5
	c1.5-10.5,6.6-27.1,22.5-45.9c21.8-25.8,53.3-27.2,53.6-27.2c2.1-0.1,3.7-1.8,3.7-3.9c-0.1-2.1-1.8-3.7-3.9-3.7
	c-1.4,0-35.1,1.4-59.1,29.9c-19.6,23.3-24.4,43.5-24.9,56.5c-0.7-1.4-1.4-2.9-2.1-4.6c-4-9.9-7.8-26.7-3.5-51
	c6-33.3,32.6-50.2,32.8-50.3c1.8-1.1,2.3-3.4,1.2-5.2c-1.1-1.8-3.4-2.3-5.2-1.2c-1.2,0.7-29.7,18.8-36.3,55.4
	c-5.3,29.8,0.6,49.7,6.6,61.2c-9.7-6.5-23.3-19.5-32.5-45.3c-11.5-31.8,3.1-59.7,3.2-60c1-1.8,0.3-4.1-1.5-5.1
	c-1.8-1-4.1-0.3-5.1,1.5c-0.7,1.3-16.4,31.1-3.7,66.2c10.3,28.6,25.5,42.8,36.5,49.8c-1.6-0.1-3.2-0.2-5-0.5
	c-10.5-1.5-27-6.6-45.9-22.5c-25.8-21.8-27.2-53.3-27.2-53.6c-0.1-2.1-1.9-3.7-3.9-3.7c-2.1,0.1-3.7,1.8-3.7,3.9
	c0,1.4,1.4,35.1,29.9,59.1c23.2,19.6,43.5,24.4,56.5,24.9c-10.4,5.2-28.5,10.4-55.6,5.5c-33.3-6-50.2-32.5-50.4-32.8
	c-1.1-1.8-3.4-2.3-5.2-1.2c-1.8,1.1-2.3,3.4-1.2,5.2c0.7,1.2,18.8,29.7,55.4,36.3c8.2,1.5,15.6,2.1,22.3,2.1c17.8,0,30.6-4.4,39-8.7
	c-6.5,9.7-19.5,23.3-45.3,32.6c-31.8,11.5-59.7-3.1-60-3.2c-1.8-1-4.1-0.3-5.1,1.5c-1,1.8-0.3,4.1,1.5,5.1
	c0.9,0.5,16.4,8.6,37.9,8.6c8.6,0,18.2-1.3,28.2-4.9c28.6-10.3,42.8-25.5,49.8-36.5c-0.7,11.6-5.2,29.8-23,50.9
	c-21.8,25.8-53.3,27.2-53.6,27.2c-2.1,0.1-3.7,1.8-3.7,3.9c0.1,2,1.7,3.7,3.8,3.7c0,0,0.1,0,0.1,0c1.4,0,35.1-1.4,59.1-29.9
	c19.6-23.2,24.3-43.5,24.9-56.4c0.7,1.4,1.4,2.9,2.1,4.6c4,9.9,7.8,26.7,3.5,51c-6,33.3-32.6,50.2-32.8,50.3
	c-1.8,1.1-2.3,3.4-1.2,5.2c0.7,1.2,2,1.8,3.2,1.8c0.7,0,1.4-0.2,2-0.6c1.2-0.8,29.7-18.8,36.3-55.4c5.3-29.8-0.6-49.7-6.6-61.2
	c9.7,6.5,23.2,19.5,32.5,45.3c11.5,31.8-3.1,59.7-3.2,60c-1,1.8-0.3,4.1,1.5,5.1c0.6,0.3,1.2,0.5,1.8,0.5c1.3,0,2.6-0.7,3.3-2
	c0.7-1.3,16.4-31.1,3.7-66.2c-10.3-28.6-25.5-42.8-36.5-49.8c11.6,0.7,29.8,5.2,50.9,23c25.8,21.8,27.2,53.3,27.2,53.6
	c0.1,2,1.7,3.7,3.8,3.7c0,0,0.1,0,0.1,0c2.1-0.1,3.7-1.8,3.7-3.9c0-1.4-1.4-35.1-29.9-59.1c-23.2-19.6-43.5-24.4-56.5-24.9
	c10.4-5.2,28.5-10.4,55.6-5.5c33.3,5.9,50.2,32.6,50.4,32.8c0.7,1.2,1.9,1.8,3.2,1.8c0.7,0,1.4-0.2,2-0.6
	C276.8,172.3,277.4,170,276.3,168.2z"/>
<g id="Centre__x2B__Blade_Connection">
	<linearGradient id="Blade_Connection_1_" gradientUnits="userSpaceOnUse" x1="94.3486" y1="94.3584" x2="132.2294" y2="132.2392">
		<stop  offset="0" style="stop-color:#575756"/>
		<stop  offset="1.586480e-02" style="stop-color:#5D5C5C"/>
		<stop  offset="0.1171" style="stop-color:#797878"/>
		<stop  offset="0.2183" style="stop-color:#8D8D8C"/>
		<stop  offset="0.3189" style="stop-color:#999998"/>
		<stop  offset="0.4178" style="stop-color:#9D9D9C"/>
		<stop  offset="0.5402" style="stop-color:#979696"/>
		<stop  offset="0.7122" style="stop-color:#848484"/>
		<stop  offset="0.9127" style="stop-color:#676666"/>
		<stop  offset="1" style="stop-color:#575756"/>
	</linearGradient>
	
		<path id="Blade_Connection" fill="url(#Blade_Connection_1_)" stroke="#575756" stroke-width="0.75" stroke-linecap="round" stroke-linejoin="round" stroke-miterlimit="10" d="
		M150,111.2c-21.4,0-38.8,17.4-38.8,38.8c0,21.4,17.4,38.8,38.8,38.8c21.4,0,38.8-17.4,38.8-38.8C188.8,128.6,171.4,111.2,150,111.2
		z M150,182.8c-18.1,0-32.8-14.7-32.8-32.8c0-18.1,14.7-32.8,32.8-32.8c18.1,0,32.8,14.7,32.8,32.8
		C182.8,168.1,168.1,182.8,150,182.8z"/>
	<linearGradient id="Centre_1_" gradientUnits="userSpaceOnUse" x1="119.5156" y1="119.5244" x2="171.8107" y2="171.8195">
		<stop  offset="0" style="stop-color:#FFFFFF"/>
		<stop  offset="1" style="stop-color:#7C7C7B"/>
	</linearGradient>
	
		<circle id="Centre" fill="url(#Centre_1_)" stroke="#8C8C91" stroke-width="0.75" stroke-linecap="round" stroke-linejoin="round" stroke-miterlimit="10" cx="150" cy="150" r="32.8"/>
</g>
<path id="Shadow" fill="#424242" stroke="#424242" stroke-width="0.75" stroke-linecap="round" stroke-linejoin="round" stroke-miterlimit="10" d="
	M33.2,154.1c0-67.9,55-123,123-123c16.5,0,32.3,3.3,46.7,9.2c-16-7.7-33.9-12.1-52.9-12.1C82.8,28.3,28.3,82.8,28.3,150
	c0,35.9,15.6,68.2,40.3,90.5C46.7,218.3,33.2,187.8,33.2,154.1z"/>
<linearGradient id="Housing_1_" gradientUnits="userSpaceOnUse" x1="-24.1074" y1="-24.0986" x2="328.543" y2="328.5518">
	<stop  offset="0" style="stop-color:#FFFFFF"/>
	<stop  offset="1" style="stop-color:#7C7C7B"/>
</linearGradient>
<path id="Housing" fill="url(#Housing_1_)" stroke="#8C8C91" stroke-width="0.75" stroke-linecap="round" stroke-linejoin="round" stroke-miterlimit="10" d="
	M150,2.4C68.5,2.4,2.4,68.5,2.4,150c0,81.5,66.1,147.6,147.6,147.6c81.5,0,147.6-66.1,147.6-147.6C297.6,68.5,231.5,2.4,150,2.4z
	 M150,280.7c-72.2,0-130.7-58.5-130.7-130.7C19.3,77.8,77.8,19.3,150,19.3c72.2,0,130.7,58.5,130.7,130.7
	C280.7,222.2,222.2,280.7,150,280.7z"/>
<linearGradient id="Hollow_Ring_1_" gradientUnits="userSpaceOnUse" x1="312.1523" y1="312.1606" x2="42.5934" y2="42.6017">
	<stop  offset="0" style="stop-color:#FFFFFF"/>
	<stop  offset="1" style="stop-color:#7C7C7B"/>
</linearGradient>
<path id="Hollow_Ring" fill="url(#Hollow_Ring_1_)" stroke="#575756" stroke-width="0.75" stroke-linecap="round" stroke-linejoin="round" stroke-miterlimit="10" d="
	M150,19.3C77.8,19.3,19.3,77.8,19.3,150c0,72.2,58.5,130.7,130.7,130.7c72.2,0,130.7-58.5,130.7-130.7
	C280.7,77.8,222.2,19.3,150,19.3z M150,271.7c-67.2,0-121.7-54.5-121.7-121.7C28.3,82.8,82.8,28.3,150,28.3
	c67.2,0,121.7,54.5,121.7,121.7C271.7,217.2,217.2,271.7,150,271.7z"/>
</svg>
