<?xml version="1.0" encoding="utf-8"?>

<!-- Copyright 2016 Siemens AG -->

<!-- Generator: Adobe Illustrator 16.0.4, SVG Export Plug-In . SVG Version: 6.00 Build 0)  -->
<!DOCTYPE svg PUBLIC "-//W3C//DTD SVG 1.1//EN" "http://www.w3.org/Graphics/SVG/1.1/DTD/svg11.dtd">
<svg version="1.1" id="SIMATIC_x5F_MOBILE_x5F_HMI_x5F_KTP900_x5F_Standard"
	 xmlns="http://www.w3.org/2000/svg" xmlns:xlink="http://www.w3.org/1999/xlink" x="0px" y="0px" width="300px" height="198px"
	 viewBox="0 0 300 198" enable-background="new 0 0 300 198" xml:space="preserve">
<path id="path5" fill="#707070" d="M195,2.2c30,0.4,59.9,2,89.8,4c4.2,0.3,7.5,3.4,8,7.5c0.3,1.5,0.3,2.8,0.5,4.2V18
	c0,0,0,0.1-0.1,0.1c0,0.1,0,0.2-0.1,0.3c0,0.1,0,0.2,0,0.3c-0.1,0.3-0.1,0.4-0.1,0.7c-0.1,0.3-0.1,0.6-0.1,0.9
	c-0.2,0.7-0.2,1.4-0.3,2c-0.1,0.7-0.1,1.4-0.1,2.1c0,0.8,0,1.4,0,2c0,0.8,0,1.4,0,2.1c0,0.9,0.1,1.6,0.2,2.4c0,0.6,0.1,1.2,0.2,1.8
	c0.1,1.4,0.3,2.7,0.5,4c0.2,1.4,0.5,2.8,0.8,4.2c0.2,0.8,0.3,1.5,0.5,2.2c0.3,0.6,0.3,1.2,0.5,1.9c0.1,0.3,0.3,0.6,0.3,0.9
	c0.1,0.3,0.2,0.5,0.3,0.9c0.1,0.2,0.2,0.3,0.3,0.6c0,0.1,0,0.1,0.1,0.3c0,0,0,0.1,0.1,0.2c3.2,43.1,2,85.5-3.8,128.3
	c-1.1,8.7-8.3,15.3-17,15.9c-83.8,5.3-167.2,5.3-251.1,0c-8.7-0.6-15.9-7.2-17-15.9c-5.7-42.8-7-85.2-3.8-128.3c0-0.1,0-0.2,0.1-0.2
	c0-0.2,0.1-0.2,0.1-0.3C4,47.2,4.1,47,4.1,46.8c0.2-0.3,0.3-0.6,0.3-0.9c0.1-0.3,0.2-0.6,0.3-0.9c0.4-1.4,0.8-2.7,1.1-4.1
	c0.5-2.7,1-5.4,1.3-8.2c0.1-1.4,0.3-2.8,0.3-4.2c0-0.7,0.1-1.4,0.1-2.1c0-0.7,0-1.3-0.1-2c0-0.7,0-1.4-0.1-2.1
	c-0.1-0.7-0.1-1.4-0.2-2c0-0.3-0.1-0.6-0.1-0.9c0-0.3-0.1-0.4-0.2-0.7c0-0.1,0-0.2,0-0.3s0-0.2-0.1-0.3c0,0,0-0.1-0.1-0.1v-0.1
	c0.2-1.4,0.3-2.7,0.5-4.2c0.5-4.1,3.9-7.2,8-7.5c29.9-2,59.9-3.7,89.8-4C127.5,2,172.4,2,195,2.2z"/>
<g>
	<path id="path7_1_" fill="none" stroke="#404040" stroke-width="0.9222" stroke-linecap="round" stroke-linejoin="round" d="
		M286.2,18.3c1,6.4,1.9,12.8,2.6,19.3c0.8,6.5,1.4,13,2,19.4c1.1,13,1.8,25.9,2.1,39c0.3,13,0.2,26-0.4,39c-0.5,13-1.4,26-2.8,39
		c-0.1,1.1-0.3,2.1-0.6,3.1c-0.3,0.9-0.6,2-1.1,2.8c-0.3,0.9-0.9,1.9-1.5,2.6c-0.6,0.9-1.3,1.6-2,2.3c-0.7,0.7-1.5,1.3-2.4,1.9
		c-0.8,0.5-1.6,1-2.6,1.5c-0.9,0.3-1.9,0.7-2.9,0.9c-1,0.2-2,0.3-3,0.4"/>
	<path id="path9" fill="none" stroke="#404040" stroke-width="0.9222" stroke-linecap="round" stroke-linejoin="round" d="
		M286.2,18.3c-0.1-0.9-0.3-1.8-0.9-2.6c-0.2-0.4-0.4-0.8-0.7-1.1c-0.3-0.4-0.6-0.8-1-1c-0.3-0.3-0.7-0.6-1.1-0.9
		c-0.4-0.3-0.8-0.4-1.2-0.7c-0.5-0.1-0.9-0.3-1.4-0.3c-0.5-0.2-1-0.2-1.5-0.3"/>
	<path id="path11" fill="none" stroke="#404040" stroke-width="0.9222" stroke-linecap="round" stroke-linejoin="round" d="
		M21.6,11.4c-0.5,0.1-1,0.1-1.5,0.3c-0.4,0.1-0.9,0.3-1.4,0.3c-0.4,0.3-0.9,0.4-1.2,0.7c-0.4,0.3-0.8,0.5-1.2,0.9
		c-0.3,0.3-0.6,0.6-0.9,1c-0.3,0.3-0.5,0.7-0.8,1.1c-0.2,0.3-0.3,0.9-0.5,1.2c-0.2,0.5-0.3,0.9-0.3,1.4"/>
	<path id="path13" fill="none" stroke="#404040" stroke-width="0.9222" stroke-linecap="round" stroke-linejoin="round" d="
		M13.7,18.3C6,69.8,4.9,122.1,10.3,173.9c0.1,1.1,0.3,2.1,0.5,3.1c0.3,0.9,0.7,2,1.1,2.8c0.4,0.9,0.9,1.9,1.5,2.6
		c0.6,0.9,1.3,1.6,2,2.3c0.7,0.7,1.4,1.3,2.3,1.9c0.9,0.5,1.7,1,2.6,1.5c0.9,0.3,2,0.7,3,0.9c0.9,0.2,2,0.3,3,0.4"/>
	<path id="path15" fill="none" stroke="#404040" stroke-width="0.9222" stroke-linecap="round" stroke-linejoin="round" d="
		M21.6,11.4c85.7-5.4,171.1-5.4,256.9,0"/>
	<path id="path17" fill="none" stroke="#404040" stroke-width="0.9222" stroke-linecap="round" stroke-linejoin="round" d="
		M273.7,189.4c-82.6,5.1-164.8,5.1-247.3,0"/>
</g>
<path id="path21" fill="#AAAAA9" d="M18.9,19.4c0.2-1.4,1.3-2.4,2.7-2.5l0,0l0,0c42.6-2.7,85.5-4.1,128.3-4.1
	c42.8,0,85.6,1.4,128.4,4.1l0,0l0,0c1.3,0.1,2.4,1.1,2.6,2.5l0,0l0,0l0,0c3.8,27.1,5.8,54.4,5.8,81.9c0,24.1-1.5,48.3-4.5,72.2l0,0
	l0,0c-0.5,4.2-3.9,7.4-8.2,7.7l0,0l0,0c-41.3,2.5-82.7,3.8-124.1,3.8c-41.4,0-82.7-1.3-124.1-3.8l0,0l0,0c-4.2-0.3-7.7-3.5-8.2-7.7
	l0,0l0,0c-3-24-4.5-48.1-4.5-72.2C13.1,73.8,15,46.5,18.9,19.4z"/>
<path id="path47_1_" fill="#72899B" d="M17.4,171.4c-2.9-23.6-4.3-46.7-4.3-70.3s1.4-46.7,4.3-70.3c265,0,265,0,265,0
	c2.9,23.6,4.3,46.7,4.3,70.3c-0.1,23.6-1.5,46.7-4.3,70.3H17.4z"/>
<path id="path49" fill="#72899B" stroke="#E30613" stroke-width="0.1537" stroke-miterlimit="10" d="M54.2,36.3h191.6v115.5H54.2
	V36.3L54.2,36.3z"/>
<g>
	<path id="path51_1_" fill="#AAAAA9" d="M30,39.7h-6.8v0.9h12.6v12.5h0.9V39.7H30L30,39.7z"/>
	<path id="path53_1_" fill="#AAAAA9" d="M30,58.7h-6.8v0.9h12.6v12.5h0.9V58.7H30L30,58.7z"/>
	<path id="path55_1_" fill="#AAAAA9" d="M30,96.7h-6.8v0.9h12.6v12.6h0.9V96.7H30L30,96.7z"/>
	<path id="path65_1_" fill="#AAAAA9" d="M30,115.7h-6.8v0.9h12.6v12.6h0.9v-13.6H30L30,115.7z"/>
	<path id="path67_1_" fill="#AAAAA9" d="M269.8,115.7h6.7v0.9H264v12.6h-1v-13.6H269.8L269.8,115.7z"/>
	<path id="path69_1_" fill="#AAAAA9" d="M269.8,96.7h6.7v0.9H264v12.6h-1V96.7H269.8L269.8,96.7z"/>
	<path id="path71_1_" fill="#AAAAA9" d="M269.8,77.7h6.7v0.9H264v12.5h-1V77.7H269.8L269.8,77.7z"/>
	<path id="path73" fill="#AAAAA9" d="M269.8,58.7h6.7v0.9H264v12.5h-1V58.7H269.8L269.8,58.7z"/>
	<path id="path75" fill="#AAAAA9" d="M269.8,39.7h6.7v0.9H264v12.5h-1V39.7H269.8L269.8,39.7z"/>
	<path id="path83" fill="#AAAAA9" d="M30,77.7h-6.8v0.9h12.6v12.6h0.9V77.7H30L30,77.7z"/>
</g>
<g>
	<path id="path59_1_" fill="#ECE7E2" d="M34.4,94.3h2.4v2.4h-2.4V94.3L34.4,94.3z"/>
	<path id="path77" fill="#ECE7E2" d="M263,37.2h2.5v2.5H263V37.2L263,37.2z"/>
	<path id="path85" fill="#ECE7E2" d="M34.4,37.2h2.4v2.5h-2.4V37.2L34.4,37.2z"/>
	<path id="path87" fill="#ECE7E2" d="M34.4,56.2h2.4v2.5h-2.4V56.2L34.4,56.2z"/>
	<path id="path89" fill="#ECE7E2" d="M34.4,75.2h2.4v2.5h-2.4V75.2L34.4,75.2z"/>
	<path id="path103" fill="#ECE7E2" d="M263,56.2h2.5v2.5H263V56.2L263,56.2z"/>
	<path id="path105" fill="#ECE7E2" d="M263,75.2h2.5v2.5H263V75.2L263,75.2z"/>
	<path id="path107" fill="#ECE7E2" d="M263,94.3h2.5v2.4H263V94.3L263,94.3z"/>
	<path id="path123" fill="#ECE7E2" d="M34.4,113.4h2.4v2.4h-2.4V113.4L34.4,113.4z"/>
	<path id="path125_1_" fill="#ECE7E2" d="M263,113.4h2.5v2.4H263V113.4L263,113.4z"/>
</g>
<g>
	<path id="path137" fill="#ECE7E2" d="M265.2,147.4h9.2v9.2h-9.2V147.4L265.2,147.4z"/>
	<path id="path139" fill="#ECE7E2" d="M25.4,147.4h9.2v9.2h-9.2V147.4L25.4,147.4z"/>
</g>
<path id="path141" d="M46.1,28.9h207.5v130.1H46.1V28.9L46.1,28.9z"/>
<path id="path143" fill="#FFFFFF" d="M149.9,36.3c-94.8,0-94.8,0-94.8,0c-0.5,0-0.9,0.4-0.9,0.9c0,113.5,0,113.5,0,113.5
	c0,0.6,0.4,1,0.9,1c189.7,0,189.7,0,189.7,0c0.5,0,0.9-0.4,0.9-1c0-113.5,0-113.5,0-113.5c0-0.5-0.4-0.9-0.9-0.9
	C149.9,36.3,149.9,36.3,149.9,36.3z"/>
<path id="path145" d="M17.6,28.9l-0.3,2.4h265.2l-0.3-2.4H17.6L17.6,28.9z"/>
<g>
	<path id="path163" fill="none" stroke="#000000" stroke-width="0.15" stroke-miterlimit="10" d="M30.1,145.5c-6.1,0-6.1,0-6.1,0
		c-0.3,0-0.5,0.3-0.5,0.5c0,12,0,12,0,12c0,0.3,0.3,0.5,0.5,0.5c12.1,0,12.1,0,12.1,0c0.3,0,0.4-0.3,0.4-0.5c0-12,0-12,0-12
		c0-0.3-0.2-0.5-0.4-0.5H30.1z"/>
	<path id="path165" fill="none" stroke="#000000" stroke-width="0.15" stroke-miterlimit="10" d="M30.1,147c-4.6,0-4.6,0-4.6,0
		c-0.3,0-0.5,0.2-0.5,0.5c0,9.1,0,9.1,0,9.1c0,0.3,0.3,0.5,0.5,0.5c9.2,0,9.2,0,9.2,0c0.3,0,0.4-0.3,0.4-0.5c0-9.1,0-9.1,0-9.1
		c0-0.3-0.2-0.5-0.4-0.5H30.1z"/>
	<path id="path167" fill="none" stroke="#000000" stroke-width="0.15" stroke-miterlimit="10" d="M30.1,145c-6.1,0-6.1,0-6.1,0
		c-0.5,0-1,0.4-1,1c0,12,0,12,0,12c0,0.6,0.5,1,1,1c12,0,12,0,12,0c0.6,0,1-0.4,1-1c0-12,0-12,0-12c0-0.6-0.4-1-1-1H30.1z"/>
	<path id="path169" fill="none" stroke="#000000" stroke-width="0.15" stroke-miterlimit="10" d="M269.8,145.5c-6.1,0-6.1,0-6.1,0
		c-0.3,0-0.4,0.3-0.4,0.5c0,12.1,0,12.1,0,12.1c0,0.3,0.2,0.4,0.4,0.4c12.1,0,12.1,0,12.1,0c0.3,0,0.4-0.2,0.4-0.4
		c0-12.1,0-12.1,0-12.1c0-0.3-0.2-0.5-0.4-0.5H269.8z"/>
	<path id="path171" fill="none" stroke="#000000" stroke-width="0.15" stroke-miterlimit="10" d="M269.8,147c-4.6,0-4.6,0-4.6,0
		c-0.3,0-0.5,0.3-0.5,0.5c0,9.2,0,9.2,0,9.2c0,0.3,0.3,0.4,0.5,0.4c9.2,0,9.2,0,9.2,0c0.3,0,0.4-0.2,0.4-0.4c0-9.2,0-9.2,0-9.2
		c0-0.3-0.2-0.5-0.4-0.5H269.8z"/>
	<path id="path173" fill="none" stroke="#000000" stroke-width="0.15" stroke-miterlimit="10" d="M269.8,145.1c-6.1,0-6.1,0-6.1,0
		c-0.5,0-0.9,0.4-0.9,0.9c0,12,0,12,0,12c0,0.6,0.4,1,0.9,1c12.1,0,12.1,0,12.1,0c0.5,0,0.9-0.4,0.9-1c0-12,0-12,0-12
		c0-0.5-0.4-0.9-0.9-0.9H269.8z"/>
</g>
<g id="Logo">
	<g id="Logo_2_">
		<rect x="54.6" y="19.7" fill="#FFFFFF" width="26.1" height="6.3"/>
		<path fill="#128587" d="M54.2,26.4v-7.2h27v7.2H54.2z M58.4,21.1c-0.3-0.1-0.7-0.1-1-0.1c-0.5,0-0.8,0.1-1.1,0.3
			c-0.3,0.2-0.4,0.5-0.4,0.8c0,0.4,0.3,0.8,0.8,1l0.7,0.3c0.2,0.1,0.3,0.2,0.3,0.3c0,0.2-0.2,0.3-0.7,0.3c-0.3,0-0.6-0.1-1.1-0.2
			v0.7c0.2,0,0.4,0.1,0.6,0.1c0.2,0,0.4,0.1,0.5,0.1c0.5,0,0.9-0.1,1.2-0.3s0.4-0.5,0.4-0.8c0-0.5-0.3-0.8-0.8-1.1l-0.7-0.3
			C57.1,22.1,57,22.1,57,22c-0.1,0-0.1-0.1-0.1-0.2c0-0.2,0.2-0.3,0.6-0.3c0.2,0,0.3,0,0.5,0c0.1,0,0.3,0.1,0.5,0.1L58.4,21.1
			L58.4,21.1z M60.3,21h-1.1v3.6h1.1V21z M63.8,21h-2.7v3.6h2.7V24h-1.6v-0.9h1.4v-0.6h-1.4v-0.8h1.6V21z M68.9,21h-1.3l-0.9,2.2
			L65.8,21h-1.3v3.6h0.7v-2.4l1,2.4h0.7l1-2.4v2.4h1V21L68.9,21z M72.4,21h-2.7v3.6h2.7V24h-1.7v-0.9h1.4v-0.6h-1.4v-0.8h1.6V21z
			 M76.2,21h-0.7v2.3L74.3,21h-1.2v3.6h0.7v-2.3l1.3,2.3h1.1V21z M79.4,21.1c-0.4-0.1-0.7-0.1-1.1-0.1c-0.5,0-0.8,0.1-1.1,0.3
			c-0.3,0.2-0.4,0.5-0.4,0.8c0,0.4,0.3,0.8,0.8,1l0.7,0.3c0.1,0.1,0.2,0.1,0.2,0.2c0,0,0.1,0.1,0.1,0.2c0,0.2-0.2,0.3-0.6,0.3
			c-0.2,0-0.6-0.1-1.1-0.2v0.7c0.2,0,0.4,0.1,0.6,0.1c0.2,0,0.4,0.1,0.6,0.1c0.5,0,0.8-0.1,1.1-0.3c0.3-0.2,0.4-0.5,0.4-0.9
			c0-0.2-0.1-0.4-0.2-0.6c-0.1-0.2-0.3-0.3-0.6-0.4l-0.7-0.3c-0.2-0.1-0.3-0.2-0.3-0.3c0-0.2,0.2-0.3,0.6-0.3c0.2,0,0.3,0,0.5,0
			c0.1,0,0.3,0.1,0.5,0.1V21.1z"/>
	</g>
</g>
<g id="Typo">
	<g id="Name_2_">
		<text transform="matrix(0.9964 0 0 1 208.271 25.1719)" font-family="'SiemensSans-Roman'" font-size="6.8417">SIMATIC HMI</text>
	</g>
	<g>
		<text transform="matrix(1.05 0 0 1 30.1353 39.3291)" font-family="'SiemensSans-Roman'" font-size="3.1916">F1</text>
		<text transform="matrix(1.05 0 0 1 30.1353 58.3872)" font-family="'SiemensSans-Roman'" font-size="3.1916">F3</text>
		<text transform="matrix(1.05 0 0 1 30.1353 77.4453)" font-family="'SiemensSans-Roman'" font-size="3.1916">F5</text>
		<text transform="matrix(1.05 0 0 1 30.1353 96.5034)" font-family="'SiemensSans-Roman'" font-size="3.1916">F7</text>
		<text transform="matrix(1.05 0 0 1 30.1353 115.5615)" font-family="'SiemensSans-Roman'" font-size="3.1916">F9</text>
		<text transform="matrix(1.05 0 0 1 266.1094 39.3291)" font-family="'SiemensSans-Roman'" font-size="3.1916">F2</text>
		<text transform="matrix(1.05 0 0 1 266.1094 58.3872)" font-family="'SiemensSans-Roman'" font-size="3.1916">F4</text>
		<text transform="matrix(1.05 0 0 1 266.1094 77.4453)" font-family="'SiemensSans-Roman'" font-size="3.1916">F6</text>
		<text transform="matrix(1.05 0 0 1 266.1094 96.5034)" font-family="'SiemensSans-Roman'" font-size="3.1916">F8</text>
		<text transform="matrix(1.05 0 0 1 266.1094 115.5615)" font-family="'SiemensSans-Roman'" font-size="3.1916">F1</text>
		<text transform="matrix(1.05 0 0 1 269.2207 115.5615)" font-family="'SiemensSans-Roman'" font-size="3.1916">0</text>
	</g>
	<text transform="matrix(1.05 0 0 1 26.3477 144.0815)" font-family="'SiemensSans-Roman'" font-size="3.1916">K1/</text>
	<text transform="matrix(1.05 0 0 1 265.8994 144.0815)" font-family="'SiemensSans-Roman'" font-size="3.1916">K2/</text>
	<g>
		<circle fill="none" stroke="#000000" stroke-width="0.2556" stroke-miterlimit="10" cx="32.5" cy="143" r="1.1"/>
		<line fill="none" stroke="#000000" stroke-width="0.2842" stroke-miterlimit="10" x1="32.5" y1="143.7" x2="32.5" y2="142.3"/>
		<circle fill="none" stroke="#000000" stroke-width="0.2556" stroke-miterlimit="10" cx="272" cy="143" r="1.1"/>
		<line fill="none" stroke="#000000" stroke-width="0.2842" stroke-miterlimit="10" x1="272" y1="143.7" x2="272" y2="142.3"/>
	</g>
</g>
</svg>
