<?xml version="1.0" encoding="utf-8"?>

<!-- Copyright 2016 Siemens AG -->

<!-- Generator: Adobe Illustrator 16.0.4, SVG Export Plug-In . SVG Version: 6.00 Build 0)  -->
<!DOCTYPE svg PUBLIC "-//W3C//DTD SVG 1.1//EN" "http://www.w3.org/Graphics/SVG/1.1/DTD/svg11.dtd">
<svg version="1.1" id="Smoke_3" xmlns="http://www.w3.org/2000/svg" xmlns:xlink="http://www.w3.org/1999/xlink" x="0px" y="0px"
	 width="300px" height="165px" viewBox="0 0 300 165" enable-background="new 0 0 300 165" xml:space="preserve">
<radialGradient id="Shape_Smoke_1_" cx="152.5635" cy="44.8374" r="160.4498" gradientUnits="userSpaceOnUse">
	<stop  offset="0" style="stop-color:#FFFFFF"/>
	<stop  offset="1" style="stop-color:#7C7C7B"/>
</radialGradient>
<path id="Shape_Smoke" fill="url(#Shape_Smoke_1_)" stroke="#8C8C91" stroke-width="0.75" stroke-linecap="round" stroke-linejoin="round" stroke-miterlimit="10" d="
	M170,162.7h-23.6c0,0-9.7-13.9-4.2-15.3c-5.6-22.2-19.4-27.8-19.4-27.8s-9.7-2.8-2.8-6.9c0-4.2-23.6,1.4-27.7-11.1
	c-12.5,6.9-19.4-4.2-19.4-4.2s-19.4,11.1-30.5-8.3c-16.6,9.7-19.4-2.8-18-5.6c-13.9,8.3-38.7-19.2-5.4-23.4c0-9.7,8.2-9.9,8.2-9.9
	S35,21.2,62.8,36.4c1.4-9.7,6.9-8.3,11.1-5.5c15.3-52.7,69.4-18,68-12.5c12.5-4.2,15.3,4.2,15.3,4.2s5.5-19.4,27.7-2.8
	c9.7-30.5,31.8-8.3,31.8-8.3s5.7-1.4,15.4,9.7c16.7-5.5,47.2-12.5,52.7,37.5c30.5,18-1.4,33.3-11.1,22.2c0,0-20.8,23.6-37.5,13.9
	c-16.6-9.7-13.5,5.5-25.9,0c2.8,5.5,0,8.3-12.5,6.9c4.2,8.3,0,11.1-5.5,12.5c2.8,1.4-16,12.3-15.3,16.6c1.4,8.3-2.8,16.6-5.5,16.6
	C174.2,153,170,162.7,170,162.7z"/>
<g id="Smoke_Shadows">
	<path id="Shadow_16" fill="#8C8C91" d="M161.7,98.9c1.4,1.4,4.2,9.7,16.6-1.4C178.4,97.5,167.3,103,161.7,98.9z"/>
	<path id="Shadow_15" fill="#8C8C91" d="M146.5,99.1c1.4,1.4,5.6,15.3,25-1.4C171.4,97.7,158.9,107.4,146.5,99.1z"/>
	<path id="Shadow_14" fill="#8C8C91" d="M135.4,98.9c1.4,1.4,2.8,12.5,15.3,1.4C150.6,100.2,140.9,105.8,135.4,98.9z"/>
	<path id="Shadow_13" fill="#8C8C91" d="M254.7,61.6c1.4,1.4,5.6,15.3,25-1.4C279.7,60.2,267.2,69.9,254.7,61.6z"/>
	<path id="Shadow_12" fill="#8C8C91" d="M239.4,64.4c1.4,1.4,5.5,15.3,25-1.4C264.4,63,251.9,72.7,239.4,64.4z"/>
	<path id="Shadow_11" fill="#8C8C91" d="M220,61.4c1.4,1.4,5.5,22,25,5.3C245,66.7,229.7,77.8,220,61.4z"/>
	<path id="Shadow_10" fill="#8C8C91" d="M202,60c1.4,1.4,15.3,27.1,27.7,9C229.7,69,220,78.8,202,60z"/>
	<path id="Shadow_9" fill="#8C8C91" d="M178.4,51.6c1.4,1.4,4.2,9.7,16.7-1.4C195,50.2,183.9,55.7,178.4,51.6z"/>
	<path id="Shadow_8" fill="#8C8C91" d="M158.9,53.3c1.4,1.4,5.6,15.3,25-1.4C183.9,51.9,171.4,61.6,158.9,53.3z"/>
	<path id="Shadow_7_1_" fill="#8C8C91" d="M158.9,44.8c1.4,1.4,5.6,15.3,25-1.4C183.9,43.4,171.4,53.1,158.9,44.8z"/>
	<path id="Shadow_6" fill="#8C8C91" d="M135.4,50.3c1.4,1.4,16.6,19.4,37.5-1.4C172.8,48.9,158.9,62.8,135.4,50.3z"/>
	<path id="Shadow_5" fill="#8C8C91" d="M124.3,50.3c1.4,1.4,4.2,9.7,16.7-1.4C140.9,48.9,129.8,54.5,124.3,50.3z"/>
	<path id="Shadow_4" fill="#8C8C91" d="M89.6,68.3c1.4,1.4,8.3,12.5,20.8-1.4C110.4,67,97.9,76.7,89.6,68.3z"/>
	<path id="Shadow_3" fill="#8C8C91" d="M66,76.7c1.4,1.4,5.5,15.3,25-1.4C91,75.3,78.5,85,66,76.7z"/>
	<path id="Shadow_2" fill="#8C8C91" d="M57.7,65.6C59,66.9,74.3,85,95.1,64.2C95.1,64.2,81.2,78,57.7,65.6z"/>
	<path id="Shadow_1" fill="#8C8C91" d="M67.4,75.3c-1.4,1.4-22.2,22.2-37.5-2.8C29.9,72.5,43.8,87.8,67.4,75.3z"/>
</g>
</svg>
