<?xml version="1.0" encoding="utf-8"?>

<!-- Copyright 2016 Siemens AG -->

<!-- Generator: Adobe Illustrator 16.0.4, SVG Export Plug-In . SVG Version: 6.00 Build 0)  -->
<!DOCTYPE svg PUBLIC "-//W3C//DTD SVG 1.1//EN" "http://www.w3.org/Graphics/SVG/1.1/DTD/svg11.dtd">
<svg version="1.1" id="Flame" xmlns="http://www.w3.org/2000/svg" xmlns:xlink="http://www.w3.org/1999/xlink" x="0px" y="0px"
	 width="109px" height="300px" viewBox="0 0 109 300" enable-background="new 0 0 109 300" xml:space="preserve">
<path id="Shape" fill="#FFEE00" stroke="#FFC700" stroke-width="0.75" stroke-linecap="round" stroke-linejoin="round" stroke-miterlimit="10" d="
	M14.5,164.4c-24.7-30.6-5.6-49.9-0.7-58.8c11.8-21.2-0.3-37.7,1.2-36.5c9.2,7.4,16.5,18,11.7,36c-3.8,14.3,4.8,31,13,28.9
	c9-2.4,14.9-27.6-1.8-51.2C10.5,44,59.1,2.1,59.1,2.1c-18.3,33.2-10.3,73,5.7,74.5c31.6,3,10.1-49.1,10.1-49.1
	c37.7,30.9,37.9,79.2,21.5,105.3c-39.5,62.7,70.1,77-41.7,165.1C-40.7,216.7,28.3,214.8,14.5,164.4z"/>
</svg>
