<?xml version="1.0" encoding="utf-8"?>

<!-- Copyright 2016 Siemens AG -->

<!-- Generator: Adobe Illustrator 16.0.4, SVG Export Plug-In . SVG Version: 6.00 Build 0)  -->
<!DOCTYPE svg PUBLIC "-//W3C//DTD SVG 1.1//EN" "http://www.w3.org/Graphics/SVG/1.1/DTD/svg11.dtd">
<svg version="1.1" id="Gear_Wheels_1" xmlns="http://www.w3.org/2000/svg" xmlns:xlink="http://www.w3.org/1999/xlink" x="0px"
	 y="0px" width="300px" height="268px" viewBox="0 0 300 268" enable-background="new 0 0 300 268" xml:space="preserve">
<g id="Small_Gear">
	<linearGradient id="Shape_Gear_1_" gradientUnits="userSpaceOnUse" x1="163.3677" y1="110.0981" x2="322.8677" y2="325.0981">
		<stop  offset="0" style="stop-color:#FFFFFF"/>
		<stop  offset="1" style="stop-color:#7C7C7B"/>
	</linearGradient>
	
		<path id="Shape_Gear" fill="url(#Shape_Gear_1_)" stroke="#8C8C91" stroke-width="0.75" stroke-linecap="round" stroke-linejoin="round" stroke-miterlimit="10" d="
		M280.3,144.9l-8.3-8.3l-16,10.2c-2.5-1.7-5.1-3.2-7.8-4.5l0.8-18.9l-11.3-3l-8.7,16.8c-3-0.2-6-0.2-9,0l-8.7-16.8l-11.3,3l0.8,18.9
		c-2.7,1.3-5.3,2.8-7.8,4.5l-16-10.2l-8.3,8.3l10.2,16c-1.7,2.5-3.2,5.1-4.5,7.8l-18.9-0.8l-3,11.3l16.8,8.7c-0.2,3-0.2,6,0,9
		l-16.8,8.7l3,11.3l18.9-0.8c1.3,2.7,2.8,5.3,4.5,7.8l-10.2,16l8.3,8.3l16-10.2c2.5,1.7,5.1,3.2,7.8,4.5l-0.8,18.9l11.3,3l8.7-16.8
		c3,0.2,6,0.2,9,0l8.7,16.8l11.3-3l-0.8-18.9c2.7-1.3,5.3-2.8,7.8-4.5l16,10.2l8.3-8.3l-10.2-16c1.7-2.5,3.2-5.1,4.5-7.8l18.9,0.8
		l3-11.3l-16.8-8.7c0.2-3,0.2-6,0-9l16.8-8.7l-3-11.3l-18.9,0.8c-1.3-2.7-2.8-5.3-4.5-7.8L280.3,144.9z M241,209
		c-9.1,9.1-23.9,9.1-33.1,0c-9.1-9.1-9.1-23.9,0-33.1c9.1-9.1,23.9-9.1,33.1,0C250.1,185.1,250.1,199.9,241,209z"/>
	<linearGradient id="Hollow_Ring_1_" gradientUnits="userSpaceOnUse" x1="267.6377" y1="235.6313" x2="159.6997" y2="127.6933">
		<stop  offset="0" style="stop-color:#FFFFFF"/>
		<stop  offset="1" style="stop-color:#7C7C7B"/>
	</linearGradient>
	<path id="Hollow_Ring_3_" fill="url(#Hollow_Ring_1_)" d="M224.5,149.1c-24,0-43.4,19.4-43.4,43.4c0,24,19.4,43.4,43.4,43.4
		c24,0,43.4-19.4,43.4-43.4C267.9,168.5,248.4,149.1,224.5,149.1z M224.5,228.2c-19.7,0-35.7-16-35.7-35.7c0-19.7,16-35.7,35.7-35.7
		c19.7,0,35.7,16,35.7,35.7C260.2,212.2,244.2,228.2,224.5,228.2z"/>
</g>
<g id="Big_Gear">
	<linearGradient id="Shape_Gear_3_" gradientUnits="userSpaceOnUse" x1="3.626" y1="3.7227" x2="240.336" y2="240.4327">
		<stop  offset="0" style="stop-color:#FFFFFF"/>
		<stop  offset="1" style="stop-color:#7C7C7B"/>
	</linearGradient>
	
		<path id="Shape_Gear_2_" fill="url(#Shape_Gear_3_)" stroke="#8C8C91" stroke-width="0.75" stroke-linecap="round" stroke-linejoin="round" stroke-miterlimit="10" d="
		M157.9,166.3l8.3-8.3L154,135.3c1.9-2.8,3.6-5.7,5-8.7l25.8-0.8l3-11.3l-22-13.6c0.2-3.3,0.2-6.7,0-10l22-13.6l-3-11.3L159,65.3
		c-1.5-3-3.1-5.9-5-8.7l12.2-22.7l-8.3-8.3l-22.7,12.2c-2.8-1.9-5.7-3.5-8.7-5L125.8,7l-11.3-3l-13.6,22c-3.3-0.2-6.7-0.2-10,0
		L77.3,4L66,7l-0.8,25.8c-3,1.4-5.9,3.1-8.7,5L33.8,25.6l-8.3,8.3l12.2,22.7c-1.9,2.8-3.5,5.7-5,8.7L6.9,66.1l-3,11.3l22,13.6
		c-0.2,3.3-0.2,6.7,0,10l-22,13.6l3,11.3l25.8,0.8c1.5,3,3.1,5.9,5,8.7L25.5,158l8.3,8.3l22.7-12.2c2.8,1.9,5.7,3.5,8.7,5l0.8,25.8
		l11.3,3l13.6-22c3.3,0.2,6.7,0.2,10,0l13.6,22l11.3-3l0.8-25.8c3-1.5,5.9-3.1,8.7-5L157.9,166.3z M73.1,118.7
		c-12.6-12.6-12.6-33,0-45.5c12.6-12.6,33-12.6,45.5,0c12.6,12.6,12.6,33,0,45.5C106.1,131.3,85.7,131.3,73.1,118.7z"/>
	<linearGradient id="Hollow_Ring_2_" gradientUnits="userSpaceOnUse" x1="151.1807" y1="151.2773" x2="12.8415" y2="12.9382">
		<stop  offset="0" style="stop-color:#FFFFFF"/>
		<stop  offset="1" style="stop-color:#7C7C7B"/>
	</linearGradient>
	<path id="Hollow_Ring" fill="url(#Hollow_Ring_2_)" d="M95.9,40.3c-30.7,0-55.6,24.9-55.6,55.6s24.9,55.6,55.6,55.6
		c30.7,0,55.6-24.9,55.6-55.6S126.6,40.3,95.9,40.3z M95.9,141.7c-25.3,0-45.8-20.5-45.8-45.8c0-25.3,20.5-45.8,45.8-45.8
		c25.3,0,45.8,20.5,45.8,45.8C141.7,121.2,121.1,141.7,95.9,141.7z"/>
</g>
</svg>
