<?xml version="1.0" encoding="utf-8"?>

<!-- Copyright 2016 Siemens AG -->

<!-- Generator: Adobe Illustrator 16.0.4, SVG Export Plug-In . SVG Version: 6.00 Build 0)  -->
<!DOCTYPE svg PUBLIC "-//W3C//DTD SVG 1.1//EN" "http://www.w3.org/Graphics/SVG/1.1/DTD/svg11.dtd">
<svg version="1.1" id="Gear" xmlns="http://www.w3.org/2000/svg" xmlns:xlink="http://www.w3.org/1999/xlink" x="0px" y="0px"
	 width="300px" height="300px" viewBox="0 0 300 300" enable-background="new 0 0 300 300" xml:space="preserve">
<linearGradient id="Shape_Gear_1_" gradientUnits="userSpaceOnUse" x1="24.251" y1="24.25" x2="342.3987" y2="342.3977">
	<stop  offset="0" style="stop-color:#FFFFFF"/>
	<stop  offset="1" style="stop-color:#7C7C7B"/>
</linearGradient>
<path id="Shape_Gear" fill="url(#Shape_Gear_1_)" stroke="#8C8C91" stroke-width="0.75" stroke-linecap="round" stroke-linejoin="round" stroke-miterlimit="10" d="
	M298,159.2v-18.5L259,129c-1-5.3-2.4-10.4-4.1-15.3l28-29.7l-9.2-16l-39.7,9.4c-3.5-4-7.2-7.7-11.2-11.2l9.4-39.7l-16-9.2l-29.7,28
	c-5-1.7-10.1-3.1-15.3-4.1L159.2,2h-18.5L129,41c-5.3,1-10.4,2.4-15.3,4.1L84,17.2l-16,9.2l9.4,39.7c-4,3.5-7.7,7.2-11.2,11.2
	L26.4,68l-9.2,16l28,29.7c-1.7,5-3.1,10.1-4.2,15.3L2,140.8v18.5L41,171c1,5.3,2.4,10.4,4.2,15.3l-28,29.7l9.2,16l39.7-9.4
	c3.5,4,7.2,7.7,11.2,11.2L68,273.5l16,9.2l29.7-28c5,1.7,10.1,3.1,15.3,4.1l11.7,39h18.5l11.7-39c5.3-1,10.4-2.4,15.3-4.1l29.7,28
	l16-9.2l-9.4-39.7c4-3.5,7.7-7.2,11.2-11.2l39.7,9.4l9.2-16l-28-29.7c1.7-5,3.1-10.1,4.1-15.3L298,159.2z M150,200.9
	c-28.1,0-50.9-22.8-50.9-50.9s22.8-50.9,50.9-50.9c28.1,0,50.9,22.8,50.9,50.9S178.1,200.9,150,200.9z"/>
<linearGradient id="Hollow_Ring_1_" gradientUnits="userSpaceOnUse" x1="237.417" y1="237.417" x2="18.8132" y2="18.8132">
	<stop  offset="0" style="stop-color:#FFFFFF"/>
	<stop  offset="1" style="stop-color:#7C7C7B"/>
</linearGradient>
<path id="Hollow_Ring" fill="url(#Hollow_Ring_1_)" d="M150,62.1c-48.5,0-87.9,39.3-87.9,87.9s39.3,87.9,87.9,87.9
	s87.9-39.3,87.9-87.9S198.5,62.1,150,62.1z M150,222.4c-40,0-72.4-32.4-72.4-72.4S110,77.6,150,77.6s72.4,32.4,72.4,72.4
	S190,222.4,150,222.4z"/>
</svg>
