<?xml version="1.0" encoding="utf-8"?>

<!-- Copyright 2016 Siemens AG -->

<!-- Generator: Adobe Illustrator 16.0.4, SVG Export Plug-In . SVG Version: 6.00 Build 0)  -->
<!DOCTYPE svg PUBLIC "-//W3C//DTD SVG 1.1//EN" "http://www.w3.org/Graphics/SVG/1.1/DTD/svg11.dtd">
<svg version="1.1" id="Smoke" xmlns="http://www.w3.org/2000/svg" xmlns:xlink="http://www.w3.org/1999/xlink" x="0px" y="0px"
	 width="300px" height="289px" viewBox="0 0 300 289" enable-background="new 0 0 300 289" xml:space="preserve">
<radialGradient id="Shape_Smoke_1_" cx="140.9517" cy="104.8018" r="251.17" gradientUnits="userSpaceOnUse">
	<stop  offset="0" style="stop-color:#FFFFFF"/>
	<stop  offset="1" style="stop-color:#7C7C7B"/>
</radialGradient>
<path id="Shape_Smoke" fill="url(#Shape_Smoke_1_)" stroke="#8C8C91" stroke-width="0.75" stroke-linecap="round" stroke-linejoin="round" stroke-miterlimit="10" d="
	M206.6,286.7H104c0,0-42.3-60.4-18.1-66.4C96.3,141.7,55,147.8,55,147.8s-67.3,6-31.9-40.9C-30.5,69.3,33.2,5.5,66.2,51.1
	c-26.4-33.6,108.7-90.6,138.9,0c102.7-36.2,131.9,65,26.4,72.5c52.4,19.5,5.9,28.1-6.7,32.2c-49.9,16.1,19.2,61-12.1,64.4
	C224.8,244.4,206.6,286.7,206.6,286.7z"/>
<g id="Smoke_Shadows">
	<path id="Right" fill="#8C8C91" d="M164.4,99.5c6,6,18.1,42.3,72.5-6C236.8,93.4,188.5,117.6,164.4,99.5z"/>
	<path id="Middle" fill="#8C8C91" d="M97.9,100.3c6,6,24.2,66.4,108.7-6C206.7,94.3,152.3,136.6,97.9,100.3z"/>
	<path id="Left" fill="#8C8C91" d="M49.6,99.5c6,6,12.1,54.4,66.4,6C116.1,105.5,73.8,129.7,49.6,99.5z"/>
</g>
</svg>
