<?xml version="1.0" encoding="utf-8"?>

<!-- Copyright 2016 Siemens AG -->

<!-- Generator: Adobe Illustrator 16.0.4, SVG Export Plug-In . SVG Version: 6.00 Build 0)  -->
<!DOCTYPE svg PUBLIC "-//W3C//DTD SVG 1.1//EN" "http://www.w3.org/Graphics/SVG/1.1/DTD/svg11.dtd">
<svg version="1.1" id="CPU_x5F_S71200_x5F_1215C" xmlns="http://www.w3.org/2000/svg" xmlns:xlink="http://www.w3.org/1999/xlink"
	 x="0px" y="0px" width="300px" height="269px" viewBox="0 0 300 269" enable-background="new 0 0 300 269" xml:space="preserve">
<path id="path10" fill="#536270" d="M2,2v264.6h296V2H2z"/>
<path id="path12" fill="#617485" d="M2,15.1v239.3h296V15.1H2z"/>
<path id="path32" fill="#617485" d="M49.8,254.1l-4.5,2.7l-3.6,2.1l-4.2,1.5l-2.1,0.6l-5.7,0.6H2v-7.5H49.8z"/>
<path id="path34" fill="none" stroke="#74889A" stroke-width="10.4541" stroke-miterlimit="10" d="M2,104.7h296"/>
<path id="path36" fill="none" stroke="#74889A" stroke-width="10.4541" stroke-miterlimit="10" d="M2,169h296"/>
<path id="path38" fill="none" stroke="#617485" stroke-width="0.8961" stroke-miterlimit="10" d="M9.2,98.8V111"/>
<path id="path40" fill="none" stroke="#617485" stroke-width="0.8961" stroke-miterlimit="10" d="M9.2,163.6v11.4"/>
<path id="path42" fill="none" stroke="#617485" stroke-width="0.8961" stroke-miterlimit="10" d="M291.7,98.8V111"/>
<path id="path44" fill="none" stroke="#617485" stroke-width="0.8961" stroke-miterlimit="10" d="M291.7,163.6v11.4"/>
<path id="path52" fill="none" stroke="#536270" stroke-width="1.4934" stroke-miterlimit="10" d="M50.7,76.7h107.5v117.7H50.7V76.7z
	"/>
<path id="path54" fill="#536270" d="M282.8,25.9v29.9h14.9V25.9H282.8z"/>
<path id="path56" fill="#A8D9E7" d="M288.7,18.7v44.2h4.8V18.7H288.7z"/>
<path id="path96" fill="#BCC2CD" d="M174.6,102.7v4.2h4.2v-4.2H174.6z"/>
<path id="path98" fill="#BCC2CD" d="M182.1,102.7v4.2h4.2v-4.2H182.1z"/>
<path id="path100" fill="#BCC2CD" d="M189.6,102.7v4.2h4.2v-4.2H189.6z"/>
<path id="path102" fill="#BCC2CD" d="M197,102.7v4.2h4.2v-4.2H197z"/>
<path id="path104" fill="#BCC2CD" d="M204.5,102.7v4.2h4.2v-4.2H204.5z"/>
<path id="path106" fill="#BCC2CD" d="M212,102.7v4.2h4.2v-4.2H212z"/>
<path id="path108" fill="#BCC2CD" d="M219.4,102.7v4.2h4.2v-4.2H219.4z"/>
<path id="path110" fill="#BCC2CD" d="M226.9,102.7v4.2h4.2v-4.2H226.9z"/>
<path id="path112" fill="#BCC2CD" d="M238.9,102.7v4.2h4.2v-4.2H238.9z"/>
<path id="path114" fill="#BCC2CD" d="M246.3,102.7v4.2h4.2v-4.2H246.3z"/>
<path id="path116" fill="#BCC2CD" d="M253.8,102.7v4.2h4.2v-4.2H253.8z"/>
<path id="path118" fill="#BCC2CD" d="M261.3,102.7v4.2h4.2v-4.2H261.3z"/>
<path id="path120" fill="#BCC2CD" d="M268.7,102.7v4.2h4.2v-4.2H268.7z"/>
<path id="path122" fill="#BCC2CD" d="M276.2,102.7v4.2h4.2v-4.2H276.2z"/>
<path id="path190" fill="#BCC2CD" d="M174.6,166.9v4.2h4.2v-4.2H174.6z"/>
<path id="path192" fill="#BCC2CD" d="M182.1,166.9v4.2h4.2v-4.2H182.1z"/>
<path id="path194" fill="#BCC2CD" d="M189.6,166.9v4.2h4.2v-4.2H189.6z"/>
<path id="path196" fill="#BCC2CD" d="M197,166.9v4.2h4.2v-4.2H197z"/>
<path id="path198" fill="#BCC2CD" d="M204.5,166.9v4.2h4.2v-4.2H204.5z"/>
<path id="path200" fill="#BCC2CD" d="M212,166.9v4.2h4.2v-4.2H212z"/>
<path id="path202" fill="#BCC2CD" d="M219.4,166.9v4.2h4.2v-4.2H219.4z"/>
<path id="path204" fill="#BCC2CD" d="M226.9,166.9v4.2h4.2v-4.2H226.9z"/>
<path id="path206" fill="#BCC2CD" d="M238.9,166.9v4.2h4.2v-4.2H238.9z"/>
<path id="path208" fill="#BCC2CD" d="M246.3,166.9v4.2h4.2v-4.2H246.3z"/>
<path id="path210" fill="#BCC2CD" d="M253.8,166.9v4.2h4.2v-4.2H253.8z"/>
<path id="path212" fill="#BCC2CD" d="M261.3,166.9v4.2h4.2v-4.2H261.3z"/>
<path id="path214" fill="#BCC2CD" d="M268.7,166.9v4.2h4.2v-4.2H268.7z"/>
<path id="path216" fill="#BCC2CD" d="M276.2,166.9v4.2h4.2v-4.2H276.2z"/>
<path id="path290" fill="#BCC2CD" d="M14.5,102.7v4.2h4.2v-4.2H14.5z"/>
<path id="path292" fill="#BCC2CD" d="M22,102.7v4.2h4.2v-4.2H22z"/>
<path id="path294" fill="#BCC2CD" d="M29.5,102.7v4.2h4.2v-4.2H29.5z"/>
<path id="path32_2_" fill="#617485" d="M250.2,15.1l4.5-2.7l3.6-2.1l4.2-1.5l2.1-0.6l5.7-0.6H298v7.5H250.2z"/>
<g id="Logo">
	<g>
		<rect x="14.5" y="24.4" fill="#FFFFFF" width="47.9" height="11.5"/>
		<path fill="#128587" d="M13.6,36.7V23.5h49.6v13.2H13.6z M21.5,26.9c-0.6-0.1-1.2-0.2-1.9-0.2c-0.8,0-1.5,0.2-2,0.5
			c-0.5,0.4-0.8,0.8-0.8,1.5c0,0.8,0.5,1.4,1.5,1.9l1.3,0.6c0.4,0.1,0.5,0.3,0.5,0.6c0,0.4-0.4,0.6-1.2,0.6c-0.5,0-1.2-0.1-2-0.4
			v1.3c0.4,0.1,0.7,0.1,1.1,0.2c0.4,0.1,0.7,0.1,1,0.1c0.9,0,1.6-0.2,2.1-0.6c0.5-0.4,0.8-0.9,0.8-1.6c0-0.8-0.5-1.5-1.5-1.9
			L19.4,29c-0.3-0.1-0.4-0.2-0.5-0.3c-0.1-0.1-0.1-0.2-0.1-0.3c0-0.3,0.3-0.5,1-0.5c0.3,0,0.6,0,0.9,0.1c0.3,0,0.6,0.1,0.9,0.2V26.9
			L21.5,26.9z M25,26.8H23v6.6H25V26.8z M31.4,26.8h-4.9v6.6h4.9v-1.2h-3v-1.6H31v-1.1h-2.6V28h3V26.8z M40.8,26.8h-2.4l-1.7,4
			l-1.7-4h-2.4v6.6h1.3v-4.4l1.9,4.4H37l1.9-4.4v4.4h1.9L40.8,26.8L40.8,26.8z M47.2,26.8h-4.9v6.6h5v-1.2h-3.1v-1.6h2.6v-1.1h-2.6
			V28h3V26.8L47.2,26.8z M54.2,26.8h-1.3V31l-2.4-4.2h-2.2v6.6h1.3v-4.2l2.4,4.2h2.1V26.8L54.2,26.8z M60,26.9
			c-0.7-0.1-1.3-0.2-1.9-0.2c-0.9,0-1.5,0.2-2,0.5c-0.5,0.4-0.7,0.8-0.7,1.5c0,0.8,0.5,1.4,1.4,1.9l1.3,0.6c0.2,0.1,0.4,0.2,0.4,0.3
			c0.1,0.1,0.1,0.2,0.1,0.3c0,0.4-0.4,0.6-1.1,0.6c-0.5,0-1.1-0.1-2.1-0.4v1.3c0.3,0.1,0.7,0.1,1.1,0.2c0.4,0.1,0.8,0.1,1.1,0.1
			c0.9,0,1.6-0.2,2.1-0.6c0.5-0.4,0.8-0.9,0.8-1.6c0-0.4-0.1-0.8-0.4-1.1c-0.2-0.3-0.6-0.6-1.1-0.8L57.7,29
			c-0.4-0.2-0.6-0.4-0.6-0.6c0-0.3,0.4-0.5,1-0.5c0.3,0,0.6,0,0.9,0.1c0.3,0,0.6,0.1,0.9,0.2V26.9L60,26.9z"/>
	</g>
</g>
<g id="Typo">
	<g>
		<text transform="matrix(1 0 0 1 192.4302 32.7017)" fill="#FFFFFF" font-family="'SiemensSans-Roman'" font-size="10.1962">SIMATIC S7-1200</text>
		<text transform="matrix(1 0 0 1 239.5586 134.0205)" fill="#FFFFFF" font-family="'SiemensSans-Roman'" font-size="9.5666">CPU 1215C</text>
		<text transform="matrix(1 0 0 1 242.4561 142.981)" fill="#FFFFFF" font-family="'SiemensSans-Roman'" font-size="9.5666">DC/DC/DC</text>
		<text transform="matrix(1 0 0 1 165.8755 115.501)" fill="#FFFFFF" font-family="'SiemensSans-Roman'" font-size="4.7763">DI</text>
		<text transform="matrix(1 0 0 1 171.4976 115.501)" fill="#FFFFFF" font-family="'SiemensSans-Roman'" font-size="4.7763">  01</text>
		<text transform="matrix(1 0 0 1 179.5913 115.501)" fill="#FFFFFF" font-family="'SiemensSans-Roman'" font-size="4.7763"> 02</text>
		<text transform="matrix(1 0 0 1 187.0503 115.501)" fill="#FFFFFF" font-family="'SiemensSans-Roman'" font-size="4.7763"> 03</text>
		<text transform="matrix(1 0 0 1 194.5098 115.501)" fill="#FFFFFF" font-family="'SiemensSans-Roman'" font-size="4.7763"> 04</text>
		<text transform="matrix(1 0 0 1 201.9692 115.501)" fill="#FFFFFF" font-family="'SiemensSans-Roman'" font-size="4.7763"> 05</text>
		<text transform="matrix(1 0 0 1 209.4287 115.501)" fill="#FFFFFF" font-family="'SiemensSans-Roman'" font-size="4.7763"> 06</text>
		<text transform="matrix(1 0 0 1 216.8877 115.501)" fill="#FFFFFF" font-family="'SiemensSans-Roman'" font-size="4.7763"> 07</text>
		<text transform="matrix(1 0 0 1 224.3472 115.501)" fill="#FFFFFF" font-family="'SiemensSans-Roman'" font-size="4.7763"> 08</text>
		<text transform="matrix(1 0 0 1 171.4976 161.7983)" fill="#FFFFFF" font-family="'SiemensSans-Roman'" font-size="4.7763">  01</text>
		<text transform="matrix(1 0 0 1 179.5913 161.7983)" fill="#FFFFFF" font-family="'SiemensSans-Roman'" font-size="4.7763"> 02</text>
		<text transform="matrix(1 0 0 1 187.0503 161.7983)" fill="#FFFFFF" font-family="'SiemensSans-Roman'" font-size="4.7763"> 03</text>
		<text transform="matrix(1 0 0 1 194.5098 161.7983)" fill="#FFFFFF" font-family="'SiemensSans-Roman'" font-size="4.7763"> 04</text>
		<text transform="matrix(1 0 0 1 201.9692 161.7983)" fill="#FFFFFF" font-family="'SiemensSans-Roman'" font-size="4.7763"> 05</text>
		<text transform="matrix(1 0 0 1 209.4287 161.7983)" fill="#FFFFFF" font-family="'SiemensSans-Roman'" font-size="4.7763"> 06</text>
		<text transform="matrix(1 0 0 1 216.8877 161.7983)" fill="#FFFFFF" font-family="'SiemensSans-Roman'" font-size="4.7763"> 07</text>
		<text transform="matrix(1 0 0 1 224.3472 161.7983)" fill="#FFFFFF" font-family="'SiemensSans-Roman'" font-size="4.7763"> 08</text>
		<text transform="matrix(1 0 0 1 238.1865 115.501)" fill="#FFFFFF" font-family="'SiemensSans-Roman'" font-size="4.7763">09</text>
		<text transform="matrix(1 0 0 1 244.4336 115.501)" fill="#FFFFFF" font-family="'SiemensSans-Roman'" font-size="4.7763"> 10</text>
		<text transform="matrix(1 0 0 1 252.0137 115.501)" fill="#FFFFFF" font-family="'SiemensSans-Roman'" font-size="4.7763"> 11</text>
		<text transform="matrix(1 0 0 1 259.4473 115.501)" fill="#FFFFFF" font-family="'SiemensSans-Roman'" font-size="4.7763"> 12</text>
		<text transform="matrix(1 0 0 1 266.6191 115.501)" fill="#FFFFFF" font-family="'SiemensSans-Roman'" font-size="4.7763"> 13</text>
		<text transform="matrix(1 0 0 1 273.793 115.501)" fill="#FFFFFF" font-family="'SiemensSans-Roman'" font-size="4.7763"> 14</text>
		<text transform="matrix(1 0 0 1 165.8755 161.7983)" fill="#FFFFFF" font-family="'SiemensSans-Roman'" font-size="4.7763">DQ</text>
		<text transform="matrix(1 0 0 1 238.1865 161.7983)" fill="#FFFFFF" font-family="'SiemensSans-Roman'" font-size="4.7763">09</text>
		<text transform="matrix(1 0 0 1 244.4336 161.7983)" fill="#FFFFFF" font-family="'SiemensSans-Roman'" font-size="4.7763"> 10</text>
		<text transform="matrix(1 0 0 1 252.0137 161.7983)" fill="#FFFFFF" font-family="'SiemensSans-Roman'" font-size="4.7763"> 11</text>
		<text transform="matrix(1 0 0 1 259.4473 161.7983)" fill="#FFFFFF" font-family="'SiemensSans-Roman'" font-size="4.7763"> 12</text>
		<text transform="matrix(1 0 0 1 266.6191 161.7983)" fill="#FFFFFF" font-family="'SiemensSans-Roman'" font-size="4.7763"> 13</text>
		<text transform="matrix(1 0 0 1 273.793 161.7983)" fill="#FFFFFF" font-family="'SiemensSans-Roman'" font-size="4.7763"> 14</text>
		<text transform="matrix(0 -1 1 0 19.2432 148.2759)" fill="#FFFFFF" font-family="'SiemensSans-Roman'" font-size="6.5691">R</text>
		<text transform="matrix(0 -1 1 0 19.2432 143.5317)" fill="#FFFFFF" font-family="'SiemensSans-Roman'" font-size="6.5691">U</text>
		<text transform="matrix(0 -1 1 0 19.2432 138.7905)" fill="#FFFFFF" font-family="'SiemensSans-Roman'" font-size="6.5691">N</text>
		<text transform="matrix(0 -1 1 0 19.2432 134.0469)" fill="#FFFFFF" font-family="'SiemensSans-Roman'" font-size="6.5691">/</text>
		<text transform="matrix(0 -1 1 0 19.2432 132.2231)" fill="#FFFFFF" font-family="'SiemensSans-Roman'" font-size="6.5691">S</text>
		<text transform="matrix(0 -1 1 0 19.2432 127.8433)" fill="#FFFFFF" font-family="'SiemensSans-Roman'" font-size="6.5691">T</text>
		<text transform="matrix(0 -1 1 0 19.2432 123.832)" fill="#FFFFFF" font-family="'SiemensSans-Roman'" font-size="6.5691">O</text>
		<text transform="matrix(0 -1 1 0 19.2432 118.5444)" fill="#FFFFFF" font-family="'SiemensSans-Roman'" font-size="6.5691">P</text>
		<text transform="matrix(0 -1 1 0 27.0093 135.1255)" fill="#FFFFFF" font-family="'SiemensSans-Roman'" font-size="6.5691">M</text>
		<text transform="matrix(0 -1 1 0 27.0093 129.6558)" fill="#FFFFFF" font-family="'SiemensSans-Roman'" font-size="6.5691">A</text>
		<text transform="matrix(0 -1 1 0 27.0093 125.2754)" fill="#FFFFFF" font-family="'SiemensSans-Roman'" font-size="6.5691">I</text>
		<text transform="matrix(0 -1 1 0 27.0093 123.4507)" fill="#FFFFFF" font-family="'SiemensSans-Roman'" font-size="6.5691">N</text>
		<text transform="matrix(0 -1 1 0 27.0093 118.709)" fill="#FFFFFF" font-family="'SiemensSans-Roman'" font-size="6.5691">T</text>
		<text transform="matrix(0 -1 1 0 34.7754 138.457)" fill="#FFFFFF" font-family="'SiemensSans-Roman'" font-size="6.5691">E</text>
		<text transform="matrix(0 -1 1 0 34.7754 134.0771)" fill="#FFFFFF" font-family="'SiemensSans-Roman'" font-size="6.5691">R</text>
		<text transform="matrix(0 -1 1 0 34.7754 129.3345)" fill="#FFFFFF" font-family="'SiemensSans-Roman'" font-size="6.5691">R</text>
		<text transform="matrix(0 -1 1 0 34.7754 124.5918)" fill="#FFFFFF" font-family="'SiemensSans-Roman'" font-size="6.5691">O</text>
		<text transform="matrix(0 -1 1 0 34.7754 119.4849)" fill="#FFFFFF" font-family="'SiemensSans-Roman'" font-size="6.5691">R</text>
		<text transform="matrix(1 0 0 1 22.6089 208.9917)" fill="#FFFFFF" font-family="'SiemensSans-Roman'" font-size="4.7763">IF1 Ethernet</text>
		<text transform="matrix(1 0 0 1 49.9971 208.9917)" fill="#FFFFFF" font-family="'SiemensSans-Roman'" font-size="4.7763">IF2 Ethernet</text>
	</g>
</g>
</svg>
