<?xml version="1.0" encoding="utf-8"?>

<!-- Copyright 2016 Siemens AG -->

<!-- Generator: Adobe Illustrator 16.0.4, SVG Export Plug-In . SVG Version: 6.00 Build 0)  -->
<!DOCTYPE svg PUBLIC "-//W3C//DTD SVG 1.1//EN" "http://www.w3.org/Graphics/SVG/1.1/DTD/svg11.dtd">
<svg version="1.1" id="CPU_x5F_7400_x5F_41x-3PN" xmlns="http://www.w3.org/2000/svg" xmlns:xlink="http://www.w3.org/1999/xlink"
	 x="0px" y="0px" width="69px" height="300px" viewBox="0 0 69 300" enable-background="new 0 0 69 300" xml:space="preserve">
<rect x="2.1" y="2" fill="#5E697E" width="64.9" height="170.1"/>
<rect x="2.1" y="173.2" fill="#455063" width="64.9" height="124.8"/>
<g>
	<path id="path42_1_" fill="#909AAD" d="M15.6,38.9v71.6h4.7V38.9H15.6z"/>
	<path id="path44_1_" fill="#BCC2CD" d="M15.6,38.9v4.7h4.7v-4.7H15.6z"/>
	<path id="path44_2_" fill="#BCC2CD" d="M15.6,45.6v4.7h4.7v-4.7H15.6z"/>
	<path id="path44_3_" fill="#BCC2CD" d="M15.6,52.3V57h4.7v-4.7H15.6z"/>
	<path id="path44_4_" fill="#BCC2CD" d="M15.6,59v4.7h4.7V59H15.6z"/>
	<path id="path44_5_" fill="#BCC2CD" d="M15.6,65.7v4.7h4.7v-4.7H15.6z"/>
	<path id="path44_6_" fill="#BCC2CD" d="M15.6,72.4V77h4.7v-4.7H15.6z"/>
	<path id="path44_7_" fill="#BCC2CD" d="M15.6,79v4.7h4.7V79H15.6z"/>
	<path id="path44_8_" fill="#BCC2CD" d="M15.6,85.7v4.7h4.7v-4.7H15.6z"/>
	<path id="path44_9_" fill="#BCC2CD" d="M15.6,92.4v4.7h4.7v-4.7H15.6z"/>
	<path id="path44_10_" fill="#BCC2CD" d="M15.6,99.1v4.7h4.7v-4.7H15.6z"/>
	<path id="path44_11_" fill="#BCC2CD" d="M15.6,105.8v4.7h4.7v-4.7H15.6z"/>
</g>
<path id="path44_33_" fill="#BCC2CD" d="M4.1,10.2v4.7h4.7v-4.7H4.1z"/>
<path id="path44_23_" fill="#BCC2CD" d="M37.5,10.2v4.7h4.7v-4.7H37.5z"/>
<g>
	<path id="path42_2_" fill="#909AAD" d="M46.7,38.9v71.6h4.7V38.9H46.7z"/>
	<path id="path44_22_" fill="#BCC2CD" d="M46.7,38.9v4.7h4.7v-4.7H46.7z"/>
	<path id="path44_21_" fill="#BCC2CD" d="M46.7,45.6v4.7h4.7v-4.7H46.7z"/>
	<path id="path44_20_" fill="#BCC2CD" d="M46.7,52.3V57h4.7v-4.7H46.7z"/>
	<path id="path44_19_" fill="#BCC2CD" d="M46.7,59v4.7h4.7V59H46.7z"/>
	<path id="path44_18_" fill="#BCC2CD" d="M46.7,65.7v4.7h4.7v-4.7H46.7z"/>
	<path id="path44_17_" fill="#BCC2CD" d="M46.7,72.4V77h4.7v-4.7H46.7z"/>
	<path id="path44_16_" fill="#BCC2CD" d="M46.7,79v4.7h4.7V79H46.7z"/>
	<path id="path44_15_" fill="#BCC2CD" d="M46.7,85.7v4.7h4.7v-4.7H46.7z"/>
	<path id="path44_14_" fill="#BCC2CD" d="M46.7,92.4v4.7h4.7v-4.7H46.7z"/>
	<path id="path44_13_" fill="#BCC2CD" d="M46.7,99.1v4.7h4.7v-4.7H46.7z"/>
	<path id="path44_12_" fill="#BCC2CD" d="M46.7,105.8v4.7h4.7v-4.7H46.7z"/>
</g>
<path id="path58_1_" fill="#A8D9E7" d="M22.3,37.6v74.1H32V37.6H22.3z"/>
<g>
	<path id="path70_2_" fill="#455063" d="M9.7,146.9v16.3h3.1v-16.3H9.7z"/>
	<path id="path72_2_" fill="#BCC2CD" d="M9.7,146.9v2.8h2.4v-2.8H9.7z"/>
	<path id="path74_2_" fill="#909AAD" d="M9.7,149.3v10.7h2.4v-10.7H9.7z"/>
	<path id="path76_2_" d="M15.6,149.7v10.8h5.5v-10.7L15.6,149.7L15.6,149.7z"/>
	<path id="path78_2_" fill="#455063" d="M16.7,148.6v10.1h3.5v-10.1H16.7L16.7,148.6z"/>
	<path id="path80_2_" fill="#909AAD" d="M16.7,148.6v3.5h3.5v-3.5L16.7,148.6L16.7,148.6z"/>
</g>
<circle fill="none" stroke="#384152" stroke-miterlimit="10" cx="18.4" cy="12.5" r="3.2"/>
<rect x="2.1" y="21.9" fill="#384152" width="64.9" height="1"/>
<rect x="2.1" y="172.1" fill="#384152" width="64.9" height="1"/>
<g id="Typo">
	<text transform="matrix(1 0 0 1 3.3037 6.8398)" fill="#BCC2CD" font-family="'SiemensSans-Roman'" font-size="3.7486">CPU41x-3 PN/DP</text>
	<g>
		<text transform="matrix(1 0 0 1 3.7788 42.4839)" fill="#BCC2CD" font-family="'SiemensSans-Roman'" font-size="3.4573">LED 1</text>
		<text transform="matrix(1 0 0 1 3.7788 49.1636)" fill="#BCC2CD" font-family="'SiemensSans-Roman'" font-size="3.4573">LED 2</text>
		<text transform="matrix(1 0 0 1 3.7788 55.8433)" fill="#BCC2CD" font-family="'SiemensSans-Roman'" font-size="3.4573">LED 3</text>
		<text transform="matrix(1 0 0 1 3.7788 62.5229)" fill="#BCC2CD" font-family="'SiemensSans-Roman'" font-size="3.4573">LED 4</text>
		<text transform="matrix(1 0 0 1 3.7788 69.2026)" fill="#BCC2CD" font-family="'SiemensSans-Roman'" font-size="3.4573">LED 5</text>
		<text transform="matrix(1 0 0 1 3.7788 75.8823)" fill="#BCC2CD" font-family="'SiemensSans-Roman'" font-size="3.4573">LED 6</text>
		<text transform="matrix(1 0 0 1 3.7788 82.562)" fill="#BCC2CD" font-family="'SiemensSans-Roman'" font-size="3.4573">LED 7</text>
		<text transform="matrix(1 0 0 1 3.7788 89.2417)" fill="#BCC2CD" font-family="'SiemensSans-Roman'" font-size="3.4573">LED 8</text>
		<text transform="matrix(1 0 0 1 3.7788 95.9214)" fill="#BCC2CD" font-family="'SiemensSans-Roman'" font-size="3.4573">LED 9</text>
		<text transform="matrix(1 0 0 1 3.7788 102.6011)" fill="#BCC2CD" font-family="'SiemensSans-Roman'" font-size="3.4573">LED 1</text>
		<text transform="matrix(1 0 0 1 11.9707 102.6011)" fill="#BCC2CD" font-family="'SiemensSans-Roman'" font-size="3.4573">0</text>
		<text transform="matrix(1 0 0 1 11.9707 109.2808)" fill="#BCC2CD" font-family="'SiemensSans-Roman'" font-size="3.4573">1</text>
		<text transform="matrix(1 0 0 1 3.7788 109.2808)" fill="#BCC2CD" font-family="'SiemensSans-Roman'" font-size="3.4573">LED 1</text>
	</g>
	<g>
		<text transform="matrix(1 0 0 1 23.6006 150.3726)" fill="#BCC2CD" font-family="'SiemensSans-Roman'" font-size="3.4573">RUN</text>
		<text transform="matrix(1 0 0 1 23.6006 155.9116)" fill="#BCC2CD" font-family="'SiemensSans-Roman'" font-size="3.4573">STOP</text>
		<text transform="matrix(1 0 0 1 23.6006 161.106)" fill="#BCC2CD" font-family="'SiemensSans-Roman'" font-size="3.4573">MRES</text>
	</g>
</g>
</svg>
