<?xml version="1.0" encoding="utf-8"?>

<!-- Copyright 2016 Siemens AG -->

<!-- Generator: Adobe Illustrator 16.0.4, SVG Export Plug-In . SVG Version: 6.00 Build 0)  -->
<!DOCTYPE svg PUBLIC "-//W3C//DTD SVG 1.1//EN" "http://www.w3.org/Graphics/SVG/1.1/DTD/svg11.dtd">
<svg version="1.1" id="Cabinet_Small_Glass_Left" xmlns="http://www.w3.org/2000/svg" xmlns:xlink="http://www.w3.org/1999/xlink"
	 x="0px" y="0px" width="270px" height="300px" viewBox="0 0 270 300" enable-background="new 0 0 270 300" xml:space="preserve">
<linearGradient id="Shape_Door_1_" gradientUnits="userSpaceOnUse" x1="259.8232" y1="292.084" x2="27.8233" y2="28.0839">
	<stop  offset="0" style="stop-color:#A5A5A5"/>
	<stop  offset="7.963187e-03" style="stop-color:#A7A7A7"/>
	<stop  offset="0.1273" style="stop-color:#C5C5C5"/>
	<stop  offset="0.2297" style="stop-color:#D7D7D7"/>
	<stop  offset="0.3025" style="stop-color:#DEDEDE"/>
	<stop  offset="0.452" style="stop-color:#DADADA"/>
	<stop  offset="0.6038" style="stop-color:#CECECF"/>
	<stop  offset="0.7568" style="stop-color:#B9B9BC"/>
	<stop  offset="0.9096" style="stop-color:#9D9DA1"/>
	<stop  offset="0.9859" style="stop-color:#8C8C91"/>
</linearGradient>
<rect id="Shape_Door_3_" x="2.4" y="2.4" fill="url(#Shape_Door_1_)" stroke="#8C8C91" stroke-width="0.75" stroke-linecap="round" stroke-linejoin="round" stroke-miterlimit="10" width="265.2" height="295.2"/>
<g id="Technic">
	<path id="Tape" fill="none" stroke="#646567" stroke-width="2" stroke-miterlimit="10" d="M103.4,139.5l118.6-45.1 M246.1,112.4
		l-12.6,47.9 M212.8,175.8H105.7"/>
	<path id="Technic_1_" fill="#646567" d="M90.7,54.1H61.2V24.5h29.5V54.1z M249.4,24.5h-70.1v14.8h70.1V24.5z M190.3,43h-11.1v11.1
		h11.1V43z M205.1,43H194v11.1h11.1V43z M219.9,43h-11.1v11.1h11.1V43z M234.6,43h-11.1v11.1h11.1V43z M249.4,43h-11.1v11.1h11.1V43
		z M105.5,39.3c-4.1,0-7.4,3.3-7.4,7.4c0,4.1,3.3,7.4,7.4,7.4c4.1,0,7.4-3.3,7.4-7.4C112.8,42.6,109.5,39.3,105.5,39.3z M98.4,135.2
		c-12.2,0-22.1,9.9-22.1,22.1s9.9,22.1,22.1,22.1s22.1-9.9,22.1-22.1S110.7,135.2,98.4,135.2z M219.4,141.1
		c-10.6,0-19.2,8.6-19.2,19.2c0,10.6,8.6,19.2,19.2,19.2c10.6,0,19.2-8.6,19.2-19.2C238.7,149.7,230.1,141.1,219.4,141.1z
		 M254.2,102c0,10.6-8.6,19.2-19.2,19.2c-10.6,0-19.2-8.6-19.2-19.2c0-10.6,8.6-19.2,19.2-19.2C245.6,82.8,254.2,91.4,254.2,102z
		 M243.3,102c0-4.6-3.7-8.3-8.3-8.3c-4.6,0-8.3,3.7-8.3,8.3s3.7,8.3,8.3,8.3C239.6,110.3,243.3,106.6,243.3,102z M80,209.1h-3.7
		v62.7H80V209.1z M91.1,209.1h-3.7v62.7h3.7V209.1z M102.1,209.1h-3.7v62.7h3.7V209.1z M113.2,209.1h-3.7v62.7h3.7V209.1z
		 M124.3,209.1h-3.7v62.7h3.7V209.1z M135.3,209.1h-3.7v62.7h3.7V209.1z M146.4,209.1h-3.7v62.7h3.7V209.1z M157.5,209.1h-3.7v62.7
		h3.7V209.1z M168.6,209.1h-3.7v62.7h3.7V209.1z M179.6,209.1h-3.7v62.7h3.7V209.1z M190.7,209.1H187v62.7h3.7V209.1z M201.8,209.1
		h-3.7v62.7h3.7V209.1z M212.8,209.1h-3.7v62.7h3.7V209.1z M223.9,209.1h-3.7v62.7h3.7V209.1z M235,209.1h-3.7v62.7h3.7V209.1z
		 M246.1,209.1h-3.7v62.7h3.7V209.1z"/>
</g>
<linearGradient id="Reflection_1_" gradientUnits="userSpaceOnUse" x1="52.4561" y1="98.0034" x2="3.1882" y2="54.2096">
	<stop  offset="0" style="stop-color:#F2F2F2;stop-opacity:0.4"/>
	<stop  offset="1" style="stop-color:#F7F7F7;stop-opacity:0.7"/>
</linearGradient>
<polygon id="Reflection" fill="url(#Reflection_1_)" points="2.7,2.8 2.7,267.1 185.3,2.8 "/>
<g id="Handle_2_">
	<linearGradient id="Shape_Handle_1_" gradientUnits="userSpaceOnUse" x1="60.9277" y1="378.9668" x2="0.3525" y2="37.4806">
		<stop  offset="0" style="stop-color:#FFFFFF"/>
		<stop  offset="1" style="stop-color:#7C7C7B"/>
	</linearGradient>
	<rect id="Shape_Handle_2_" x="26.6" y="191" fill="url(#Shape_Handle_1_)" width="11" height="51.4"/>
	<polygon id="Shadow_1_" fill="#646567" points="23,187.4 23,242.5 26.6,242.5 26.6,191 37.7,191 37.7,187.4 	"/>
	
		<polyline id="Reflection_Line_2_" fill="none" stroke="#FFFFFF" stroke-width="0.75" stroke-linejoin="round" stroke-miterlimit="10" points="
		37.7,187.4 37.7,242.4 23,242.4 	"/>
</g>
</svg>
