<?xml version="1.0" encoding="utf-8"?>

<!-- Copyright 2016 Siemens AG -->

<!-- Generator: Adobe Illustrator 16.0.4, SVG Export Plug-In . SVG Version: 6.00 Build 0)  -->
<!DOCTYPE svg PUBLIC "-//W3C//DTD SVG 1.1//EN" "http://www.w3.org/Graphics/SVG/1.1/DTD/svg11.dtd">
<svg version="1.1" id="Cabinet_Side_Big" xmlns="http://www.w3.org/2000/svg" xmlns:xlink="http://www.w3.org/1999/xlink" x="0px"
	 y="0px" width="193px" height="300px" viewBox="0 0 193 300" enable-background="new 0 0 193 300" xml:space="preserve">
<g id="Base">
	<linearGradient id="Right_1_" gradientUnits="userSpaceOnUse" x1="171.1631" y1="303.8735" x2="171.1631" y2="282.8734">
		<stop  offset="0" style="stop-color:#6B6B6A"/>
		<stop  offset="1" style="stop-color:#434343"/>
	</linearGradient>
	
		<polygon id="Right" fill="url(#Right_1_)" stroke="#424242" stroke-width="0.75" stroke-linecap="round" stroke-linejoin="round" stroke-miterlimit="10" points="
		187.7,297.6 187.7,292.1 173.9,292.1 173.9,286.6 179.5,283.8 179.5,281 162.9,281 162.9,283.8 168.4,286.6 168.4,292.1 
		154.6,292.1 154.6,297.6 	"/>
	<linearGradient id="Left_1_" gradientUnits="userSpaceOnUse" x1="21.9688" y1="303.8735" x2="21.9688" y2="282.8734">
		<stop  offset="0" style="stop-color:#6B6B6A"/>
		<stop  offset="1" style="stop-color:#434343"/>
	</linearGradient>
	
		<polygon id="Left" fill="url(#Left_1_)" stroke="#424242" stroke-width="0.75" stroke-linecap="round" stroke-linejoin="round" stroke-miterlimit="10" points="
		38.6,297.6 38.6,292.1 24.7,292.1 24.7,286.6 30.3,283.8 30.3,281 13.7,281 13.7,283.8 19.2,286.6 19.2,292.1 5.4,292.1 5.4,297.6 
			"/>
</g>
<linearGradient id="Shape_1_" gradientUnits="userSpaceOnUse" x1="96.5537" y1="3.2812" x2="96.5537" y2="280.638">
	<stop  offset="0" style="stop-color:#DEDEDE"/>
	<stop  offset="1.877390e-02" style="stop-color:#FFFFFF"/>
	<stop  offset="3.010660e-02" style="stop-color:#DEDEDE"/>
	<stop  offset="0.4905" style="stop-color:#DADADA"/>
	<stop  offset="0.9509" style="stop-color:#CFCFCE"/>
	<stop  offset="0.9628" style="stop-color:#CBCBCA"/>
	<stop  offset="0.9749" style="stop-color:#BFBFBF"/>
	<stop  offset="0.9871" style="stop-color:#AAAAAD"/>
	<stop  offset="0.9992" style="stop-color:#8E8E93"/>
	<stop  offset="1" style="stop-color:#8C8C91"/>
</linearGradient>
<rect id="Shape" x="2.5" y="2.4" fill="url(#Shape_1_)" stroke="#8C8C91" stroke-width="0.75" stroke-linecap="round" stroke-linejoin="round" width="188" height="278.7"/>
</svg>
