<?xml version="1.0" encoding="utf-8"?>

<!-- Copyright 2016 Siemens AG -->

<!-- Generator: Adobe Illustrator 16.0.4, SVG Export Plug-In . SVG Version: 6.00 Build 0)  -->
<!DOCTYPE svg PUBLIC "-//W3C//DTD SVG 1.1//EN" "http://www.w3.org/Graphics/SVG/1.1/DTD/svg11.dtd">
<svg version="1.1" id="Hand_Valve_2_Horizontal_Front"
	 xmlns="http://www.w3.org/2000/svg" xmlns:xlink="http://www.w3.org/1999/xlink" x="0px" y="0px" width="300px" height="205px"
	 viewBox="0 0 300 205" enable-background="new 0 0 300 205" xml:space="preserve">
<g id="Flanges__x2B__Pipe">
	<g id="Flange_Right_3_">
		<linearGradient id="Seal_1_" gradientUnits="userSpaceOnUse" x1="295.248" y1="-37.0264" x2="295.248" y2="93.7209">
			<stop  offset="0" style="stop-color:#AFAFAE"/>
			<stop  offset="1" style="stop-color:#424242"/>
		</linearGradient>
		
			<polygon id="Seal_6_" fill="url(#Seal_1_)" stroke="#646567" stroke-width="0.75" stroke-linecap="round" stroke-linejoin="round" stroke-miterlimit="10" points="
			292.6,164.6 297.9,161.9 297.9,43 292.6,40.3 		"/>
		<linearGradient id="Shape_1_" gradientUnits="userSpaceOnUse" x1="280.2607" y1="1.9111" x2="280.2607" y2="202.2128">
			<stop  offset="0" style="stop-color:#A5A5A5"/>
			<stop  offset="4.758149e-02" style="stop-color:#B5B5B5"/>
			<stop  offset="0.1509" style="stop-color:#D3D3D3"/>
			<stop  offset="0.2395" style="stop-color:#E5E5E5"/>
			<stop  offset="0.3025" style="stop-color:#ECECEC"/>
			<stop  offset="0.4074" style="stop-color:#E8E8E8"/>
			<stop  offset="0.514" style="stop-color:#DCDCDC"/>
			<stop  offset="0.6214" style="stop-color:#C7C7C7"/>
			<stop  offset="0.7294" style="stop-color:#ABABAB"/>
			<stop  offset="0.8378" style="stop-color:#868686"/>
			<stop  offset="0.9452" style="stop-color:#5A5A5A"/>
			<stop  offset="1" style="stop-color:#404040"/>
		</linearGradient>
		
			<polygon id="Shape_10_" fill="url(#Shape_1_)" stroke="#8C8C91" stroke-width="0.75" stroke-linejoin="round" stroke-miterlimit="10" points="
			292.6,201.5 290.3,202.7 270.2,202.7 267.9,201.5 267.9,3.4 270.2,2.2 290.3,2.2 292.6,3.4 		"/>
		<linearGradient id="Reflection_1_" gradientUnits="userSpaceOnUse" x1="280.2607" y1="21.6973" x2="280.2607" y2="36.9728">
			<stop  offset="0" style="stop-color:#F2F2F2;stop-opacity:0.4"/>
			<stop  offset="1" style="stop-color:#F7F7F7;stop-opacity:0.7"/>
		</linearGradient>
		<rect id="Reflection_10_" x="270.2" y="22.7" fill="url(#Reflection_1_)" width="20" height="34.2"/>
		<linearGradient id="Edge_Right_1_" gradientUnits="userSpaceOnUse" x1="291.4424" y1="3.0786" x2="291.4424" y2="202.7456">
			<stop  offset="0" style="stop-color:#AFAFAE"/>
			<stop  offset="1" style="stop-color:#424242"/>
		</linearGradient>
		
			<polyline id="Edge_Right_5_" fill="url(#Edge_Right_1_)" stroke="#8C8C91" stroke-width="0.75" stroke-linejoin="round" stroke-miterlimit="10" points="
			290.3,2.2 292.6,3.4 292.6,201.5 290.3,202.7 		"/>
		<linearGradient id="Edge_Left_1_" gradientUnits="userSpaceOnUse" x1="269.0791" y1="-60.7422" x2="269.0791" y2="236.9795">
			<stop  offset="0" style="stop-color:#A5A5A5"/>
			<stop  offset="4.758149e-02" style="stop-color:#B5B5B5"/>
			<stop  offset="0.1509" style="stop-color:#D3D3D3"/>
			<stop  offset="0.2395" style="stop-color:#E5E5E5"/>
			<stop  offset="0.3025" style="stop-color:#ECECEC"/>
			<stop  offset="0.4074" style="stop-color:#E8E8E8"/>
			<stop  offset="0.514" style="stop-color:#DCDCDC"/>
			<stop  offset="0.6214" style="stop-color:#C7C7C7"/>
			<stop  offset="0.7294" style="stop-color:#ABABAB"/>
			<stop  offset="0.8378" style="stop-color:#868686"/>
			<stop  offset="0.9452" style="stop-color:#5A5A5A"/>
			<stop  offset="1" style="stop-color:#404040"/>
		</linearGradient>
		
			<polyline id="Edge_Left_5_" fill="url(#Edge_Left_1_)" stroke="#8C8C91" stroke-width="0.75" stroke-linejoin="round" stroke-miterlimit="10" points="
			270.2,202.7 267.9,201.5 267.9,3.4 270.2,2.2 		"/>
	</g>
	<linearGradient id="Weld_Seam_Right_1_" gradientUnits="userSpaceOnUse" x1="264.7422" y1="-37.7817" x2="264.7422" y2="200.3113">
		<stop  offset="0" style="stop-color:#A5A5A5"/>
		<stop  offset="4.758149e-02" style="stop-color:#B5B5B5"/>
		<stop  offset="0.1509" style="stop-color:#D3D3D3"/>
		<stop  offset="0.2395" style="stop-color:#E5E5E5"/>
		<stop  offset="0.3025" style="stop-color:#ECECEC"/>
		<stop  offset="0.4074" style="stop-color:#E8E8E8"/>
		<stop  offset="0.514" style="stop-color:#DCDCDC"/>
		<stop  offset="0.6214" style="stop-color:#C7C7C7"/>
		<stop  offset="0.7294" style="stop-color:#ABABAB"/>
		<stop  offset="0.8378" style="stop-color:#868686"/>
		<stop  offset="0.9452" style="stop-color:#5A5A5A"/>
		<stop  offset="1" style="stop-color:#404040"/>
	</linearGradient>
	
		<polygon id="Weld_Seam_Right_3_" fill="url(#Weld_Seam_Right_1_)" stroke="#8C8C91" stroke-width="0.75" stroke-linecap="round" stroke-linejoin="round" stroke-miterlimit="10" points="
		267.9,173.7 261.6,171.3 261.6,33.6 267.9,31.2 	"/>
	<g id="Pipe_3_">
		<linearGradient id="Shape_2_" gradientUnits="userSpaceOnUse" x1="150.2378" y1="31.123" x2="150.2378" y2="170.9922">
			<stop  offset="0" style="stop-color:#A5A5A5"/>
			<stop  offset="4.758149e-02" style="stop-color:#B5B5B5"/>
			<stop  offset="0.1509" style="stop-color:#D3D3D3"/>
			<stop  offset="0.2395" style="stop-color:#E5E5E5"/>
			<stop  offset="0.3025" style="stop-color:#ECECEC"/>
			<stop  offset="0.4074" style="stop-color:#E8E8E8"/>
			<stop  offset="0.514" style="stop-color:#DCDCDC"/>
			<stop  offset="0.6214" style="stop-color:#C7C7C7"/>
			<stop  offset="0.7294" style="stop-color:#ABABAB"/>
			<stop  offset="0.8378" style="stop-color:#868686"/>
			<stop  offset="0.9452" style="stop-color:#5A5A5A"/>
			<stop  offset="1" style="stop-color:#404040"/>
		</linearGradient>
		
			<rect id="Shape_9_" x="38.9" y="33.6" fill="url(#Shape_2_)" stroke="#8C8C91" stroke-width="0.75" stroke-linejoin="round" stroke-miterlimit="10" width="222.7" height="137.7"/>
		<linearGradient id="Reflection_2_" gradientUnits="userSpaceOnUse" x1="150.2056" y1="45.6074" x2="150.2056" y2="59.1301">
			<stop  offset="0" style="stop-color:#F2F2F2;stop-opacity:0.4"/>
			<stop  offset="1" style="stop-color:#F7F7F7;stop-opacity:0.7"/>
		</linearGradient>
		<rect id="Reflection_9_" x="39.8" y="47.5" fill="url(#Reflection_2_)" width="220.9" height="23.5"/>
	</g>
	<linearGradient id="Weld_Seam_Left_1_" gradientUnits="userSpaceOnUse" x1="35.7339" y1="34.1938" x2="35.7339" y2="172.8139">
		<stop  offset="0" style="stop-color:#A5A5A5"/>
		<stop  offset="4.758149e-02" style="stop-color:#B5B5B5"/>
		<stop  offset="0.1509" style="stop-color:#D3D3D3"/>
		<stop  offset="0.2395" style="stop-color:#E5E5E5"/>
		<stop  offset="0.3025" style="stop-color:#ECECEC"/>
		<stop  offset="0.4074" style="stop-color:#E8E8E8"/>
		<stop  offset="0.514" style="stop-color:#DCDCDC"/>
		<stop  offset="0.6214" style="stop-color:#C7C7C7"/>
		<stop  offset="0.7294" style="stop-color:#ABABAB"/>
		<stop  offset="0.8378" style="stop-color:#868686"/>
		<stop  offset="0.9452" style="stop-color:#5A5A5A"/>
		<stop  offset="1" style="stop-color:#404040"/>
	</linearGradient>
	
		<polygon id="Weld_Seam_Left_3_" fill="url(#Weld_Seam_Left_1_)" stroke="#8C8C91" stroke-width="0.75" stroke-linejoin="round" stroke-miterlimit="10" points="
		32.6,173.7 38.9,171.3 38.9,33.7 32.6,31.2 	"/>
	<g id="Flange_Left_3_">
		<linearGradient id="Seal_2_" gradientUnits="userSpaceOnUse" x1="5.2192" y1="-25.0825" x2="5.2192" y2="84.6523">
			<stop  offset="0" style="stop-color:#AFAFAE"/>
			<stop  offset="1" style="stop-color:#424242"/>
		</linearGradient>
		
			<polygon id="Seal_5_" fill="url(#Seal_2_)" stroke="#646567" stroke-width="0.75" stroke-linecap="round" stroke-linejoin="round" stroke-miterlimit="10" points="
			7.9,164.6 2.6,161.9 2.6,43 7.9,40.3 		"/>
		<linearGradient id="Shape_3_" gradientUnits="userSpaceOnUse" x1="20.2095" y1="1.9111" x2="20.2095" y2="202.2128">
			<stop  offset="0" style="stop-color:#A5A5A5"/>
			<stop  offset="4.758149e-02" style="stop-color:#B5B5B5"/>
			<stop  offset="0.1509" style="stop-color:#D3D3D3"/>
			<stop  offset="0.2395" style="stop-color:#E5E5E5"/>
			<stop  offset="0.3025" style="stop-color:#ECECEC"/>
			<stop  offset="0.4074" style="stop-color:#E8E8E8"/>
			<stop  offset="0.514" style="stop-color:#DCDCDC"/>
			<stop  offset="0.6214" style="stop-color:#C7C7C7"/>
			<stop  offset="0.7294" style="stop-color:#ABABAB"/>
			<stop  offset="0.8378" style="stop-color:#868686"/>
			<stop  offset="0.9452" style="stop-color:#5A5A5A"/>
			<stop  offset="1" style="stop-color:#404040"/>
		</linearGradient>
		
			<polygon id="Shape_8_" fill="url(#Shape_3_)" stroke="#8C8C91" stroke-width="0.75" stroke-linejoin="round" stroke-miterlimit="10" points="
			32.6,201.5 30.2,202.7 10.2,202.7 7.9,201.5 7.9,3.4 10.2,2.2 30.2,2.2 32.6,3.4 		"/>
		<linearGradient id="Reflection_3_" gradientUnits="userSpaceOnUse" x1="20.2104" y1="21.6968" x2="20.2104" y2="36.9725">
			<stop  offset="0" style="stop-color:#F2F2F2;stop-opacity:0.4"/>
			<stop  offset="1" style="stop-color:#F7F7F7;stop-opacity:0.7"/>
		</linearGradient>
		<rect id="Reflection_8_" x="10.2" y="22.7" fill="url(#Reflection_3_)" width="20.1" height="34.2"/>
		<linearGradient id="Edge_Right_2_" gradientUnits="userSpaceOnUse" x1="31.397" y1="3.0786" x2="31.397" y2="202.7456">
			<stop  offset="0" style="stop-color:#AFAFAE"/>
			<stop  offset="1" style="stop-color:#424242"/>
		</linearGradient>
		
			<polyline id="Edge_Right_4_" fill="url(#Edge_Right_2_)" stroke="#8C8C91" stroke-width="0.75" stroke-linejoin="round" stroke-miterlimit="10" points="
			30.2,2.2 32.6,3.4 32.6,201.5 30.2,202.7 		"/>
		<linearGradient id="Edge_Left_2_" gradientUnits="userSpaceOnUse" x1="9.0229" y1="-60.7422" x2="9.0229" y2="236.9795">
			<stop  offset="0" style="stop-color:#A5A5A5"/>
			<stop  offset="4.758149e-02" style="stop-color:#B5B5B5"/>
			<stop  offset="0.1509" style="stop-color:#D3D3D3"/>
			<stop  offset="0.2395" style="stop-color:#E5E5E5"/>
			<stop  offset="0.3025" style="stop-color:#ECECEC"/>
			<stop  offset="0.4074" style="stop-color:#E8E8E8"/>
			<stop  offset="0.514" style="stop-color:#DCDCDC"/>
			<stop  offset="0.6214" style="stop-color:#C7C7C7"/>
			<stop  offset="0.7294" style="stop-color:#ABABAB"/>
			<stop  offset="0.8378" style="stop-color:#868686"/>
			<stop  offset="0.9452" style="stop-color:#5A5A5A"/>
			<stop  offset="1" style="stop-color:#404040"/>
		</linearGradient>
		
			<polyline id="Edge_Left_4_" fill="url(#Edge_Left_2_)" stroke="#8C8C91" stroke-width="0.75" stroke-linejoin="round" stroke-miterlimit="10" points="
			10.2,202.7 7.9,201.5 7.9,3.4 10.2,2.2 		"/>
	</g>
</g>
<g id="Handle__x2B__Pipe_Connection">
	<linearGradient id="Adapter_1_" gradientUnits="userSpaceOnUse" x1="131.2671" y1="83.4829" x2="167.6853" y2="119.9012">
		<stop  offset="0" style="stop-color:#FFFFFF"/>
		<stop  offset="1" style="stop-color:#646567"/>
	</linearGradient>
	
		<circle id="Adapter" fill="url(#Adapter_1_)" stroke="#8C8C91" stroke-width="0.75" stroke-linejoin="round" stroke-miterlimit="10" cx="150.2" cy="102.4" r="26.1"/>
	<g id="Handle_Wheel">
		<linearGradient id="Shape_4_" gradientUnits="userSpaceOnUse" x1="89.0171" y1="41.2319" x2="207.719" y2="159.9338">
			<stop  offset="0" style="stop-color:#FFFFFF"/>
			<stop  offset="1" style="stop-color:#575756"/>
		</linearGradient>
		
			<path id="Shape" fill="url(#Shape_4_)" stroke="#8C8C91" stroke-width="0.75" stroke-linecap="round" stroke-linejoin="round" stroke-miterlimit="10" d="
			M150.2,19.8c-45.7,0-82.7,37-82.7,82.7c0,45.7,37,82.7,82.7,82.7c45.7,0,82.7-37,82.7-82.7C232.9,56.8,195.9,19.8,150.2,19.8z
			 M150.2,167.4c-35.9,0-65-29.1-65-65c0-35.9,29.1-65,65-65c35.9,0,65,29.1,65,65C215.2,138.3,186.1,167.4,150.2,167.4z"/>
		
			<linearGradient id="Edge_Inside__x2B__Axle_Connection_1_" gradientUnits="userSpaceOnUse" x1="209.6592" y1="161.877" x2="100.1185" y2="52.3363">
			<stop  offset="0" style="stop-color:#FFFFFF"/>
			<stop  offset="1" style="stop-color:#575756"/>
		</linearGradient>
		
			<path id="Edge_Inside__x2B__Axle_Connection" fill="url(#Edge_Inside__x2B__Axle_Connection_1_)" stroke="#8C8C91" stroke-width="0.75" stroke-linecap="round" stroke-linejoin="round" stroke-miterlimit="10" d="
			M201.7,51c-28.4-28.4-74.6-28.4-103,0c-28.4,28.4-28.4,74.6,0,103c28.4,28.4,74.6,28.4,103,0C230.2,125.5,230.2,79.4,201.7,51z
			 M190.6,53.7l-31,31c-5.3-2.8-11.5-3.1-16.9-0.9l-31.4-31.3C134.7,34.3,167.8,34.7,190.6,53.7z M100.2,63.6L131.6,95
			c-2.2,5.4-1.9,11.7,0.9,16.9l-31,31C82.5,120,82.1,86.9,100.2,63.6z M112.9,153.7l31.9-31.9c4.3,1.2,8.8,1,12.9-0.7l31.4,31.4
			C166.8,169.8,135.6,170.2,112.9,153.7z M200.2,141.3L168.9,110c1.7-4.1,1.9-8.7,0.7-13l31.9-31.9
			C218,87.8,217.6,119.1,200.2,141.3z"/>
		<linearGradient id="Centre_Plate_1_" gradientUnits="userSpaceOnUse" x1="136.1909" y1="88.4106" x2="158.59" y2="110.8097">
			<stop  offset="0" style="stop-color:#FFFFFF"/>
			<stop  offset="1" style="stop-color:#7C7C7B"/>
		</linearGradient>
		
			<path id="Centre_Plate" fill="url(#Centre_Plate_1_)" stroke="#8C8C91" stroke-width="0.75" stroke-linecap="round" stroke-linejoin="round" stroke-miterlimit="10" d="
			M159.7,92.9c-5.2-5.2-13.8-5.2-19,0c-5.2,5.3-5.2,13.8,0,19c5.3,5.2,13.8,5.2,19,0C165,106.7,165,98.2,159.7,92.9z"/>
	</g>
</g>
</svg>
