<?xml version="1.0" encoding="utf-8"?>

<!-- Copyright 2016 Siemens AG -->

<!-- Generator: Adobe Illustrator 16.0.4, SVG Export Plug-In . SVG Version: 6.00 Build 0)  -->
<!DOCTYPE svg PUBLIC "-//W3C//DTD SVG 1.1//EN" "http://www.w3.org/Graphics/SVG/1.1/DTD/svg11.dtd">
<svg version="1.1" id="Heating_Element_Cold" xmlns="http://www.w3.org/2000/svg" xmlns:xlink="http://www.w3.org/1999/xlink"
	 x="0px" y="0px" width="300px" height="90px" viewBox="0 0 300 90" enable-background="new 0 0 300 90" xml:space="preserve">
<linearGradient id="Gradation_Area_Cold_1_" gradientUnits="userSpaceOnUse" x1="150.0005" y1="88" x2="150.0005" y2="1.8942">
	<stop  offset="0" style="stop-color:#0024F7"/>
	<stop  offset="1" style="stop-color:#23D9D3"/>
</linearGradient>
<rect id="Gradation_Area_Cold" x="2" y="2" fill="url(#Gradation_Area_Cold_1_)" width="296" height="86"/>
<g id="Tubes">
	<g id="Horizontal_Tube_Top">
		<linearGradient id="Shape_13_" gradientUnits="userSpaceOnUse" x1="131.771" y1="14.3594" x2="131.771" y2="23.1401">
			<stop  offset="0" style="stop-color:#A5A5A5"/>
			<stop  offset="4.758149e-02" style="stop-color:#B5B5B5"/>
			<stop  offset="0.1509" style="stop-color:#D3D3D3"/>
			<stop  offset="0.2395" style="stop-color:#E5E5E5"/>
			<stop  offset="0.3025" style="stop-color:#ECECEC"/>
			<stop  offset="0.4074" style="stop-color:#E8E8E8"/>
			<stop  offset="0.514" style="stop-color:#DCDCDC"/>
			<stop  offset="0.6214" style="stop-color:#C7C7C7"/>
			<stop  offset="0.7294" style="stop-color:#ABABAB"/>
			<stop  offset="0.8378" style="stop-color:#868686"/>
			<stop  offset="0.9452" style="stop-color:#5A5A5A"/>
			<stop  offset="1" style="stop-color:#404040"/>
		</linearGradient>
		
			<path id="Shape_12_" fill="url(#Shape_13_)" stroke="#8C8C91" stroke-width="0.75" stroke-linecap="round" stroke-linejoin="round" stroke-miterlimit="10" d="
			M8.8,14.3L8.8,14.3c-2.4,0-4.4,2-4.4,4.4c0,2.4,2,4.4,4.4,4.4l0,0h250.4v-8.8H8.8z"/>
		<linearGradient id="Reflection_1_" gradientUnits="userSpaceOnUse" x1="132.0347" y1="14.9551" x2="132.0347" y2="16.2039">
			<stop  offset="0" style="stop-color:#F2F2F2;stop-opacity:0.4"/>
			<stop  offset="1" style="stop-color:#F7F7F7;stop-opacity:0.7"/>
		</linearGradient>
		<path id="Reflection_35_" fill="url(#Reflection_1_)" d="M258.8,16.8v-1.5H6.8c0,0-0.8,0.4-1.5,1.5
			C6.6,16.8,258.8,16.8,258.8,16.8z"/>
	</g>
	<g id="_x39_0_Degree_Tubes">
		<g id="Top_3_">
			<g id="Below_2_">
				<radialGradient id="Shape_14_" cx="226.6787" cy="31.8755" r="17.4571" gradientUnits="userSpaceOnUse">
					<stop  offset="0.5025" style="stop-color:#A5A5A5"/>
					<stop  offset="0.5098" style="stop-color:#ABABAB"/>
					<stop  offset="0.5469" style="stop-color:#C8C8C8"/>
					<stop  offset="0.5842" style="stop-color:#DCDCDC"/>
					<stop  offset="0.6213" style="stop-color:#E8E8E8"/>
					<stop  offset="0.658" style="stop-color:#ECECEC"/>
					<stop  offset="0.7046" style="stop-color:#E7E7E7"/>
					<stop  offset="0.7572" style="stop-color:#DADADA"/>
					<stop  offset="0.8128" style="stop-color:#C3C3C3"/>
					<stop  offset="0.8704" style="stop-color:#A3A3A3"/>
					<stop  offset="0.9295" style="stop-color:#7B7B7B"/>
					<stop  offset="0.9892" style="stop-color:#4A4A4A"/>
					<stop  offset="1" style="stop-color:#404040"/>
				</radialGradient>
				<path id="Shape_60_" fill="url(#Shape_14_)" d="M244.2,31.8c0,9.7-7.8,17.5-17.5,17.5v-8.8c4.8,0,8.7-3.9,8.7-8.7H244.2z"/>
				<linearGradient id="Reflection_5_" gradientUnits="userSpaceOnUse" x1="231.2158" y1="36.375" x2="232.2689" y2="37.4281">
					<stop  offset="0" style="stop-color:#F2F2F2;stop-opacity:0.4"/>
					<stop  offset="1" style="stop-color:#F7F7F7;stop-opacity:0.7"/>
				</linearGradient>
				<path id="Reflection_45_" fill="url(#Reflection_5_)" d="M236.3,31.8c0,4.2-2.7,7.8-6.5,9.1c-1,0.3-2,0.5-3,0.5v1.5
					c6.1,0,11.1-5,11.1-11.1H236.3z"/>
				<path id="Outline_38_" fill="none" stroke="#8C8C91" stroke-width="0.75" stroke-miterlimit="10" d="M235.3,31.8
					c0,4.8-3.9,8.7-8.7,8.7 M226.7,49.4c9.7,0,17.5-7.8,17.5-17.5"/>
			</g>
			<g id="Top_2_">
				
					<radialGradient id="Shape_15_" cx="158.3574" cy="-484.6206" r="19.7123" gradientTransform="matrix(1 0 0 1.2218 66.4585 625.5529)" gradientUnits="userSpaceOnUse">
					<stop  offset="0.4448" style="stop-color:#404040"/>
					<stop  offset="0.4562" style="stop-color:#4E4E4E"/>
					<stop  offset="0.5066" style="stop-color:#868686"/>
					<stop  offset="0.5534" style="stop-color:#B2B2B2"/>
					<stop  offset="0.5951" style="stop-color:#D2D2D2"/>
					<stop  offset="0.6301" style="stop-color:#E5E5E5"/>
					<stop  offset="0.6541" style="stop-color:#ECECEC"/>
					<stop  offset="0.704" style="stop-color:#E8E8E8"/>
					<stop  offset="0.7549" style="stop-color:#DCDCDC"/>
					<stop  offset="0.8062" style="stop-color:#C7C7C7"/>
					<stop  offset="0.8578" style="stop-color:#ABABAB"/>
					<stop  offset="0.9096" style="stop-color:#868686"/>
					<stop  offset="0.961" style="stop-color:#595959"/>
					<stop  offset="0.9819" style="stop-color:#454545"/>
				</radialGradient>
				<path id="Shape_59_" fill="url(#Shape_15_)" d="M226.7,14.3c9.7,0,17.5,7.8,17.5,17.5h-8.8c0-4.8-3.9-8.7-8.7-8.7V14.3z"/>
				<g id="Refection_5_">
					<linearGradient id="Below_4_" gradientUnits="userSpaceOnUse" x1="236.5" y1="29.8911" x2="237.5243" y2="29.8517">
						<stop  offset="0" style="stop-color:#F2F2F2;stop-opacity:0.4"/>
						<stop  offset="1" style="stop-color:#F7F7F7;stop-opacity:0.7"/>
					</linearGradient>
					<path id="Below_5_" fill="url(#Below_4_)" d="M235.4,27.9c0.5,1.1,0.8,2.3,0.8,3.5c0,0.3,0,0.4,0,0.4c0,0,0,0,0,0s1.1,0,1.5,0
						C237.8,31.6,237.6,29.4,235.4,27.9z"/>
					<linearGradient id="Top_4_" gradientUnits="userSpaceOnUse" x1="230.9609" y1="16.1621" x2="230.0046" y2="18.8068">
						<stop  offset="0" style="stop-color:#CFCFCE"/>
						<stop  offset="3.795755e-02" style="stop-color:#D2D2D1"/>
						<stop  offset="0.4028" style="stop-color:#EBEBEA"/>
						<stop  offset="0.7341" style="stop-color:#FAFAFA"/>
						<stop  offset="1" style="stop-color:#FFFFFF"/>
					</linearGradient>
					<path id="Top_5_" fill="url(#Top_4_)" d="M235.1,17.6c-2.5-1.5-5.3-2.3-8.4-2.3v1.5C227.3,16.8,232,16.8,235.1,17.6z"/>
				</g>
				<linearGradient id="Gradation_Top_2_" gradientUnits="userSpaceOnUse" x1="230.5322" y1="18.8794" x2="232.2877" y2="14.134">
					<stop  offset="0" style="stop-color:#FFFFFF"/>
					<stop  offset="0.3096" style="stop-color:#D3D3D2"/>
					<stop  offset="0.7778" style="stop-color:#949494"/>
					<stop  offset="1" style="stop-color:#7C7C7B"/>
				</linearGradient>
				<path id="Gradation_Top_5_" fill="url(#Gradation_Top_2_)" d="M226.7,14.3v0.9c3.1,0,5.9,0.9,8.4,2.3c0.5,0,1.1,0,1.5-0.1
					C233.8,15.5,230.4,14.4,226.7,14.3z"/>
				<path id="Outline_37_" fill="none" stroke="#8C8C91" stroke-width="0.75" stroke-miterlimit="10" d="M226.7,23.2
					c4.8,0,8.7,3.9,8.7,8.7 M244.2,31.8c0-9.7-7.8-17.5-17.5-17.5"/>
			</g>
		</g>
		<g id="Below_3_">
			<g id="Below">
				<radialGradient id="Shape_16_" cx="226.6787" cy="58.1362" r="17.4576" gradientUnits="userSpaceOnUse">
					<stop  offset="0.5025" style="stop-color:#A5A5A5"/>
					<stop  offset="0.5098" style="stop-color:#ABABAB"/>
					<stop  offset="0.5469" style="stop-color:#C8C8C8"/>
					<stop  offset="0.5842" style="stop-color:#DCDCDC"/>
					<stop  offset="0.6213" style="stop-color:#E8E8E8"/>
					<stop  offset="0.658" style="stop-color:#ECECEC"/>
					<stop  offset="0.7046" style="stop-color:#E7E7E7"/>
					<stop  offset="0.7572" style="stop-color:#DADADA"/>
					<stop  offset="0.8128" style="stop-color:#C3C3C3"/>
					<stop  offset="0.8704" style="stop-color:#A3A3A3"/>
					<stop  offset="0.9295" style="stop-color:#7B7B7B"/>
					<stop  offset="0.9892" style="stop-color:#4A4A4A"/>
					<stop  offset="1" style="stop-color:#404040"/>
				</radialGradient>
				<path id="Shape_5_" fill="url(#Shape_16_)" d="M244.2,58.1c0,9.7-7.8,17.5-17.5,17.5v-8.8c4.8,0,8.7-3.9,8.7-8.7H244.2z"/>
				<linearGradient id="Reflection_6_" gradientUnits="userSpaceOnUse" x1="231.2158" y1="62.6367" x2="232.2689" y2="63.6898">
					<stop  offset="0" style="stop-color:#F2F2F2;stop-opacity:0.4"/>
					<stop  offset="1" style="stop-color:#F7F7F7;stop-opacity:0.7"/>
				</linearGradient>
				<path id="Reflection_3_" fill="url(#Reflection_6_)" d="M236.3,58.1c0,4.2-2.7,7.8-6.5,9.1c-1,0.3-2,0.5-3,0.5v1.5
					c6.1,0,11.1-5,11.1-11.1H236.3z"/>
				<path id="Outline_3_" fill="none" stroke="#8C8C91" stroke-width="0.75" stroke-miterlimit="10" d="M235.3,58.1
					c0,4.8-3.9,8.7-8.7,8.7 M226.7,75.6c9.7,0,17.5-7.8,17.5-17.5"/>
			</g>
			<g id="Top">
				
					<radialGradient id="Shape_17_" cx="184.6187" cy="-484.6206" r="19.7123" gradientTransform="matrix(1 0 0 1.2218 40.1973 651.8141)" gradientUnits="userSpaceOnUse">
					<stop  offset="0.4448" style="stop-color:#404040"/>
					<stop  offset="0.4562" style="stop-color:#4E4E4E"/>
					<stop  offset="0.5066" style="stop-color:#868686"/>
					<stop  offset="0.5534" style="stop-color:#B2B2B2"/>
					<stop  offset="0.5951" style="stop-color:#D2D2D2"/>
					<stop  offset="0.6301" style="stop-color:#E5E5E5"/>
					<stop  offset="0.6541" style="stop-color:#ECECEC"/>
					<stop  offset="0.704" style="stop-color:#E8E8E8"/>
					<stop  offset="0.7549" style="stop-color:#DCDCDC"/>
					<stop  offset="0.8062" style="stop-color:#C7C7C7"/>
					<stop  offset="0.8578" style="stop-color:#ABABAB"/>
					<stop  offset="0.9096" style="stop-color:#868686"/>
					<stop  offset="0.961" style="stop-color:#595959"/>
					<stop  offset="0.9819" style="stop-color:#454545"/>
				</radialGradient>
				<path id="Shape_4_" fill="url(#Shape_17_)" d="M226.7,40.6c9.7,0,17.5,7.8,17.5,17.5h-8.8c0-4.8-3.9-8.7-8.7-8.7V40.6z"/>
				<g id="Refection_1_">
					<linearGradient id="Below_6_" gradientUnits="userSpaceOnUse" x1="236.5" y1="56.1523" x2="237.5243" y2="56.113">
						<stop  offset="0" style="stop-color:#F2F2F2;stop-opacity:0.4"/>
						<stop  offset="1" style="stop-color:#F7F7F7;stop-opacity:0.7"/>
					</linearGradient>
					<path id="Below_1_" fill="url(#Below_6_)" d="M235.4,54.2c0.5,1.1,0.8,2.3,0.8,3.5c0,0.3,0,0.4,0,0.4c0,0,0,0,0,0s1.1,0,1.5,0
						C237.8,57.9,237.6,55.7,235.4,54.2z"/>
					<linearGradient id="Top_6_" gradientUnits="userSpaceOnUse" x1="230.9619" y1="42.4238" x2="230.0058" y2="45.0679">
						<stop  offset="0" style="stop-color:#CFCFCE"/>
						<stop  offset="3.795755e-02" style="stop-color:#D2D2D1"/>
						<stop  offset="0.4028" style="stop-color:#EBEBEA"/>
						<stop  offset="0.7341" style="stop-color:#FAFAFA"/>
						<stop  offset="1" style="stop-color:#FFFFFF"/>
					</linearGradient>
					<path id="Top_1_" fill="url(#Top_6_)" d="M235.1,43.8c-2.5-1.5-5.3-2.3-8.4-2.3V43C227.3,43,232,43,235.1,43.8z"/>
				</g>
				<linearGradient id="Gradation_Top_3_" gradientUnits="userSpaceOnUse" x1="230.5332" y1="45.1396" x2="232.2882" y2="40.3955">
					<stop  offset="0" style="stop-color:#FFFFFF"/>
					<stop  offset="0.3096" style="stop-color:#D3D3D2"/>
					<stop  offset="0.7778" style="stop-color:#949494"/>
					<stop  offset="1" style="stop-color:#7C7C7B"/>
				</linearGradient>
				<path id="Gradation_Top_1_" fill="url(#Gradation_Top_3_)" d="M226.7,40.6v0.9c3.1,0,5.9,0.9,8.4,2.3c0.5,0,1.1,0,1.5-0.1
					C233.8,41.8,230.4,40.6,226.7,40.6z"/>
				<path id="Outline_2_" fill="none" stroke="#8C8C91" stroke-width="0.75" stroke-miterlimit="10" d="M226.7,49.5
					c4.8,0,8.7,3.9,8.7,8.7 M244.2,58.1c0-9.7-7.8-17.5-17.5-17.5"/>
			</g>
		</g>
	</g>
	<g id="Horizontal_Tube_Bottom">
		<linearGradient id="Shape_18_" gradientUnits="userSpaceOnUse" x1="131.7329" y1="66.7954" x2="131.7329" y2="75.5762">
			<stop  offset="0" style="stop-color:#A5A5A5"/>
			<stop  offset="4.758149e-02" style="stop-color:#B5B5B5"/>
			<stop  offset="0.1509" style="stop-color:#D3D3D3"/>
			<stop  offset="0.2395" style="stop-color:#E5E5E5"/>
			<stop  offset="0.3025" style="stop-color:#ECECEC"/>
			<stop  offset="0.4074" style="stop-color:#E8E8E8"/>
			<stop  offset="0.514" style="stop-color:#DCDCDC"/>
			<stop  offset="0.6214" style="stop-color:#C7C7C7"/>
			<stop  offset="0.7294" style="stop-color:#ABABAB"/>
			<stop  offset="0.8378" style="stop-color:#868686"/>
			<stop  offset="0.9452" style="stop-color:#5A5A5A"/>
			<stop  offset="1" style="stop-color:#404040"/>
		</linearGradient>
		
			<path id="Shape_11_" fill="url(#Shape_18_)" stroke="#8C8C91" stroke-width="0.75" stroke-linecap="round" stroke-linejoin="round" stroke-miterlimit="10" d="
			M8.7,66.8L8.7,66.8c-2.4,0-4.4,2-4.4,4.4c0,2.4,2,4.4,4.4,4.4l0,0h250.4v-8.8H8.7z"/>
		<linearGradient id="Reflection_7_" gradientUnits="userSpaceOnUse" x1="132.0073" y1="67.3916" x2="132.0073" y2="68.64">
			<stop  offset="0" style="stop-color:#F2F2F2;stop-opacity:0.4"/>
			<stop  offset="1" style="stop-color:#F7F7F7;stop-opacity:0.7"/>
		</linearGradient>
		<path id="Reflection_4_" fill="url(#Reflection_7_)" d="M258.8,69.2v-1.5H6.8c0,0-1,0.6-1.5,1.5C6.6,69.2,258.8,69.2,258.8,69.2z"
			/>
	</g>
	<g id="Horizontal_Tube_Middle">
		<linearGradient id="Shape_19_" gradientUnits="userSpaceOnUse" x1="115.5273" y1="40.6211" x2="115.5273" y2="49.4023">
			<stop  offset="0" style="stop-color:#A5A5A5"/>
			<stop  offset="4.758149e-02" style="stop-color:#B5B5B5"/>
			<stop  offset="0.1509" style="stop-color:#D3D3D3"/>
			<stop  offset="0.2395" style="stop-color:#E5E5E5"/>
			<stop  offset="0.3025" style="stop-color:#ECECEC"/>
			<stop  offset="0.4074" style="stop-color:#E8E8E8"/>
			<stop  offset="0.514" style="stop-color:#DCDCDC"/>
			<stop  offset="0.6214" style="stop-color:#C7C7C7"/>
			<stop  offset="0.7294" style="stop-color:#ABABAB"/>
			<stop  offset="0.8378" style="stop-color:#868686"/>
			<stop  offset="0.9452" style="stop-color:#5A5A5A"/>
			<stop  offset="1" style="stop-color:#404040"/>
		</linearGradient>
		<path id="Shape" fill="url(#Shape_19_)" d="M8.8,40.6L8.8,40.6c-2.4,0-4.4,2-4.4,4.4c0,2.4,2,4.4,4.4,4.4l0,0h217.9v-8.8H8.8z"/>
		<linearGradient id="Reflection_8_" gradientUnits="userSpaceOnUse" x1="115.9937" y1="41.2168" x2="115.9937" y2="42.4652">
			<stop  offset="0" style="stop-color:#F2F2F2;stop-opacity:0.4"/>
			<stop  offset="1" style="stop-color:#F7F7F7;stop-opacity:0.7"/>
		</linearGradient>
		<path id="Reflection_2_" fill="url(#Reflection_8_)" d="M226.7,43v-1.5H6.8c0,0-0.8,0.5-1.5,1.5C6.6,43,226.7,43,226.7,43z"/>
		<path id="Outline" fill="none" stroke="#8C8C91" stroke-width="0.75" stroke-miterlimit="10" d="M226.7,40.6H8.8v0
			c-2.4,0-4.4,2-4.4,4.4c0,2.4,2,4.4,4.4,4.4l0,0h217.9"/>
	</g>
</g>
<g id="Connection_Bottom">
	<linearGradient id="Connection_Piece_2_" gradientUnits="userSpaceOnUse" x1="292.5508" y1="68.4985" x2="292.5508" y2="73.8453">
		<stop  offset="0" style="stop-color:#A5A5A5"/>
		<stop  offset="4.758149e-02" style="stop-color:#B5B5B5"/>
		<stop  offset="0.1509" style="stop-color:#D3D3D3"/>
		<stop  offset="0.2395" style="stop-color:#E5E5E5"/>
		<stop  offset="0.3025" style="stop-color:#ECECEC"/>
		<stop  offset="0.4074" style="stop-color:#E8E8E8"/>
		<stop  offset="0.514" style="stop-color:#DCDCDC"/>
		<stop  offset="0.6214" style="stop-color:#C7C7C7"/>
		<stop  offset="0.7294" style="stop-color:#ABABAB"/>
		<stop  offset="0.8378" style="stop-color:#868686"/>
		<stop  offset="0.9452" style="stop-color:#5A5A5A"/>
		<stop  offset="1" style="stop-color:#404040"/>
	</linearGradient>
	
		<rect id="Connection_Piece_1_" x="289.2" y="68.1" fill="url(#Connection_Piece_2_)" stroke="#8C8C91" stroke-width="0.75" stroke-linecap="round" stroke-linejoin="round" stroke-miterlimit="10" width="6.6" height="6.1"/>
	<g id="Nut_2_">
		<linearGradient id="Shape_20_" gradientUnits="userSpaceOnUse" x1="284.0762" y1="71.2305" x2="289.2324" y2="71.2305">
			<stop  offset="0" style="stop-color:#FFFFFF"/>
			<stop  offset="1" style="stop-color:#7C7C7B"/>
		</linearGradient>
		
			<rect id="Shape_10_" x="284.1" y="66.3" fill="url(#Shape_20_)" stroke="#8C8C91" stroke-width="0.75" stroke-linecap="round" stroke-linejoin="round" stroke-miterlimit="10" width="5.2" height="9.9"/>
		
			<linearGradient id="Shape_Side_Underneath_3_" gradientUnits="userSpaceOnUse" x1="274.291" y1="76.1582" x2="286.3659" y2="76.1582">
			<stop  offset="0" style="stop-color:#FFFFFF"/>
			<stop  offset="1" style="stop-color:#7C7C7B"/>
		</linearGradient>
		
			<path id="Shape_Side_Underneath_2_" fill="url(#Shape_Side_Underneath_3_)" stroke="#8C8C91" stroke-width="0.75" stroke-linecap="round" stroke-linejoin="round" stroke-miterlimit="10" d="
			M288.3,77.7c0.5,0,1-0.7,1-1.6c0-0.9-0.4-1.6-1-1.6H285c-0.5,0-1,0.7-1,1.6c0,0.9,0.4,1.6,1,1.6H288.3z"/>
		<linearGradient id="Shape_Side_Middle_3_" gradientUnits="userSpaceOnUse" x1="278.3477" y1="71.231" x2="293.8563" y2="71.231">
			<stop  offset="0" style="stop-color:#FFFFFF"/>
			<stop  offset="1" style="stop-color:#7C7C7B"/>
		</linearGradient>
		
			<path id="Shape_Side_Middle_2_" fill="url(#Shape_Side_Middle_3_)" stroke="#8C8C91" stroke-width="0.75" stroke-linecap="round" stroke-linejoin="round" stroke-miterlimit="10" d="
			M288.3,74.6c0.5,0,1-1.5,1-3.4c0-1.9-0.4-3.4-1-3.4H285c-0.5,0-1,1.5-1,3.4c0,1.9,0.4,3.4,1,3.4H288.3z"/>
		
			<path id="Shape_Side_Top_2_" fill="#DEDEDE" stroke="#8C8C91" stroke-width="0.75" stroke-linecap="round" stroke-linejoin="round" stroke-miterlimit="10" d="
			M288.3,67.9c0.5,0,1-0.7,1-1.6c0-0.9-0.4-1.6-1-1.6H285c-0.5,0-1,0.7-1,1.6c0,0.9,0.4,1.6,1,1.6H288.3z"/>
	</g>
	
		<linearGradient id="Intermediate_Piece_3_2_" gradientUnits="userSpaceOnUse" x1="281.1387" y1="67.271" x2="281.1387" y2="75.0659">
		<stop  offset="0" style="stop-color:#A5A5A5"/>
		<stop  offset="4.758149e-02" style="stop-color:#B5B5B5"/>
		<stop  offset="0.1509" style="stop-color:#D3D3D3"/>
		<stop  offset="0.2395" style="stop-color:#E5E5E5"/>
		<stop  offset="0.3025" style="stop-color:#ECECEC"/>
		<stop  offset="0.4074" style="stop-color:#E8E8E8"/>
		<stop  offset="0.514" style="stop-color:#DCDCDC"/>
		<stop  offset="0.6214" style="stop-color:#C7C7C7"/>
		<stop  offset="0.7294" style="stop-color:#ABABAB"/>
		<stop  offset="0.8378" style="stop-color:#868686"/>
		<stop  offset="0.9452" style="stop-color:#5A5A5A"/>
		<stop  offset="1" style="stop-color:#404040"/>
	</linearGradient>
	
		<rect id="Intermediate_Piece_3_1_" x="278.2" y="66.9" fill="url(#Intermediate_Piece_3_2_)" stroke="#8C8C91" stroke-width="0.75" stroke-linecap="round" stroke-linejoin="round" stroke-miterlimit="10" width="5.9" height="8.5"/>
	
		<linearGradient id="Intermediate_Piece_2_2_" gradientUnits="userSpaceOnUse" x1="276.3965" y1="68.4634" x2="276.3965" y2="73.9048">
		<stop  offset="0" style="stop-color:#6B6B6A"/>
		<stop  offset="1" style="stop-color:#434343"/>
	</linearGradient>
	
		<rect id="Intermediate_Piece_2_1_" x="274.6" y="68.1" fill="url(#Intermediate_Piece_2_2_)" stroke="#575756" stroke-width="0.75" stroke-linecap="round" stroke-linejoin="round" stroke-miterlimit="10" width="3.6" height="6.1"/>
	
		<linearGradient id="Intermediate_Piece_1_2_" gradientUnits="userSpaceOnUse" x1="273.3008" y1="63.5405" x2="273.3008" y2="75.6868">
		<stop  offset="0" style="stop-color:#575756"/>
		<stop  offset="1.586480e-02" style="stop-color:#5D5C5C"/>
		<stop  offset="0.1171" style="stop-color:#797878"/>
		<stop  offset="0.2183" style="stop-color:#8D8D8C"/>
		<stop  offset="0.3189" style="stop-color:#999998"/>
		<stop  offset="0.4178" style="stop-color:#9D9D9C"/>
		<stop  offset="0.5402" style="stop-color:#979696"/>
		<stop  offset="0.7122" style="stop-color:#848484"/>
		<stop  offset="0.9127" style="stop-color:#676666"/>
		<stop  offset="1" style="stop-color:#575756"/>
	</linearGradient>
	
		<rect id="Intermediate_Piece_1_1_" x="272" y="63.9" fill="url(#Intermediate_Piece_1_2_)" stroke="#646567" stroke-width="0.75" stroke-linecap="round" stroke-linejoin="round" stroke-miterlimit="10" width="2.6" height="14.5"/>
	<g id="Big_Nut_Right_1_">
		<linearGradient id="Shape_21_" gradientUnits="userSpaceOnUse" x1="261.3428" y1="71.2031" x2="266.6084" y2="71.2031">
			<stop  offset="0" style="stop-color:#FFFFFF"/>
			<stop  offset="1" style="stop-color:#7C7C7B"/>
		</linearGradient>
		
			<rect id="Shape_8_" x="265.6" y="63.8" fill="url(#Shape_21_)" stroke="#8C8C91" stroke-width="0.75" stroke-linecap="round" stroke-linejoin="round" stroke-miterlimit="10" width="6.4" height="14.9"/>
		<linearGradient id="Shape_Underneath_5_" gradientUnits="userSpaceOnUse" x1="276.6035" y1="73.9912" x2="272.0007" y2="76.5323">
			<stop  offset="0" style="stop-color:#FFFFFF"/>
			<stop  offset="1" style="stop-color:#7C7C7B"/>
		</linearGradient>
		
			<path id="Shape_Underneath_4_" fill="url(#Shape_Underneath_5_)" stroke="#8C8C91" stroke-width="0.75" stroke-linecap="round" stroke-linejoin="round" stroke-miterlimit="10" d="
			M270.5,81c0.8,0,1.5-1.1,1.5-2.4c0-1.3-0.7-2.4-1.5-2.4h-4.9c0,1,0,4.1,0,4.8H270.5z"/>
		<linearGradient id="Shape_Middle_5_" gradientUnits="userSpaceOnUse" x1="279.4072" y1="54.5479" x2="260.9214" y2="82.0175">
			<stop  offset="0" style="stop-color:#FFFFFF"/>
			<stop  offset="1" style="stop-color:#7C7C7B"/>
		</linearGradient>
		
			<path id="Shape_Middle_4_" fill="url(#Shape_Middle_5_)" stroke="#8C8C91" stroke-width="0.75" stroke-linecap="round" stroke-linejoin="round" stroke-miterlimit="10" d="
			M270.5,76.3c0.8,0,1.5-2.3,1.5-5.1c0-2.8-0.7-5.1-1.5-5.1h-4.9c0,1.9,0,9,0,10.1H270.5z"/>
		<linearGradient id="Shape_Top_5_" gradientUnits="userSpaceOnUse" x1="275.502" y1="60.9683" x2="248.8529" y2="71.0389">
			<stop  offset="0" style="stop-color:#FFFFFF"/>
			<stop  offset="1" style="stop-color:#7C7C7B"/>
		</linearGradient>
		
			<path id="Shape_Top_4_" fill="url(#Shape_Top_5_)" stroke="#8C8C91" stroke-width="0.75" stroke-linecap="round" stroke-linejoin="round" stroke-miterlimit="10" d="
			M270.5,66.1c0.8,0,1.5-1.1,1.5-2.4c0-1.3-0.7-2.4-1.5-2.4h-4.9c0,1,0,3.9,0,4.8H270.5z"/>
	</g>
	<g id="Big_Nut_Left_1_">
		<linearGradient id="Shape_22_" gradientUnits="userSpaceOnUse" x1="259.1787" y1="71.2031" x2="265.5967" y2="71.2031">
			<stop  offset="0" style="stop-color:#FFFFFF"/>
			<stop  offset="1" style="stop-color:#7C7C7B"/>
		</linearGradient>
		
			<rect id="Shape_7_" x="259.2" y="63.8" fill="url(#Shape_22_)" stroke="#8C8C91" stroke-width="0.75" stroke-linecap="round" stroke-linejoin="round" stroke-miterlimit="10" width="6.4" height="14.9"/>
		<linearGradient id="Shape_Underneath_6_" gradientUnits="userSpaceOnUse" x1="244.4521" y1="67.2603" x2="260.2817" y2="76.9738">
			<stop  offset="0" style="stop-color:#FFFFFF"/>
			<stop  offset="1" style="stop-color:#7C7C7B"/>
		</linearGradient>
		
			<path id="Shape_Underneath_3_" fill="url(#Shape_Underneath_6_)" stroke="#8C8C91" stroke-width="0.75" stroke-linecap="round" stroke-linejoin="round" stroke-miterlimit="10" d="
			M260.7,81c-0.8,0-1.5-1.1-1.5-2.4c0-1.3,0.7-2.4,1.5-2.4h4.9c0,1,0,4.1,0,4.8H260.7z"/>
		<linearGradient id="Shape_Middle_6_" gradientUnits="userSpaceOnUse" x1="247.959" y1="64.145" x2="276.6151" y2="77.4976">
			<stop  offset="0" style="stop-color:#FFFFFF"/>
			<stop  offset="1" style="stop-color:#7C7C7B"/>
		</linearGradient>
		
			<path id="Shape_Middle_3_" fill="url(#Shape_Middle_6_)" stroke="#8C8C91" stroke-width="0.75" stroke-linecap="round" stroke-linejoin="round" stroke-miterlimit="10" d="
			M260.7,76.3c-0.8,0-1.5-2.3-1.5-5.1c0-2.8,0.7-5.1,1.5-5.1h4.9c0,1.9,0,9,0,10.1H260.7z"/>
		<linearGradient id="Shape_Top_6_" gradientUnits="userSpaceOnUse" x1="255.5098" y1="59.5508" x2="285.8082" y2="76.508">
			<stop  offset="0" style="stop-color:#FFFFFF"/>
			<stop  offset="1" style="stop-color:#7C7C7B"/>
		</linearGradient>
		
			<path id="Shape_Top_3_" fill="url(#Shape_Top_6_)" stroke="#8C8C91" stroke-width="0.75" stroke-linecap="round" stroke-linejoin="round" stroke-miterlimit="10" d="
			M260.7,66.1c-0.8,0-1.5-1.1-1.5-2.4c0-1.3,0.7-2.4,1.5-2.4h4.9c0,1,0,3.9,0,4.8H260.7z"/>
	</g>
</g>
<g id="Connection_Top">
	<linearGradient id="Connection_Piece_3_" gradientUnits="userSpaceOnUse" x1="292.5508" y1="16.0625" x2="292.5508" y2="21.4093">
		<stop  offset="0" style="stop-color:#A5A5A5"/>
		<stop  offset="4.758149e-02" style="stop-color:#B5B5B5"/>
		<stop  offset="0.1509" style="stop-color:#D3D3D3"/>
		<stop  offset="0.2395" style="stop-color:#E5E5E5"/>
		<stop  offset="0.3025" style="stop-color:#ECECEC"/>
		<stop  offset="0.4074" style="stop-color:#E8E8E8"/>
		<stop  offset="0.514" style="stop-color:#DCDCDC"/>
		<stop  offset="0.6214" style="stop-color:#C7C7C7"/>
		<stop  offset="0.7294" style="stop-color:#ABABAB"/>
		<stop  offset="0.8378" style="stop-color:#868686"/>
		<stop  offset="0.9452" style="stop-color:#5A5A5A"/>
		<stop  offset="1" style="stop-color:#404040"/>
	</linearGradient>
	
		<rect id="Connection_Piece" x="289.2" y="15.7" fill="url(#Connection_Piece_3_)" stroke="#8C8C91" stroke-width="0.75" stroke-linecap="round" stroke-linejoin="round" stroke-miterlimit="10" width="6.6" height="6.1"/>
	<g id="Nut_1_">
		<linearGradient id="Shape_23_" gradientUnits="userSpaceOnUse" x1="284.0762" y1="18.7944" x2="289.2324" y2="18.7944">
			<stop  offset="0" style="stop-color:#FFFFFF"/>
			<stop  offset="1" style="stop-color:#7C7C7B"/>
		</linearGradient>
		
			<rect id="Shape_9_" x="284.1" y="13.9" fill="url(#Shape_23_)" stroke="#8C8C91" stroke-width="0.75" stroke-linecap="round" stroke-linejoin="round" stroke-miterlimit="10" width="5.2" height="9.9"/>
		
			<linearGradient id="Shape_Side_Underneath_4_" gradientUnits="userSpaceOnUse" x1="274.291" y1="23.7217" x2="286.3659" y2="23.7217">
			<stop  offset="0" style="stop-color:#FFFFFF"/>
			<stop  offset="1" style="stop-color:#7C7C7B"/>
		</linearGradient>
		
			<path id="Shape_Side_Underneath_1_" fill="url(#Shape_Side_Underneath_4_)" stroke="#8C8C91" stroke-width="0.75" stroke-linecap="round" stroke-linejoin="round" stroke-miterlimit="10" d="
			M288.3,25.3c0.5,0,1-0.7,1-1.6c0-0.9-0.4-1.6-1-1.6H285c-0.5,0-1,0.7-1,1.6c0,0.9,0.4,1.6,1,1.6H288.3z"/>
		
			<linearGradient id="Shape_Side_Middle_4_" gradientUnits="userSpaceOnUse" x1="278.3477" y1="18.7949" x2="293.8563" y2="18.7949">
			<stop  offset="0" style="stop-color:#FFFFFF"/>
			<stop  offset="1" style="stop-color:#7C7C7B"/>
		</linearGradient>
		
			<path id="Shape_Side_Middle_1_" fill="url(#Shape_Side_Middle_4_)" stroke="#8C8C91" stroke-width="0.75" stroke-linecap="round" stroke-linejoin="round" stroke-miterlimit="10" d="
			M288.3,22.2c0.5,0,1-1.5,1-3.4s-0.4-3.4-1-3.4H285c-0.5,0-1,1.5-1,3.4s0.4,3.4,1,3.4H288.3z"/>
		
			<path id="Shape_Side_Top_1_" fill="#DEDEDE" stroke="#8C8C91" stroke-width="0.75" stroke-linecap="round" stroke-linejoin="round" stroke-miterlimit="10" d="
			M288.3,15.4c0.5,0,1-0.7,1-1.6c0-0.9-0.4-1.6-1-1.6H285c-0.5,0-1,0.7-1,1.6c0,0.9,0.4,1.6,1,1.6H288.3z"/>
	</g>
	
		<linearGradient id="Intermediate_Piece_3_3_" gradientUnits="userSpaceOnUse" x1="281.1387" y1="14.835" x2="281.1387" y2="22.6298">
		<stop  offset="0" style="stop-color:#A5A5A5"/>
		<stop  offset="4.758149e-02" style="stop-color:#B5B5B5"/>
		<stop  offset="0.1509" style="stop-color:#D3D3D3"/>
		<stop  offset="0.2395" style="stop-color:#E5E5E5"/>
		<stop  offset="0.3025" style="stop-color:#ECECEC"/>
		<stop  offset="0.4074" style="stop-color:#E8E8E8"/>
		<stop  offset="0.514" style="stop-color:#DCDCDC"/>
		<stop  offset="0.6214" style="stop-color:#C7C7C7"/>
		<stop  offset="0.7294" style="stop-color:#ABABAB"/>
		<stop  offset="0.8378" style="stop-color:#868686"/>
		<stop  offset="0.9452" style="stop-color:#5A5A5A"/>
		<stop  offset="1" style="stop-color:#404040"/>
	</linearGradient>
	
		<rect id="Intermediate_Piece_3" x="278.2" y="14.5" fill="url(#Intermediate_Piece_3_3_)" stroke="#8C8C91" stroke-width="0.75" stroke-linecap="round" stroke-linejoin="round" stroke-miterlimit="10" width="5.9" height="8.5"/>
	
		<linearGradient id="Intermediate_Piece_2_3_" gradientUnits="userSpaceOnUse" x1="276.3965" y1="16.0273" x2="276.3965" y2="21.4687">
		<stop  offset="0" style="stop-color:#6B6B6A"/>
		<stop  offset="1" style="stop-color:#434343"/>
	</linearGradient>
	
		<rect id="Intermediate_Piece_2" x="274.6" y="15.7" fill="url(#Intermediate_Piece_2_3_)" stroke="#575756" stroke-width="0.75" stroke-linecap="round" stroke-linejoin="round" stroke-miterlimit="10" width="3.6" height="6.1"/>
	
		<linearGradient id="Intermediate_Piece_1_3_" gradientUnits="userSpaceOnUse" x1="273.3008" y1="11.104" x2="273.3008" y2="23.2503">
		<stop  offset="0" style="stop-color:#575756"/>
		<stop  offset="1.586480e-02" style="stop-color:#5D5C5C"/>
		<stop  offset="0.1171" style="stop-color:#797878"/>
		<stop  offset="0.2183" style="stop-color:#8D8D8C"/>
		<stop  offset="0.3189" style="stop-color:#999998"/>
		<stop  offset="0.4178" style="stop-color:#9D9D9C"/>
		<stop  offset="0.5402" style="stop-color:#979696"/>
		<stop  offset="0.7122" style="stop-color:#848484"/>
		<stop  offset="0.9127" style="stop-color:#676666"/>
		<stop  offset="1" style="stop-color:#575756"/>
	</linearGradient>
	
		<rect id="Intermediate_Piece_1" x="272" y="11.5" fill="url(#Intermediate_Piece_1_3_)" stroke="#646567" stroke-width="0.75" stroke-linecap="round" stroke-linejoin="round" stroke-miterlimit="10" width="2.6" height="14.5"/>
	<g id="Big_Nut_Right">
		<linearGradient id="Shape_24_" gradientUnits="userSpaceOnUse" x1="261.3428" y1="18.7666" x2="266.6084" y2="18.7666">
			<stop  offset="0" style="stop-color:#FFFFFF"/>
			<stop  offset="1" style="stop-color:#7C7C7B"/>
		</linearGradient>
		
			<rect id="Shape_6_" x="265.6" y="11.3" fill="url(#Shape_24_)" stroke="#8C8C91" stroke-width="0.75" stroke-linecap="round" stroke-linejoin="round" stroke-miterlimit="10" width="6.4" height="14.9"/>
		<linearGradient id="Shape_Underneath_7_" gradientUnits="userSpaceOnUse" x1="276.6035" y1="21.5552" x2="272.0007" y2="24.0963">
			<stop  offset="0" style="stop-color:#FFFFFF"/>
			<stop  offset="1" style="stop-color:#7C7C7B"/>
		</linearGradient>
		
			<path id="Shape_Underneath_2_" fill="url(#Shape_Underneath_7_)" stroke="#8C8C91" stroke-width="0.75" stroke-linecap="round" stroke-linejoin="round" stroke-miterlimit="10" d="
			M270.5,28.6c0.8,0,1.5-1.1,1.5-2.4c0-1.3-0.7-2.4-1.5-2.4h-4.9c0,1,0,4.1,0,4.8H270.5z"/>
		<linearGradient id="Shape_Middle_7_" gradientUnits="userSpaceOnUse" x1="279.4062" y1="2.1123" x2="260.9213" y2="29.5808">
			<stop  offset="0" style="stop-color:#FFFFFF"/>
			<stop  offset="1" style="stop-color:#7C7C7B"/>
		</linearGradient>
		
			<path id="Shape_Middle_2_" fill="url(#Shape_Middle_7_)" stroke="#8C8C91" stroke-width="0.75" stroke-linecap="round" stroke-linejoin="round" stroke-miterlimit="10" d="
			M270.5,23.8c0.8,0,1.5-2.3,1.5-5.1c0-2.8-0.7-5.1-1.5-5.1h-4.9c0,1.9,0,9,0,10.1H270.5z"/>
		<linearGradient id="Shape_Top_7_" gradientUnits="userSpaceOnUse" x1="275.502" y1="8.5332" x2="248.8529" y2="18.6039">
			<stop  offset="0" style="stop-color:#FFFFFF"/>
			<stop  offset="1" style="stop-color:#7C7C7B"/>
		</linearGradient>
		
			<path id="Shape_Top_2_" fill="url(#Shape_Top_7_)" stroke="#8C8C91" stroke-width="0.75" stroke-linecap="round" stroke-linejoin="round" stroke-miterlimit="10" d="
			M270.5,13.7c0.8,0,1.5-1.1,1.5-2.4c0-1.3-0.7-2.4-1.5-2.4h-4.9c0,1,0,3.9,0,4.8H270.5z"/>
	</g>
	<g id="Big_Nut_Left">
		<linearGradient id="Shape_25_" gradientUnits="userSpaceOnUse" x1="259.1787" y1="18.7666" x2="265.5967" y2="18.7666">
			<stop  offset="0" style="stop-color:#FFFFFF"/>
			<stop  offset="1" style="stop-color:#7C7C7B"/>
		</linearGradient>
		
			<rect id="Shape_1_" x="259.2" y="11.3" fill="url(#Shape_25_)" stroke="#8C8C91" stroke-width="0.75" stroke-linecap="round" stroke-linejoin="round" stroke-miterlimit="10" width="6.4" height="14.9"/>
		<linearGradient id="Shape_Underneath_8_" gradientUnits="userSpaceOnUse" x1="244.4521" y1="14.8242" x2="260.2817" y2="24.5378">
			<stop  offset="0" style="stop-color:#FFFFFF"/>
			<stop  offset="1" style="stop-color:#7C7C7B"/>
		</linearGradient>
		
			<path id="Shape_Underneath_1_" fill="url(#Shape_Underneath_8_)" stroke="#8C8C91" stroke-width="0.75" stroke-linecap="round" stroke-linejoin="round" stroke-miterlimit="10" d="
			M260.7,28.6c-0.8,0-1.5-1.1-1.5-2.4c0-1.3,0.7-2.4,1.5-2.4h4.9c0,1,0,4.1,0,4.8H260.7z"/>
		<linearGradient id="Shape_Middle_8_" gradientUnits="userSpaceOnUse" x1="247.959" y1="11.709" x2="276.6151" y2="25.0616">
			<stop  offset="0" style="stop-color:#FFFFFF"/>
			<stop  offset="1" style="stop-color:#7C7C7B"/>
		</linearGradient>
		
			<path id="Shape_Middle_1_" fill="url(#Shape_Middle_8_)" stroke="#8C8C91" stroke-width="0.75" stroke-linecap="round" stroke-linejoin="round" stroke-miterlimit="10" d="
			M260.7,23.8c-0.8,0-1.5-2.3-1.5-5.1c0-2.8,0.7-5.1,1.5-5.1h4.9c0,1.9,0,9,0,10.1H260.7z"/>
		<linearGradient id="Shape_Top_8_" gradientUnits="userSpaceOnUse" x1="255.5098" y1="7.1152" x2="285.8082" y2="24.0725">
			<stop  offset="0" style="stop-color:#FFFFFF"/>
			<stop  offset="1" style="stop-color:#7C7C7B"/>
		</linearGradient>
		
			<path id="Shape_Top_1_" fill="url(#Shape_Top_8_)" stroke="#8C8C91" stroke-width="0.75" stroke-linecap="round" stroke-linejoin="round" stroke-miterlimit="10" d="
			M260.7,13.7c-0.8,0-1.5-1.1-1.5-2.4c0-1.3,0.7-2.4,1.5-2.4h4.9c0,1,0,3.9,0,4.8H260.7z"/>
	</g>
</g>
</svg>
