<?xml version="1.0" encoding="utf-8"?>

<!-- Copyright 2016 Siemens AG -->

<!-- Generator: Adobe Illustrator 16.0.4, SVG Export Plug-In . SVG Version: 6.00 Build 0)  -->
<!DOCTYPE svg PUBLIC "-//W3C//DTD SVG 1.1//EN" "http://www.w3.org/Graphics/SVG/1.1/DTD/svg11.dtd">
<svg version="1.1" id="Motor_8_Front" xmlns="http://www.w3.org/2000/svg" xmlns:xlink="http://www.w3.org/1999/xlink" x="0px"
	 y="0px" width="278.5px" height="300px" viewBox="0 0 278.5 300" enable-background="new 0 0 278.5 300" xml:space="preserve">
<g id="Base">
	<linearGradient id="Shape_3_" gradientUnits="userSpaceOnUse" x1="-23.7715" y1="186.9131" x2="299.3403" y2="383.314">
		<stop  offset="0" style="stop-color:#FFFFFF"/>
		<stop  offset="1" style="stop-color:#7C7C7B"/>
	</linearGradient>
	
		<path id="Shape" fill="url(#Shape_3_)" stroke="#8C8C91" stroke-width="0.75" stroke-linecap="round" stroke-linejoin="round" stroke-miterlimit="10" d="
		M217.2,261.2c-0.1,0.1-0.2,0.1-0.3,0.2c-21.9,15.8-48.7,25.1-77.7,25.1c0,0,0,0,0,0c0,0,0,0,0,0c0,0,0,0,0,0
		c-29,0-55.8-9.3-77.7-25.1c-0.1,0-0.2-0.1-0.3-0.1l-21.7,36.4h199.4L217.2,261.2z"/>
	
		<path id="Shadow" fill="#646567" stroke="#646567" stroke-width="0.75" stroke-linecap="round" stroke-linejoin="round" stroke-miterlimit="10" d="
		M217.2,261.2c-0.1,0.1-0.2,0.1-0.3,0.2c-21.9,15.8-48.7,25.1-77.7,25.1c0,0,0,0,0,0c0,0,0,0,0,0c0,0,0,0,0,0
		c-29,0-55.8-9.3-77.7-25.1c-0.1,0-0.2-0.1-0.3-0.1l-3.1,5.2l23.9,31.3h156.8L217.2,261.2z"/>
</g>
<g id="Motor_Housing">
	
		<linearGradient id="Cover_Motor_Housing_Rear_1_" gradientUnits="userSpaceOnUse" x1="-18.5786" y1="7.8027" x2="237.7286" y2="243.9712">
		<stop  offset="0" style="stop-color:#FFFFFF"/>
		<stop  offset="1" style="stop-color:#646567"/>
	</linearGradient>
	
		<path id="Cover_Motor_Housing_Rear" fill="url(#Cover_Motor_Housing_Rear_1_)" stroke="#8C8C91" stroke-width="0.75" stroke-linecap="round" stroke-linejoin="round" stroke-miterlimit="10" d="
		M139.2,16.4C63.6,16.4,2.4,77.6,2.4,153.2C2.4,228.8,63.6,290,139.2,290S276,228.8,276,153.2C276,77.6,214.8,16.4,139.2,16.4z
		 M139.2,277.3c-68.6,0-124.1-55.6-124.1-124.1c0-68.6,55.6-124.1,124.1-124.1s124.1,55.6,124.1,124.1
		C263.4,221.8,207.8,277.3,139.2,277.3z"/>
	
		<linearGradient id="Motor_Cover_Plate_Front_1_" gradientUnits="userSpaceOnUse" x1="-51.3486" y1="-23.4019" x2="162.4852" y2="174.7631">
		<stop  offset="0" style="stop-color:#FFFFFF"/>
		<stop  offset="1" style="stop-color:#7C7C7B"/>
	</linearGradient>
	
		<circle id="Motor_Cover_Plate_Front" fill="url(#Motor_Cover_Plate_Front_1_)" stroke="#8C8C91" stroke-width="0.75" stroke-linecap="round" stroke-linejoin="round" stroke-miterlimit="10" cx="139.2" cy="153.2" r="85.1"/>
	
		<linearGradient id="Front_Ring_Driving_Shaft_1_" gradientUnits="userSpaceOnUse" x1="119.4395" y1="133.4238" x2="164.7419" y2="178.7263">
		<stop  offset="0" style="stop-color:#FFFFFF"/>
		<stop  offset="1" style="stop-color:#7C7C7B"/>
	</linearGradient>
	
		<circle id="Front_Ring_Driving_Shaft_2_" fill="url(#Front_Ring_Driving_Shaft_1_)" stroke="#8C8C91" stroke-width="0.75" stroke-linecap="round" stroke-linejoin="round" stroke-miterlimit="10" cx="139.2" cy="153.2" r="29.4"/>
	
		<path id="Shadow_Driving_Shaft_2_" fill="#575756" stroke="#575756" stroke-width="0.75" stroke-linecap="round" stroke-linejoin="round" stroke-miterlimit="10" d="
		M179.4,186.5L179.4,186.5L148,146.7l0,0c1.4,1.8,2.2,4.1,2.2,6.5c0,6.1-4.9,11-11,11c-3.4,0-6.4-1.6-8.5-4l31.2,39.6l0,0
		c2,2.8,5.3,4.6,9,4.6c6.1,0,11-4.9,11-11C182,190.8,181,188.4,179.4,186.5z"/>
	
		<linearGradient id="Ring_Driving_Shaft_1_" gradientUnits="userSpaceOnUse" x1="109.292" y1="123.2754" x2="162.2568" y2="176.2402">
		<stop  offset="0" style="stop-color:#A5A5A5"/>
		<stop  offset="4.758149e-02" style="stop-color:#B5B5B5"/>
		<stop  offset="0.1509" style="stop-color:#D3D3D3"/>
		<stop  offset="0.2395" style="stop-color:#E5E5E5"/>
		<stop  offset="0.3025" style="stop-color:#ECECEC"/>
		<stop  offset="0.4074" style="stop-color:#E8E8E8"/>
		<stop  offset="0.514" style="stop-color:#DCDCDC"/>
		<stop  offset="0.6214" style="stop-color:#C7C7C7"/>
		<stop  offset="0.7294" style="stop-color:#ABABAB"/>
		<stop  offset="0.8378" style="stop-color:#868686"/>
		<stop  offset="0.9452" style="stop-color:#5A5A5A"/>
		<stop  offset="1" style="stop-color:#404040"/>
	</linearGradient>
	
		<path id="Ring_Driving_Shaft_2_" fill="url(#Ring_Driving_Shaft_1_)" stroke="#8C8C91" stroke-width="0.75" stroke-linecap="round" stroke-linejoin="round" stroke-miterlimit="10" d="
		M139.2,113.1c-22.1,0-40.1,17.9-40.1,40.1c0,22.1,17.9,40.1,40.1,40.1s40.1-17.9,40.1-40.1C179.3,131.1,161.3,113.1,139.2,113.1z
		 M139.2,182.6c-16.2,0-29.4-13.2-29.4-29.4c0-16.2,13.2-29.4,29.4-29.4s29.4,13.1,29.4,29.4C168.6,169.4,155.4,182.6,139.2,182.6z"
		/>
	
		<path id="Driving_Shaft_Fixing_2_" fill="#424242" stroke="#424242" stroke-width="0.75" stroke-linecap="round" stroke-linejoin="round" stroke-miterlimit="10" d="
		M134.4,142.8l-6.3-13.6c3.4-1.6,7.2-2.5,11.1-2.5c4.1,0,8,0.9,11.5,2.6l-6.5,13.4c-1.5-0.7-3.1-1.1-4.9-1.1
		C137.6,141.6,135.9,142.1,134.4,142.8z M128.1,153c0-1.7,0.4-3.3,1-4.7l-13.7-6.6c-1.7,3.5-2.6,7.4-2.6,11.5c0,4,0.9,7.8,2.5,11.1
		l13.9-6.5C128.5,156.3,128.1,154.7,128.1,153z M139.4,164.3c-1.7,0-3.4-0.4-4.8-1.1l-6.5,14c3.4,1.6,7.2,2.5,11.1,2.5
		c4.1,0,8-0.9,11.5-2.6l-6.6-13.8C142.6,163.9,141.1,164.3,139.4,164.3z M163,141.6l-13.4,6.5c0.7,1.5,1.1,3.1,1.1,4.8
		c0,1.8-0.4,3.5-1.2,5l13.7,6.3c1.6-3.4,2.5-7.2,2.5-11.1C165.7,149,164.7,145.1,163,141.6z"/>
	<linearGradient id="Driving_Shaft_1_" gradientUnits="userSpaceOnUse" x1="134.5352" y1="148.5195" x2="149.9439" y2="163.9283">
		<stop  offset="0" style="stop-color:#FFFFFF"/>
		<stop  offset="1" style="stop-color:#7C7C7B"/>
	</linearGradient>
	
		<circle id="Driving_Shaft_2_" fill="url(#Driving_Shaft_1_)" stroke="#8C8C91" stroke-width="0.75" stroke-linecap="round" stroke-linejoin="round" stroke-miterlimit="10" cx="139.2" cy="153.2" r="11"/>
	<linearGradient id="Housing_1_" gradientUnits="userSpaceOnUse" x1="82.499" y1="96.4814" x2="206.0899" y2="220.0723">
		<stop  offset="0" style="stop-color:#FFFFFF"/>
		<stop  offset="1" style="stop-color:#575756"/>
	</linearGradient>
	
		<path id="Housing" fill="url(#Housing_1_)" stroke="#8C8C91" stroke-width="0.75" stroke-linecap="round" stroke-linejoin="round" stroke-miterlimit="10" d="
		M139.2,29.1c-68.6,0-124.1,55.6-124.1,124.1c0,68.6,55.6,124.1,124.1,124.1s124.1-55.6,124.1-124.1
		C263.4,84.6,207.8,29.1,139.2,29.1z M139.2,241.9c-49,0-88.7-39.7-88.7-88.7c0-49,39.7-88.7,88.7-88.7c49,0,88.7,39.7,88.7,88.7
		C227.9,202.2,188.2,241.9,139.2,241.9z"/>
	<linearGradient id="Screw_1_" gradientUnits="userSpaceOnUse" x1="4.0029" y1="-40.4536" x2="112.7629" y2="115.3128">
		<stop  offset="0" style="stop-color:#666666"/>
		<stop  offset="1" style="stop-color:#1A1A1A"/>
	</linearGradient>
	
		<path id="Screw" fill="url(#Screw_1_)" stroke="#424242" stroke-width="0.75" stroke-linecap="round" stroke-linejoin="round" stroke-miterlimit="10" d="
		M143.7,40.9c0,2.5-2,4.5-4.5,4.5c-2.5,0-4.5-2-4.5-4.5c0-2.5,2-4.5,4.5-4.5C141.7,36.4,143.7,38.4,143.7,40.9z M139.2,261
		c-2.5,0-4.5,2-4.5,4.5c0,2.5,2,4.5,4.5,4.5c2.5,0,4.5-2,4.5-4.5C143.7,263,141.7,261,139.2,261z M80.8,52.1c-2.1,1.2-2.9,4-1.6,6.1
		c1.2,2.1,4,2.9,6.1,1.6c2.1-1.2,2.9-4,1.6-6.1C85.7,51.6,83,50.8,80.8,52.1z M193.1,246.6c-2.1,1.2-2.9,4-1.6,6.1
		c1.2,2.1,4,2.9,6.1,1.6c2.1-1.2,2.9-4,1.6-6.1C198,246.1,195.3,245.4,193.1,246.6z M38.1,94.8c-1.2,2.1-0.5,4.9,1.6,6.1
		c2.1,1.2,4.9,0.5,6.1-1.6c1.2-2.1,0.5-4.9-1.6-6.1C42.1,91.9,39.3,92.7,38.1,94.8z M232.6,207.1c-1.2,2.1-0.5,4.9,1.6,6.1
		c2.1,1.2,4.9,0.5,6.1-1.6c1.2-2.1,0.5-4.9-1.6-6.1C236.6,204.2,233.8,205,232.6,207.1z M22.4,153.2c0,2.5,2,4.5,4.5,4.5
		c2.5,0,4.5-2,4.5-4.5c0-2.5-2-4.5-4.5-4.5C24.4,148.7,22.4,150.7,22.4,153.2z M247,153.2c0,2.5,2,4.5,4.5,4.5s4.5-2,4.5-4.5
		c0-2.5-2-4.5-4.5-4.5C249.1,148.7,247,150.7,247,153.2z M38.1,211.6c1.2,2.1,4,2.9,6.1,1.6c2.1-1.2,2.9-4,1.6-6.1
		c-1.2-2.1-4-2.9-6.1-1.6C37.6,206.7,36.9,209.4,38.1,211.6z M232.6,99.3c1.2,2.1,4,2.9,6.1,1.6c2.1-1.2,2.9-4,1.6-6.1
		c-1.2-2.1-4-2.9-6.1-1.6C232.1,94.4,231.4,97.1,232.6,99.3z M80.8,254.3c2.1,1.2,4.9,0.5,6.1-1.6c1.2-2.1,0.5-4.9-1.6-6.1
		c-2.1-1.2-4.9-0.5-6.1,1.6C78,250.4,78.7,253.1,80.8,254.3z M193.1,59.8c2.1,1.2,4.9,0.5,6.1-1.6c1.2-2.1,0.5-4.9-1.6-6.1
		c-2.1-1.2-4.9-0.5-6.1,1.6C190.3,55.8,191,58.6,193.1,59.8z"/>
	<g id="Hollow_Ring">
		
			<path id="Shadow_1_" fill="#575756" stroke="#575756" stroke-width="0.75" stroke-linecap="round" stroke-linejoin="round" stroke-miterlimit="10" d="
			M56.8,157.1c0-48.1,39.4-87,87.9-87c8.1,0,15.9,1.1,23.3,3.1c-9-3.2-18.7-5-28.8-5c-47,0-85.1,38.1-85.1,85.1
			c0,17.7,5.4,34.1,14.6,47.7C61.2,188,56.8,173.1,56.8,157.1z"/>
		<linearGradient id="Shape_4_" gradientUnits="userSpaceOnUse" x1="217.957" y1="231.9395" x2="157.6892" y2="171.6716">
			<stop  offset="0" style="stop-color:#FFFFFF"/>
			<stop  offset="1" style="stop-color:#7C7C7B"/>
		</linearGradient>
		
			<path id="Shape_2_" fill="url(#Shape_4_)" stroke="#8C8C91" stroke-width="0.75" stroke-linecap="round" stroke-linejoin="round" stroke-miterlimit="10" d="
			M139.2,64.5c-49,0-88.7,39.7-88.7,88.7c0,49,39.7,88.7,88.7,88.7c49,0,88.7-39.7,88.7-88.7C227.9,104.2,188.2,64.5,139.2,64.5z
			 M139.2,238.3c-47,0-85.1-38.1-85.1-85.1c0-47,38.1-85.1,85.1-85.1s85.1,38.1,85.1,85.1C224.3,200.2,186.2,238.3,139.2,238.3z"/>
	</g>
	<linearGradient id="Cooling_Fins_1_" gradientUnits="userSpaceOnUse" x1="61.7236" y1="43.4502" x2="250.9034" y2="311.3524">
		<stop  offset="0" style="stop-color:#FFFFFF"/>
		<stop  offset="1" style="stop-color:#7C7C7B"/>
	</linearGradient>
	
		<path id="Cooling_Fins" fill="url(#Cooling_Fins_1_)" stroke="#8C8C91" stroke-width="0.75" stroke-linecap="round" stroke-linejoin="round" stroke-miterlimit="10" d="
		M139.2,20c34.7,0,66.3,13.3,90,35h-14.1c-21-16.3-47.3-26-75.9-26c-28.6,0-54.9,9.7-75.9,26H49.2C72.9,33.3,104.5,20,139.2,20z
		 M51.9,64.9H39.5c-2,2.3-4,4.7-5.9,7.1h11.7C47.4,69.6,49.6,67.2,51.9,64.9z M37.6,82H26.7c-1.5,2.3-2.9,4.7-4.2,7.1h10.4
		C34.4,86.6,35.9,84.3,37.6,82z M27.5,99h-10c-1,2.3-2,4.7-2.9,7.1h9.7C25.3,103.7,26.4,101.3,27.5,99z M20.7,116h-9.4
		c-0.7,2.3-1.3,4.7-1.8,7.1h9.3C19.4,120.7,20,118.3,20.7,116z M16.7,133H7.5c-0.4,2.3-0.6,4.7-0.9,7.1h9.1
		C16,137.7,16.3,135.4,16.7,133z M15.1,153.2c0-1.1,0.1-2.1,0.1-3.1h-9c0,1-0.1,2.1-0.1,3.1c0,1.3,0.1,2.6,0.1,4h9.1
		C15.1,155.8,15.1,154.5,15.1,153.2z M15.9,167.1H6.7c0.2,2.4,0.6,4.7,0.9,7.1h9.2C16.5,171.8,16.1,169.5,15.9,167.1z M19,184.1H9.7
		c0.6,2.4,1.2,4.8,1.9,7.1H21C20.3,188.9,19.6,186.5,19,184.1z M24.7,201.1h-9.7c0.9,2.4,1.9,4.8,3,7.1h10
		C26.8,205.9,25.7,203.5,24.7,201.1z M33.4,218.2H22.9c1.4,2.4,2.8,4.8,4.3,7.1h10.9C36.5,222.9,34.9,220.6,33.4,218.2z M46,235.2
		H34.3c1.9,2.4,3.9,4.8,5.9,7.1h12.6C50.4,240,48.2,237.6,46,235.2z M228.3,252.2h-14.2c-20.8,15.8-46.8,25.1-74.9,25.1
		c-28.1,0-54.1-9.4-74.9-25.1H50.1c23.6,21.2,54.8,34.2,89.1,34.2C173.5,286.4,204.7,273.5,228.3,252.2z M226.5,64.9
		c2.3,2.3,4.5,4.6,6.6,7.1h11.7c-1.9-2.4-3.8-4.8-5.9-7.1H226.5z M240.9,82c1.6,2.3,3.2,4.7,4.7,7.1H256c-1.3-2.4-2.7-4.8-4.2-7.1
		H240.9z M250.9,99c1.1,2.3,2.2,4.7,3.2,7.1h9.7c-0.9-2.4-1.9-4.8-2.9-7.1H250.9z M257.7,116c0.7,2.3,1.4,4.7,2,7.1h9.3
		c-0.6-2.4-1.2-4.8-1.8-7.1H257.7z M261.7,133c0.4,2.3,0.7,4.7,1,7.1h9.1c-0.2-2.4-0.5-4.7-0.9-7.1H261.7z M272.3,150.1h-9
		c0,1,0.1,2.1,0.1,3.1c0,1.3-0.1,2.6-0.1,4h9.1c0-1.3,0.1-2.6,0.1-4C272.4,152.1,272.4,151.1,272.3,150.1z M262.6,167.1
		c-0.3,2.4-0.6,4.7-1,7.1h9.2c0.4-2.3,0.7-4.7,0.9-7.1H262.6z M259.5,184.1c-0.6,2.4-1.3,4.8-2.1,7.1h9.5c0.7-2.3,1.3-4.7,1.9-7.1
		H259.5z M253.8,201.1c-1,2.4-2.1,4.8-3.3,7.1h10c1.1-2.3,2.1-4.7,3-7.1H253.8z M245,218.2c-1.5,2.4-3.1,4.8-4.7,7.1h10.9
		c1.5-2.3,2.9-4.7,4.3-7.1H245z M232.4,235.2c-2.2,2.5-4.4,4.8-6.8,7.1h12.6c2.1-2.3,4-4.7,5.9-7.1H232.4z"/>
</g>
<g id="Electro_Box">
	<linearGradient id="Shape_5_" gradientUnits="userSpaceOnUse" x1="18.3926" y1="35.2793" x2="93.5166" y2="35.2793">
		<stop  offset="0" style="stop-color:#9A9A99"/>
		<stop  offset="0.2954" style="stop-color:#919190"/>
		<stop  offset="0.7771" style="stop-color:#797978"/>
		<stop  offset="1" style="stop-color:#6B6B6A"/>
	</linearGradient>
	
		<path id="Shape_1_" fill="url(#Shape_5_)" stroke="#646567" stroke-width="0.75" stroke-linecap="round" stroke-linejoin="round" stroke-miterlimit="10" d="
		M93.5,28.1L75.2,2.4L18.4,42.4l18.3,25.8C51.6,50.2,71.2,36.2,93.5,28.1z"/>
	
		<line id="Reflection_Line" fill="none" stroke="#BDBDBD" stroke-width="0.75" stroke-miterlimit="10" x1="24" y1="49.4" x2="79.8" y2="10.1"/>
	
		<line id="Devider_Line" fill="none" stroke="#424242" stroke-width="0.75" stroke-miterlimit="10" x1="23.3" y1="48.3" x2="79.1" y2="8.9"/>
</g>
</svg>
