<?xml version="1.0" encoding="utf-8"?>

<!-- Copyright 2016 Siemens AG -->

<!-- Generator: Adobe Illustrator 16.0.4, SVG Export Plug-In . SVG Version: 6.00 Build 0)  -->
<!DOCTYPE svg PUBLIC "-//W3C//DTD SVG 1.1//EN" "http://www.w3.org/Graphics/SVG/1.1/DTD/svg11.dtd">
<svg version="1.1" id="Magnetic_Flow_Meter_1" xmlns="http://www.w3.org/2000/svg" xmlns:xlink="http://www.w3.org/1999/xlink"
	 x="0px" y="0px" width="150px" height="300px" viewBox="0 0 150 300" enable-background="new 0 0 150 300" xml:space="preserve">
<g id="Measurement_Pipe">
	<linearGradient id="Shape_5_" gradientUnits="userSpaceOnUse" x1="75.019" y1="151.1187" x2="75.019" y2="296.9216">
		<stop  offset="0" style="stop-color:#A5A5A5"/>
		<stop  offset="4.758149e-02" style="stop-color:#B5B5B5"/>
		<stop  offset="0.1509" style="stop-color:#D3D3D3"/>
		<stop  offset="0.2395" style="stop-color:#E5E5E5"/>
		<stop  offset="0.3025" style="stop-color:#ECECEC"/>
		<stop  offset="0.4074" style="stop-color:#E8E8E8"/>
		<stop  offset="0.514" style="stop-color:#DCDCDC"/>
		<stop  offset="0.6214" style="stop-color:#C7C7C7"/>
		<stop  offset="0.7294" style="stop-color:#ABABAB"/>
		<stop  offset="0.8378" style="stop-color:#868686"/>
		<stop  offset="0.9452" style="stop-color:#5A5A5A"/>
		<stop  offset="1" style="stop-color:#404040"/>
	</linearGradient>
	
		<rect id="Shape_9_" x="2.3" y="150.6" fill="url(#Shape_5_)" stroke="#8C8C91" stroke-width="0.75" stroke-linejoin="round" stroke-miterlimit="10" width="145.5" height="147"/>
	<linearGradient id="Reflection_4_" gradientUnits="userSpaceOnUse" x1="75.0244" y1="162.8452" x2="75.0244" y2="178.5722">
		<stop  offset="0" style="stop-color:#F2F2F2;stop-opacity:0.4"/>
		<stop  offset="1" style="stop-color:#F7F7F7;stop-opacity:0.7"/>
	</linearGradient>
	<rect id="Reflection_3_" x="2.7" y="165.7" fill="url(#Reflection_4_)" width="144.6" height="25.1"/>
	
		<path id="Reflection_Lines" fill="none" stroke="#FFFFFF" stroke-width="0.75" stroke-linecap="round" stroke-linejoin="round" stroke-miterlimit="10" d="
		M14.4,150.6v147 M136.4,150.6v147"/>
	
		<path id="Devider_Lines" fill="none" stroke="#646567" stroke-width="0.75" stroke-linecap="round" stroke-linejoin="round" stroke-miterlimit="10" d="
		M13.7,150.6v147 M135.6,150.6v147"/>
</g>
<g id="Operating_Unit__x2B__Electric_Box">
	<g id="Connection_Measurement_Pipe">
		<linearGradient id="Shape_6_" gradientUnits="userSpaceOnUse" x1="62.8965" y1="134.0547" x2="87.3975" y2="134.0547">
			<stop  offset="0" style="stop-color:#A5A5A5"/>
			<stop  offset="4.758149e-02" style="stop-color:#B5B5B5"/>
			<stop  offset="0.1509" style="stop-color:#D3D3D3"/>
			<stop  offset="0.2395" style="stop-color:#E5E5E5"/>
			<stop  offset="0.3025" style="stop-color:#ECECEC"/>
			<stop  offset="0.4074" style="stop-color:#E8E8E8"/>
			<stop  offset="0.514" style="stop-color:#DCDCDC"/>
			<stop  offset="0.6214" style="stop-color:#C7C7C7"/>
			<stop  offset="0.7294" style="stop-color:#ABABAB"/>
			<stop  offset="0.8378" style="stop-color:#868686"/>
			<stop  offset="0.9452" style="stop-color:#5A5A5A"/>
			<stop  offset="1" style="stop-color:#404040"/>
		</linearGradient>
		<path id="Shape" fill="url(#Shape_6_)" stroke="#8C8C91" stroke-width="0.75" stroke-linejoin="round" stroke-miterlimit="10" d="
			M87.6,113.4H62.5v37.2c0,0,4.2,4.1,12.5,4.1s12.5-4.1,12.5-4.1V113.4z"/>
		<linearGradient id="Reflection_5_" gradientUnits="userSpaceOnUse" x1="64.251" y1="133.7051" x2="66.9394" y2="133.7051">
			<stop  offset="0" style="stop-color:#F2F2F2;stop-opacity:0.4"/>
			<stop  offset="1" style="stop-color:#F7F7F7;stop-opacity:0.7"/>
		</linearGradient>
		<path id="Reflection_2_" fill="url(#Reflection_5_)" d="M69.3,153.5c0,0-2.5-0.8-4.1-1.6c0-1.2,0-38,0-38h4.1V153.5z"/>
	</g>
	<g id="Nut_Big">
		
			<rect id="Shape_Side_Right" x="83.6" y="113.4" fill="#6A6A69" stroke="#8C8C91" stroke-width="0.75" stroke-linecap="round" stroke-linejoin="round" stroke-miterlimit="10" width="8" height="3.9"/>
		
			<linearGradient id="Shape_Side_Middle_3_" gradientUnits="userSpaceOnUse" x1="48.6914" y1="107.833" x2="104.8723" y2="123.7387">
			<stop  offset="0" style="stop-color:#FFFFFF"/>
			<stop  offset="1" style="stop-color:#7C7C7B"/>
		</linearGradient>
		
			<rect id="Shape_Side_Middle" x="66.6" y="113.4" fill="url(#Shape_Side_Middle_3_)" stroke="#8C8C91" stroke-width="0.75" stroke-linecap="round" stroke-linejoin="round" stroke-miterlimit="10" width="17" height="3.9"/>
		
			<rect id="Shape_Side_Left" x="58.6" y="113.4" fill="#DEDEDE" stroke="#8C8C91" stroke-width="0.75" stroke-linecap="round" stroke-linejoin="round" stroke-miterlimit="10" width="8" height="3.9"/>
	</g>
	<g id="Connection_Operation_Unit_1_">
		<linearGradient id="Shape_7_" gradientUnits="userSpaceOnUse" x1="53.3667" y1="103.959" x2="96.5637" y2="103.959">
			<stop  offset="0" style="stop-color:#A5A5A5"/>
			<stop  offset="4.758149e-02" style="stop-color:#B5B5B5"/>
			<stop  offset="0.1509" style="stop-color:#D3D3D3"/>
			<stop  offset="0.2395" style="stop-color:#E5E5E5"/>
			<stop  offset="0.3025" style="stop-color:#ECECEC"/>
			<stop  offset="0.4074" style="stop-color:#E8E8E8"/>
			<stop  offset="0.514" style="stop-color:#DCDCDC"/>
			<stop  offset="0.6214" style="stop-color:#C7C7C7"/>
			<stop  offset="0.7294" style="stop-color:#ABABAB"/>
			<stop  offset="0.8378" style="stop-color:#868686"/>
			<stop  offset="0.9452" style="stop-color:#5A5A5A"/>
			<stop  offset="1" style="stop-color:#404040"/>
		</linearGradient>
		
			<polygon id="Shape_3_" fill="url(#Shape_7_)" stroke="#8C8C91" stroke-width="0.75" stroke-linejoin="round" stroke-miterlimit="10" points="
			93.3,113.4 56.8,113.4 52.8,94.5 97.3,94.5 		"/>
		
			<linearGradient id="Reflection_6_" gradientUnits="userSpaceOnUse" x1="31.0684" y1="611.5186" x2="40.2556" y2="611.5186" gradientTransform="matrix(1 0 0 1 25.1172 -507.625)">
			<stop  offset="0" style="stop-color:#F2F2F2;stop-opacity:0.4"/>
			<stop  offset="1" style="stop-color:#F7F7F7;stop-opacity:0.7"/>
		</linearGradient>
		<polygon id="Reflection_1_" fill="url(#Reflection_6_)" points="65.4,112.7 64.6,95.1 56.5,95.1 60.5,112.7 		"/>
	</g>
	<g id="Electrical_Connection_Below">
		
			<linearGradient id="Connection_Operation_Unit_4_" gradientUnits="userSpaceOnUse" x1="37.4028" y1="61.3521" x2="37.4028" y2="86.1738">
			<stop  offset="0" style="stop-color:#A5A5A5"/>
			<stop  offset="4.758149e-02" style="stop-color:#B5B5B5"/>
			<stop  offset="0.1509" style="stop-color:#D3D3D3"/>
			<stop  offset="0.2395" style="stop-color:#E5E5E5"/>
			<stop  offset="0.3025" style="stop-color:#ECECEC"/>
			<stop  offset="0.4074" style="stop-color:#E8E8E8"/>
			<stop  offset="0.514" style="stop-color:#DCDCDC"/>
			<stop  offset="0.6214" style="stop-color:#C7C7C7"/>
			<stop  offset="0.7294" style="stop-color:#ABABAB"/>
			<stop  offset="0.8378" style="stop-color:#868686"/>
			<stop  offset="0.9452" style="stop-color:#5A5A5A"/>
			<stop  offset="1" style="stop-color:#404040"/>
		</linearGradient>
		
			<rect id="Connection_Operation_Unit_2_" x="18.8" y="60.8" fill="url(#Connection_Operation_Unit_4_)" stroke="#8C8C91" stroke-width="0.75" stroke-linejoin="round" stroke-miterlimit="10" width="37.3" height="25.6"/>
		<linearGradient id="Intermediate_Piece_4_" gradientUnits="userSpaceOnUse" x1="17.2124" y1="56.4922" x2="17.2124" y2="94.8892">
			<stop  offset="0" style="stop-color:#FFFFFF"/>
			<stop  offset="1" style="stop-color:#7C7C7B"/>
		</linearGradient>
		
			<rect id="Intermediate_Piece_1_" x="15.7" y="63.1" fill="url(#Intermediate_Piece_4_)" stroke="#8C8C91" stroke-width="0.75" stroke-linejoin="round" stroke-miterlimit="10" width="3.1" height="21.1"/>
		<g id="Nut_1_">
			<linearGradient id="Shape_8_" gradientUnits="userSpaceOnUse" x1="10.2666" y1="73.5977" x2="15.6631" y2="73.5977">
				<stop  offset="0" style="stop-color:#FFFFFF"/>
				<stop  offset="1" style="stop-color:#7C7C7B"/>
			</linearGradient>
			
				<rect id="Shape_4_" x="10.3" y="63.9" fill="url(#Shape_8_)" stroke="#8C8C91" stroke-width="0.75" stroke-linecap="round" stroke-linejoin="round" stroke-miterlimit="10" width="5.4" height="19.3"/>
			
				<linearGradient id="Shape_Side_Underneath_3_" gradientUnits="userSpaceOnUse" x1="2.539062e-02" y1="83.2637" x2="12.6629" y2="83.2637">
				<stop  offset="0" style="stop-color:#FFFFFF"/>
				<stop  offset="1" style="stop-color:#7C7C7B"/>
			</linearGradient>
			
				<path id="Shape_Side_Underneath_1_" fill="url(#Shape_Side_Underneath_3_)" stroke="#8C8C91" stroke-width="0.75" stroke-linecap="round" stroke-linejoin="round" stroke-miterlimit="10" d="
				M13.8,86.3c1,0,1.9-1.4,1.9-3.1s-0.8-3.1-1.9-3.1h-1.7c-1,0-1.9,1.4-1.9,3.1s0.8,3.1,1.9,3.1H13.8z"/>
			<linearGradient id="Shape_Side_Middle_4_" gradientUnits="userSpaceOnUse" x1="4.271" y1="73.5972" x2="20.5022" y2="73.5972">
				<stop  offset="0" style="stop-color:#FFFFFF"/>
				<stop  offset="1" style="stop-color:#7C7C7B"/>
			</linearGradient>
			
				<path id="Shape_Side_Middle_1_" fill="url(#Shape_Side_Middle_4_)" stroke="#8C8C91" stroke-width="0.75" stroke-linecap="round" stroke-linejoin="round" stroke-miterlimit="10" d="
				M13.8,80.2c1,0,1.9-2.9,1.9-6.6S14.8,67,13.8,67h-1.7c-1,0-1.9,2.9-1.9,6.6s0.8,6.6,1.9,6.6H13.8z"/>
			
				<path id="Shape_Side_Top_1_" fill="#DEDEDE" stroke="#8C8C91" stroke-width="0.75" stroke-linecap="round" stroke-linejoin="round" stroke-miterlimit="10" d="
				M13.8,67c1,0,1.9-1.4,1.9-3.1c0-1.7-0.8-3.1-1.9-3.1h-1.7c-1,0-1.9,1.4-1.9,3.1c0,1.7,0.8,3.1,1.9,3.1H13.8z"/>
		</g>
	</g>
	<linearGradient id="Intermediate_Piece_5_" gradientUnits="userSpaceOnUse" x1="-0.3164" y1="76.3682" x2="46.9328" y2="40.2852">
		<stop  offset="0" style="stop-color:#FFFFFF"/>
		<stop  offset="1" style="stop-color:#7C7C7B"/>
	</linearGradient>
	
		<rect id="Intermediate_Piece_3_" x="21.2" y="42.1" fill="url(#Intermediate_Piece_5_)" stroke="#8C8C91" stroke-width="0.75" stroke-linecap="round" stroke-linejoin="round" stroke-miterlimit="10" width="22.1" height="18.7"/>
	<g id="Electrical_Connection_Top">
		
			<linearGradient id="Connection_Operation_Unit_5_" gradientUnits="userSpaceOnUse" x1="37.4028" y1="17.0273" x2="37.4028" y2="41.8491">
			<stop  offset="0" style="stop-color:#A5A5A5"/>
			<stop  offset="4.758149e-02" style="stop-color:#B5B5B5"/>
			<stop  offset="0.1509" style="stop-color:#D3D3D3"/>
			<stop  offset="0.2395" style="stop-color:#E5E5E5"/>
			<stop  offset="0.3025" style="stop-color:#ECECEC"/>
			<stop  offset="0.4074" style="stop-color:#E8E8E8"/>
			<stop  offset="0.514" style="stop-color:#DCDCDC"/>
			<stop  offset="0.6214" style="stop-color:#C7C7C7"/>
			<stop  offset="0.7294" style="stop-color:#ABABAB"/>
			<stop  offset="0.8378" style="stop-color:#868686"/>
			<stop  offset="0.9452" style="stop-color:#5A5A5A"/>
			<stop  offset="1" style="stop-color:#404040"/>
		</linearGradient>
		
			<rect id="Connection_Operation_Unit_3_" x="18.8" y="16.5" fill="url(#Connection_Operation_Unit_5_)" stroke="#8C8C91" stroke-width="0.75" stroke-linejoin="round" stroke-miterlimit="10" width="37.3" height="25.6"/>
		<linearGradient id="Intermediate_Piece_6_" gradientUnits="userSpaceOnUse" x1="17.2124" y1="12.1675" x2="17.2124" y2="50.5645">
			<stop  offset="0" style="stop-color:#FFFFFF"/>
			<stop  offset="1" style="stop-color:#7C7C7B"/>
		</linearGradient>
		
			<rect id="Intermediate_Piece_2_" x="15.7" y="18.7" fill="url(#Intermediate_Piece_6_)" stroke="#8C8C91" stroke-width="0.75" stroke-linejoin="round" stroke-miterlimit="10" width="3.1" height="21.1"/>
		<g id="Nut_2_">
			<linearGradient id="Shape_10_" gradientUnits="userSpaceOnUse" x1="10.2666" y1="29.2725" x2="15.6631" y2="29.2725">
				<stop  offset="0" style="stop-color:#FFFFFF"/>
				<stop  offset="1" style="stop-color:#7C7C7B"/>
			</linearGradient>
			
				<rect id="Shape_2_" x="10.3" y="19.6" fill="url(#Shape_10_)" stroke="#8C8C91" stroke-width="0.75" stroke-linecap="round" stroke-linejoin="round" stroke-miterlimit="10" width="5.4" height="19.3"/>
			
				<linearGradient id="Shape_Side_Underneath_4_" gradientUnits="userSpaceOnUse" x1="2.539062e-02" y1="38.9395" x2="12.6629" y2="38.9395">
				<stop  offset="0" style="stop-color:#FFFFFF"/>
				<stop  offset="1" style="stop-color:#7C7C7B"/>
			</linearGradient>
			
				<path id="Shape_Side_Underneath_2_" fill="url(#Shape_Side_Underneath_4_)" stroke="#8C8C91" stroke-width="0.75" stroke-linecap="round" stroke-linejoin="round" stroke-miterlimit="10" d="
				M13.8,42c1,0,1.9-1.4,1.9-3.1s-0.8-3.1-1.9-3.1h-1.7c-1,0-1.9,1.4-1.9,3.1s0.8,3.1,1.9,3.1H13.8z"/>
			<linearGradient id="Shape_Side_Middle_5_" gradientUnits="userSpaceOnUse" x1="4.271" y1="29.2725" x2="20.5022" y2="29.2725">
				<stop  offset="0" style="stop-color:#FFFFFF"/>
				<stop  offset="1" style="stop-color:#7C7C7B"/>
			</linearGradient>
			
				<path id="Shape_Side_Middle_2_" fill="url(#Shape_Side_Middle_5_)" stroke="#8C8C91" stroke-width="0.75" stroke-linecap="round" stroke-linejoin="round" stroke-miterlimit="10" d="
				M13.8,35.9c1,0,1.9-2.9,1.9-6.6s-0.8-6.6-1.9-6.6h-1.7c-1,0-1.9,2.9-1.9,6.6s0.8,6.6,1.9,6.6H13.8z"/>
			
				<path id="Shape_Side_Top_2_" fill="#DEDEDE" stroke="#8C8C91" stroke-width="0.75" stroke-linecap="round" stroke-linejoin="round" stroke-miterlimit="10" d="
				M13.8,22.7c1,0,1.9-1.4,1.9-3.1c0-1.7-0.8-3.1-1.9-3.1h-1.7c-1,0-1.9,1.4-1.9,3.1c0,1.7,0.8,3.1,1.9,3.1H13.8z"/>
		</g>
	</g>
	<linearGradient id="Ring_Outside_1_" gradientUnits="userSpaceOnUse" x1="30.8623" y1="5.4375" x2="133.6537" y2="112.4197">
		<stop  offset="0" style="stop-color:#FFFFFF"/>
		<stop  offset="1" style="stop-color:#7C7C7B"/>
	</linearGradient>
	
		<path id="Ring_Outside" fill="url(#Ring_Outside_1_)" stroke="#8C8C91" stroke-width="0.75" stroke-linejoin="round" stroke-miterlimit="10" d="
		M75.1,2.3c-27.1,0-49.1,22-49.1,49.1c0,27.1,22,49.1,49.1,49.1s49.1-22,49.1-49.1C124.2,24.3,102.2,2.3,75.1,2.3z M75.1,91.8
		c-22.3,0-40.4-18.1-40.4-40.4c0-22.3,18.1-40.4,40.4-40.4s40.4,18.1,40.4,40.4C115.4,73.7,97.4,91.8,75.1,91.8z"/>
	<linearGradient id="Edge_Ring_Inside_1_" gradientUnits="userSpaceOnUse" x1="132.6201" y1="108.9971" x2="12.2522" y2="-11.3709">
		<stop  offset="0" style="stop-color:#FFFFFF"/>
		<stop  offset="1" style="stop-color:#7C7C7B"/>
	</linearGradient>
	
		<path id="Edge_Ring_Inside" fill="url(#Edge_Ring_Inside_1_)" stroke="#8C8C91" stroke-width="0.75" stroke-linejoin="round" stroke-miterlimit="10" d="
		M75.1,15.9c-19.6,0-35.5,15.9-35.5,35.5C39.6,71.1,55.5,87,75.1,87c19.6,0,35.5-15.9,35.5-35.5C110.6,31.8,94.7,15.9,75.1,15.9z
		 M75.1,83.2c-17.5,0-31.7-14.2-31.7-31.7c0-17.5,14.2-31.7,31.7-31.7s31.7,14.2,31.7,31.7C106.8,69,92.6,83.2,75.1,83.2z"/>
	<linearGradient id="Ring_1_" gradientUnits="userSpaceOnUse" x1="20.7471" y1="-2.876" x2="180.7345" y2="157.1114">
		<stop  offset="0" style="stop-color:#FFFFFF"/>
		<stop  offset="1" style="stop-color:#7C7C7B"/>
	</linearGradient>
	<path id="Ring" fill="url(#Ring_1_)" stroke="#8C8C91" stroke-width="0.75" stroke-linejoin="round" stroke-miterlimit="10" d="
		M75.1,11.1c-22.3,0-40.4,18.1-40.4,40.4c0,22.3,18.1,40.4,40.4,40.4s40.4-18.1,40.4-40.4C115.4,29.2,97.4,11.1,75.1,11.1z M75.1,87
		c-19.6,0-35.5-15.9-35.5-35.5c0-19.6,15.9-35.5,35.5-35.5c19.6,0,35.5,15.9,35.5,35.5C110.6,71.1,94.7,87,75.1,87z"/>
	
		<linearGradient id="Operation__x2B__Display_Area_1_" gradientUnits="userSpaceOnUse" x1="73.3413" y1="49.7183" x2="125.3728" y2="101.7498">
		<stop  offset="0" style="stop-color:#FFFFFF"/>
		<stop  offset="1" style="stop-color:#7C7C7B"/>
	</linearGradient>
	
		<circle id="Operation__x2B__Display_Area" fill="url(#Operation__x2B__Display_Area_1_)" stroke="#646567" stroke-width="0.75" stroke-linejoin="round" stroke-miterlimit="10" cx="75.1" cy="51.4" r="31.7"/>
	
		<path id="Text_Buttons_1_" fill="#8C8C91" stroke="#8C8C91" stroke-width="0.75" stroke-linecap="round" stroke-linejoin="round" stroke-miterlimit="10" d="
		M66.1,69.9H57v1.7h9.1V69.9z M79.6,69.9h-9.1v1.7h9.1V69.9z M93.2,69.9h-9.1v1.7h9.1V69.9z"/>
	<linearGradient id="Buttons_2_" gradientUnits="userSpaceOnUse" x1="75.0703" y1="50.061" x2="75.0703" y2="79.291">
		<stop  offset="0" style="stop-color:#FFFFFF"/>
		<stop  offset="1" style="stop-color:#7C7C7B"/>
	</linearGradient>
	
		<path id="Buttons_1_" fill="url(#Buttons_2_)" stroke="#575756" stroke-width="0.75" stroke-linejoin="round" stroke-miterlimit="10" d="
		M64.2,67.4c1,0,1.9-0.8,1.9-1.9v-5.3c0-1-0.8-1.9-1.9-1.9h-5.3c-1,0-1.9,0.8-1.9,1.9v5.3c0,1,0.8,1.9,1.9,1.9H64.2z M77.7,67.4
		c1,0,1.9-0.8,1.9-1.9v-5.3c0-1-0.8-1.9-1.9-1.9h-5.3c-1,0-1.9,0.8-1.9,1.9v5.3c0,1,0.8,1.9,1.9,1.9H77.7z M91.3,67.4
		c1,0,1.9-0.8,1.9-1.9v-5.3c0-1-0.8-1.9-1.9-1.9H86c-1,0-1.9,0.8-1.9,1.9v5.3c0,1,0.8,1.9,1.9,1.9H91.3z"/>
	<path id="Scruts" fill="#8C8C91" d="M76.1,11.1H74V2.3h2.1V11.1z M76.1,91.8H74v8.8h2.1V91.8z M59.2,4.9l-1.9,0.7l3,8.3l1.9-0.7
		L59.2,4.9z M89.8,89l-1.9,0.7l3,8.3l1.9-0.7L89.8,89z M44.3,13.1l-1.6,1.3l5.7,6.7l1.6-1.3L44.3,13.1z M101.8,81.7l-1.6,1.3
		l5.6,6.7l1.6-1.3L101.8,81.7z M33,26l-1,1.8l7.6,4.4l1-1.8L33,26z M110.5,70.7l-1,1.8l7.6,4.4l1-1.8L110.5,70.7z M26.5,59l0.4,2
		l8.7-1.5l-0.4-2L26.5,59z M114.6,43.4l0.4,2l8.7-1.5l-0.4-2L114.6,43.4z M32,75.1l1,1.8l7.6-4.4l-1-1.8L32,75.1z M109.5,30.4l1,1.8
		l7.6-4.4l-1-1.8L109.5,30.4z M42.7,88.4l1.6,1.3l5.6-6.7l-1.6-1.3L42.7,88.4z M100.2,19.9l1.6,1.3l5.6-6.7l-1.6-1.3L100.2,19.9z
		 M57.3,97.3l1.9,0.7l3-8.3L60.3,89L57.3,97.3z M87.9,13.2l1.9,0.7l3-8.3l-1.9-0.7L87.9,13.2z"/>
	<linearGradient id="Hollows_1_" gradientUnits="userSpaceOnUse" x1="-10.7061" y1="35.7588" x2="249.4666" y2="83.3625">
		<stop  offset="0" style="stop-color:#FFFFFF"/>
		<stop  offset="1" style="stop-color:#7C7C7B"/>
	</linearGradient>
	
		<path id="Hollows" fill="url(#Hollows_1_)" stroke="#8C8C91" stroke-width="0.75" stroke-linejoin="round" stroke-miterlimit="10" d="
		M42.5,40.3l-1.8,10.4l-11.4-2L31,38.3L42.5,40.3z M109.5,52.2l-1.8,10.4l11.4,2l1.8-10.4L109.5,52.2z"/>
	
		<path id="Shadows_Hollows" fill="#8C8C91" stroke="#8C8C91" stroke-width="0.75" stroke-linejoin="round" stroke-miterlimit="10" d="
		M31,38.3l11.4,2l-1.9,1.4L36,41L31,38.3z M109.5,52.2l11.4,2l-5.5,0.8l-4.3-0.8L109.5,52.2z"/>
	<g id="Display">
		<linearGradient id="Shape_11_" gradientUnits="userSpaceOnUse" x1="30.9282" y1="26.8672" x2="73.4766" y2="45.1224">
			<stop  offset="0" style="stop-color:#FFFFFF"/>
			<stop  offset="1" style="stop-color:#424242"/>
		</linearGradient>
		
			<rect id="Shape_1_" x="50.2" y="36.3" fill="url(#Shape_11_)" stroke="#575756" stroke-width="0.75" stroke-linecap="round" stroke-linejoin="round" stroke-miterlimit="10" width="49.8" height="19"/>
		<polygon id="Reflection" fill="#AFAFAE" points="50.6,36.8 50.6,54.8 56.7,54.8 69.2,36.8 		"/>
	</g>
</g>
</svg>
