<?xml version="1.0" encoding="utf-8"?>

<!-- Copyright 2016 Siemens AG -->

<!-- Generator: Adobe Illustrator 16.0.4, SVG Export Plug-In . SVG Version: 6.00 Build 0)  -->
<!DOCTYPE svg PUBLIC "-//W3C//DTD SVG 1.1//EN" "http://www.w3.org/Graphics/SVG/1.1/DTD/svg11.dtd">
<svg version="1.1" id="Magnetic_Flow_Meter" xmlns="http://www.w3.org/2000/svg" xmlns:xlink="http://www.w3.org/1999/xlink"
	 x="0px" y="0px" width="240px" height="300px" viewBox="0 0 240 300" enable-background="new 0 0 240 300" xml:space="preserve">
<g id="Flanges__x2B__Measurement_Pipe">
	<g id="Flange_Right">
		<linearGradient id="Seal_2_" gradientUnits="userSpaceOnUse" x1="235.5488" y1="87.5938" x2="235.5488" y2="207.2895">
			<stop  offset="0" style="stop-color:#AFAFAE"/>
			<stop  offset="1" style="stop-color:#424242"/>
		</linearGradient>
		
			<polygon id="Seal_1_" fill="url(#Seal_2_)" stroke="#646567" stroke-width="0.75" stroke-linecap="round" stroke-linejoin="round" stroke-miterlimit="10" points="
			233.4,272.2 237.7,269.9 237.7,160.6 233.4,158.4 		"/>
		<linearGradient id="Shape_8_" gradientUnits="userSpaceOnUse" x1="223.7271" y1="132.7139" x2="223.7271" y2="297.2105">
			<stop  offset="0" style="stop-color:#A5A5A5"/>
			<stop  offset="4.758149e-02" style="stop-color:#B5B5B5"/>
			<stop  offset="0.1509" style="stop-color:#D3D3D3"/>
			<stop  offset="0.2395" style="stop-color:#E5E5E5"/>
			<stop  offset="0.3025" style="stop-color:#ECECEC"/>
			<stop  offset="0.4074" style="stop-color:#E8E8E8"/>
			<stop  offset="0.514" style="stop-color:#DCDCDC"/>
			<stop  offset="0.6214" style="stop-color:#C7C7C7"/>
			<stop  offset="0.7294" style="stop-color:#ABABAB"/>
			<stop  offset="0.8378" style="stop-color:#868686"/>
			<stop  offset="0.9452" style="stop-color:#5A5A5A"/>
			<stop  offset="1" style="stop-color:#404040"/>
		</linearGradient>
		
			<polygon id="Shape_6_" fill="url(#Shape_8_)" stroke="#8C8C91" stroke-width="0.75" stroke-linejoin="round" stroke-miterlimit="10" points="
			233.4,296.6 231.5,297.6 216,297.6 214.1,296.6 214.1,133.9 216,132.9 231.5,132.9 233.4,133.9 		"/>
		<linearGradient id="Reflection_6_" gradientUnits="userSpaceOnUse" x1="223.728" y1="145.7744" x2="223.728" y2="161.8382">
			<stop  offset="0" style="stop-color:#F2F2F2;stop-opacity:0.4"/>
			<stop  offset="1" style="stop-color:#F7F7F7;stop-opacity:0.7"/>
		</linearGradient>
		<rect id="Reflection_5_" x="216" y="149.8" fill="url(#Reflection_6_)" width="15.5" height="28.1"/>
		<linearGradient id="Edge_Right_2_" gradientUnits="userSpaceOnUse" x1="232.4238" y1="133.6729" x2="232.4238" y2="297.6482">
			<stop  offset="0" style="stop-color:#AFAFAE"/>
			<stop  offset="1" style="stop-color:#424242"/>
		</linearGradient>
		
			<polyline id="Edge_Right_1_" fill="url(#Edge_Right_2_)" stroke="#8C8C91" stroke-width="0.75" stroke-linejoin="round" stroke-miterlimit="10" points="
			231.5,132.9 233.4,133.9 233.4,296.6 231.5,297.6 		"/>
		<linearGradient id="Edge_Left_2_" gradientUnits="userSpaceOnUse" x1="215.0317" y1="81.2603" x2="215.0317" y2="325.7625">
			<stop  offset="0" style="stop-color:#A5A5A5"/>
			<stop  offset="4.758149e-02" style="stop-color:#B5B5B5"/>
			<stop  offset="0.1509" style="stop-color:#D3D3D3"/>
			<stop  offset="0.2395" style="stop-color:#E5E5E5"/>
			<stop  offset="0.3025" style="stop-color:#ECECEC"/>
			<stop  offset="0.4074" style="stop-color:#E8E8E8"/>
			<stop  offset="0.514" style="stop-color:#DCDCDC"/>
			<stop  offset="0.6214" style="stop-color:#C7C7C7"/>
			<stop  offset="0.7294" style="stop-color:#ABABAB"/>
			<stop  offset="0.8378" style="stop-color:#868686"/>
			<stop  offset="0.9452" style="stop-color:#5A5A5A"/>
			<stop  offset="1" style="stop-color:#404040"/>
		</linearGradient>
		
			<polyline id="Edge_Left_1_" fill="url(#Edge_Left_2_)" stroke="#8C8C91" stroke-width="0.75" stroke-linejoin="round" stroke-miterlimit="10" points="
			216,297.6 214.1,296.6 214.1,133.9 216,132.9 		"/>
	</g>
	<linearGradient id="Weld_Seam_Right_1_" gradientUnits="userSpaceOnUse" x1="211.4702" y1="113.0117" x2="211.4702" y2="286.6636">
		<stop  offset="0" style="stop-color:#A5A5A5"/>
		<stop  offset="4.758149e-02" style="stop-color:#B5B5B5"/>
		<stop  offset="0.1509" style="stop-color:#D3D3D3"/>
		<stop  offset="0.2395" style="stop-color:#E5E5E5"/>
		<stop  offset="0.3025" style="stop-color:#ECECEC"/>
		<stop  offset="0.4074" style="stop-color:#E8E8E8"/>
		<stop  offset="0.514" style="stop-color:#DCDCDC"/>
		<stop  offset="0.6214" style="stop-color:#C7C7C7"/>
		<stop  offset="0.7294" style="stop-color:#ABABAB"/>
		<stop  offset="0.8378" style="stop-color:#868686"/>
		<stop  offset="0.9452" style="stop-color:#5A5A5A"/>
		<stop  offset="1" style="stop-color:#404040"/>
	</linearGradient>
	
		<polygon id="Weld_Seam_Right_2_" fill="url(#Weld_Seam_Right_1_)" stroke="#8C8C91" stroke-width="0.75" stroke-linecap="round" stroke-linejoin="round" stroke-miterlimit="10" points="
		214.1,267.3 208.9,265.3 208.9,165.3 214.1,163.3 	"/>
	<g id="Pipe">
		<linearGradient id="Shape_10_" gradientUnits="userSpaceOnUse" x1="120.0444" y1="165.6084" x2="120.0444" y2="265.1376">
			<stop  offset="0" style="stop-color:#A5A5A5"/>
			<stop  offset="4.758149e-02" style="stop-color:#B5B5B5"/>
			<stop  offset="0.1509" style="stop-color:#D3D3D3"/>
			<stop  offset="0.2395" style="stop-color:#E5E5E5"/>
			<stop  offset="0.3025" style="stop-color:#ECECEC"/>
			<stop  offset="0.4074" style="stop-color:#E8E8E8"/>
			<stop  offset="0.514" style="stop-color:#DCDCDC"/>
			<stop  offset="0.6214" style="stop-color:#C7C7C7"/>
			<stop  offset="0.7294" style="stop-color:#ABABAB"/>
			<stop  offset="0.8378" style="stop-color:#868686"/>
			<stop  offset="0.9452" style="stop-color:#5A5A5A"/>
			<stop  offset="1" style="stop-color:#404040"/>
		</linearGradient>
		
			<rect id="Shape_7_" x="31.2" y="165.3" fill="url(#Shape_10_)" stroke="#8C8C91" stroke-width="0.75" stroke-linejoin="round" stroke-miterlimit="10" width="177.6" height="100"/>
		<linearGradient id="Reflection_7_" gradientUnits="userSpaceOnUse" x1="120.0171" y1="173.5156" x2="120.0171" y2="186.3697">
			<stop  offset="0" style="stop-color:#F2F2F2;stop-opacity:0.4"/>
			<stop  offset="1" style="stop-color:#F7F7F7;stop-opacity:0.7"/>
		</linearGradient>
		<rect id="Reflection_4_" x="31.9" y="175.5" fill="url(#Reflection_7_)" width="176.2" height="17"/>
	</g>
	<g id="Measurement_Pipe">
		<linearGradient id="Shape_11_" gradientUnits="userSpaceOnUse" x1="120.0449" y1="146.9292" x2="120.0449" y2="283.4327">
			<stop  offset="0" style="stop-color:#A5A5A5"/>
			<stop  offset="4.758149e-02" style="stop-color:#B5B5B5"/>
			<stop  offset="0.1509" style="stop-color:#D3D3D3"/>
			<stop  offset="0.2395" style="stop-color:#E5E5E5"/>
			<stop  offset="0.3025" style="stop-color:#ECECEC"/>
			<stop  offset="0.4074" style="stop-color:#E8E8E8"/>
			<stop  offset="0.514" style="stop-color:#DCDCDC"/>
			<stop  offset="0.6214" style="stop-color:#C7C7C7"/>
			<stop  offset="0.7294" style="stop-color:#ABABAB"/>
			<stop  offset="0.8378" style="stop-color:#868686"/>
			<stop  offset="0.9452" style="stop-color:#5A5A5A"/>
			<stop  offset="1" style="stop-color:#404040"/>
		</linearGradient>
		
			<rect id="Shape_9_" x="51.9" y="146.5" fill="url(#Shape_11_)" stroke="#8C8C91" stroke-width="0.75" stroke-linejoin="round" stroke-miterlimit="10" width="136.2" height="137.6"/>
		<linearGradient id="Reflection_8_" gradientUnits="userSpaceOnUse" x1="120.0903" y1="158.2773" x2="120.0903" y2="168.2393">
			<stop  offset="0" style="stop-color:#F2F2F2;stop-opacity:0.4"/>
			<stop  offset="1" style="stop-color:#F7F7F7;stop-opacity:0.7"/>
		</linearGradient>
		<rect id="Reflection_3_" x="52.9" y="160.5" fill="url(#Reflection_8_)" width="134.3" height="23.5"/>
	</g>
	<linearGradient id="Weld_Seam_Left_1_" gradientUnits="userSpaceOnUse" x1="28.6182" y1="165.5117" x2="28.6182" y2="266.6464">
		<stop  offset="0" style="stop-color:#A5A5A5"/>
		<stop  offset="4.758149e-02" style="stop-color:#B5B5B5"/>
		<stop  offset="0.1509" style="stop-color:#D3D3D3"/>
		<stop  offset="0.2395" style="stop-color:#E5E5E5"/>
		<stop  offset="0.3025" style="stop-color:#ECECEC"/>
		<stop  offset="0.4074" style="stop-color:#E8E8E8"/>
		<stop  offset="0.514" style="stop-color:#DCDCDC"/>
		<stop  offset="0.6214" style="stop-color:#C7C7C7"/>
		<stop  offset="0.7294" style="stop-color:#ABABAB"/>
		<stop  offset="0.8378" style="stop-color:#868686"/>
		<stop  offset="0.9452" style="stop-color:#5A5A5A"/>
		<stop  offset="1" style="stop-color:#404040"/>
	</linearGradient>
	
		<polygon id="Weld_Seam_Left_2_" fill="url(#Weld_Seam_Left_1_)" stroke="#8C8C91" stroke-width="0.75" stroke-linejoin="round" stroke-miterlimit="10" points="
		26,267.3 31.2,265.3 31.2,165.3 26,163.3 	"/>
	<g id="Flange_Left">
		<linearGradient id="Seal_3_" gradientUnits="userSpaceOnUse" x1="4.5396" y1="98.5283" x2="4.5395" y2="198.9877">
			<stop  offset="0" style="stop-color:#AFAFAE"/>
			<stop  offset="1" style="stop-color:#424242"/>
		</linearGradient>
		
			<polygon id="Seal" fill="url(#Seal_3_)" stroke="#646567" stroke-width="0.75" stroke-linecap="round" stroke-linejoin="round" stroke-miterlimit="10" points="
			6.7,272.2 2.4,269.9 2.4,160.6 6.7,158.4 		"/>
		<linearGradient id="Shape_12_" gradientUnits="userSpaceOnUse" x1="16.3599" y1="132.7139" x2="16.3599" y2="297.2105">
			<stop  offset="0" style="stop-color:#A5A5A5"/>
			<stop  offset="4.758149e-02" style="stop-color:#B5B5B5"/>
			<stop  offset="0.1509" style="stop-color:#D3D3D3"/>
			<stop  offset="0.2395" style="stop-color:#E5E5E5"/>
			<stop  offset="0.3025" style="stop-color:#ECECEC"/>
			<stop  offset="0.4074" style="stop-color:#E8E8E8"/>
			<stop  offset="0.514" style="stop-color:#DCDCDC"/>
			<stop  offset="0.6214" style="stop-color:#C7C7C7"/>
			<stop  offset="0.7294" style="stop-color:#ABABAB"/>
			<stop  offset="0.8378" style="stop-color:#868686"/>
			<stop  offset="0.9452" style="stop-color:#5A5A5A"/>
			<stop  offset="1" style="stop-color:#404040"/>
		</linearGradient>
		
			<polygon id="Shape_5_" fill="url(#Shape_12_)" stroke="#8C8C91" stroke-width="0.75" stroke-linejoin="round" stroke-miterlimit="10" points="
			26,296.6 24.1,297.6 8.6,297.6 6.7,296.6 6.7,133.9 8.6,132.9 24.1,132.9 26,133.9 		"/>
		<linearGradient id="Reflection_9_" gradientUnits="userSpaceOnUse" x1="16.3604" y1="145.7319" x2="16.3604" y2="161.817">
			<stop  offset="0" style="stop-color:#F2F2F2;stop-opacity:0.4"/>
			<stop  offset="1" style="stop-color:#F7F7F7;stop-opacity:0.7"/>
		</linearGradient>
		<rect id="Reflection_2_" x="8.6" y="149.8" fill="url(#Reflection_9_)" width="15.5" height="28.1"/>
		<linearGradient id="Edge_Right_3_" gradientUnits="userSpaceOnUse" x1="25.0566" y1="133.6729" x2="25.0566" y2="297.6482">
			<stop  offset="0" style="stop-color:#AFAFAE"/>
			<stop  offset="1" style="stop-color:#424242"/>
		</linearGradient>
		
			<polyline id="Edge_Right" fill="url(#Edge_Right_3_)" stroke="#8C8C91" stroke-width="0.75" stroke-linejoin="round" stroke-miterlimit="10" points="
			24.1,132.9 26,133.9 26,296.6 24.1,297.6 		"/>
		<linearGradient id="Edge_Left_3_" gradientUnits="userSpaceOnUse" x1="7.6636" y1="81.2603" x2="7.6636" y2="325.7625">
			<stop  offset="0" style="stop-color:#A5A5A5"/>
			<stop  offset="4.758149e-02" style="stop-color:#B5B5B5"/>
			<stop  offset="0.1509" style="stop-color:#D3D3D3"/>
			<stop  offset="0.2395" style="stop-color:#E5E5E5"/>
			<stop  offset="0.3025" style="stop-color:#ECECEC"/>
			<stop  offset="0.4074" style="stop-color:#E8E8E8"/>
			<stop  offset="0.514" style="stop-color:#DCDCDC"/>
			<stop  offset="0.6214" style="stop-color:#C7C7C7"/>
			<stop  offset="0.7294" style="stop-color:#ABABAB"/>
			<stop  offset="0.8378" style="stop-color:#868686"/>
			<stop  offset="0.9452" style="stop-color:#5A5A5A"/>
			<stop  offset="1" style="stop-color:#404040"/>
		</linearGradient>
		
			<polyline id="Edge_Left" fill="url(#Edge_Left_3_)" stroke="#8C8C91" stroke-width="0.75" stroke-linejoin="round" stroke-miterlimit="10" points="
			8.6,297.6 6.7,296.6 6.7,133.9 8.6,132.9 		"/>
	</g>
</g>
<g id="Operating_Unit__x2B__Electric_Box">
	<g id="Connection_Measurement_Pipe">
		<linearGradient id="Shape_13_" gradientUnits="userSpaceOnUse" x1="105.165" y1="132.7988" x2="134.6579" y2="132.7988">
			<stop  offset="0" style="stop-color:#A5A5A5"/>
			<stop  offset="4.758149e-02" style="stop-color:#B5B5B5"/>
			<stop  offset="0.1509" style="stop-color:#D3D3D3"/>
			<stop  offset="0.2395" style="stop-color:#E5E5E5"/>
			<stop  offset="0.3025" style="stop-color:#ECECEC"/>
			<stop  offset="0.4074" style="stop-color:#E8E8E8"/>
			<stop  offset="0.514" style="stop-color:#DCDCDC"/>
			<stop  offset="0.6214" style="stop-color:#C7C7C7"/>
			<stop  offset="0.7294" style="stop-color:#ABABAB"/>
			<stop  offset="0.8378" style="stop-color:#868686"/>
			<stop  offset="0.9452" style="stop-color:#5A5A5A"/>
			<stop  offset="1" style="stop-color:#404040"/>
		</linearGradient>
		
			<path id="Shape_3_" fill="url(#Shape_13_)" stroke="#8C8C91" stroke-width="0.75" stroke-linejoin="round" stroke-miterlimit="10" d="
			M135.3,113.9h-30.4v32.9l0,0v0c0,2.1,6.8,4.9,15.2,4.9c8.4,0,15.2-2.7,15.2-4.9v0l0,0V113.9z"/>
		<linearGradient id="Reflection_10_" gradientUnits="userSpaceOnUse" x1="107.9521" y1="132.5127" x2="113.1357" y2="132.5127">
			<stop  offset="0" style="stop-color:#F2F2F2;stop-opacity:0.4"/>
			<stop  offset="1" style="stop-color:#F7F7F7;stop-opacity:0.7"/>
		</linearGradient>
		<path id="Reflection" fill="url(#Reflection_10_)" d="M113.1,150.6c0,0-3-0.6-5.2-1.6c0-1.5,0-34.7,0-34.7h5.2V150.6z"/>
	</g>
	<g id="Connection_Operation_Unit_2_">
		<linearGradient id="Shape_14_" gradientUnits="userSpaceOnUse" x1="97.9414" y1="101.1025" x2="141.9323" y2="101.1025">
			<stop  offset="0" style="stop-color:#A5A5A5"/>
			<stop  offset="4.758149e-02" style="stop-color:#B5B5B5"/>
			<stop  offset="0.1509" style="stop-color:#D3D3D3"/>
			<stop  offset="0.2395" style="stop-color:#E5E5E5"/>
			<stop  offset="0.3025" style="stop-color:#ECECEC"/>
			<stop  offset="0.4074" style="stop-color:#E8E8E8"/>
			<stop  offset="0.514" style="stop-color:#DCDCDC"/>
			<stop  offset="0.6214" style="stop-color:#C7C7C7"/>
			<stop  offset="0.7294" style="stop-color:#ABABAB"/>
			<stop  offset="0.8378" style="stop-color:#868686"/>
			<stop  offset="0.9452" style="stop-color:#5A5A5A"/>
			<stop  offset="1" style="stop-color:#404040"/>
		</linearGradient>
		
			<rect id="Shape_4_" x="97.4" y="88.3" fill="url(#Shape_14_)" stroke="#8C8C91" stroke-width="0.75" stroke-linejoin="round" stroke-miterlimit="10" width="45.3" height="25.6"/>
		
			<linearGradient id="Reflection_11_" gradientUnits="userSpaceOnUse" x1="76.6992" y1="608.7432" x2="84.6192" y2="608.7432" gradientTransform="matrix(1 0 0 1 25.1172 -507.625)">
			<stop  offset="0" style="stop-color:#F2F2F2;stop-opacity:0.4"/>
			<stop  offset="1" style="stop-color:#F7F7F7;stop-opacity:0.7"/>
		</linearGradient>
		<rect id="Reflection_1_" x="102" y="88.8" fill="url(#Reflection_11_)" width="7.7" height="24.6"/>
		<linearGradient id="Reflection_Line_1_" gradientUnits="userSpaceOnUse" x1="97.0356" y1="109.3774" x2="143.0518" y2="109.3774">
			<stop  offset="0" style="stop-color:#FFFFFF"/>
			<stop  offset="1" style="stop-color:#7C7C7B"/>
		</linearGradient>
		
			<line id="Reflection_Line" fill="none" stroke="url(#Reflection_Line_1_)" stroke-width="0.75" stroke-linecap="round" stroke-linejoin="round" stroke-miterlimit="10" x1="97.4" y1="109.4" x2="142.7" y2="109.4"/>
		
			<line id="Devider_Line" fill="none" stroke="#646567" stroke-width="0.75" stroke-linecap="round" stroke-linejoin="round" stroke-miterlimit="10" x1="97.4" y1="108.7" x2="142.7" y2="108.7"/>
	</g>
	
		<linearGradient id="Housing_Electric_Box_Right_1_" gradientUnits="userSpaceOnUse" x1="151.6021" y1="10.1074" x2="151.6021" y2="87.9173">
		<stop  offset="0" style="stop-color:#A5A5A5"/>
		<stop  offset="4.758149e-02" style="stop-color:#B5B5B5"/>
		<stop  offset="0.1509" style="stop-color:#D3D3D3"/>
		<stop  offset="0.2395" style="stop-color:#E5E5E5"/>
		<stop  offset="0.3025" style="stop-color:#ECECEC"/>
		<stop  offset="0.4074" style="stop-color:#E8E8E8"/>
		<stop  offset="0.514" style="stop-color:#DCDCDC"/>
		<stop  offset="0.6214" style="stop-color:#C7C7C7"/>
		<stop  offset="0.7294" style="stop-color:#ABABAB"/>
		<stop  offset="0.8378" style="stop-color:#868686"/>
		<stop  offset="0.9452" style="stop-color:#5A5A5A"/>
		<stop  offset="1" style="stop-color:#404040"/>
	</linearGradient>
	
		<rect id="Housing_Electric_Box_Right" x="129.7" y="8.2" fill="url(#Housing_Electric_Box_Right_1_)" stroke="#8C8C91" stroke-width="0.75" stroke-linejoin="round" stroke-miterlimit="10" width="43.9" height="80.1"/>
	
		<linearGradient id="Reflection_Housing_Right_1_" gradientUnits="userSpaceOnUse" x1="151.481" y1="20.5728" x2="151.481" y2="28.5917">
		<stop  offset="0" style="stop-color:#F2F2F2;stop-opacity:0.4"/>
		<stop  offset="1" style="stop-color:#F7F7F7;stop-opacity:0.7"/>
	</linearGradient>
	<rect id="Reflection_Housing_Right" x="130" y="16.4" fill="url(#Reflection_Housing_Right_1_)" width="42.9" height="13.6"/>
	<g id="Electrical_Connection_Below">
		
			<linearGradient id="Connection_Operation_Unit_3_" gradientUnits="userSpaceOnUse" x1="77.6392" y1="56.25" x2="77.6392" y2="73.7192">
			<stop  offset="0" style="stop-color:#A5A5A5"/>
			<stop  offset="4.758149e-02" style="stop-color:#B5B5B5"/>
			<stop  offset="0.1509" style="stop-color:#D3D3D3"/>
			<stop  offset="0.2395" style="stop-color:#E5E5E5"/>
			<stop  offset="0.3025" style="stop-color:#ECECEC"/>
			<stop  offset="0.4074" style="stop-color:#E8E8E8"/>
			<stop  offset="0.514" style="stop-color:#DCDCDC"/>
			<stop  offset="0.6214" style="stop-color:#C7C7C7"/>
			<stop  offset="0.7294" style="stop-color:#ABABAB"/>
			<stop  offset="0.8378" style="stop-color:#868686"/>
			<stop  offset="0.9452" style="stop-color:#5A5A5A"/>
			<stop  offset="1" style="stop-color:#404040"/>
		</linearGradient>
		
			<rect id="Connection_Operation_Unit_1_" x="69.9" y="55.9" fill="url(#Connection_Operation_Unit_3_)" stroke="#8C8C91" stroke-width="0.75" stroke-linejoin="round" stroke-miterlimit="10" width="15.4" height="18"/>
		<linearGradient id="Intermediate_Piece_2_" gradientUnits="userSpaceOnUse" x1="66.1733" y1="53.229" x2="66.1733" y2="79.3552">
			<stop  offset="0" style="stop-color:#FFFFFF"/>
			<stop  offset="1" style="stop-color:#7C7C7B"/>
		</linearGradient>
		
			<rect id="Intermediate_Piece_1_" x="64.9" y="57.7" fill="url(#Intermediate_Piece_2_)" stroke="#8C8C91" stroke-width="0.75" stroke-linejoin="round" stroke-miterlimit="10" width="2.6" height="14.4"/>
		<g id="Lock_Nut_1_">
			
				<rect id="Shape_Side_Underneath_3_" x="67.5" y="69.1" fill="#6A6A69" stroke="#8C8C91" stroke-width="0.75" stroke-linecap="round" stroke-linejoin="round" stroke-miterlimit="10" width="2.4" height="4.2"/>
			
				<rect id="Shape_Side_Middle_3_" x="67.5" y="60.5" fill="#AFAFAE" stroke="#8C8C91" stroke-width="0.75" stroke-linecap="round" stroke-linejoin="round" stroke-miterlimit="10" width="2.4" height="8.6"/>
			
				<rect id="Shape_Side_Top_3_" x="67.5" y="56.4" fill="#DEDEDE" stroke="#8C8C91" stroke-width="0.75" stroke-linecap="round" stroke-linejoin="round" stroke-miterlimit="10" width="2.4" height="4.2"/>
		</g>
		<g id="Nut_1_">
			<linearGradient id="Shape_15_" gradientUnits="userSpaceOnUse" x1="51.4189" y1="64.8682" x2="64.8569" y2="64.8682">
				<stop  offset="0" style="stop-color:#FFFFFF"/>
				<stop  offset="1" style="stop-color:#7C7C7B"/>
			</linearGradient>
			
				<rect id="Shape_2_" x="51.4" y="58.6" fill="url(#Shape_15_)" stroke="#8C8C91" stroke-width="0.75" stroke-linecap="round" stroke-linejoin="round" stroke-miterlimit="10" width="13.4" height="12.6"/>
			
				<linearGradient id="Shape_Side_Underneath_4_" gradientUnits="userSpaceOnUse" x1="25.917" y1="71.1514" x2="57.3861" y2="71.1514">
				<stop  offset="0" style="stop-color:#FFFFFF"/>
				<stop  offset="1" style="stop-color:#7C7C7B"/>
			</linearGradient>
			
				<path id="Shape_Side_Underneath_2_" fill="url(#Shape_Side_Underneath_4_)" stroke="#8C8C91" stroke-width="0.75" stroke-linecap="round" stroke-linejoin="round" stroke-miterlimit="10" d="
				M63,73.2c1,0,1.9-0.9,1.9-2s-0.8-2-1.9-2h-9.7c-1,0-1.9,0.9-1.9,2s0.8,2,1.9,2H63z"/>
			<linearGradient id="Shape_Side_Middle_4_" gradientUnits="userSpaceOnUse" x1="36.4888" y1="64.8677" x2="76.9066" y2="64.8677">
				<stop  offset="0" style="stop-color:#FFFFFF"/>
				<stop  offset="1" style="stop-color:#7C7C7B"/>
			</linearGradient>
			
				<path id="Shape_Side_Middle_2_" fill="url(#Shape_Side_Middle_4_)" stroke="#8C8C91" stroke-width="0.75" stroke-linecap="round" stroke-linejoin="round" stroke-miterlimit="10" d="
				M63,69.1c1,0,1.9-1.9,1.9-4.3S64,60.6,63,60.6h-9.7c-1,0-1.9,1.9-1.9,4.3s0.8,4.3,1.9,4.3H63z"/>
			
				<path id="Shape_Side_Top_2_" fill="#DEDEDE" stroke="#8C8C91" stroke-width="0.75" stroke-linecap="round" stroke-linejoin="round" stroke-miterlimit="10" d="
				M63,60.6c1,0,1.9-0.9,1.9-2c0-1.1-0.8-2-1.9-2h-9.7c-1,0-1.9,0.9-1.9,2c0,1.1,0.8,2,1.9,2H63z"/>
		</g>
	</g>
	<g id="Electrical_Connection_Top">
		
			<linearGradient id="Connection_Operation_Unit_4_" gradientUnits="userSpaceOnUse" x1="77.6392" y1="22.9585" x2="77.6392" y2="40.4277">
			<stop  offset="0" style="stop-color:#A5A5A5"/>
			<stop  offset="4.758149e-02" style="stop-color:#B5B5B5"/>
			<stop  offset="0.1509" style="stop-color:#D3D3D3"/>
			<stop  offset="0.2395" style="stop-color:#E5E5E5"/>
			<stop  offset="0.3025" style="stop-color:#ECECEC"/>
			<stop  offset="0.4074" style="stop-color:#E8E8E8"/>
			<stop  offset="0.514" style="stop-color:#DCDCDC"/>
			<stop  offset="0.6214" style="stop-color:#C7C7C7"/>
			<stop  offset="0.7294" style="stop-color:#ABABAB"/>
			<stop  offset="0.8378" style="stop-color:#868686"/>
			<stop  offset="0.9452" style="stop-color:#5A5A5A"/>
			<stop  offset="1" style="stop-color:#404040"/>
		</linearGradient>
		
			<rect id="Connection_Operation_Unit" x="69.9" y="22.6" fill="url(#Connection_Operation_Unit_4_)" stroke="#8C8C91" stroke-width="0.75" stroke-linejoin="round" stroke-miterlimit="10" width="15.4" height="18"/>
		<linearGradient id="Intermediate_Piece_3_" gradientUnits="userSpaceOnUse" x1="66.1733" y1="19.9375" x2="66.1733" y2="46.0637">
			<stop  offset="0" style="stop-color:#FFFFFF"/>
			<stop  offset="1" style="stop-color:#7C7C7B"/>
		</linearGradient>
		
			<rect id="Intermediate_Piece" x="64.9" y="24.4" fill="url(#Intermediate_Piece_3_)" stroke="#8C8C91" stroke-width="0.75" stroke-linejoin="round" stroke-miterlimit="10" width="2.6" height="14.4"/>
		<g id="Lock_Nut">
			
				<rect id="Shape_Side_Underneath_1_" x="67.5" y="35.8" fill="#6A6A69" stroke="#8C8C91" stroke-width="0.75" stroke-linecap="round" stroke-linejoin="round" stroke-miterlimit="10" width="2.4" height="4.2"/>
			
				<rect id="Shape_Side_Middle_1_" x="67.5" y="27.2" fill="#AFAFAE" stroke="#8C8C91" stroke-width="0.75" stroke-linecap="round" stroke-linejoin="round" stroke-miterlimit="10" width="2.4" height="8.6"/>
			
				<rect id="Shape_Side_Top_1_" x="67.5" y="23.1" fill="#DEDEDE" stroke="#8C8C91" stroke-width="0.75" stroke-linecap="round" stroke-linejoin="round" stroke-miterlimit="10" width="2.4" height="4.2"/>
		</g>
		<g id="Nut">
			<linearGradient id="Shape_16_" gradientUnits="userSpaceOnUse" x1="51.4189" y1="31.5762" x2="64.8569" y2="31.5762">
				<stop  offset="0" style="stop-color:#FFFFFF"/>
				<stop  offset="1" style="stop-color:#7C7C7B"/>
			</linearGradient>
			
				<rect id="Shape_1_" x="51.4" y="25.3" fill="url(#Shape_16_)" stroke="#8C8C91" stroke-width="0.75" stroke-linecap="round" stroke-linejoin="round" stroke-miterlimit="10" width="13.4" height="12.6"/>
			
				<linearGradient id="Shape_Side_Underneath_5_" gradientUnits="userSpaceOnUse" x1="25.917" y1="37.8604" x2="57.3861" y2="37.8604">
				<stop  offset="0" style="stop-color:#FFFFFF"/>
				<stop  offset="1" style="stop-color:#7C7C7B"/>
			</linearGradient>
			
				<path id="Shape_Side_Underneath" fill="url(#Shape_Side_Underneath_5_)" stroke="#8C8C91" stroke-width="0.75" stroke-linecap="round" stroke-linejoin="round" stroke-miterlimit="10" d="
				M63,39.9c1,0,1.9-0.9,1.9-2s-0.8-2-1.9-2h-9.7c-1,0-1.9,0.9-1.9,2s0.8,2,1.9,2H63z"/>
			<linearGradient id="Shape_Side_Middle_5_" gradientUnits="userSpaceOnUse" x1="36.4888" y1="31.5762" x2="76.9066" y2="31.5762">
				<stop  offset="0" style="stop-color:#FFFFFF"/>
				<stop  offset="1" style="stop-color:#7C7C7B"/>
			</linearGradient>
			
				<path id="Shape_Side_Middle" fill="url(#Shape_Side_Middle_5_)" stroke="#8C8C91" stroke-width="0.75" stroke-linecap="round" stroke-linejoin="round" stroke-miterlimit="10" d="
				M63,35.9c1,0,1.9-1.9,1.9-4.3S64,27.3,63,27.3h-9.7c-1,0-1.9,1.9-1.9,4.3s0.8,4.3,1.9,4.3H63z"/>
			
				<path id="Shape_Side_Top" fill="#DEDEDE" stroke="#8C8C91" stroke-width="0.75" stroke-linecap="round" stroke-linejoin="round" stroke-miterlimit="10" d="
				M63,27.3c1,0,1.9-0.9,1.9-2c0-1.1-0.8-2-1.9-2h-9.7c-1,0-1.9,0.9-1.9,2c0,1.1,0.8,2,1.9,2H63z"/>
		</g>
	</g>
	<linearGradient id="Edge_Ring_1_" gradientUnits="userSpaceOnUse" x1="151.4795" y1="79.668" x2="85.6798" y2="13.8683">
		<stop  offset="0" style="stop-color:#FFFFFF"/>
		<stop  offset="1" style="stop-color:#7C7C7B"/>
	</linearGradient>
	
		<path id="Edge_Ring" fill="url(#Edge_Ring_1_)" stroke="#8C8C91" stroke-width="0.75" stroke-linecap="round" stroke-linejoin="round" stroke-miterlimit="10" d="
		M120,13.5c-19.2,0-34.7,15.5-34.7,34.7c0,19.2,15.5,34.7,34.7,34.7c19.2,0,34.7-15.5,34.7-34.7C154.7,29.1,139.2,13.5,120,13.5z
		 M120,80.4c-17.8,0-32.2-14.4-32.2-32.2S102.3,16,120,16c17.8,0,32.2,14.4,32.2,32.2S137.8,80.4,120,80.4z"/>
	
		<linearGradient id="Operation__x2B__Display_Area_1_" gradientUnits="userSpaceOnUse" x1="99.4805" y1="22.1855" x2="214.1423" y2="167.4237">
		<stop  offset="0" style="stop-color:#AFAFAE"/>
		<stop  offset="1" style="stop-color:#424242"/>
	</linearGradient>
	
		<circle id="Operation__x2B__Display_Area" fill="url(#Operation__x2B__Display_Area_1_)" stroke="#646567" stroke-width="0.75" stroke-linejoin="round" stroke-miterlimit="10" cx="120" cy="48.2" r="32.2"/>
	<linearGradient id="Ring_1_" gradientUnits="userSpaceOnUse" x1="62.8271" y1="-8.9873" x2="245.7193" y2="173.9048">
		<stop  offset="0" style="stop-color:#FFFFFF"/>
		<stop  offset="1" style="stop-color:#7C7C7B"/>
	</linearGradient>
	<path id="Ring" fill="url(#Ring_1_)" stroke="#8C8C91" stroke-width="0.75" stroke-linejoin="round" stroke-miterlimit="10" d="
		M156.2,42c-0.4-2.1,1-4.1,3.1-4.5l5.2-0.9c-0.7-2.7-1.7-5.3-2.8-7.8l-4.6,2.7c-1.9,1.1-4.2,0.4-5.3-1.4c-1.1-1.9-0.4-4.2,1.4-5.3
		l4.6-2.7c-1.6-2.3-3.4-4.4-5.3-6.4l-3.5,4.1c-1.4,1.6-3.8,1.9-5.5,0.5c-1.6-1.4-1.9-3.8-0.5-5.5l3.5-4.1c-2.3-1.6-4.7-3-7.2-4.2
		l-1.8,5.1c-0.7,2-3,3.1-5,2.3c-2-0.7-3.1-3-2.3-5l1.8-5.1c-2.6-0.7-5.4-1.2-8.2-1.4v5.4c0,2.1-1.7,3.9-3.9,3.9
		c-2.1,0-3.9-1.7-3.9-3.9V2.4c-2.8,0.2-5.6,0.7-8.2,1.4l1.8,5.1c0.7,2-0.3,4.2-2.3,5c-2,0.7-4.2-0.3-5-2.3l-1.8-5.1
		c-2.5,1.2-4.9,2.6-7.2,4.2l3.5,4.1c1.4,1.6,1.2,4.1-0.5,5.5c-1.6,1.4-4.1,1.2-5.5-0.5l-3.5-4.1c-2,2-3.7,4.1-5.3,6.4l4.6,2.7
		c1.9,1.1,2.5,3.4,1.4,5.3c-1.1,1.9-3.4,2.5-5.3,1.4l-4.6-2.7c-1.2,2.5-2.1,5.1-2.8,7.8l5.2,0.9c2.1,0.4,3.5,2.4,3.1,4.5
		c-0.4,2.1-2.4,3.5-4.5,3.1l-5.2-0.9c-0.1,1.3-0.2,2.7-0.2,4c0,1.4,0.1,2.9,0.2,4.3l5.2-0.9c2.1-0.4,4.1,1,4.5,3.1
		c0.4,2.1-1,4.1-3.1,4.5l-5.2,0.9c0.7,2.7,1.7,5.3,2.8,7.8l4.5-2.6c1.9-1.1,4.2-0.4,5.3,1.4c1.1,1.9,0.4,4.2-1.4,5.3l-4.5,2.6
		c1.6,2.3,3.4,4.4,5.3,6.3l3.3-4c1.4-1.6,3.8-1.9,5.5-0.5c1.6,1.4,1.9,3.8,0.5,5.5l-3.3,4c2.2,1.6,4.6,3,7.1,4.1l1.8-4.9
		c0.7-2,3-3.1,5-2.3c2,0.7,3.1,3,2.3,5l-1.8,4.9c2.6,0.7,5.3,1.2,8.1,1.4v-5.2c0-2.1,1.7-3.9,3.9-3.9c2.1,0,3.9,1.7,3.9,3.9v5.2
		c2.8-0.2,5.5-0.7,8.1-1.4l-1.8-4.9c-0.7-2,0.3-4.2,2.3-5c2-0.7,4.2,0.3,5,2.3l1.8,4.9c2.5-1.2,4.9-2.5,7.1-4.1l-3.3-4
		c-1.4-1.6-1.2-4.1,0.5-5.5c1.6-1.4,4.1-1.2,5.5,0.5l3.3,4c2-1.9,3.7-4.1,5.3-6.3l-4.5-2.6c-1.9-1.1-2.5-3.4-1.4-5.3
		c1.1-1.9,3.4-2.5,5.3-1.4l4.5,2.6c1.2-2.5,2.1-5.1,2.8-7.8l-5.2-0.9c-2.1-0.4-3.5-2.4-3.1-4.5c0.4-2.1,2.4-3.5,4.5-3.1l5.2,0.9
		c0.1-1.4,0.2-2.8,0.2-4.3c0-1.4-0.1-2.7-0.2-4l-5.2,0.9C158.6,45.5,156.6,44.1,156.2,42z M120,82.9c-19.2,0-34.7-15.5-34.7-34.7
		c0-19.2,15.5-34.7,34.7-34.7c19.2,0,34.7,15.5,34.7,34.7C154.7,67.4,139.2,82.9,120,82.9z"/>
	<g id="Hollows_Ring">
		<linearGradient id="Hollow_18_1_" gradientUnits="userSpaceOnUse" x1="102.3994" y1="11.2642" x2="109.9282" y2="8.4248">
			<stop  offset="3.029340e-03" style="stop-color:#7C7C7B"/>
			<stop  offset="5.591344e-02" style="stop-color:#8A8A89"/>
			<stop  offset="0.1774" style="stop-color:#A3A3A2"/>
			<stop  offset="0.3128" style="stop-color:#B7B7B6"/>
			<stop  offset="0.468" style="stop-color:#C4C4C3"/>
			<stop  offset="0.66" style="stop-color:#CDCDCC"/>
			<stop  offset="1" style="stop-color:#CFCFCE"/>
		</linearGradient>
		
			<path id="Hollow_18" fill="url(#Hollow_18_1_)" stroke="#8C8C91" stroke-width="0.75" stroke-linejoin="round" stroke-miterlimit="10" d="
			M104.6,5.9c-1.2,0.4-2.4,1-3.6,1.5l1.5,4.2c0.7,2,3,3.1,5,2.3c2-0.7,3.1-3,2.3-5l-1.5-4.2C107.1,5.1,105.8,5.5,104.6,5.9z"/>
		<linearGradient id="Hollow_17_1_" gradientUnits="userSpaceOnUse" x1="90.8447" y1="19.5405" x2="96.6958" y2="14.3774">
			<stop  offset="3.029340e-03" style="stop-color:#7C7C7B"/>
			<stop  offset="5.591344e-02" style="stop-color:#8A8A89"/>
			<stop  offset="0.1774" style="stop-color:#A3A3A2"/>
			<stop  offset="0.3128" style="stop-color:#B7B7B6"/>
			<stop  offset="0.468" style="stop-color:#C4C4C3"/>
			<stop  offset="0.66" style="stop-color:#CDCDCC"/>
			<stop  offset="1" style="stop-color:#CFCFCE"/>
		</linearGradient>
		
			<path id="Hollow_17" fill="url(#Hollow_17_1_)" stroke="#8C8C91" stroke-width="0.75" stroke-linejoin="round" stroke-miterlimit="10" d="
			M91,13.7c-1,0.8-1.9,1.7-2.9,2.6l2.8,3.4c1.4,1.6,3.8,1.9,5.5,0.5c1.6-1.4,1.9-3.8,0.5-5.5l-2.9-3.4C93,12.1,92,12.9,91,13.7z"/>
		<linearGradient id="Hollow_16_1_" gradientUnits="userSpaceOnUse" x1="87.4043" y1="22.3569" x2="81.9097" y2="33.0962">
			<stop  offset="3.029340e-03" style="stop-color:#7C7C7B"/>
			<stop  offset="5.591344e-02" style="stop-color:#8A8A89"/>
			<stop  offset="0.1774" style="stop-color:#A3A3A2"/>
			<stop  offset="0.3128" style="stop-color:#B7B7B6"/>
			<stop  offset="0.468" style="stop-color:#C4C4C3"/>
			<stop  offset="0.66" style="stop-color:#CDCDCC"/>
			<stop  offset="1" style="stop-color:#CFCFCE"/>
		</linearGradient>
		
			<path id="Hollow_16" fill="url(#Hollow_16_1_)" stroke="#8C8C91" stroke-width="0.75" stroke-linejoin="round" stroke-miterlimit="10" d="
			M80.9,25.8c-0.7,1.1-1.2,2.3-1.8,3.5l3.8,2.2c1.9,1.1,4.2,0.4,5.3-1.4c1.1-1.9,0.4-4.2-1.4-5.3L83,22.5
			C82.3,23.5,81.6,24.6,80.9,25.8z"/>
		<linearGradient id="Hollow_15_1_" gradientUnits="userSpaceOnUse" x1="80.1465" y1="38.1846" x2="79.2573" y2="44.6157">
			<stop  offset="3.029340e-03" style="stop-color:#7C7C7B"/>
			<stop  offset="5.591344e-02" style="stop-color:#8A8A89"/>
			<stop  offset="0.1774" style="stop-color:#A3A3A2"/>
			<stop  offset="0.3128" style="stop-color:#B7B7B6"/>
			<stop  offset="0.468" style="stop-color:#C4C4C3"/>
			<stop  offset="0.66" style="stop-color:#CDCDCC"/>
			<stop  offset="1" style="stop-color:#CFCFCE"/>
		</linearGradient>
		
			<path id="Hollow_15" fill="url(#Hollow_15_1_)" stroke="#8C8C91" stroke-width="0.75" stroke-linejoin="round" stroke-miterlimit="10" d="
			M75.5,40.5c-0.2,1.3-0.4,2.6-0.5,3.9l4.4,0.8c2.1,0.4,4.1-1,4.5-3.1c0.4-2.1-1-4.1-3.2-4.5l-4.4-0.8C76.1,38,75.8,39.2,75.5,40.5z
			"/>
		<linearGradient id="Hollow_14_1_" gradientUnits="userSpaceOnUse" x1="79.1143" y1="52.2861" x2="80.3457" y2="58.6484">
			<stop  offset="3.029340e-03" style="stop-color:#7C7C7B"/>
			<stop  offset="5.591344e-02" style="stop-color:#8A8A89"/>
			<stop  offset="0.1774" style="stop-color:#A3A3A2"/>
			<stop  offset="0.3128" style="stop-color:#B7B7B6"/>
			<stop  offset="0.468" style="stop-color:#C4C4C3"/>
			<stop  offset="0.66" style="stop-color:#CDCDCC"/>
			<stop  offset="1" style="stop-color:#CFCFCE"/>
		</linearGradient>
		
			<path id="Hollow_14" fill="url(#Hollow_14_1_)" stroke="#8C8C91" stroke-width="0.75" stroke-linejoin="round" stroke-miterlimit="10" d="
			M75.5,56.2c0.2,1.3,0.5,2.5,0.9,3.8l4.4-0.8c2.1-0.4,3.5-2.4,3.2-4.5c-0.4-2.1-2.4-3.5-4.5-3.1L75,52.4
			C75.2,53.6,75.3,54.9,75.5,56.2z"/>
		<linearGradient id="Hollow_13_1_" gradientUnits="userSpaceOnUse" x1="83.0293" y1="66.0327" x2="86.2535" y2="71.7922">
			<stop  offset="3.029340e-03" style="stop-color:#7C7C7B"/>
			<stop  offset="0.2065" style="stop-color:#929291"/>
			<stop  offset="0.428" style="stop-color:#A2A2A1"/>
			<stop  offset="0.6756" style="stop-color:#ACACAB"/>
			<stop  offset="1" style="stop-color:#AFAFAE"/>
		</linearGradient>
		
			<path id="Hollow_13" fill="url(#Hollow_13_1_)" stroke="#8C8C91" stroke-width="0.75" stroke-linejoin="round" stroke-miterlimit="10" d="
			M80.9,71c0.7,1.1,1.4,2.2,2.1,3.3l3.8-2.2c1.9-1.1,2.5-3.4,1.4-5.3c-1.1-1.9-3.4-2.5-5.3-1.4l-3.8,2.2
			C79.7,68.7,80.3,69.8,80.9,71z"/>
		<linearGradient id="Hollow_12_1_" gradientUnits="userSpaceOnUse" x1="91.1787" y1="77.6465" x2="96.3052" y2="81.8081">
			<stop  offset="3.029340e-03" style="stop-color:#7C7C7B"/>
			<stop  offset="0.2065" style="stop-color:#929291"/>
			<stop  offset="0.428" style="stop-color:#A2A2A1"/>
			<stop  offset="0.6756" style="stop-color:#ACACAB"/>
			<stop  offset="1" style="stop-color:#AFAFAE"/>
		</linearGradient>
		
			<path id="Hollow_12" fill="url(#Hollow_12_1_)" stroke="#8C8C91" stroke-width="0.75" stroke-linejoin="round" stroke-miterlimit="10" d="
			M91,83c1,0.8,2,1.6,3.1,2.4l2.8-3.4c1.4-1.6,1.2-4.1-0.5-5.5c-1.6-1.4-4.1-1.2-5.5,0.5l-2.9,3.4C89.1,81.3,90,82.1,91,83z"/>
		<linearGradient id="Hollow_11_1_" gradientUnits="userSpaceOnUse" x1="102.9209" y1="85.6953" x2="109.1702" y2="87.9549">
			<stop  offset="3.029340e-03" style="stop-color:#7C7C7B"/>
			<stop  offset="0.2065" style="stop-color:#929291"/>
			<stop  offset="0.428" style="stop-color:#A2A2A1"/>
			<stop  offset="0.6756" style="stop-color:#ACACAB"/>
			<stop  offset="1" style="stop-color:#AFAFAE"/>
		</linearGradient>
		
			<path id="Hollow_11" fill="url(#Hollow_11_1_)" stroke="#8C8C91" stroke-width="0.75" stroke-linejoin="round" stroke-miterlimit="10" d="
			M104.6,90.8c1.2,0.4,2.5,0.8,3.7,1.2l1.5-4.2c0.7-2-0.3-4.2-2.3-5c-2-0.7-4.2,0.3-5,2.3l-1.5,4.2
			C102.2,89.9,103.4,90.4,104.6,90.8z"/>
		<linearGradient id="Hollow_10_1_" gradientUnits="userSpaceOnUse" x1="116.1792" y1="89.2964" x2="123.9298" y2="89.2964">
			<stop  offset="3.029340e-03" style="stop-color:#7C7C7B"/>
			<stop  offset="0.2065" style="stop-color:#929291"/>
			<stop  offset="0.428" style="stop-color:#A2A2A1"/>
			<stop  offset="0.6756" style="stop-color:#ACACAB"/>
			<stop  offset="1" style="stop-color:#AFAFAE"/>
		</linearGradient>
		
			<path id="Hollow_10" fill="url(#Hollow_10_1_)" stroke="#8C8C91" stroke-width="0.75" stroke-linejoin="round" stroke-miterlimit="10" d="
			M120,93.5c-1.3,0-2.6-0.1-3.9-0.2v-4.4c0-2.1,1.7-3.9,3.9-3.9c2.1,0,3.9,1.7,3.9,3.9v4.4C122.6,93.5,121.4,93.5,120,93.5z"/>
		<linearGradient id="Hollow_9_1_" gradientUnits="userSpaceOnUse" x1="130.9883" y1="87.8398" x2="137.2368" y2="85.7925">
			<stop  offset="3.029340e-03" style="stop-color:#7C7C7B"/>
			<stop  offset="0.2065" style="stop-color:#929291"/>
			<stop  offset="0.428" style="stop-color:#A2A2A1"/>
			<stop  offset="0.6756" style="stop-color:#ACACAB"/>
			<stop  offset="1" style="stop-color:#AFAFAE"/>
		</linearGradient>
		
			<path id="Hollow_9" fill="url(#Hollow_9_1_)" stroke="#8C8C91" stroke-width="0.75" stroke-linejoin="round" stroke-miterlimit="10" d="
			M135.5,90.8c-1.2,0.4-2.5,0.8-3.7,1.2l-1.5-4.2c-0.7-2,0.3-4.2,2.3-5c2-0.7,4.2,0.3,5,2.3l1.5,4.2
			C137.9,89.9,136.7,90.4,135.5,90.8z"/>
		<linearGradient id="Hollow_8_1_" gradientUnits="userSpaceOnUse" x1="149.645" y1="76.9897" x2="143.3789" y2="82.1983">
			<stop  offset="3.029340e-03" style="stop-color:#7C7C7B"/>
			<stop  offset="0.2065" style="stop-color:#929291"/>
			<stop  offset="0.428" style="stop-color:#A2A2A1"/>
			<stop  offset="0.6756" style="stop-color:#ACACAB"/>
			<stop  offset="1" style="stop-color:#AFAFAE"/>
		</linearGradient>
		
			<path id="Hollow_8" fill="url(#Hollow_8_1_)" stroke="#8C8C91" stroke-width="0.75" stroke-linejoin="round" stroke-miterlimit="10" d="
			M149.1,83c-1,0.8-2,1.6-3.1,2.4l-2.8-3.4c-1.4-1.6-1.2-4.1,0.5-5.5c1.6-1.4,4.1-1.2,5.5,0.5l2.9,3.4C151,81.3,150.1,82.1,149.1,83
			z"/>
		<linearGradient id="Hollow_7_1_" gradientUnits="userSpaceOnUse" x1="157.0229" y1="66.1484" x2="153.9166" y2="71.6204">
			<stop  offset="3.029340e-03" style="stop-color:#7C7C7B"/>
			<stop  offset="0.2065" style="stop-color:#929291"/>
			<stop  offset="0.428" style="stop-color:#A2A2A1"/>
			<stop  offset="0.6756" style="stop-color:#ACACAB"/>
			<stop  offset="1" style="stop-color:#AFAFAE"/>
		</linearGradient>
		
			<path id="Hollow_7" fill="url(#Hollow_7_1_)" stroke="#8C8C91" stroke-width="0.75" stroke-linejoin="round" stroke-miterlimit="10" d="
			M159.2,71c-0.7,1.1-1.4,2.2-2.1,3.3l-3.8-2.2c-1.9-1.1-2.5-3.4-1.4-5.3s3.4-2.5,5.3-1.4l3.8,2.2C160.4,68.7,159.8,69.8,159.2,71z"
			/>
		<linearGradient id="Hollow_6_1_" gradientUnits="userSpaceOnUse" x1="160.8696" y1="52.1987" x2="159.8105" y2="59.1182">
			<stop  offset="3.029340e-03" style="stop-color:#7C7C7B"/>
			<stop  offset="0.2065" style="stop-color:#929291"/>
			<stop  offset="0.428" style="stop-color:#A2A2A1"/>
			<stop  offset="0.6756" style="stop-color:#ACACAB"/>
			<stop  offset="1" style="stop-color:#AFAFAE"/>
		</linearGradient>
		
			<path id="Hollow_6" fill="url(#Hollow_6_1_)" stroke="#8C8C91" stroke-width="0.75" stroke-linejoin="round" stroke-miterlimit="10" d="
			M164.5,56.2c-0.2,1.3-0.5,2.5-0.9,3.8l-4.4-0.8c-2.1-0.4-3.5-2.4-3.1-4.5c0.4-2.1,2.4-3.5,4.5-3.1l4.4,0.8
			C164.9,53.6,164.8,54.9,164.5,56.2z"/>
		<linearGradient id="Hollow_5_1_" gradientUnits="userSpaceOnUse" x1="159.7026" y1="37.8672" x2="161.0361" y2="44.6577">
			<stop  offset="3.029340e-03" style="stop-color:#7C7C7B"/>
			<stop  offset="0.2065" style="stop-color:#929291"/>
			<stop  offset="0.428" style="stop-color:#A2A2A1"/>
			<stop  offset="0.6756" style="stop-color:#ACACAB"/>
			<stop  offset="1" style="stop-color:#AFAFAE"/>
		</linearGradient>
		
			<path id="Hollow_5" fill="url(#Hollow_5_1_)" stroke="#8C8C91" stroke-width="0.75" stroke-linejoin="round" stroke-miterlimit="10" d="
			M164.5,40.5c0.2,1.3,0.4,2.6,0.5,3.9l-4.4,0.8c-2.1,0.4-4.1-1-4.5-3.1c-0.4-2.1,1-4.1,3.1-4.5l4.4-0.8
			C164,38,164.3,39.2,164.5,40.5z"/>
		<linearGradient id="Hollow_4_1_" gradientUnits="userSpaceOnUse" x1="153.8867" y1="24.9966" x2="157.1816" y2="30.8989">
			<stop  offset="3.029340e-03" style="stop-color:#7C7C7B"/>
			<stop  offset="0.2065" style="stop-color:#929291"/>
			<stop  offset="0.428" style="stop-color:#A2A2A1"/>
			<stop  offset="0.6756" style="stop-color:#ACACAB"/>
			<stop  offset="1" style="stop-color:#AFAFAE"/>
		</linearGradient>
		
			<path id="Hollow_4" fill="url(#Hollow_4_1_)" stroke="#8C8C91" stroke-width="0.75" stroke-linejoin="round" stroke-miterlimit="10" d="
			M159.2,25.8c0.7,1.1,1.2,2.3,1.8,3.5l-3.8,2.2c-1.9,1.1-4.2,0.4-5.3-1.4c-1.1-1.9-0.4-4.2,1.4-5.3l3.8-2.2
			C157.8,23.5,158.5,24.6,159.2,25.8z"/>
		<linearGradient id="Hollow_3_1_" gradientUnits="userSpaceOnUse" x1="143.7617" y1="14.9268" x2="149.1768" y2="19.2246">
			<stop  offset="3.029340e-03" style="stop-color:#7C7C7B"/>
			<stop  offset="5.591344e-02" style="stop-color:#8A8A89"/>
			<stop  offset="0.1774" style="stop-color:#A3A3A2"/>
			<stop  offset="0.3128" style="stop-color:#B7B7B6"/>
			<stop  offset="0.468" style="stop-color:#C4C4C3"/>
			<stop  offset="0.66" style="stop-color:#CDCDCC"/>
			<stop  offset="1" style="stop-color:#CFCFCE"/>
		</linearGradient>
		
			<path id="Hollow_3" fill="url(#Hollow_3_1_)" stroke="#8C8C91" stroke-width="0.75" stroke-linejoin="round" stroke-miterlimit="10" d="
			M149.1,13.7c1,0.8,1.9,1.7,2.9,2.6l-2.8,3.4c-1.4,1.6-3.8,1.9-5.5,0.5c-1.6-1.4-1.9-3.8-0.5-5.5l2.9-3.4
			C147.1,12.1,148.1,12.9,149.1,13.7z"/>
		<linearGradient id="Hollow_2_1_" gradientUnits="userSpaceOnUse" x1="130.7783" y1="8.499" x2="137.4821" y2="11.3068">
			<stop  offset="3.029340e-03" style="stop-color:#7C7C7B"/>
			<stop  offset="5.591344e-02" style="stop-color:#8A8A89"/>
			<stop  offset="0.1774" style="stop-color:#A3A3A2"/>
			<stop  offset="0.3128" style="stop-color:#B7B7B6"/>
			<stop  offset="0.468" style="stop-color:#C4C4C3"/>
			<stop  offset="0.66" style="stop-color:#CDCDCC"/>
			<stop  offset="1" style="stop-color:#CFCFCE"/>
		</linearGradient>
		
			<path id="Hollow_2" fill="url(#Hollow_2_1_)" stroke="#8C8C91" stroke-width="0.75" stroke-linejoin="round" stroke-miterlimit="10" d="
			M135.5,5.9c1.2,0.4,2.4,1,3.6,1.5l-1.5,4.2c-0.7,2-3,3.1-5,2.3c-2-0.7-3.1-3-2.3-5l1.5-4.2C133,5.1,134.3,5.5,135.5,5.9z"/>
		<linearGradient id="Hollow_1_1_" gradientUnits="userSpaceOnUse" x1="116.1284" y1="7.4219" x2="124.0226" y2="7.4219">
			<stop  offset="3.029340e-03" style="stop-color:#7C7C7B"/>
			<stop  offset="5.591344e-02" style="stop-color:#8A8A89"/>
			<stop  offset="0.1774" style="stop-color:#A3A3A2"/>
			<stop  offset="0.3128" style="stop-color:#B7B7B6"/>
			<stop  offset="0.468" style="stop-color:#C4C4C3"/>
			<stop  offset="0.66" style="stop-color:#CDCDCC"/>
			<stop  offset="1" style="stop-color:#CFCFCE"/>
		</linearGradient>
		
			<path id="Hollow_1" fill="url(#Hollow_1_1_)" stroke="#8C8C91" stroke-width="0.75" stroke-linejoin="round" stroke-miterlimit="10" d="
			M120,3.2c-1.3,0-2.6,0.1-3.9,0.2v4.4c0,2.1,1.7,3.9,3.9,3.9c2.1,0,3.9-1.7,3.9-3.9V3.3C122.6,3.2,121.4,3.2,120,3.2z"/>
	</g>
	
		<path id="Text_Buttons" fill="#DEDEDE" stroke="#DEDEDE" stroke-width="0.75" stroke-linecap="round" stroke-linejoin="round" stroke-miterlimit="10" d="
		M105.4,66.5h-8.4v-1.6h8.4V66.5z M118,64.9h-8.4v1.6h8.4V64.9z M130.6,64.9h-8.4v1.6h8.4V64.9z M143.2,64.9h-8.4v1.6h8.4V64.9z"/>
	<linearGradient id="Buttons_1_" gradientUnits="userSpaceOnUse" x1="120.0435" y1="46.9268" x2="120.0435" y2="74.0902">
		<stop  offset="0" style="stop-color:#FFFFFF"/>
		<stop  offset="1" style="stop-color:#7C7C7B"/>
	</linearGradient>
	
		<path id="Buttons" fill="url(#Buttons_1_)" stroke="#575756" stroke-width="0.75" stroke-linejoin="round" stroke-miterlimit="10" d="
		M98.7,63c-1,0-1.8-0.8-1.8-1.8v-4.9c0-1,0.8-1.8,1.8-1.8h4.9c1,0,1.8,0.8,1.8,1.8v4.9c0,1-0.8,1.8-1.8,1.8H98.7z M116.2,63
		c1,0,1.8-0.8,1.8-1.8v-4.9c0-1-0.8-1.8-1.8-1.8h-4.9c-1,0-1.8,0.8-1.8,1.8v4.9c0,1,0.8,1.8,1.8,1.8H116.2z M128.8,63
		c1,0,1.8-0.8,1.8-1.8v-4.9c0-1-0.8-1.8-1.8-1.8h-4.9c-1,0-1.8,0.8-1.8,1.8v4.9c0,1,0.8,1.8,1.8,1.8H128.8z M141.4,63
		c1,0,1.8-0.8,1.8-1.8v-4.9c0-1-0.8-1.8-1.8-1.8h-4.9c-1,0-1.8,0.8-1.8,1.8v4.9c0,1,0.8,1.8,1.8,1.8H141.4z"/>
	<g id="Display">
		<linearGradient id="Shape_17_" gradientUnits="userSpaceOnUse" x1="77.9209" y1="23.3613" x2="118.5219" y2="40.7811">
			<stop  offset="0" style="stop-color:#FFFFFF"/>
			<stop  offset="1" style="stop-color:#424242"/>
		</linearGradient>
		
			<rect id="Shape" x="96.9" y="30.9" fill="url(#Shape_17_)" stroke="#575756" stroke-width="0.75" stroke-linecap="round" stroke-linejoin="round" stroke-miterlimit="10" width="46.2" height="21"/>
		<polygon id="Refection_Display" fill="#CFCFCE" points="103,51.5 97.3,51.5 97.3,31.3 116.9,31.3 		"/>
	</g>
	<linearGradient id="Cap_Right_1_" gradientUnits="userSpaceOnUse" x1="181.2358" y1="8.144" x2="181.2358" y2="92.4135">
		<stop  offset="0" style="stop-color:#A5A5A5"/>
		<stop  offset="4.758149e-02" style="stop-color:#B5B5B5"/>
		<stop  offset="0.1509" style="stop-color:#D3D3D3"/>
		<stop  offset="0.2395" style="stop-color:#E5E5E5"/>
		<stop  offset="0.3025" style="stop-color:#ECECEC"/>
		<stop  offset="0.4074" style="stop-color:#E8E8E8"/>
		<stop  offset="0.514" style="stop-color:#DCDCDC"/>
		<stop  offset="0.6214" style="stop-color:#C7C7C7"/>
		<stop  offset="0.7294" style="stop-color:#ABABAB"/>
		<stop  offset="0.8378" style="stop-color:#868686"/>
		<stop  offset="0.9452" style="stop-color:#5A5A5A"/>
		<stop  offset="1" style="stop-color:#404040"/>
	</linearGradient>
	
		<polygon id="Cap_Right" fill="url(#Cap_Right_1_)" stroke="#8C8C91" stroke-width="0.75" stroke-linejoin="round" stroke-miterlimit="10" points="
		188.9,86.8 186.5,88.8 173.6,88.8 173.6,7.6 186.5,7.6 188.9,11.6 	"/>
	
		<line id="Reflection_Line_Cap_Right" fill="none" stroke="#FFFFFF" stroke-width="0.75" stroke-linejoin="round" stroke-miterlimit="10" x1="174.4" y1="8" x2="174.4" y2="88.4"/>
	<g id="Struts_Cap_Right">
		<rect id="Strut_17" x="178.1" y="85.5" fill="#575756" width="9.3" height="1.2"/>
		<rect id="Strut_16" x="178.1" y="82.4" fill="#575756" width="9.3" height="1.2"/>
		<rect id="Strut_15" x="178.1" y="79" fill="#575756" width="9.3" height="1.2"/>
		<rect id="Strut_14" x="178.1" y="75.2" fill="#646567" width="9.3" height="1.2"/>
		<rect id="Strut_13" x="178.1" y="70.2" fill="#77787A" width="9.3" height="1.2"/>
		<rect id="Strut_12" x="178.1" y="65.1" fill="#77787A" width="9.3" height="1.2"/>
		<rect id="Strut_11" x="178.1" y="59.4" fill="#8C8C91" width="9.3" height="1.2"/>
		<rect id="Strut_10" x="178.1" y="53.8" fill="#8C8C91" width="9.3" height="1.2"/>
		<rect id="Strut_9" x="178.1" y="47.6" fill="#8C8C91" width="9.3" height="1.2"/>
		<rect id="Strut_8" x="178.1" y="41.4" fill="#8C8C91" width="9.3" height="1.2"/>
		<rect id="Strut_7" x="178.1" y="35.9" fill="#8C8C91" width="9.3" height="1.2"/>
		<rect id="Strut_6" x="178.1" y="30.1" fill="#8C8C91" width="9.3" height="1.2"/>
		<rect id="Strut_5" x="178.1" y="25.1" fill="#8C8C91" width="9.3" height="1.2"/>
		<rect id="Strut_4" x="178.1" y="20.1" fill="#8C8C91" width="9.3" height="1.2"/>
		<rect id="Strut_3" x="178.1" y="16.2" fill="#8C8C91" width="9.3" height="1.2"/>
		<rect id="Strut_2" x="178.1" y="12.9" fill="#8C8C91" width="9.3" height="1.2"/>
		<rect id="Strut_1" x="178.1" y="9.7" fill="#8C8C91" width="9.3" height="1.2"/>
	</g>
	<linearGradient id="Edge_Cap_Right_1_" gradientUnits="userSpaceOnUse" x1="187.7202" y1="-199.645" x2="187.7202" y2="107.9155">
		<stop  offset="0" style="stop-color:#A5A5A5"/>
		<stop  offset="4.758149e-02" style="stop-color:#B5B5B5"/>
		<stop  offset="0.1509" style="stop-color:#D3D3D3"/>
		<stop  offset="0.2395" style="stop-color:#E5E5E5"/>
		<stop  offset="0.3025" style="stop-color:#ECECEC"/>
		<stop  offset="0.4074" style="stop-color:#E8E8E8"/>
		<stop  offset="0.514" style="stop-color:#DCDCDC"/>
		<stop  offset="0.6214" style="stop-color:#C7C7C7"/>
		<stop  offset="0.7294" style="stop-color:#ABABAB"/>
		<stop  offset="0.8378" style="stop-color:#868686"/>
		<stop  offset="0.9452" style="stop-color:#5A5A5A"/>
		<stop  offset="1" style="stop-color:#404040"/>
	</linearGradient>
	
		<polyline id="Edge_Cap_Right" fill="url(#Edge_Cap_Right_1_)" stroke="#8C8C91" stroke-width="0.75" stroke-linejoin="round" stroke-miterlimit="10" points="
		186.5,7.6 188.9,11.6 188.9,86.8 186.5,88.8 	"/>
</g>
</svg>
