<?xml version="1.0" encoding="utf-8"?>

<!-- Copyright 2016 Siemens AG -->

<!-- Generator: Adobe Illustrator 16.0.4, SVG Export Plug-In . SVG Version: 6.00 Build 0)  -->
<!DOCTYPE svg PUBLIC "-//W3C//DTD SVG 1.1//EN" "http://www.w3.org/Graphics/SVG/1.1/DTD/svg11.dtd">
<svg version="1.1" id="Airplane_Up" xmlns="http://www.w3.org/2000/svg" xmlns:xlink="http://www.w3.org/1999/xlink" x="0px"
	 y="0px" width="286px" height="300px" viewBox="0 0 286 300" enable-background="new 0 0 286 300" xml:space="preserve">
<g id="Horizontal_Stabiliser">
	
		<linearGradient id="Shape_Wing_Left_1_" gradientUnits="userSpaceOnUse" x1="0.2241" y1="112.0781" x2="62.8429" y2="112.0781" gradientTransform="matrix(0 -1 1 0 7.2485 293.1504)">
		<stop  offset="0" style="stop-color:#FFFFFF"/>
		<stop  offset="1" style="stop-color:#7C7C7B"/>
	</linearGradient>
	
		<path id="Shape_Wing_Left" fill="url(#Shape_Wing_Left_1_)" stroke="#8C8C91" stroke-width="0.75" stroke-linecap="round" stroke-linejoin="round" stroke-miterlimit="10" d="
		M98.5,290.7l0.6-8.8c0,0,0-1.3,1.4-2.2s36.6-22.1,36.6-22.1l3.2,20.8L98.5,290.7z"/>
	
		<linearGradient id="Shape_Wing_Right_1_" gradientUnits="userSpaceOnUse" x1="-6.4619" y1="155.4902" x2="50.5951" y2="168.4013" gradientTransform="matrix(0 -1 1 0 7.2485 293.1504)">
		<stop  offset="0" style="stop-color:#FFFFFF"/>
		<stop  offset="1" style="stop-color:#7C7C7B"/>
	</linearGradient>
	
		<path id="Shape_Wing_Right" fill="url(#Shape_Wing_Right_1_)" stroke="#8C8C91" stroke-width="0.75" stroke-linecap="round" stroke-linejoin="round" stroke-miterlimit="10" d="
		M187.8,290.7l-0.6-8.8c0,0,0-1.3-1.4-2.2s-36.6-22.1-36.6-22.1l-3.2,20.8L187.8,290.7z"/>
	
		<path id="Shadow_Vertical_Stabiliser" fill="#8C8C91" stroke="#8C8C91" stroke-width="0.75" stroke-linecap="round" stroke-linejoin="round" stroke-miterlimit="10" d="
		M172.1,286l-26.1-7.7l3.2-20.8c0,0,11.2,6.7,21.2,12.8c0,0,2,1.6,2.5,2.9s0.3,3.4,0.1,5.1C172.8,280,172.1,286,172.1,286z"/>
	
		<path id="Elevators" fill="none" stroke="#646567" stroke-width="0.75" stroke-linecap="round" stroke-linejoin="round" stroke-miterlimit="10" d="
		M101.6,289.7v-4.1l32.6-11.9l1.4,6 M114.8,280.8l1,4.7 M184.7,289.7v-4.1l-32.6-11.9l-1.4,6 M171.4,280.8l-1,4.7"/>
</g>
<g id="Engines">
	<g id="Engine-4">
		
			<linearGradient id="Shape_Air_Outlet_4_" gradientUnits="userSpaceOnUse" x1="136.7295" y1="216.3091" x2="136.7295" y2="219.1375" gradientTransform="matrix(0 -1 1 0 7.2485 293.1504)">
			<stop  offset="0" style="stop-color:#575756"/>
			<stop  offset="0.124" style="stop-color:#535252"/>
			<stop  offset="0.5651" style="stop-color:#464646"/>
			<stop  offset="1" style="stop-color:#424242"/>
		</linearGradient>
		
			<path id="Shape_Air_Outlet_3_" fill="url(#Shape_Air_Outlet_4_)" stroke="#424242" stroke-width="0.75" stroke-linecap="round" stroke-linejoin="round" stroke-miterlimit="10" d="
			M230.2,152.5h2.4c0,0,0.2,2.6-1.7,7.9h-5.7c-1.9-5.3-1.7-7.9-1.7-7.9h2.4"/>
		
			<linearGradient id="Shape_Tubine_4_" gradientUnits="userSpaceOnUse" x1="152.043" y1="214.8564" x2="152.043" y2="226.8605" gradientTransform="matrix(0 -1 1 0 7.2485 293.1504)">
			<stop  offset="0" style="stop-color:#A5A5A5"/>
			<stop  offset="4.758149e-02" style="stop-color:#B5B5B5"/>
			<stop  offset="0.1509" style="stop-color:#D3D3D3"/>
			<stop  offset="0.2395" style="stop-color:#E5E5E5"/>
			<stop  offset="0.3025" style="stop-color:#ECECEC"/>
			<stop  offset="0.4074" style="stop-color:#E8E8E8"/>
			<stop  offset="0.514" style="stop-color:#DCDCDC"/>
			<stop  offset="0.6214" style="stop-color:#C7C7C7"/>
			<stop  offset="0.7294" style="stop-color:#ABABAB"/>
			<stop  offset="0.8378" style="stop-color:#868686"/>
			<stop  offset="0.9452" style="stop-color:#5A5A5A"/>
			<stop  offset="1" style="stop-color:#404040"/>
		</linearGradient>
		
			<path id="Shape_Tubine_3_" fill="url(#Shape_Tubine_4_)" stroke="#8C8C91" stroke-width="0.75" stroke-linecap="round" stroke-linejoin="round" stroke-miterlimit="10" d="
			M222.2,152.5c-1.1-8.9-0.8-18.3-0.8-20.5s1.5-2.2,1.5-2.2h10.3c0,0,1.4,0,1.5,2.2s0.4,11.6-0.8,20.5H222.2z"/>
		
			<linearGradient id="Wing_Connection_Top_4_" gradientUnits="userSpaceOnUse" x1="146.7324" y1="216.3408" x2="136.9818" y2="229.8417" gradientTransform="matrix(0 -1 1 0 7.2485 293.1504)">
			<stop  offset="0" style="stop-color:#FFFFFF"/>
			<stop  offset="1" style="stop-color:#7C7C7B"/>
		</linearGradient>
		
			<path id="Wing_Connection_Top_3_" fill="url(#Wing_Connection_Top_4_)" stroke="#8C8C91" stroke-width="0.75" stroke-linecap="round" stroke-linejoin="round" stroke-miterlimit="10" d="
			M229.7,143.5v13.5h-3.2v-13.6c0-0.9,0.7-1.6,1.6-1.6c0.9,0,1.6,0.7,1.6,1.6"/>
		
			<linearGradient id="Wing_Connection_Front_4_" gradientUnits="userSpaceOnUse" x1="154.478" y1="220.2939" x2="154.478" y2="222.3602" gradientTransform="matrix(0 -1 1 0 7.2485 293.1504)">
			<stop  offset="0" style="stop-color:#FFFFFF"/>
			<stop  offset="1" style="stop-color:#7C7C7B"/>
		</linearGradient>
		
			<path id="Wing_Connection_Front_3_" fill="url(#Wing_Connection_Front_4_)" stroke="#8C8C91" stroke-width="0.75" stroke-linecap="round" stroke-linejoin="round" stroke-miterlimit="10" d="
			M226.5,135.7v7.6c0-0.9,0.7-1.6,1.6-1.6c0.9,0,1.6,0.7,1.6,1.6v-7.4v-0.2c0-0.9-0.7-1.6-1.6-1.6
			C227.2,134.1,226.5,134.8,226.5,135.7z"/>
		
			<linearGradient id="Shadow_Wing_Connection_4_" gradientUnits="userSpaceOnUse" x1="149.0933" y1="202.6509" x2="149.0933" y2="226.1784" gradientTransform="matrix(0 -1 1 0 7.2485 293.1504)">
			<stop  offset="0" style="stop-color:#A5A5A5"/>
			<stop  offset="4.758149e-02" style="stop-color:#B5B5B5"/>
			<stop  offset="0.1509" style="stop-color:#D3D3D3"/>
			<stop  offset="0.2395" style="stop-color:#E5E5E5"/>
			<stop  offset="0.3025" style="stop-color:#ECECEC"/>
			<stop  offset="0.4074" style="stop-color:#E8E8E8"/>
			<stop  offset="0.514" style="stop-color:#DCDCDC"/>
			<stop  offset="0.6214" style="stop-color:#C7C7C7"/>
			<stop  offset="0.7294" style="stop-color:#ABABAB"/>
			<stop  offset="0.8378" style="stop-color:#868686"/>
			<stop  offset="0.9452" style="stop-color:#5A5A5A"/>
			<stop  offset="1" style="stop-color:#404040"/>
		</linearGradient>
		
			<path id="Shadow_Wing_Connection_3_" fill="url(#Shadow_Wing_Connection_4_)" stroke="#8C8C91" stroke-width="0.75" stroke-linecap="round" stroke-linejoin="round" stroke-miterlimit="10" d="
			M234.7,143.5c-0.1,2.8-0.3,5.9-0.7,9h-4.3v-16.8"/>
		<rect id="Reflection_4_" x="224" y="130.7" fill="#FFFFFF" width="1.6" height="20.9"/>
		
			<line id="Devider_Line_3_" fill="none" stroke="#646567" stroke-width="0.75" stroke-linecap="round" stroke-linejoin="round" stroke-miterlimit="10" x1="222.5" y1="132" x2="233.8" y2="132"/>
	</g>
	<g id="Engine-3">
		
			<linearGradient id="Shape_Air_Outlet_5_" gradientUnits="userSpaceOnUse" x1="165.1621" y1="171.3359" x2="165.1621" y2="174.1641" gradientTransform="matrix(0 -1 1 0 7.2485 293.1504)">
			<stop  offset="0" style="stop-color:#575756"/>
			<stop  offset="0.124" style="stop-color:#535252"/>
			<stop  offset="0.5651" style="stop-color:#464646"/>
			<stop  offset="1" style="stop-color:#424242"/>
		</linearGradient>
		
			<path id="Shape_Air_Outlet_2_" fill="url(#Shape_Air_Outlet_5_)" stroke="#424242" stroke-width="0.75" stroke-linecap="round" stroke-linejoin="round" stroke-miterlimit="10" d="
			M185.3,124h2.4c0,0,0.2,2.6-1.7,7.9h-5.7c-1.9-5.3-1.7-7.9-1.7-7.9h2.4"/>
		
			<linearGradient id="Shape_Tubine_5_" gradientUnits="userSpaceOnUse" x1="180.4756" y1="169.8828" x2="180.4756" y2="181.8869" gradientTransform="matrix(0 -1 1 0 7.2485 293.1504)">
			<stop  offset="0" style="stop-color:#A5A5A5"/>
			<stop  offset="4.758149e-02" style="stop-color:#B5B5B5"/>
			<stop  offset="0.1509" style="stop-color:#D3D3D3"/>
			<stop  offset="0.2395" style="stop-color:#E5E5E5"/>
			<stop  offset="0.3025" style="stop-color:#ECECEC"/>
			<stop  offset="0.4074" style="stop-color:#E8E8E8"/>
			<stop  offset="0.514" style="stop-color:#DCDCDC"/>
			<stop  offset="0.6214" style="stop-color:#C7C7C7"/>
			<stop  offset="0.7294" style="stop-color:#ABABAB"/>
			<stop  offset="0.8378" style="stop-color:#868686"/>
			<stop  offset="0.9452" style="stop-color:#5A5A5A"/>
			<stop  offset="1" style="stop-color:#404040"/>
		</linearGradient>
		
			<path id="Shape_Tubine_2_" fill="url(#Shape_Tubine_5_)" stroke="#8C8C91" stroke-width="0.75" stroke-linecap="round" stroke-linejoin="round" stroke-miterlimit="10" d="
			M177.3,124c-1.1-8.9-0.8-18.3-0.8-20.5s1.5-2.2,1.5-2.2h10.3c0,0,1.4,0,1.5,2.2s0.4,11.6-0.8,20.5H177.3z"/>
		
			<linearGradient id="Wing_Connection_Top_5_" gradientUnits="userSpaceOnUse" x1="175.165" y1="171.3672" x2="165.4155" y2="184.8666" gradientTransform="matrix(0 -1 1 0 7.2485 293.1504)">
			<stop  offset="0" style="stop-color:#FFFFFF"/>
			<stop  offset="1" style="stop-color:#7C7C7B"/>
		</linearGradient>
		
			<path id="Wing_Connection_Top_2_" fill="url(#Wing_Connection_Top_5_)" stroke="#8C8C91" stroke-width="0.75" stroke-linecap="round" stroke-linejoin="round" stroke-miterlimit="10" d="
			M184.7,115v13.5h-3.2v-13.6c0-0.9,0.7-1.6,1.6-1.6s1.6,0.7,1.6,1.6"/>
		
			<linearGradient id="Wing_Connection_Front_5_" gradientUnits="userSpaceOnUse" x1="182.9106" y1="175.3203" x2="182.9106" y2="177.3866" gradientTransform="matrix(0 -1 1 0 7.2485 293.1504)">
			<stop  offset="0" style="stop-color:#FFFFFF"/>
			<stop  offset="1" style="stop-color:#7C7C7B"/>
		</linearGradient>
		
			<path id="Wing_Connection_Front_2_" fill="url(#Wing_Connection_Front_5_)" stroke="#8C8C91" stroke-width="0.75" stroke-linecap="round" stroke-linejoin="round" stroke-miterlimit="10" d="
			M181.5,107.2v7.6c0-0.9,0.7-1.6,1.6-1.6s1.6,0.7,1.6,1.6v-7.4v-0.2c0-0.9-0.7-1.6-1.6-1.6S181.5,106.3,181.5,107.2z"/>
		
			<linearGradient id="Shadow_Wing_Connection_5_" gradientUnits="userSpaceOnUse" x1="177.5259" y1="157.6733" x2="177.5259" y2="181.2055" gradientTransform="matrix(0 -1 1 0 7.2485 293.1504)">
			<stop  offset="0" style="stop-color:#A5A5A5"/>
			<stop  offset="4.758149e-02" style="stop-color:#B5B5B5"/>
			<stop  offset="0.1509" style="stop-color:#D3D3D3"/>
			<stop  offset="0.2395" style="stop-color:#E5E5E5"/>
			<stop  offset="0.3025" style="stop-color:#ECECEC"/>
			<stop  offset="0.4074" style="stop-color:#E8E8E8"/>
			<stop  offset="0.514" style="stop-color:#DCDCDC"/>
			<stop  offset="0.6214" style="stop-color:#C7C7C7"/>
			<stop  offset="0.7294" style="stop-color:#ABABAB"/>
			<stop  offset="0.8378" style="stop-color:#868686"/>
			<stop  offset="0.9452" style="stop-color:#5A5A5A"/>
			<stop  offset="1" style="stop-color:#404040"/>
		</linearGradient>
		
			<path id="Shadow_Wing_Connection_2_" fill="url(#Shadow_Wing_Connection_5_)" stroke="#8C8C91" stroke-width="0.75" stroke-linecap="round" stroke-linejoin="round" stroke-miterlimit="10" d="
			M189.7,115c-0.1,2.8-0.3,5.9-0.7,9h-4.3l0-16.8"/>
		<rect id="Reflection_3_" x="179.1" y="102.2" fill="#FFFFFF" width="1.6" height="20.9"/>
		
			<line id="Devider_Line_2_" fill="none" stroke="#646567" stroke-width="0.75" stroke-linecap="round" stroke-linejoin="round" stroke-miterlimit="10" x1="177.5" y1="103.5" x2="188.8" y2="103.5"/>
	</g>
	<g id="Engine-2">
		
			<linearGradient id="Shape_Air_Outlet_6_" gradientUnits="userSpaceOnUse" x1="165.1621" y1="91.5034" x2="165.1621" y2="94.3315" gradientTransform="matrix(0 -1 1 0 7.2485 293.1504)">
			<stop  offset="0" style="stop-color:#575756"/>
			<stop  offset="0.124" style="stop-color:#535252"/>
			<stop  offset="0.5651" style="stop-color:#464646"/>
			<stop  offset="1" style="stop-color:#424242"/>
		</linearGradient>
		
			<path id="Shape_Air_Outlet_1_" fill="url(#Shape_Air_Outlet_6_)" stroke="#424242" stroke-width="0.75" stroke-linecap="round" stroke-linejoin="round" stroke-miterlimit="10" d="
			M105.4,124h2.4c0,0,0.2,2.6-1.7,7.9h-5.7c-1.9-5.3-1.7-7.9-1.7-7.9h2.4"/>
		
			<linearGradient id="Shape_Tubine_6_" gradientUnits="userSpaceOnUse" x1="180.4756" y1="90.0503" x2="180.4756" y2="102.0539" gradientTransform="matrix(0 -1 1 0 7.2485 293.1504)">
			<stop  offset="0" style="stop-color:#A5A5A5"/>
			<stop  offset="4.758149e-02" style="stop-color:#B5B5B5"/>
			<stop  offset="0.1509" style="stop-color:#D3D3D3"/>
			<stop  offset="0.2395" style="stop-color:#E5E5E5"/>
			<stop  offset="0.3025" style="stop-color:#ECECEC"/>
			<stop  offset="0.4074" style="stop-color:#E8E8E8"/>
			<stop  offset="0.514" style="stop-color:#DCDCDC"/>
			<stop  offset="0.6214" style="stop-color:#C7C7C7"/>
			<stop  offset="0.7294" style="stop-color:#ABABAB"/>
			<stop  offset="0.8378" style="stop-color:#868686"/>
			<stop  offset="0.9452" style="stop-color:#5A5A5A"/>
			<stop  offset="1" style="stop-color:#404040"/>
		</linearGradient>
		
			<path id="Shape_Tubine_1_" fill="url(#Shape_Tubine_6_)" stroke="#8C8C91" stroke-width="0.75" stroke-linecap="round" stroke-linejoin="round" stroke-miterlimit="10" d="
			M97.4,124c-1.1-8.9-0.8-18.3-0.8-20.5s1.5-2.2,1.5-2.2h10.3c0,0,1.4,0,1.5,2.2s0.4,11.6-0.8,20.5H97.4z"/>
		
			<linearGradient id="Wing_Connection_Top_6_" gradientUnits="userSpaceOnUse" x1="175.166" y1="91.5347" x2="165.4162" y2="105.0344" gradientTransform="matrix(0 -1 1 0 7.2485 293.1504)">
			<stop  offset="0" style="stop-color:#FFFFFF"/>
			<stop  offset="1" style="stop-color:#7C7C7B"/>
		</linearGradient>
		
			<path id="Wing_Connection_Top_1_" fill="url(#Wing_Connection_Top_6_)" stroke="#8C8C91" stroke-width="0.75" stroke-linecap="round" stroke-linejoin="round" stroke-miterlimit="10" d="
			M104.9,115v13.5h-3.2v-13.6c0-0.9,0.7-1.6,1.6-1.6s1.6,0.7,1.6,1.6"/>
		
			<linearGradient id="Wing_Connection_Front_6_" gradientUnits="userSpaceOnUse" x1="182.9106" y1="95.4873" x2="182.9106" y2="97.5536" gradientTransform="matrix(0 -1 1 0 7.2485 293.1504)">
			<stop  offset="0" style="stop-color:#FFFFFF"/>
			<stop  offset="1" style="stop-color:#7C7C7B"/>
		</linearGradient>
		
			<path id="Wing_Connection_Front_1_" fill="url(#Wing_Connection_Front_6_)" stroke="#8C8C91" stroke-width="0.75" stroke-linecap="round" stroke-linejoin="round" stroke-miterlimit="10" d="
			M101.7,107.2v7.6c0-0.9,0.7-1.6,1.6-1.6s1.6,0.7,1.6,1.6v-7.4v-0.2c0-0.9-0.7-1.6-1.6-1.6S101.7,106.3,101.7,107.2z"/>
		
			<linearGradient id="Shadow_Wing_Connection_6_" gradientUnits="userSpaceOnUse" x1="177.5259" y1="77.8403" x2="177.5259" y2="101.3725" gradientTransform="matrix(0 -1 1 0 7.2485 293.1504)">
			<stop  offset="0" style="stop-color:#A5A5A5"/>
			<stop  offset="4.758149e-02" style="stop-color:#B5B5B5"/>
			<stop  offset="0.1509" style="stop-color:#D3D3D3"/>
			<stop  offset="0.2395" style="stop-color:#E5E5E5"/>
			<stop  offset="0.3025" style="stop-color:#ECECEC"/>
			<stop  offset="0.4074" style="stop-color:#E8E8E8"/>
			<stop  offset="0.514" style="stop-color:#DCDCDC"/>
			<stop  offset="0.6214" style="stop-color:#C7C7C7"/>
			<stop  offset="0.7294" style="stop-color:#ABABAB"/>
			<stop  offset="0.8378" style="stop-color:#868686"/>
			<stop  offset="0.9452" style="stop-color:#5A5A5A"/>
			<stop  offset="1" style="stop-color:#404040"/>
		</linearGradient>
		
			<path id="Shadow_Wing_Connection_1_" fill="url(#Shadow_Wing_Connection_6_)" stroke="#8C8C91" stroke-width="0.75" stroke-linecap="round" stroke-linejoin="round" stroke-miterlimit="10" d="
			M109.9,115c-0.1,2.8-0.3,5.9-0.7,9h-4.3l0-16.8"/>
		<rect id="Reflection_2_" x="99.2" y="102.2" fill="#FFFFFF" width="1.6" height="20.9"/>
		
			<line id="Devider_Line_1_" fill="none" stroke="#646567" stroke-width="0.75" stroke-linecap="round" stroke-linejoin="round" stroke-miterlimit="10" x1="97.7" y1="103.5" x2="109" y2="103.5"/>
	</g>
	<g id="Engine-1">
		
			<linearGradient id="Shape_Air_Outlet_7_" gradientUnits="userSpaceOnUse" x1="136.7295" y1="46.1699" x2="136.7295" y2="48.998" gradientTransform="matrix(0 -1 1 0 7.2485 293.1504)">
			<stop  offset="0" style="stop-color:#575756"/>
			<stop  offset="0.124" style="stop-color:#535252"/>
			<stop  offset="0.5651" style="stop-color:#464646"/>
			<stop  offset="1" style="stop-color:#424242"/>
		</linearGradient>
		
			<path id="Shape_Air_Outlet" fill="url(#Shape_Air_Outlet_7_)" stroke="#424242" stroke-width="0.75" stroke-linecap="round" stroke-linejoin="round" stroke-miterlimit="10" d="
			M60.1,152.5h2.4c0,0,0.2,2.6-1.7,7.9h-5.7c-1.9-5.3-1.7-7.9-1.7-7.9h2.4"/>
		
			<linearGradient id="Shape_Tubine_7_" gradientUnits="userSpaceOnUse" x1="152.043" y1="44.7168" x2="152.043" y2="56.7204" gradientTransform="matrix(0 -1 1 0 7.2485 293.1504)">
			<stop  offset="0" style="stop-color:#A5A5A5"/>
			<stop  offset="4.758149e-02" style="stop-color:#B5B5B5"/>
			<stop  offset="0.1509" style="stop-color:#D3D3D3"/>
			<stop  offset="0.2395" style="stop-color:#E5E5E5"/>
			<stop  offset="0.3025" style="stop-color:#ECECEC"/>
			<stop  offset="0.4074" style="stop-color:#E8E8E8"/>
			<stop  offset="0.514" style="stop-color:#DCDCDC"/>
			<stop  offset="0.6214" style="stop-color:#C7C7C7"/>
			<stop  offset="0.7294" style="stop-color:#ABABAB"/>
			<stop  offset="0.8378" style="stop-color:#868686"/>
			<stop  offset="0.9452" style="stop-color:#5A5A5A"/>
			<stop  offset="1" style="stop-color:#404040"/>
		</linearGradient>
		
			<path id="Shape_Tubine" fill="url(#Shape_Tubine_7_)" stroke="#8C8C91" stroke-width="0.75" stroke-linecap="round" stroke-linejoin="round" stroke-miterlimit="10" d="
			M52.1,152.5c-1.1-8.9-0.8-18.3-0.8-20.5s1.5-2.2,1.5-2.2h10.3c0,0,1.4,0,1.5,2.2s0.4,11.6-0.8,20.5H52.1z"/>
		
			<linearGradient id="Wing_Connection_Top_7_" gradientUnits="userSpaceOnUse" x1="146.7334" y1="46.2017" x2="136.9836" y2="59.7014" gradientTransform="matrix(0 -1 1 0 7.2485 293.1504)">
			<stop  offset="0" style="stop-color:#FFFFFF"/>
			<stop  offset="1" style="stop-color:#7C7C7B"/>
		</linearGradient>
		
			<path id="Wing_Connection_Top" fill="url(#Wing_Connection_Top_7_)" stroke="#8C8C91" stroke-width="0.75" stroke-linecap="round" stroke-linejoin="round" stroke-miterlimit="10" d="
			M59.6,143.5v13.5h-3.2v-13.6c0-0.9,0.7-1.6,1.6-1.6s1.6,0.7,1.6,1.6"/>
		
			<linearGradient id="Wing_Connection_Front_7_" gradientUnits="userSpaceOnUse" x1="154.478" y1="50.1538" x2="154.478" y2="52.2201" gradientTransform="matrix(0 -1 1 0 7.2485 293.1504)">
			<stop  offset="0" style="stop-color:#FFFFFF"/>
			<stop  offset="1" style="stop-color:#7C7C7B"/>
		</linearGradient>
		
			<path id="Wing_Connection_Front" fill="url(#Wing_Connection_Front_7_)" stroke="#8C8C91" stroke-width="0.75" stroke-linecap="round" stroke-linejoin="round" stroke-miterlimit="10" d="
			M56.4,135.7v7.6c0-0.9,0.7-1.6,1.6-1.6s1.6,0.7,1.6,1.6v-7.4v-0.2c0-0.9-0.7-1.6-1.6-1.6S56.4,134.8,56.4,135.7z"/>
		
			<linearGradient id="Shadow_Wing_Connection_7_" gradientUnits="userSpaceOnUse" x1="149.0933" y1="32.5068" x2="149.0933" y2="56.039" gradientTransform="matrix(0 -1 1 0 7.2485 293.1504)">
			<stop  offset="0" style="stop-color:#A5A5A5"/>
			<stop  offset="4.758149e-02" style="stop-color:#B5B5B5"/>
			<stop  offset="0.1509" style="stop-color:#D3D3D3"/>
			<stop  offset="0.2395" style="stop-color:#E5E5E5"/>
			<stop  offset="0.3025" style="stop-color:#ECECEC"/>
			<stop  offset="0.4074" style="stop-color:#E8E8E8"/>
			<stop  offset="0.514" style="stop-color:#DCDCDC"/>
			<stop  offset="0.6214" style="stop-color:#C7C7C7"/>
			<stop  offset="0.7294" style="stop-color:#ABABAB"/>
			<stop  offset="0.8378" style="stop-color:#868686"/>
			<stop  offset="0.9452" style="stop-color:#5A5A5A"/>
			<stop  offset="1" style="stop-color:#404040"/>
		</linearGradient>
		
			<path id="Shadow_Wing_Connection" fill="url(#Shadow_Wing_Connection_7_)" stroke="#8C8C91" stroke-width="0.75" stroke-linecap="round" stroke-linejoin="round" stroke-miterlimit="10" d="
			M64.6,143.5c-0.1,2.8-0.3,5.9-0.7,9h-4.3l0-16.8"/>
		<rect id="Reflection_1_" x="53.9" y="130.7" fill="#FFFFFF" width="1.6" height="20.9"/>
		
			<line id="Devider_Line" fill="none" stroke="#646567" stroke-width="0.75" stroke-linecap="round" stroke-linejoin="round" stroke-miterlimit="10" x1="52.3" y1="132" x2="63.7" y2="132"/>
	</g>
</g>
<g id="Wing_Left">
	
		<linearGradient id="Flap_Track_Fairing-3_2_" gradientUnits="userSpaceOnUse" x1="124.8726" y1="87.8203" x2="124.8726" y2="89.6733" gradientTransform="matrix(0 -1 1 0 7.2485 293.1504)">
		<stop  offset="0" style="stop-color:#FFFFFF"/>
		<stop  offset="1" style="stop-color:#7C7C7B"/>
	</linearGradient>
	
		<path id="Flap_Track_Fairing-3_1_" fill="url(#Flap_Track_Fairing-3_2_)" stroke="#8C8C91" stroke-width="0.75" stroke-linecap="round" stroke-linejoin="round" stroke-miterlimit="10" d="
		M97.2,164.1c0,0-0.2,6.3-0.6,8c0,0-0.1,0.5-0.6,0.5h-0.1c-0.5,0-0.6-0.5-0.6-0.5c-0.4-1.7-0.6-8-0.6-8H97.2z"/>
	
		<linearGradient id="Flap_Track_Fairing-2_2_" gradientUnits="userSpaceOnUse" x1="118.4805" y1="68.2607" x2="118.4805" y2="70.2088" gradientTransform="matrix(0 -1 1 0 7.2485 293.1504)">
		<stop  offset="0" style="stop-color:#FFFFFF"/>
		<stop  offset="1" style="stop-color:#7C7C7B"/>
	</linearGradient>
	
		<path id="Flap_Track_Fairing-2_1_" fill="url(#Flap_Track_Fairing-2_2_)" stroke="#8C8C91" stroke-width="0.75" stroke-linecap="round" stroke-linejoin="round" stroke-miterlimit="10" d="
		M77.7,170.5c0,0-0.2,6.3-0.6,8c0,0-0.1,0.5-0.6,0.5h-0.1c-0.5,0-0.6-0.5-0.6-0.5c-0.4-1.7-0.6-8-0.6-8H77.7z"/>
	
		<linearGradient id="Flap_Track_Fairing-1_2_" gradientUnits="userSpaceOnUse" x1="111.9155" y1="50.207" x2="111.9155" y2="52.5281" gradientTransform="matrix(0 -1 1 0 7.2485 293.1504)">
		<stop  offset="0" style="stop-color:#FFFFFF"/>
		<stop  offset="1" style="stop-color:#7C7C7B"/>
	</linearGradient>
	
		<path id="Flap_Track_Fairing-1_1_" fill="url(#Flap_Track_Fairing-1_2_)" stroke="#8C8C91" stroke-width="0.75" stroke-linecap="round" stroke-linejoin="round" stroke-miterlimit="10" d="
		M59.7,177c0,0-0.2,6.3-0.6,8c0,0-0.1,0.5-0.6,0.5h-0.1c-0.5,0-0.6-0.5-0.6-0.5c-0.4-1.7-0.6-8-0.6-8H59.7z"/>
	
		<linearGradient id="Winglet_2_" gradientUnits="userSpaceOnUse" x1="97.8184" y1="-6.6719" x2="97.2529" y2="-0.4106" gradientTransform="matrix(0 -1 1 0 7.2485 293.1504)">
		<stop  offset="0" style="stop-color:#FFFFFF"/>
		<stop  offset="1" style="stop-color:#7C7C7B"/>
	</linearGradient>
	
		<polygon id="Winglet_1_" fill="url(#Winglet_2_)" stroke="#8C8C91" stroke-width="0.75" stroke-linecap="round" stroke-linejoin="round" stroke-miterlimit="10" points="
		4.6,186.2 2,204.9 5.1,199.6 	"/>
	
		<linearGradient id="Shape_Wing_2_" gradientUnits="userSpaceOnUse" x1="119.7407" y1="72.6797" x2="145.0077" y2="58.4446" gradientTransform="matrix(0 -1 1 0 7.2485 293.1504)">
		<stop  offset="0" style="stop-color:#DEDEDE"/>
		<stop  offset="0.4845" style="stop-color:#DCDCDC"/>
		<stop  offset="0.6591" style="stop-color:#D5D5D5"/>
		<stop  offset="0.7835" style="stop-color:#CACACA"/>
		<stop  offset="0.884" style="stop-color:#B9B9B9"/>
		<stop  offset="0.9692" style="stop-color:#A4A4A3"/>
		<stop  offset="1" style="stop-color:#9A9A99"/>
	</linearGradient>
	
		<path id="Shape_Wing_1_" fill="url(#Shape_Wing_2_)" stroke="#8C8C91" stroke-width="0.75" stroke-linecap="round" stroke-linejoin="round" stroke-miterlimit="10" d="
		M127.5,159.5c0-0.4,0-0.9,0-1.3c0.3-6.6,0.4-8.3,2.9-54.1c0,4.2-5.6,7.6-5.6,7.6L4.6,186.2l0.5,13.3l99.8-37.7L127.5,159.5
		L127.5,159.5z"/>
	
		<polyline id="Shadow_Winglet" fill="#8C8C91" stroke="#8C8C91" stroke-width="0.75" stroke-linecap="round" stroke-linejoin="round" stroke-miterlimit="10" points="
		11.4,197.2 5.1,199.6 4.6,186.2 	"/>
	
		<path id="Trailing_Edge_Flaps__x2B__Spoilers_1_" fill="none" stroke="#646567" stroke-width="0.75" stroke-linecap="round" stroke-linejoin="round" stroke-miterlimit="10" d="
		M9.5,197.8v-7l37.3-16.3v9.3 M100.9,163.4v-11.1l-49.3,20.2v9.5 M51.5,178.6l49.3-19.3 M63.8,173.7v-6.2 M76.2,168.9v-6.5
		 M88.5,164.1v-6.7"/>
</g>
<g id="Wing_Right">
	
		<linearGradient id="Flap_Track_Fairing-3_3_" gradientUnits="userSpaceOnUse" x1="111.9155" y1="219.3374" x2="111.9155" y2="221.4634" gradientTransform="matrix(0 -1 1 0 7.2485 293.1504)">
		<stop  offset="0" style="stop-color:#FFFFFF"/>
		<stop  offset="1" style="stop-color:#7C7C7B"/>
	</linearGradient>
	
		<path id="Flap_Track_Fairing-3" fill="url(#Flap_Track_Fairing-3_3_)" stroke="#8C8C91" stroke-width="0.75" stroke-linecap="round" stroke-linejoin="round" stroke-miterlimit="10" d="
		M226.3,177c0,0,0.2,6.3,0.6,8c0,0,0.1,0.5,0.6,0.5h0.1c0.5,0,0.6-0.5,0.6-0.5c0.4-1.7,0.6-8,0.6-8H226.3z"/>
	
		<linearGradient id="Flap_Track_Fairing-2_3_" gradientUnits="userSpaceOnUse" x1="118.1152" y1="201.4922" x2="118.1152" y2="203.7487" gradientTransform="matrix(0 -1 1 0 7.2485 293.1504)">
		<stop  offset="0" style="stop-color:#FFFFFF"/>
		<stop  offset="1" style="stop-color:#7C7C7B"/>
	</linearGradient>
	
		<path id="Flap_Track_Fairing-2" fill="url(#Flap_Track_Fairing-2_3_)" stroke="#8C8C91" stroke-width="0.75" stroke-linecap="round" stroke-linejoin="round" stroke-miterlimit="10" d="
		M208.5,170.8c0,0,0.2,6.3,0.6,8c0,0,0.1,0.5,0.6,0.5h0.1c0.5,0,0.6-0.5,0.6-0.5c0.4-1.7,0.6-8,0.6-8H208.5z"/>
	
		<linearGradient id="Flap_Track_Fairing-1_3_" gradientUnits="userSpaceOnUse" x1="124.8726" y1="183.0942" x2="124.8726" y2="185.3112" gradientTransform="matrix(0 -1 1 0 7.2485 293.1504)">
		<stop  offset="0" style="stop-color:#FFFFFF"/>
		<stop  offset="1" style="stop-color:#7C7C7B"/>
	</linearGradient>
	
		<path id="Flap_Track_Fairing-1" fill="url(#Flap_Track_Fairing-1_3_)" stroke="#8C8C91" stroke-width="0.75" stroke-linecap="round" stroke-linejoin="round" stroke-miterlimit="10" d="
		M190.1,164.1c0,0,0.2,6.3,0.6,8c0,0,0.1,0.5,0.6,0.5h0.1c0.5,0,0.6-0.5,0.6-0.5c0.4-1.7,0.6-8,0.6-8H190.1z"/>
	
		<linearGradient id="Winglet_3_" gradientUnits="userSpaceOnUse" x1="97.543" y1="276.1392" x2="97.7495" y2="271.7675" gradientTransform="matrix(0 -1 1 0 7.2485 293.1504)">
		<stop  offset="0" style="stop-color:#FFFFFF"/>
		<stop  offset="1" style="stop-color:#7C7C7B"/>
	</linearGradient>
	
		<polygon id="Winglet" fill="url(#Winglet_3_)" stroke="#8C8C91" stroke-width="0.75" stroke-linecap="round" stroke-linejoin="round" stroke-miterlimit="10" points="
		281.5,186.2 284.1,204.9 281,199.6 	"/>
	
		<linearGradient id="Shape_Wing_3_" gradientUnits="userSpaceOnUse" x1="121.4199" y1="199.2285" x2="144.4199" y2="212.895" gradientTransform="matrix(0 -1 1 0 7.2485 293.1504)">
		<stop  offset="0" style="stop-color:#DEDEDE"/>
		<stop  offset="0.4845" style="stop-color:#DCDCDC"/>
		<stop  offset="0.6591" style="stop-color:#D5D5D5"/>
		<stop  offset="0.7835" style="stop-color:#CACACA"/>
		<stop  offset="0.884" style="stop-color:#B9B9B9"/>
		<stop  offset="0.9692" style="stop-color:#A4A4A3"/>
		<stop  offset="1" style="stop-color:#9A9A99"/>
	</linearGradient>
	
		<path id="Shape_Wing" fill="url(#Shape_Wing_3_)" stroke="#8C8C91" stroke-width="0.75" stroke-linecap="round" stroke-linejoin="round" stroke-miterlimit="10" d="
		M158.6,159.5c0-0.4,0-0.9,0-1.3c-0.3-6.6-0.4-8.3-2.9-54.1c0,4.2,5.6,7.6,5.6,7.6l120.2,74.6l-0.5,13.3l-99.8-37.7L158.6,159.5
		L158.6,159.5z"/>
	
		<path id="Trailing_Edge_Flaps__x2B__Spoilers" fill="none" stroke="#646567" stroke-width="0.75" stroke-linecap="round" stroke-linejoin="round" stroke-miterlimit="10" d="
		M239.2,183.8v-9.3l37.3,16.3v7 M234.6,182v-9.5l-49.3-20.2v11.1 M185.2,159.3l49.3,19.3 M222.2,173.7v-6.2 M209.9,168.9v-6.5
		 M197.6,164.1v-6.7"/>
	
		<path id="Shadow_1_" fill="#8C8C91" stroke="#8C8C91" stroke-width="0.75" stroke-linecap="round" stroke-linejoin="round" stroke-miterlimit="10" d="
		M165.2,114.1l-4-2.5c0,0-5.6-3.5-5.6-7.6c2.4,45.9,2.6,47.5,2.9,54.1c0,0.4,0,0.9,0,1.3l0,0l9.3,1
		C167.9,160.4,162,122.6,165.2,114.1z"/>
</g>
<g id="Fuselage">
	
		<linearGradient id="Wing_Connection_Left_1_" gradientUnits="userSpaceOnUse" x1="156.562" y1="123.5859" x2="156.562" y2="118.8657" gradientTransform="matrix(0 -1 1 0 7.2485 293.1504)">
		<stop  offset="0" style="stop-color:#FFFFFF"/>
		<stop  offset="1" style="stop-color:#7C7C7B"/>
	</linearGradient>
	
		<path id="Wing_Connection_Left" fill="url(#Wing_Connection_Left_1_)" stroke="#8C8C91" stroke-width="0.75" stroke-linecap="round" stroke-linejoin="round" stroke-miterlimit="10" d="
		M130.5,101.9v69.5c0,0-3.3-6.9-3-13.2C127.8,151.4,127.9,149.8,130.5,101.9z"/>
	
		<linearGradient id="Wing_Connection_Right_1_" gradientUnits="userSpaceOnUse" x1="156.561" y1="127.6343" x2="156.561" y2="151.1975" gradientTransform="matrix(0 -1 1 0 7.2485 293.1504)">
		<stop  offset="0" style="stop-color:#A5A5A5"/>
		<stop  offset="4.758149e-02" style="stop-color:#B5B5B5"/>
		<stop  offset="0.1509" style="stop-color:#D3D3D3"/>
		<stop  offset="0.2395" style="stop-color:#E5E5E5"/>
		<stop  offset="0.3025" style="stop-color:#ECECEC"/>
		<stop  offset="0.4074" style="stop-color:#E8E8E8"/>
		<stop  offset="0.514" style="stop-color:#DCDCDC"/>
		<stop  offset="0.6214" style="stop-color:#C7C7C7"/>
		<stop  offset="0.7294" style="stop-color:#ABABAB"/>
		<stop  offset="0.8378" style="stop-color:#868686"/>
		<stop  offset="0.9452" style="stop-color:#5A5A5A"/>
		<stop  offset="1" style="stop-color:#404040"/>
	</linearGradient>
	
		<path id="Wing_Connection_Right" fill="url(#Wing_Connection_Right_1_)" stroke="#646567" stroke-width="0.75" stroke-linecap="round" stroke-linejoin="round" stroke-miterlimit="10" d="
		M155.6,101.9v69.5c0,0,3.3-6.9,3-13.2C158.2,151.4,158.1,149.8,155.6,101.9z"/>
	
		<linearGradient id="Shape_Body_1_" gradientUnits="userSpaceOnUse" x1="147.3867" y1="123.8896" x2="147.3867" y2="148.1226" gradientTransform="matrix(0 -1 1 0 7.2485 293.1504)">
		<stop  offset="0" style="stop-color:#A5A5A5"/>
		<stop  offset="3.855830e-03" style="stop-color:#A7A7A7"/>
		<stop  offset="6.164544e-02" style="stop-color:#C5C5C5"/>
		<stop  offset="0.1112" style="stop-color:#D7D7D7"/>
		<stop  offset="0.1465" style="stop-color:#DEDEDE"/>
		<stop  offset="0.2805" style="stop-color:#DADADA"/>
		<stop  offset="0.4166" style="stop-color:#CECECE"/>
		<stop  offset="0.5538" style="stop-color:#B9B9B9"/>
		<stop  offset="0.6917" style="stop-color:#9D9D9D"/>
		<stop  offset="0.8303" style="stop-color:#787878"/>
		<stop  offset="0.9675" style="stop-color:#4C4C4C"/>
		<stop  offset="1" style="stop-color:#404040"/>
	</linearGradient>
	
		<path id="Shape_Body" fill="url(#Shape_Body_1_)" stroke="#8C8C91" stroke-width="0.75" stroke-linecap="round" stroke-linejoin="round" stroke-miterlimit="10" d="
		M143.1,1.9c3.7,0,6.8,5.1,9,11.2c3.5,9.8,3.5,27.1,3.5,27.1v160.5c0,0-1,58.8-10.3,86.7c0,0-0.7,2.4-2.1,2.4l-0.1,0
		c-1.5,0-2.3-2.4-2.3-2.4c-9.3-27.9-10.3-86.7-10.3-86.7V40.1c0,0,0-17.3,3.5-27.1c2.2-6.1,5.3-11.2,9-11.2H143.1z"/>
	<path id="Reflection" fill="#FFFFFF" d="M141.7,263c-1.8-28.2-1.9-53.2-1.9-53.2V43.1c0,0,0.2-25.7,2.4-32.2c0,0-6.6,2.7-6.6,32.3
		c0,29.7,0,155.6,0,155.6s-0.2,36.7,6.2,75.4L141.7,263z"/>
	<path id="Cockpit_Windows" fill="#424242" d="M137.1,18.2c-0.6,1.2-1,2.1-1,2.1h-1.8c0.1-0.8,0.3-1.4,0.5-2.1H137.1z M137.7,13.2
		l1.8,1.7c0.9-0.8,1.9-1.3,3.2-1.3v-2.8C142.7,10.9,140.1,10.9,137.7,13.2z M137.3,13.7c-0.8,1-1.6,2.2-2.2,3.9h2.3
		c0.4-0.7,1-1.5,1.7-2.2L137.3,13.7z M149,18.2c0.6,1.2,1,2.1,1,2.1h1.8c-0.1-0.8-0.3-1.4-0.5-2.1H149z M143.4,10.9v2.8
		c1.2,0,2.3,0.5,3.2,1.3l1.8-1.7C146,10.9,143.4,10.9,143.4,10.9z M147,15.4c0.7,0.7,1.3,1.5,1.7,2.2h2.3c-0.6-1.7-1.4-3-2.2-3.9
		L147,15.4z"/>
</g>
<g id="Vertical_Stabiliser">
	
		<linearGradient id="Top_1_" gradientUnits="userSpaceOnUse" x1="6.3101" y1="132.1006" x2="52.4736" y2="156.599" gradientTransform="matrix(0 -1 1 0 7.2485 293.1504)">
		<stop  offset="0" style="stop-color:#FFFFFF"/>
		<stop  offset="1" style="stop-color:#7C7C7B"/>
	</linearGradient>
	
		<path id="Top" fill="url(#Top_1_)" stroke="#8C8C91" stroke-width="0.75" stroke-linecap="round" stroke-linejoin="round" stroke-miterlimit="10" d="
		M143.2,297.5c0.2,0,0.6-1.4,0.8-3.2c0.1-0.8,2.1-26.8-0.1-31c0,0-0.4-0.8-0.8-0.8h-0.1c-0.4,0-0.8,0.8-0.8,0.8
		c-2.1,4.3-0.2,30.2-0.1,31c0.2,1.8,0.6,3.2,0.9,3.2H143.2z"/>
	
		<linearGradient id="Fin_1_" gradientUnits="userSpaceOnUse" x1="39.4087" y1="134.0386" x2="39.4087" y2="137.6688" gradientTransform="matrix(0 -1 1 0 7.2485 293.1504)">
		<stop  offset="0" style="stop-color:#FFFFFF"/>
		<stop  offset="1" style="stop-color:#7C7C7B"/>
	</linearGradient>
	
		<path id="Fin" fill="url(#Fin_1_)" stroke="#8C8C91" stroke-width="0.75" stroke-linecap="round" stroke-linejoin="round" stroke-miterlimit="10" d="
		M140.5,239.6c0,14.4,0.7,34.1,0.7,34.1l0-0.3c0-4.7,0.3-8.7,1-10.2c0,0,0.3-0.8,0.9-0.8c0.4,0,0.8,0.8,0.8,0.8
		c0.7,1.5,1,5.5,1,10.2l0,0.3c0,0,0.8-19.8,0.8-34.1c0-6.2-2.6-5.9-2.6-5.9S140.5,233.3,140.5,239.6z"/>
	
		<linearGradient id="Shadow_2_" gradientUnits="userSpaceOnUse" x1="33.6787" y1="101.2275" x2="31.0119" y2="144.2324" gradientTransform="matrix(0 -1 1 0 7.2485 293.1504)">
		<stop  offset="0" style="stop-color:#A5A5A5"/>
		<stop  offset="4.758149e-02" style="stop-color:#B5B5B5"/>
		<stop  offset="0.1509" style="stop-color:#D3D3D3"/>
		<stop  offset="0.2395" style="stop-color:#E5E5E5"/>
		<stop  offset="0.3025" style="stop-color:#ECECEC"/>
		<stop  offset="0.4074" style="stop-color:#E8E8E8"/>
		<stop  offset="0.514" style="stop-color:#DCDCDC"/>
		<stop  offset="0.6214" style="stop-color:#C7C7C7"/>
		<stop  offset="0.7294" style="stop-color:#ABABAB"/>
		<stop  offset="0.8378" style="stop-color:#868686"/>
		<stop  offset="0.9452" style="stop-color:#5A5A5A"/>
		<stop  offset="1" style="stop-color:#404040"/>
	</linearGradient>
	
		<path id="Shadow" fill="url(#Shadow_2_)" stroke="#8C8C91" stroke-width="0.75" stroke-linecap="round" stroke-linejoin="round" stroke-miterlimit="10" d="
		M144.6,234.5c0.6,0.8,1.2,2.2,1.2,5.1c0,14.4-0.8,34.1-0.8,34.1l0-0.1c0,5.2-0.3,11-0.5,15.2c0.6-0.7,0.8-1.6,0.8-1.6
		c3.3-10,5.6-23.9,7.1-37.7"/>
</g>
</svg>
