<?xml version="1.0" encoding="utf-8"?>

<!-- Copyright 2016 Siemens AG -->

<!-- Generator: Adobe Illustrator 16.0.4, SVG Export Plug-In . SVG Version: 6.00 Build 0)  -->
<!DOCTYPE svg PUBLIC "-//W3C//DTD SVG 1.1//EN" "http://www.w3.org/Graphics/SVG/1.1/DTD/svg11.dtd">
<svg version="1.1" id="InfoDangerDark" xmlns="http://www.w3.org/2000/svg" xmlns:xlink="http://www.w3.org/1999/xlink" x="0px"
	 y="0px" width="300px" height="300px" viewBox="0 0 300 300" enable-background="new 0 0 300 300" xml:space="preserve">
<linearGradient id="Button_1_" gradientUnits="userSpaceOnUse" x1="67.1533" y1="50.6191" x2="275.33" y2="299.233">
	<stop  offset="0" style="stop-color:#F11A3E"/>
	<stop  offset="1" style="stop-color:#91072B"/>
</linearGradient>
<circle id="Button" fill="url(#Button_1_)" stroke="#80011E" stroke-width="0.75" stroke-miterlimit="10" cx="150" cy="149.6" r="148"/>
<linearGradient id="Warning-Icon_1_" gradientUnits="userSpaceOnUse" x1="130.5273" y1="158.7134" x2="322.5269" y2="328.0464">
	<stop  offset="0" style="stop-color:#FFFFFF"/>
	<stop  offset="1" style="stop-color:#7C7C7B"/>
</linearGradient>
<path id="Warning-Icon" fill="url(#Warning-Icon_1_)" stroke="#CFCFCE" stroke-width="0.75" stroke-linecap="round" stroke-linejoin="round" stroke-miterlimit="10" d="
	M254.2,225.4L152.6,34c-0.5-1-1.5-1.5-2.6-1.5s-2.1,0.6-2.6,1.5L45.8,225.4c-0.5,0.9-0.5,2,0.1,2.9c0.5,0.9,1.5,1.4,2.5,1.4h203.3
	c1,0,2-0.5,2.5-1.4C254.7,227.4,254.7,226.3,254.2,225.4z M162,209.6H138v-23.9H162V209.6z M162,173.7H138V96H162V173.7z"/>
</svg>
