<?xml version="1.0" encoding="utf-8"?>

<!-- Copyright 2016 Siemens AG -->

<!-- Generator: Adobe Illustrator 16.0.4, SVG Export Plug-In . SVG Version: 6.00 Build 0)  -->
<!DOCTYPE svg PUBLIC "-//W3C//DTD SVG 1.1//EN" "http://www.w3.org/Graphics/SVG/1.1/DTD/svg11.dtd">
<svg version="1.1" id="Bottle" xmlns="http://www.w3.org/2000/svg" xmlns:xlink="http://www.w3.org/1999/xlink" x="0px" y="0px"
	 width="104px" height="300px" viewBox="0 0 104 300" enable-background="new 0 0 104 300" xml:space="preserve">
<linearGradient id="Shape_3_" gradientUnits="userSpaceOnUse" x1="58.0732" y1="150.0229" x2="1.2032" y2="150.0229">
	<stop  offset="0" style="stop-color:#FFFFFF"/>
	<stop  offset="1" style="stop-color:#7C7C7B"/>
</linearGradient>
<path id="Shape_2_" fill="url(#Shape_3_)" stroke="#8C8C91" stroke-width="0.75" stroke-miterlimit="10" d="M101.7,284.6
	c0,0,0-112.8,0-137.4c0-22.2-5.4-28.4-10.1-36.4c-4.7-8.1-20.7-28.1-20.7-45.2c0-16.3-0.1-22.2-0.2-24.3c1.3-0.3,2.2-1.4,2.2-2.8
	c0-1.6-1.3-2.8-2.8-2.8H70c-1.1-3.3,0.4-21.2,0.4-27.1c0-6.3-7.7-6.3-7.7-6.3H41.3c0,0-7.7,0-7.7,6.3c0,5.8,1.5,23.8,0.4,27.1H34
	c-1.6,0-2.8,1.3-2.8,2.8c0,1.4,0.9,2.5,2.2,2.8c-0.1,2-0.2,7.9-0.2,24.3c0,17.1-15.9,37.1-20.7,45.2S2.4,125.2,2.4,147.3
	c0,24.5,0,137.4,0,137.4s-0.5,13,14.8,13c14.9,0,54.8,0,69.8,0C102.2,297.6,101.7,284.6,101.7,284.6z"/>
<linearGradient id="Reflection_Right_1_" gradientUnits="userSpaceOnUse" x1="76.3916" y1="169.7051" x2="117.0577" y2="161.7052">
	<stop  offset="0" style="stop-color:#FFFFFF"/>
	<stop  offset="1" style="stop-color:#7C7C7B"/>
</linearGradient>
<path id="Reflection_Right" fill="url(#Reflection_Right_1_)" d="M101.7,284.6c0,0,0-112.8,0-137.4c0-22.2-5.4-28.4-10.1-36.4
	c-4.7-8.1-20.7-28.1-20.7-45.2c0-14.6-0.1-21.6-0.1-24.2h-5.4v21.2c0,0.7,0,0.8,0,0.8c0,18,12,39.2,15.6,47.7
	c3.6,8.5,7.6,15.2,7.6,38.5c0,17.9,0,81.7,0,119.2c0,11.4,0,20.4,0,24.9v3.8C102.1,296.6,101.7,284.6,101.7,284.6z"/>
<linearGradient id="Reflection_Top_1_" gradientUnits="userSpaceOnUse" x1="121.5703" y1="121.416" x2="14.6814" y2="55.3962">
	<stop  offset="0" style="stop-color:#FFFFFF"/>
	<stop  offset="1" style="stop-color:#7C7C7B"/>
</linearGradient>
<path id="Reflection_Top" fill="url(#Reflection_Top_1_)" d="M55,115.5c23.5,0,44,17.1,44,17.1c-1.8-10.2-5.4-14.9-8.7-20.5
	c-4.6-7.8-21.7-31.6-21.7-48.1c0-15.8-0.4-49.9-0.4-55.5c0-6.1-7.4-6.1-7.4-6.1H43.3c0,0-7.4,0-7.4,6.1c0,5.6-0.4,39.8-0.4,55.5
	c0,16.5-17.1,40.3-21.7,48.1c-3.3,5.6-6.9,10.3-8.7,20.5c0,0,20.6-17.1,44-17.1H55z"/>
<linearGradient id="Dark_Reflection_1_" gradientUnits="userSpaceOnUse" x1="75.5693" y1="656.2695" x2="75.5693" y2="34.7079">
	<stop  offset="0" style="stop-color:#A5A5A5"/>
	<stop  offset="4.758149e-02" style="stop-color:#B5B5B5"/>
	<stop  offset="0.1509" style="stop-color:#D3D3D3"/>
	<stop  offset="0.2395" style="stop-color:#E5E5E5"/>
	<stop  offset="0.3025" style="stop-color:#ECECEC"/>
	<stop  offset="0.4074" style="stop-color:#E8E8E8"/>
	<stop  offset="0.514" style="stop-color:#DCDCDC"/>
	<stop  offset="0.6214" style="stop-color:#C7C7C7"/>
	<stop  offset="0.7294" style="stop-color:#ABABAB"/>
	<stop  offset="0.8378" style="stop-color:#868686"/>
	<stop  offset="0.9452" style="stop-color:#5A5A5A"/>
	<stop  offset="1" style="stop-color:#404040"/>
</linearGradient>
<path id="Dark_Reflection" fill="url(#Dark_Reflection_1_)" d="M62.6,63.4c0,38,16.3,35.1,16.3,91.9c0,23.6,0,121.6,0,138.5h9.7
	c0-19.4,0-120.9,0-144.2c0-23.3-4-30-7.6-38.5c-3.6-8.5-15.6-29.6-15.6-47.7c0,0,0,0,0-0.1V2.5h-2.8V63.4z"/>
<linearGradient id="White_Reflection_1_" gradientUnits="userSpaceOnUse" x1="16.2207" y1="148.1094" x2="46.1514" y2="148.1094">
	<stop  offset="0" style="stop-color:#F2F2F2;stop-opacity:0.4"/>
	<stop  offset="1" style="stop-color:#F7F7F7;stop-opacity:0.7"/>
</linearGradient>
<path id="White_Reflection" fill="url(#White_Reflection_1_)" d="M46.2,63.4c0,38-11.3,35.1-11.3,91.9c0,23.6,0,121.6,0,138.5H16.2
	c0-19.4,0-120.9,0-144.2c0-23.3,4-30,7.6-38.5c3.6-8.5,15.6-29.6,15.6-47.7c0,0,0,0,0-0.1V2.5h6.8V63.4z"/>
<path id="Reflection_Edge_Right__x2B__Bottom" fill="#8C8C91" stroke="#8C8C91" stroke-width="0.75" stroke-miterlimit="10" d="
	M56,297.6c-15,0-30.7,0-38.9,0c-15.3,0-14.8-13-14.8-13s0-112.8,0-137.4c0-22.1,5.4-28.4,10.1-36.4s20.7-28.1,20.7-45.2
	c0-16.3,0.1-22.2,0.2-24.3c-1.3-0.3-2.2-1.4-2.2-2.8c0-1.6,1.3-2.8,2.8-2.8H34c1.1-3.3-0.4-21.2-0.4-27.1c0-6.3,7.7-6.3,7.7-6.3
	s3.8,0,3.8,0c0,0-7.7,0-7.7,6.3c0,5.8-0.4,40.6-0.4,56.9c0,17.1-16.4,39.7-21.2,47.8s-8.6,17.2-8.6,39.3c0,24.5,0,131.2,0,131.2
	c0,0-0.1,5.9,3,6.8c0,0,21.8-3.8,40.2-3.8h3.4c18.4,0,40.2,3.8,40.2,3.8c3.1-0.9,3-6.8,3-6.8c0,0,0-106.7,0-131.2
	c0-22.1-3.9-31.2-8.6-39.3S67.1,82.8,67.1,65.7c0-16.3-0.4-51.1-0.4-56.9c0-6.3-7.7-6.3-7.7-6.3c0,0,3.8,0,3.8,0s7.7,0,7.7,6.3
	c0,5.8-1.5,23.8-0.4,27.1h0.1c1.6,0,2.8,1.3,2.8,2.8c0,1.4-0.9,2.5-2.2,2.8c0.1,2,0.2,7.9,0.2,24.3c0,17.1,15.9,37.1,20.7,45.2
	s10.1,14.4,10.1,36.4c0,24.5,0,137.4,0,137.4s0.5,13-14.8,13c-8.2,0-23.9,0-38.9,0"/>
<path id="Reflection_Edge_Left" fill="#424242" stroke="#424242" stroke-width="0.75" stroke-miterlimit="10" d="M5,292.6
	c-2.8-3.6-2.6-7.9-2.6-7.9s0-112.8,0-137.4c0-22.1,5.4-28.4,10.1-36.4s20.7-28.1,20.7-45.2c0-16.3,0.1-22.2,0.2-24.3
	c-1.3-0.3-2.2-1.4-2.2-2.8c0-1.6,1.3-2.8,2.8-2.8H34c1.1-3.3-0.4-21.2-0.4-27.1c0-6.3,7.7-6.3,7.7-6.3s3.8,0,3.8,0
	c0,0-7.7,0-7.7,6.3c0,5.8-0.4,40.6-0.4,56.9c0,17.1-16.4,39.7-21.2,47.8s-8.6,17.2-8.6,39.3c0,24.5,0,131.2,0,131.2
	c0,0-0.1,5.9,3,6.8L5,292.6z"/>
<g id="Bottle_Ring">
	<path id="Shadow" fill="#424242" stroke="#424242" stroke-width="0.75" stroke-miterlimit="10" d="M36.7,41.5h34.1v5.7
		C70.8,47.1,61,42.8,36.7,41.5z"/>
	<radialGradient id="Shape_4_" cx="38.9785" cy="19.1826" r="31.7139" gradientUnits="userSpaceOnUse">
		<stop  offset="0" style="stop-color:#A5A5A5"/>
		<stop  offset="4.758149e-02" style="stop-color:#B5B5B5"/>
		<stop  offset="0.1509" style="stop-color:#D3D3D3"/>
		<stop  offset="0.2395" style="stop-color:#E5E5E5"/>
		<stop  offset="0.3025" style="stop-color:#ECECEC"/>
		<stop  offset="0.4074" style="stop-color:#E8E8E8"/>
		<stop  offset="0.514" style="stop-color:#DCDCDC"/>
		<stop  offset="0.6214" style="stop-color:#C7C7C7"/>
		<stop  offset="0.7294" style="stop-color:#ABABAB"/>
		<stop  offset="0.8378" style="stop-color:#868686"/>
		<stop  offset="0.9452" style="stop-color:#5A5A5A"/>
		<stop  offset="1" style="stop-color:#404040"/>
	</radialGradient>
	<path id="Shape_1_" fill="url(#Shape_4_)" stroke="#646567" stroke-width="0.75" stroke-miterlimit="10" d="M70.1,41.5
		c1.6,0,2.8-1.3,2.8-2.8c0-1.6-1.3-2.8-2.8-2.8H34c-1.6,0-2.8,1.3-2.8,2.8c0,1.6,1.3,2.8,2.8,2.8H70.1z"/>
	<linearGradient id="Reflection_2_" gradientUnits="userSpaceOnUse" x1="38.6118" y1="37.5527" x2="46.002" y2="37.5527">
		<stop  offset="0" style="stop-color:#F2F2F2;stop-opacity:0.4"/>
		<stop  offset="1" style="stop-color:#F7F7F7;stop-opacity:0.7"/>
	</linearGradient>
	<rect id="Reflection_1_" x="38.6" y="36.6" fill="url(#Reflection_2_)" width="7.4" height="1.9"/>
</g>
<g id="Cap">
	<linearGradient id="Shape_5_" gradientUnits="userSpaceOnUse" x1="32.3672" y1="19.1191" x2="62.7666" y2="19.1191">
		<stop  offset="0" style="stop-color:#575756"/>
		<stop  offset="1.586480e-02" style="stop-color:#5D5C5C"/>
		<stop  offset="0.1171" style="stop-color:#797878"/>
		<stop  offset="0.2183" style="stop-color:#8D8D8C"/>
		<stop  offset="0.3189" style="stop-color:#999998"/>
		<stop  offset="0.4178" style="stop-color:#9D9D9C"/>
		<stop  offset="0.5402" style="stop-color:#979696"/>
		<stop  offset="0.7122" style="stop-color:#848484"/>
		<stop  offset="0.9127" style="stop-color:#676666"/>
		<stop  offset="1" style="stop-color:#575756"/>
	</linearGradient>
	<path id="Shape" fill="url(#Shape_5_)" stroke="#646567" stroke-width="0.75" stroke-miterlimit="10" d="M31,32.3
		c0,1.9,1.5,3.4,3.4,3.4h35.3c1.9,0,3.4-1.5,3.4-3.4V5.9c0-1.9-1.5-3.4-3.4-3.4H34.4C32.5,2.5,31,4,31,5.9V32.3z"/>
	<linearGradient id="Reflection_3_" gradientUnits="userSpaceOnUse" x1="38.6118" y1="19.1191" x2="46.002" y2="19.1191">
		<stop  offset="0" style="stop-color:#F2F2F2;stop-opacity:0.4"/>
		<stop  offset="1" style="stop-color:#F7F7F7;stop-opacity:0.7"/>
	</linearGradient>
	<rect id="Reflection" x="38.6" y="7.1" fill="url(#Reflection_3_)" width="7.4" height="24.1"/>
	<path id="Bottom" fill="#424242" stroke="#424242" stroke-width="0.75" stroke-miterlimit="10" d="M34.4,35.8h35.3
		c1.9,0,3.4-1.5,3.4-3.4H31C31,34.2,32.5,35.8,34.4,35.8z"/>
	<linearGradient id="Top_1_" gradientUnits="userSpaceOnUse" x1="16.9375" y1="4.1729" x2="70.4087" y2="4.1729">
		<stop  offset="0" style="stop-color:#575756"/>
		<stop  offset="1.586480e-02" style="stop-color:#5D5C5C"/>
		<stop  offset="0.1171" style="stop-color:#797878"/>
		<stop  offset="0.2183" style="stop-color:#8D8D8C"/>
		<stop  offset="0.3189" style="stop-color:#999998"/>
		<stop  offset="0.4178" style="stop-color:#9D9D9C"/>
		<stop  offset="0.5402" style="stop-color:#979696"/>
		<stop  offset="0.7122" style="stop-color:#848484"/>
		<stop  offset="0.9127" style="stop-color:#676666"/>
		<stop  offset="1" style="stop-color:#575756"/>
	</linearGradient>
	<path id="Top" fill="url(#Top_1_)" stroke="#646567" stroke-width="0.75" stroke-miterlimit="10" d="M69.7,2.5H34.4
		C32.5,2.5,31,4,31,5.9h42.2C73.1,4,71.6,2.5,69.7,2.5z"/>
</g>
</svg>
