<?xml version="1.0" encoding="utf-8"?>

<!-- Copyright 2016 Siemens AG -->

<!-- Generator: Adobe Illustrator 16.0.4, SVG Export Plug-In . SVG Version: 6.00 Build 0)  -->
<!DOCTYPE svg PUBLIC "-//W3C//DTD SVG 1.1//EN" "http://www.w3.org/Graphics/SVG/1.1/DTD/svg11.dtd">
<svg version="1.1" id="SIMATIC_x5F_HMI_x5F_9_x5F_Key_x5F_KP900"
	 xmlns="http://www.w3.org/2000/svg" xmlns:xlink="http://www.w3.org/1999/xlink" x="0px" y="0px" width="300px" height="192px"
	 viewBox="0 0 300 192" enable-background="new 0 0 300 192" xml:space="preserve">
<linearGradient id="SVGID_1_" gradientUnits="userSpaceOnUse" x1="2" y1="95.9531" x2="298.001" y2="95.9531">
	<stop  offset="0" style="stop-color:#B0B3B3"/>
	<stop  offset="1" style="stop-color:#7C7F7F"/>
</linearGradient>
<path fill="url(#SVGID_1_)" d="M2,3.5c0-0.9,0.7-1.5,1.5-1.5h292.9c0.9,0,1.5,0.7,1.5,1.5v185c0,0.9-0.7,1.5-1.5,1.5H3.5
	c-0.8,0-1.5-0.7-1.5-1.5V3.5z"/>
<g>
	<polyline fill-rule="evenodd" clip-rule="evenodd" fill="#5B6675" points="242,40.7 242,35 241.2,35 241.2,45.6 230.5,45.6 
		230.5,46.4 242,46.4 242,40.7 	"/>
	<polyline fill-rule="evenodd" clip-rule="evenodd" fill="#5B6675" points="254.2,40.7 254.2,35 253.4,35 253.4,45.6 242.8,45.6 
		242.8,46.4 254.2,46.4 254.2,40.7 	"/>
	<polyline fill-rule="evenodd" clip-rule="evenodd" fill="#5B6675" points="266.5,40.7 266.5,35 265.7,35 265.7,45.6 255.1,45.6 
		255.1,46.4 266.5,46.4 266.5,40.7 	"/>
	<polyline fill-rule="evenodd" clip-rule="evenodd" fill="#5B6675" points="242,53 242,47.3 241.2,47.3 241.2,57.9 230.5,57.9 
		230.5,58.7 242,58.7 242,53 	"/>
	<polyline fill-rule="evenodd" clip-rule="evenodd" fill="#5B6675" points="254.2,53 254.2,47.3 253.4,47.3 253.4,57.9 242.8,57.9 
		242.8,58.7 254.2,58.7 254.2,53 	"/>
	<polyline fill-rule="evenodd" clip-rule="evenodd" fill="#5B6675" points="266.5,53 266.5,47.3 265.7,47.3 265.7,57.9 255.1,57.9 
		255.1,58.7 266.5,58.7 266.5,53 	"/>
	<polyline fill-rule="evenodd" clip-rule="evenodd" fill="#5B6675" points="242,65.3 242,59.5 241.2,59.5 241.2,70.1 230.5,70.1 
		230.5,71 242,71 242,65.3 	"/>
	<polyline fill-rule="evenodd" clip-rule="evenodd" fill="#5B6675" points="254.2,65.3 254.2,59.5 253.4,59.5 253.4,70.1 
		242.8,70.1 242.8,71 254.2,71 254.2,65.3 	"/>
	<polyline fill-rule="evenodd" clip-rule="evenodd" fill="#5B6675" points="266.5,65.3 266.5,59.5 265.7,59.5 265.7,70.1 
		255.1,70.1 255.1,71 266.5,71 266.5,65.3 	"/>
	<polyline fill-rule="evenodd" clip-rule="evenodd" fill="#5B6675" points="242,77.5 242,71.8 241.2,71.8 241.2,82.4 230.5,82.4 
		230.5,83.2 242,83.2 242,77.5 	"/>
	<polyline fill-rule="evenodd" clip-rule="evenodd" fill="#5B6675" points="254.2,77.5 254.2,71.8 253.4,71.8 253.4,82.4 
		242.8,82.4 242.8,83.2 254.2,83.2 254.2,77.5 	"/>
	<polyline fill-rule="evenodd" clip-rule="evenodd" fill="#5B6675" points="266.5,77.5 266.5,71.8 265.7,71.8 265.7,82.4 
		255.1,82.4 255.1,83.2 266.5,83.2 266.5,77.5 	"/>
	<polyline fill-rule="evenodd" clip-rule="evenodd" fill="#5B6675" points="242,95.1 242,89.4 241.2,89.4 241.2,100 230.5,100 
		230.5,100.8 242,100.8 242,95.1 	"/>
	<polyline fill-rule="evenodd" clip-rule="evenodd" fill="#5B6675" points="254.2,95.1 254.2,89.4 253.4,89.4 253.4,100 242.8,100 
		242.8,100.8 254.2,100.8 254.2,95.1 	"/>
	<polyline fill-rule="evenodd" clip-rule="evenodd" fill="#5B6675" points="266.5,95.1 266.5,89.4 265.7,89.4 265.7,100 255.1,100 
		255.1,100.8 266.5,100.8 266.5,95.1 	"/>
	<polyline fill-rule="evenodd" clip-rule="evenodd" fill="#5B6675" points="284.5,75.1 284.5,69.3 283.7,69.3 283.7,80 273.1,80 
		273.1,80.8 284.5,80.8 284.5,75.1 	"/>
	<polyline fill-rule="evenodd" clip-rule="evenodd" fill="#5B6675" points="284.5,87.3 284.5,81.6 283.7,81.6 283.7,92.2 
		273.1,92.2 273.1,93 284.5,93 284.5,87.3 	"/>
	<polyline fill-rule="evenodd" clip-rule="evenodd" fill="#F9D300" points="284.5,99.6 284.5,93.9 283.7,93.9 283.7,104.5 
		273.1,104.5 273.1,105.3 284.5,105.3 284.5,99.6 	"/>
	<polyline fill-rule="evenodd" clip-rule="evenodd" fill="#00A333" points="279.6,120.9 272.6,120.9 272.6,119.6 285.3,119.6 
		285.3,106.9 286.5,106.9 286.5,120.9 279.6,120.9 	"/>
	<polyline fill-rule="evenodd" clip-rule="evenodd" fill="#FFFFFF" points="246.5,113.1 246.5,107.4 245.7,107.4 245.7,118 235,118 
		235,118.8 246.5,118.8 246.5,113.1 	"/>
	<polyline fill-rule="evenodd" clip-rule="evenodd" fill="#5B6675" points="258.7,113.1 258.7,107.4 257.9,107.4 257.9,118 
		247.3,118 247.3,118.8 258.7,118.8 258.7,113.1 	"/>
	<polyline fill-rule="evenodd" clip-rule="evenodd" fill="#5B6675" points="271,113.1 271,107.4 270.2,107.4 270.2,118 259.6,118 
		259.6,118.8 271,118.8 271,113.1 	"/>
</g>
<g>
	<polyline fill-rule="evenodd" clip-rule="evenodd" fill="#5B6675" points="236.3,142.3 230.5,142.3 230.5,153.8 242,153.8 
		242,152.9 231.4,152.9 231.4,143.1 242,143.1 242,142.3 236.3,142.3 	"/>
	<polyline fill-rule="evenodd" clip-rule="evenodd" fill="#5B6675" points="260.8,142.3 266.5,142.3 266.5,153.8 255.1,153.8 
		255.1,152.9 265.7,152.9 265.7,143.1 255.1,143.1 255.1,142.3 260.8,142.3 	"/>
	<polyline fill-rule="evenodd" clip-rule="evenodd" fill="#5B6675" points="242.8,160.3 242.8,166 254.2,166 254.2,154.6 
		253.4,154.6 253.4,165.2 243.6,165.2 243.6,154.6 242.8,154.6 242.8,160.3 	"/>
	<polyline fill-rule="evenodd" clip-rule="evenodd" fill="#5B6675" points="242.8,135.8 242.8,130 254.2,130 254.2,141.5 
		253.4,141.5 253.4,130.9 243.6,130.9 243.6,141.5 242.8,141.5 242.8,135.8 	"/>
	<polyline fill-rule="evenodd" clip-rule="evenodd" fill="#5B6675" points="273.1,141.9 273.1,136.2 284.5,136.2 284.5,147.6 
		283.7,147.6 283.7,137 273.9,137 273.9,147.6 273.1,147.6 273.1,141.9 	"/>
	<polyline fill-rule="evenodd" clip-rule="evenodd" fill="#5B6675" points="273.1,154.2 273.1,159.9 284.5,159.9 284.5,148.4 
		283.7,148.4 283.7,159.1 273.9,159.1 273.9,148.4 273.1,148.4 273.1,154.2 	"/>
</g>
<g>
	<polyline fill-rule="evenodd" clip-rule="evenodd" points="248.5,132.7 245.9,138.1 251.2,138.1 248.5,132.7 	"/>
	<polyline fill-rule="evenodd" clip-rule="evenodd" points="248.5,163.4 245.9,158 251.2,158 248.5,163.4 	"/>
	<polyline fill-rule="evenodd" clip-rule="evenodd" points="233.2,148 238.6,150.7 238.6,145.4 233.2,148 	"/>
	<polyline fill-rule="evenodd" clip-rule="evenodd" points="263.9,148 258.5,150.7 258.5,145.4 263.9,148 	"/>
</g>
<g>
	<polyline fill-rule="evenodd" clip-rule="evenodd" points="278.8,152.4 277.3,149.4 280.2,149.4 278.8,152.4 	"/>
	<polyline fill-rule="evenodd" clip-rule="evenodd" points="278.8,155.6 277.3,152.6 280.2,152.6 278.8,155.6 	"/>
	<polyline fill-rule="evenodd" clip-rule="evenodd" points="278.8,143.7 277.3,146.7 280.2,146.7 278.8,143.7 	"/>
	<polyline fill-rule="evenodd" clip-rule="evenodd" points="278.8,140.5 277.3,143.5 280.2,143.5 278.8,140.5 	"/>
</g>
<path fill-rule="evenodd" clip-rule="evenodd" fill="#708799" d="M184.6,160.3v5.7h0.8v-10.6H196v-0.8h-11.5V160.3 M164.7,160.3v5.7
	h0.8v-10.6h10.6v-0.8h-11.4V160.3z M144.7,160.3v5.7h0.8v-10.6h10.6v-0.8h-11.5V160.3z M144.7,144.4v5.7h0.8v-10.6h10.6v-0.8h-11.5
	V144.4z M124.8,160.3v5.7h0.8v-10.6h10.6v-0.8h-11.4V160.3z M124.8,144.4v5.7h0.8v-10.6h10.6v-0.8h-11.4V144.4z M104.9,160.3v5.7
	h0.8v-10.6h10.6v-0.8h-11.4V160.3z M104.9,144.4v5.7h0.8v-10.6h10.6v-0.8h-11.4V144.4z M85,160.3v5.7h0.8v-10.6h10.6v-0.8H85V160.3z
	 M85,144.4v5.7h0.8v-10.6h10.6v-0.8H85V144.4z M65,160.3v5.7h0.8v-10.6h10.6v-0.8H65V160.3z M65,144.4v5.7h0.8v-10.6h10.6v-0.8H65
	V144.4z M45.1,160.3v5.7h0.8v-10.6h10.6v-0.8H45.1V160.3z M45.1,144.4v5.7h0.8v-10.6h10.6v-0.8H45.1V144.4z M184.6,144.4v5.7h0.8
	v-10.6H196v-0.8h-11.5V144.4z M164.7,144.4v5.7h0.8v-10.6h10.6v-0.8h-11.4V144.4z M211.3,104.5v5.7h0.8V99.6h10.6v-0.8h-11.4V104.5z
	 M211.3,72.6v5.7h0.8V67.7h10.6v-0.8h-11.4V72.6z M211.3,40.7v5.7h0.8V35.8h10.6V35h-11.4V40.7z M211.3,88.5v5.7h0.8V83.6h10.6v-0.8
	h-11.4V88.5z M211.3,56.7v5.7h0.8V51.8h10.6v-0.8h-11.4V56.7z M29.8,104.5v5.7H29V99.6H18.4v-0.8h11.5V104.5z M29.8,72.6v5.7H29
	V67.7H18.4v-0.8h11.5V72.6z M29.8,40.7v5.7H29V35.8H18.4V35h11.5V40.7z M29.8,56.7v5.7H29V51.8H18.4v-0.8h11.5V56.7z M29.8,88.5v5.7
	H29V83.6H18.4v-0.8h11.5V88.5z M18.4,5.4h204.4V166H18.4V5.4z"/>
<rect x="34.7" y="5.4" width="171.6" height="128.9"/>
<path fill-rule="evenodd" clip-rule="evenodd" fill="#FFFFFF" d="M120.6,32.1H41c-0.4,0-0.8,0.4-0.8,0.8v95.3c0,0.4,0.4,0.8,0.8,0.8
	h159.1c0.4,0,0.8-0.4,0.8-0.8V32.9c0-0.4-0.4-0.8-0.8-0.8H120.6"/>
<g>
	<rect x="29.8" y="33" fill="#E8E8E2" width="2" height="2"/>
	<rect x="29.8" y="48.9" fill="#E8E8E2" width="2" height="2"/>
	<rect x="29.8" y="64.8" fill="#E8E8E2" width="2" height="2"/>
	<rect x="29.8" y="80.8" fill="#E8E8E2" width="2" height="2"/>
	<rect x="29.8" y="96.7" fill="#E8E8E2" width="2" height="2"/>
	<rect x="209.3" y="33" fill="#E8E8E2" width="2" height="2"/>
	<rect x="209.3" y="48.9" fill="#E8E8E2" width="2" height="2"/>
	<rect x="209.3" y="64.8" fill="#E8E8E2" width="2" height="2"/>
	<rect x="209.3" y="80.8" fill="#E8E8E2" width="2" height="2"/>
	<rect x="162.6" y="136.6" fill="#E8E8E2" width="2" height="2"/>
	<rect x="209.3" y="96.7" fill="#E8E8E2" width="2" height="2"/>
	<rect x="182.5" y="136.6" fill="#E8E8E2" width="2" height="2"/>
	<rect x="43" y="136.6" fill="#E8E8E2" width="2.1" height="2"/>
	<rect x="43" y="152.5" fill="#E8E8E2" width="2.1" height="2"/>
	<rect x="63" y="136.6" fill="#E8E8E2" width="2" height="2"/>
	<rect x="63" y="152.5" fill="#E8E8E2" width="2" height="2"/>
	<rect x="82.9" y="136.6" fill="#E8E8E2" width="2" height="2"/>
	<rect x="82.9" y="152.5" fill="#E8E8E2" width="2" height="2"/>
	<rect x="102.8" y="136.6" fill="#E8E8E2" width="2" height="2"/>
	<rect x="102.8" y="152.5" fill="#E8E8E2" width="2" height="2"/>
	<rect x="122.8" y="136.6" fill="#E8E8E2" width="2" height="2"/>
	<rect x="122.8" y="152.5" fill="#E8E8E2" width="2" height="2"/>
	<rect x="142.7" y="136.6" fill="#E8E8E2" width="2" height="2"/>
	<rect x="142.7" y="152.5" fill="#E8E8E2" width="2" height="2"/>
	<rect x="162.6" y="152.5" fill="#E8E8E2" width="2" height="2"/>
	<rect x="182.5" y="152.5" fill="#E8E8E2" width="2" height="2"/>
</g>
<path fill="none" stroke="#000000" stroke-width="0.15" stroke-miterlimit="10" d="M150,5.4H6.3c-0.4,0-0.8,0.4-0.8,0.8v179.4
	c0,0.4,0.4,0.8,0.8,0.8h287.3c0.4,0,0.8-0.4,0.8-0.8V6.3c0-0.4-0.4-0.8-0.8-0.8H150z"/>
<g>
	<rect x="230.7" y="71.6" fill="#E8E8E2" width="2" height="2"/>
	<rect x="273.1" y="69.3" fill="#E8E8E2" width="2" height="2"/>
	<rect x="273.1" y="93.9" fill="#E8E8E2" width="2" height="2"/>
</g>
<g id="Logo">
	<g id="Logo_1_">
		<rect x="40.6" y="11.7" fill="#FFFFFF" width="23.9" height="5.7"/>
		<path fill="#128587" d="M40.2,17.9v-6.6h24.7v6.6H40.2z M44.1,13c-0.3-0.1-0.6-0.1-1-0.1c-0.4,0-0.8,0.1-1,0.3
			c-0.3,0.2-0.4,0.4-0.4,0.7c0,0.4,0.2,0.7,0.7,0.9l0.7,0.3c0.2,0.1,0.3,0.2,0.3,0.3c0,0.2-0.2,0.3-0.6,0.3c-0.2,0-0.6-0.1-1-0.2
			v0.7c0.2,0,0.4,0.1,0.6,0.1c0.2,0,0.4,0,0.5,0c0.4,0,0.8-0.1,1.1-0.3c0.3-0.2,0.4-0.5,0.4-0.8c0-0.4-0.2-0.7-0.7-1L43,14
			c-0.1-0.1-0.2-0.1-0.3-0.1c0,0-0.1-0.1-0.1-0.2c0-0.2,0.2-0.3,0.5-0.3c0.2,0,0.3,0,0.5,0c0.1,0,0.3,0.1,0.4,0.1L44.1,13L44.1,13z
			 M45.8,12.9h-1v3.3h1V12.9z M49.1,12.9h-2.4v3.3h2.4v-0.6h-1.5v-0.8h1.3v-0.6h-1.3v-0.7h1.5V12.9z M53.7,12.9h-1.2l-0.9,2l-0.8-2
			h-1.2v3.3h0.6V14l0.9,2.2h0.6l0.9-2.2v2.2h1V12.9L53.7,12.9z M56.9,12.9h-2.4v3.3H57v-0.6h-1.5v-0.8h1.3v-0.6h-1.3v-0.7h1.5V12.9z
			 M60.4,12.9h-0.6V15l-1.2-2.1h-1.1v3.3h0.7v-2.1l1.2,2.1h1V12.9z M63.3,13c-0.3-0.1-0.7-0.1-1-0.1c-0.4,0-0.8,0.1-1,0.3
			c-0.2,0.2-0.4,0.4-0.4,0.7c0,0.4,0.2,0.7,0.7,0.9l0.7,0.3c0.1,0.1,0.2,0.1,0.2,0.1c0,0,0,0.1,0,0.2c0,0.2-0.2,0.3-0.6,0.3
			c-0.2,0-0.6-0.1-1-0.2v0.7c0.2,0,0.3,0.1,0.6,0.1c0.2,0,0.4,0.1,0.5,0.1c0.4,0,0.8-0.1,1-0.3c0.3-0.2,0.4-0.5,0.4-0.8
			c0-0.2-0.1-0.4-0.2-0.6c-0.1-0.2-0.3-0.3-0.6-0.4L62.2,14c-0.2-0.1-0.3-0.2-0.3-0.3c0-0.2,0.2-0.3,0.5-0.3c0.2,0,0.3,0,0.4,0
			c0.1,0,0.3,0.1,0.4,0.1V13z"/>
	</g>
</g>
<g id="Typo">
	<g>
		<text transform="matrix(1.05 0 0 1 26.5923 34.7559)" font-family="'SiemensSans-Roman'" font-size="2.6301">F1</text>
		<text transform="matrix(1.05 0 0 1 26.5923 50.7305)" font-family="'SiemensSans-Roman'" font-size="2.6301">F3</text>
		<text transform="matrix(1.05 0 0 1 26.5923 66.7051)" font-family="'SiemensSans-Roman'" font-size="2.6301">F5</text>
		<text transform="matrix(1.05 0 0 1 26.5923 82.6797)" font-family="'SiemensSans-Roman'" font-size="2.6301">F7</text>
		<text transform="matrix(1.05 0 0 1 26.5923 98.6543)" font-family="'SiemensSans-Roman'" font-size="2.6301">F9</text>
		<text transform="matrix(1.05 0 0 1 211.8779 34.7559)" font-family="'SiemensSans-Roman'" font-size="2.6301">F2</text>
		<text transform="matrix(1.05 0 0 1 211.8779 50.7305)" font-family="'SiemensSans-Roman'" font-size="2.6301">F4</text>
		<text transform="matrix(1.05 0 0 1 211.8779 66.7051)" font-family="'SiemensSans-Roman'" font-size="2.6301">F6</text>
		<text transform="matrix(1.05 0 0 1 211.8779 82.6797)" font-family="'SiemensSans-Roman'" font-size="2.6301">F8</text>
		<text transform="matrix(1.05 0 0 1 211.8779 98.6543)" font-family="'SiemensSans-Roman'" font-size="2.6301">F1</text>
		<text transform="matrix(1.05 0 0 1 214.3936 98.6543)" font-family="'SiemensSans-Roman'" font-size="2.6301">0</text>
		<text transform="matrix(1.05 0 0 1 45.6543 138.3896)" font-family="'SiemensSans-Roman'" font-size="2.6301">F1</text>
		<text transform="matrix(1.05 0 0 1 48.1699 138.3896)" font-family="'SiemensSans-Roman'" font-size="2.6301">1</text>
		<text transform="matrix(1.05 0 0 1 65.6084 138.3896)" font-family="'SiemensSans-Roman'" font-size="2.6301">F1</text>
		<text transform="matrix(1.05 0 0 1 68.124 138.3896)" font-family="'SiemensSans-Roman'" font-size="2.6301">2</text>
		<text transform="matrix(1.05 0 0 1 85.5625 138.3896)" font-family="'SiemensSans-Roman'" font-size="2.6301">F1</text>
		<text transform="matrix(1.05 0 0 1 88.0781 138.3896)" font-family="'SiemensSans-Roman'" font-size="2.6301">3</text>
		<text transform="matrix(1.05 0 0 1 105.5166 138.3896)" font-family="'SiemensSans-Roman'" font-size="2.6301">F1</text>
		<text transform="matrix(1.05 0 0 1 108.0322 138.3896)" font-family="'SiemensSans-Roman'" font-size="2.6301">4</text>
		<text transform="matrix(1.05 0 0 1 125.4707 138.3896)" font-family="'SiemensSans-Roman'" font-size="2.6301">F1</text>
		<text transform="matrix(1.05 0 0 1 127.9863 138.3896)" font-family="'SiemensSans-Roman'" font-size="2.6301">5</text>
		<text transform="matrix(1.05 0 0 1 145.4248 138.3896)" font-family="'SiemensSans-Roman'" font-size="2.6301">F1</text>
		<text transform="matrix(1.05 0 0 1 147.9404 138.3896)" font-family="'SiemensSans-Roman'" font-size="2.6301">6</text>
		<text transform="matrix(1.05 0 0 1 165.3789 138.3896)" font-family="'SiemensSans-Roman'" font-size="2.6301">F1</text>
		<text transform="matrix(1.05 0 0 1 167.8945 138.3896)" font-family="'SiemensSans-Roman'" font-size="2.6301">7</text>
		<text transform="matrix(1.05 0 0 1 185.333 138.3896)" font-family="'SiemensSans-Roman'" font-size="2.6301">F1</text>
		<text transform="matrix(1.05 0 0 1 187.8486 138.3896)" font-family="'SiemensSans-Roman'" font-size="2.6301">8</text>
		<text transform="matrix(1.05 0 0 1 45.6543 154.3638)" font-family="'SiemensSans-Roman'" font-size="2.6301">F1</text>
		<text transform="matrix(1.05 0 0 1 48.1699 154.3638)" font-family="'SiemensSans-Roman'" font-size="2.6301">9</text>
		<text transform="matrix(1.05 0 0 1 65.6084 154.3638)" font-family="'SiemensSans-Roman'" font-size="2.6301">F2</text>
		<text transform="matrix(1.05 0 0 1 68.4756 154.3638)" font-family="'SiemensSans-Roman'" font-size="2.6301">0</text>
		<text transform="matrix(1.05 0 0 1 85.4565 154.3638)" font-family="'SiemensSans-Roman'" font-size="2.6301">F2</text>
		<text transform="matrix(1.05 0 0 1 88.3237 154.3638)" font-family="'SiemensSans-Roman'" font-size="2.6301">1</text>
		<text transform="matrix(1.05 0 0 1 105.5166 154.3638)" font-family="'SiemensSans-Roman'" font-size="2.6301">F2</text>
		<text transform="matrix(1.05 0 0 1 108.3838 154.3638)" font-family="'SiemensSans-Roman'" font-size="2.6301">2</text>
		<text transform="matrix(1.05 0 0 1 125.4707 154.3638)" font-family="'SiemensSans-Roman'" font-size="2.6301">F2</text>
		<text transform="matrix(1.05 0 0 1 128.3379 154.3638)" font-family="'SiemensSans-Roman'" font-size="2.6301">3</text>
		<text transform="matrix(1.05 0 0 1 145.2251 154.3638)" font-family="'SiemensSans-Roman'" font-size="2.6301">F2</text>
		<text transform="matrix(1.05 0 0 1 148.0923 154.3638)" font-family="'SiemensSans-Roman'" font-size="2.6301">4</text>
		<text transform="matrix(1.05 0 0 1 165.396 154.3638)" font-family="'SiemensSans-Roman'" font-size="2.6301">F2</text>
		<text transform="matrix(1.05 0 0 1 168.2632 154.3638)" font-family="'SiemensSans-Roman'" font-size="2.6301">5</text>
		<text transform="matrix(1.05 0 0 1 185.333 154.3638)" font-family="'SiemensSans-Roman'" font-size="2.6301">F2</text>
		<text transform="matrix(1.05 0 0 1 188.2002 154.3638)" font-family="'SiemensSans-Roman'" font-size="2.6301">6</text>
	</g>
	<g id="Name_2_">
		<text transform="matrix(0.9964 0 0 1 167.0869 16.3071)" fill="#FFFFFF" font-family="'SiemensSans-Roman'" font-size="6.2088">SIMATIC HMI</text>
	</g>
	<g>
		<text transform="matrix(1.05 0 0 1 242.6025 36.916)" font-family="'SiemensSans-Bold'" font-size="2.7986">ABC</text>
		<text transform="matrix(1.05 0 0 1 254.8525 36.916)" font-family="'SiemensSans-Bold'" font-size="2.7986">DEF</text>
		<text transform="matrix(1.05 0 0 1 242.6025 49.2031)" font-family="'SiemensSans-Bold'" font-size="2.7986">JKL</text>
		<text transform="matrix(1.05 0 0 1 230.3369 49.2031)" font-family="'SiemensSans-Bold'" font-size="2.7986">GHI</text>
		<text transform="matrix(1.05 0 0 1 254.8525 49.2031)" font-family="'SiemensSans-Bold'" font-size="2.7986">MNO</text>
		<text transform="matrix(1.05 0 0 1 242.6025 61.5645)" font-family="'SiemensSans-Bold'" font-size="2.7986">TUV</text>
		<text transform="matrix(1.05 0 0 1 230.3369 61.5645)" font-family="'SiemensSans-Bold'" font-size="2.7986">PQRS</text>
		<text transform="matrix(1.05 0 0 1 233.2754 73.7568)" font-family="'SiemensSans-Bold'" font-size="2.7986">a/A</text>
		<text transform="matrix(1.05 0 0 1 242.6025 73.7568)" font-family="'SiemensSans-Bold'" font-size="2.7986">+</text>
		<text transform="matrix(1.05 0 0 1 247.3799 73.7568)" font-family="'SiemensSans-Bold'" font-size="2.7986">/=</text>
		<text transform="matrix(1.05 0 0 1 254.8525 61.5645)" font-family="'SiemensSans-Bold'" font-size="2.7986">WXYZ</text>
		<text transform="matrix(0.9595 0 0 1 233.96 37.0576)" font-family="'SiemensSans-Bold'" font-size="2.6053">@</text>
		<text transform="matrix(0.6263 0 0 1 233.1309 37.1831)" font-family="'SiemensSans-Bold'" font-size="3.2682">\</text>
		<text transform="matrix(1.05 0 0 1 245.5059 74.7012)" font-family="'SiemensSans-Bold'" font-size="3.2346">*</text>
		<text transform="matrix(0.9224 0 0 1 244.3701 73.7256)" font-family="'SiemensSans-Bold'" font-size="2.3961">–</text>
		<text transform="matrix(1.05 0 0 1 235.0723 114.0562)" fill="#FFFFFF" font-family="'SiemensSans-Bold'" font-size="3.5">SHIFT</text>
		<text transform="matrix(1.05 0 0 1 248.3213 114.0562)" font-family="'SiemensSans-Bold'" font-size="3.5">CTRL</text>
		<text transform="matrix(1.05 0 0 1 261.5723 114.0562)" font-family="'SiemensSans-Bold'" font-size="3.5">ALT</text>
		<text transform="matrix(1.05 0 0 1 273.0605 114.7227)" fill="#00A333" font-family="'SiemensSans-Bold'" font-size="3.5">ENTER </text>
		<text transform="matrix(1.05 0 0 1 274.1914 76.2524)" font-family="'SiemensSans-Bold'" font-size="3.5">HELP</text>
		<text transform="matrix(1.05 0 0 1 275.0801 88.2202)" font-family="'SiemensSans-Bold'" font-size="3.5">ESC</text>
		<text transform="matrix(1.05 0 0 1 274.7109 100.188)" fill="#F9D300" font-family="'SiemensSans-Bold'" font-size="3.5">ACK</text>
		<text transform="matrix(1.05 0 0 1 244.8828 95.7349)" font-family="'SiemensSans-Bold'" font-size="3.5">TAB</text>
		<text transform="matrix(1.05 0 0 1 256.9668 93.9399)" fill="#FFFFFF" font-family="'SiemensSans-Bold'" font-size="3.5">INS</text>
		<text transform="matrix(1.05 0 0 1 256.9668 97.4702)" font-family="'SiemensSans-Bold'" font-size="3.5">DEL</text>
		<text transform="matrix(1.0777 0 0 1 236.1953 37.0781)" font-family="'SiemensSans-Bold'" font-size="2.7568">#</text>
		<polygon points="232.9,37.1 230.5,37.1 230.5,36.2 230.8,36.2 230.8,36.9 232.7,36.9 232.7,36.2 232.9,36.2 		"/>
		<g>
			<rect x="233.9" y="94.5" width="5.1" height="0.4"/>
			<polyline fill-rule="evenodd" clip-rule="evenodd" points="234.2,94.7 234.2,93.7 232.1,94.7 234.2,95.7 234.2,94.7 			"/>
		</g>
		<text transform="matrix(1.05 0 0 1 234.6768 41.6963)" font-family="'SiemensSans-Bold'" font-size="4">1</text>
		<text transform="matrix(1.05 0 0 1 246.874 41.6963)" font-family="'SiemensSans-Bold'" font-size="4">2</text>
		<text transform="matrix(1.05 0 0 1 259.0713 41.6963)" font-family="'SiemensSans-Bold'" font-size="4">3</text>
		<text transform="matrix(1.05 0 0 1 234.6768 53.9668)" font-family="'SiemensSans-Bold'" font-size="4">4</text>
		<text transform="matrix(1.05 0 0 1 246.874 53.9668)" font-family="'SiemensSans-Bold'" font-size="4">5</text>
		<text transform="matrix(1.05 0 0 1 259.0713 53.9668)" font-family="'SiemensSans-Bold'" font-size="4">6</text>
		<text transform="matrix(1.05 0 0 1 234.6768 66.2373)" font-family="'SiemensSans-Bold'" font-size="4">7</text>
		<text transform="matrix(1.05 0 0 1 246.874 66.2373)" font-family="'SiemensSans-Bold'" font-size="4">8</text>
		<text transform="matrix(1.05 0 0 1 259.0713 66.2373)" font-family="'SiemensSans-Bold'" font-size="4">9</text>
		<text transform="matrix(1.05 0 0 1 246.874 78.5078)" font-family="'SiemensSans-Bold'" font-size="4">0</text>
		<text transform="matrix(1.05 0 0 1 234.8623 78.8018)" font-family="'SiemensSans-Bold'" font-size="5.2878">-</text>
		<text transform="matrix(1.05 0 0 1 259.752 78.2656)" font-family="'SiemensSans-Bold'" font-size="4">.</text>
		<text transform="matrix(0.9258 0 0 1 274.6895 139.7788)" fill="#FFFFFF" font-family="'SiemensSans-Bold'" font-size="3">HOME</text>
		<text transform="matrix(0.9258 0 0 1 276.2285 158.3442)" fill="#FFFFFF" font-family="'SiemensSans-Bold'" font-size="3">END</text>
		<text transform="matrix(1.05 0 0 1 255.5518 75.6338)" font-family="'SiemensSans-Bold'" font-size="2.998"></text>
		<rect x="255.2" y="73.5" width="0.3" height="0.3"/>
	</g>
</g>
</svg>
