<?xml version="1.0" encoding="utf-8"?>

<!-- Copyright 2016 Siemens AG -->

<!-- Generator: Adobe Illustrator 16.0.4, SVG Export Plug-In . SVG Version: 6.00 Build 0)  -->
<!DOCTYPE svg PUBLIC "-//W3C//DTD SVG 1.1//EN" "http://www.w3.org/Graphics/SVG/1.1/DTD/svg11.dtd">
<svg version="1.1" id="SIMATIC_x5F_MOBILE_x5F_HMI_x5F_KTP700_x5F_Failsafe"
	 xmlns="http://www.w3.org/2000/svg" xmlns:xlink="http://www.w3.org/1999/xlink" x="0px" y="0px" width="300px" height="235px"
	 viewBox="0 0 300 235" enable-background="new 0 0 300 235" xml:space="preserve">
<path id="path7" fill="#707070" d="M297.9,114.6c0-5.5-0.1-10.9-0.3-16.5c-0.1-4.9-0.4-10-0.6-14.9c-3-38.7-3-38.7-3-38.7l0,0
	c0-0.1,0-0.1,0-0.1l0,0c0-0.1-0.1-0.2-0.1-0.3c0-0.8-0.1-1.6-0.2-2.4c-0.1-0.5-0.1-0.5-0.1-0.5c-0.1-1-0.5-2.1-1-2.9
	c-0.4-1-1.2-1.8-1.9-2.5c-0.7-0.7-1.7-1.3-2.6-1.7c-0.4-0.2-0.9-0.4-1.5-0.5c-0.4-0.1-0.9-0.2-1.6-0.2c-26.1-2.4-52.4-4.1-78.6-5
	c0-6.1,0-6.1,0-6.1c0-0.9-0.1-2-0.3-2.9c0-0.4-0.1-0.9-0.2-1.5c0-0.4-0.2-0.8-0.3-1.3c-0.1-0.4-0.2-0.7-0.4-1.2
	c-0.1-0.3-0.3-0.6-0.5-0.9c-0.2-0.3-0.4-0.5-0.5-0.8c-0.2-0.2-0.5-0.4-0.6-0.6c-0.1,0-0.1,0-0.1,0c-2-1.7-4-3.3-6.1-4.6
	c-1-0.7-2.1-1.4-3.1-1.9c-0.5-0.3-1-0.5-1.6-0.8c-0.5-0.3-1.1-0.5-1.6-0.8c-0.1,0-0.1,0-0.1,0c-0.3-0.1-0.6-0.3-0.9-0.3
	c-0.2,0-0.3-0.1-0.5-0.1c-0.1,0-0.2,0-0.3,0c-0.1,0-0.1,0-0.2,0c-0.2,0-0.2,0-0.2,0c-10.2,0-10.2,0-10.2,0l0,0c-0.3,0-0.5,0-0.7,0
	c-0.2,0.1-0.4,0.1-0.7,0.2c-0.1,0.1-0.4,0.2-0.6,0.3c-0.2,0.1-0.4,0.2-0.6,0.4c-0.4,0.3-0.8,0.7-1.2,1.2c-0.4,0.5-0.7,1.1-1,1.7
	c-0.4,0.6-0.7,1.4-0.9,2.1c-0.3,0.7-0.5,1.6-0.8,2.4c-0.2,0.9-0.4,1.9-0.5,2.8c-0.2,0.9-0.3,2-0.4,2.9c0,0.7-0.3,1.4-0.6,2
	c-0.1,0.3-0.3,0.6-0.5,0.8c-0.1,0.2-0.2,0.3-0.3,0.4c-0.1,0.1-0.3,0.3-0.4,0.3c-0.5,0.5-1,0.7-1.6,0.9c-0.3,0.2-0.6,0.2-0.9,0.3
	c-0.2,0-0.3,0-0.5,0s-0.3,0-0.5,0c-10.1-0.1-20.3-0.1-30.4,0c-0.6,0-1.3-0.1-1.9-0.3c-0.3-0.1-0.5-0.2-0.8-0.3
	c-0.1-0.1-0.3-0.2-0.4-0.3c-0.1-0.1-0.2-0.2-0.4-0.3c-0.5-0.4-0.9-0.9-1.3-1.6c-0.1-0.3-0.3-0.6-0.4-0.9c0-0.2-0.1-0.3-0.1-0.5
	c-0.1-0.1-0.1-0.3-0.1-0.5c-0.1-0.9-0.2-2-0.3-2.9c-0.2-0.9-0.4-1.9-0.6-2.8c-0.2-0.8-0.5-1.7-0.7-2.4c-0.3-0.7-0.6-1.5-1-2.1
	c-0.2-0.6-0.6-1.2-1.1-1.7c-0.3-0.4-0.6-0.8-1.2-1.2c-0.2-0.2-0.4-0.3-0.6-0.4c-0.2-0.1-0.4-0.2-0.6-0.3c-0.3-0.1-0.4-0.1-0.7-0.2
	c-0.2,0-0.4,0-0.7,0c-10.2,0-10.2,0-10.2,0c-0.1,0-0.1,0-0.1,0c-0.3,0-0.6,0-1,0.1c-0.2,0-0.3,0-0.5,0.1c-0.1,0.1-0.2,0.1-0.2,0.1
	c-0.1,0-0.2,0.1-0.3,0.1s-0.1,0-0.1,0c-2.1,1-4.1,2.2-6.2,3.5c-1.1,0.7-2.1,1.5-3,2.3c-0.5,0.3-1,0.7-1.6,1c-0.5,0.5-1,0.8-1.6,1.4
	l0,0c-0.2,0.2-0.5,0.4-0.6,0.6c-0.2,0.3-0.4,0.5-0.6,0.8c-0.2,0.3-0.3,0.6-0.5,0.9c-0.1,0.4-0.2,0.7-0.3,1.2
	c-0.2,0.4-0.3,0.8-0.4,1.3c-0.1,0.5-0.2,1-0.2,1.5c-0.1,0.5-0.2,0.9-0.2,1.5c0,0.4,0,0.9,0,1.5c0,6.1,0,6.1,0,6.1
	c-26.4,0.9-52.6,2.6-78.7,5c-1,0-2,0.2-3,0.7c-0.9,0.3-1.9,0.9-2.6,1.7c-0.7,0.7-1.4,1.5-1.9,2.5c-0.2,0.4-0.4,0.8-0.6,1.4
	c-0.2,0.5-0.3,1-0.4,1.6c0,0.1,0,0.2,0,0.4c-0.1,0.1-0.1,0.1-0.1,0.1c0,0.8-0.1,1.6-0.2,2.4c0,0.8,0,0.8,0,0.8V45v0.1
	c0.1,0.1,0.1,0.2,0.1,0.3c0.1,0.3,0.1,0.6,0.2,1c0,0.4,0.1,0.7,0.2,1.2c0,0.4,0,0.8,0.1,1.4C6.9,49.8,7,50.7,7,51.6
	c0.1,0.9,0.1,1.8,0.2,2.7c0.1,3.5,0.1,6.9-0.2,10.4c-0.1,1.7-0.3,3.4-0.5,5c-0.3,1.7-0.5,3.4-0.9,4.9c-0.1,0.8-0.3,1.6-0.5,2.4
	c-0.2,0.8-0.4,1.6-0.6,2.2c-0.1,0.4-0.2,0.7-0.3,1.1c-0.1,0.3-0.2,0.5-0.3,0.8c-0.1,0.2-0.2,0.5-0.2,0.6c-0.1,0.1-0.2,0.2-0.2,0.3
	l0,0c0,0.1-0.1,0.1-0.1,0.1c-0.1,0.4-0.1,0.4-0.1,0.4c-0.1,0,0,0.1-0.1,0.2c0,0.1,0,0.2,0,0.3c-2.2,42.9-0.8,85.4,4.2,128
	c0.1,1.2,0.4,2.2,0.7,3.3c0.3,1.1,0.6,2,1.2,2.9c0.4,1.1,1,2,1.7,2.8c0.6,0.8,1.4,1.7,2.1,2.4c0.8,0.7,1.6,1.5,2.5,2
	c0.9,0.6,1.9,1.2,2.8,1.6c1.1,0.5,2,0.8,3,1.2c1.2,0.2,2.2,0.4,3.3,0.5c84,7,167,7,250.9,0c1.2-0.1,2.2-0.3,3.3-0.5
	c1.2-0.3,2.1-0.6,3-1.2c1-0.4,2-0.9,2.8-1.6c0.9-0.6,1.8-1.3,2.5-2c0.8-0.7,1.6-1.6,2.2-2.5c0.6-0.8,1.2-1.8,1.7-2.7
	c0.5-0.9,0.8-2,1.2-2.9c0.3-1,0.5-2.1,0.6-3.3l0,0c2.5-21.2,4.2-42.6,4.9-64C297.9,136.3,298.1,125.4,297.9,114.6z M293.6,45.8
	c0,0.1,0,0.2,0,0.3c0,0.2-0.1,0.4-0.1,0.6c0-0.1,0-0.2,0-0.3C293.6,46.3,293.6,46,293.6,45.8z"/>
<path id="path25" d="M203.9,36.4c0,0,0,0-0.1,0c-35.8-1.3-71.6-1.3-107.5,0c0,0,0,0-0.1,0c-2.3-0.2-2.3-0.2-2.3-0.2
	c0-14.1,0-14.1,0-14.1c0-0.5,0-1,0-1.5c0-0.5,0.1-0.9,0.2-1.5c0-0.4,0.1-0.9,0.2-1.5c0.1-0.4,0.2-0.8,0.4-1.3
	c0.1-0.4,0.2-0.7,0.3-1.2c0.2-0.3,0.3-0.6,0.5-0.9c0.2-0.3,0.4-0.5,0.6-0.8c0.1-0.2,0.4-0.4,0.6-0.6l0,0c0.5-0.5,1-0.8,1.6-1.4
	c0.5-0.3,1.1-0.7,1.6-1c0.9-0.8,2-1.6,3-2.3c2.1-1.3,4.1-2.4,6.2-3.5c0.1,0,0.1,0,0.1,0c0.1,0,0.2-0.1,0.3-0.1c0,0,0.1,0,0.2-0.1
	c0.2-0.1,0.3-0.1,0.5-0.1c0.4-0.1,0.7-0.1,1-0.1c0.1,0,0.1,0,0.1,0c10.2,0,10.2,0,10.2,0c0.3,0,0.5,0,0.7,0c0.3,0.1,0.4,0.1,0.7,0.2
	c0.2,0.1,0.4,0.2,0.6,0.3c0.2,0.1,0.4,0.2,0.6,0.4c0.5,0.3,0.8,0.7,1.2,1.2c0.4,0.5,0.8,1.1,1.1,1.7c0.4,0.6,0.7,1.4,1,2.1
	c0.2,0.7,0.5,1.6,0.7,2.4c0.2,0.9,0.4,1.9,0.6,2.8c0.1,0.9,0.2,2,0.3,2.9c0,0.2,0,0.4,0.1,0.5c0,0.2,0.1,0.3,0.1,0.5
	c0.1,0.3,0.3,0.6,0.4,0.9c0.3,0.6,0.7,1.2,1.3,1.6c0.2,0.1,0.3,0.2,0.4,0.3c0.1,0.1,0.3,0.2,0.4,0.3c0.3,0.1,0.5,0.2,0.8,0.3
	c0.6,0.2,1.3,0.3,1.9,0.3c10.2-0.1,20.4-0.1,30.4,0c0.2,0,0.3,0,0.5,0s0.3,0,0.5,0c0.3-0.1,0.6-0.1,0.9-0.3c0.5-0.2,1.1-0.4,1.6-0.9
	c0.1,0,0.3-0.2,0.4-0.3c0.1-0.1,0.2-0.2,0.3-0.4c0.2-0.2,0.4-0.5,0.5-0.8c0.3-0.6,0.6-1.3,0.6-2c0.1-0.9,0.2-2,0.4-2.9
	c0.1-0.9,0.3-1.9,0.5-2.8c0.3-0.8,0.5-1.7,0.8-2.4c0.2-0.7,0.5-1.5,0.9-2.1c0.3-0.6,0.6-1.2,1-1.7c0.3-0.4,0.7-0.8,1.2-1.2
	c0.2-0.2,0.4-0.3,0.6-0.4c0.2-0.1,0.5-0.2,0.6-0.3c0.3-0.1,0.5-0.1,0.7-0.2c0.2,0,0.4,0,0.7,0l0,0c10.2,0,10.2,0,10.2,0
	c0.2,0,0.2,0,0.2,0c0.1,0,0.1,0,0.2,0c0.1,0,0.2,0,0.3,0c0.2,0,0.3,0.1,0.5,0.1c0.3,0,0.6,0.2,0.9,0.3c0.1,0,0.1,0,0.1,0
	c0.5,0.3,1.1,0.5,1.6,0.8c0.5,0.3,1,0.5,1.6,0.8c1.1,0.5,2.1,1.2,3.1,1.9c2.1,1.4,4.1,2.9,6.1,4.6c0.1,0,0.1,0,0.1,0
	c0.1,0.2,0.4,0.4,0.6,0.6c0.1,0.3,0.3,0.5,0.5,0.8c0.2,0.3,0.4,0.6,0.5,0.9c0.2,0.4,0.3,0.7,0.4,1.2c0.1,0.4,0.3,0.8,0.3,1.3
	c0.1,0.5,0.2,1,0.2,1.5c0.2,0.9,0.3,2,0.3,2.9c0,14.1,0,14.1,0,14.1L203.9,36.4z"/>
<path id="path27" fill="#AAAAA9" d="M20.7,66.6c0.3-3,0.6-6,0.9-8.9c0.2-1.6,0.3-3,0.5-4.5c0.1-0.7,0.1-1.5,0.3-2.2
	c0.1-0.7,0.7-1.3,1.6-1.4l0,0c18.9-1.6,37.7-2.7,56.6-3.7c18.9-0.7,37.8-1.3,56.7-1.5c38.1-0.3,76.2,0.8,114.2,3.4
	c8.2,0.5,16.4,1.2,24.5,1.8c0.1,0,0.2,0,0.2,0l0,0h0.1c0,0,0,0,0.1,0c0,0.1,0.1,0.1,0.1,0.1c0.1,0,0.1,0,0.2,0
	c0.1,0.1,0.1,0.1,0.2,0.2c0.1,0.1,0.2,0.2,0.3,0.3c0.1,0,0.2,0.1,0.2,0.2c0,0,0,0.1,0.1,0.1c0,0.1,0,0.2,0,0.2l0.1,0.1
	c0,0.1,0,0.1,0,0.2l0,0c0.1,0.1,0.1,0.1,0.1,0.2s0,0.1,0,0.2c0,0.1,0,0.2,0,0.3c0,0.2,0,0.3,0.1,0.4c0,0.1,0,0.2,0,0.4
	c0,0.1,0,0.2,0,0.3s0.1,0.3,0.1,0.4c0,0.2,0.1,0.4,0.1,0.6c0,0.2,0,0.5,0.1,0.8c0,0.1,0,0.3,0.1,0.5l0,0c0,0.3,0,0.5,0,0.7
	c0.1,0.4,0.1,0.8,0.1,1.2c0.1,0.5,0.2,0.9,0.2,1.5c0.1,0.5,0.1,1,0.2,1.7c0,0.6,0.1,1.3,0.2,2c0.1,1.4,0.3,2.8,0.4,4.2
	c0.2,2,0.2,2,0.2,2c0.6,6.2,1.2,12.3,1.7,18.5c0.4,6,0.8,12,1.2,18.1c0.1,3,0.3,6.2,0.4,9.2c0,1.4,0.1,2.6,0.2,4.1
	c0,1.4,0.1,2.8,0.1,4.2c0.2,5.6,0.2,11.1,0.2,16.8c0,10.9-0.4,21.8-1,32.8c-0.8,11.4-1.9,22.9-3.4,34.3l0,0
	c-0.1,0.6-0.2,1.2-0.3,1.8c0,0.3,0,0.6-0.1,0.9c0,0.2,0,0.4,0,0.6c0,0,0,0.1-0.1,0.2c0,0.1,0,0.2,0,0.2c-0.1,0.2-0.1,0.4-0.1,0.5
	c-0.3,0.9-0.7,1.8-1.4,2.5c-0.3,0.5-0.6,0.9-1.1,1.4c-0.4,0.2-0.8,0.5-1.4,0.8c-0.4,0.3-0.9,0.5-1.5,0.7c-0.3,0.1-0.6,0.1-0.9,0.2
	c-0.2,0.1-0.4,0.1-0.6,0.1h-0.1c-0.1,0-0.2,0-0.2,0c-0.1,0-0.1,0-0.2,0c-0.5,0.1-1.2,0.1-1.7,0.1c-0.6,0.1-1.2,0.2-1.8,0.2
	c-0.8,0.1-1.8,0.1-2.6,0.2c-0.8,0.1-1.7,0.1-2.5,0.2c-1.7,0.1-3.5,0.2-5.4,0.3c-2,0.2-4.1,0.3-6.2,0.5c-2.6,0.1-5.4,0.3-8,0.4
	c-10.1,0.6-20.3,1.2-30.3,1.7c-20.4,0.7-40.6,1.2-61,1.2c-20.5,0.1-40.9-0.3-61.4-1.2c-10.3-0.3-20.5-0.8-30.7-1.5
	c-5.4-0.3-10.6-0.6-16-1c-1.2-0.1-2.3-0.2-3.5-0.2l0,0c-1.5-0.2-3-0.3-4.5-0.4c-1.5-0.1-3-0.2-4.5-0.3c-0.8-0.1-1.7-0.1-2.5-0.2
	c-0.1,0-0.2,0-0.3,0h-0.1c-0.2-0.1-0.3-0.1-0.4-0.2c-0.1,0-0.2,0-0.4,0c-0.1-0.1-0.2-0.1-0.3-0.1c-0.2-0.1-0.4-0.2-0.6-0.2
	c-0.1-0.1-0.3-0.2-0.4-0.2c-0.1-0.1-0.2-0.1-0.2-0.2c-0.1,0-0.2-0.1-0.3-0.1c-0.1-0.1-0.2-0.1-0.3-0.2c-0.1-0.1-0.2-0.2-0.3-0.2
	c-0.3-0.2-0.4-0.3-0.7-0.5c-0.2-0.2-0.3-0.4-0.5-0.6c-0.1-0.2-0.3-0.4-0.5-0.6c-0.1-0.1-0.2-0.3-0.4-0.6c-0.1-0.1-0.2-0.3-0.3-0.6
	c-0.2-0.4-0.3-0.8-0.4-1.3c-0.2-0.3-0.2-0.6-0.3-0.9c0-0.1,0-0.2,0-0.2c0-0.4-0.1-0.8-0.2-1.4c0-0.6-0.1-1.2-0.2-1.8l0,0
	c-3.9-30-5.1-59.7-4-90l0,0c0.6-16,1.7-31.8,3.3-47.7L20.7,66.6z"/>
<path id="path29" fill="#72899B" d="M20.8,65.7c-2.8,24.8-4.2,48.4-4.1,72.2c0,23.8,1.6,46.4,4.5,69.2c257.7,0,257.7,0,257.7,0
	c2.9-22.8,4.4-45.4,4.5-69.2c0-23.8-1.3-47.5-4.1-72.2H20.8z"/>
<path id="path31" d="M49.1,64.1h201.8v129.1H49.1V64.1L49.1,64.1z"/>
<path id="path33" fill="#FFFFFF" d="M150,73.3c-90.4,0-90.4,0-90.4,0c-0.6,0-1.2,0.5-1.2,1.3c0,108.1,0,108.1,0,108.1
	c0,0.7,0.5,1.3,1.2,1.3c180.9,0,180.9,0,180.9,0c0.6,0,1.2-0.5,1.2-1.3c0-108.1,0-108.1,0-108.1c0-0.7-0.5-1.3-1.2-1.3
	C150,73.3,150,73.3,150,73.3z"/>
<g>
	<path id="path35" fill="#AAAAA9" d="M35.1,76.8h-8.3v1.3h15.4v15.4h1.2V76.8H35.1L35.1,76.8z"/>
	<path id="path39" fill="#AAAAA9" d="M35.1,98.5h-8.3v1.3h15.4v15.4h1.2V98.5H35.1L35.1,98.5z"/>
	<path id="path43" fill="#AAAAA9" d="M35.1,120.4h-8.3v1.2h15.4v15.5h1.2v-16.7H35.1L35.1,120.4z"/>
	<path id="path47" fill="#AAAAA9" d="M35.1,142.1h-8.3v1.2h15.4v15.5h1.2v-16.7H35.1L35.1,142.1z"/>
	<path id="path51" fill="#AAAAA9" d="M265,76.8h8.3v1.3h-15.4v15.4h-1.3V76.8H265L265,76.8z"/>
	<path id="path55" fill="#AAAAA9" d="M265,98.5h8.3v1.3h-15.4v15.4h-1.3V98.5H265L265,98.5z"/>
	<path id="path59" fill="#AAAAA9" d="M265,120.4h8.3v1.2h-15.4v15.5h-1.3v-16.7H265L265,120.4z"/>
	<path id="path63" fill="#AAAAA9" d="M265,142.1h8.3v1.2h-15.4v15.5h-1.3v-16.7H265L265,142.1z"/>
</g>
<path id="path67" d="M20.6,67.1l0.3-3h258.4l0.2,3H20.6z"/>
<g>
	<path id="path69" fill="#ECE7E2" d="M29.5,188.3h11.3v11.3H29.5V188.3L29.5,188.3z"/>
	<path id="path71" fill="#ECE7E2" d="M259.3,188.3h11.2v11.3h-11.2V188.3L259.3,188.3z"/>
</g>
<g>
	<path id="path37" fill="#ECE7E2" d="M40.5,73.9h2.9v2.9h-2.9V73.9L40.5,73.9z"/>
	<path id="path41" fill="#ECE7E2" d="M40.5,95.6h2.9v2.9h-2.9V95.6L40.5,95.6z"/>
	<path id="path45" fill="#ECE7E2" d="M40.5,117.3h2.9v3h-2.9V117.3L40.5,117.3z"/>
	<path id="path53" fill="#ECE7E2" d="M256.6,73.9h3v2.9h-3V73.9L256.6,73.9z"/>
	<path id="path57" fill="#ECE7E2" d="M256.6,95.6h3v2.9h-3V95.6L256.6,95.6z"/>
	<path id="path61" fill="#ECE7E2" d="M256.6,117.3h3v3h-3V117.3L256.6,117.3z"/>
	<path id="path65" fill="#ECE7E2" d="M256.6,139.2h3v2.9h-3V139.2L256.6,139.2z"/>
	<path id="path125" fill="#ECE7E2" d="M40.5,139.2h2.9v2.9h-2.9V139.2L40.5,139.2z"/>
</g>
<g>
	
		<path id="path147" fill="none" stroke="#000000" stroke-width="0.15" stroke-linecap="round" stroke-linejoin="round" stroke-miterlimit="10" d="
		M35.1,185.9c-7.5,0-7.5,0-7.5,0c-0.3,0-0.6,0.3-0.6,0.6c0,14.9,0,14.9,0,14.9c0,0.3,0.3,0.6,0.6,0.6c14.9,0,14.9,0,14.9,0
		c0.3,0,0.6-0.3,0.6-0.6c0-14.9,0-14.9,0-14.9c0-0.3-0.3-0.6-0.6-0.6H35.1z"/>
	
		<path id="path149" fill="none" stroke="#000000" stroke-width="0.15" stroke-linecap="round" stroke-linejoin="round" stroke-miterlimit="10" d="
		M35.1,187.7c-5.7,0-5.7,0-5.7,0c-0.3,0-0.6,0.3-0.6,0.6c0,11.3,0,11.3,0,11.3c0,0.3,0.3,0.6,0.6,0.6c11.3,0,11.3,0,11.3,0
		c0.3,0,0.6-0.3,0.6-0.6c0-11.3,0-11.3,0-11.3c0-0.3-0.3-0.6-0.6-0.6H35.1z"/>
	
		<path id="path151" fill="none" stroke="#000000" stroke-width="0.15" stroke-linecap="round" stroke-linejoin="round" stroke-miterlimit="10" d="
		M35.1,185.4c-7.5,0-7.5,0-7.5,0c-0.6,0-1.2,0.5-1.2,1.2c0,14.9,0,14.9,0,14.9c0,0.6,0.5,1.2,1.2,1.2c14.9,0,14.9,0,14.9,0
		c0.6,0,1.2-0.5,1.2-1.2c0-14.9,0-14.9,0-14.9c0-0.6-0.5-1.2-1.2-1.2H35.1z"/>
	
		<path id="path153" fill="none" stroke="#000000" stroke-width="0.15" stroke-linecap="round" stroke-linejoin="round" stroke-miterlimit="10" d="
		M264.9,185.9c-7.5,0-7.5,0-7.5,0c-0.3,0-0.5,0.3-0.5,0.6c0,14.9,0,14.9,0,14.9c0,0.3,0.2,0.6,0.5,0.6c14.9,0,14.9,0,14.9,0
		c0.3,0,0.6-0.3,0.6-0.6c0-14.9,0-14.9,0-14.9c0-0.3-0.3-0.6-0.6-0.6H264.9z"/>
	
		<path id="path155" fill="none" stroke="#000000" stroke-width="0.15" stroke-linecap="round" stroke-linejoin="round" stroke-miterlimit="10" d="
		M264.9,187.7c-5.7,0-5.7,0-5.7,0c-0.3,0-0.5,0.3-0.5,0.6c0,11.3,0,11.3,0,11.3c0,0.3,0.2,0.6,0.5,0.6c11.3,0,11.3,0,11.3,0
		c0.3,0,0.6-0.3,0.6-0.6c0-11.3,0-11.3,0-11.3c0-0.3-0.3-0.6-0.6-0.6H264.9z"/>
	
		<path id="path157" fill="none" stroke="#000000" stroke-width="0.15" stroke-linecap="round" stroke-linejoin="round" stroke-miterlimit="10" d="
		M264.9,185.4c-7.3,0-7.3,0-7.3,0c-0.7,0-1.3,0.5-1.3,1.2c0,14.9,0,14.9,0,14.9c0,0.6,0.5,1.2,1.3,1.2c14.8,0,14.8,0,14.8,0
		c0.6,0,1.2-0.5,1.2-1.2c0-14.9,0-14.9,0-14.9c0-0.6-0.5-1.2-1.2-1.2H264.9z"/>
</g>
<path id="path201" fill="none" stroke="#404040" stroke-width="0.6299" stroke-linecap="round" stroke-linejoin="round" stroke-miterlimit="10" d="
	M22.7,42.3c-4.2,0.4-7.8,3.4-8.3,7.7c-7,53.4-8.3,106.1-3.9,159.8c0.1,1.2,0.2,2.1,0.5,3.1c0.2,0.9,0.6,2,1,2.9
	c0.8,1.9,2,3.7,3.6,5.1c1.4,1.5,3.1,2.7,5.1,3.7c0.9,0.3,2,0.7,2.9,0.9c1,0.3,2,0.4,3,0.5c82.5,6.8,164.1,6.8,246.5,0
	c1-0.1,2.1-0.2,3.1-0.5c0.9-0.2,1.9-0.6,2.9-0.9c1.9-0.9,3.7-2.2,5.1-3.7c1.5-1.5,2.6-3.3,3.6-5.1c0.3-0.9,0.7-2,0.9-2.9
	c0.3-1,0.5-2,0.5-3.1c4.5-53.6,3.3-106.3-3.8-159.8c-0.6-4.3-4.2-7.2-8.4-7.7C192.2,35.3,107.9,35.3,22.7,42.3z"/>
<g>
	
		<path id="path347" fill="none" stroke="#404040" stroke-width="0.6299" stroke-linecap="round" stroke-linejoin="round" stroke-miterlimit="10" d="
		M174.7,25.5c-3.1-0.7-6.3-1.6-9.4-2.3"/>
	
		<path id="path355" fill="none" stroke="#404040" stroke-width="0.6299" stroke-linecap="round" stroke-linejoin="round" stroke-miterlimit="10" d="
		M109.6,13.6c3.7-3.1,7.6-5.8,12-7.9"/>
	
		<path id="path361" fill="none" stroke="#404040" stroke-width="0.6299" stroke-linecap="round" stroke-linejoin="round" stroke-miterlimit="10" d="
		M129.3,18.5c-0.1-1.1-0.3-2.1-0.4-3.1c-0.2-0.9-0.4-1.9-0.6-2.8c-0.3-0.8-0.5-1.7-0.8-2.4c-0.2-0.4-0.3-0.8-0.4-1.2
		c-0.2-0.3-0.4-0.6-0.5-0.9c-0.2-0.2-0.4-0.5-0.6-0.7c-0.1-0.2-0.3-0.4-0.5-0.6s-0.4-0.4-0.6-0.5c-0.1-0.2-0.4-0.3-0.6-0.4
		c-0.2-0.1-0.4-0.2-0.6-0.2s-0.4-0.1-0.6-0.1c-0.2,0.1-0.5,0.1-0.6,0.1c-0.2,0.1-0.5,0.1-0.6,0.2"/>
	
		<path id="path363" fill="none" stroke="#404040" stroke-width="0.6299" stroke-linecap="round" stroke-linejoin="round" stroke-miterlimit="10" d="
		M109.6,13.6c-0.2,0.2-0.4,0.3-0.5,0.5c-0.2,0.2-0.4,0.4-0.5,0.7c-0.2,0.3-0.3,0.6-0.4,0.9c-0.1,0.4-0.2,0.7-0.4,1.2
		c0,0.3-0.1,0.7-0.2,1.2c-0.1,0.4-0.2,0.9-0.2,1.4c-0.1,0.9-0.2,1.9-0.2,2.7c0,7,0,7,0,7"/>
	
		<path id="path371" fill="none" stroke="#404040" stroke-width="0.6299" stroke-linecap="round" stroke-linejoin="round" stroke-miterlimit="10" d="
		M131.2,22c1.2,0.8,2.2,1.2,3.6,1.2c-3.1,0.7-6.3,1.6-9.3,2.3"/>
	
		<path id="path379" fill="none" stroke="#404040" stroke-width="0.6299" stroke-linecap="round" stroke-linejoin="round" stroke-miterlimit="10" d="
		M125.4,25.5c-5.2,1.3-10,4.5-13.5,8.2c25.4-0.5,50.8-0.5,76.3,0c-3.7-3.7-8.3-6.9-13.5-8.2"/>
	
		<path id="path381" fill="none" stroke="#404040" stroke-width="0.6299" stroke-linecap="round" stroke-linejoin="round" stroke-miterlimit="10" d="
		M192.9,29.2c0,0.4,0,0.7-0.1,1c0,0.3-0.1,0.5-0.2,0.8c-0.2,0.5-0.6,1.1-0.9,1.5c-0.3,0.1-0.4,0.3-0.7,0.4c-0.2,0.2-0.5,0.3-0.8,0.4
		c-0.3,0.1-0.6,0.2-0.9,0.2c-0.3,0.1-0.6,0.1-0.9,0"/>
	
		<path id="path383" fill="none" stroke="#404040" stroke-width="0.6299" stroke-linecap="round" stroke-linejoin="round" stroke-miterlimit="10" d="
		M192.9,22.2v7"/>
	
		<path id="path385" fill="none" stroke="#404040" stroke-width="0.6299" stroke-linecap="round" stroke-linejoin="round" stroke-miterlimit="10" d="
		M192.9,22.2c0-0.4,0-0.9,0-1.4s-0.1-0.9-0.1-1.4c-0.1-0.4-0.2-0.9-0.3-1.4c0-0.4-0.1-0.8-0.2-1.2c-0.1-0.4-0.3-0.7-0.4-1.2
		c-0.1-0.3-0.2-0.6-0.4-0.9c-0.1-0.2-0.2-0.5-0.4-0.7c-0.2-0.2-0.3-0.3-0.5-0.5c-3.8-3.1-7.6-5.8-12-7.9c-0.2-0.1-0.4-0.1-0.7-0.2
		c-0.1,0-0.3,0-0.6-0.1c-0.1,0-0.4,0.1-0.6,0.1c-0.1,0-0.4,0.1-0.6,0.2c-0.2,0.1-0.4,0.2-0.6,0.4c-0.2,0.1-0.4,0.3-0.6,0.5
		c-0.2,0.2-0.3,0.4-0.5,0.6c-0.2,0.2-0.4,0.5-0.5,0.7c-0.2,0.3-0.4,0.6-0.5,0.9c-0.1,0.3-0.3,0.7-0.5,1.2c-0.2,0.7-0.5,1.6-0.7,2.4
		c-0.3,0.9-0.5,1.9-0.6,2.8c-0.2,1-0.3,2.1-0.4,3.1"/>
	
		<path id="path389" fill="none" stroke="#404040" stroke-width="0.6299" stroke-linecap="round" stroke-linejoin="round" stroke-miterlimit="10" d="
		M111.9,33.7c-0.4,0.1-0.7,0.1-1,0c-0.3,0-0.6-0.1-0.8-0.2c-0.4-0.1-0.6-0.2-0.9-0.4c-0.2-0.1-0.4-0.3-0.6-0.4
		c-0.4-0.4-0.7-0.9-1.1-1.5c-0.1-0.3-0.1-0.5-0.2-0.8s-0.1-0.6-0.1-1"/>
	
		<path id="path391" fill="none" stroke="#404040" stroke-width="0.6299" stroke-linecap="round" stroke-linejoin="round" stroke-miterlimit="10" d="
		M165.2,23.2c0.2,0,0.3,0,0.5,0s0.3,0,0.5,0c0.3-0.1,0.6-0.1,0.9-0.3c0.5-0.2,1.1-0.4,1.6-0.9c0.1,0,0.3-0.2,0.4-0.3
		c0.1-0.1,0.2-0.2,0.3-0.4c0.2-0.2,0.4-0.5,0.5-0.8c0.3-0.6,0.6-1.3,0.6-2"/>
	
		<path id="path393" fill="none" stroke="#404040" stroke-width="0.6299" stroke-linecap="round" stroke-linejoin="round" stroke-miterlimit="10" d="
		M129.3,18.3c0,0.2,0,0.4,0.1,0.5c0,0.2,0.1,0.3,0.1,0.5c0.1,0.3,0.3,0.6,0.4,0.9c0.3,0.6,0.7,1.2,1.3,1.6c0.2,0.1,0.3,0.2,0.4,0.3
		c0.1,0.1,0.3,0.2,0.4,0.3c0.3,0.1,0.5,0.2,0.8,0.3c0.6,0.2,1.3,0.3,1.9,0.3c10.2-0.1,20.4-0.1,30.4,0"/>
	
		<path id="path395" fill="none" stroke="#404040" stroke-width="0.6299" stroke-linecap="round" stroke-linejoin="round" stroke-miterlimit="10" d="
		M127.1,26.9V27c0.1,0.1,0.1,0.1,0.2,0.2c0.1,0,0.2,0.1,0.3,0.2c0.1,0,0.2,0.2,0.4,0.2c0.2,0.2,0.5,0.3,0.8,0.4
		c0.4,0.2,0.7,0.4,1.2,0.5c0.4,0.2,0.8,0.3,1.4,0.4c0.4,0.2,0.9,0.3,1.4,0.5c1.1,0.3,2.1,0.5,3.3,0.7c1.1,0.3,2.2,0.5,3.4,0.6
		c1,0.2,2.2,0.4,3.5,0.5c2.3,0.1,4.7,0.3,7.1,0.3s4.8-0.2,7.2-0.3c1.1-0.1,2.3-0.3,3.5-0.5c1-0.1,2.2-0.3,3.4-0.6
		c1.1-0.2,2.1-0.4,3.1-0.7c0.4-0.2,0.9-0.3,1.5-0.5c0.4-0.1,0.8-0.2,1.3-0.4c0.4-0.1,0.7-0.3,1.2-0.5c0.3-0.1,0.6-0.2,0.9-0.4
		c0.1,0,0.3-0.2,0.3-0.2c0.1-0.1,0.2-0.2,0.3-0.2c0.1-0.1,0.2-0.1,0.3-0.2v-0.1c0,0,0,0,0-0.1"/>
</g>
<path fill="#F5E71A" d="M166.4,22.6c-32.9,0-32.9,0-32.9,0c0,0.1,0,0.1-0.1,0.1c0,0.1-0.1,0.1-0.1,0.2c0,0,0,0.1,0.1,0.2
	c0-0.1-0.1-0.1-0.1-0.2c0,6.8,0,6.8,0,6.8s7.3,2.1,16.7,2.1c8.9,0,16.5-2.1,16.5-2.1c0-5.8,0-6.7,0-6.8c0,0,0,0,0,0
	c0-0.1,0-0.1,0-0.2C166.4,22.7,166.4,22.7,166.4,22.6z"/>
<path id="path407" fill="#69B42E" d="M166.4,21.2c0,1.6,0,1.6,0,1.6c0,0.4-0.6,0.6-0.9,0.7c-0.9,0.4-1.9,0.6-2.8,0.7
	c-1.4,0.2-2.8,0.4-4.2,0.5c-2.8,0.2-5.7,0.3-8.5,0.3c-2.7,0-5.6-0.1-8.4-0.3c-1.4-0.1-2.8-0.3-4.2-0.5c-0.9-0.1-1.9-0.3-2.9-0.7
	c-0.2-0.1-0.8-0.3-0.8-0.7c0-1.6,0-1.6,0-1.6H166.4z"/>
<path id="path409" fill="#D90F15" d="M171.3,7.3c0,2.9-9.6,5.4-21.3,5.4c-11.9,0-21.4-2.4-21.4-5.4c0-3,9.6-5.5,21.4-5.5
	C161.8,1.8,171.3,4.3,171.3,7.3z"/>
<path fill="#D90F15" d="M128.5,7.3v3h0.1c0,0,0,0.1-0.1,0.1l0-0.1c0,0,0,0,0,0.1c0,0,0,0,0,0c0,0.1,0,0.1,0.1,0.1
	c2.3,6.7,3,8.7,3.2,9.2c0.2,1.7,8.3,3.2,18.1,3.2c10.1,0,18.2-1.5,18.2-3.3c0,0,0-0.1,0-0.1c3.3-8.2,3.3-8.3,3.3-8.3
	c0-0.5,0-0.8,0-0.9c0-0.2,0-0.2,0-0.2V7.3H128.5z"/>
<path fill="none" stroke="#404040" stroke-width="0.5517" stroke-linecap="round" stroke-linejoin="round" stroke-miterlimit="10" d="
	M170.6,6.9C168.3,8.2,160,9.2,150,9.2c-10.1,0-18.5-1-20.6-2.4"/>
<g id="Logo">
	<g id="Logo_1_">
		<rect x="59" y="52.7" fill="#FFFFFF" width="32.5" height="7.8"/>
		<path fill="#128587" d="M58.5,61.1v-9h33.7v9H58.5z M63.8,54.5c-0.4-0.1-0.8-0.1-1.3-0.1c-0.6,0-1,0.1-1.4,0.4
			c-0.3,0.2-0.5,0.6-0.5,1c0,0.5,0.3,0.9,1,1.3l0.9,0.4c0.2,0.1,0.4,0.2,0.4,0.4c0,0.3-0.3,0.4-0.8,0.4c-0.3,0-0.8-0.1-1.4-0.3v0.9
			c0.2,0,0.5,0.1,0.8,0.1c0.3,0,0.5,0.1,0.7,0.1c0.6,0,1.1-0.1,1.4-0.4c0.4-0.3,0.5-0.6,0.5-1.1c0-0.6-0.3-1-1-1.3l-0.8-0.4
			c-0.2-0.1-0.3-0.1-0.4-0.2c-0.1-0.1-0.1-0.1-0.1-0.2c0-0.2,0.2-0.3,0.7-0.3c0.2,0,0.4,0,0.6,0c0.2,0,0.4,0.1,0.6,0.2L63.8,54.5
			L63.8,54.5z M66.1,54.4h-1.3v4.5h1.3V54.4z M70.5,54.4h-3.3v4.5h3.3v-0.8h-2V57h1.8v-0.8h-1.8v-1h2V54.4z M76.9,54.4h-1.6
			l-1.2,2.7L73,54.4h-1.6v4.5h0.9v-3l1.3,3h0.9l1.3-3v3h1.3V54.4L76.9,54.4z M81.2,54.4h-3.3v4.5h3.4v-0.8h-2.1V57H81v-0.8h-1.8v-1
			h2V54.4z M86,54.4h-0.9v2.8l-1.6-2.8H82v4.5H83V56l1.6,2.9H86V54.4z M89.9,54.5c-0.5-0.1-0.9-0.1-1.3-0.1c-0.6,0-1,0.1-1.4,0.4
			c-0.3,0.2-0.5,0.6-0.5,1c0,0.5,0.3,1,1,1.3l0.9,0.4c0.1,0.1,0.2,0.2,0.3,0.2c0,0,0.1,0.1,0.1,0.2c0,0.3-0.3,0.4-0.8,0.4
			c-0.3,0-0.8-0.1-1.4-0.3v0.9c0.2,0,0.5,0.1,0.8,0.1c0.3,0,0.6,0.1,0.7,0.1c0.6,0,1.1-0.1,1.4-0.4c0.3-0.3,0.5-0.6,0.5-1.1
			c0-0.3-0.1-0.5-0.2-0.8c-0.2-0.2-0.4-0.4-0.8-0.6l-0.8-0.4c-0.3-0.1-0.4-0.3-0.4-0.4c0-0.2,0.2-0.3,0.7-0.3c0.2,0,0.4,0,0.6,0
			c0.2,0,0.4,0.1,0.6,0.2V54.5z"/>
	</g>
</g>
<g id="Typo">
	<g id="Name_1_">
		<text transform="matrix(0.9964 0 0 1 195.8745 59.4805)" font-family="'SiemensSans-Roman'" font-size="8.4026">SIMATIC HMI</text>
	</g>
	<g>
		<text transform="matrix(1.05 0 0 1 35.6055 76.4873)" font-family="'SiemensSans-Roman'" font-size="3.7458">F1</text>
		<text transform="matrix(1.05 0 0 1 35.6055 98.2275)" font-family="'SiemensSans-Roman'" font-size="3.7458">F3</text>
		<text transform="matrix(1.05 0 0 1 35.6055 119.9683)" font-family="'SiemensSans-Roman'" font-size="3.7458">F5</text>
		<text transform="matrix(1.05 0 0 1 35.6055 141.7085)" font-family="'SiemensSans-Roman'" font-size="3.7458">F7</text>
		<text transform="matrix(1.05 0 0 1 30.5381 184.1401)" font-family="'SiemensSans-Roman'" font-size="3.7458">K1/</text>
		<text transform="matrix(1.05 0 0 1 260.4131 76.4873)" font-family="'SiemensSans-Roman'" font-size="3.7458">F2</text>
		<text transform="matrix(1.05 0 0 1 260.4131 98.2275)" font-family="'SiemensSans-Roman'" font-size="3.7458">F4</text>
		<text transform="matrix(1.05 0 0 1 260.4131 119.9683)" font-family="'SiemensSans-Roman'" font-size="3.7458">F6</text>
		<text transform="matrix(1.05 0 0 1 260.4131 141.7085)" font-family="'SiemensSans-Roman'" font-size="3.7458">F8</text>
		<text transform="matrix(1.05 0 0 1 260.3066 184.1401)" font-family="'SiemensSans-Roman'" font-size="3.7458">K2/</text>
	</g>
	<g>
		<circle fill="none" stroke="#000000" stroke-width="0.3" stroke-miterlimit="10" cx="37.7" cy="182.9" r="1.3"/>
		<line fill="none" stroke="#000000" stroke-width="0.3335" stroke-miterlimit="10" x1="37.7" y1="183.7" x2="37.7" y2="182"/>
		<circle fill="none" stroke="#000000" stroke-width="0.3" stroke-miterlimit="10" cx="267.5" cy="182.9" r="1.3"/>
		<line fill="none" stroke="#000000" stroke-width="0.3335" stroke-miterlimit="10" x1="267.5" y1="183.7" x2="267.5" y2="182"/>
	</g>
</g>
</svg>
