<?xml version="1.0" encoding="utf-8"?>

<!-- Copyright 2016 Siemens AG -->

<!-- Generator: Adobe Illustrator 16.0.4, SVG Export Plug-In . SVG Version: 6.00 Build 0)  -->
<!DOCTYPE svg PUBLIC "-//W3C//DTD SVG 1.1//EN" "http://www.w3.org/Graphics/SVG/1.1/DTD/svg11.dtd">
<svg version="1.1" id="SIMATIC_x5F_Lean_x5F_Panel_x5F_8_x5F_Touch_x5F_PC08KT-Basic"
	 xmlns="http://www.w3.org/2000/svg" xmlns:xlink="http://www.w3.org/1999/xlink" x="0px" y="0px" width="300px" height="241px"
	 viewBox="0 0 300 241" enable-background="new 0 0 300 241" xml:space="preserve">
<linearGradient id="SVGID_1_" gradientUnits="userSpaceOnUse" x1="2" y1="120.5" x2="297.999" y2="120.5">
	<stop  offset="1.187820e-02" style="stop-color:#EBEBE6"/>
	<stop  offset="3.298435e-02" style="stop-color:#DFDFDB"/>
	<stop  offset="6.761380e-02" style="stop-color:#C3C2C0"/>
	<stop  offset="0.2837" style="stop-color:#BFBEBC"/>
	<stop  offset="0.5032" style="stop-color:#B3B2B0"/>
	<stop  offset="0.7235" style="stop-color:#9F9E9C"/>
	<stop  offset="0.9322" style="stop-color:#848381"/>
	<stop  offset="1" style="stop-color:#47484A"/>
</linearGradient>
<path fill="url(#SVGID_1_)" d="M4.5,2.1C3.1,2.1,2,3.2,2,4.6v231.7c0,1.4,1.1,2.5,2.5,2.5h291c1.4,0,2.5-1.1,2.5-2.5V4.6
	c0-1.4-1.1-2.5-2.5-2.5H4.5z"/>
<rect x="21.5" y="11" fill="none" stroke="#000000" stroke-width="0.2" stroke-linecap="round" stroke-linejoin="round" stroke-miterlimit="10" width="256.9" height="219"/>
<rect x="45.1" y="38" fill="#629CA1" width="209.8" height="180.2"/>
<path fill-rule="evenodd" clip-rule="evenodd" fill="#FFFFFF" d="M150,50.8H58.4c-0.3,0-0.6,0.3-0.6,0.6v138.3
	c0,0.3,0.3,0.6,0.6,0.6h183.1c0.3,0,0.6-0.3,0.6-0.6V51.3c0-0.3-0.3-0.6-0.6-0.6H150"/>
<g>
	<linearGradient id="SVGID_2_" gradientUnits="userSpaceOnUse" x1="63.5757" y1="210.4951" x2="78.9639" y2="210.4951">
		<stop  offset="0" style="stop-color:#EDEDE8"/>
		<stop  offset="1" style="stop-color:#BABCBB"/>
	</linearGradient>
	<rect x="63.6" y="202.8" fill="url(#SVGID_2_)" width="15.4" height="15.4"/>
	<linearGradient id="SVGID_3_" gradientUnits="userSpaceOnUse" x1="86.0703" y1="210.4951" x2="101.4585" y2="210.4951">
		<stop  offset="0" style="stop-color:#EDEDE8"/>
		<stop  offset="1" style="stop-color:#BABCBB"/>
	</linearGradient>
	<rect x="86.1" y="202.8" fill="url(#SVGID_3_)" width="15.4" height="15.4"/>
	<linearGradient id="SVGID_4_" gradientUnits="userSpaceOnUse" x1="108.5645" y1="210.4951" x2="123.9526" y2="210.4951">
		<stop  offset="0" style="stop-color:#EDEDE8"/>
		<stop  offset="1" style="stop-color:#BABCBB"/>
	</linearGradient>
	<rect x="108.6" y="202.8" fill="url(#SVGID_4_)" width="15.4" height="15.4"/>
	<linearGradient id="SVGID_5_" gradientUnits="userSpaceOnUse" x1="131.0591" y1="210.4951" x2="146.4473" y2="210.4951">
		<stop  offset="0" style="stop-color:#EDEDE8"/>
		<stop  offset="1" style="stop-color:#BABCBB"/>
	</linearGradient>
	<rect x="131.1" y="202.8" fill="url(#SVGID_5_)" width="15.4" height="15.4"/>
	<linearGradient id="SVGID_6_" gradientUnits="userSpaceOnUse" x1="153.5537" y1="210.4951" x2="168.9419" y2="210.4951">
		<stop  offset="0" style="stop-color:#EDEDE8"/>
		<stop  offset="1" style="stop-color:#BABCBB"/>
	</linearGradient>
	<rect x="153.6" y="202.8" fill="url(#SVGID_6_)" width="15.4" height="15.4"/>
	<linearGradient id="SVGID_7_" gradientUnits="userSpaceOnUse" x1="176.0483" y1="210.4951" x2="191.4365" y2="210.4951">
		<stop  offset="0" style="stop-color:#EDEDE8"/>
		<stop  offset="1" style="stop-color:#BABCBB"/>
	</linearGradient>
	<rect x="176" y="202.8" fill="url(#SVGID_7_)" width="15.4" height="15.4"/>
	<linearGradient id="SVGID_8_" gradientUnits="userSpaceOnUse" x1="198.5425" y1="210.4951" x2="213.9307" y2="210.4951">
		<stop  offset="0" style="stop-color:#EDEDE8"/>
		<stop  offset="1" style="stop-color:#BABCBB"/>
	</linearGradient>
	<rect x="198.5" y="202.8" fill="url(#SVGID_8_)" width="15.4" height="15.4"/>
	<linearGradient id="SVGID_9_" gradientUnits="userSpaceOnUse" x1="221.0371" y1="210.4951" x2="236.4258" y2="210.4951">
		<stop  offset="0" style="stop-color:#EDEDE8"/>
		<stop  offset="1" style="stop-color:#BABCBB"/>
	</linearGradient>
	<rect x="221" y="202.8" fill="url(#SVGID_9_)" width="15.4" height="15.4"/>
</g>
<g>
	<rect x="63.6" y="199.2" fill="#25393F" width="7.4" height="7.4"/>
	<rect x="176" y="199.2" fill="#25393F" width="7.5" height="7.4"/>
	<rect x="198.6" y="199.2" fill="#25393F" width="7.4" height="7.4"/>
	<rect x="221" y="199.2" fill="#25393F" width="7.5" height="7.4"/>
	<rect x="153.5" y="199.2" fill="#25393F" width="7.5" height="7.4"/>
	<rect x="131.1" y="199.2" fill="#25393F" width="7.4" height="7.4"/>
	<rect x="108.6" y="199.2" fill="#25393F" width="7.5" height="7.4"/>
	<rect x="86.1" y="199.2" fill="#25393F" width="7.5" height="7.4"/>
</g>
<g id="Logo_2_">
	<g id="Logo_3_">
		<rect x="24.5" y="14" fill="#FFFFFF" width="34.6" height="8.3"/>
		<path fill="#128587" d="M23.9,22.9v-9.6h35.9v9.6H23.9z M29.6,15.8c-0.4-0.1-0.9-0.2-1.4-0.2c-0.6,0-1.1,0.1-1.5,0.4
			c-0.4,0.3-0.5,0.6-0.5,1.1c0,0.6,0.4,1,1.1,1.3l1,0.4c0.3,0.1,0.4,0.2,0.4,0.4c0,0.3-0.3,0.4-0.9,0.4c-0.4,0-0.8-0.1-1.5-0.3v1
			c0.3,0.1,0.5,0.1,0.8,0.1c0.3,0,0.5,0.1,0.7,0.1c0.6,0,1.2-0.1,1.5-0.4c0.4-0.3,0.6-0.7,0.6-1.1c0-0.6-0.4-1.1-1.1-1.4L28,17.3
			c-0.2-0.1-0.3-0.1-0.4-0.2c-0.1-0.1-0.1-0.1-0.1-0.2c0-0.2,0.2-0.4,0.7-0.4c0.2,0,0.5,0,0.7,0c0.2,0,0.4,0.1,0.6,0.2L29.6,15.8
			L29.6,15.8z M32.1,15.8h-1.4v4.8h1.4V15.8z M36.8,15.8h-3.6v4.8h3.6v-0.9h-2.2v-1.1h1.9v-0.8h-1.9v-1.1h2.2V15.8z M43.5,15.8h-1.7
			l-1.2,2.9l-1.2-2.9h-1.7v4.8h0.9v-3.2l1.3,3.2h0.9l1.4-3.2v3.2h1.4V15.8L43.5,15.8z M48.1,15.8h-3.5v4.8h3.6v-0.9H46v-1.1h1.9
			v-0.8H46v-1.1h2.2V15.8z M53.2,15.8h-0.9v3l-1.7-3H49v4.8h1v-3.1l1.7,3.1h1.5V15.8z M57.4,15.8c-0.5-0.1-0.9-0.2-1.4-0.2
			c-0.6,0-1.1,0.1-1.5,0.4c-0.4,0.3-0.5,0.6-0.5,1.1c0,0.6,0.3,1,1,1.3l1,0.4c0.2,0.1,0.3,0.2,0.3,0.2c0,0,0.1,0.1,0.1,0.2
			c0,0.3-0.3,0.4-0.8,0.4c-0.3,0-0.8-0.1-1.5-0.3v1c0.2,0,0.5,0.1,0.8,0.1c0.3,0.1,0.6,0.1,0.8,0.1c0.6,0,1.1-0.1,1.5-0.4
			c0.4-0.3,0.6-0.7,0.6-1.1c0-0.3-0.1-0.6-0.3-0.8c-0.2-0.2-0.4-0.4-0.8-0.6l-0.9-0.4c-0.3-0.1-0.4-0.3-0.4-0.4
			c0-0.2,0.3-0.4,0.8-0.4c0.2,0,0.4,0,0.6,0c0.2,0,0.4,0.1,0.6,0.2V15.8z"/>
	</g>
</g>
<g id="Typo">
	<g>
		<text transform="matrix(1.05 0 0 1 63.9263 202.4004)"><tspan x="0" y="0" fill="#FFFFFF" font-family="'SiemensSans-Roman'" font-size="3.792">F</tspan><tspan x="1.9" y="0" fill="#FFFFFF" font-family="'SiemensSans-Roman'" font-size="3.792">1</tspan></text>
		<text transform="matrix(1.05 0 0 1 86.4282 202.4004)"><tspan x="0" y="0" fill="#FFFFFF" font-family="'SiemensSans-Roman'" font-size="3.792">F</tspan><tspan x="1.9" y="0" fill="#FFFFFF" font-family="'SiemensSans-Roman'" font-size="3.792">2</tspan></text>
		<text transform="matrix(1.05 0 0 1 108.9297 202.4004)"><tspan x="0" y="0" fill="#FFFFFF" font-family="'SiemensSans-Roman'" font-size="3.792">F</tspan><tspan x="1.9" y="0" fill="#FFFFFF" font-family="'SiemensSans-Roman'" font-size="3.792">3</tspan></text>
		<text transform="matrix(1.05 0 0 1 131.4316 202.4004)"><tspan x="0" y="0" fill="#FFFFFF" font-family="'SiemensSans-Roman'" font-size="3.792">F</tspan><tspan x="1.9" y="0" fill="#FFFFFF" font-family="'SiemensSans-Roman'" font-size="3.792">4</tspan></text>
		<text transform="matrix(1.05 0 0 1 153.9336 202.4004)"><tspan x="0" y="0" fill="#FFFFFF" font-family="'SiemensSans-Roman'" font-size="3.792">F</tspan><tspan x="1.9" y="0" fill="#FFFFFF" font-family="'SiemensSans-Roman'" font-size="3.792">5</tspan></text>
		<text transform="matrix(1.05 0 0 1 176.4355 202.4004)"><tspan x="0" y="0" fill="#FFFFFF" font-family="'SiemensSans-Roman'" font-size="3.792">F</tspan><tspan x="1.9" y="0" fill="#FFFFFF" font-family="'SiemensSans-Roman'" font-size="3.792">6</tspan></text>
		<text transform="matrix(1.05 0 0 1 198.937 202.4004)"><tspan x="0" y="0" fill="#FFFFFF" font-family="'SiemensSans-Roman'" font-size="3.792">F</tspan><tspan x="1.9" y="0" fill="#FFFFFF" font-family="'SiemensSans-Roman'" font-size="3.792">7</tspan></text>
		<text transform="matrix(1.05 0 0 1 221.439 202.4004)"><tspan x="0" y="0" fill="#FFFFFF" font-family="'SiemensSans-Roman'" font-size="3.792">F</tspan><tspan x="1.9" y="0" fill="#FFFFFF" font-family="'SiemensSans-Roman'" font-size="3.792">8</tspan></text>
	</g>
	<g>
		<polyline fill-rule="evenodd" clip-rule="evenodd" fill="#629CA1" points="276.1,38 276.1,50.2 274,50.2 274,45.3 257.4,45.3 
			257.4,42.9 274,42.9 274,38 276.1,38 		"/>
		<path fill-rule="evenodd" clip-rule="evenodd" fill="#629CA1" d="M259,56.5c0,1.2,0.3,2.1,1,2.6c0.8,0.6,2.1,0.9,4.1,0.9
			c2.1,0,4.2,0,6.3,0c1.3,0,2.3-0.3,3-0.9c0.7-0.6,1-1.5,1-2.6c0-1.1-0.4-2-1-2.6c-0.7-0.6-1.7-0.9-3-0.9c-2.1,0-4.2,0-6.3,0
			c-1.9,0-3.3,0.3-4.1,0.9C259.4,54.4,259,55.2,259,56.5 M257,56.5c0-2,0.6-3.5,1.7-4.5c1.1-0.9,3-1.4,5.5-1.4c2,0,4.1,0,6.1,0
			c1.9,0,3.4,0.5,4.5,1.5c1.1,1,1.6,2.4,1.6,4.4c0,1.9-0.5,3.4-1.6,4.4c-1.1,1-2.6,1.5-4.5,1.5c-2,0-4.1,0-6.1,0
			c-2.5,0-4.4-0.5-5.5-1.4C257.6,60,257,58.5,257,56.5z"/>
		<path fill-rule="evenodd" clip-rule="evenodd" fill="#629CA1" d="M264.2,64.4c3.9,0,7.9,0,11.8,0c0,0.8,0,1.6,0,2.4
			c-4,0-7.9,0-11.9,0c-1.9,0-3.3,0.3-4.1,0.9c-0.7,0.5-1,1.4-1,2.6c0,1.3,0.3,2.2,1,2.7c0.8,0.6,2.1,0.9,4.1,0.9c4,0,7.9,0,11.9,0
			c0,0.8,0,1.6,0,2.4c-3.9,0-7.9,0-11.8,0c-2.5,0-4.3-0.5-5.5-1.5c-1.2-0.9-1.7-2.4-1.7-4.5c0-2,0.6-3.5,1.7-4.4
			C259.8,64.9,261.7,64.4,264.2,64.4"/>
		<path fill-rule="evenodd" clip-rule="evenodd" fill="#629CA1" d="M270.9,89.1c0-0.8,0-1.6,0-2.5c0.9,0,1.5-0.1,1.9-0.1
			c0.4-0.1,0.7-0.3,0.9-0.5c0.3-0.2,0.5-0.5,0.6-0.9c0.1-0.5,0.2-0.8,0.2-1.1c0-0.9-0.2-1.6-0.6-2.1c-0.3-0.4-0.6-0.6-0.8-0.7
			c-0.6-0.2-1-0.3-1.3-0.4c-0.7-0.1-1.5-0.2-2.6-0.2c-1.7,0-3.3,0-5,0c-2.1,0-3.5,0.3-4.2,1c-0.6,0.5-0.9,1.3-0.9,2.4
			c0,0.9,0.4,1.7,1,2.2c0.7,0.5,1.6,0.8,2.9,0.8c0,0.8,0,1.6,0,2.5c-2,0-3.4-0.4-4.4-1.3c-1-0.9-1.5-2.2-1.5-3.9c0-1.7,0.3-3,1-3.8
			c1.1-1.4,3.2-2.1,6.4-2.1c1.8,0,3.5,0,5.3,0c2.5,0,4.3,0.5,5.4,1.6c1,1,1.4,2.4,1.4,4.4c0,1.8-0.5,3.1-1.4,3.8
			C274.2,88.7,272.8,89.1,270.9,89.1"/>
		<polyline fill-rule="evenodd" clip-rule="evenodd" fill="#629CA1" points="257.4,90.9 276.1,90.9 276.1,93.2 268,93.2 268,99.8 
			276.1,99.8 276.1,102.2 257.4,102.2 257.4,99.8 265.9,99.8 265.9,93.2 257.4,93.2 257.4,90.9 		"/>
	</g>
	<g id="Name_1_">
		<text transform="matrix(0.9964 0 0 1 216.8027 21.1064)" fill="#25393F" font-family="'SiemensSans-Roman'" font-size="9.0472">SIMATIC PANEL</text>
	</g>
</g>
</svg>
