<?xml version="1.0" encoding="utf-8"?>

<!-- Copyright 2016 Siemens AG -->

<!-- Generator: Adobe Illustrator 16.0.4, SVG Export Plug-In . SVG Version: 6.00 Build 0)  -->
<!DOCTYPE svg PUBLIC "-//W3C//DTD SVG 1.1//EN" "http://www.w3.org/Graphics/SVG/1.1/DTD/svg11.dtd">
<svg version="1.1" id="PC_Hardware_Printer_Desktop"
	 xmlns="http://www.w3.org/2000/svg" xmlns:xlink="http://www.w3.org/1999/xlink" x="0px" y="0px" width="300px" height="146px"
	 viewBox="0 0 300 146" enable-background="new 0 0 300 146" xml:space="preserve">
<linearGradient id="Base_2_" gradientUnits="userSpaceOnUse" x1="149.9497" y1="154.0718" x2="149.9497" y2="140.418">
	<stop  offset="0" style="stop-color:#FFFFFF"/>
	<stop  offset="1" style="stop-color:#424242"/>
</linearGradient>
<rect id="Base_1_" x="6.6" y="138.7" fill="url(#Base_2_)" stroke="#424242" stroke-width="0.75" stroke-miterlimit="10" width="286.6" height="5"/>
<rect id="Shape_6_" x="2.4" y="2.4" fill="#CFCFCE" stroke="#8C8C91" stroke-width="0.75" stroke-miterlimit="10" width="295.2" height="136.3"/>
<linearGradient id="Curve_Right_1_" gradientUnits="userSpaceOnUse" x1="275.749" y1="70.542" x2="297.542" y2="70.542">
	<stop  offset="0" style="stop-color:#CFCFCE"/>
	<stop  offset="1" style="stop-color:#9D9D9C"/>
</linearGradient>
<polyline id="Curve_Right_2_" fill="url(#Curve_Right_1_)" stroke="#8C8C91" stroke-width="0.75" stroke-miterlimit="10" points="
	275.7,2.4 297.5,2.4 297.5,138.7 275.7,138.7 "/>
<linearGradient id="Curve_Left_1_" gradientUnits="userSpaceOnUse" x1="6.3887" y1="70.542" x2="22.3764" y2="70.542">
	<stop  offset="0" style="stop-color:#FFFFFF"/>
	<stop  offset="1" style="stop-color:#CFCFCE"/>
</linearGradient>
<polyline id="Curve_Left_3_" fill="url(#Curve_Left_1_)" stroke="#8C8C91" stroke-width="0.75" stroke-miterlimit="10" points="
	24.2,138.7 2.4,138.7 2.4,2.4 24.2,2.4 "/>
<linearGradient id="Black_Shape_Right_1_" gradientUnits="userSpaceOnUse" x1="270.0137" y1="96.4189" x2="286.873" y2="96.4189">
	<stop  offset="0" style="stop-color:#575756"/>
	<stop  offset="1" style="stop-color:#424242"/>
</linearGradient>
<rect id="Black_Shape_Right_2_" x="246.9" y="84.3" fill="url(#Black_Shape_Right_1_)" stroke="#424242" stroke-width="0.75" stroke-miterlimit="10" width="50.6" height="24.2"/>
<linearGradient id="Black_Shape_Left_1_" gradientUnits="userSpaceOnUse" x1="-22.208" y1="96.4189" x2="21.848" y2="96.4189">
	<stop  offset="0" style="stop-color:#575756"/>
	<stop  offset="1.586480e-02" style="stop-color:#5D5C5C"/>
	<stop  offset="0.1171" style="stop-color:#797878"/>
	<stop  offset="0.2183" style="stop-color:#8D8D8C"/>
	<stop  offset="0.3189" style="stop-color:#999998"/>
	<stop  offset="0.4178" style="stop-color:#9D9D9C"/>
	<stop  offset="0.5402" style="stop-color:#979696"/>
	<stop  offset="0.7122" style="stop-color:#848484"/>
	<stop  offset="0.9127" style="stop-color:#676666"/>
	<stop  offset="1" style="stop-color:#575756"/>
</linearGradient>
<rect id="Black_Shape_Left_2_" x="2.4" y="84.3" fill="url(#Black_Shape_Left_1_)" stroke="#424242" stroke-width="0.75" stroke-miterlimit="10" width="50.6" height="24.2"/>
<linearGradient id="Handle_Paper_Case_1_" gradientUnits="userSpaceOnUse" x1="149.9707" y1="159.291" x2="149.9707" y2="132.6441">
	<stop  offset="0" style="stop-color:#FFFFFF"/>
	<stop  offset="1" style="stop-color:#424242"/>
</linearGradient>
<path id="Handle_Paper_Case_2_" fill="url(#Handle_Paper_Case_1_)" stroke="#424242" stroke-width="0.75" stroke-miterlimit="10" d="
	M193,131.6c0-3-2.4-5.4-5.4-5.4h-75.2c-3,0-5.4,2.4-5.4,5.4v7.1h86V131.6z"/>
<rect id="Front_Output_Tray_2_" x="53" y="101.6" fill="#424242" stroke="#424242" stroke-width="0.75" stroke-miterlimit="10" width="194" height="6.9"/>
<linearGradient id="Edge_Use_Panel_1_" gradientUnits="userSpaceOnUse" x1="56.4971" y1="34.9155" x2="395.9454" y2="149.0279">
	<stop  offset="0" style="stop-color:#FFFFFF"/>
	<stop  offset="1" style="stop-color:#7C7C7B"/>
</linearGradient>
<rect id="Edge_Use_Panel_2_" x="53" y="64.8" fill="url(#Edge_Use_Panel_1_)" stroke="#8C8C91" stroke-width="0.75" stroke-miterlimit="10" width="194" height="3.1"/>
<linearGradient id="Shape_under_Use_Panel_1_" gradientUnits="userSpaceOnUse" x1="149.9546" y1="48.77" x2="149.9546" y2="89.6898">
	<stop  offset="0" style="stop-color:#FFFFFF"/>
	<stop  offset="1" style="stop-color:#7C7C7B"/>
</linearGradient>
<rect id="Shape_under_Use_Panel_2_" x="53" y="67.9" fill="url(#Shape_under_Use_Panel_1_)" stroke="#8C8C91" stroke-width="0.75" stroke-miterlimit="10" width="194" height="16.5"/>
<path id="Devider_Lines_37_" fill="none" stroke="#424242" stroke-width="0.75" stroke-miterlimit="10" d="M53,28v110.3 M246.9,28
	v110.3 M52.6,28.4H2.7 M297.2,28.4h-49.9"/>
<polygon id="Shadow_5_" fill="#77787A" points="247.3,83.9 247.3,28.8 257.9,83.9 "/>
<linearGradient id="Output_Tray_1_" gradientUnits="userSpaceOnUse" x1="149.9536" y1="137.2861" x2="149.9536" y2="90.1935">
	<stop  offset="0" style="stop-color:#FFFFFF"/>
	<stop  offset="1" style="stop-color:#424242"/>
</linearGradient>
<rect id="Output_Tray_2_" x="53" y="84.3" fill="url(#Output_Tray_1_)" stroke="#424242" stroke-width="0.75" stroke-miterlimit="10" width="194" height="17.3"/>
<g id="Use_Panel_2_">
	
		<rect id="Shape_2_" x="53" y="28.4" fill="#424242" stroke="#424242" stroke-width="0.75" stroke-miterlimit="10" width="194" height="36.4"/>
	
		<linearGradient id="Refection_Display_1_" gradientUnits="userSpaceOnUse" x1="705.5098" y1="46.5674" x2="773.4258" y2="46.5674" gradientTransform="matrix(-1 0 0 1 826.8008 0)">
		<stop  offset="0" style="stop-color:#F2F2F2;stop-opacity:0.4"/>
		<stop  offset="1" style="stop-color:#F7F7F7;stop-opacity:0.7"/>
	</linearGradient>
	<polygon id="Refection_Display_2_" fill="url(#Refection_Display_1_)" points="53.4,28.7 121.3,28.7 96.5,64.5 53.4,64.5 	"/>
	<path id="Outline_Keypad__x2B_Display_2_" fill="none" stroke="#ADADAD" stroke-width="0.75" stroke-miterlimit="10" d="
		M138.3,57.2H95.7V32.9h42.6V57.2z M193,30.4H93.3v32.2H193V30.4z M141.1,30.7v31.9 M180,30.7v31.9 M167,30.7v31.9 M154,30.7v31.9
		 M141.1,38.6H193 M141.1,54.8H193 M141.1,46.7H193"/>
	<path id="Button_Big_2_3_" fill="#646567" stroke="#424242" stroke-width="0.75" stroke-miterlimit="10" d="M207.5,49.6
		c0,0.7,0.9,1.3,1.9,1.3h7.7c1.1,0,1.9-0.6,1.9-1.3v-5.1c0-0.7-0.9-1.3-1.9-1.3h-7.7c-1.1,0-1.9,0.6-1.9,1.3V49.6z"/>
	<path id="Button_Big_1_3_" fill="#9D9D9C" stroke="#424242" stroke-width="0.75" stroke-miterlimit="10" d="M207.5,34.3
		c0-0.7,0.9-1.3,1.9-1.3h7.7c1.1,0,1.9,0.6,1.9,1.3v5.1c0,0.7-0.9,1.3-1.9,1.3h-7.7c-1.1,0-1.9-0.6-1.9-1.3V34.3z"/>
	<linearGradient id="Buttons_Right_1_" gradientUnits="userSpaceOnUse" x1="224.9824" y1="18.9048" x2="230.251" y2="50.165">
		<stop  offset="0" style="stop-color:#FFFFFF"/>
		<stop  offset="1" style="stop-color:#7C7C7B"/>
	</linearGradient>
	<path id="Buttons_Right_2_" fill="url(#Buttons_Right_1_)" stroke="#424242" stroke-width="0.75" stroke-miterlimit="10" d="
		M225.9,33.9c0-0.5,0.6-0.9,1.3-0.9h5c0.7,0,1.3,0.4,1.3,0.9v3.5c0,0.5-0.6,0.9-1.3,0.9h-5c-0.7,0-1.3-0.4-1.3-0.9V33.9z
		 M225.9,44.8c0,0.5,0.6,0.9,1.3,0.9h5c0.7,0,1.3-0.4,1.3-0.9v-3.5c0-0.5-0.6-0.9-1.3-0.9h-5c-0.7,0-1.3,0.4-1.3,0.9V44.8z
		 M225.9,52.2c0,0.5,0.6,0.9,1.3,0.9h5c0.7,0,1.3-0.4,1.3-0.9v-3.5c0-0.5-0.6-0.9-1.3-0.9h-5c-0.7,0-1.3,0.4-1.3,0.9V52.2z
		 M225.9,59.6c0,0.5,0.6,0.9,1.3,0.9h5c0.7,0,1.3-0.4,1.3-0.9v-3.5c0-0.5-0.6-0.9-1.3-0.9h-5c-0.7,0-1.3,0.4-1.3,0.9V59.6z"/>
	
		<linearGradient id="Buttons_under_Display_1_" gradientUnits="userSpaceOnUse" x1="117.0273" y1="59.8608" x2="117.0273" y2="61.0329">
		<stop  offset="0" style="stop-color:#FFFFFF"/>
		<stop  offset="1" style="stop-color:#7C7C7B"/>
	</linearGradient>
	<path id="Buttons_under_Display_3_" fill="url(#Buttons_under_Display_1_)" d="M104.1,61h-8.8v-1.9h8.8V61z M138.8,59.1h-8.8V61
		h8.8V59.1z M115.7,59.1h-8.8V61h8.8V59.1z M127.2,59.1h-8.8V61h8.8V59.1z"/>
</g>
<path id="Reflection_Lines_2_" fill="none" stroke="#FFFFFF" stroke-width="0.75" stroke-miterlimit="10" d="M53.7,108.9v29.4
	 M247.7,108.9v29.4 M2.8,109.3h49.8 M247.3,109.3h49.8 M53.3,109.3h193.2 M52.6,29.1H2.7 M297.2,29.1h-49.8 M53.8,64.5V28.7"/>
<g id="Paper_3_">
	<linearGradient id="Sheet_1_" gradientUnits="userSpaceOnUse" x1="150.2485" y1="103.8105" x2="150.2485" y2="80.9753">
		<stop  offset="0" style="stop-color:#FFFFFF"/>
		<stop  offset="1" style="stop-color:#424242"/>
	</linearGradient>
	
		<polygon id="Sheet_3_" fill="url(#Sheet_1_)" stroke="#8C8C91" stroke-width="0.75" stroke-linecap="round" stroke-linejoin="round" stroke-miterlimit="10" points="
		236.4,123.2 64.1,123.2 90.5,84.3 210,84.3 	"/>
	<path id="Text_3_" fill="#424242" d="M157,91.7H96.8l1.1-2h58.9L157,91.7z M157.3,96.1h-63l-1.1,2h64.3L157.3,96.1z M157.8,103.3
		H90.2l-1.1,2H158L157.8,103.3z M158.4,111.8h-73l-1.1,2h74.2L158.4,111.8z"/>
	
		<line id="Shadow_Line_2_" fill="none" stroke="#424242" stroke-width="0.75" stroke-linecap="round" stroke-linejoin="round" stroke-miterlimit="10" x1="88.7" y1="84.3" x2="211.7" y2="84.3"/>
</g>
</svg>
