<?xml version="1.0" encoding="utf-8"?>

<!-- Copyright 2016 Siemens AG -->

<!-- Generator: Adobe Illustrator 16.0.4, SVG Export Plug-In . SVG Version: 6.00 Build 0)  -->
<!DOCTYPE svg PUBLIC "-//W3C//DTD SVG 1.1//EN" "http://www.w3.org/Graphics/SVG/1.1/DTD/svg11.dtd">
<svg version="1.1" id="PC_Hardware_Serversystem_Midium"
	 xmlns="http://www.w3.org/2000/svg" xmlns:xlink="http://www.w3.org/1999/xlink" x="0px" y="0px" width="232.5px" height="300px"
	 viewBox="0 0 232.5 300" enable-background="new 0 0 232.5 300" xml:space="preserve">
<g id="Server_Cabinet">
	<linearGradient id="Inside_2_" gradientUnits="userSpaceOnUse" x1="412.1338" y1="140.1479" x2="136.209" y2="140.148">
		<stop  offset="0" style="stop-color:#FFFFFF"/>
		<stop  offset="1" style="stop-color:#424242"/>
	</linearGradient>
	
		<rect id="Inside_1_" x="16.9" y="16.9" fill="url(#Inside_2_)" stroke="#424242" stroke-width="0.75" stroke-miterlimit="10" width="198.8" height="246.5"/>
	
		<linearGradient id="Connection_Right_1_" gradientUnits="userSpaceOnUse" x1="244.5938" y1="196.9785" x2="295.7583" y2="284.3845">
		<stop  offset="0" style="stop-color:#FFFFFF"/>
		<stop  offset="1" style="stop-color:#7C7C7B"/>
	</linearGradient>
	<path id="Connection_Right" fill="url(#Connection_Right_1_)" stroke="#8C8C91" stroke-width="0.75" stroke-miterlimit="10" d="
		M207,16.9v246.5h8.6V16.9H207z M211.3,261.9c-0.6,0-1.1-0.5-1.1-1.1s0.5-1.1,1.1-1.1s1.1,0.5,1.1,1.1S211.9,261.9,211.3,261.9z
		 M211.3,257.5c-0.6,0-1.1-0.5-1.1-1.1s0.5-1.1,1.1-1.1s1.1,0.5,1.1,1.1S211.9,257.5,211.3,257.5z M211.3,253.1
		c-0.6,0-1.1-0.5-1.1-1.1s0.5-1.1,1.1-1.1s1.1,0.5,1.1,1.1S211.9,253.1,211.3,253.1z M211.3,248.7c-0.6,0-1.1-0.5-1.1-1.1
		s0.5-1.1,1.1-1.1s1.1,0.5,1.1,1.1S211.9,248.7,211.3,248.7z M211.3,244.3c-0.6,0-1.1-0.5-1.1-1.1s0.5-1.1,1.1-1.1s1.1,0.5,1.1,1.1
		S211.9,244.3,211.3,244.3z M211.3,239.9c-0.6,0-1.1-0.5-1.1-1.1s0.5-1.1,1.1-1.1s1.1,0.5,1.1,1.1S211.9,239.9,211.3,239.9z
		 M211.3,235.5c-0.6,0-1.1-0.5-1.1-1.1s0.5-1.1,1.1-1.1s1.1,0.5,1.1,1.1S211.9,235.5,211.3,235.5z M211.3,231.1
		c-0.6,0-1.1-0.5-1.1-1.1s0.5-1.1,1.1-1.1s1.1,0.5,1.1,1.1S211.9,231.1,211.3,231.1z M211.3,226.8c-0.6,0-1.1-0.5-1.1-1.1
		s0.5-1.1,1.1-1.1s1.1,0.5,1.1,1.1S211.9,226.8,211.3,226.8z M211.3,222.4c-0.6,0-1.1-0.5-1.1-1.1s0.5-1.1,1.1-1.1s1.1,0.5,1.1,1.1
		S211.9,222.4,211.3,222.4z M211.3,218c-0.6,0-1.1-0.5-1.1-1.1s0.5-1.1,1.1-1.1s1.1,0.5,1.1,1.1S211.9,218,211.3,218z M211.3,213.6
		c-0.6,0-1.1-0.5-1.1-1.1s0.5-1.1,1.1-1.1s1.1,0.5,1.1,1.1S211.9,213.6,211.3,213.6z M211.3,209.2c-0.6,0-1.1-0.5-1.1-1.1
		s0.5-1.1,1.1-1.1s1.1,0.5,1.1,1.1S211.9,209.2,211.3,209.2z M211.3,204.8c-0.6,0-1.1-0.5-1.1-1.1s0.5-1.1,1.1-1.1s1.1,0.5,1.1,1.1
		S211.9,204.8,211.3,204.8z M211.3,200.4c-0.6,0-1.1-0.5-1.1-1.1s0.5-1.1,1.1-1.1s1.1,0.5,1.1,1.1S211.9,200.4,211.3,200.4z
		 M211.3,196c-0.6,0-1.1-0.5-1.1-1.1s0.5-1.1,1.1-1.1s1.1,0.5,1.1,1.1S211.9,196,211.3,196z M211.3,191.6c-0.6,0-1.1-0.5-1.1-1.1
		s0.5-1.1,1.1-1.1s1.1,0.5,1.1,1.1S211.9,191.6,211.3,191.6z M211.3,187.3c-0.6,0-1.1-0.5-1.1-1.1s0.5-1.1,1.1-1.1s1.1,0.5,1.1,1.1
		S211.9,187.3,211.3,187.3z M211.3,182.9c-0.6,0-1.1-0.5-1.1-1.1s0.5-1.1,1.1-1.1s1.1,0.5,1.1,1.1S211.9,182.9,211.3,182.9z
		 M211.3,178.5c-0.6,0-1.1-0.5-1.1-1.1s0.5-1.1,1.1-1.1s1.1,0.5,1.1,1.1S211.9,178.5,211.3,178.5z M211.3,174.1
		c-0.6,0-1.1-0.5-1.1-1.1s0.5-1.1,1.1-1.1s1.1,0.5,1.1,1.1S211.9,174.1,211.3,174.1z M211.3,169.7c-0.6,0-1.1-0.5-1.1-1.1
		s0.5-1.1,1.1-1.1s1.1,0.5,1.1,1.1S211.9,169.7,211.3,169.7z M211.3,165.3c-0.6,0-1.1-0.5-1.1-1.1s0.5-1.1,1.1-1.1s1.1,0.5,1.1,1.1
		S211.9,165.3,211.3,165.3z M211.3,160.9c-0.6,0-1.1-0.5-1.1-1.1s0.5-1.1,1.1-1.1s1.1,0.5,1.1,1.1S211.9,160.9,211.3,160.9z
		 M211.3,156.5c-0.6,0-1.1-0.5-1.1-1.1s0.5-1.1,1.1-1.1s1.1,0.5,1.1,1.1S211.9,156.5,211.3,156.5z M211.3,152.1
		c-0.6,0-1.1-0.5-1.1-1.1s0.5-1.1,1.1-1.1s1.1,0.5,1.1,1.1S211.9,152.1,211.3,152.1z M211.3,147.8c-0.6,0-1.1-0.5-1.1-1.1
		s0.5-1.1,1.1-1.1s1.1,0.5,1.1,1.1S211.9,147.8,211.3,147.8z M211.3,143.4c-0.6,0-1.1-0.5-1.1-1.1s0.5-1.1,1.1-1.1s1.1,0.5,1.1,1.1
		S211.9,143.4,211.3,143.4z M211.3,139c-0.6,0-1.1-0.5-1.1-1.1s0.5-1.1,1.1-1.1s1.1,0.5,1.1,1.1S211.9,139,211.3,139z M211.3,134.6
		c-0.6,0-1.1-0.5-1.1-1.1s0.5-1.1,1.1-1.1s1.1,0.5,1.1,1.1S211.9,134.6,211.3,134.6z M211.3,130.2c-0.6,0-1.1-0.5-1.1-1.1
		s0.5-1.1,1.1-1.1s1.1,0.5,1.1,1.1S211.9,130.2,211.3,130.2z M211.3,125.8c-0.6,0-1.1-0.5-1.1-1.1s0.5-1.1,1.1-1.1s1.1,0.5,1.1,1.1
		S211.9,125.8,211.3,125.8z M211.3,121.4c-0.6,0-1.1-0.5-1.1-1.1s0.5-1.1,1.1-1.1s1.1,0.5,1.1,1.1S211.9,121.4,211.3,121.4z
		 M211.3,117c-0.6,0-1.1-0.5-1.1-1.1s0.5-1.1,1.1-1.1s1.1,0.5,1.1,1.1S211.9,117,211.3,117z M211.3,112.6c-0.6,0-1.1-0.5-1.1-1.1
		s0.5-1.1,1.1-1.1s1.1,0.5,1.1,1.1S211.9,112.6,211.3,112.6z M211.3,108.3c-0.6,0-1.1-0.5-1.1-1.1s0.5-1.1,1.1-1.1s1.1,0.5,1.1,1.1
		S211.9,108.3,211.3,108.3z M211.3,103.9c-0.6,0-1.1-0.5-1.1-1.1s0.5-1.1,1.1-1.1s1.1,0.5,1.1,1.1S211.9,103.9,211.3,103.9z
		 M211.3,99.5c-0.6,0-1.1-0.5-1.1-1.1s0.5-1.1,1.1-1.1s1.1,0.5,1.1,1.1S211.9,99.5,211.3,99.5z M211.3,95.1c-0.6,0-1.1-0.5-1.1-1.1
		s0.5-1.1,1.1-1.1s1.1,0.5,1.1,1.1S211.9,95.1,211.3,95.1z M211.3,90.7c-0.6,0-1.1-0.5-1.1-1.1s0.5-1.1,1.1-1.1s1.1,0.5,1.1,1.1
		S211.9,90.7,211.3,90.7z M211.3,86.3c-0.6,0-1.1-0.5-1.1-1.1s0.5-1.1,1.1-1.1s1.1,0.5,1.1,1.1S211.9,86.3,211.3,86.3z M211.3,81.9
		c-0.6,0-1.1-0.5-1.1-1.1s0.5-1.1,1.1-1.1s1.1,0.5,1.1,1.1S211.9,81.9,211.3,81.9z M211.3,77.5c-0.6,0-1.1-0.5-1.1-1.1
		s0.5-1.1,1.1-1.1s1.1,0.5,1.1,1.1S211.9,77.5,211.3,77.5z M211.3,73.1c-0.6,0-1.1-0.5-1.1-1.1s0.5-1.1,1.1-1.1s1.1,0.5,1.1,1.1
		S211.9,73.1,211.3,73.1z M211.3,68.7c-0.6,0-1.1-0.5-1.1-1.1s0.5-1.1,1.1-1.1s1.1,0.5,1.1,1.1S211.9,68.7,211.3,68.7z M211.3,64.4
		c-0.6,0-1.1-0.5-1.1-1.1s0.5-1.1,1.1-1.1s1.1,0.5,1.1,1.1S211.9,64.4,211.3,64.4z M211.3,60c-0.6,0-1.1-0.5-1.1-1.1
		s0.5-1.1,1.1-1.1s1.1,0.5,1.1,1.1S211.9,60,211.3,60z M211.3,55.6c-0.6,0-1.1-0.5-1.1-1.1s0.5-1.1,1.1-1.1s1.1,0.5,1.1,1.1
		S211.9,55.6,211.3,55.6z M211.3,51.2c-0.6,0-1.1-0.5-1.1-1.1s0.5-1.1,1.1-1.1s1.1,0.5,1.1,1.1S211.9,51.2,211.3,51.2z M211.3,46.8
		c-0.6,0-1.1-0.5-1.1-1.1s0.5-1.1,1.1-1.1s1.1,0.5,1.1,1.1S211.9,46.8,211.3,46.8z M211.3,42.4c-0.6,0-1.1-0.5-1.1-1.1
		s0.5-1.1,1.1-1.1s1.1,0.5,1.1,1.1S211.9,42.4,211.3,42.4z M211.3,38c-0.6,0-1.1-0.5-1.1-1.1s0.5-1.1,1.1-1.1s1.1,0.5,1.1,1.1
		S211.9,38,211.3,38z M211.3,33.6c-0.6,0-1.1-0.5-1.1-1.1s0.5-1.1,1.1-1.1s1.1,0.5,1.1,1.1S211.9,33.6,211.3,33.6z M211.3,29.2
		c-0.6,0-1.1-0.5-1.1-1.1s0.5-1.1,1.1-1.1s1.1,0.5,1.1,1.1S211.9,29.2,211.3,29.2z M211.3,24.9c-0.6,0-1.1-0.5-1.1-1.1
		s0.5-1.1,1.1-1.1s1.1,0.5,1.1,1.1S211.9,24.9,211.3,24.9z M211.3,20.5c-0.6,0-1.1-0.5-1.1-1.1s0.5-1.1,1.1-1.1s1.1,0.5,1.1,1.1
		S211.9,20.5,211.3,20.5z"/>
	<linearGradient id="Connection_Left_1_" gradientUnits="userSpaceOnUse" x1="54.4438" y1="196.9795" x2="105.6084" y2="284.3855">
		<stop  offset="0" style="stop-color:#FFFFFF"/>
		<stop  offset="1" style="stop-color:#7C7C7B"/>
	</linearGradient>
	<path id="Connection_Left" fill="url(#Connection_Left_1_)" stroke="#8C8C91" stroke-width="0.75" stroke-miterlimit="10" d="
		M16.9,16.9v246.5h8.6V16.9H16.9z M21.2,261.9c-0.6,0-1.1-0.5-1.1-1.1s0.5-1.1,1.1-1.1s1.1,0.5,1.1,1.1S21.8,261.9,21.2,261.9z
		 M21.2,257.5c-0.6,0-1.1-0.5-1.1-1.1s0.5-1.1,1.1-1.1s1.1,0.5,1.1,1.1S21.8,257.5,21.2,257.5z M21.2,253.1c-0.6,0-1.1-0.5-1.1-1.1
		s0.5-1.1,1.1-1.1s1.1,0.5,1.1,1.1S21.8,253.1,21.2,253.1z M21.2,248.7c-0.6,0-1.1-0.5-1.1-1.1s0.5-1.1,1.1-1.1s1.1,0.5,1.1,1.1
		S21.8,248.7,21.2,248.7z M21.2,244.3c-0.6,0-1.1-0.5-1.1-1.1s0.5-1.1,1.1-1.1s1.1,0.5,1.1,1.1S21.8,244.3,21.2,244.3z M21.2,239.9
		c-0.6,0-1.1-0.5-1.1-1.1s0.5-1.1,1.1-1.1s1.1,0.5,1.1,1.1S21.8,239.9,21.2,239.9z M21.2,235.5c-0.6,0-1.1-0.5-1.1-1.1
		s0.5-1.1,1.1-1.1s1.1,0.5,1.1,1.1S21.8,235.5,21.2,235.5z M21.2,231.1c-0.6,0-1.1-0.5-1.1-1.1s0.5-1.1,1.1-1.1s1.1,0.5,1.1,1.1
		S21.8,231.1,21.2,231.1z M21.2,226.8c-0.6,0-1.1-0.5-1.1-1.1s0.5-1.1,1.1-1.1s1.1,0.5,1.1,1.1S21.8,226.8,21.2,226.8z M21.2,222.4
		c-0.6,0-1.1-0.5-1.1-1.1s0.5-1.1,1.1-1.1s1.1,0.5,1.1,1.1S21.8,222.4,21.2,222.4z M21.2,218c-0.6,0-1.1-0.5-1.1-1.1
		s0.5-1.1,1.1-1.1s1.1,0.5,1.1,1.1S21.8,218,21.2,218z M21.2,213.6c-0.6,0-1.1-0.5-1.1-1.1s0.5-1.1,1.1-1.1s1.1,0.5,1.1,1.1
		S21.8,213.6,21.2,213.6z M21.2,209.2c-0.6,0-1.1-0.5-1.1-1.1s0.5-1.1,1.1-1.1s1.1,0.5,1.1,1.1S21.8,209.2,21.2,209.2z M21.2,204.8
		c-0.6,0-1.1-0.5-1.1-1.1s0.5-1.1,1.1-1.1s1.1,0.5,1.1,1.1S21.8,204.8,21.2,204.8z M21.2,200.4c-0.6,0-1.1-0.5-1.1-1.1
		s0.5-1.1,1.1-1.1s1.1,0.5,1.1,1.1S21.8,200.4,21.2,200.4z M21.2,196c-0.6,0-1.1-0.5-1.1-1.1s0.5-1.1,1.1-1.1s1.1,0.5,1.1,1.1
		S21.8,196,21.2,196z M21.2,191.6c-0.6,0-1.1-0.5-1.1-1.1s0.5-1.1,1.1-1.1s1.1,0.5,1.1,1.1S21.8,191.6,21.2,191.6z M21.2,187.3
		c-0.6,0-1.1-0.5-1.1-1.1s0.5-1.1,1.1-1.1s1.1,0.5,1.1,1.1S21.8,187.3,21.2,187.3z M21.2,182.9c-0.6,0-1.1-0.5-1.1-1.1
		s0.5-1.1,1.1-1.1s1.1,0.5,1.1,1.1S21.8,182.9,21.2,182.9z M21.2,178.5c-0.6,0-1.1-0.5-1.1-1.1s0.5-1.1,1.1-1.1s1.1,0.5,1.1,1.1
		S21.8,178.5,21.2,178.5z M21.2,174.1c-0.6,0-1.1-0.5-1.1-1.1s0.5-1.1,1.1-1.1s1.1,0.5,1.1,1.1S21.8,174.1,21.2,174.1z M21.2,169.7
		c-0.6,0-1.1-0.5-1.1-1.1s0.5-1.1,1.1-1.1s1.1,0.5,1.1,1.1S21.8,169.7,21.2,169.7z M21.2,165.3c-0.6,0-1.1-0.5-1.1-1.1
		s0.5-1.1,1.1-1.1s1.1,0.5,1.1,1.1S21.8,165.3,21.2,165.3z M21.2,160.9c-0.6,0-1.1-0.5-1.1-1.1s0.5-1.1,1.1-1.1s1.1,0.5,1.1,1.1
		S21.8,160.9,21.2,160.9z M21.2,156.5c-0.6,0-1.1-0.5-1.1-1.1s0.5-1.1,1.1-1.1s1.1,0.5,1.1,1.1S21.8,156.5,21.2,156.5z M21.2,152.1
		c-0.6,0-1.1-0.5-1.1-1.1s0.5-1.1,1.1-1.1s1.1,0.5,1.1,1.1S21.8,152.1,21.2,152.1z M21.2,147.8c-0.6,0-1.1-0.5-1.1-1.1
		s0.5-1.1,1.1-1.1s1.1,0.5,1.1,1.1S21.8,147.8,21.2,147.8z M21.2,143.4c-0.6,0-1.1-0.5-1.1-1.1s0.5-1.1,1.1-1.1s1.1,0.5,1.1,1.1
		S21.8,143.4,21.2,143.4z M21.2,139c-0.6,0-1.1-0.5-1.1-1.1s0.5-1.1,1.1-1.1s1.1,0.5,1.1,1.1S21.8,139,21.2,139z M21.2,134.6
		c-0.6,0-1.1-0.5-1.1-1.1s0.5-1.1,1.1-1.1s1.1,0.5,1.1,1.1S21.8,134.6,21.2,134.6z M21.2,130.2c-0.6,0-1.1-0.5-1.1-1.1
		s0.5-1.1,1.1-1.1s1.1,0.5,1.1,1.1S21.8,130.2,21.2,130.2z M21.2,125.8c-0.6,0-1.1-0.5-1.1-1.1s0.5-1.1,1.1-1.1s1.1,0.5,1.1,1.1
		S21.8,125.8,21.2,125.8z M21.2,121.4c-0.6,0-1.1-0.5-1.1-1.1s0.5-1.1,1.1-1.1s1.1,0.5,1.1,1.1S21.8,121.4,21.2,121.4z M21.2,117
		c-0.6,0-1.1-0.5-1.1-1.1s0.5-1.1,1.1-1.1s1.1,0.5,1.1,1.1S21.8,117,21.2,117z M21.2,112.6c-0.6,0-1.1-0.5-1.1-1.1s0.5-1.1,1.1-1.1
		s1.1,0.5,1.1,1.1S21.8,112.6,21.2,112.6z M21.2,108.3c-0.6,0-1.1-0.5-1.1-1.1s0.5-1.1,1.1-1.1s1.1,0.5,1.1,1.1
		S21.8,108.3,21.2,108.3z M21.2,103.9c-0.6,0-1.1-0.5-1.1-1.1s0.5-1.1,1.1-1.1s1.1,0.5,1.1,1.1S21.8,103.9,21.2,103.9z M21.2,99.5
		c-0.6,0-1.1-0.5-1.1-1.1s0.5-1.1,1.1-1.1s1.1,0.5,1.1,1.1S21.8,99.5,21.2,99.5z M21.2,95.1c-0.6,0-1.1-0.5-1.1-1.1s0.5-1.1,1.1-1.1
		s1.1,0.5,1.1,1.1S21.8,95.1,21.2,95.1z M21.2,90.7c-0.6,0-1.1-0.5-1.1-1.1s0.5-1.1,1.1-1.1s1.1,0.5,1.1,1.1S21.8,90.7,21.2,90.7z
		 M21.2,86.3c-0.6,0-1.1-0.5-1.1-1.1s0.5-1.1,1.1-1.1s1.1,0.5,1.1,1.1S21.8,86.3,21.2,86.3z M21.2,81.9c-0.6,0-1.1-0.5-1.1-1.1
		s0.5-1.1,1.1-1.1s1.1,0.5,1.1,1.1S21.8,81.9,21.2,81.9z M21.2,77.5c-0.6,0-1.1-0.5-1.1-1.1s0.5-1.1,1.1-1.1s1.1,0.5,1.1,1.1
		S21.8,77.5,21.2,77.5z M21.2,73.1c-0.6,0-1.1-0.5-1.1-1.1s0.5-1.1,1.1-1.1s1.1,0.5,1.1,1.1S21.8,73.1,21.2,73.1z M21.2,68.7
		c-0.6,0-1.1-0.5-1.1-1.1s0.5-1.1,1.1-1.1s1.1,0.5,1.1,1.1S21.8,68.7,21.2,68.7z M21.2,64.4c-0.6,0-1.1-0.5-1.1-1.1s0.5-1.1,1.1-1.1
		s1.1,0.5,1.1,1.1S21.8,64.4,21.2,64.4z M21.2,60c-0.6,0-1.1-0.5-1.1-1.1s0.5-1.1,1.1-1.1s1.1,0.5,1.1,1.1S21.8,60,21.2,60z
		 M21.2,55.6c-0.6,0-1.1-0.5-1.1-1.1s0.5-1.1,1.1-1.1s1.1,0.5,1.1,1.1S21.8,55.6,21.2,55.6z M21.2,51.2c-0.6,0-1.1-0.5-1.1-1.1
		s0.5-1.1,1.1-1.1s1.1,0.5,1.1,1.1S21.8,51.2,21.2,51.2z M21.2,46.8c-0.6,0-1.1-0.5-1.1-1.1s0.5-1.1,1.1-1.1s1.1,0.5,1.1,1.1
		S21.8,46.8,21.2,46.8z M21.2,42.4c-0.6,0-1.1-0.5-1.1-1.1s0.5-1.1,1.1-1.1s1.1,0.5,1.1,1.1S21.8,42.4,21.2,42.4z M21.2,38
		c-0.6,0-1.1-0.5-1.1-1.1s0.5-1.1,1.1-1.1s1.1,0.5,1.1,1.1S21.8,38,21.2,38z M21.2,33.6c-0.6,0-1.1-0.5-1.1-1.1s0.5-1.1,1.1-1.1
		s1.1,0.5,1.1,1.1S21.8,33.6,21.2,33.6z M21.2,29.2c-0.6,0-1.1-0.5-1.1-1.1s0.5-1.1,1.1-1.1s1.1,0.5,1.1,1.1S21.8,29.2,21.2,29.2z
		 M21.2,24.9c-0.6,0-1.1-0.5-1.1-1.1s0.5-1.1,1.1-1.1s1.1,0.5,1.1,1.1S21.8,24.9,21.2,24.9z M21.2,20.5c-0.6,0-1.1-0.5-1.1-1.1
		s0.5-1.1,1.1-1.1s1.1,0.5,1.1,1.1S21.8,20.5,21.2,20.5z"/>
	<linearGradient id="Cabinet_2_" gradientUnits="userSpaceOnUse" x1="56.7158" y1="-9.1348" x2="177.0449" y2="312.3903">
		<stop  offset="0" style="stop-color:#575756"/>
		<stop  offset="1.586480e-02" style="stop-color:#5D5C5C"/>
		<stop  offset="0.1171" style="stop-color:#797878"/>
		<stop  offset="0.2183" style="stop-color:#8D8D8C"/>
		<stop  offset="0.3189" style="stop-color:#999998"/>
		<stop  offset="0.4178" style="stop-color:#9D9D9C"/>
		<stop  offset="0.5402" style="stop-color:#979696"/>
		<stop  offset="0.7122" style="stop-color:#848484"/>
		<stop  offset="0.9127" style="stop-color:#676666"/>
		<stop  offset="1" style="stop-color:#575756"/>
	</linearGradient>
	<path id="Cabinet_1_" fill="url(#Cabinet_2_)" stroke="#646567" stroke-width="0.75" stroke-miterlimit="10" d="M2.3,2.4v295.2
		h227.9V2.4H2.3z M215.6,263.4H16.9V16.9h198.8V263.4z"/>
</g>
<g id="Module_5">
	<linearGradient id="Shape_Case_2_" gradientUnits="userSpaceOnUse" x1="30.9019" y1="187.5737" x2="322.0346" y2="242.8565">
		<stop  offset="0" style="stop-color:#FFFFFF"/>
		<stop  offset="1" style="stop-color:#7C7C7B"/>
	</linearGradient>
	
		<rect id="Shape_Case_1_" x="16.9" y="182.1" fill="url(#Shape_Case_2_)" stroke="#8C8C91" stroke-width="0.75" stroke-miterlimit="10" width="198.8" height="43.4"/>
	<linearGradient id="Holder_Right_2_" gradientUnits="userSpaceOnUse" x1="205.998" y1="193.0366" x2="226.8157" y2="234.9556">
		<stop  offset="0" style="stop-color:#FFFFFF"/>
		<stop  offset="1" style="stop-color:#7C7C7B"/>
	</linearGradient>
	
		<rect id="Holder_Right_1_" x="207" y="182.1" fill="url(#Holder_Right_2_)" stroke="#8C8C91" stroke-width="0.75" stroke-miterlimit="10" width="8.6" height="43.4"/>
	<linearGradient id="Holder_Left_2_" gradientUnits="userSpaceOnUse" x1="15.8545" y1="193.041" x2="36.6631" y2="234.9418">
		<stop  offset="0" style="stop-color:#FFFFFF"/>
		<stop  offset="1" style="stop-color:#7C7C7B"/>
	</linearGradient>
	
		<rect id="Holder_Left_1_" x="16.9" y="182.1" fill="url(#Holder_Left_2_)" stroke="#8C8C91" stroke-width="0.75" stroke-miterlimit="10" width="8.6" height="43.4"/>
	
		<line id="Lower_Edge_1_" fill="none" stroke="#424242" stroke-width="0.75" stroke-miterlimit="10" x1="17.2" y1="225.5" x2="216" y2="225.5"/>
	
		<linearGradient id="Slide-Handle_Right_2_" gradientUnits="userSpaceOnUse" x1="210.0498" y1="203.8071" x2="211.7356" y2="203.8071">
		<stop  offset="0" style="stop-color:#A5A5A5"/>
		<stop  offset="4.758149e-02" style="stop-color:#B5B5B5"/>
		<stop  offset="0.1509" style="stop-color:#D3D3D3"/>
		<stop  offset="0.2395" style="stop-color:#E5E5E5"/>
		<stop  offset="0.3025" style="stop-color:#ECECEC"/>
		<stop  offset="0.4074" style="stop-color:#E8E8E8"/>
		<stop  offset="0.514" style="stop-color:#DCDCDC"/>
		<stop  offset="0.6214" style="stop-color:#C7C7C7"/>
		<stop  offset="0.7294" style="stop-color:#ABABAB"/>
		<stop  offset="0.8378" style="stop-color:#868686"/>
		<stop  offset="0.9452" style="stop-color:#5A5A5A"/>
		<stop  offset="1" style="stop-color:#404040"/>
	</linearGradient>
	
		<path id="Slide-Handle_Right_1_" fill="url(#Slide-Handle_Right_2_)" stroke="#646567" stroke-width="0.75" stroke-miterlimit="10" d="
		M211.3,222.1c-0.9,0-1.7-0.8-1.7-1.7v-33.2c0-0.9,0.8-1.7,1.7-1.7c0.9,0,1.7,0.8,1.7,1.7v33.2C213,221.4,212.3,222.1,211.3,222.1z"
		/>
	<linearGradient id="Slide-Handle_Left_3_" gradientUnits="userSpaceOnUse" x1="19.9038" y1="203.8071" x2="21.5903" y2="203.8071">
		<stop  offset="0" style="stop-color:#A5A5A5"/>
		<stop  offset="4.758149e-02" style="stop-color:#B5B5B5"/>
		<stop  offset="0.1509" style="stop-color:#D3D3D3"/>
		<stop  offset="0.2395" style="stop-color:#E5E5E5"/>
		<stop  offset="0.3025" style="stop-color:#ECECEC"/>
		<stop  offset="0.4074" style="stop-color:#E8E8E8"/>
		<stop  offset="0.514" style="stop-color:#DCDCDC"/>
		<stop  offset="0.6214" style="stop-color:#C7C7C7"/>
		<stop  offset="0.7294" style="stop-color:#ABABAB"/>
		<stop  offset="0.8378" style="stop-color:#868686"/>
		<stop  offset="0.9452" style="stop-color:#5A5A5A"/>
		<stop  offset="1" style="stop-color:#404040"/>
	</linearGradient>
	
		<path id="Slide-Handle_Left_1_" fill="url(#Slide-Handle_Left_3_)" stroke="#646567" stroke-width="0.75" stroke-miterlimit="10" d="
		M21.2,222.1c-0.9,0-1.7-0.8-1.7-1.7v-33.2c0-0.9,0.8-1.7,1.7-1.7c0.9,0,1.7,0.8,1.7,1.7v33.2C22.9,221.4,22.1,222.1,21.2,222.1z"/>
	<path id="Devider_Lines_1_" fill="none" stroke="#646567" stroke-width="0.75" stroke-miterlimit="10" d="M205,223.5H27.5V184H205
		V223.5z M197.3,223.5V184 M189.6,223.5V184 M181.9,223.5V184 M174.2,223.5V184 M166.5,223.5V184 M158.8,223.5V184 M151.1,223.5V184
		 M143.4,223.5V184 M135.7,223.5V184 M128,223.5V184"/>
	<linearGradient id="Buttons_2_" gradientUnits="userSpaceOnUse" x1="41.9995" y1="178.4468" x2="44.3699" y2="193.6467">
		<stop  offset="0" style="stop-color:#9A9A99"/>
		<stop  offset="0.2954" style="stop-color:#919190"/>
		<stop  offset="0.7771" style="stop-color:#797978"/>
		<stop  offset="1" style="stop-color:#6B6B6A"/>
	</linearGradient>
	<path id="Buttons_1_" fill="url(#Buttons_2_)" stroke="#646567" stroke-miterlimit="10" d="M49.7,186.3h-4.4v4.4h4.4V186.3z
		 M41.8,186.3h-4.4v4.4h4.4V186.3z"/>
</g>
<g id="Module_4">
	<linearGradient id="Shape_Case_3_" gradientUnits="userSpaceOnUse" x1="30.9014" y1="139.3433" x2="322.0355" y2="194.6263">
		<stop  offset="0" style="stop-color:#FFFFFF"/>
		<stop  offset="1" style="stop-color:#7C7C7B"/>
	</linearGradient>
	
		<rect id="Shape_Case_14_" x="16.9" y="133.8" fill="url(#Shape_Case_3_)" stroke="#8C8C91" stroke-width="0.75" stroke-miterlimit="10" width="198.8" height="43.4"/>
	<linearGradient id="Holder_Right_3_" gradientUnits="userSpaceOnUse" x1="205.998" y1="144.8062" x2="226.8157" y2="186.7251">
		<stop  offset="0" style="stop-color:#FFFFFF"/>
		<stop  offset="1" style="stop-color:#7C7C7B"/>
	</linearGradient>
	
		<rect id="Holder_Right_14_" x="207" y="133.8" fill="url(#Holder_Right_3_)" stroke="#8C8C91" stroke-width="0.75" stroke-miterlimit="10" width="8.6" height="43.4"/>
	<linearGradient id="Holder_Left_3_" gradientUnits="userSpaceOnUse" x1="15.8545" y1="144.8101" x2="36.6631" y2="186.7108">
		<stop  offset="0" style="stop-color:#FFFFFF"/>
		<stop  offset="1" style="stop-color:#7C7C7B"/>
	</linearGradient>
	
		<rect id="Holder_Left_14_" x="16.9" y="133.8" fill="url(#Holder_Left_3_)" stroke="#8C8C91" stroke-width="0.75" stroke-miterlimit="10" width="8.6" height="43.4"/>
	
		<line id="Lower_Edge_12_" fill="none" stroke="#424242" stroke-width="0.75" stroke-miterlimit="10" x1="17.2" y1="177.3" x2="216" y2="177.3"/>
	
		<linearGradient id="Slide-Handle_Right_3_" gradientUnits="userSpaceOnUse" x1="210.0498" y1="155.5762" x2="211.7356" y2="155.5762">
		<stop  offset="0" style="stop-color:#A5A5A5"/>
		<stop  offset="4.758149e-02" style="stop-color:#B5B5B5"/>
		<stop  offset="0.1509" style="stop-color:#D3D3D3"/>
		<stop  offset="0.2395" style="stop-color:#E5E5E5"/>
		<stop  offset="0.3025" style="stop-color:#ECECEC"/>
		<stop  offset="0.4074" style="stop-color:#E8E8E8"/>
		<stop  offset="0.514" style="stop-color:#DCDCDC"/>
		<stop  offset="0.6214" style="stop-color:#C7C7C7"/>
		<stop  offset="0.7294" style="stop-color:#ABABAB"/>
		<stop  offset="0.8378" style="stop-color:#868686"/>
		<stop  offset="0.9452" style="stop-color:#5A5A5A"/>
		<stop  offset="1" style="stop-color:#404040"/>
	</linearGradient>
	
		<path id="Slide-Handle_Right_14_" fill="url(#Slide-Handle_Right_3_)" stroke="#646567" stroke-width="0.75" stroke-miterlimit="10" d="
		M211.3,173.9c-0.9,0-1.7-0.8-1.7-1.7V139c0-0.9,0.8-1.7,1.7-1.7c0.9,0,1.7,0.8,1.7,1.7v33.2C213,173.1,212.3,173.9,211.3,173.9z"/>
	<linearGradient id="Slide-Handle_Left_5_" gradientUnits="userSpaceOnUse" x1="19.9038" y1="155.5762" x2="21.5903" y2="155.5762">
		<stop  offset="0" style="stop-color:#A5A5A5"/>
		<stop  offset="4.758149e-02" style="stop-color:#B5B5B5"/>
		<stop  offset="0.1509" style="stop-color:#D3D3D3"/>
		<stop  offset="0.2395" style="stop-color:#E5E5E5"/>
		<stop  offset="0.3025" style="stop-color:#ECECEC"/>
		<stop  offset="0.4074" style="stop-color:#E8E8E8"/>
		<stop  offset="0.514" style="stop-color:#DCDCDC"/>
		<stop  offset="0.6214" style="stop-color:#C7C7C7"/>
		<stop  offset="0.7294" style="stop-color:#ABABAB"/>
		<stop  offset="0.8378" style="stop-color:#868686"/>
		<stop  offset="0.9452" style="stop-color:#5A5A5A"/>
		<stop  offset="1" style="stop-color:#404040"/>
	</linearGradient>
	
		<path id="Slide-Handle_Left_12_" fill="url(#Slide-Handle_Left_5_)" stroke="#646567" stroke-width="0.75" stroke-miterlimit="10" d="
		M21.2,173.9c-0.9,0-1.7-0.8-1.7-1.7V139c0-0.9,0.8-1.7,1.7-1.7c0.9,0,1.7,0.8,1.7,1.7v33.2C22.9,173.1,22.1,173.9,21.2,173.9z"/>
	<path id="Devider_Lines" fill="none" stroke="#646567" stroke-width="0.75" stroke-miterlimit="10" d="M205,175.2H27.5v-39.4H205
		V175.2z M197.3,175.2v-39.4 M189.6,175.2v-39.4 M181.9,175.2v-39.4 M174.2,175.2v-39.4 M166.5,175.2v-39.4 M158.8,175.2v-39.4
		 M151.1,175.2v-39.4 M143.4,175.2v-39.4 M135.7,175.2v-39.4 M128,175.2v-39.4"/>
	<linearGradient id="Buttons_3_" gradientUnits="userSpaceOnUse" x1="41.9995" y1="130.2158" x2="44.3699" y2="145.4158">
		<stop  offset="0" style="stop-color:#9A9A99"/>
		<stop  offset="0.2954" style="stop-color:#919190"/>
		<stop  offset="0.7771" style="stop-color:#797978"/>
		<stop  offset="1" style="stop-color:#6B6B6A"/>
	</linearGradient>
	<path id="Buttons_8_" fill="url(#Buttons_3_)" stroke="#646567" stroke-miterlimit="10" d="M49.7,138.1h-4.4v4.4h4.4V138.1z
		 M41.8,138.1h-4.4v4.4h4.4V138.1z"/>
</g>
<g id="Module_3">
	<linearGradient id="Shape_Case_4_" gradientUnits="userSpaceOnUse" x1="31.9375" y1="97.7427" x2="319.538" y2="152.3547">
		<stop  offset="0" style="stop-color:#FFFFFF"/>
		<stop  offset="1" style="stop-color:#7C7C7B"/>
	</linearGradient>
	
		<rect id="Shape_Case_12_" x="16.9" y="98.6" fill="url(#Shape_Case_4_)" stroke="#8C8C91" stroke-width="0.75" stroke-miterlimit="10" width="198.8" height="30.2"/>
	<linearGradient id="Holder_Right_4_" gradientUnits="userSpaceOnUse" x1="207.4775" y1="105.9883" x2="222.5244" y2="136.287">
		<stop  offset="0" style="stop-color:#FFFFFF"/>
		<stop  offset="1" style="stop-color:#7C7C7B"/>
	</linearGradient>
	
		<rect id="Holder_Right_12_" x="207" y="98.6" fill="url(#Holder_Right_4_)" stroke="#8C8C91" stroke-width="0.75" stroke-miterlimit="10" width="8.6" height="30.2"/>
	<linearGradient id="Holder_Left_4_" gradientUnits="userSpaceOnUse" x1="17.334" y1="105.9932" x2="32.3723" y2="136.2747">
		<stop  offset="0" style="stop-color:#FFFFFF"/>
		<stop  offset="1" style="stop-color:#7C7C7B"/>
	</linearGradient>
	
		<rect id="Holder_Left_12_" x="16.9" y="98.6" fill="url(#Holder_Left_4_)" stroke="#8C8C91" stroke-width="0.75" stroke-miterlimit="10" width="8.6" height="30.2"/>
	
		<line id="Lower_Edge_10_" fill="none" stroke="#424242" stroke-width="0.75" stroke-miterlimit="10" x1="17.2" y1="128.9" x2="216" y2="128.9"/>
	
		<linearGradient id="Slide-Handle_Right_4_" gradientUnits="userSpaceOnUse" x1="210.0498" y1="113.7793" x2="211.7356" y2="113.7793">
		<stop  offset="0" style="stop-color:#A5A5A5"/>
		<stop  offset="4.758149e-02" style="stop-color:#B5B5B5"/>
		<stop  offset="0.1509" style="stop-color:#D3D3D3"/>
		<stop  offset="0.2395" style="stop-color:#E5E5E5"/>
		<stop  offset="0.3025" style="stop-color:#ECECEC"/>
		<stop  offset="0.4074" style="stop-color:#E8E8E8"/>
		<stop  offset="0.514" style="stop-color:#DCDCDC"/>
		<stop  offset="0.6214" style="stop-color:#C7C7C7"/>
		<stop  offset="0.7294" style="stop-color:#ABABAB"/>
		<stop  offset="0.8378" style="stop-color:#868686"/>
		<stop  offset="0.9452" style="stop-color:#5A5A5A"/>
		<stop  offset="1" style="stop-color:#404040"/>
	</linearGradient>
	
		<path id="Slide-Handle_Right_12_" fill="url(#Slide-Handle_Right_4_)" stroke="#646567" stroke-width="0.75" stroke-miterlimit="10" d="
		M211.3,125.5c-0.9,0-1.7-0.8-1.7-1.7v-20c0-0.9,0.8-1.7,1.7-1.7c0.9,0,1.7,0.8,1.7,1.7v20C213,124.7,212.3,125.5,211.3,125.5z"/>
	<linearGradient id="Slide-Handle_Left_6_" gradientUnits="userSpaceOnUse" x1="19.9038" y1="113.7793" x2="21.5903" y2="113.7793">
		<stop  offset="0" style="stop-color:#A5A5A5"/>
		<stop  offset="4.758149e-02" style="stop-color:#B5B5B5"/>
		<stop  offset="0.1509" style="stop-color:#D3D3D3"/>
		<stop  offset="0.2395" style="stop-color:#E5E5E5"/>
		<stop  offset="0.3025" style="stop-color:#ECECEC"/>
		<stop  offset="0.4074" style="stop-color:#E8E8E8"/>
		<stop  offset="0.514" style="stop-color:#DCDCDC"/>
		<stop  offset="0.6214" style="stop-color:#C7C7C7"/>
		<stop  offset="0.7294" style="stop-color:#ABABAB"/>
		<stop  offset="0.8378" style="stop-color:#868686"/>
		<stop  offset="0.9452" style="stop-color:#5A5A5A"/>
		<stop  offset="1" style="stop-color:#404040"/>
	</linearGradient>
	
		<path id="Slide-Handle_Left_4_" fill="url(#Slide-Handle_Left_6_)" stroke="#646567" stroke-width="0.75" stroke-miterlimit="10" d="
		M21.2,125.5c-0.9,0-1.7-0.8-1.7-1.7v-20c0-0.9,0.8-1.7,1.7-1.7c0.9,0,1.7,0.8,1.7,1.7v20C22.9,124.7,22.1,125.5,21.2,125.5z"/>
	
		<linearGradient id="Lamps__x2B__Switchs_2_" gradientUnits="userSpaceOnUse" x1="104.084" y1="46.6763" x2="131.0343" y2="114.407">
		<stop  offset="0" style="stop-color:#FFFFFF"/>
		<stop  offset="1" style="stop-color:#7C7C7B"/>
	</linearGradient>
	<path id="Lamps__x2B__Switchs_1_" fill="url(#Lamps__x2B__Switchs_2_)" stroke="#8C8C91" stroke-miterlimit="10" d="M193.5,109.2
		h-4.3v-4.3h4.3V109.2z M193.5,111.6h-4.3v4.3h4.3V111.6z M193.5,118.3h-4.3v4.3h4.3V118.3z M185.4,104.8h-4.3v4.3h4.3V104.8z
		 M185.4,111.6h-4.3v4.3h4.3V111.6z M185.4,118.3h-4.3v4.3h4.3V118.3z M177.4,104.8H173v4.3h4.3V104.8z M177.4,111.6H173v4.3h4.3
		V111.6z M177.4,118.3H173v4.3h4.3V118.3z M169.3,104.8H165v4.3h4.3V104.8z M169.3,111.6H165v4.3h4.3V111.6z M169.3,118.3H165v4.3
		h4.3V118.3z M161.2,104.8h-4.3v4.3h4.3V104.8z M161.2,111.6h-4.3v4.3h4.3V111.6z M161.2,118.3h-4.3v4.3h4.3V118.3z M153.1,104.8
		h-4.3v4.3h4.3V104.8z M153.1,111.6h-4.3v4.3h4.3V111.6z M153.1,118.3h-4.3v4.3h4.3V118.3z M145.1,104.8h-4.3v4.3h4.3V104.8z
		 M145.1,111.6h-4.3v4.3h4.3V111.6z M145.1,118.3h-4.3v4.3h4.3V118.3z M137,104.8h-4.3v4.3h4.3V104.8z M137,111.6h-4.3v4.3h4.3
		V111.6z M137,118.3h-4.3v4.3h4.3V118.3z M128.9,104.8h-4.3v4.3h4.3V104.8z M128.9,111.6h-4.3v4.3h4.3V111.6z M128.9,118.3h-4.3v4.3
		h4.3V118.3z M120.8,104.8h-4.3v4.3h4.3V104.8z M120.8,111.6h-4.3v4.3h4.3V111.6z M120.8,118.3h-4.3v4.3h4.3V118.3z M112.8,104.8
		h-4.3v4.3h4.3V104.8z M112.8,111.6h-4.3v4.3h4.3V111.6z M112.8,118.3h-4.3v4.3h4.3V118.3z M104.7,104.8h-4.3v4.3h4.3V104.8z
		 M104.7,111.6h-4.3v4.3h4.3V111.6z M104.7,118.3h-4.3v4.3h4.3V118.3z M96.6,104.8h-4.3v4.3h4.3V104.8z M96.6,111.6h-4.3v4.3h4.3
		V111.6z M96.6,118.3h-4.3v4.3h4.3V118.3z M88.5,104.8h-4.3v4.3h4.3V104.8z M88.5,111.6h-4.3v4.3h4.3V111.6z M88.5,118.3h-4.3v4.3
		h4.3V118.3z M80.5,104.8h-4.3v4.3h4.3V104.8z M80.5,111.6h-4.3v4.3h4.3V111.6z M80.5,118.3h-4.3v4.3h4.3V118.3z M72.4,104.8H68v4.3
		h4.3V104.8z M72.4,111.6H68v4.3h4.3V111.6z M72.4,118.3H68v4.3h4.3V118.3z"/>
	<linearGradient id="Buttons_Left_2_" gradientUnits="userSpaceOnUse" x1="46.3267" y1="106.9351" x2="66.9546" y2="148.3954">
		<stop  offset="0" style="stop-color:#FFFFFF"/>
		<stop  offset="1" style="stop-color:#7C7C7B"/>
	</linearGradient>
	<path id="Buttons_Left_1_" fill="url(#Buttons_Left_2_)" stroke="#8C8C91" stroke-miterlimit="10" d="M48.1,109.2H37.5v-4.3h10.6
		V109.2z M48.1,111.6H37.5v4.3h10.6V111.6z M48.1,118.3H37.5v4.3h10.6V118.3z M62,104.8H51.4v4.3H62V104.8z M62,111.6H51.4v4.3H62
		V111.6z M62,118.3H51.4v4.3H62V118.3z"/>
</g>
<g id="Module_2">
	<linearGradient id="Shape_Case_5_" gradientUnits="userSpaceOnUse" x1="31.938" y1="62.7739" x2="319.5385" y2="117.3859">
		<stop  offset="0" style="stop-color:#FFFFFF"/>
		<stop  offset="1" style="stop-color:#7C7C7B"/>
	</linearGradient>
	
		<rect id="Shape_Case_13_" x="16.9" y="63.7" fill="url(#Shape_Case_5_)" stroke="#8C8C91" stroke-width="0.75" stroke-miterlimit="10" width="198.8" height="30.2"/>
	<linearGradient id="Holder_Right_5_" gradientUnits="userSpaceOnUse" x1="207.4775" y1="71.0195" x2="222.5244" y2="101.3183">
		<stop  offset="0" style="stop-color:#FFFFFF"/>
		<stop  offset="1" style="stop-color:#7C7C7B"/>
	</linearGradient>
	
		<rect id="Holder_Right_13_" x="207" y="63.7" fill="url(#Holder_Right_5_)" stroke="#8C8C91" stroke-width="0.75" stroke-miterlimit="10" width="8.6" height="30.2"/>
	<linearGradient id="Holder_Left_5_" gradientUnits="userSpaceOnUse" x1="17.334" y1="71.0234" x2="32.3718" y2="101.304">
		<stop  offset="0" style="stop-color:#FFFFFF"/>
		<stop  offset="1" style="stop-color:#7C7C7B"/>
	</linearGradient>
	
		<rect id="Holder_Left_13_" x="16.9" y="63.7" fill="url(#Holder_Left_5_)" stroke="#8C8C91" stroke-width="0.75" stroke-miterlimit="10" width="8.6" height="30.2"/>
	
		<line id="Lower_Edge_11_" fill="none" stroke="#424242" stroke-width="0.75" stroke-miterlimit="10" x1="17.2" y1="93.9" x2="216" y2="93.9"/>
	
		<linearGradient id="Slide-Handle_Right_5_" gradientUnits="userSpaceOnUse" x1="210.0498" y1="78.8105" x2="211.7356" y2="78.8105">
		<stop  offset="0" style="stop-color:#A5A5A5"/>
		<stop  offset="4.758149e-02" style="stop-color:#B5B5B5"/>
		<stop  offset="0.1509" style="stop-color:#D3D3D3"/>
		<stop  offset="0.2395" style="stop-color:#E5E5E5"/>
		<stop  offset="0.3025" style="stop-color:#ECECEC"/>
		<stop  offset="0.4074" style="stop-color:#E8E8E8"/>
		<stop  offset="0.514" style="stop-color:#DCDCDC"/>
		<stop  offset="0.6214" style="stop-color:#C7C7C7"/>
		<stop  offset="0.7294" style="stop-color:#ABABAB"/>
		<stop  offset="0.8378" style="stop-color:#868686"/>
		<stop  offset="0.9452" style="stop-color:#5A5A5A"/>
		<stop  offset="1" style="stop-color:#404040"/>
	</linearGradient>
	
		<path id="Slide-Handle_Right_13_" fill="url(#Slide-Handle_Right_5_)" stroke="#646567" stroke-width="0.75" stroke-miterlimit="10" d="
		M211.3,90.5c-0.9,0-1.7-0.8-1.7-1.7v-20c0-0.9,0.8-1.7,1.7-1.7c0.9,0,1.7,0.8,1.7,1.7v20C213,89.7,212.3,90.5,211.3,90.5z"/>
	<linearGradient id="Slide-Handle_Left_7_" gradientUnits="userSpaceOnUse" x1="19.9038" y1="78.8105" x2="21.5903" y2="78.8105">
		<stop  offset="0" style="stop-color:#A5A5A5"/>
		<stop  offset="4.758149e-02" style="stop-color:#B5B5B5"/>
		<stop  offset="0.1509" style="stop-color:#D3D3D3"/>
		<stop  offset="0.2395" style="stop-color:#E5E5E5"/>
		<stop  offset="0.3025" style="stop-color:#ECECEC"/>
		<stop  offset="0.4074" style="stop-color:#E8E8E8"/>
		<stop  offset="0.514" style="stop-color:#DCDCDC"/>
		<stop  offset="0.6214" style="stop-color:#C7C7C7"/>
		<stop  offset="0.7294" style="stop-color:#ABABAB"/>
		<stop  offset="0.8378" style="stop-color:#868686"/>
		<stop  offset="0.9452" style="stop-color:#5A5A5A"/>
		<stop  offset="1" style="stop-color:#404040"/>
	</linearGradient>
	
		<path id="Slide-Handle_Left_11_" fill="url(#Slide-Handle_Left_7_)" stroke="#646567" stroke-width="0.75" stroke-miterlimit="10" d="
		M21.2,90.5c-0.9,0-1.7-0.8-1.7-1.7v-20c0-0.9,0.8-1.7,1.7-1.7c0.9,0,1.7,0.8,1.7,1.7v20C22.9,89.7,22.1,90.5,21.2,90.5z"/>
	
		<linearGradient id="Open_Close_Buttons_1_" gradientUnits="userSpaceOnUse" x1="188.1406" y1="73.4375" x2="192.7659" y2="107.5649">
		<stop  offset="0" style="stop-color:#FFFFFF"/>
		<stop  offset="1" style="stop-color:#7C7C7B"/>
	</linearGradient>
	<path id="Open_Close_Buttons" fill="url(#Open_Close_Buttons_1_)" stroke="#8C8C91" stroke-miterlimit="10" d="M191,71.7h-4.4v4.4
		h4.4V71.7z M191,81h-4.4v4.4h4.4V81z"/>
	<linearGradient id="Buttons_Left_3_" gradientUnits="userSpaceOnUse" x1="49.2227" y1="56.1387" x2="52.5183" y2="77.2717">
		<stop  offset="0" style="stop-color:#9A9A99"/>
		<stop  offset="0.2954" style="stop-color:#919190"/>
		<stop  offset="0.7771" style="stop-color:#797978"/>
		<stop  offset="1" style="stop-color:#6B6B6A"/>
	</linearGradient>
	<path id="Buttons_Left" fill="url(#Buttons_Left_3_)" stroke="#646567" stroke-miterlimit="10" d="M57.5,67.9h-4.4v4.4h4.4V67.9z
		 M49.7,67.9h-4.4v4.4h4.4V67.9z M41.8,67.9h-4.4v4.4h4.4V67.9z M65.3,67.9H61v4.4h4.4V67.9z"/>
	<path id="Drives" fill="none" stroke="#646567" stroke-width="0.75" stroke-miterlimit="10" d="M193.5,87.9H107v-9.4v-9.4h86.5
		V87.9z M193.5,78.5H107"/>
</g>
<g id="Module_1">
	<linearGradient id="Shape_Case_6_" gradientUnits="userSpaceOnUse" x1="31.9385" y1="27.5898" x2="319.539" y2="82.2019">
		<stop  offset="0" style="stop-color:#FFFFFF"/>
		<stop  offset="1" style="stop-color:#7C7C7B"/>
	</linearGradient>
	
		<rect id="Shape_Case_11_" x="16.9" y="28.5" fill="url(#Shape_Case_6_)" stroke="#8C8C91" stroke-width="0.75" stroke-miterlimit="10" width="198.8" height="30.2"/>
	<linearGradient id="Shape_2_" gradientUnits="userSpaceOnUse" x1="141.2285" y1="-9.8154" x2="150.5481" y2="44.9171">
		<stop  offset="0" style="stop-color:#FFFFFF"/>
		<stop  offset="1" style="stop-color:#7C7C7B"/>
	</linearGradient>
	
		<rect id="Shape_1_" x="107" y="33.9" fill="url(#Shape_2_)" stroke="#8C8C91" stroke-width="0.75" stroke-miterlimit="10" width="86.5" height="18.8"/>
	<linearGradient id="Holder_Right_6_" gradientUnits="userSpaceOnUse" x1="207.4775" y1="35.8345" x2="222.5244" y2="66.1332">
		<stop  offset="0" style="stop-color:#FFFFFF"/>
		<stop  offset="1" style="stop-color:#7C7C7B"/>
	</linearGradient>
	
		<rect id="Holder_Right_11_" x="207" y="28.5" fill="url(#Holder_Right_6_)" stroke="#8C8C91" stroke-width="0.75" stroke-miterlimit="10" width="8.6" height="30.2"/>
	<linearGradient id="Holder_Left_6_" gradientUnits="userSpaceOnUse" x1="17.334" y1="35.8389" x2="32.3718" y2="66.1194">
		<stop  offset="0" style="stop-color:#FFFFFF"/>
		<stop  offset="1" style="stop-color:#7C7C7B"/>
	</linearGradient>
	
		<rect id="Holder_Left_11_" x="16.9" y="28.5" fill="url(#Holder_Left_6_)" stroke="#8C8C91" stroke-width="0.75" stroke-miterlimit="10" width="8.6" height="30.2"/>
	
		<line id="Lower_Edge_9_" fill="none" stroke="#424242" stroke-width="0.75" stroke-miterlimit="10" x1="17.2" y1="58.7" x2="216" y2="58.7"/>
	<linearGradient id="Slide-Handle_Right_6_" gradientUnits="userSpaceOnUse" x1="210.0498" y1="43.626" x2="211.7356" y2="43.626">
		<stop  offset="0" style="stop-color:#A5A5A5"/>
		<stop  offset="4.758149e-02" style="stop-color:#B5B5B5"/>
		<stop  offset="0.1509" style="stop-color:#D3D3D3"/>
		<stop  offset="0.2395" style="stop-color:#E5E5E5"/>
		<stop  offset="0.3025" style="stop-color:#ECECEC"/>
		<stop  offset="0.4074" style="stop-color:#E8E8E8"/>
		<stop  offset="0.514" style="stop-color:#DCDCDC"/>
		<stop  offset="0.6214" style="stop-color:#C7C7C7"/>
		<stop  offset="0.7294" style="stop-color:#ABABAB"/>
		<stop  offset="0.8378" style="stop-color:#868686"/>
		<stop  offset="0.9452" style="stop-color:#5A5A5A"/>
		<stop  offset="1" style="stop-color:#404040"/>
	</linearGradient>
	
		<path id="Slide-Handle_Right_11_" fill="url(#Slide-Handle_Right_6_)" stroke="#646567" stroke-width="0.75" stroke-miterlimit="10" d="
		M211.3,55.3c-0.9,0-1.7-0.8-1.7-1.7v-20c0-0.9,0.8-1.7,1.7-1.7c0.9,0,1.7,0.8,1.7,1.7v20C213,54.6,212.3,55.3,211.3,55.3z"/>
	<linearGradient id="Slide-Handle_Left_8_" gradientUnits="userSpaceOnUse" x1="19.9038" y1="43.626" x2="21.5903" y2="43.626">
		<stop  offset="0" style="stop-color:#A5A5A5"/>
		<stop  offset="4.758149e-02" style="stop-color:#B5B5B5"/>
		<stop  offset="0.1509" style="stop-color:#D3D3D3"/>
		<stop  offset="0.2395" style="stop-color:#E5E5E5"/>
		<stop  offset="0.3025" style="stop-color:#ECECEC"/>
		<stop  offset="0.4074" style="stop-color:#E8E8E8"/>
		<stop  offset="0.514" style="stop-color:#DCDCDC"/>
		<stop  offset="0.6214" style="stop-color:#C7C7C7"/>
		<stop  offset="0.7294" style="stop-color:#ABABAB"/>
		<stop  offset="0.8378" style="stop-color:#868686"/>
		<stop  offset="0.9452" style="stop-color:#5A5A5A"/>
		<stop  offset="1" style="stop-color:#404040"/>
	</linearGradient>
	
		<path id="Slide-Handle_Left_2_" fill="url(#Slide-Handle_Left_8_)" stroke="#646567" stroke-width="0.75" stroke-miterlimit="10" d="
		M21.2,55.3c-0.9,0-1.7-0.8-1.7-1.7v-20c0-0.9,0.8-1.7,1.7-1.7c0.9,0,1.7,0.8,1.7,1.7v20C22.9,54.6,22.1,55.3,21.2,55.3z"/>
	<linearGradient id="Buttons_4_" gradientUnits="userSpaceOnUse" x1="45.6113" y1="22.917" x2="48.4443" y2="41.0835">
		<stop  offset="0" style="stop-color:#9A9A99"/>
		<stop  offset="0.2954" style="stop-color:#919190"/>
		<stop  offset="0.7771" style="stop-color:#797978"/>
		<stop  offset="1" style="stop-color:#6B6B6A"/>
	</linearGradient>
	<path id="Buttons_7_" fill="url(#Buttons_4_)" stroke="#646567" stroke-miterlimit="10" d="M57.5,32.8h-4.4v4.4h4.4V32.8z
		 M49.7,32.8h-4.4v4.4h4.4V32.8z M41.8,32.8h-4.4v4.4h4.4V32.8z"/>
</g>
</svg>
