<?xml version="1.0" encoding="utf-8"?>

<!-- Copyright 2016 Siemens AG -->

<!-- Generator: Adobe Illustrator 16.0.4, SVG Export Plug-In . SVG Version: 6.00 Build 0)  -->
<!DOCTYPE svg PUBLIC "-//W3C//DTD SVG 1.1//EN" "http://www.w3.org/Graphics/SVG/1.1/DTD/svg11.dtd">
<svg version="1.1" id="Digital_Scale" xmlns="http://www.w3.org/2000/svg" xmlns:xlink="http://www.w3.org/1999/xlink" x="0px"
	 y="0px" width="300px" height="119px" viewBox="0 0 300 119" enable-background="new 0 0 300 119" xml:space="preserve">
<g id="Stands">
	<g id="Stand_Right">
		<linearGradient id="Shape_4_" gradientUnits="userSpaceOnUse" x1="238.9736" y1="113.6836" x2="264.5938" y2="113.6836">
			<stop  offset="0" style="stop-color:#A5A5A5"/>
			<stop  offset="4.758149e-02" style="stop-color:#B5B5B5"/>
			<stop  offset="0.1509" style="stop-color:#D3D3D3"/>
			<stop  offset="0.2395" style="stop-color:#E5E5E5"/>
			<stop  offset="0.3025" style="stop-color:#ECECEC"/>
			<stop  offset="0.4074" style="stop-color:#E8E8E8"/>
			<stop  offset="0.514" style="stop-color:#DCDCDC"/>
			<stop  offset="0.6214" style="stop-color:#C7C7C7"/>
			<stop  offset="0.7294" style="stop-color:#ABABAB"/>
			<stop  offset="0.8378" style="stop-color:#868686"/>
			<stop  offset="0.9452" style="stop-color:#5A5A5A"/>
			<stop  offset="1" style="stop-color:#404040"/>
		</linearGradient>
		
			<rect id="Shape_3_" x="235.9" y="110.8" fill="url(#Shape_4_)" stroke="#646567" stroke-width="0.75" stroke-linecap="round" stroke-linejoin="round" stroke-miterlimit="10" width="31.9" height="5.8"/>
		
			<line id="Devider_Line_1_" fill="none" stroke="#646567" stroke-width="0.75" stroke-linecap="round" stroke-linejoin="round" stroke-miterlimit="10" x1="235.9" y1="115" x2="267.9" y2="115"/>
	</g>
	<g id="Stand_Left">
		<linearGradient id="Shape_5_" gradientUnits="userSpaceOnUse" x1="35.3516" y1="113.6836" x2="60.9717" y2="113.6836">
			<stop  offset="0" style="stop-color:#A5A5A5"/>
			<stop  offset="4.758149e-02" style="stop-color:#B5B5B5"/>
			<stop  offset="0.1509" style="stop-color:#D3D3D3"/>
			<stop  offset="0.2395" style="stop-color:#E5E5E5"/>
			<stop  offset="0.3025" style="stop-color:#ECECEC"/>
			<stop  offset="0.4074" style="stop-color:#E8E8E8"/>
			<stop  offset="0.514" style="stop-color:#DCDCDC"/>
			<stop  offset="0.6214" style="stop-color:#C7C7C7"/>
			<stop  offset="0.7294" style="stop-color:#ABABAB"/>
			<stop  offset="0.8378" style="stop-color:#868686"/>
			<stop  offset="0.9452" style="stop-color:#5A5A5A"/>
			<stop  offset="1" style="stop-color:#404040"/>
		</linearGradient>
		
			<rect id="Shape_2_" x="32.3" y="110.8" fill="url(#Shape_5_)" stroke="#646567" stroke-width="0.75" stroke-linecap="round" stroke-linejoin="round" stroke-miterlimit="10" width="31.9" height="5.8"/>
		
			<line id="Devider_Line" fill="none" stroke="#646567" stroke-width="0.75" stroke-linecap="round" stroke-linejoin="round" stroke-miterlimit="10" x1="32.3" y1="115" x2="64.2" y2="115"/>
	</g>
</g>
<g id="Housing">
	<linearGradient id="Bevelled_Edge_1_" gradientUnits="userSpaceOnUse" x1="149.1372" y1="64.8042" x2="150.9826" y2="71.8774">
		<stop  offset="0" style="stop-color:#DEDEDE"/>
		<stop  offset="1" style="stop-color:#646567"/>
	</linearGradient>
	
		<path id="Bevelled_Edge" fill="url(#Bevelled_Edge_1_)" stroke="#8C8C91" stroke-width="0.75" stroke-linecap="round" stroke-linejoin="round" stroke-miterlimit="10" d="
		M297.7,106.4c0,2.4-2,4.4-4.4,4.4H6.8c-2.4,0-4.4-2-4.4-4.4v-76c0-2.4,2-4.4,4.4-4.4h286.5c2.4,0,4.4,2,4.4,4.4V106.4z"/>
	<linearGradient id="Shape_Front_1_" gradientUnits="userSpaceOnUse" x1="150.1802" y1="12.6855" x2="150.1802" y2="130.1366">
		<stop  offset="0" style="stop-color:#FFFFFF"/>
		<stop  offset="1" style="stop-color:#7C7C7B"/>
	</linearGradient>
	<path id="Shape_Front" fill="url(#Shape_Front_1_)" d="M295,81.1V30.2c0-0.7-0.5-1.2-1.2-1.2H6.6c-0.7,0-1.2,0.5-1.2,1.2v50.9H295z
		"/>
	<linearGradient id="Shape_Underside_1_" gradientUnits="userSpaceOnUse" x1="102.749" y1="-80.5186" x2="155.9136" y2="115.2064">
		<stop  offset="0" style="stop-color:#FFFFFF"/>
		<stop  offset="1" style="stop-color:#7C7C7B"/>
	</linearGradient>
	<path id="Shape_Underside" fill="url(#Shape_Underside_1_)" d="M295,81.1v25.8c0,0.7-0.5,1.2-1.2,1.2H6.6c-0.7,0-1.2-0.5-1.2-1.2
		V81.1H295z"/>
	<g id="Buttons">
		<g id="Buttons_Right">
			
				<path id="Text_1_" fill="#8C8C91" stroke="#8C8C91" stroke-width="0.75" stroke-linecap="round" stroke-linejoin="round" stroke-miterlimit="10" d="
				M240.2,68.5h-14.1v-2.7h14.1V68.5z M261.4,65.8h-14.1v2.7h14.1V65.8z M282.5,65.8h-14.1v2.7h14.1V65.8z"/>
			<linearGradient id="Buttons_2_" gradientUnits="userSpaceOnUse" x1="254.2861" y1="34.9077" x2="254.2861" y2="80.4075">
				<stop  offset="0" style="stop-color:#FFFFFF"/>
				<stop  offset="1" style="stop-color:#7C7C7B"/>
			</linearGradient>
			
				<path id="Buttons_1_" fill="url(#Buttons_2_)" stroke="#575756" stroke-width="0.75" stroke-linejoin="round" stroke-miterlimit="10" d="
				M229,61.9c-1.6,0-2.9-1.3-2.9-2.9v-8.3c0-1.6,1.3-2.9,2.9-2.9h8.3c1.6,0,2.9,1.3,2.9,2.9v8.3c0,1.6-1.3,2.9-2.9,2.9H229z
				 M258.4,61.9c1.6,0,2.9-1.3,2.9-2.9v-8.3c0-1.6-1.3-2.9-2.9-2.9h-8.3c-1.6,0-2.9,1.3-2.9,2.9v8.3c0,1.6,1.3,2.9,2.9,2.9H258.4z
				 M279.5,61.9c1.6,0,2.9-1.3,2.9-2.9v-8.3c0-1.6-1.3-2.9-2.9-2.9h-8.3c-1.6,0-2.9,1.3-2.9,2.9v8.3c0,1.6,1.3,2.9,2.9,2.9H279.5z"
				/>
		</g>
		<g id="On-Off_Button">
			
				<rect id="Text" x="20" y="51.8" fill="#8C8C91" stroke="#8C8C91" stroke-width="0.75" stroke-linecap="round" stroke-linejoin="round" stroke-miterlimit="10" width="14.1" height="2.7"/>
			<linearGradient id="Button_1_" gradientUnits="userSpaceOnUse" x1="27.0581" y1="29.9668" x2="27.0581" y2="63.4477">
				<stop  offset="0" style="stop-color:#FFFFFF"/>
				<stop  offset="1" style="stop-color:#7C7C7B"/>
			</linearGradient>
			
				<path id="Button" fill="url(#Button_1_)" stroke="#575756" stroke-width="0.75" stroke-linejoin="round" stroke-miterlimit="10" d="
				M36.4,49.8c1.2,0,2.2-1,2.2-2.2v-6.1c0-1.2-1-2.2-2.2-2.2H17.7c-1.2,0-2.2,1-2.2,2.2v6.1c0,1.2,1,2.2,2.2,2.2H36.4z"/>
		</g>
	</g>
	
		<linearGradient id="Reflection_Line_Horizontal_1_" gradientUnits="userSpaceOnUse" x1="150.1802" y1="79.4546" x2="150.1802" y2="86.0681">
		<stop  offset="0" style="stop-color:#DEDEDE"/>
		<stop  offset="1" style="stop-color:#646567"/>
	</linearGradient>
	<rect id="Reflection_Line_Horizontal" x="5.4" y="80" fill="url(#Reflection_Line_Horizontal_1_)" width="289.6" height="2.3"/>
</g>
<g id="Display">
	<linearGradient id="Shape_Hollow_1_" gradientUnits="userSpaceOnUse" x1="305.0791" y1="145.2246" x2="-47.6706" y2="-37.8224">
		<stop  offset="0" style="stop-color:#FFFFFF"/>
		<stop  offset="1" style="stop-color:#7C7C7B"/>
	</linearGradient>
	
		<path id="Shape_Hollow" fill="url(#Shape_Hollow_1_)" stroke="#646567" stroke-width="0.75" stroke-linecap="round" stroke-linejoin="round" stroke-miterlimit="10" d="
		M213.4,87.3V46.8c0-4.1-3.3-7.4-7.4-7.4H94.1c-4.1,0-7.4,3.3-7.4,7.4v40.5H213.4z"/>
	<g id="Display_1_">
		<linearGradient id="Shape_6_" gradientUnits="userSpaceOnUse" x1="75.3774" y1="24.9487" x2="142.1929" y2="54.0048">
			<stop  offset="0" style="stop-color:#FFFFFF"/>
			<stop  offset="1" style="stop-color:#424242"/>
		</linearGradient>
		
			<rect id="Shape_1_" x="94.2" y="46.4" fill="url(#Shape_6_)" stroke="#575756" stroke-width="0.75" stroke-linecap="round" stroke-linejoin="round" stroke-miterlimit="10" width="111.8" height="22"/>
		<polygon id="Refection" fill="#9A9A99" points="125.5,68 94.6,68 94.6,46.9 140,46.9 		"/>
	</g>
	<path id="Reflection_Lines" fill="none" stroke="#FFFFFF" stroke-width="0.75" stroke-linejoin="round" stroke-miterlimit="10" d="
		M86.8,87.3H213 M94.6,69.2h112.2V46.2"/>
	
		<path id="Shadow" fill="#6A6A69" stroke="#6A6A69" stroke-width="0.75" stroke-linecap="round" stroke-linejoin="round" stroke-miterlimit="10" d="
		M89.5,87.3h-2.7V46.8c0-4.1,3.3-7.4,7.4-7.4H206c4.1,0,7.4,3.3,7.4,7.4v0.6c0-3.1-2.5-5.6-5.6-5.6H95.1c-3.1,0-5.6,2.5-5.6,5.6
		V87.3z"/>
</g>
<g id="Scale_Platform">
	<linearGradient id="Measure_Pipe_1_" gradientUnits="userSpaceOnUse" x1="108.4956" y1="23.8242" x2="176.0301" y2="23.8242">
		<stop  offset="0" style="stop-color:#575756"/>
		<stop  offset="1.586480e-02" style="stop-color:#5D5C5C"/>
		<stop  offset="0.1171" style="stop-color:#797878"/>
		<stop  offset="0.2183" style="stop-color:#8D8D8C"/>
		<stop  offset="0.3189" style="stop-color:#999998"/>
		<stop  offset="0.4178" style="stop-color:#9D9D9C"/>
		<stop  offset="0.5402" style="stop-color:#979696"/>
		<stop  offset="0.7122" style="stop-color:#848484"/>
		<stop  offset="0.9127" style="stop-color:#676666"/>
		<stop  offset="1" style="stop-color:#575756"/>
	</linearGradient>
	
		<rect id="Measure_Pipe" x="107.3" y="21.6" fill="url(#Measure_Pipe_1_)" stroke="#646567" stroke-width="0.75" stroke-linecap="round" stroke-linejoin="round" stroke-miterlimit="10" width="85.2" height="4.5"/>
	<g id="Platform">
		<linearGradient id="Shape_7_" gradientUnits="userSpaceOnUse" x1="117.3223" y1="-82.9395" x2="218.9379" y2="212.1565">
			<stop  offset="0" style="stop-color:#FFFFFF"/>
			<stop  offset="1" style="stop-color:#7C7C7B"/>
		</linearGradient>
		
			<rect id="Shape" x="2.5" y="2.5" fill="url(#Shape_7_)" stroke="#8C8C91" stroke-width="0.75" stroke-linecap="round" stroke-linejoin="round" stroke-miterlimit="10" width="295.3" height="19.5"/>
		<linearGradient id="Edge_Right_1_" gradientUnits="userSpaceOnUse" x1="281.8018" y1="11.5361" x2="301.3193" y2="12.576">
			<stop  offset="0" style="stop-color:#FFFFFF"/>
			<stop  offset="1" style="stop-color:#7C7C7B"/>
		</linearGradient>
		
			<polyline id="Edge_Right" fill="url(#Edge_Right_1_)" stroke="#8C8C91" stroke-width="0.75" stroke-linecap="round" stroke-linejoin="round" stroke-miterlimit="10" points="
			290.9,22 297.7,22 297.7,2.5 290.9,2.5 		"/>
		<linearGradient id="Edge_Left_1_" gradientUnits="userSpaceOnUse" x1="4.6699" y1="12.0781" x2="33.353" y2="15.0536">
			<stop  offset="0" style="stop-color:#FFFFFF"/>
			<stop  offset="1" style="stop-color:#7C7C7B"/>
		</linearGradient>
		
			<polyline id="Edge_Left" fill="url(#Edge_Left_1_)" stroke="#8C8C91" stroke-width="0.75" stroke-linecap="round" stroke-linejoin="round" stroke-miterlimit="10" points="
			9.3,22 2.5,22 2.5,2.5 9.3,2.5 		"/>
	</g>
</g>
</svg>
